G04 #@! TF.GenerationSoftware,KiCad,Pcbnew,(7.0.0)*
G04 #@! TF.CreationDate,2023-03-15T12:29:16-07:00*
G04 #@! TF.ProjectId,OpenRectangle,4f70656e-5265-4637-9461-6e676c652e6b,rev?*
G04 #@! TF.SameCoordinates,Original*
G04 #@! TF.FileFunction,Legend,Bot*
G04 #@! TF.FilePolarity,Positive*
%FSLAX46Y46*%
G04 Gerber Fmt 4.6, Leading zero omitted, Abs format (unit mm)*
G04 Created by KiCad (PCBNEW (7.0.0)) date 2023-03-15 12:29:16*
%MOMM*%
%LPD*%
G01*
G04 APERTURE LIST*
G04 Aperture macros list*
%AMRoundRect*
0 Rectangle with rounded corners*
0 $1 Rounding radius*
0 $2 $3 $4 $5 $6 $7 $8 $9 X,Y pos of 4 corners*
0 Add a 4 corners polygon primitive as box body*
4,1,4,$2,$3,$4,$5,$6,$7,$8,$9,$2,$3,0*
0 Add four circle primitives for the rounded corners*
1,1,$1+$1,$2,$3*
1,1,$1+$1,$4,$5*
1,1,$1+$1,$6,$7*
1,1,$1+$1,$8,$9*
0 Add four rect primitives between the rounded corners*
20,1,$1+$1,$2,$3,$4,$5,0*
20,1,$1+$1,$4,$5,$6,$7,0*
20,1,$1+$1,$6,$7,$8,$9,0*
20,1,$1+$1,$8,$9,$2,$3,0*%
G04 Aperture macros list end*
%ADD10C,0.150000*%
%ADD11C,3.800000*%
%ADD12C,1.750000*%
%ADD13C,3.987800*%
%ADD14C,2.300000*%
%ADD15C,0.990600*%
%ADD16C,0.650000*%
%ADD17O,0.800000X1.400000*%
%ADD18C,3.300000*%
%ADD19RoundRect,0.250000X1.248893X0.700636X-0.731255X1.231215X-1.248893X-0.700636X0.731255X-1.231215X0*%
%ADD20RoundRect,0.250000X0.731255X1.231215X-1.248893X0.700636X-0.731255X-1.231215X1.248893X-0.700636X0*%
%ADD21RoundRect,0.250000X1.025000X1.000000X-1.025000X1.000000X-1.025000X-1.000000X1.025000X-1.000000X0*%
G04 APERTURE END LIST*
D10*
X71959235Y-70935691D02*
X71808921Y-70944713D01*
X71808921Y-70944713D02*
X71578938Y-70883089D01*
X71578938Y-70883089D02*
X71499270Y-70812444D01*
X71499270Y-70812444D02*
X71465598Y-70754122D01*
X71465598Y-70754122D02*
X71444251Y-70649805D01*
X71444251Y-70649805D02*
X71468901Y-70557812D01*
X71468901Y-70557812D02*
X71539546Y-70478144D01*
X71539546Y-70478144D02*
X71597868Y-70444472D01*
X71597868Y-70444472D02*
X71702185Y-70423125D01*
X71702185Y-70423125D02*
X71898496Y-70426427D01*
X71898496Y-70426427D02*
X72002814Y-70405080D01*
X72002814Y-70405080D02*
X72061135Y-70371408D01*
X72061135Y-70371408D02*
X72131781Y-70291740D01*
X72131781Y-70291740D02*
X72156430Y-70199747D01*
X72156430Y-70199747D02*
X72135083Y-70095430D01*
X72135083Y-70095430D02*
X72101411Y-70037108D01*
X72101411Y-70037108D02*
X72021743Y-69966462D01*
X72021743Y-69966462D02*
X71791761Y-69904839D01*
X71791761Y-69904839D02*
X71641447Y-69913861D01*
X71331796Y-69781592D02*
X70842995Y-70685894D01*
X70842995Y-70685894D02*
X70843880Y-69946648D01*
X70843880Y-69946648D02*
X70475023Y-70587296D01*
X70475023Y-70587296D02*
X70503860Y-69559747D01*
X69675923Y-69337902D02*
X70135888Y-69461149D01*
X70135888Y-69461149D02*
X70058637Y-69933439D01*
X70058637Y-69933439D02*
X70024966Y-69875117D01*
X70024966Y-69875117D02*
X69945297Y-69804471D01*
X69945297Y-69804471D02*
X69715315Y-69742848D01*
X69715315Y-69742848D02*
X69610997Y-69764195D01*
X69610997Y-69764195D02*
X69552676Y-69797867D01*
X69552676Y-69797867D02*
X69482030Y-69877535D01*
X69482030Y-69877535D02*
X69420407Y-70107517D01*
X69420407Y-70107517D02*
X69441754Y-70211835D01*
X69441754Y-70211835D02*
X69475425Y-70270156D01*
X69475425Y-70270156D02*
X69555094Y-70340802D01*
X69555094Y-70340802D02*
X69785076Y-70402426D01*
X69785076Y-70402426D02*
X69889394Y-70381078D01*
X69889394Y-70381078D02*
X69947715Y-70347407D01*
X247920109Y-54275303D02*
X247794444Y-54358273D01*
X247794444Y-54358273D02*
X247564462Y-54419897D01*
X247564462Y-54419897D02*
X247460144Y-54398550D01*
X247460144Y-54398550D02*
X247401823Y-54364878D01*
X247401823Y-54364878D02*
X247331177Y-54285210D01*
X247331177Y-54285210D02*
X247306528Y-54193217D01*
X247306528Y-54193217D02*
X247327875Y-54088899D01*
X247327875Y-54088899D02*
X247361546Y-54030578D01*
X247361546Y-54030578D02*
X247441215Y-53959932D01*
X247441215Y-53959932D02*
X247612876Y-53864637D01*
X247612876Y-53864637D02*
X247692544Y-53793991D01*
X247692544Y-53793991D02*
X247726216Y-53735670D01*
X247726216Y-53735670D02*
X247747563Y-53631352D01*
X247747563Y-53631352D02*
X247722913Y-53539359D01*
X247722913Y-53539359D02*
X247652267Y-53459691D01*
X247652267Y-53459691D02*
X247593946Y-53426019D01*
X247593946Y-53426019D02*
X247489629Y-53404672D01*
X247489629Y-53404672D02*
X247259646Y-53466296D01*
X247259646Y-53466296D02*
X247133982Y-53549266D01*
X246799681Y-53589543D02*
X246828518Y-54617092D01*
X246828518Y-54617092D02*
X246459662Y-53976444D01*
X246459662Y-53976444D02*
X246460546Y-54715690D01*
X246460546Y-54715690D02*
X245971745Y-53811388D01*
X245356631Y-55011483D02*
X245908589Y-54863587D01*
X245632610Y-54937535D02*
X245373791Y-53971609D01*
X245373791Y-53971609D02*
X245502758Y-54084949D01*
X245502758Y-54084949D02*
X245619401Y-54152292D01*
X245619401Y-54152292D02*
X245723718Y-54173640D01*
X244775837Y-54131830D02*
X244177883Y-54292052D01*
X244177883Y-54292052D02*
X244598456Y-54573750D01*
X244598456Y-54573750D02*
X244460467Y-54610725D01*
X244460467Y-54610725D02*
X244380798Y-54681370D01*
X244380798Y-54681370D02*
X244347127Y-54739692D01*
X244347127Y-54739692D02*
X244325780Y-54844009D01*
X244325780Y-54844009D02*
X244387403Y-55073992D01*
X244387403Y-55073992D02*
X244458049Y-55153660D01*
X244458049Y-55153660D02*
X244516370Y-55187332D01*
X244516370Y-55187332D02*
X244620688Y-55208679D01*
X244620688Y-55208679D02*
X244896667Y-55134730D01*
X244896667Y-55134730D02*
X244976335Y-55064084D01*
X244976335Y-55064084D02*
X245010007Y-55005763D01*
X255065844Y-80943549D02*
X254940179Y-81026519D01*
X254940179Y-81026519D02*
X254710197Y-81088143D01*
X254710197Y-81088143D02*
X254605879Y-81066796D01*
X254605879Y-81066796D02*
X254547558Y-81033124D01*
X254547558Y-81033124D02*
X254476912Y-80953456D01*
X254476912Y-80953456D02*
X254452263Y-80861463D01*
X254452263Y-80861463D02*
X254473610Y-80757145D01*
X254473610Y-80757145D02*
X254507281Y-80698824D01*
X254507281Y-80698824D02*
X254586950Y-80628178D01*
X254586950Y-80628178D02*
X254758611Y-80532883D01*
X254758611Y-80532883D02*
X254838279Y-80462237D01*
X254838279Y-80462237D02*
X254871951Y-80403916D01*
X254871951Y-80403916D02*
X254893298Y-80299598D01*
X254893298Y-80299598D02*
X254868648Y-80207605D01*
X254868648Y-80207605D02*
X254798002Y-80127937D01*
X254798002Y-80127937D02*
X254739681Y-80094265D01*
X254739681Y-80094265D02*
X254635364Y-80072918D01*
X254635364Y-80072918D02*
X254405381Y-80134542D01*
X254405381Y-80134542D02*
X254279717Y-80217512D01*
X253945416Y-80257789D02*
X253974253Y-81285338D01*
X253974253Y-81285338D02*
X253605397Y-80644690D01*
X253605397Y-80644690D02*
X253606281Y-81383936D01*
X253606281Y-81383936D02*
X253117480Y-80479634D01*
X252820154Y-80657900D02*
X252761833Y-80624228D01*
X252761833Y-80624228D02*
X252657516Y-80602881D01*
X252657516Y-80602881D02*
X252427533Y-80664504D01*
X252427533Y-80664504D02*
X252347865Y-80735150D01*
X252347865Y-80735150D02*
X252314193Y-80793472D01*
X252314193Y-80793472D02*
X252292846Y-80897789D01*
X252292846Y-80897789D02*
X252317496Y-80989782D01*
X252317496Y-80989782D02*
X252400466Y-81115447D01*
X252400466Y-81115447D02*
X253100320Y-81519508D01*
X253100320Y-81519508D02*
X252502366Y-81679729D01*
X251582437Y-81926223D02*
X252134395Y-81778327D01*
X251858416Y-81852275D02*
X251599597Y-80886349D01*
X251599597Y-80886349D02*
X251728564Y-80999689D01*
X251728564Y-80999689D02*
X251845206Y-81067033D01*
X251845206Y-81067033D02*
X251949524Y-81088380D01*
X204161832Y-79896627D02*
X204018975Y-79944246D01*
X204018975Y-79944246D02*
X203780880Y-79944246D01*
X203780880Y-79944246D02*
X203685642Y-79896627D01*
X203685642Y-79896627D02*
X203638023Y-79849008D01*
X203638023Y-79849008D02*
X203590404Y-79753770D01*
X203590404Y-79753770D02*
X203590404Y-79658532D01*
X203590404Y-79658532D02*
X203638023Y-79563294D01*
X203638023Y-79563294D02*
X203685642Y-79515675D01*
X203685642Y-79515675D02*
X203780880Y-79468056D01*
X203780880Y-79468056D02*
X203971356Y-79420437D01*
X203971356Y-79420437D02*
X204066594Y-79372818D01*
X204066594Y-79372818D02*
X204114213Y-79325199D01*
X204114213Y-79325199D02*
X204161832Y-79229961D01*
X204161832Y-79229961D02*
X204161832Y-79134723D01*
X204161832Y-79134723D02*
X204114213Y-79039485D01*
X204114213Y-79039485D02*
X204066594Y-78991866D01*
X204066594Y-78991866D02*
X203971356Y-78944246D01*
X203971356Y-78944246D02*
X203733261Y-78944246D01*
X203733261Y-78944246D02*
X203590404Y-78991866D01*
X203257070Y-78944246D02*
X203018975Y-79944246D01*
X203018975Y-79944246D02*
X202828499Y-79229961D01*
X202828499Y-79229961D02*
X202638023Y-79944246D01*
X202638023Y-79944246D02*
X202399928Y-78944246D01*
X202066594Y-79039485D02*
X202018975Y-78991866D01*
X202018975Y-78991866D02*
X201923737Y-78944246D01*
X201923737Y-78944246D02*
X201685642Y-78944246D01*
X201685642Y-78944246D02*
X201590404Y-78991866D01*
X201590404Y-78991866D02*
X201542785Y-79039485D01*
X201542785Y-79039485D02*
X201495166Y-79134723D01*
X201495166Y-79134723D02*
X201495166Y-79229961D01*
X201495166Y-79229961D02*
X201542785Y-79372818D01*
X201542785Y-79372818D02*
X202114213Y-79944246D01*
X202114213Y-79944246D02*
X201495166Y-79944246D01*
X218559059Y-122263614D02*
X218433394Y-122346584D01*
X218433394Y-122346584D02*
X218203412Y-122408208D01*
X218203412Y-122408208D02*
X218099094Y-122386861D01*
X218099094Y-122386861D02*
X218040773Y-122353189D01*
X218040773Y-122353189D02*
X217970127Y-122273521D01*
X217970127Y-122273521D02*
X217945478Y-122181528D01*
X217945478Y-122181528D02*
X217966825Y-122077210D01*
X217966825Y-122077210D02*
X218000496Y-122018889D01*
X218000496Y-122018889D02*
X218080165Y-121948243D01*
X218080165Y-121948243D02*
X218251826Y-121852948D01*
X218251826Y-121852948D02*
X218331494Y-121782302D01*
X218331494Y-121782302D02*
X218365166Y-121723981D01*
X218365166Y-121723981D02*
X218386513Y-121619663D01*
X218386513Y-121619663D02*
X218361863Y-121527670D01*
X218361863Y-121527670D02*
X218291217Y-121448002D01*
X218291217Y-121448002D02*
X218232896Y-121414330D01*
X218232896Y-121414330D02*
X218128579Y-121392983D01*
X218128579Y-121392983D02*
X217898596Y-121454607D01*
X217898596Y-121454607D02*
X217772932Y-121537577D01*
X217438631Y-121577854D02*
X217467468Y-122605403D01*
X217467468Y-122605403D02*
X217098612Y-121964755D01*
X217098612Y-121964755D02*
X217099496Y-122704001D01*
X217099496Y-122704001D02*
X216610695Y-121799699D01*
X216334716Y-121873647D02*
X215736762Y-122033868D01*
X215736762Y-122033868D02*
X216157335Y-122315567D01*
X216157335Y-122315567D02*
X216019346Y-122352541D01*
X216019346Y-122352541D02*
X215939678Y-122423187D01*
X215939678Y-122423187D02*
X215906006Y-122481508D01*
X215906006Y-122481508D02*
X215884659Y-122585826D01*
X215884659Y-122585826D02*
X215946282Y-122815808D01*
X215946282Y-122815808D02*
X216016928Y-122895476D01*
X216016928Y-122895476D02*
X216075250Y-122929148D01*
X216075250Y-122929148D02*
X216179567Y-122950495D01*
X216179567Y-122950495D02*
X216455546Y-122876547D01*
X216455546Y-122876547D02*
X216535214Y-122805901D01*
X216535214Y-122805901D02*
X216568886Y-122747580D01*
X215393440Y-122224459D02*
X215335119Y-122190787D01*
X215335119Y-122190787D02*
X215230801Y-122169440D01*
X215230801Y-122169440D02*
X215000819Y-122231064D01*
X215000819Y-122231064D02*
X214921151Y-122301710D01*
X214921151Y-122301710D02*
X214887479Y-122360031D01*
X214887479Y-122360031D02*
X214866132Y-122464349D01*
X214866132Y-122464349D02*
X214890781Y-122556341D01*
X214890781Y-122556341D02*
X214973752Y-122682006D01*
X214973752Y-122682006D02*
X215673606Y-123086067D01*
X215673606Y-123086067D02*
X215075652Y-123246288D01*
X100597367Y-61731148D02*
X100447053Y-61740170D01*
X100447053Y-61740170D02*
X100217070Y-61678546D01*
X100217070Y-61678546D02*
X100137402Y-61607901D01*
X100137402Y-61607901D02*
X100103730Y-61549579D01*
X100103730Y-61549579D02*
X100082383Y-61445262D01*
X100082383Y-61445262D02*
X100107033Y-61353269D01*
X100107033Y-61353269D02*
X100177678Y-61273601D01*
X100177678Y-61273601D02*
X100236000Y-61239929D01*
X100236000Y-61239929D02*
X100340317Y-61218582D01*
X100340317Y-61218582D02*
X100536628Y-61221884D01*
X100536628Y-61221884D02*
X100640946Y-61200537D01*
X100640946Y-61200537D02*
X100699267Y-61166865D01*
X100699267Y-61166865D02*
X100769913Y-61087197D01*
X100769913Y-61087197D02*
X100794562Y-60995204D01*
X100794562Y-60995204D02*
X100773215Y-60890887D01*
X100773215Y-60890887D02*
X100739543Y-60832565D01*
X100739543Y-60832565D02*
X100659875Y-60761919D01*
X100659875Y-60761919D02*
X100429893Y-60700296D01*
X100429893Y-60700296D02*
X100279579Y-60709318D01*
X99969928Y-60577049D02*
X99481127Y-61481351D01*
X99481127Y-61481351D02*
X99482012Y-60742105D01*
X99482012Y-60742105D02*
X99113155Y-61382753D01*
X99113155Y-61382753D02*
X99141992Y-60355204D01*
X98360052Y-60145684D02*
X98544038Y-60194983D01*
X98544038Y-60194983D02*
X98623706Y-60265628D01*
X98623706Y-60265628D02*
X98657378Y-60323950D01*
X98657378Y-60323950D02*
X98712396Y-60486588D01*
X98712396Y-60486588D02*
X98709094Y-60682899D01*
X98709094Y-60682899D02*
X98610496Y-61050871D01*
X98610496Y-61050871D02*
X98539850Y-61130539D01*
X98539850Y-61130539D02*
X98481529Y-61164211D01*
X98481529Y-61164211D02*
X98377212Y-61185558D01*
X98377212Y-61185558D02*
X98193226Y-61136259D01*
X98193226Y-61136259D02*
X98113557Y-61065613D01*
X98113557Y-61065613D02*
X98079886Y-61007292D01*
X98079886Y-61007292D02*
X98058539Y-60902974D01*
X98058539Y-60902974D02*
X98120162Y-60672992D01*
X98120162Y-60672992D02*
X98190808Y-60593324D01*
X98190808Y-60593324D02*
X98249129Y-60559652D01*
X98249129Y-60559652D02*
X98353447Y-60538305D01*
X98353447Y-60538305D02*
X98537433Y-60587604D01*
X98537433Y-60587604D02*
X98617101Y-60658250D01*
X98617101Y-60658250D02*
X98650773Y-60716571D01*
X98650773Y-60716571D02*
X98672120Y-60820888D01*
X262358000Y-110527723D02*
X262232335Y-110610693D01*
X262232335Y-110610693D02*
X262002353Y-110672317D01*
X262002353Y-110672317D02*
X261898035Y-110650970D01*
X261898035Y-110650970D02*
X261839714Y-110617298D01*
X261839714Y-110617298D02*
X261769068Y-110537630D01*
X261769068Y-110537630D02*
X261744419Y-110445637D01*
X261744419Y-110445637D02*
X261765766Y-110341319D01*
X261765766Y-110341319D02*
X261799437Y-110282998D01*
X261799437Y-110282998D02*
X261879106Y-110212352D01*
X261879106Y-110212352D02*
X262050767Y-110117057D01*
X262050767Y-110117057D02*
X262130435Y-110046411D01*
X262130435Y-110046411D02*
X262164107Y-109988090D01*
X262164107Y-109988090D02*
X262185454Y-109883772D01*
X262185454Y-109883772D02*
X262160804Y-109791779D01*
X262160804Y-109791779D02*
X262090158Y-109712111D01*
X262090158Y-109712111D02*
X262031837Y-109678439D01*
X262031837Y-109678439D02*
X261927520Y-109657092D01*
X261927520Y-109657092D02*
X261697537Y-109718716D01*
X261697537Y-109718716D02*
X261571873Y-109801686D01*
X261237572Y-109841963D02*
X261266409Y-110869512D01*
X261266409Y-110869512D02*
X260897553Y-110228864D01*
X260897553Y-110228864D02*
X260898437Y-110968110D01*
X260898437Y-110968110D02*
X260409636Y-110063808D01*
X259713969Y-110595303D02*
X259886515Y-111239254D01*
X259845354Y-110165708D02*
X260260207Y-110794031D01*
X260260207Y-110794031D02*
X259662253Y-110954253D01*
X258937749Y-110458199D02*
X258845756Y-110482848D01*
X258845756Y-110482848D02*
X258766088Y-110553494D01*
X258766088Y-110553494D02*
X258732416Y-110611815D01*
X258732416Y-110611815D02*
X258711069Y-110716133D01*
X258711069Y-110716133D02*
X258714372Y-110912443D01*
X258714372Y-110912443D02*
X258775995Y-111142426D01*
X258775995Y-111142426D02*
X258871291Y-111314087D01*
X258871291Y-111314087D02*
X258941936Y-111393755D01*
X258941936Y-111393755D02*
X259000258Y-111427427D01*
X259000258Y-111427427D02*
X259104575Y-111448774D01*
X259104575Y-111448774D02*
X259196568Y-111424124D01*
X259196568Y-111424124D02*
X259276236Y-111353479D01*
X259276236Y-111353479D02*
X259309908Y-111295157D01*
X259309908Y-111295157D02*
X259331255Y-111190840D01*
X259331255Y-111190840D02*
X259327953Y-110994529D01*
X259327953Y-110994529D02*
X259266329Y-110764547D01*
X259266329Y-110764547D02*
X259171034Y-110592886D01*
X259171034Y-110592886D02*
X259100388Y-110513217D01*
X259100388Y-110513217D02*
X259042067Y-110479546D01*
X259042067Y-110479546D02*
X258937749Y-110458199D01*
X151774758Y-84799879D02*
X151624444Y-84808901D01*
X151624444Y-84808901D02*
X151394461Y-84747278D01*
X151394461Y-84747278D02*
X151314793Y-84676632D01*
X151314793Y-84676632D02*
X151281121Y-84618311D01*
X151281121Y-84618311D02*
X151259774Y-84513993D01*
X151259774Y-84513993D02*
X151284424Y-84422000D01*
X151284424Y-84422000D02*
X151355070Y-84342332D01*
X151355070Y-84342332D02*
X151413391Y-84308660D01*
X151413391Y-84308660D02*
X151517709Y-84287313D01*
X151517709Y-84287313D02*
X151714019Y-84290615D01*
X151714019Y-84290615D02*
X151818337Y-84269268D01*
X151818337Y-84269268D02*
X151876658Y-84235597D01*
X151876658Y-84235597D02*
X151947304Y-84155928D01*
X151947304Y-84155928D02*
X151971953Y-84063936D01*
X151971953Y-84063936D02*
X151950606Y-83959618D01*
X151950606Y-83959618D02*
X151916934Y-83901297D01*
X151916934Y-83901297D02*
X151837266Y-83830651D01*
X151837266Y-83830651D02*
X151607284Y-83769027D01*
X151607284Y-83769027D02*
X151456970Y-83778050D01*
X151147319Y-83645780D02*
X150658518Y-84550082D01*
X150658518Y-84550082D02*
X150659403Y-83810836D01*
X150659403Y-83810836D02*
X150290546Y-84451485D01*
X150290546Y-84451485D02*
X150319383Y-83423935D01*
X149186631Y-84155691D02*
X149738589Y-84303588D01*
X149462610Y-84229640D02*
X149721429Y-83263714D01*
X149721429Y-83263714D02*
X149776448Y-83426353D01*
X149776448Y-83426353D02*
X149843791Y-83542995D01*
X149843791Y-83542995D02*
X149923459Y-83613641D01*
X148266702Y-83909197D02*
X148818659Y-84057094D01*
X148542680Y-83983145D02*
X148801499Y-83017220D01*
X148801499Y-83017220D02*
X148856518Y-83179858D01*
X148856518Y-83179858D02*
X148923862Y-83296501D01*
X148923862Y-83296501D02*
X149003530Y-83367147D01*
X270429736Y-35824693D02*
X270304071Y-35907663D01*
X270304071Y-35907663D02*
X270074089Y-35969287D01*
X270074089Y-35969287D02*
X269969771Y-35947940D01*
X269969771Y-35947940D02*
X269911450Y-35914268D01*
X269911450Y-35914268D02*
X269840804Y-35834600D01*
X269840804Y-35834600D02*
X269816155Y-35742607D01*
X269816155Y-35742607D02*
X269837502Y-35638289D01*
X269837502Y-35638289D02*
X269871173Y-35579968D01*
X269871173Y-35579968D02*
X269950842Y-35509322D01*
X269950842Y-35509322D02*
X270122503Y-35414027D01*
X270122503Y-35414027D02*
X270202171Y-35343381D01*
X270202171Y-35343381D02*
X270235843Y-35285060D01*
X270235843Y-35285060D02*
X270257190Y-35180742D01*
X270257190Y-35180742D02*
X270232540Y-35088749D01*
X270232540Y-35088749D02*
X270161894Y-35009081D01*
X270161894Y-35009081D02*
X270103573Y-34975409D01*
X270103573Y-34975409D02*
X269999256Y-34954062D01*
X269999256Y-34954062D02*
X269769273Y-35015686D01*
X269769273Y-35015686D02*
X269643609Y-35098656D01*
X269309308Y-35138933D02*
X269338145Y-36166482D01*
X269338145Y-36166482D02*
X268969289Y-35525834D01*
X268969289Y-35525834D02*
X268970173Y-36265080D01*
X268970173Y-36265080D02*
X268481372Y-35360778D01*
X267866258Y-36560873D02*
X268418216Y-36412977D01*
X268142237Y-36486925D02*
X267883418Y-35520999D01*
X267883418Y-35520999D02*
X268012385Y-35634339D01*
X268012385Y-35634339D02*
X268129028Y-35701682D01*
X268129028Y-35701682D02*
X268233345Y-35723030D01*
X266865776Y-36138767D02*
X267038322Y-36782718D01*
X266997160Y-35709172D02*
X267412014Y-36337496D01*
X267412014Y-36337496D02*
X266814059Y-36497717D01*
X128692700Y-66437107D02*
X128542386Y-66446129D01*
X128542386Y-66446129D02*
X128312403Y-66384505D01*
X128312403Y-66384505D02*
X128232735Y-66313860D01*
X128232735Y-66313860D02*
X128199063Y-66255538D01*
X128199063Y-66255538D02*
X128177716Y-66151221D01*
X128177716Y-66151221D02*
X128202366Y-66059228D01*
X128202366Y-66059228D02*
X128273011Y-65979560D01*
X128273011Y-65979560D02*
X128331333Y-65945888D01*
X128331333Y-65945888D02*
X128435650Y-65924541D01*
X128435650Y-65924541D02*
X128631961Y-65927843D01*
X128631961Y-65927843D02*
X128736279Y-65906496D01*
X128736279Y-65906496D02*
X128794600Y-65872824D01*
X128794600Y-65872824D02*
X128865246Y-65793156D01*
X128865246Y-65793156D02*
X128889895Y-65701163D01*
X128889895Y-65701163D02*
X128868548Y-65596846D01*
X128868548Y-65596846D02*
X128834876Y-65538524D01*
X128834876Y-65538524D02*
X128755208Y-65467878D01*
X128755208Y-65467878D02*
X128525226Y-65406255D01*
X128525226Y-65406255D02*
X128374912Y-65415277D01*
X128065261Y-65283008D02*
X127576460Y-66187310D01*
X127576460Y-66187310D02*
X127577345Y-65448064D01*
X127577345Y-65448064D02*
X127208488Y-66088712D01*
X127208488Y-66088712D02*
X127237325Y-65061163D01*
X126564537Y-65916166D02*
X126380552Y-65866867D01*
X126380552Y-65866867D02*
X126300883Y-65796221D01*
X126300883Y-65796221D02*
X126267212Y-65737900D01*
X126267212Y-65737900D02*
X126212193Y-65575261D01*
X126212193Y-65575261D02*
X126215495Y-65378951D01*
X126215495Y-65378951D02*
X126314093Y-65010979D01*
X126314093Y-65010979D02*
X126384739Y-64931311D01*
X126384739Y-64931311D02*
X126443060Y-64897639D01*
X126443060Y-64897639D02*
X126547378Y-64876292D01*
X126547378Y-64876292D02*
X126731364Y-64925591D01*
X126731364Y-64925591D02*
X126811032Y-64996237D01*
X126811032Y-64996237D02*
X126844704Y-65054558D01*
X126844704Y-65054558D02*
X126866051Y-65158876D01*
X126866051Y-65158876D02*
X126804427Y-65388858D01*
X126804427Y-65388858D02*
X126733781Y-65468526D01*
X126733781Y-65468526D02*
X126675460Y-65502198D01*
X126675460Y-65502198D02*
X126571142Y-65523545D01*
X126571142Y-65523545D02*
X126387156Y-65474246D01*
X126387156Y-65474246D02*
X126307488Y-65403600D01*
X126307488Y-65403600D02*
X126273816Y-65345279D01*
X126273816Y-65345279D02*
X126252469Y-65240961D01*
X226630331Y-149386011D02*
X226504666Y-149468981D01*
X226504666Y-149468981D02*
X226274684Y-149530605D01*
X226274684Y-149530605D02*
X226170366Y-149509258D01*
X226170366Y-149509258D02*
X226112045Y-149475586D01*
X226112045Y-149475586D02*
X226041399Y-149395918D01*
X226041399Y-149395918D02*
X226016750Y-149303925D01*
X226016750Y-149303925D02*
X226038097Y-149199607D01*
X226038097Y-149199607D02*
X226071768Y-149141286D01*
X226071768Y-149141286D02*
X226151437Y-149070640D01*
X226151437Y-149070640D02*
X226323098Y-148975345D01*
X226323098Y-148975345D02*
X226402766Y-148904699D01*
X226402766Y-148904699D02*
X226436438Y-148846378D01*
X226436438Y-148846378D02*
X226457785Y-148742060D01*
X226457785Y-148742060D02*
X226433135Y-148650067D01*
X226433135Y-148650067D02*
X226362489Y-148570399D01*
X226362489Y-148570399D02*
X226304168Y-148536727D01*
X226304168Y-148536727D02*
X226199851Y-148515380D01*
X226199851Y-148515380D02*
X225969868Y-148577004D01*
X225969868Y-148577004D02*
X225844204Y-148659974D01*
X225509903Y-148700251D02*
X225538740Y-149727800D01*
X225538740Y-149727800D02*
X225169884Y-149087152D01*
X225169884Y-149087152D02*
X225170768Y-149826398D01*
X225170768Y-149826398D02*
X224681967Y-148922096D01*
X224405988Y-148996044D02*
X223808034Y-149156265D01*
X223808034Y-149156265D02*
X224228607Y-149437964D01*
X224228607Y-149437964D02*
X224090618Y-149474938D01*
X224090618Y-149474938D02*
X224010950Y-149545584D01*
X224010950Y-149545584D02*
X223977278Y-149603905D01*
X223977278Y-149603905D02*
X223955931Y-149708223D01*
X223955931Y-149708223D02*
X224017554Y-149938205D01*
X224017554Y-149938205D02*
X224088200Y-150017873D01*
X224088200Y-150017873D02*
X224146522Y-150051545D01*
X224146522Y-150051545D02*
X224250839Y-150072892D01*
X224250839Y-150072892D02*
X224526818Y-149998944D01*
X224526818Y-149998944D02*
X224606486Y-149928298D01*
X224606486Y-149928298D02*
X224640158Y-149869977D01*
X222980098Y-149378110D02*
X223164084Y-149328811D01*
X223164084Y-149328811D02*
X223268401Y-149350158D01*
X223268401Y-149350158D02*
X223326723Y-149383830D01*
X223326723Y-149383830D02*
X223455690Y-149497170D01*
X223455690Y-149497170D02*
X223550985Y-149668831D01*
X223550985Y-149668831D02*
X223649583Y-150036803D01*
X223649583Y-150036803D02*
X223628236Y-150141121D01*
X223628236Y-150141121D02*
X223594564Y-150199442D01*
X223594564Y-150199442D02*
X223514896Y-150270088D01*
X223514896Y-150270088D02*
X223330910Y-150319387D01*
X223330910Y-150319387D02*
X223226592Y-150298040D01*
X223226592Y-150298040D02*
X223168271Y-150264368D01*
X223168271Y-150264368D02*
X223097625Y-150184700D01*
X223097625Y-150184700D02*
X223036002Y-149954717D01*
X223036002Y-149954717D02*
X223057349Y-149850400D01*
X223057349Y-149850400D02*
X223091020Y-149792078D01*
X223091020Y-149792078D02*
X223170689Y-149721433D01*
X223170689Y-149721433D02*
X223354674Y-149672134D01*
X223354674Y-149672134D02*
X223458992Y-149693481D01*
X223458992Y-149693481D02*
X223517313Y-149727152D01*
X223517313Y-149727152D02*
X223587959Y-149806821D01*
X183934526Y-155094202D02*
X183784212Y-155103224D01*
X183784212Y-155103224D02*
X183554229Y-155041601D01*
X183554229Y-155041601D02*
X183474561Y-154970955D01*
X183474561Y-154970955D02*
X183440889Y-154912634D01*
X183440889Y-154912634D02*
X183419542Y-154808316D01*
X183419542Y-154808316D02*
X183444192Y-154716323D01*
X183444192Y-154716323D02*
X183514838Y-154636655D01*
X183514838Y-154636655D02*
X183573159Y-154602983D01*
X183573159Y-154602983D02*
X183677477Y-154581636D01*
X183677477Y-154581636D02*
X183873787Y-154584938D01*
X183873787Y-154584938D02*
X183978105Y-154563591D01*
X183978105Y-154563591D02*
X184036426Y-154529920D01*
X184036426Y-154529920D02*
X184107072Y-154450251D01*
X184107072Y-154450251D02*
X184131721Y-154358259D01*
X184131721Y-154358259D02*
X184110374Y-154253941D01*
X184110374Y-154253941D02*
X184076702Y-154195620D01*
X184076702Y-154195620D02*
X183997034Y-154124974D01*
X183997034Y-154124974D02*
X183767052Y-154063350D01*
X183767052Y-154063350D02*
X183616738Y-154072373D01*
X183307087Y-153940103D02*
X182818286Y-154844405D01*
X182818286Y-154844405D02*
X182819171Y-154105159D01*
X182819171Y-154105159D02*
X182450314Y-154745808D01*
X182450314Y-154745808D02*
X182479151Y-153718258D01*
X182203172Y-153644310D02*
X181605218Y-153484089D01*
X181605218Y-153484089D02*
X181828596Y-153938333D01*
X181828596Y-153938333D02*
X181690606Y-153901359D01*
X181690606Y-153901359D02*
X181586289Y-153922706D01*
X181586289Y-153922706D02*
X181527967Y-153956378D01*
X181527967Y-153956378D02*
X181457321Y-154036046D01*
X181457321Y-154036046D02*
X181395698Y-154266029D01*
X181395698Y-154266029D02*
X181417045Y-154370346D01*
X181417045Y-154370346D02*
X181450717Y-154428667D01*
X181450717Y-154428667D02*
X181530385Y-154499313D01*
X181530385Y-154499313D02*
X181806364Y-154573262D01*
X181806364Y-154573262D02*
X181910681Y-154551915D01*
X181910681Y-154551915D02*
X181969002Y-154518243D01*
X180426470Y-154203520D02*
X180978427Y-154351417D01*
X180702448Y-154277468D02*
X180961267Y-153311543D01*
X180961267Y-153311543D02*
X181016286Y-153474181D01*
X181016286Y-153474181D02*
X181083630Y-153590824D01*
X181083630Y-153590824D02*
X181163298Y-153661470D01*
X166100918Y-133990432D02*
X165950604Y-133999454D01*
X165950604Y-133999454D02*
X165720621Y-133937831D01*
X165720621Y-133937831D02*
X165640953Y-133867185D01*
X165640953Y-133867185D02*
X165607281Y-133808864D01*
X165607281Y-133808864D02*
X165585934Y-133704546D01*
X165585934Y-133704546D02*
X165610584Y-133612553D01*
X165610584Y-133612553D02*
X165681230Y-133532885D01*
X165681230Y-133532885D02*
X165739551Y-133499213D01*
X165739551Y-133499213D02*
X165843869Y-133477866D01*
X165843869Y-133477866D02*
X166040179Y-133481168D01*
X166040179Y-133481168D02*
X166144497Y-133459821D01*
X166144497Y-133459821D02*
X166202818Y-133426150D01*
X166202818Y-133426150D02*
X166273464Y-133346481D01*
X166273464Y-133346481D02*
X166298113Y-133254489D01*
X166298113Y-133254489D02*
X166276766Y-133150171D01*
X166276766Y-133150171D02*
X166243094Y-133091850D01*
X166243094Y-133091850D02*
X166163426Y-133021204D01*
X166163426Y-133021204D02*
X165933444Y-132959580D01*
X165933444Y-132959580D02*
X165783130Y-132968603D01*
X165473479Y-132836333D02*
X164984678Y-133740635D01*
X164984678Y-133740635D02*
X164985563Y-133001389D01*
X164985563Y-133001389D02*
X164616706Y-133642038D01*
X164616706Y-133642038D02*
X164645543Y-132614488D01*
X164298918Y-132620208D02*
X164265246Y-132561887D01*
X164265246Y-132561887D02*
X164185578Y-132491241D01*
X164185578Y-132491241D02*
X163955596Y-132429617D01*
X163955596Y-132429617D02*
X163851278Y-132450964D01*
X163851278Y-132450964D02*
X163792957Y-132484636D01*
X163792957Y-132484636D02*
X163722311Y-132564304D01*
X163722311Y-132564304D02*
X163697662Y-132656297D01*
X163697662Y-132656297D02*
X163706684Y-132806611D01*
X163706684Y-132806611D02*
X164110745Y-133506466D01*
X164110745Y-133506466D02*
X163512791Y-133346244D01*
X163108730Y-132646390D02*
X163213048Y-132625043D01*
X163213048Y-132625043D02*
X163271369Y-132591371D01*
X163271369Y-132591371D02*
X163342015Y-132511703D01*
X163342015Y-132511703D02*
X163354339Y-132465707D01*
X163354339Y-132465707D02*
X163332992Y-132361389D01*
X163332992Y-132361389D02*
X163299321Y-132303068D01*
X163299321Y-132303068D02*
X163219652Y-132232422D01*
X163219652Y-132232422D02*
X163035666Y-132183123D01*
X163035666Y-132183123D02*
X162931349Y-132204470D01*
X162931349Y-132204470D02*
X162873028Y-132238142D01*
X162873028Y-132238142D02*
X162802382Y-132317810D01*
X162802382Y-132317810D02*
X162790057Y-132363807D01*
X162790057Y-132363807D02*
X162811404Y-132468124D01*
X162811404Y-132468124D02*
X162845076Y-132526445D01*
X162845076Y-132526445D02*
X162924744Y-132597091D01*
X162924744Y-132597091D02*
X163108730Y-132646390D01*
X163108730Y-132646390D02*
X163188398Y-132717036D01*
X163188398Y-132717036D02*
X163222070Y-132775357D01*
X163222070Y-132775357D02*
X163243417Y-132879675D01*
X163243417Y-132879675D02*
X163194118Y-133063661D01*
X163194118Y-133063661D02*
X163123472Y-133143329D01*
X163123472Y-133143329D02*
X163065151Y-133177001D01*
X163065151Y-133177001D02*
X162960833Y-133198348D01*
X162960833Y-133198348D02*
X162776847Y-133149049D01*
X162776847Y-133149049D02*
X162697179Y-133078403D01*
X162697179Y-133078403D02*
X162663507Y-133020082D01*
X162663507Y-133020082D02*
X162642160Y-132915764D01*
X162642160Y-132915764D02*
X162691459Y-132731778D01*
X162691459Y-132731778D02*
X162762105Y-132652110D01*
X162762105Y-132652110D02*
X162820426Y-132618438D01*
X162820426Y-132618438D02*
X162924744Y-132597091D01*
X305734544Y-58028721D02*
X305608879Y-58111691D01*
X305608879Y-58111691D02*
X305378897Y-58173315D01*
X305378897Y-58173315D02*
X305274579Y-58151968D01*
X305274579Y-58151968D02*
X305216258Y-58118296D01*
X305216258Y-58118296D02*
X305145612Y-58038628D01*
X305145612Y-58038628D02*
X305120963Y-57946635D01*
X305120963Y-57946635D02*
X305142310Y-57842317D01*
X305142310Y-57842317D02*
X305175981Y-57783996D01*
X305175981Y-57783996D02*
X305255650Y-57713350D01*
X305255650Y-57713350D02*
X305427311Y-57618055D01*
X305427311Y-57618055D02*
X305506979Y-57547409D01*
X305506979Y-57547409D02*
X305540651Y-57489088D01*
X305540651Y-57489088D02*
X305561998Y-57384770D01*
X305561998Y-57384770D02*
X305537348Y-57292777D01*
X305537348Y-57292777D02*
X305466702Y-57213109D01*
X305466702Y-57213109D02*
X305408381Y-57179437D01*
X305408381Y-57179437D02*
X305304064Y-57158090D01*
X305304064Y-57158090D02*
X305074081Y-57219714D01*
X305074081Y-57219714D02*
X304948417Y-57302684D01*
X304614116Y-57342961D02*
X304642953Y-58370510D01*
X304642953Y-58370510D02*
X304274097Y-57729862D01*
X304274097Y-57729862D02*
X304274981Y-58469108D01*
X304274981Y-58469108D02*
X303786180Y-57564806D01*
X303488854Y-57743072D02*
X303430533Y-57709400D01*
X303430533Y-57709400D02*
X303326216Y-57688053D01*
X303326216Y-57688053D02*
X303096233Y-57749676D01*
X303096233Y-57749676D02*
X303016565Y-57820322D01*
X303016565Y-57820322D02*
X302982893Y-57878644D01*
X302982893Y-57878644D02*
X302961546Y-57982961D01*
X302961546Y-57982961D02*
X302986196Y-58074954D01*
X302986196Y-58074954D02*
X303069166Y-58200619D01*
X303069166Y-58200619D02*
X303769020Y-58604680D01*
X303769020Y-58604680D02*
X303171066Y-58764901D01*
X302170584Y-58342795D02*
X302343130Y-58986746D01*
X302301968Y-57913200D02*
X302716822Y-58541524D01*
X302716822Y-58541524D02*
X302118867Y-58701745D01*
X328068445Y-40062083D02*
X327942780Y-40145053D01*
X327942780Y-40145053D02*
X327712798Y-40206677D01*
X327712798Y-40206677D02*
X327608480Y-40185330D01*
X327608480Y-40185330D02*
X327550159Y-40151658D01*
X327550159Y-40151658D02*
X327479513Y-40071990D01*
X327479513Y-40071990D02*
X327454864Y-39979997D01*
X327454864Y-39979997D02*
X327476211Y-39875679D01*
X327476211Y-39875679D02*
X327509882Y-39817358D01*
X327509882Y-39817358D02*
X327589551Y-39746712D01*
X327589551Y-39746712D02*
X327761212Y-39651417D01*
X327761212Y-39651417D02*
X327840880Y-39580771D01*
X327840880Y-39580771D02*
X327874552Y-39522450D01*
X327874552Y-39522450D02*
X327895899Y-39418132D01*
X327895899Y-39418132D02*
X327871249Y-39326139D01*
X327871249Y-39326139D02*
X327800603Y-39246471D01*
X327800603Y-39246471D02*
X327742282Y-39212799D01*
X327742282Y-39212799D02*
X327637965Y-39191452D01*
X327637965Y-39191452D02*
X327407982Y-39253076D01*
X327407982Y-39253076D02*
X327282318Y-39336046D01*
X326948017Y-39376323D02*
X326976854Y-40403872D01*
X326976854Y-40403872D02*
X326607998Y-39763224D01*
X326607998Y-39763224D02*
X326608882Y-40502470D01*
X326608882Y-40502470D02*
X326120081Y-39598168D01*
X325504967Y-40798263D02*
X326056925Y-40650367D01*
X325780946Y-40724315D02*
X325522127Y-39758389D01*
X325522127Y-39758389D02*
X325651094Y-39871729D01*
X325651094Y-39871729D02*
X325767737Y-39939072D01*
X325767737Y-39939072D02*
X325872054Y-39960420D01*
X324805113Y-40394202D02*
X324884781Y-40323556D01*
X324884781Y-40323556D02*
X324918453Y-40265235D01*
X324918453Y-40265235D02*
X324939800Y-40160917D01*
X324939800Y-40160917D02*
X324927475Y-40114921D01*
X324927475Y-40114921D02*
X324856829Y-40035253D01*
X324856829Y-40035253D02*
X324798508Y-40001581D01*
X324798508Y-40001581D02*
X324694191Y-39980234D01*
X324694191Y-39980234D02*
X324510205Y-40029533D01*
X324510205Y-40029533D02*
X324430537Y-40100179D01*
X324430537Y-40100179D02*
X324396865Y-40158500D01*
X324396865Y-40158500D02*
X324375518Y-40262818D01*
X324375518Y-40262818D02*
X324387842Y-40308814D01*
X324387842Y-40308814D02*
X324458488Y-40388482D01*
X324458488Y-40388482D02*
X324516810Y-40422154D01*
X324516810Y-40422154D02*
X324621127Y-40443501D01*
X324621127Y-40443501D02*
X324805113Y-40394202D01*
X324805113Y-40394202D02*
X324909431Y-40415549D01*
X324909431Y-40415549D02*
X324967752Y-40449221D01*
X324967752Y-40449221D02*
X325038398Y-40528889D01*
X325038398Y-40528889D02*
X325087697Y-40712875D01*
X325087697Y-40712875D02*
X325066350Y-40817193D01*
X325066350Y-40817193D02*
X325032678Y-40875514D01*
X325032678Y-40875514D02*
X324953010Y-40946160D01*
X324953010Y-40946160D02*
X324769024Y-40995459D01*
X324769024Y-40995459D02*
X324664706Y-40974112D01*
X324664706Y-40974112D02*
X324606385Y-40940440D01*
X324606385Y-40940440D02*
X324535739Y-40860772D01*
X324535739Y-40860772D02*
X324486440Y-40676786D01*
X324486440Y-40676786D02*
X324507787Y-40572468D01*
X324507787Y-40572468D02*
X324541459Y-40514147D01*
X324541459Y-40514147D02*
X324621127Y-40443501D01*
X244462714Y-131281533D02*
X244337049Y-131364503D01*
X244337049Y-131364503D02*
X244107067Y-131426127D01*
X244107067Y-131426127D02*
X244002749Y-131404780D01*
X244002749Y-131404780D02*
X243944428Y-131371108D01*
X243944428Y-131371108D02*
X243873782Y-131291440D01*
X243873782Y-131291440D02*
X243849133Y-131199447D01*
X243849133Y-131199447D02*
X243870480Y-131095129D01*
X243870480Y-131095129D02*
X243904151Y-131036808D01*
X243904151Y-131036808D02*
X243983820Y-130966162D01*
X243983820Y-130966162D02*
X244155481Y-130870867D01*
X244155481Y-130870867D02*
X244235149Y-130800221D01*
X244235149Y-130800221D02*
X244268821Y-130741900D01*
X244268821Y-130741900D02*
X244290168Y-130637582D01*
X244290168Y-130637582D02*
X244265518Y-130545589D01*
X244265518Y-130545589D02*
X244194872Y-130465921D01*
X244194872Y-130465921D02*
X244136551Y-130432249D01*
X244136551Y-130432249D02*
X244032234Y-130410902D01*
X244032234Y-130410902D02*
X243802251Y-130472526D01*
X243802251Y-130472526D02*
X243676587Y-130555496D01*
X243342286Y-130595773D02*
X243371123Y-131623322D01*
X243371123Y-131623322D02*
X243002267Y-130982674D01*
X243002267Y-130982674D02*
X243003151Y-131721920D01*
X243003151Y-131721920D02*
X242514350Y-130817618D01*
X242238371Y-130891566D02*
X241640417Y-131051787D01*
X241640417Y-131051787D02*
X242060990Y-131333486D01*
X242060990Y-131333486D02*
X241923001Y-131370460D01*
X241923001Y-131370460D02*
X241843333Y-131441106D01*
X241843333Y-131441106D02*
X241809661Y-131499427D01*
X241809661Y-131499427D02*
X241788314Y-131603745D01*
X241788314Y-131603745D02*
X241849937Y-131833727D01*
X241849937Y-131833727D02*
X241920583Y-131913395D01*
X241920583Y-131913395D02*
X241978905Y-131947067D01*
X241978905Y-131947067D02*
X242083222Y-131968414D01*
X242083222Y-131968414D02*
X242359201Y-131894466D01*
X242359201Y-131894466D02*
X242438869Y-131823820D01*
X242438869Y-131823820D02*
X242472541Y-131765499D01*
X241439272Y-132140960D02*
X241255286Y-132190259D01*
X241255286Y-132190259D02*
X241150968Y-132168912D01*
X241150968Y-132168912D02*
X241092647Y-132135240D01*
X241092647Y-132135240D02*
X240963680Y-132021900D01*
X240963680Y-132021900D02*
X240868385Y-131850239D01*
X240868385Y-131850239D02*
X240769787Y-131482268D01*
X240769787Y-131482268D02*
X240791134Y-131377950D01*
X240791134Y-131377950D02*
X240824806Y-131319629D01*
X240824806Y-131319629D02*
X240904474Y-131248983D01*
X240904474Y-131248983D02*
X241088460Y-131199684D01*
X241088460Y-131199684D02*
X241192777Y-131221031D01*
X241192777Y-131221031D02*
X241251098Y-131254703D01*
X241251098Y-131254703D02*
X241321744Y-131334371D01*
X241321744Y-131334371D02*
X241383368Y-131564353D01*
X241383368Y-131564353D02*
X241362021Y-131668671D01*
X241362021Y-131668671D02*
X241328349Y-131726992D01*
X241328349Y-131726992D02*
X241248681Y-131797638D01*
X241248681Y-131797638D02*
X241064695Y-131846937D01*
X241064695Y-131846937D02*
X240960377Y-131825590D01*
X240960377Y-131825590D02*
X240902056Y-131791918D01*
X240902056Y-131791918D02*
X240831410Y-131712250D01*
X277575730Y-62493905D02*
X277450065Y-62576875D01*
X277450065Y-62576875D02*
X277220083Y-62638499D01*
X277220083Y-62638499D02*
X277115765Y-62617152D01*
X277115765Y-62617152D02*
X277057444Y-62583480D01*
X277057444Y-62583480D02*
X276986798Y-62503812D01*
X276986798Y-62503812D02*
X276962149Y-62411819D01*
X276962149Y-62411819D02*
X276983496Y-62307501D01*
X276983496Y-62307501D02*
X277017167Y-62249180D01*
X277017167Y-62249180D02*
X277096836Y-62178534D01*
X277096836Y-62178534D02*
X277268497Y-62083239D01*
X277268497Y-62083239D02*
X277348165Y-62012593D01*
X277348165Y-62012593D02*
X277381837Y-61954272D01*
X277381837Y-61954272D02*
X277403184Y-61849954D01*
X277403184Y-61849954D02*
X277378534Y-61757961D01*
X277378534Y-61757961D02*
X277307888Y-61678293D01*
X277307888Y-61678293D02*
X277249567Y-61644621D01*
X277249567Y-61644621D02*
X277145250Y-61623274D01*
X277145250Y-61623274D02*
X276915267Y-61684898D01*
X276915267Y-61684898D02*
X276789603Y-61767868D01*
X276455302Y-61808145D02*
X276484139Y-62835694D01*
X276484139Y-62835694D02*
X276115283Y-62195046D01*
X276115283Y-62195046D02*
X276116167Y-62934292D01*
X276116167Y-62934292D02*
X275627366Y-62029990D01*
X275330040Y-62208256D02*
X275271719Y-62174584D01*
X275271719Y-62174584D02*
X275167402Y-62153237D01*
X275167402Y-62153237D02*
X274937419Y-62214860D01*
X274937419Y-62214860D02*
X274857751Y-62285506D01*
X274857751Y-62285506D02*
X274824079Y-62343828D01*
X274824079Y-62343828D02*
X274802732Y-62448145D01*
X274802732Y-62448145D02*
X274827382Y-62540138D01*
X274827382Y-62540138D02*
X274910352Y-62665803D01*
X274910352Y-62665803D02*
X275610206Y-63069864D01*
X275610206Y-63069864D02*
X275012252Y-63230085D01*
X274410111Y-62454750D02*
X274351790Y-62421078D01*
X274351790Y-62421078D02*
X274247472Y-62399731D01*
X274247472Y-62399731D02*
X274017490Y-62461355D01*
X274017490Y-62461355D02*
X273937822Y-62532001D01*
X273937822Y-62532001D02*
X273904150Y-62590322D01*
X273904150Y-62590322D02*
X273882803Y-62694640D01*
X273882803Y-62694640D02*
X273907452Y-62786632D01*
X273907452Y-62786632D02*
X273990423Y-62912297D01*
X273990423Y-62912297D02*
X274690277Y-63316358D01*
X274690277Y-63316358D02*
X274092323Y-63476579D01*
X335214439Y-66731295D02*
X335088774Y-66814265D01*
X335088774Y-66814265D02*
X334858792Y-66875889D01*
X334858792Y-66875889D02*
X334754474Y-66854542D01*
X334754474Y-66854542D02*
X334696153Y-66820870D01*
X334696153Y-66820870D02*
X334625507Y-66741202D01*
X334625507Y-66741202D02*
X334600858Y-66649209D01*
X334600858Y-66649209D02*
X334622205Y-66544891D01*
X334622205Y-66544891D02*
X334655876Y-66486570D01*
X334655876Y-66486570D02*
X334735545Y-66415924D01*
X334735545Y-66415924D02*
X334907206Y-66320629D01*
X334907206Y-66320629D02*
X334986874Y-66249983D01*
X334986874Y-66249983D02*
X335020546Y-66191662D01*
X335020546Y-66191662D02*
X335041893Y-66087344D01*
X335041893Y-66087344D02*
X335017243Y-65995351D01*
X335017243Y-65995351D02*
X334946597Y-65915683D01*
X334946597Y-65915683D02*
X334888276Y-65882011D01*
X334888276Y-65882011D02*
X334783959Y-65860664D01*
X334783959Y-65860664D02*
X334553976Y-65922288D01*
X334553976Y-65922288D02*
X334428312Y-66005258D01*
X334094011Y-66045535D02*
X334122848Y-67073084D01*
X334122848Y-67073084D02*
X333753992Y-66432436D01*
X333753992Y-66432436D02*
X333754876Y-67171682D01*
X333754876Y-67171682D02*
X333266075Y-66267380D01*
X332968749Y-66445646D02*
X332910428Y-66411974D01*
X332910428Y-66411974D02*
X332806111Y-66390627D01*
X332806111Y-66390627D02*
X332576128Y-66452250D01*
X332576128Y-66452250D02*
X332496460Y-66522896D01*
X332496460Y-66522896D02*
X332462788Y-66581218D01*
X332462788Y-66581218D02*
X332441441Y-66685535D01*
X332441441Y-66685535D02*
X332466091Y-66777528D01*
X332466091Y-66777528D02*
X332549061Y-66903193D01*
X332549061Y-66903193D02*
X333248915Y-67307254D01*
X333248915Y-67307254D02*
X332650961Y-67467475D01*
X331564206Y-66723394D02*
X331748192Y-66674095D01*
X331748192Y-66674095D02*
X331852509Y-66695442D01*
X331852509Y-66695442D02*
X331910831Y-66729114D01*
X331910831Y-66729114D02*
X332039798Y-66842454D01*
X332039798Y-66842454D02*
X332135093Y-67014115D01*
X332135093Y-67014115D02*
X332233691Y-67382087D01*
X332233691Y-67382087D02*
X332212344Y-67486405D01*
X332212344Y-67486405D02*
X332178672Y-67544726D01*
X332178672Y-67544726D02*
X332099004Y-67615372D01*
X332099004Y-67615372D02*
X331915018Y-67664671D01*
X331915018Y-67664671D02*
X331810700Y-67643324D01*
X331810700Y-67643324D02*
X331752379Y-67609652D01*
X331752379Y-67609652D02*
X331681733Y-67529984D01*
X331681733Y-67529984D02*
X331620110Y-67300001D01*
X331620110Y-67300001D02*
X331641457Y-67195684D01*
X331641457Y-67195684D02*
X331675128Y-67137362D01*
X331675128Y-67137362D02*
X331754797Y-67066717D01*
X331754797Y-67066717D02*
X331938782Y-67017418D01*
X331938782Y-67017418D02*
X332043100Y-67038765D01*
X332043100Y-67038765D02*
X332101421Y-67072436D01*
X332101421Y-67072436D02*
X332172067Y-67152105D01*
X298588550Y-31359509D02*
X298462885Y-31442479D01*
X298462885Y-31442479D02*
X298232903Y-31504103D01*
X298232903Y-31504103D02*
X298128585Y-31482756D01*
X298128585Y-31482756D02*
X298070264Y-31449084D01*
X298070264Y-31449084D02*
X297999618Y-31369416D01*
X297999618Y-31369416D02*
X297974969Y-31277423D01*
X297974969Y-31277423D02*
X297996316Y-31173105D01*
X297996316Y-31173105D02*
X298029987Y-31114784D01*
X298029987Y-31114784D02*
X298109656Y-31044138D01*
X298109656Y-31044138D02*
X298281317Y-30948843D01*
X298281317Y-30948843D02*
X298360985Y-30878197D01*
X298360985Y-30878197D02*
X298394657Y-30819876D01*
X298394657Y-30819876D02*
X298416004Y-30715558D01*
X298416004Y-30715558D02*
X298391354Y-30623565D01*
X298391354Y-30623565D02*
X298320708Y-30543897D01*
X298320708Y-30543897D02*
X298262387Y-30510225D01*
X298262387Y-30510225D02*
X298158070Y-30488878D01*
X298158070Y-30488878D02*
X297928087Y-30550502D01*
X297928087Y-30550502D02*
X297802423Y-30633472D01*
X297468122Y-30673749D02*
X297496959Y-31701298D01*
X297496959Y-31701298D02*
X297128103Y-31060650D01*
X297128103Y-31060650D02*
X297128987Y-31799896D01*
X297128987Y-31799896D02*
X296640186Y-30895594D01*
X296025072Y-32095689D02*
X296577030Y-31947793D01*
X296301051Y-32021741D02*
X296042232Y-31055815D01*
X296042232Y-31055815D02*
X296171199Y-31169155D01*
X296171199Y-31169155D02*
X296287842Y-31236498D01*
X296287842Y-31236498D02*
X296392159Y-31257846D01*
X294938317Y-31351608D02*
X295122303Y-31302309D01*
X295122303Y-31302309D02*
X295226620Y-31323656D01*
X295226620Y-31323656D02*
X295284942Y-31357328D01*
X295284942Y-31357328D02*
X295413909Y-31470668D01*
X295413909Y-31470668D02*
X295509204Y-31642329D01*
X295509204Y-31642329D02*
X295607802Y-32010301D01*
X295607802Y-32010301D02*
X295586455Y-32114619D01*
X295586455Y-32114619D02*
X295552783Y-32172940D01*
X295552783Y-32172940D02*
X295473115Y-32243586D01*
X295473115Y-32243586D02*
X295289129Y-32292885D01*
X295289129Y-32292885D02*
X295184811Y-32271538D01*
X295184811Y-32271538D02*
X295126490Y-32237866D01*
X295126490Y-32237866D02*
X295055844Y-32158198D01*
X295055844Y-32158198D02*
X294994221Y-31928215D01*
X294994221Y-31928215D02*
X295015568Y-31823898D01*
X295015568Y-31823898D02*
X295049239Y-31765576D01*
X295049239Y-31765576D02*
X295128908Y-31694931D01*
X295128908Y-31694931D02*
X295312893Y-31645632D01*
X295312893Y-31645632D02*
X295417211Y-31666979D01*
X295417211Y-31666979D02*
X295475532Y-31700650D01*
X295475532Y-31700650D02*
X295546178Y-31780319D01*
X237391442Y-106159136D02*
X237265777Y-106242106D01*
X237265777Y-106242106D02*
X237035795Y-106303730D01*
X237035795Y-106303730D02*
X236931477Y-106282383D01*
X236931477Y-106282383D02*
X236873156Y-106248711D01*
X236873156Y-106248711D02*
X236802510Y-106169043D01*
X236802510Y-106169043D02*
X236777861Y-106077050D01*
X236777861Y-106077050D02*
X236799208Y-105972732D01*
X236799208Y-105972732D02*
X236832879Y-105914411D01*
X236832879Y-105914411D02*
X236912548Y-105843765D01*
X236912548Y-105843765D02*
X237084209Y-105748470D01*
X237084209Y-105748470D02*
X237163877Y-105677824D01*
X237163877Y-105677824D02*
X237197549Y-105619503D01*
X237197549Y-105619503D02*
X237218896Y-105515185D01*
X237218896Y-105515185D02*
X237194246Y-105423192D01*
X237194246Y-105423192D02*
X237123600Y-105343524D01*
X237123600Y-105343524D02*
X237065279Y-105309852D01*
X237065279Y-105309852D02*
X236960962Y-105288505D01*
X236960962Y-105288505D02*
X236730979Y-105350129D01*
X236730979Y-105350129D02*
X236605315Y-105433099D01*
X236271014Y-105473376D02*
X236299851Y-106500925D01*
X236299851Y-106500925D02*
X235930995Y-105860277D01*
X235930995Y-105860277D02*
X235931879Y-106599523D01*
X235931879Y-106599523D02*
X235443078Y-105695221D01*
X235167099Y-105769169D02*
X234569145Y-105929390D01*
X234569145Y-105929390D02*
X234989718Y-106211089D01*
X234989718Y-106211089D02*
X234851729Y-106248063D01*
X234851729Y-106248063D02*
X234772061Y-106318709D01*
X234772061Y-106318709D02*
X234738389Y-106377030D01*
X234738389Y-106377030D02*
X234717042Y-106481348D01*
X234717042Y-106481348D02*
X234778665Y-106711330D01*
X234778665Y-106711330D02*
X234849311Y-106790998D01*
X234849311Y-106790998D02*
X234907633Y-106824670D01*
X234907633Y-106824670D02*
X235011950Y-106846017D01*
X235011950Y-106846017D02*
X235287929Y-106772069D01*
X235287929Y-106772069D02*
X235367597Y-106701423D01*
X235367597Y-106701423D02*
X235401269Y-106643102D01*
X233827482Y-106473210D02*
X234000028Y-107117161D01*
X233958866Y-106043615D02*
X234373720Y-106671939D01*
X234373720Y-106671939D02*
X233775765Y-106832160D01*
X71844959Y-68586071D02*
X71723314Y-69040056D01*
X72642122Y-65611019D02*
X72582593Y-65833182D01*
X71110942Y-69393609D02*
X66701660Y-68212146D01*
X71144937Y-65209850D02*
X72642122Y-65611019D01*
X63997085Y-63294589D02*
X69696048Y-64821621D01*
X60602906Y-68234432D02*
X60540790Y-68466254D01*
X61340541Y-65481543D02*
X61547596Y-64708802D01*
X71110942Y-69393609D02*
G75*
G03*
X71723314Y-69040056I129408J482964D01*
G01*
X66701660Y-68212146D02*
G75*
G03*
X64009288Y-69395635I-608888J-2269056D01*
G01*
X63997085Y-63294589D02*
G75*
G03*
X61547597Y-64708802I-517635J-1931856D01*
G01*
X246186368Y-52420858D02*
X246308013Y-52874843D01*
X245389206Y-49445806D02*
X245448734Y-49667969D01*
X245954460Y-53487215D02*
X241545178Y-54668679D01*
X243892021Y-49846976D02*
X245389206Y-49445806D01*
X236744170Y-51762237D02*
X242443132Y-50235204D01*
X236274645Y-57737356D02*
X236336762Y-57969178D01*
X235537011Y-54984467D02*
X235329956Y-54211726D01*
X245954460Y-53487215D02*
G75*
G03*
X246308012Y-52874843I-129411J482963D01*
G01*
X241545178Y-54668679D02*
G75*
G03*
X239805261Y-57039796I607220J-2269506D01*
G01*
X236744170Y-51762237D02*
G75*
G03*
X235329956Y-54211726I517642J-1931854D01*
G01*
X253332103Y-79089104D02*
X253453748Y-79543089D01*
X252534941Y-76114052D02*
X252594469Y-76336215D01*
X253100195Y-80155461D02*
X248690913Y-81336925D01*
X251037756Y-76515222D02*
X252534941Y-76114052D01*
X243889905Y-78430483D02*
X249588867Y-76903450D01*
X243420380Y-84405602D02*
X243482497Y-84637424D01*
X242682746Y-81652713D02*
X242475691Y-80879972D01*
X253100195Y-80155461D02*
G75*
G03*
X253453747Y-79543089I-129411J482963D01*
G01*
X248690913Y-81336925D02*
G75*
G03*
X246950996Y-83708042I607220J-2269506D01*
G01*
X243889905Y-78430483D02*
G75*
G03*
X242475691Y-80879972I517642J-1931854D01*
G01*
X203443324Y-77656646D02*
X203443324Y-78126646D01*
X203443324Y-74576646D02*
X203443324Y-74806646D01*
X202943324Y-78626646D02*
X198378500Y-78626646D01*
X201893324Y-74576646D02*
X203443324Y-74576646D01*
X194493324Y-74576646D02*
X200393324Y-74576646D01*
X192493324Y-80226646D02*
X192493324Y-80466646D01*
X192493324Y-77376646D02*
X192493324Y-76576646D01*
X202943324Y-78626646D02*
G75*
G03*
X203443324Y-78126646I-1J500001D01*
G01*
X198378500Y-78626647D02*
G75*
G03*
X196084179Y-80466646I-866J-2349331D01*
G01*
X194493324Y-74576646D02*
G75*
G03*
X192493324Y-76576646I5J-2000005D01*
G01*
X216825318Y-120409169D02*
X216946963Y-120863154D01*
X216028156Y-117434117D02*
X216087684Y-117656280D01*
X216593410Y-121475526D02*
X212184128Y-122656990D01*
X214530971Y-117835287D02*
X216028156Y-117434117D01*
X207383120Y-119750548D02*
X213082082Y-118223515D01*
X206913595Y-125725667D02*
X206975712Y-125957489D01*
X206175961Y-122972778D02*
X205968906Y-122200037D01*
X216593410Y-121475526D02*
G75*
G03*
X216946962Y-120863154I-129411J482963D01*
G01*
X212184128Y-122656990D02*
G75*
G03*
X210444211Y-125028107I607220J-2269506D01*
G01*
X207383120Y-119750548D02*
G75*
G03*
X205968906Y-122200037I517642J-1931854D01*
G01*
X100483091Y-59381528D02*
X100361446Y-59835513D01*
X101280254Y-56406476D02*
X101220725Y-56628639D01*
X99749074Y-60189066D02*
X95339792Y-59007603D01*
X99783069Y-56005307D02*
X101280254Y-56406476D01*
X92635217Y-54090046D02*
X98334180Y-55617078D01*
X89241038Y-59029889D02*
X89178922Y-59261711D01*
X89978673Y-56277000D02*
X90185728Y-55504259D01*
X99749074Y-60189066D02*
G75*
G03*
X100361446Y-59835513I129408J482964D01*
G01*
X95339792Y-59007603D02*
G75*
G03*
X92647420Y-60191092I-608888J-2269056D01*
G01*
X92635217Y-54090046D02*
G75*
G03*
X90185729Y-55504259I-517635J-1931856D01*
G01*
X260624259Y-108673278D02*
X260745904Y-109127263D01*
X259827097Y-105698226D02*
X259886625Y-105920389D01*
X260392351Y-109739635D02*
X255983069Y-110921099D01*
X258329912Y-106099396D02*
X259827097Y-105698226D01*
X251182061Y-108014657D02*
X256881023Y-106487624D01*
X250712536Y-113989776D02*
X250774653Y-114221598D01*
X249974902Y-111236887D02*
X249767847Y-110464146D01*
X260392351Y-109739635D02*
G75*
G03*
X260745903Y-109127263I-129411J482963D01*
G01*
X255983069Y-110921099D02*
G75*
G03*
X254243152Y-113292216I607220J-2269506D01*
G01*
X251182061Y-108014657D02*
G75*
G03*
X249767847Y-110464146I517642J-1931854D01*
G01*
X151200517Y-82327012D02*
X151078872Y-82780997D01*
X151997680Y-79351960D02*
X151938151Y-79574123D01*
X150466500Y-83134550D02*
X146057218Y-81953087D01*
X150500495Y-78950791D02*
X151997680Y-79351960D01*
X143352643Y-77035530D02*
X149051606Y-78562562D01*
X139958464Y-81975373D02*
X139896348Y-82207195D01*
X140696099Y-79222484D02*
X140903154Y-78449743D01*
X150466500Y-83134550D02*
G75*
G03*
X151078872Y-82780997I129408J482964D01*
G01*
X146057218Y-81953087D02*
G75*
G03*
X143364846Y-83136576I-608888J-2269056D01*
G01*
X143352643Y-77035530D02*
G75*
G03*
X140903155Y-78449743I-517635J-1931856D01*
G01*
X268695995Y-33970248D02*
X268817640Y-34424233D01*
X267898833Y-30995196D02*
X267958361Y-31217359D01*
X268464087Y-35036605D02*
X264054805Y-36218069D01*
X266401648Y-31396366D02*
X267898833Y-30995196D01*
X259253797Y-33311627D02*
X264952759Y-31784594D01*
X258784272Y-39286746D02*
X258846389Y-39518568D01*
X258046638Y-36533857D02*
X257839583Y-35761116D01*
X268464087Y-35036605D02*
G75*
G03*
X268817639Y-34424233I-129411J482963D01*
G01*
X264054805Y-36218069D02*
G75*
G03*
X262314888Y-38589186I607220J-2269506D01*
G01*
X259253797Y-33311627D02*
G75*
G03*
X257839583Y-35761116I517642J-1931854D01*
G01*
X128578424Y-64087487D02*
X128456779Y-64541472D01*
X129375587Y-61112435D02*
X129316058Y-61334598D01*
X127844407Y-64895025D02*
X123435125Y-63713562D01*
X127878402Y-60711266D02*
X129375587Y-61112435D01*
X120730550Y-58796005D02*
X126429513Y-60323037D01*
X117336371Y-63735848D02*
X117274255Y-63967670D01*
X118074006Y-60982959D02*
X118281061Y-60210218D01*
X127844407Y-64895025D02*
G75*
G03*
X128456779Y-64541472I129408J482964D01*
G01*
X123435125Y-63713562D02*
G75*
G03*
X120742753Y-64897051I-608888J-2269056D01*
G01*
X120730550Y-58796005D02*
G75*
G03*
X118281062Y-60210218I-517635J-1931856D01*
G01*
X224896590Y-147531566D02*
X225018235Y-147985551D01*
X224099428Y-144556514D02*
X224158956Y-144778677D01*
X224664682Y-148597923D02*
X220255400Y-149779387D01*
X222602243Y-144957684D02*
X224099428Y-144556514D01*
X215454392Y-146872945D02*
X221153354Y-145345912D01*
X214984867Y-152848064D02*
X215046984Y-153079886D01*
X214247233Y-150095175D02*
X214040178Y-149322434D01*
X224664682Y-148597923D02*
G75*
G03*
X225018234Y-147985551I-129411J482963D01*
G01*
X220255400Y-149779387D02*
G75*
G03*
X218515483Y-152150504I607220J-2269506D01*
G01*
X215454392Y-146872945D02*
G75*
G03*
X214040178Y-149322434I517642J-1931854D01*
G01*
X183360285Y-152621335D02*
X183238640Y-153075320D01*
X184157448Y-149646283D02*
X184097919Y-149868446D01*
X182626268Y-153428873D02*
X178216986Y-152247410D01*
X182660263Y-149245114D02*
X184157448Y-149646283D01*
X175512411Y-147329853D02*
X181211374Y-148856885D01*
X172118232Y-152269696D02*
X172056116Y-152501518D01*
X172855867Y-149516807D02*
X173062922Y-148744066D01*
X182626268Y-153428873D02*
G75*
G03*
X183238640Y-153075320I129408J482964D01*
G01*
X178216986Y-152247410D02*
G75*
G03*
X175524614Y-153430899I-608888J-2269056D01*
G01*
X175512411Y-147329853D02*
G75*
G03*
X173062923Y-148744066I-517635J-1931856D01*
G01*
X165526677Y-131517565D02*
X165405032Y-131971550D01*
X166323840Y-128542513D02*
X166264311Y-128764676D01*
X164792660Y-132325103D02*
X160383378Y-131143640D01*
X164826655Y-128141344D02*
X166323840Y-128542513D01*
X157678803Y-126226083D02*
X163377766Y-127753115D01*
X154284624Y-131165926D02*
X154222508Y-131397748D01*
X155022259Y-128413037D02*
X155229314Y-127640296D01*
X164792660Y-132325103D02*
G75*
G03*
X165405032Y-131971550I129408J482964D01*
G01*
X160383378Y-131143640D02*
G75*
G03*
X157691006Y-132327129I-608888J-2269056D01*
G01*
X157678803Y-126226083D02*
G75*
G03*
X155229315Y-127640296I-517635J-1931856D01*
G01*
X304000803Y-56174276D02*
X304122448Y-56628261D01*
X303203641Y-53199224D02*
X303263169Y-53421387D01*
X303768895Y-57240633D02*
X299359613Y-58422097D01*
X301706456Y-53600394D02*
X303203641Y-53199224D01*
X294558605Y-55515655D02*
X300257567Y-53988622D01*
X294089080Y-61490774D02*
X294151197Y-61722596D01*
X293351446Y-58737885D02*
X293144391Y-57965144D01*
X303768895Y-57240633D02*
G75*
G03*
X304122447Y-56628261I-129411J482963D01*
G01*
X299359613Y-58422097D02*
G75*
G03*
X297619696Y-60793214I607220J-2269506D01*
G01*
X294558605Y-55515655D02*
G75*
G03*
X293144391Y-57965144I517642J-1931854D01*
G01*
X326334704Y-38207638D02*
X326456349Y-38661623D01*
X325537542Y-35232586D02*
X325597070Y-35454749D01*
X326102796Y-39273995D02*
X321693514Y-40455459D01*
X324040357Y-35633756D02*
X325537542Y-35232586D01*
X316892506Y-37549017D02*
X322591468Y-36021984D01*
X316422981Y-43524136D02*
X316485098Y-43755958D01*
X315685347Y-40771247D02*
X315478292Y-39998506D01*
X326102796Y-39273995D02*
G75*
G03*
X326456348Y-38661623I-129411J482963D01*
G01*
X321693514Y-40455459D02*
G75*
G03*
X319953597Y-42826576I607220J-2269506D01*
G01*
X316892506Y-37549017D02*
G75*
G03*
X315478292Y-39998506I517642J-1931854D01*
G01*
X242728973Y-129427088D02*
X242850618Y-129881073D01*
X241931811Y-126452036D02*
X241991339Y-126674199D01*
X242497065Y-130493445D02*
X238087783Y-131674909D01*
X240434626Y-126853206D02*
X241931811Y-126452036D01*
X233286775Y-128768467D02*
X238985737Y-127241434D01*
X232817250Y-134743586D02*
X232879367Y-134975408D01*
X232079616Y-131990697D02*
X231872561Y-131217956D01*
X242497065Y-130493445D02*
G75*
G03*
X242850617Y-129881073I-129411J482963D01*
G01*
X238087783Y-131674909D02*
G75*
G03*
X236347866Y-134046026I607220J-2269506D01*
G01*
X233286775Y-128768467D02*
G75*
G03*
X231872561Y-131217956I517642J-1931854D01*
G01*
X275841989Y-60639460D02*
X275963634Y-61093445D01*
X275044827Y-57664408D02*
X275104355Y-57886571D01*
X275610081Y-61705817D02*
X271200799Y-62887281D01*
X273547642Y-58065578D02*
X275044827Y-57664408D01*
X266399791Y-59980839D02*
X272098753Y-58453806D01*
X265930266Y-65955958D02*
X265992383Y-66187780D01*
X265192632Y-63203069D02*
X264985577Y-62430328D01*
X275610081Y-61705817D02*
G75*
G03*
X275963633Y-61093445I-129411J482963D01*
G01*
X271200799Y-62887281D02*
G75*
G03*
X269460882Y-65258398I607220J-2269506D01*
G01*
X266399791Y-59980839D02*
G75*
G03*
X264985577Y-62430328I517642J-1931854D01*
G01*
X333480698Y-64876850D02*
X333602343Y-65330835D01*
X332683536Y-61901798D02*
X332743064Y-62123961D01*
X333248790Y-65943207D02*
X328839508Y-67124671D01*
X331186351Y-62302968D02*
X332683536Y-61901798D01*
X324038500Y-64218229D02*
X329737462Y-62691196D01*
X323568975Y-70193348D02*
X323631092Y-70425170D01*
X322831341Y-67440459D02*
X322624286Y-66667718D01*
X333248790Y-65943207D02*
G75*
G03*
X333602342Y-65330835I-129411J482963D01*
G01*
X328839508Y-67124671D02*
G75*
G03*
X327099591Y-69495788I607220J-2269506D01*
G01*
X324038500Y-64218229D02*
G75*
G03*
X322624286Y-66667718I517642J-1931854D01*
G01*
X296854809Y-29505064D02*
X296976454Y-29959049D01*
X296057647Y-26530012D02*
X296117175Y-26752175D01*
X296622901Y-30571421D02*
X292213619Y-31752885D01*
X294560462Y-26931182D02*
X296057647Y-26530012D01*
X287412611Y-28846443D02*
X293111573Y-27319410D01*
X286943086Y-34821562D02*
X287005203Y-35053384D01*
X286205452Y-32068673D02*
X285998397Y-31295932D01*
X296622901Y-30571421D02*
G75*
G03*
X296976453Y-29959049I-129411J482963D01*
G01*
X292213619Y-31752885D02*
G75*
G03*
X290473702Y-34124002I607220J-2269506D01*
G01*
X287412611Y-28846443D02*
G75*
G03*
X285998397Y-31295932I517642J-1931854D01*
G01*
X235657701Y-104304691D02*
X235779346Y-104758676D01*
X234860539Y-101329639D02*
X234920067Y-101551802D01*
X235425793Y-105371048D02*
X231016511Y-106552512D01*
X233363354Y-101730809D02*
X234860539Y-101329639D01*
X226215503Y-103646070D02*
X231914465Y-102119037D01*
X225745978Y-109621189D02*
X225808095Y-109853011D01*
X225008344Y-106868300D02*
X224801289Y-106095559D01*
X235425793Y-105371048D02*
G75*
G03*
X235779345Y-104758676I-129411J482963D01*
G01*
X231016511Y-106552512D02*
G75*
G03*
X229276594Y-108923629I607220J-2269506D01*
G01*
X226215503Y-103646070D02*
G75*
G03*
X224801289Y-106095559I517642J-1931854D01*
G01*
%LPC*%
D11*
X279275000Y-98760000D03*
X305060000Y-46313383D03*
D12*
X327492471Y-41697106D03*
D13*
X322585568Y-43011907D03*
D12*
X317678665Y-44326708D03*
D14*
X326923146Y-44479258D03*
X321446917Y-48576211D03*
D12*
X254489870Y-82578572D03*
D13*
X249582967Y-83893373D03*
D12*
X244676064Y-85208174D03*
D14*
X253920545Y-85360724D03*
X248444316Y-89457677D03*
D12*
X305158570Y-59663744D03*
D13*
X300251667Y-60978545D03*
D12*
X295344764Y-62293346D03*
D14*
X304589245Y-62445896D03*
X299113016Y-66542849D03*
D12*
X261782026Y-112162746D03*
D13*
X256875123Y-113477547D03*
D12*
X251968220Y-114792348D03*
D14*
X261212701Y-114944898D03*
X255736472Y-119041851D03*
D11*
X111765000Y-98760000D03*
D12*
X127836345Y-67688339D03*
D13*
X122929442Y-66373538D03*
D12*
X118022539Y-65058737D03*
D14*
X125952219Y-69813090D03*
X119161190Y-70623041D03*
D12*
X182618206Y-156222187D03*
D13*
X177711303Y-154907386D03*
D12*
X172804400Y-153592585D03*
D14*
X180734080Y-158346938D03*
X173943051Y-159156889D03*
D12*
X71102880Y-72186923D03*
D13*
X66195977Y-70872122D03*
D12*
X61289074Y-69557321D03*
D14*
X69218754Y-74311674D03*
X62427725Y-75121625D03*
D12*
X298012576Y-32994532D03*
D13*
X293105673Y-34309333D03*
D12*
X288198770Y-35624134D03*
D14*
X297443251Y-35776684D03*
X291967022Y-39873637D03*
D12*
X276999756Y-64128928D03*
D13*
X272092853Y-65443729D03*
D12*
X267185950Y-66758530D03*
D14*
X276430431Y-66911080D03*
X270954202Y-71008033D03*
D12*
X217983085Y-123898637D03*
D13*
X213076182Y-125213438D03*
D12*
X208169279Y-126528239D03*
D14*
X217413760Y-126680789D03*
X211937531Y-130777742D03*
D11*
X92395000Y-143800000D03*
D12*
X203658500Y-81326866D03*
D13*
X198578500Y-81326866D03*
D12*
X193498500Y-81326866D03*
D14*
X202388500Y-83866866D03*
X196038500Y-86406866D03*
D12*
X247344135Y-55910326D03*
D13*
X242437232Y-57225127D03*
D12*
X237530329Y-58539928D03*
D14*
X246774810Y-58692478D03*
X241298581Y-62789431D03*
D12*
X236815468Y-107794159D03*
D13*
X231908565Y-109108960D03*
D12*
X227001662Y-110423761D03*
D14*
X236246143Y-110576311D03*
X230769914Y-114673264D03*
D12*
X164784598Y-135118417D03*
D13*
X159877695Y-133803616D03*
D12*
X154970792Y-132488815D03*
D14*
X162900472Y-137243168D03*
X156109443Y-138053119D03*
D12*
X150458438Y-85927864D03*
D13*
X145551535Y-84613063D03*
D12*
X140644632Y-83298262D03*
D14*
X148574312Y-88052615D03*
X141783283Y-88862566D03*
D11*
X98000000Y-46313383D03*
D12*
X269853762Y-37459716D03*
D13*
X264946859Y-38774517D03*
D12*
X260039956Y-40089318D03*
D14*
X269284437Y-40241868D03*
X263808208Y-44338821D03*
D12*
X99741012Y-62982380D03*
D13*
X94834109Y-61667579D03*
D12*
X89927206Y-60352778D03*
D14*
X97856886Y-65107131D03*
X91065857Y-65917082D03*
D15*
X205850000Y-63580000D03*
X206866000Y-68660000D03*
X204834000Y-68660000D03*
D11*
X304995000Y-143800000D03*
D12*
X226054357Y-151021034D03*
D13*
X221147454Y-152335835D03*
D12*
X216240551Y-153650636D03*
D14*
X225485032Y-153803186D03*
X220008803Y-157900139D03*
D12*
X243886740Y-132916556D03*
D13*
X238979837Y-134231357D03*
D12*
X234072934Y-135546158D03*
D14*
X243317415Y-135698708D03*
X237841186Y-139795661D03*
D11*
X220290000Y-34240000D03*
X177100000Y-34240000D03*
D12*
X334638465Y-68366318D03*
D13*
X329731562Y-69681119D03*
D12*
X324824659Y-70995920D03*
D14*
X334069140Y-71148470D03*
X328592911Y-75245423D03*
D16*
X202178500Y-32360000D03*
X194828500Y-32360000D03*
X195778500Y-31710000D03*
X196178500Y-31010000D03*
X196978500Y-31010000D03*
X197378500Y-31710000D03*
X197778500Y-31010000D03*
X198178500Y-31710000D03*
X198978500Y-31710000D03*
X199378500Y-31010000D03*
X199778500Y-31710000D03*
X200178500Y-31010000D03*
X200978500Y-31010000D03*
X201378500Y-31710000D03*
D17*
X203068499Y-26719999D03*
X202633499Y-31109999D03*
X194373499Y-31109999D03*
X194088499Y-26719999D03*
D12*
X71102880Y-72186923D03*
D13*
X66195977Y-70872122D03*
D12*
X61289074Y-69557321D03*
D18*
X63173200Y-67432570D03*
D19*
X59744163Y-66513762D03*
X73393266Y-67541427D03*
D18*
X69964229Y-66622619D03*
D12*
X247344135Y-55910326D03*
D13*
X242437232Y-57225127D03*
D12*
X237530329Y-58539928D03*
D18*
X238099654Y-55757776D03*
D20*
X234670618Y-56676584D03*
X247004920Y-50742016D03*
D18*
X243575883Y-51660823D03*
D12*
X254489870Y-82578572D03*
D13*
X249582967Y-83893373D03*
D12*
X244676064Y-85208174D03*
D18*
X245245389Y-82426022D03*
D20*
X241816353Y-83344830D03*
X254150655Y-77410262D03*
D18*
X250721618Y-78329069D03*
D12*
X203658500Y-81326866D03*
D13*
X198578500Y-81326866D03*
D12*
X193498500Y-81326866D03*
D18*
X194768500Y-78786866D03*
D21*
X191218500Y-78786866D03*
X204668500Y-76246866D03*
D18*
X201118500Y-76246866D03*
D12*
X217983085Y-123898637D03*
D13*
X213076182Y-125213438D03*
D12*
X208169279Y-126528239D03*
D18*
X208738604Y-123746087D03*
D20*
X205309568Y-124664895D03*
X217643870Y-118730327D03*
D18*
X214214833Y-119649134D03*
D12*
X99741012Y-62982380D03*
D13*
X94834109Y-61667579D03*
D12*
X89927206Y-60352778D03*
D18*
X91811332Y-58228027D03*
D19*
X88382295Y-57309219D03*
X102031398Y-58336884D03*
D18*
X98602361Y-57418076D03*
D12*
X261782026Y-112162746D03*
D13*
X256875123Y-113477547D03*
D12*
X251968220Y-114792348D03*
D18*
X252537545Y-112010196D03*
D20*
X249108509Y-112929004D03*
X261442811Y-106994436D03*
D18*
X258013774Y-107913243D03*
D12*
X150458438Y-85927864D03*
D13*
X145551535Y-84613063D03*
D12*
X140644632Y-83298262D03*
D18*
X142528758Y-81173511D03*
D19*
X139099721Y-80254703D03*
X152748824Y-81282368D03*
D18*
X149319787Y-80363560D03*
D12*
X269853762Y-37459716D03*
D13*
X264946859Y-38774517D03*
D12*
X260039956Y-40089318D03*
D18*
X260609281Y-37307166D03*
D20*
X257180245Y-38225974D03*
X269514547Y-32291406D03*
D18*
X266085510Y-33210213D03*
D12*
X127836345Y-67688339D03*
D13*
X122929442Y-66373538D03*
D12*
X118022539Y-65058737D03*
D18*
X119906665Y-62933986D03*
D19*
X116477628Y-62015178D03*
X130126731Y-63042843D03*
D18*
X126697694Y-62124035D03*
D12*
X226054357Y-151021034D03*
D13*
X221147454Y-152335835D03*
D12*
X216240551Y-153650636D03*
D18*
X216809876Y-150868484D03*
D20*
X213380840Y-151787292D03*
X225715142Y-145852724D03*
D18*
X222286105Y-146771531D03*
D12*
X182618206Y-156222187D03*
D13*
X177711303Y-154907386D03*
D12*
X172804400Y-153592585D03*
D18*
X174688526Y-151467834D03*
D19*
X171259489Y-150549026D03*
X184908592Y-151576691D03*
D18*
X181479555Y-150657883D03*
D12*
X164784598Y-135118417D03*
D13*
X159877695Y-133803616D03*
D12*
X154970792Y-132488815D03*
D18*
X156854918Y-130364064D03*
D19*
X153425881Y-129445256D03*
X167074984Y-130472921D03*
D18*
X163645947Y-129554113D03*
D12*
X305158570Y-59663744D03*
D13*
X300251667Y-60978545D03*
D12*
X295344764Y-62293346D03*
D18*
X295914089Y-59511194D03*
D20*
X292485053Y-60430002D03*
X304819355Y-54495434D03*
D18*
X301390318Y-55414241D03*
D12*
X327492471Y-41697106D03*
D13*
X322585568Y-43011907D03*
D12*
X317678665Y-44326708D03*
D18*
X318247990Y-41544556D03*
D20*
X314818954Y-42463364D03*
X327153256Y-36528796D03*
D18*
X323724219Y-37447603D03*
D12*
X243886740Y-132916556D03*
D13*
X238979837Y-134231357D03*
D12*
X234072934Y-135546158D03*
D18*
X234642259Y-132764006D03*
D20*
X231213223Y-133682814D03*
X243547525Y-127748246D03*
D18*
X240118488Y-128667053D03*
D12*
X276999756Y-64128928D03*
D13*
X272092853Y-65443729D03*
D12*
X267185950Y-66758530D03*
D18*
X267755275Y-63976378D03*
D20*
X264326239Y-64895186D03*
X276660541Y-58960618D03*
D18*
X273231504Y-59879425D03*
D12*
X334638465Y-68366318D03*
D13*
X329731562Y-69681119D03*
D12*
X324824659Y-70995920D03*
D18*
X325393984Y-68213768D03*
D20*
X321964948Y-69132576D03*
X334299250Y-63198008D03*
D18*
X330870213Y-64116815D03*
D12*
X298012576Y-32994532D03*
D13*
X293105673Y-34309333D03*
D12*
X288198770Y-35624134D03*
D18*
X288768095Y-32841982D03*
D20*
X285339059Y-33760790D03*
X297673361Y-27826222D03*
D18*
X294244324Y-28745029D03*
D12*
X236815468Y-107794159D03*
D13*
X231908565Y-109108960D03*
D12*
X227001662Y-110423761D03*
D18*
X227570987Y-107641609D03*
D20*
X224141951Y-108560417D03*
X236476253Y-102625849D03*
D18*
X233047216Y-103544656D03*
M02*
