%TF.GenerationSoftware,KiCad,Pcbnew,(7.0.0)*%
%TF.CreationDate,2023-07-02T10:59:27-07:00*%
%TF.ProjectId,OpenOblongChocs,4f70656e-4f62-46c6-9f6e-6743686f6373,rev?*%
%TF.SameCoordinates,Original*%
%TF.FileFunction,Drillmap*%
%TF.FilePolarity,Positive*%
%FSLAX45Y45*%
G04 Gerber Fmt 4.5, Leading zero omitted, Abs format (unit mm)*
G04 Created by KiCad (PCBNEW (7.0.0)) date 2023-07-02 10:59:27*
%MOMM*%
%LPD*%
G01*
G04 APERTURE LIST*
%ADD10C,0.100000*%
%ADD11C,0.200000*%
%ADD12C,0.065000*%
%ADD13C,0.099060*%
%ADD14C,0.120000*%
%ADD15C,0.170000*%
%ADD16C,0.340000*%
G04 APERTURE END LIST*
D10*
X6861000Y-16162000D02*
X32881000Y-16162000D01*
X32881000Y-2540000D02*
X6861000Y-2540000D01*
X6861000Y-2540000D02*
G75*
G03*
X5736000Y-3665000I0J-1125000D01*
G01*
X34006000Y-3665000D02*
G75*
G03*
X32881000Y-2540000I-1125000J0D01*
G01*
X5736000Y-3665000D02*
X5736000Y-15037000D01*
X34006000Y-3665000D02*
X34006000Y-15037000D01*
X5736000Y-15037000D02*
G75*
G03*
X6861000Y-16162000I1125000J0D01*
G01*
X32881000Y-16162000D02*
G75*
G03*
X34006000Y-15037000I0J1125000D01*
G01*
D11*
D12*
X19450350Y-3203500D02*
X19515350Y-3268500D01*
X19515350Y-3203500D02*
X19450350Y-3268500D01*
X20185350Y-3203500D02*
X20250350Y-3268500D01*
X20250350Y-3203500D02*
X20185350Y-3268500D01*
D13*
X20532930Y-6866000D02*
G75*
G03*
X20532930Y-6866000I-49530J0D01*
G01*
X20634530Y-6358000D02*
G75*
G03*
X20634530Y-6358000I-49530J0D01*
G01*
X20736130Y-6866000D02*
G75*
G03*
X20736130Y-6866000I-49530J0D01*
G01*
D14*
X6097598Y-7447212D02*
X6097598Y-7567212D01*
X6037598Y-7507212D02*
X6157598Y-7507212D01*
X8961411Y-6526758D02*
X8961411Y-6646758D01*
X8901411Y-6586758D02*
X9021411Y-6586758D01*
X11770944Y-6997354D02*
X11770944Y-7117354D01*
X11710944Y-7057354D02*
X11830944Y-7057354D01*
X14033153Y-8821306D02*
X14033153Y-8941306D01*
X13973153Y-8881306D02*
X14093153Y-8881306D01*
X15465769Y-13740362D02*
X15465769Y-13860362D01*
X15405769Y-13800362D02*
X15525769Y-13800362D01*
X17249130Y-15850739D02*
X17249130Y-15970739D01*
X17189130Y-15910739D02*
X17309130Y-15910739D01*
X18025865Y-13486430D02*
X18025865Y-13606430D01*
X17965865Y-13546430D02*
X18085865Y-13546430D01*
X19335850Y-8492687D02*
X19335850Y-8612687D01*
X19275850Y-8552687D02*
X19395850Y-8552687D01*
X20885618Y-12881344D02*
X20885618Y-13001344D01*
X20825618Y-12941344D02*
X20945618Y-12941344D01*
X21192745Y-15593583D02*
X21192745Y-15713583D01*
X21132745Y-15653583D02*
X21252745Y-15653583D01*
X22768856Y-11270896D02*
X22768856Y-11390896D01*
X22708856Y-11330896D02*
X22828856Y-11330896D01*
X23475984Y-13783136D02*
X23475984Y-13903136D01*
X23415984Y-13843136D02*
X23535984Y-13843136D01*
X23746723Y-6182513D02*
X23746723Y-6302513D01*
X23686723Y-6242513D02*
X23806723Y-6242513D01*
X24436297Y-8749337D02*
X24436297Y-8869337D01*
X24376297Y-8809337D02*
X24496297Y-8809337D01*
X25265512Y-11707755D02*
X25265512Y-11827755D01*
X25205512Y-11767755D02*
X25325512Y-11767755D01*
X25997686Y-4337452D02*
X25997686Y-4457452D01*
X25937686Y-4397452D02*
X26057686Y-4397452D01*
X26687285Y-6904373D02*
X26687285Y-7024373D01*
X26627285Y-6964373D02*
X26747285Y-6964373D01*
X28813567Y-3890933D02*
X28813567Y-4010933D01*
X28753567Y-3950933D02*
X28873567Y-3950933D01*
X29503167Y-6457854D02*
X29503167Y-6577854D01*
X29443167Y-6517854D02*
X29563167Y-6517854D01*
X31761557Y-4761191D02*
X31761557Y-4881191D01*
X31701557Y-4821191D02*
X31821557Y-4821191D01*
X32451156Y-7328112D02*
X32451156Y-7448112D01*
X32391156Y-7388112D02*
X32511156Y-7388112D01*
D15*
X6129702Y-7147317D02*
X6129702Y-7027107D01*
X6009493Y-7027107D01*
X6009493Y-7147317D01*
X6129702Y-7147317D01*
X7229702Y-7147317D02*
X7229702Y-7027107D01*
X7109493Y-7027107D01*
X7109493Y-7147317D01*
X7229702Y-7147317D01*
X8993516Y-6226863D02*
X8993516Y-6106653D01*
X8873306Y-6106653D01*
X8873306Y-6226863D01*
X8993516Y-6226863D01*
X10093516Y-6226863D02*
X10093516Y-6106653D01*
X9973306Y-6106653D01*
X9973306Y-6226863D01*
X10093516Y-6226863D01*
X11803049Y-6697458D02*
X11803049Y-6577249D01*
X11682839Y-6577249D01*
X11682839Y-6697458D01*
X11803049Y-6697458D01*
X12903049Y-6697458D02*
X12903049Y-6577249D01*
X12782839Y-6577249D01*
X12782839Y-6697458D01*
X12903049Y-6697458D01*
X14065258Y-8521411D02*
X14065258Y-8401202D01*
X13945049Y-8401202D01*
X13945049Y-8521411D01*
X14065258Y-8521411D01*
X15165258Y-8521411D02*
X15165258Y-8401202D01*
X15045049Y-8401202D01*
X15045049Y-8521411D01*
X15165258Y-8521411D01*
X15497874Y-13440466D02*
X15497874Y-13320257D01*
X15377665Y-13320257D01*
X15377665Y-13440466D01*
X15497874Y-13440466D01*
X16597874Y-13440466D02*
X16597874Y-13320257D01*
X16477665Y-13320257D01*
X16477665Y-13440466D01*
X16597874Y-13440466D01*
X17281235Y-15550843D02*
X17281235Y-15430634D01*
X17161026Y-15430634D01*
X17161026Y-15550843D01*
X17281235Y-15550843D01*
X18057970Y-13186535D02*
X18057970Y-13066326D01*
X17937760Y-13066326D01*
X17937760Y-13186535D01*
X18057970Y-13186535D01*
X18381235Y-15550843D02*
X18381235Y-15430634D01*
X18261026Y-15430634D01*
X18261026Y-15550843D01*
X18381235Y-15550843D01*
X19157970Y-13186535D02*
X19157970Y-13066326D01*
X19037760Y-13066326D01*
X19037760Y-13186535D01*
X19157970Y-13186535D01*
X19367955Y-8192791D02*
X19367955Y-8072582D01*
X19247745Y-8072582D01*
X19247745Y-8192791D01*
X19367955Y-8192791D01*
X20467955Y-8192791D02*
X20467955Y-8072582D01*
X20347745Y-8072582D01*
X20347745Y-8192791D01*
X20467955Y-8192791D01*
X20917723Y-12581448D02*
X20917723Y-12461239D01*
X20797514Y-12461239D01*
X20797514Y-12581448D01*
X20917723Y-12581448D01*
X21224850Y-15293688D02*
X21224850Y-15173479D01*
X21104641Y-15173479D01*
X21104641Y-15293688D01*
X21224850Y-15293688D01*
X22017723Y-12581448D02*
X22017723Y-12461239D01*
X21897514Y-12461239D01*
X21897514Y-12581448D01*
X22017723Y-12581448D01*
X22324850Y-15293688D02*
X22324850Y-15173479D01*
X22204641Y-15173479D01*
X22204641Y-15293688D01*
X22324850Y-15293688D01*
X22800961Y-10971001D02*
X22800961Y-10850791D01*
X22680752Y-10850791D01*
X22680752Y-10971001D01*
X22800961Y-10971001D01*
X23508088Y-13483240D02*
X23508088Y-13363031D01*
X23387879Y-13363031D01*
X23387879Y-13483240D01*
X23508088Y-13483240D01*
X23778828Y-5882617D02*
X23778828Y-5762408D01*
X23658618Y-5762408D01*
X23658618Y-5882617D01*
X23778828Y-5882617D01*
X23900961Y-10971001D02*
X23900961Y-10850791D01*
X23780752Y-10850791D01*
X23780752Y-10971001D01*
X23900961Y-10971001D01*
X24468401Y-8449442D02*
X24468401Y-8329233D01*
X24348192Y-8329233D01*
X24348192Y-8449442D01*
X24468401Y-8449442D01*
X24608088Y-13483240D02*
X24608088Y-13363031D01*
X24487879Y-13363031D01*
X24487879Y-13483240D01*
X24608088Y-13483240D01*
X24878828Y-5882617D02*
X24878828Y-5762408D01*
X24758618Y-5762408D01*
X24758618Y-5882617D01*
X24878828Y-5882617D01*
X25297617Y-11407859D02*
X25297617Y-11287650D01*
X25177408Y-11287650D01*
X25177408Y-11407859D01*
X25297617Y-11407859D01*
X25568401Y-8449442D02*
X25568401Y-8329233D01*
X25448192Y-8329233D01*
X25448192Y-8449442D01*
X25568401Y-8449442D01*
X26029791Y-4037556D02*
X26029791Y-3917347D01*
X25909581Y-3917347D01*
X25909581Y-4037556D01*
X26029791Y-4037556D01*
X26397617Y-11407859D02*
X26397617Y-11287650D01*
X26277408Y-11287650D01*
X26277408Y-11407859D01*
X26397617Y-11407859D01*
X26719390Y-6604478D02*
X26719390Y-6484268D01*
X26599181Y-6484268D01*
X26599181Y-6604478D01*
X26719390Y-6604478D01*
X27129791Y-4037556D02*
X27129791Y-3917347D01*
X27009581Y-3917347D01*
X27009581Y-4037556D01*
X27129791Y-4037556D01*
X27819390Y-6604478D02*
X27819390Y-6484268D01*
X27699181Y-6484268D01*
X27699181Y-6604478D01*
X27819390Y-6604478D01*
X28845672Y-3591038D02*
X28845672Y-3470829D01*
X28725463Y-3470829D01*
X28725463Y-3591038D01*
X28845672Y-3591038D01*
X29535271Y-6157959D02*
X29535271Y-6037750D01*
X29415062Y-6037750D01*
X29415062Y-6157959D01*
X29535271Y-6157959D01*
X29945672Y-3591038D02*
X29945672Y-3470829D01*
X29825463Y-3470829D01*
X29825463Y-3591038D01*
X29945672Y-3591038D01*
X30635271Y-6157959D02*
X30635271Y-6037750D01*
X30515062Y-6037750D01*
X30515062Y-6157959D01*
X30635271Y-6157959D01*
X31793661Y-4461295D02*
X31793661Y-4341086D01*
X31673452Y-4341086D01*
X31673452Y-4461295D01*
X31793661Y-4461295D01*
X32483261Y-7028217D02*
X32483261Y-6908007D01*
X32363051Y-6908007D01*
X32363051Y-7028217D01*
X32483261Y-7028217D01*
X32893661Y-4461295D02*
X32893661Y-4341086D01*
X32773452Y-4341086D01*
X32773452Y-4461295D01*
X32893661Y-4461295D01*
X33583261Y-7028217D02*
X33583261Y-6908007D01*
X33463051Y-6908007D01*
X33463051Y-7028217D01*
X33583261Y-7028217D01*
D16*
X6619598Y-7257212D02*
X6789598Y-7087212D01*
X6619598Y-6917212D01*
X6449598Y-7087212D01*
X6619598Y-7257212D01*
X9483411Y-6336758D02*
X9653411Y-6166758D01*
X9483411Y-5996758D01*
X9313411Y-6166758D01*
X9483411Y-6336758D01*
X12292944Y-6807354D02*
X12462944Y-6637354D01*
X12292944Y-6467354D01*
X12122944Y-6637354D01*
X12292944Y-6807354D01*
X14555153Y-8631306D02*
X14725153Y-8461306D01*
X14555153Y-8291306D01*
X14385153Y-8461306D01*
X14555153Y-8631306D01*
X15987769Y-13550362D02*
X16157769Y-13380362D01*
X15987769Y-13210362D01*
X15817769Y-13380362D01*
X15987769Y-13550362D01*
X17771130Y-15660739D02*
X17941130Y-15490739D01*
X17771130Y-15320739D01*
X17601130Y-15490739D01*
X17771130Y-15660739D01*
X18547865Y-13296430D02*
X18717865Y-13126430D01*
X18547865Y-12956430D01*
X18377865Y-13126430D01*
X18547865Y-13296430D01*
X19857850Y-8302687D02*
X20027850Y-8132687D01*
X19857850Y-7962687D01*
X19687850Y-8132687D01*
X19857850Y-8302687D01*
X21407618Y-12691344D02*
X21577618Y-12521344D01*
X21407618Y-12351344D01*
X21237618Y-12521344D01*
X21407618Y-12691344D01*
X21714745Y-15403583D02*
X21884745Y-15233583D01*
X21714745Y-15063583D01*
X21544745Y-15233583D01*
X21714745Y-15403583D01*
X23290856Y-11080896D02*
X23460856Y-10910896D01*
X23290856Y-10740896D01*
X23120856Y-10910896D01*
X23290856Y-11080896D01*
X23997984Y-13593136D02*
X24167984Y-13423136D01*
X23997984Y-13253136D01*
X23827984Y-13423136D01*
X23997984Y-13593136D01*
X24268723Y-5992513D02*
X24438723Y-5822513D01*
X24268723Y-5652513D01*
X24098723Y-5822513D01*
X24268723Y-5992513D01*
X24958297Y-8559337D02*
X25128297Y-8389337D01*
X24958297Y-8219337D01*
X24788297Y-8389337D01*
X24958297Y-8559337D01*
X25787512Y-11517755D02*
X25957512Y-11347755D01*
X25787512Y-11177755D01*
X25617512Y-11347755D01*
X25787512Y-11517755D01*
X26519686Y-4147452D02*
X26689686Y-3977452D01*
X26519686Y-3807452D01*
X26349686Y-3977452D01*
X26519686Y-4147452D01*
X27209285Y-6714373D02*
X27379285Y-6544373D01*
X27209285Y-6374373D01*
X27039285Y-6544373D01*
X27209285Y-6714373D01*
X29335567Y-3700933D02*
X29505567Y-3530933D01*
X29335567Y-3360933D01*
X29165567Y-3530933D01*
X29335567Y-3700933D01*
X30025167Y-6267854D02*
X30195167Y-6097854D01*
X30025167Y-5927854D01*
X29855167Y-6097854D01*
X30025167Y-6267854D01*
X32283557Y-4571191D02*
X32453557Y-4401191D01*
X32283557Y-4231191D01*
X32113557Y-4401191D01*
X32283557Y-4571191D01*
X32973156Y-7138112D02*
X33143156Y-6968112D01*
X32973156Y-6798112D01*
X32803156Y-6968112D01*
X32973156Y-7138112D01*
D11*
X5978619Y-16460476D02*
X5978619Y-16260476D01*
X5978619Y-16260476D02*
X6026238Y-16260476D01*
X6026238Y-16260476D02*
X6054809Y-16270000D01*
X6054809Y-16270000D02*
X6073857Y-16289048D01*
X6073857Y-16289048D02*
X6083381Y-16308095D01*
X6083381Y-16308095D02*
X6092905Y-16346190D01*
X6092905Y-16346190D02*
X6092905Y-16374762D01*
X6092905Y-16374762D02*
X6083381Y-16412857D01*
X6083381Y-16412857D02*
X6073857Y-16431905D01*
X6073857Y-16431905D02*
X6054809Y-16450952D01*
X6054809Y-16450952D02*
X6026238Y-16460476D01*
X6026238Y-16460476D02*
X5978619Y-16460476D01*
X6178619Y-16460476D02*
X6178619Y-16327143D01*
X6178619Y-16365238D02*
X6188143Y-16346190D01*
X6188143Y-16346190D02*
X6197667Y-16336667D01*
X6197667Y-16336667D02*
X6216714Y-16327143D01*
X6216714Y-16327143D02*
X6235762Y-16327143D01*
X6302428Y-16460476D02*
X6302428Y-16327143D01*
X6302428Y-16260476D02*
X6292905Y-16270000D01*
X6292905Y-16270000D02*
X6302428Y-16279524D01*
X6302428Y-16279524D02*
X6311952Y-16270000D01*
X6311952Y-16270000D02*
X6302428Y-16260476D01*
X6302428Y-16260476D02*
X6302428Y-16279524D01*
X6426238Y-16460476D02*
X6407190Y-16450952D01*
X6407190Y-16450952D02*
X6397667Y-16431905D01*
X6397667Y-16431905D02*
X6397667Y-16260476D01*
X6531000Y-16460476D02*
X6511952Y-16450952D01*
X6511952Y-16450952D02*
X6502428Y-16431905D01*
X6502428Y-16431905D02*
X6502428Y-16260476D01*
X6727190Y-16460476D02*
X6727190Y-16260476D01*
X6727190Y-16260476D02*
X6793857Y-16403333D01*
X6793857Y-16403333D02*
X6860524Y-16260476D01*
X6860524Y-16260476D02*
X6860524Y-16460476D01*
X7041476Y-16460476D02*
X7041476Y-16355714D01*
X7041476Y-16355714D02*
X7031952Y-16336667D01*
X7031952Y-16336667D02*
X7012905Y-16327143D01*
X7012905Y-16327143D02*
X6974809Y-16327143D01*
X6974809Y-16327143D02*
X6955762Y-16336667D01*
X7041476Y-16450952D02*
X7022428Y-16460476D01*
X7022428Y-16460476D02*
X6974809Y-16460476D01*
X6974809Y-16460476D02*
X6955762Y-16450952D01*
X6955762Y-16450952D02*
X6946238Y-16431905D01*
X6946238Y-16431905D02*
X6946238Y-16412857D01*
X6946238Y-16412857D02*
X6955762Y-16393809D01*
X6955762Y-16393809D02*
X6974809Y-16384286D01*
X6974809Y-16384286D02*
X7022428Y-16384286D01*
X7022428Y-16384286D02*
X7041476Y-16374762D01*
X7136714Y-16327143D02*
X7136714Y-16527143D01*
X7136714Y-16336667D02*
X7155762Y-16327143D01*
X7155762Y-16327143D02*
X7193857Y-16327143D01*
X7193857Y-16327143D02*
X7212905Y-16336667D01*
X7212905Y-16336667D02*
X7222428Y-16346190D01*
X7222428Y-16346190D02*
X7231952Y-16365238D01*
X7231952Y-16365238D02*
X7231952Y-16422381D01*
X7231952Y-16422381D02*
X7222428Y-16441428D01*
X7222428Y-16441428D02*
X7212905Y-16450952D01*
X7212905Y-16450952D02*
X7193857Y-16460476D01*
X7193857Y-16460476D02*
X7155762Y-16460476D01*
X7155762Y-16460476D02*
X7136714Y-16450952D01*
X7317667Y-16441428D02*
X7327190Y-16450952D01*
X7327190Y-16450952D02*
X7317667Y-16460476D01*
X7317667Y-16460476D02*
X7308143Y-16450952D01*
X7308143Y-16450952D02*
X7317667Y-16441428D01*
X7317667Y-16441428D02*
X7317667Y-16460476D01*
X7317667Y-16336667D02*
X7327190Y-16346190D01*
X7327190Y-16346190D02*
X7317667Y-16355714D01*
X7317667Y-16355714D02*
X7308143Y-16346190D01*
X7308143Y-16346190D02*
X7317667Y-16336667D01*
X7317667Y-16336667D02*
X7317667Y-16355714D01*
D12*
X5666000Y-16774500D02*
X5731000Y-16839500D01*
X5731000Y-16774500D02*
X5666000Y-16839500D01*
D11*
X6016714Y-16680476D02*
X6035762Y-16680476D01*
X6035762Y-16680476D02*
X6054809Y-16690000D01*
X6054809Y-16690000D02*
X6064333Y-16699524D01*
X6064333Y-16699524D02*
X6073857Y-16718571D01*
X6073857Y-16718571D02*
X6083381Y-16756667D01*
X6083381Y-16756667D02*
X6083381Y-16804286D01*
X6083381Y-16804286D02*
X6073857Y-16842381D01*
X6073857Y-16842381D02*
X6064333Y-16861429D01*
X6064333Y-16861429D02*
X6054809Y-16870952D01*
X6054809Y-16870952D02*
X6035762Y-16880476D01*
X6035762Y-16880476D02*
X6016714Y-16880476D01*
X6016714Y-16880476D02*
X5997667Y-16870952D01*
X5997667Y-16870952D02*
X5988143Y-16861429D01*
X5988143Y-16861429D02*
X5978619Y-16842381D01*
X5978619Y-16842381D02*
X5969095Y-16804286D01*
X5969095Y-16804286D02*
X5969095Y-16756667D01*
X5969095Y-16756667D02*
X5978619Y-16718571D01*
X5978619Y-16718571D02*
X5988143Y-16699524D01*
X5988143Y-16699524D02*
X5997667Y-16690000D01*
X5997667Y-16690000D02*
X6016714Y-16680476D01*
X6169095Y-16861429D02*
X6178619Y-16870952D01*
X6178619Y-16870952D02*
X6169095Y-16880476D01*
X6169095Y-16880476D02*
X6159571Y-16870952D01*
X6159571Y-16870952D02*
X6169095Y-16861429D01*
X6169095Y-16861429D02*
X6169095Y-16880476D01*
X6350048Y-16680476D02*
X6311952Y-16680476D01*
X6311952Y-16680476D02*
X6292905Y-16690000D01*
X6292905Y-16690000D02*
X6283381Y-16699524D01*
X6283381Y-16699524D02*
X6264333Y-16728095D01*
X6264333Y-16728095D02*
X6254809Y-16766190D01*
X6254809Y-16766190D02*
X6254809Y-16842381D01*
X6254809Y-16842381D02*
X6264333Y-16861429D01*
X6264333Y-16861429D02*
X6273857Y-16870952D01*
X6273857Y-16870952D02*
X6292905Y-16880476D01*
X6292905Y-16880476D02*
X6331000Y-16880476D01*
X6331000Y-16880476D02*
X6350048Y-16870952D01*
X6350048Y-16870952D02*
X6359571Y-16861429D01*
X6359571Y-16861429D02*
X6369095Y-16842381D01*
X6369095Y-16842381D02*
X6369095Y-16794762D01*
X6369095Y-16794762D02*
X6359571Y-16775714D01*
X6359571Y-16775714D02*
X6350048Y-16766190D01*
X6350048Y-16766190D02*
X6331000Y-16756667D01*
X6331000Y-16756667D02*
X6292905Y-16756667D01*
X6292905Y-16756667D02*
X6273857Y-16766190D01*
X6273857Y-16766190D02*
X6264333Y-16775714D01*
X6264333Y-16775714D02*
X6254809Y-16794762D01*
X6550048Y-16680476D02*
X6454809Y-16680476D01*
X6454809Y-16680476D02*
X6445286Y-16775714D01*
X6445286Y-16775714D02*
X6454809Y-16766190D01*
X6454809Y-16766190D02*
X6473857Y-16756667D01*
X6473857Y-16756667D02*
X6521476Y-16756667D01*
X6521476Y-16756667D02*
X6540524Y-16766190D01*
X6540524Y-16766190D02*
X6550048Y-16775714D01*
X6550048Y-16775714D02*
X6559571Y-16794762D01*
X6559571Y-16794762D02*
X6559571Y-16842381D01*
X6559571Y-16842381D02*
X6550048Y-16861429D01*
X6550048Y-16861429D02*
X6540524Y-16870952D01*
X6540524Y-16870952D02*
X6521476Y-16880476D01*
X6521476Y-16880476D02*
X6473857Y-16880476D01*
X6473857Y-16880476D02*
X6454809Y-16870952D01*
X6454809Y-16870952D02*
X6445286Y-16861429D01*
X6683381Y-16680476D02*
X6702429Y-16680476D01*
X6702429Y-16680476D02*
X6721476Y-16690000D01*
X6721476Y-16690000D02*
X6731000Y-16699524D01*
X6731000Y-16699524D02*
X6740524Y-16718571D01*
X6740524Y-16718571D02*
X6750048Y-16756667D01*
X6750048Y-16756667D02*
X6750048Y-16804286D01*
X6750048Y-16804286D02*
X6740524Y-16842381D01*
X6740524Y-16842381D02*
X6731000Y-16861429D01*
X6731000Y-16861429D02*
X6721476Y-16870952D01*
X6721476Y-16870952D02*
X6702429Y-16880476D01*
X6702429Y-16880476D02*
X6683381Y-16880476D01*
X6683381Y-16880476D02*
X6664333Y-16870952D01*
X6664333Y-16870952D02*
X6654809Y-16861429D01*
X6654809Y-16861429D02*
X6645286Y-16842381D01*
X6645286Y-16842381D02*
X6635762Y-16804286D01*
X6635762Y-16804286D02*
X6635762Y-16756667D01*
X6635762Y-16756667D02*
X6645286Y-16718571D01*
X6645286Y-16718571D02*
X6654809Y-16699524D01*
X6654809Y-16699524D02*
X6664333Y-16690000D01*
X6664333Y-16690000D02*
X6683381Y-16680476D01*
X6835762Y-16880476D02*
X6835762Y-16747143D01*
X6835762Y-16766190D02*
X6845286Y-16756667D01*
X6845286Y-16756667D02*
X6864333Y-16747143D01*
X6864333Y-16747143D02*
X6892905Y-16747143D01*
X6892905Y-16747143D02*
X6911952Y-16756667D01*
X6911952Y-16756667D02*
X6921476Y-16775714D01*
X6921476Y-16775714D02*
X6921476Y-16880476D01*
X6921476Y-16775714D02*
X6931000Y-16756667D01*
X6931000Y-16756667D02*
X6950048Y-16747143D01*
X6950048Y-16747143D02*
X6978619Y-16747143D01*
X6978619Y-16747143D02*
X6997667Y-16756667D01*
X6997667Y-16756667D02*
X7007190Y-16775714D01*
X7007190Y-16775714D02*
X7007190Y-16880476D01*
X7102429Y-16880476D02*
X7102429Y-16747143D01*
X7102429Y-16766190D02*
X7111952Y-16756667D01*
X7111952Y-16756667D02*
X7131000Y-16747143D01*
X7131000Y-16747143D02*
X7159571Y-16747143D01*
X7159571Y-16747143D02*
X7178619Y-16756667D01*
X7178619Y-16756667D02*
X7188143Y-16775714D01*
X7188143Y-16775714D02*
X7188143Y-16880476D01*
X7188143Y-16775714D02*
X7197667Y-16756667D01*
X7197667Y-16756667D02*
X7216714Y-16747143D01*
X7216714Y-16747143D02*
X7245286Y-16747143D01*
X7245286Y-16747143D02*
X7264333Y-16756667D01*
X7264333Y-16756667D02*
X7273857Y-16775714D01*
X7273857Y-16775714D02*
X7273857Y-16880476D01*
X7631952Y-16670952D02*
X7460524Y-16928095D01*
X7856714Y-16680476D02*
X7875762Y-16680476D01*
X7875762Y-16680476D02*
X7894810Y-16690000D01*
X7894810Y-16690000D02*
X7904333Y-16699524D01*
X7904333Y-16699524D02*
X7913857Y-16718571D01*
X7913857Y-16718571D02*
X7923381Y-16756667D01*
X7923381Y-16756667D02*
X7923381Y-16804286D01*
X7923381Y-16804286D02*
X7913857Y-16842381D01*
X7913857Y-16842381D02*
X7904333Y-16861429D01*
X7904333Y-16861429D02*
X7894810Y-16870952D01*
X7894810Y-16870952D02*
X7875762Y-16880476D01*
X7875762Y-16880476D02*
X7856714Y-16880476D01*
X7856714Y-16880476D02*
X7837667Y-16870952D01*
X7837667Y-16870952D02*
X7828143Y-16861429D01*
X7828143Y-16861429D02*
X7818619Y-16842381D01*
X7818619Y-16842381D02*
X7809095Y-16804286D01*
X7809095Y-16804286D02*
X7809095Y-16756667D01*
X7809095Y-16756667D02*
X7818619Y-16718571D01*
X7818619Y-16718571D02*
X7828143Y-16699524D01*
X7828143Y-16699524D02*
X7837667Y-16690000D01*
X7837667Y-16690000D02*
X7856714Y-16680476D01*
X8009095Y-16861429D02*
X8018619Y-16870952D01*
X8018619Y-16870952D02*
X8009095Y-16880476D01*
X8009095Y-16880476D02*
X7999571Y-16870952D01*
X7999571Y-16870952D02*
X8009095Y-16861429D01*
X8009095Y-16861429D02*
X8009095Y-16880476D01*
X8142429Y-16680476D02*
X8161476Y-16680476D01*
X8161476Y-16680476D02*
X8180524Y-16690000D01*
X8180524Y-16690000D02*
X8190048Y-16699524D01*
X8190048Y-16699524D02*
X8199571Y-16718571D01*
X8199571Y-16718571D02*
X8209095Y-16756667D01*
X8209095Y-16756667D02*
X8209095Y-16804286D01*
X8209095Y-16804286D02*
X8199571Y-16842381D01*
X8199571Y-16842381D02*
X8190048Y-16861429D01*
X8190048Y-16861429D02*
X8180524Y-16870952D01*
X8180524Y-16870952D02*
X8161476Y-16880476D01*
X8161476Y-16880476D02*
X8142429Y-16880476D01*
X8142429Y-16880476D02*
X8123381Y-16870952D01*
X8123381Y-16870952D02*
X8113857Y-16861429D01*
X8113857Y-16861429D02*
X8104333Y-16842381D01*
X8104333Y-16842381D02*
X8094810Y-16804286D01*
X8094810Y-16804286D02*
X8094810Y-16756667D01*
X8094810Y-16756667D02*
X8104333Y-16718571D01*
X8104333Y-16718571D02*
X8113857Y-16699524D01*
X8113857Y-16699524D02*
X8123381Y-16690000D01*
X8123381Y-16690000D02*
X8142429Y-16680476D01*
X8285286Y-16699524D02*
X8294810Y-16690000D01*
X8294810Y-16690000D02*
X8313857Y-16680476D01*
X8313857Y-16680476D02*
X8361476Y-16680476D01*
X8361476Y-16680476D02*
X8380524Y-16690000D01*
X8380524Y-16690000D02*
X8390048Y-16699524D01*
X8390048Y-16699524D02*
X8399572Y-16718571D01*
X8399572Y-16718571D02*
X8399572Y-16737619D01*
X8399572Y-16737619D02*
X8390048Y-16766190D01*
X8390048Y-16766190D02*
X8275762Y-16880476D01*
X8275762Y-16880476D02*
X8399572Y-16880476D01*
X8580524Y-16680476D02*
X8485286Y-16680476D01*
X8485286Y-16680476D02*
X8475762Y-16775714D01*
X8475762Y-16775714D02*
X8485286Y-16766190D01*
X8485286Y-16766190D02*
X8504333Y-16756667D01*
X8504333Y-16756667D02*
X8551953Y-16756667D01*
X8551953Y-16756667D02*
X8571000Y-16766190D01*
X8571000Y-16766190D02*
X8580524Y-16775714D01*
X8580524Y-16775714D02*
X8590048Y-16794762D01*
X8590048Y-16794762D02*
X8590048Y-16842381D01*
X8590048Y-16842381D02*
X8580524Y-16861429D01*
X8580524Y-16861429D02*
X8571000Y-16870952D01*
X8571000Y-16870952D02*
X8551953Y-16880476D01*
X8551953Y-16880476D02*
X8504333Y-16880476D01*
X8504333Y-16880476D02*
X8485286Y-16870952D01*
X8485286Y-16870952D02*
X8475762Y-16861429D01*
X8761476Y-16680476D02*
X8723381Y-16680476D01*
X8723381Y-16680476D02*
X8704333Y-16690000D01*
X8704333Y-16690000D02*
X8694810Y-16699524D01*
X8694810Y-16699524D02*
X8675762Y-16728095D01*
X8675762Y-16728095D02*
X8666238Y-16766190D01*
X8666238Y-16766190D02*
X8666238Y-16842381D01*
X8666238Y-16842381D02*
X8675762Y-16861429D01*
X8675762Y-16861429D02*
X8685286Y-16870952D01*
X8685286Y-16870952D02*
X8704333Y-16880476D01*
X8704333Y-16880476D02*
X8742429Y-16880476D01*
X8742429Y-16880476D02*
X8761476Y-16870952D01*
X8761476Y-16870952D02*
X8771000Y-16861429D01*
X8771000Y-16861429D02*
X8780524Y-16842381D01*
X8780524Y-16842381D02*
X8780524Y-16794762D01*
X8780524Y-16794762D02*
X8771000Y-16775714D01*
X8771000Y-16775714D02*
X8761476Y-16766190D01*
X8761476Y-16766190D02*
X8742429Y-16756667D01*
X8742429Y-16756667D02*
X8704333Y-16756667D01*
X8704333Y-16756667D02*
X8685286Y-16766190D01*
X8685286Y-16766190D02*
X8675762Y-16775714D01*
X8675762Y-16775714D02*
X8666238Y-16794762D01*
X8856714Y-16680476D02*
X8856714Y-16718571D01*
X8932905Y-16680476D02*
X8932905Y-16718571D01*
X9195762Y-16956667D02*
X9186238Y-16947143D01*
X9186238Y-16947143D02*
X9167191Y-16918571D01*
X9167191Y-16918571D02*
X9157667Y-16899524D01*
X9157667Y-16899524D02*
X9148143Y-16870952D01*
X9148143Y-16870952D02*
X9138619Y-16823333D01*
X9138619Y-16823333D02*
X9138619Y-16785238D01*
X9138619Y-16785238D02*
X9148143Y-16737619D01*
X9148143Y-16737619D02*
X9157667Y-16709048D01*
X9157667Y-16709048D02*
X9167191Y-16690000D01*
X9167191Y-16690000D02*
X9186238Y-16661428D01*
X9186238Y-16661428D02*
X9195762Y-16651905D01*
X9262429Y-16699524D02*
X9271953Y-16690000D01*
X9271953Y-16690000D02*
X9291000Y-16680476D01*
X9291000Y-16680476D02*
X9338619Y-16680476D01*
X9338619Y-16680476D02*
X9357667Y-16690000D01*
X9357667Y-16690000D02*
X9367191Y-16699524D01*
X9367191Y-16699524D02*
X9376714Y-16718571D01*
X9376714Y-16718571D02*
X9376714Y-16737619D01*
X9376714Y-16737619D02*
X9367191Y-16766190D01*
X9367191Y-16766190D02*
X9252905Y-16880476D01*
X9252905Y-16880476D02*
X9376714Y-16880476D01*
X9582429Y-16880476D02*
X9582429Y-16680476D01*
X9668143Y-16880476D02*
X9668143Y-16775714D01*
X9668143Y-16775714D02*
X9658619Y-16756667D01*
X9658619Y-16756667D02*
X9639572Y-16747143D01*
X9639572Y-16747143D02*
X9611000Y-16747143D01*
X9611000Y-16747143D02*
X9591953Y-16756667D01*
X9591953Y-16756667D02*
X9582429Y-16766190D01*
X9791953Y-16880476D02*
X9772905Y-16870952D01*
X9772905Y-16870952D02*
X9763381Y-16861429D01*
X9763381Y-16861429D02*
X9753857Y-16842381D01*
X9753857Y-16842381D02*
X9753857Y-16785238D01*
X9753857Y-16785238D02*
X9763381Y-16766190D01*
X9763381Y-16766190D02*
X9772905Y-16756667D01*
X9772905Y-16756667D02*
X9791953Y-16747143D01*
X9791953Y-16747143D02*
X9820524Y-16747143D01*
X9820524Y-16747143D02*
X9839572Y-16756667D01*
X9839572Y-16756667D02*
X9849095Y-16766190D01*
X9849095Y-16766190D02*
X9858619Y-16785238D01*
X9858619Y-16785238D02*
X9858619Y-16842381D01*
X9858619Y-16842381D02*
X9849095Y-16861429D01*
X9849095Y-16861429D02*
X9839572Y-16870952D01*
X9839572Y-16870952D02*
X9820524Y-16880476D01*
X9820524Y-16880476D02*
X9791953Y-16880476D01*
X9972905Y-16880476D02*
X9953857Y-16870952D01*
X9953857Y-16870952D02*
X9944334Y-16851905D01*
X9944334Y-16851905D02*
X9944334Y-16680476D01*
X10125286Y-16870952D02*
X10106238Y-16880476D01*
X10106238Y-16880476D02*
X10068143Y-16880476D01*
X10068143Y-16880476D02*
X10049095Y-16870952D01*
X10049095Y-16870952D02*
X10039572Y-16851905D01*
X10039572Y-16851905D02*
X10039572Y-16775714D01*
X10039572Y-16775714D02*
X10049095Y-16756667D01*
X10049095Y-16756667D02*
X10068143Y-16747143D01*
X10068143Y-16747143D02*
X10106238Y-16747143D01*
X10106238Y-16747143D02*
X10125286Y-16756667D01*
X10125286Y-16756667D02*
X10134810Y-16775714D01*
X10134810Y-16775714D02*
X10134810Y-16794762D01*
X10134810Y-16794762D02*
X10039572Y-16813810D01*
X10211000Y-16870952D02*
X10230048Y-16880476D01*
X10230048Y-16880476D02*
X10268143Y-16880476D01*
X10268143Y-16880476D02*
X10287191Y-16870952D01*
X10287191Y-16870952D02*
X10296715Y-16851905D01*
X10296715Y-16851905D02*
X10296715Y-16842381D01*
X10296715Y-16842381D02*
X10287191Y-16823333D01*
X10287191Y-16823333D02*
X10268143Y-16813810D01*
X10268143Y-16813810D02*
X10239572Y-16813810D01*
X10239572Y-16813810D02*
X10220524Y-16804286D01*
X10220524Y-16804286D02*
X10211000Y-16785238D01*
X10211000Y-16785238D02*
X10211000Y-16775714D01*
X10211000Y-16775714D02*
X10220524Y-16756667D01*
X10220524Y-16756667D02*
X10239572Y-16747143D01*
X10239572Y-16747143D02*
X10268143Y-16747143D01*
X10268143Y-16747143D02*
X10287191Y-16756667D01*
X10363381Y-16956667D02*
X10372905Y-16947143D01*
X10372905Y-16947143D02*
X10391953Y-16918571D01*
X10391953Y-16918571D02*
X10401476Y-16899524D01*
X10401476Y-16899524D02*
X10411000Y-16870952D01*
X10411000Y-16870952D02*
X10420524Y-16823333D01*
X10420524Y-16823333D02*
X10420524Y-16785238D01*
X10420524Y-16785238D02*
X10411000Y-16737619D01*
X10411000Y-16737619D02*
X10401476Y-16709048D01*
X10401476Y-16709048D02*
X10391953Y-16690000D01*
X10391953Y-16690000D02*
X10372905Y-16661428D01*
X10372905Y-16661428D02*
X10363381Y-16651905D01*
X10692905Y-16956667D02*
X10683381Y-16947143D01*
X10683381Y-16947143D02*
X10664334Y-16918571D01*
X10664334Y-16918571D02*
X10654810Y-16899524D01*
X10654810Y-16899524D02*
X10645286Y-16870952D01*
X10645286Y-16870952D02*
X10635762Y-16823333D01*
X10635762Y-16823333D02*
X10635762Y-16785238D01*
X10635762Y-16785238D02*
X10645286Y-16737619D01*
X10645286Y-16737619D02*
X10654810Y-16709048D01*
X10654810Y-16709048D02*
X10664334Y-16690000D01*
X10664334Y-16690000D02*
X10683381Y-16661428D01*
X10683381Y-16661428D02*
X10692905Y-16651905D01*
X10769095Y-16747143D02*
X10769095Y-16880476D01*
X10769095Y-16766190D02*
X10778619Y-16756667D01*
X10778619Y-16756667D02*
X10797667Y-16747143D01*
X10797667Y-16747143D02*
X10826238Y-16747143D01*
X10826238Y-16747143D02*
X10845286Y-16756667D01*
X10845286Y-16756667D02*
X10854810Y-16775714D01*
X10854810Y-16775714D02*
X10854810Y-16880476D01*
X10978619Y-16880476D02*
X10959572Y-16870952D01*
X10959572Y-16870952D02*
X10950048Y-16861429D01*
X10950048Y-16861429D02*
X10940524Y-16842381D01*
X10940524Y-16842381D02*
X10940524Y-16785238D01*
X10940524Y-16785238D02*
X10950048Y-16766190D01*
X10950048Y-16766190D02*
X10959572Y-16756667D01*
X10959572Y-16756667D02*
X10978619Y-16747143D01*
X10978619Y-16747143D02*
X11007191Y-16747143D01*
X11007191Y-16747143D02*
X11026238Y-16756667D01*
X11026238Y-16756667D02*
X11035762Y-16766190D01*
X11035762Y-16766190D02*
X11045286Y-16785238D01*
X11045286Y-16785238D02*
X11045286Y-16842381D01*
X11045286Y-16842381D02*
X11035762Y-16861429D01*
X11035762Y-16861429D02*
X11026238Y-16870952D01*
X11026238Y-16870952D02*
X11007191Y-16880476D01*
X11007191Y-16880476D02*
X10978619Y-16880476D01*
X11102429Y-16747143D02*
X11178619Y-16747143D01*
X11131000Y-16680476D02*
X11131000Y-16851905D01*
X11131000Y-16851905D02*
X11140524Y-16870952D01*
X11140524Y-16870952D02*
X11159572Y-16880476D01*
X11159572Y-16880476D02*
X11178619Y-16880476D01*
X11365286Y-16747143D02*
X11365286Y-16947143D01*
X11365286Y-16756667D02*
X11384333Y-16747143D01*
X11384333Y-16747143D02*
X11422429Y-16747143D01*
X11422429Y-16747143D02*
X11441476Y-16756667D01*
X11441476Y-16756667D02*
X11451000Y-16766190D01*
X11451000Y-16766190D02*
X11460524Y-16785238D01*
X11460524Y-16785238D02*
X11460524Y-16842381D01*
X11460524Y-16842381D02*
X11451000Y-16861429D01*
X11451000Y-16861429D02*
X11441476Y-16870952D01*
X11441476Y-16870952D02*
X11422429Y-16880476D01*
X11422429Y-16880476D02*
X11384333Y-16880476D01*
X11384333Y-16880476D02*
X11365286Y-16870952D01*
X11574810Y-16880476D02*
X11555762Y-16870952D01*
X11555762Y-16870952D02*
X11546238Y-16851905D01*
X11546238Y-16851905D02*
X11546238Y-16680476D01*
X11736714Y-16880476D02*
X11736714Y-16775714D01*
X11736714Y-16775714D02*
X11727191Y-16756667D01*
X11727191Y-16756667D02*
X11708143Y-16747143D01*
X11708143Y-16747143D02*
X11670048Y-16747143D01*
X11670048Y-16747143D02*
X11651000Y-16756667D01*
X11736714Y-16870952D02*
X11717667Y-16880476D01*
X11717667Y-16880476D02*
X11670048Y-16880476D01*
X11670048Y-16880476D02*
X11651000Y-16870952D01*
X11651000Y-16870952D02*
X11641476Y-16851905D01*
X11641476Y-16851905D02*
X11641476Y-16832857D01*
X11641476Y-16832857D02*
X11651000Y-16813810D01*
X11651000Y-16813810D02*
X11670048Y-16804286D01*
X11670048Y-16804286D02*
X11717667Y-16804286D01*
X11717667Y-16804286D02*
X11736714Y-16794762D01*
X11803381Y-16747143D02*
X11879572Y-16747143D01*
X11831953Y-16680476D02*
X11831953Y-16851905D01*
X11831953Y-16851905D02*
X11841476Y-16870952D01*
X11841476Y-16870952D02*
X11860524Y-16880476D01*
X11860524Y-16880476D02*
X11879572Y-16880476D01*
X12022429Y-16870952D02*
X12003381Y-16880476D01*
X12003381Y-16880476D02*
X11965286Y-16880476D01*
X11965286Y-16880476D02*
X11946238Y-16870952D01*
X11946238Y-16870952D02*
X11936714Y-16851905D01*
X11936714Y-16851905D02*
X11936714Y-16775714D01*
X11936714Y-16775714D02*
X11946238Y-16756667D01*
X11946238Y-16756667D02*
X11965286Y-16747143D01*
X11965286Y-16747143D02*
X12003381Y-16747143D01*
X12003381Y-16747143D02*
X12022429Y-16756667D01*
X12022429Y-16756667D02*
X12031953Y-16775714D01*
X12031953Y-16775714D02*
X12031953Y-16794762D01*
X12031953Y-16794762D02*
X11936714Y-16813810D01*
X12203381Y-16880476D02*
X12203381Y-16680476D01*
X12203381Y-16870952D02*
X12184334Y-16880476D01*
X12184334Y-16880476D02*
X12146238Y-16880476D01*
X12146238Y-16880476D02*
X12127191Y-16870952D01*
X12127191Y-16870952D02*
X12117667Y-16861429D01*
X12117667Y-16861429D02*
X12108143Y-16842381D01*
X12108143Y-16842381D02*
X12108143Y-16785238D01*
X12108143Y-16785238D02*
X12117667Y-16766190D01*
X12117667Y-16766190D02*
X12127191Y-16756667D01*
X12127191Y-16756667D02*
X12146238Y-16747143D01*
X12146238Y-16747143D02*
X12184334Y-16747143D01*
X12184334Y-16747143D02*
X12203381Y-16756667D01*
X12279572Y-16956667D02*
X12289095Y-16947143D01*
X12289095Y-16947143D02*
X12308143Y-16918571D01*
X12308143Y-16918571D02*
X12317667Y-16899524D01*
X12317667Y-16899524D02*
X12327191Y-16870952D01*
X12327191Y-16870952D02*
X12336714Y-16823333D01*
X12336714Y-16823333D02*
X12336714Y-16785238D01*
X12336714Y-16785238D02*
X12327191Y-16737619D01*
X12327191Y-16737619D02*
X12317667Y-16709048D01*
X12317667Y-16709048D02*
X12308143Y-16690000D01*
X12308143Y-16690000D02*
X12289095Y-16661428D01*
X12289095Y-16661428D02*
X12279572Y-16651905D01*
D13*
X5731000Y-17071000D02*
G75*
G03*
X5731000Y-17071000I-49530J0D01*
G01*
D11*
X6016714Y-16944476D02*
X6035762Y-16944476D01*
X6035762Y-16944476D02*
X6054809Y-16954000D01*
X6054809Y-16954000D02*
X6064333Y-16963524D01*
X6064333Y-16963524D02*
X6073857Y-16982571D01*
X6073857Y-16982571D02*
X6083381Y-17020667D01*
X6083381Y-17020667D02*
X6083381Y-17068286D01*
X6083381Y-17068286D02*
X6073857Y-17106381D01*
X6073857Y-17106381D02*
X6064333Y-17125429D01*
X6064333Y-17125429D02*
X6054809Y-17134952D01*
X6054809Y-17134952D02*
X6035762Y-17144476D01*
X6035762Y-17144476D02*
X6016714Y-17144476D01*
X6016714Y-17144476D02*
X5997667Y-17134952D01*
X5997667Y-17134952D02*
X5988143Y-17125429D01*
X5988143Y-17125429D02*
X5978619Y-17106381D01*
X5978619Y-17106381D02*
X5969095Y-17068286D01*
X5969095Y-17068286D02*
X5969095Y-17020667D01*
X5969095Y-17020667D02*
X5978619Y-16982571D01*
X5978619Y-16982571D02*
X5988143Y-16963524D01*
X5988143Y-16963524D02*
X5997667Y-16954000D01*
X5997667Y-16954000D02*
X6016714Y-16944476D01*
X6169095Y-17125429D02*
X6178619Y-17134952D01*
X6178619Y-17134952D02*
X6169095Y-17144476D01*
X6169095Y-17144476D02*
X6159571Y-17134952D01*
X6159571Y-17134952D02*
X6169095Y-17125429D01*
X6169095Y-17125429D02*
X6169095Y-17144476D01*
X6273857Y-17144476D02*
X6311952Y-17144476D01*
X6311952Y-17144476D02*
X6331000Y-17134952D01*
X6331000Y-17134952D02*
X6340524Y-17125429D01*
X6340524Y-17125429D02*
X6359571Y-17096857D01*
X6359571Y-17096857D02*
X6369095Y-17058762D01*
X6369095Y-17058762D02*
X6369095Y-16982571D01*
X6369095Y-16982571D02*
X6359571Y-16963524D01*
X6359571Y-16963524D02*
X6350048Y-16954000D01*
X6350048Y-16954000D02*
X6331000Y-16944476D01*
X6331000Y-16944476D02*
X6292905Y-16944476D01*
X6292905Y-16944476D02*
X6273857Y-16954000D01*
X6273857Y-16954000D02*
X6264333Y-16963524D01*
X6264333Y-16963524D02*
X6254809Y-16982571D01*
X6254809Y-16982571D02*
X6254809Y-17030190D01*
X6254809Y-17030190D02*
X6264333Y-17049238D01*
X6264333Y-17049238D02*
X6273857Y-17058762D01*
X6273857Y-17058762D02*
X6292905Y-17068286D01*
X6292905Y-17068286D02*
X6331000Y-17068286D01*
X6331000Y-17068286D02*
X6350048Y-17058762D01*
X6350048Y-17058762D02*
X6359571Y-17049238D01*
X6359571Y-17049238D02*
X6369095Y-17030190D01*
X6464333Y-17144476D02*
X6502428Y-17144476D01*
X6502428Y-17144476D02*
X6521476Y-17134952D01*
X6521476Y-17134952D02*
X6531000Y-17125429D01*
X6531000Y-17125429D02*
X6550048Y-17096857D01*
X6550048Y-17096857D02*
X6559571Y-17058762D01*
X6559571Y-17058762D02*
X6559571Y-16982571D01*
X6559571Y-16982571D02*
X6550048Y-16963524D01*
X6550048Y-16963524D02*
X6540524Y-16954000D01*
X6540524Y-16954000D02*
X6521476Y-16944476D01*
X6521476Y-16944476D02*
X6483381Y-16944476D01*
X6483381Y-16944476D02*
X6464333Y-16954000D01*
X6464333Y-16954000D02*
X6454809Y-16963524D01*
X6454809Y-16963524D02*
X6445286Y-16982571D01*
X6445286Y-16982571D02*
X6445286Y-17030190D01*
X6445286Y-17030190D02*
X6454809Y-17049238D01*
X6454809Y-17049238D02*
X6464333Y-17058762D01*
X6464333Y-17058762D02*
X6483381Y-17068286D01*
X6483381Y-17068286D02*
X6521476Y-17068286D01*
X6521476Y-17068286D02*
X6540524Y-17058762D01*
X6540524Y-17058762D02*
X6550048Y-17049238D01*
X6550048Y-17049238D02*
X6559571Y-17030190D01*
X6750048Y-17144476D02*
X6635762Y-17144476D01*
X6692905Y-17144476D02*
X6692905Y-16944476D01*
X6692905Y-16944476D02*
X6673857Y-16973048D01*
X6673857Y-16973048D02*
X6654809Y-16992095D01*
X6654809Y-16992095D02*
X6635762Y-17001619D01*
X6835762Y-17144476D02*
X6835762Y-17011143D01*
X6835762Y-17030190D02*
X6845286Y-17020667D01*
X6845286Y-17020667D02*
X6864333Y-17011143D01*
X6864333Y-17011143D02*
X6892905Y-17011143D01*
X6892905Y-17011143D02*
X6911952Y-17020667D01*
X6911952Y-17020667D02*
X6921476Y-17039714D01*
X6921476Y-17039714D02*
X6921476Y-17144476D01*
X6921476Y-17039714D02*
X6931000Y-17020667D01*
X6931000Y-17020667D02*
X6950048Y-17011143D01*
X6950048Y-17011143D02*
X6978619Y-17011143D01*
X6978619Y-17011143D02*
X6997667Y-17020667D01*
X6997667Y-17020667D02*
X7007190Y-17039714D01*
X7007190Y-17039714D02*
X7007190Y-17144476D01*
X7102429Y-17144476D02*
X7102429Y-17011143D01*
X7102429Y-17030190D02*
X7111952Y-17020667D01*
X7111952Y-17020667D02*
X7131000Y-17011143D01*
X7131000Y-17011143D02*
X7159571Y-17011143D01*
X7159571Y-17011143D02*
X7178619Y-17020667D01*
X7178619Y-17020667D02*
X7188143Y-17039714D01*
X7188143Y-17039714D02*
X7188143Y-17144476D01*
X7188143Y-17039714D02*
X7197667Y-17020667D01*
X7197667Y-17020667D02*
X7216714Y-17011143D01*
X7216714Y-17011143D02*
X7245286Y-17011143D01*
X7245286Y-17011143D02*
X7264333Y-17020667D01*
X7264333Y-17020667D02*
X7273857Y-17039714D01*
X7273857Y-17039714D02*
X7273857Y-17144476D01*
X7631952Y-16934952D02*
X7460524Y-17192095D01*
X7856714Y-16944476D02*
X7875762Y-16944476D01*
X7875762Y-16944476D02*
X7894810Y-16954000D01*
X7894810Y-16954000D02*
X7904333Y-16963524D01*
X7904333Y-16963524D02*
X7913857Y-16982571D01*
X7913857Y-16982571D02*
X7923381Y-17020667D01*
X7923381Y-17020667D02*
X7923381Y-17068286D01*
X7923381Y-17068286D02*
X7913857Y-17106381D01*
X7913857Y-17106381D02*
X7904333Y-17125429D01*
X7904333Y-17125429D02*
X7894810Y-17134952D01*
X7894810Y-17134952D02*
X7875762Y-17144476D01*
X7875762Y-17144476D02*
X7856714Y-17144476D01*
X7856714Y-17144476D02*
X7837667Y-17134952D01*
X7837667Y-17134952D02*
X7828143Y-17125429D01*
X7828143Y-17125429D02*
X7818619Y-17106381D01*
X7818619Y-17106381D02*
X7809095Y-17068286D01*
X7809095Y-17068286D02*
X7809095Y-17020667D01*
X7809095Y-17020667D02*
X7818619Y-16982571D01*
X7818619Y-16982571D02*
X7828143Y-16963524D01*
X7828143Y-16963524D02*
X7837667Y-16954000D01*
X7837667Y-16954000D02*
X7856714Y-16944476D01*
X8009095Y-17125429D02*
X8018619Y-17134952D01*
X8018619Y-17134952D02*
X8009095Y-17144476D01*
X8009095Y-17144476D02*
X7999571Y-17134952D01*
X7999571Y-17134952D02*
X8009095Y-17125429D01*
X8009095Y-17125429D02*
X8009095Y-17144476D01*
X8142429Y-16944476D02*
X8161476Y-16944476D01*
X8161476Y-16944476D02*
X8180524Y-16954000D01*
X8180524Y-16954000D02*
X8190048Y-16963524D01*
X8190048Y-16963524D02*
X8199571Y-16982571D01*
X8199571Y-16982571D02*
X8209095Y-17020667D01*
X8209095Y-17020667D02*
X8209095Y-17068286D01*
X8209095Y-17068286D02*
X8199571Y-17106381D01*
X8199571Y-17106381D02*
X8190048Y-17125429D01*
X8190048Y-17125429D02*
X8180524Y-17134952D01*
X8180524Y-17134952D02*
X8161476Y-17144476D01*
X8161476Y-17144476D02*
X8142429Y-17144476D01*
X8142429Y-17144476D02*
X8123381Y-17134952D01*
X8123381Y-17134952D02*
X8113857Y-17125429D01*
X8113857Y-17125429D02*
X8104333Y-17106381D01*
X8104333Y-17106381D02*
X8094810Y-17068286D01*
X8094810Y-17068286D02*
X8094810Y-17020667D01*
X8094810Y-17020667D02*
X8104333Y-16982571D01*
X8104333Y-16982571D02*
X8113857Y-16963524D01*
X8113857Y-16963524D02*
X8123381Y-16954000D01*
X8123381Y-16954000D02*
X8142429Y-16944476D01*
X8275762Y-16944476D02*
X8399572Y-16944476D01*
X8399572Y-16944476D02*
X8332905Y-17020667D01*
X8332905Y-17020667D02*
X8361476Y-17020667D01*
X8361476Y-17020667D02*
X8380524Y-17030190D01*
X8380524Y-17030190D02*
X8390048Y-17039714D01*
X8390048Y-17039714D02*
X8399572Y-17058762D01*
X8399572Y-17058762D02*
X8399572Y-17106381D01*
X8399572Y-17106381D02*
X8390048Y-17125429D01*
X8390048Y-17125429D02*
X8380524Y-17134952D01*
X8380524Y-17134952D02*
X8361476Y-17144476D01*
X8361476Y-17144476D02*
X8304333Y-17144476D01*
X8304333Y-17144476D02*
X8285286Y-17134952D01*
X8285286Y-17134952D02*
X8275762Y-17125429D01*
X8494810Y-17144476D02*
X8532905Y-17144476D01*
X8532905Y-17144476D02*
X8551953Y-17134952D01*
X8551953Y-17134952D02*
X8561476Y-17125429D01*
X8561476Y-17125429D02*
X8580524Y-17096857D01*
X8580524Y-17096857D02*
X8590048Y-17058762D01*
X8590048Y-17058762D02*
X8590048Y-16982571D01*
X8590048Y-16982571D02*
X8580524Y-16963524D01*
X8580524Y-16963524D02*
X8571000Y-16954000D01*
X8571000Y-16954000D02*
X8551953Y-16944476D01*
X8551953Y-16944476D02*
X8513857Y-16944476D01*
X8513857Y-16944476D02*
X8494810Y-16954000D01*
X8494810Y-16954000D02*
X8485286Y-16963524D01*
X8485286Y-16963524D02*
X8475762Y-16982571D01*
X8475762Y-16982571D02*
X8475762Y-17030190D01*
X8475762Y-17030190D02*
X8485286Y-17049238D01*
X8485286Y-17049238D02*
X8494810Y-17058762D01*
X8494810Y-17058762D02*
X8513857Y-17068286D01*
X8513857Y-17068286D02*
X8551953Y-17068286D01*
X8551953Y-17068286D02*
X8571000Y-17058762D01*
X8571000Y-17058762D02*
X8580524Y-17049238D01*
X8580524Y-17049238D02*
X8590048Y-17030190D01*
X8713857Y-16944476D02*
X8732905Y-16944476D01*
X8732905Y-16944476D02*
X8751953Y-16954000D01*
X8751953Y-16954000D02*
X8761476Y-16963524D01*
X8761476Y-16963524D02*
X8771000Y-16982571D01*
X8771000Y-16982571D02*
X8780524Y-17020667D01*
X8780524Y-17020667D02*
X8780524Y-17068286D01*
X8780524Y-17068286D02*
X8771000Y-17106381D01*
X8771000Y-17106381D02*
X8761476Y-17125429D01*
X8761476Y-17125429D02*
X8751953Y-17134952D01*
X8751953Y-17134952D02*
X8732905Y-17144476D01*
X8732905Y-17144476D02*
X8713857Y-17144476D01*
X8713857Y-17144476D02*
X8694810Y-17134952D01*
X8694810Y-17134952D02*
X8685286Y-17125429D01*
X8685286Y-17125429D02*
X8675762Y-17106381D01*
X8675762Y-17106381D02*
X8666238Y-17068286D01*
X8666238Y-17068286D02*
X8666238Y-17020667D01*
X8666238Y-17020667D02*
X8675762Y-16982571D01*
X8675762Y-16982571D02*
X8685286Y-16963524D01*
X8685286Y-16963524D02*
X8694810Y-16954000D01*
X8694810Y-16954000D02*
X8713857Y-16944476D01*
X8856714Y-16944476D02*
X8856714Y-16982571D01*
X8932905Y-16944476D02*
X8932905Y-16982571D01*
X9195762Y-17220667D02*
X9186238Y-17211143D01*
X9186238Y-17211143D02*
X9167191Y-17182571D01*
X9167191Y-17182571D02*
X9157667Y-17163524D01*
X9157667Y-17163524D02*
X9148143Y-17134952D01*
X9148143Y-17134952D02*
X9138619Y-17087333D01*
X9138619Y-17087333D02*
X9138619Y-17049238D01*
X9138619Y-17049238D02*
X9148143Y-17001619D01*
X9148143Y-17001619D02*
X9157667Y-16973048D01*
X9157667Y-16973048D02*
X9167191Y-16954000D01*
X9167191Y-16954000D02*
X9186238Y-16925429D01*
X9186238Y-16925429D02*
X9195762Y-16915905D01*
X9252905Y-16944476D02*
X9376714Y-16944476D01*
X9376714Y-16944476D02*
X9310048Y-17020667D01*
X9310048Y-17020667D02*
X9338619Y-17020667D01*
X9338619Y-17020667D02*
X9357667Y-17030190D01*
X9357667Y-17030190D02*
X9367191Y-17039714D01*
X9367191Y-17039714D02*
X9376714Y-17058762D01*
X9376714Y-17058762D02*
X9376714Y-17106381D01*
X9376714Y-17106381D02*
X9367191Y-17125429D01*
X9367191Y-17125429D02*
X9357667Y-17134952D01*
X9357667Y-17134952D02*
X9338619Y-17144476D01*
X9338619Y-17144476D02*
X9281476Y-17144476D01*
X9281476Y-17144476D02*
X9262429Y-17134952D01*
X9262429Y-17134952D02*
X9252905Y-17125429D01*
X9582429Y-17144476D02*
X9582429Y-16944476D01*
X9668143Y-17144476D02*
X9668143Y-17039714D01*
X9668143Y-17039714D02*
X9658619Y-17020667D01*
X9658619Y-17020667D02*
X9639572Y-17011143D01*
X9639572Y-17011143D02*
X9611000Y-17011143D01*
X9611000Y-17011143D02*
X9591953Y-17020667D01*
X9591953Y-17020667D02*
X9582429Y-17030190D01*
X9791953Y-17144476D02*
X9772905Y-17134952D01*
X9772905Y-17134952D02*
X9763381Y-17125429D01*
X9763381Y-17125429D02*
X9753857Y-17106381D01*
X9753857Y-17106381D02*
X9753857Y-17049238D01*
X9753857Y-17049238D02*
X9763381Y-17030190D01*
X9763381Y-17030190D02*
X9772905Y-17020667D01*
X9772905Y-17020667D02*
X9791953Y-17011143D01*
X9791953Y-17011143D02*
X9820524Y-17011143D01*
X9820524Y-17011143D02*
X9839572Y-17020667D01*
X9839572Y-17020667D02*
X9849095Y-17030190D01*
X9849095Y-17030190D02*
X9858619Y-17049238D01*
X9858619Y-17049238D02*
X9858619Y-17106381D01*
X9858619Y-17106381D02*
X9849095Y-17125429D01*
X9849095Y-17125429D02*
X9839572Y-17134952D01*
X9839572Y-17134952D02*
X9820524Y-17144476D01*
X9820524Y-17144476D02*
X9791953Y-17144476D01*
X9972905Y-17144476D02*
X9953857Y-17134952D01*
X9953857Y-17134952D02*
X9944334Y-17115905D01*
X9944334Y-17115905D02*
X9944334Y-16944476D01*
X10125286Y-17134952D02*
X10106238Y-17144476D01*
X10106238Y-17144476D02*
X10068143Y-17144476D01*
X10068143Y-17144476D02*
X10049095Y-17134952D01*
X10049095Y-17134952D02*
X10039572Y-17115905D01*
X10039572Y-17115905D02*
X10039572Y-17039714D01*
X10039572Y-17039714D02*
X10049095Y-17020667D01*
X10049095Y-17020667D02*
X10068143Y-17011143D01*
X10068143Y-17011143D02*
X10106238Y-17011143D01*
X10106238Y-17011143D02*
X10125286Y-17020667D01*
X10125286Y-17020667D02*
X10134810Y-17039714D01*
X10134810Y-17039714D02*
X10134810Y-17058762D01*
X10134810Y-17058762D02*
X10039572Y-17077810D01*
X10211000Y-17134952D02*
X10230048Y-17144476D01*
X10230048Y-17144476D02*
X10268143Y-17144476D01*
X10268143Y-17144476D02*
X10287191Y-17134952D01*
X10287191Y-17134952D02*
X10296715Y-17115905D01*
X10296715Y-17115905D02*
X10296715Y-17106381D01*
X10296715Y-17106381D02*
X10287191Y-17087333D01*
X10287191Y-17087333D02*
X10268143Y-17077810D01*
X10268143Y-17077810D02*
X10239572Y-17077810D01*
X10239572Y-17077810D02*
X10220524Y-17068286D01*
X10220524Y-17068286D02*
X10211000Y-17049238D01*
X10211000Y-17049238D02*
X10211000Y-17039714D01*
X10211000Y-17039714D02*
X10220524Y-17020667D01*
X10220524Y-17020667D02*
X10239572Y-17011143D01*
X10239572Y-17011143D02*
X10268143Y-17011143D01*
X10268143Y-17011143D02*
X10287191Y-17020667D01*
X10363381Y-17220667D02*
X10372905Y-17211143D01*
X10372905Y-17211143D02*
X10391953Y-17182571D01*
X10391953Y-17182571D02*
X10401476Y-17163524D01*
X10401476Y-17163524D02*
X10411000Y-17134952D01*
X10411000Y-17134952D02*
X10420524Y-17087333D01*
X10420524Y-17087333D02*
X10420524Y-17049238D01*
X10420524Y-17049238D02*
X10411000Y-17001619D01*
X10411000Y-17001619D02*
X10401476Y-16973048D01*
X10401476Y-16973048D02*
X10391953Y-16954000D01*
X10391953Y-16954000D02*
X10372905Y-16925429D01*
X10372905Y-16925429D02*
X10363381Y-16915905D01*
X10692905Y-17220667D02*
X10683381Y-17211143D01*
X10683381Y-17211143D02*
X10664334Y-17182571D01*
X10664334Y-17182571D02*
X10654810Y-17163524D01*
X10654810Y-17163524D02*
X10645286Y-17134952D01*
X10645286Y-17134952D02*
X10635762Y-17087333D01*
X10635762Y-17087333D02*
X10635762Y-17049238D01*
X10635762Y-17049238D02*
X10645286Y-17001619D01*
X10645286Y-17001619D02*
X10654810Y-16973048D01*
X10654810Y-16973048D02*
X10664334Y-16954000D01*
X10664334Y-16954000D02*
X10683381Y-16925429D01*
X10683381Y-16925429D02*
X10692905Y-16915905D01*
X10769095Y-17011143D02*
X10769095Y-17144476D01*
X10769095Y-17030190D02*
X10778619Y-17020667D01*
X10778619Y-17020667D02*
X10797667Y-17011143D01*
X10797667Y-17011143D02*
X10826238Y-17011143D01*
X10826238Y-17011143D02*
X10845286Y-17020667D01*
X10845286Y-17020667D02*
X10854810Y-17039714D01*
X10854810Y-17039714D02*
X10854810Y-17144476D01*
X10978619Y-17144476D02*
X10959572Y-17134952D01*
X10959572Y-17134952D02*
X10950048Y-17125429D01*
X10950048Y-17125429D02*
X10940524Y-17106381D01*
X10940524Y-17106381D02*
X10940524Y-17049238D01*
X10940524Y-17049238D02*
X10950048Y-17030190D01*
X10950048Y-17030190D02*
X10959572Y-17020667D01*
X10959572Y-17020667D02*
X10978619Y-17011143D01*
X10978619Y-17011143D02*
X11007191Y-17011143D01*
X11007191Y-17011143D02*
X11026238Y-17020667D01*
X11026238Y-17020667D02*
X11035762Y-17030190D01*
X11035762Y-17030190D02*
X11045286Y-17049238D01*
X11045286Y-17049238D02*
X11045286Y-17106381D01*
X11045286Y-17106381D02*
X11035762Y-17125429D01*
X11035762Y-17125429D02*
X11026238Y-17134952D01*
X11026238Y-17134952D02*
X11007191Y-17144476D01*
X11007191Y-17144476D02*
X10978619Y-17144476D01*
X11102429Y-17011143D02*
X11178619Y-17011143D01*
X11131000Y-16944476D02*
X11131000Y-17115905D01*
X11131000Y-17115905D02*
X11140524Y-17134952D01*
X11140524Y-17134952D02*
X11159572Y-17144476D01*
X11159572Y-17144476D02*
X11178619Y-17144476D01*
X11365286Y-17011143D02*
X11365286Y-17211143D01*
X11365286Y-17020667D02*
X11384333Y-17011143D01*
X11384333Y-17011143D02*
X11422429Y-17011143D01*
X11422429Y-17011143D02*
X11441476Y-17020667D01*
X11441476Y-17020667D02*
X11451000Y-17030190D01*
X11451000Y-17030190D02*
X11460524Y-17049238D01*
X11460524Y-17049238D02*
X11460524Y-17106381D01*
X11460524Y-17106381D02*
X11451000Y-17125429D01*
X11451000Y-17125429D02*
X11441476Y-17134952D01*
X11441476Y-17134952D02*
X11422429Y-17144476D01*
X11422429Y-17144476D02*
X11384333Y-17144476D01*
X11384333Y-17144476D02*
X11365286Y-17134952D01*
X11574810Y-17144476D02*
X11555762Y-17134952D01*
X11555762Y-17134952D02*
X11546238Y-17115905D01*
X11546238Y-17115905D02*
X11546238Y-16944476D01*
X11736714Y-17144476D02*
X11736714Y-17039714D01*
X11736714Y-17039714D02*
X11727191Y-17020667D01*
X11727191Y-17020667D02*
X11708143Y-17011143D01*
X11708143Y-17011143D02*
X11670048Y-17011143D01*
X11670048Y-17011143D02*
X11651000Y-17020667D01*
X11736714Y-17134952D02*
X11717667Y-17144476D01*
X11717667Y-17144476D02*
X11670048Y-17144476D01*
X11670048Y-17144476D02*
X11651000Y-17134952D01*
X11651000Y-17134952D02*
X11641476Y-17115905D01*
X11641476Y-17115905D02*
X11641476Y-17096857D01*
X11641476Y-17096857D02*
X11651000Y-17077810D01*
X11651000Y-17077810D02*
X11670048Y-17068286D01*
X11670048Y-17068286D02*
X11717667Y-17068286D01*
X11717667Y-17068286D02*
X11736714Y-17058762D01*
X11803381Y-17011143D02*
X11879572Y-17011143D01*
X11831953Y-16944476D02*
X11831953Y-17115905D01*
X11831953Y-17115905D02*
X11841476Y-17134952D01*
X11841476Y-17134952D02*
X11860524Y-17144476D01*
X11860524Y-17144476D02*
X11879572Y-17144476D01*
X12022429Y-17134952D02*
X12003381Y-17144476D01*
X12003381Y-17144476D02*
X11965286Y-17144476D01*
X11965286Y-17144476D02*
X11946238Y-17134952D01*
X11946238Y-17134952D02*
X11936714Y-17115905D01*
X11936714Y-17115905D02*
X11936714Y-17039714D01*
X11936714Y-17039714D02*
X11946238Y-17020667D01*
X11946238Y-17020667D02*
X11965286Y-17011143D01*
X11965286Y-17011143D02*
X12003381Y-17011143D01*
X12003381Y-17011143D02*
X12022429Y-17020667D01*
X12022429Y-17020667D02*
X12031953Y-17039714D01*
X12031953Y-17039714D02*
X12031953Y-17058762D01*
X12031953Y-17058762D02*
X11936714Y-17077810D01*
X12203381Y-17144476D02*
X12203381Y-16944476D01*
X12203381Y-17134952D02*
X12184334Y-17144476D01*
X12184334Y-17144476D02*
X12146238Y-17144476D01*
X12146238Y-17144476D02*
X12127191Y-17134952D01*
X12127191Y-17134952D02*
X12117667Y-17125429D01*
X12117667Y-17125429D02*
X12108143Y-17106381D01*
X12108143Y-17106381D02*
X12108143Y-17049238D01*
X12108143Y-17049238D02*
X12117667Y-17030190D01*
X12117667Y-17030190D02*
X12127191Y-17020667D01*
X12127191Y-17020667D02*
X12146238Y-17011143D01*
X12146238Y-17011143D02*
X12184334Y-17011143D01*
X12184334Y-17011143D02*
X12203381Y-17020667D01*
X12279572Y-17220667D02*
X12289095Y-17211143D01*
X12289095Y-17211143D02*
X12308143Y-17182571D01*
X12308143Y-17182571D02*
X12317667Y-17163524D01*
X12317667Y-17163524D02*
X12327191Y-17134952D01*
X12327191Y-17134952D02*
X12336714Y-17087333D01*
X12336714Y-17087333D02*
X12336714Y-17049238D01*
X12336714Y-17049238D02*
X12327191Y-17001619D01*
X12327191Y-17001619D02*
X12317667Y-16973048D01*
X12317667Y-16973048D02*
X12308143Y-16954000D01*
X12308143Y-16954000D02*
X12289095Y-16925429D01*
X12289095Y-16925429D02*
X12279572Y-16915905D01*
D14*
X5671000Y-17275000D02*
X5671000Y-17395000D01*
X5611000Y-17335000D02*
X5731000Y-17335000D01*
D11*
X6083381Y-17408476D02*
X5969095Y-17408476D01*
X6026238Y-17408476D02*
X6026238Y-17208476D01*
X6026238Y-17208476D02*
X6007190Y-17237048D01*
X6007190Y-17237048D02*
X5988143Y-17256095D01*
X5988143Y-17256095D02*
X5969095Y-17265619D01*
X6169095Y-17389429D02*
X6178619Y-17398952D01*
X6178619Y-17398952D02*
X6169095Y-17408476D01*
X6169095Y-17408476D02*
X6159571Y-17398952D01*
X6159571Y-17398952D02*
X6169095Y-17389429D01*
X6169095Y-17389429D02*
X6169095Y-17408476D01*
X6254809Y-17227524D02*
X6264333Y-17218000D01*
X6264333Y-17218000D02*
X6283381Y-17208476D01*
X6283381Y-17208476D02*
X6331000Y-17208476D01*
X6331000Y-17208476D02*
X6350048Y-17218000D01*
X6350048Y-17218000D02*
X6359571Y-17227524D01*
X6359571Y-17227524D02*
X6369095Y-17246571D01*
X6369095Y-17246571D02*
X6369095Y-17265619D01*
X6369095Y-17265619D02*
X6359571Y-17294190D01*
X6359571Y-17294190D02*
X6245286Y-17408476D01*
X6245286Y-17408476D02*
X6369095Y-17408476D01*
X6492905Y-17208476D02*
X6511952Y-17208476D01*
X6511952Y-17208476D02*
X6531000Y-17218000D01*
X6531000Y-17218000D02*
X6540524Y-17227524D01*
X6540524Y-17227524D02*
X6550048Y-17246571D01*
X6550048Y-17246571D02*
X6559571Y-17284667D01*
X6559571Y-17284667D02*
X6559571Y-17332286D01*
X6559571Y-17332286D02*
X6550048Y-17370381D01*
X6550048Y-17370381D02*
X6540524Y-17389429D01*
X6540524Y-17389429D02*
X6531000Y-17398952D01*
X6531000Y-17398952D02*
X6511952Y-17408476D01*
X6511952Y-17408476D02*
X6492905Y-17408476D01*
X6492905Y-17408476D02*
X6473857Y-17398952D01*
X6473857Y-17398952D02*
X6464333Y-17389429D01*
X6464333Y-17389429D02*
X6454809Y-17370381D01*
X6454809Y-17370381D02*
X6445286Y-17332286D01*
X6445286Y-17332286D02*
X6445286Y-17284667D01*
X6445286Y-17284667D02*
X6454809Y-17246571D01*
X6454809Y-17246571D02*
X6464333Y-17227524D01*
X6464333Y-17227524D02*
X6473857Y-17218000D01*
X6473857Y-17218000D02*
X6492905Y-17208476D01*
X6683381Y-17208476D02*
X6702429Y-17208476D01*
X6702429Y-17208476D02*
X6721476Y-17218000D01*
X6721476Y-17218000D02*
X6731000Y-17227524D01*
X6731000Y-17227524D02*
X6740524Y-17246571D01*
X6740524Y-17246571D02*
X6750048Y-17284667D01*
X6750048Y-17284667D02*
X6750048Y-17332286D01*
X6750048Y-17332286D02*
X6740524Y-17370381D01*
X6740524Y-17370381D02*
X6731000Y-17389429D01*
X6731000Y-17389429D02*
X6721476Y-17398952D01*
X6721476Y-17398952D02*
X6702429Y-17408476D01*
X6702429Y-17408476D02*
X6683381Y-17408476D01*
X6683381Y-17408476D02*
X6664333Y-17398952D01*
X6664333Y-17398952D02*
X6654809Y-17389429D01*
X6654809Y-17389429D02*
X6645286Y-17370381D01*
X6645286Y-17370381D02*
X6635762Y-17332286D01*
X6635762Y-17332286D02*
X6635762Y-17284667D01*
X6635762Y-17284667D02*
X6645286Y-17246571D01*
X6645286Y-17246571D02*
X6654809Y-17227524D01*
X6654809Y-17227524D02*
X6664333Y-17218000D01*
X6664333Y-17218000D02*
X6683381Y-17208476D01*
X6835762Y-17408476D02*
X6835762Y-17275143D01*
X6835762Y-17294190D02*
X6845286Y-17284667D01*
X6845286Y-17284667D02*
X6864333Y-17275143D01*
X6864333Y-17275143D02*
X6892905Y-17275143D01*
X6892905Y-17275143D02*
X6911952Y-17284667D01*
X6911952Y-17284667D02*
X6921476Y-17303714D01*
X6921476Y-17303714D02*
X6921476Y-17408476D01*
X6921476Y-17303714D02*
X6931000Y-17284667D01*
X6931000Y-17284667D02*
X6950048Y-17275143D01*
X6950048Y-17275143D02*
X6978619Y-17275143D01*
X6978619Y-17275143D02*
X6997667Y-17284667D01*
X6997667Y-17284667D02*
X7007190Y-17303714D01*
X7007190Y-17303714D02*
X7007190Y-17408476D01*
X7102429Y-17408476D02*
X7102429Y-17275143D01*
X7102429Y-17294190D02*
X7111952Y-17284667D01*
X7111952Y-17284667D02*
X7131000Y-17275143D01*
X7131000Y-17275143D02*
X7159571Y-17275143D01*
X7159571Y-17275143D02*
X7178619Y-17284667D01*
X7178619Y-17284667D02*
X7188143Y-17303714D01*
X7188143Y-17303714D02*
X7188143Y-17408476D01*
X7188143Y-17303714D02*
X7197667Y-17284667D01*
X7197667Y-17284667D02*
X7216714Y-17275143D01*
X7216714Y-17275143D02*
X7245286Y-17275143D01*
X7245286Y-17275143D02*
X7264333Y-17284667D01*
X7264333Y-17284667D02*
X7273857Y-17303714D01*
X7273857Y-17303714D02*
X7273857Y-17408476D01*
X7631952Y-17198952D02*
X7460524Y-17456095D01*
X7856714Y-17208476D02*
X7875762Y-17208476D01*
X7875762Y-17208476D02*
X7894810Y-17218000D01*
X7894810Y-17218000D02*
X7904333Y-17227524D01*
X7904333Y-17227524D02*
X7913857Y-17246571D01*
X7913857Y-17246571D02*
X7923381Y-17284667D01*
X7923381Y-17284667D02*
X7923381Y-17332286D01*
X7923381Y-17332286D02*
X7913857Y-17370381D01*
X7913857Y-17370381D02*
X7904333Y-17389429D01*
X7904333Y-17389429D02*
X7894810Y-17398952D01*
X7894810Y-17398952D02*
X7875762Y-17408476D01*
X7875762Y-17408476D02*
X7856714Y-17408476D01*
X7856714Y-17408476D02*
X7837667Y-17398952D01*
X7837667Y-17398952D02*
X7828143Y-17389429D01*
X7828143Y-17389429D02*
X7818619Y-17370381D01*
X7818619Y-17370381D02*
X7809095Y-17332286D01*
X7809095Y-17332286D02*
X7809095Y-17284667D01*
X7809095Y-17284667D02*
X7818619Y-17246571D01*
X7818619Y-17246571D02*
X7828143Y-17227524D01*
X7828143Y-17227524D02*
X7837667Y-17218000D01*
X7837667Y-17218000D02*
X7856714Y-17208476D01*
X8009095Y-17389429D02*
X8018619Y-17398952D01*
X8018619Y-17398952D02*
X8009095Y-17408476D01*
X8009095Y-17408476D02*
X7999571Y-17398952D01*
X7999571Y-17398952D02*
X8009095Y-17389429D01*
X8009095Y-17389429D02*
X8009095Y-17408476D01*
X8142429Y-17208476D02*
X8161476Y-17208476D01*
X8161476Y-17208476D02*
X8180524Y-17218000D01*
X8180524Y-17218000D02*
X8190048Y-17227524D01*
X8190048Y-17227524D02*
X8199571Y-17246571D01*
X8199571Y-17246571D02*
X8209095Y-17284667D01*
X8209095Y-17284667D02*
X8209095Y-17332286D01*
X8209095Y-17332286D02*
X8199571Y-17370381D01*
X8199571Y-17370381D02*
X8190048Y-17389429D01*
X8190048Y-17389429D02*
X8180524Y-17398952D01*
X8180524Y-17398952D02*
X8161476Y-17408476D01*
X8161476Y-17408476D02*
X8142429Y-17408476D01*
X8142429Y-17408476D02*
X8123381Y-17398952D01*
X8123381Y-17398952D02*
X8113857Y-17389429D01*
X8113857Y-17389429D02*
X8104333Y-17370381D01*
X8104333Y-17370381D02*
X8094810Y-17332286D01*
X8094810Y-17332286D02*
X8094810Y-17284667D01*
X8094810Y-17284667D02*
X8104333Y-17246571D01*
X8104333Y-17246571D02*
X8113857Y-17227524D01*
X8113857Y-17227524D02*
X8123381Y-17218000D01*
X8123381Y-17218000D02*
X8142429Y-17208476D01*
X8380524Y-17275143D02*
X8380524Y-17408476D01*
X8332905Y-17198952D02*
X8285286Y-17341810D01*
X8285286Y-17341810D02*
X8409095Y-17341810D01*
X8466238Y-17208476D02*
X8599572Y-17208476D01*
X8599572Y-17208476D02*
X8513857Y-17408476D01*
X8666238Y-17227524D02*
X8675762Y-17218000D01*
X8675762Y-17218000D02*
X8694810Y-17208476D01*
X8694810Y-17208476D02*
X8742429Y-17208476D01*
X8742429Y-17208476D02*
X8761476Y-17218000D01*
X8761476Y-17218000D02*
X8771000Y-17227524D01*
X8771000Y-17227524D02*
X8780524Y-17246571D01*
X8780524Y-17246571D02*
X8780524Y-17265619D01*
X8780524Y-17265619D02*
X8771000Y-17294190D01*
X8771000Y-17294190D02*
X8656714Y-17408476D01*
X8656714Y-17408476D02*
X8780524Y-17408476D01*
X8856714Y-17208476D02*
X8856714Y-17246571D01*
X8932905Y-17208476D02*
X8932905Y-17246571D01*
X9195762Y-17484667D02*
X9186238Y-17475143D01*
X9186238Y-17475143D02*
X9167191Y-17446571D01*
X9167191Y-17446571D02*
X9157667Y-17427524D01*
X9157667Y-17427524D02*
X9148143Y-17398952D01*
X9148143Y-17398952D02*
X9138619Y-17351333D01*
X9138619Y-17351333D02*
X9138619Y-17313238D01*
X9138619Y-17313238D02*
X9148143Y-17265619D01*
X9148143Y-17265619D02*
X9157667Y-17237048D01*
X9157667Y-17237048D02*
X9167191Y-17218000D01*
X9167191Y-17218000D02*
X9186238Y-17189429D01*
X9186238Y-17189429D02*
X9195762Y-17179905D01*
X9262429Y-17227524D02*
X9271953Y-17218000D01*
X9271953Y-17218000D02*
X9291000Y-17208476D01*
X9291000Y-17208476D02*
X9338619Y-17208476D01*
X9338619Y-17208476D02*
X9357667Y-17218000D01*
X9357667Y-17218000D02*
X9367191Y-17227524D01*
X9367191Y-17227524D02*
X9376714Y-17246571D01*
X9376714Y-17246571D02*
X9376714Y-17265619D01*
X9376714Y-17265619D02*
X9367191Y-17294190D01*
X9367191Y-17294190D02*
X9252905Y-17408476D01*
X9252905Y-17408476D02*
X9376714Y-17408476D01*
X9567191Y-17408476D02*
X9452905Y-17408476D01*
X9510048Y-17408476D02*
X9510048Y-17208476D01*
X9510048Y-17208476D02*
X9491000Y-17237048D01*
X9491000Y-17237048D02*
X9471953Y-17256095D01*
X9471953Y-17256095D02*
X9452905Y-17265619D01*
X9772905Y-17408476D02*
X9772905Y-17208476D01*
X9858619Y-17408476D02*
X9858619Y-17303714D01*
X9858619Y-17303714D02*
X9849095Y-17284667D01*
X9849095Y-17284667D02*
X9830048Y-17275143D01*
X9830048Y-17275143D02*
X9801476Y-17275143D01*
X9801476Y-17275143D02*
X9782429Y-17284667D01*
X9782429Y-17284667D02*
X9772905Y-17294190D01*
X9982429Y-17408476D02*
X9963381Y-17398952D01*
X9963381Y-17398952D02*
X9953857Y-17389429D01*
X9953857Y-17389429D02*
X9944334Y-17370381D01*
X9944334Y-17370381D02*
X9944334Y-17313238D01*
X9944334Y-17313238D02*
X9953857Y-17294190D01*
X9953857Y-17294190D02*
X9963381Y-17284667D01*
X9963381Y-17284667D02*
X9982429Y-17275143D01*
X9982429Y-17275143D02*
X10011000Y-17275143D01*
X10011000Y-17275143D02*
X10030048Y-17284667D01*
X10030048Y-17284667D02*
X10039572Y-17294190D01*
X10039572Y-17294190D02*
X10049095Y-17313238D01*
X10049095Y-17313238D02*
X10049095Y-17370381D01*
X10049095Y-17370381D02*
X10039572Y-17389429D01*
X10039572Y-17389429D02*
X10030048Y-17398952D01*
X10030048Y-17398952D02*
X10011000Y-17408476D01*
X10011000Y-17408476D02*
X9982429Y-17408476D01*
X10163381Y-17408476D02*
X10144334Y-17398952D01*
X10144334Y-17398952D02*
X10134810Y-17379905D01*
X10134810Y-17379905D02*
X10134810Y-17208476D01*
X10315762Y-17398952D02*
X10296715Y-17408476D01*
X10296715Y-17408476D02*
X10258619Y-17408476D01*
X10258619Y-17408476D02*
X10239572Y-17398952D01*
X10239572Y-17398952D02*
X10230048Y-17379905D01*
X10230048Y-17379905D02*
X10230048Y-17303714D01*
X10230048Y-17303714D02*
X10239572Y-17284667D01*
X10239572Y-17284667D02*
X10258619Y-17275143D01*
X10258619Y-17275143D02*
X10296715Y-17275143D01*
X10296715Y-17275143D02*
X10315762Y-17284667D01*
X10315762Y-17284667D02*
X10325286Y-17303714D01*
X10325286Y-17303714D02*
X10325286Y-17322762D01*
X10325286Y-17322762D02*
X10230048Y-17341810D01*
X10401476Y-17398952D02*
X10420524Y-17408476D01*
X10420524Y-17408476D02*
X10458619Y-17408476D01*
X10458619Y-17408476D02*
X10477667Y-17398952D01*
X10477667Y-17398952D02*
X10487191Y-17379905D01*
X10487191Y-17379905D02*
X10487191Y-17370381D01*
X10487191Y-17370381D02*
X10477667Y-17351333D01*
X10477667Y-17351333D02*
X10458619Y-17341810D01*
X10458619Y-17341810D02*
X10430048Y-17341810D01*
X10430048Y-17341810D02*
X10411000Y-17332286D01*
X10411000Y-17332286D02*
X10401476Y-17313238D01*
X10401476Y-17313238D02*
X10401476Y-17303714D01*
X10401476Y-17303714D02*
X10411000Y-17284667D01*
X10411000Y-17284667D02*
X10430048Y-17275143D01*
X10430048Y-17275143D02*
X10458619Y-17275143D01*
X10458619Y-17275143D02*
X10477667Y-17284667D01*
X10553857Y-17484667D02*
X10563381Y-17475143D01*
X10563381Y-17475143D02*
X10582429Y-17446571D01*
X10582429Y-17446571D02*
X10591953Y-17427524D01*
X10591953Y-17427524D02*
X10601476Y-17398952D01*
X10601476Y-17398952D02*
X10611000Y-17351333D01*
X10611000Y-17351333D02*
X10611000Y-17313238D01*
X10611000Y-17313238D02*
X10601476Y-17265619D01*
X10601476Y-17265619D02*
X10591953Y-17237048D01*
X10591953Y-17237048D02*
X10582429Y-17218000D01*
X10582429Y-17218000D02*
X10563381Y-17189429D01*
X10563381Y-17189429D02*
X10553857Y-17179905D01*
X10883381Y-17484667D02*
X10873857Y-17475143D01*
X10873857Y-17475143D02*
X10854810Y-17446571D01*
X10854810Y-17446571D02*
X10845286Y-17427524D01*
X10845286Y-17427524D02*
X10835762Y-17398952D01*
X10835762Y-17398952D02*
X10826238Y-17351333D01*
X10826238Y-17351333D02*
X10826238Y-17313238D01*
X10826238Y-17313238D02*
X10835762Y-17265619D01*
X10835762Y-17265619D02*
X10845286Y-17237048D01*
X10845286Y-17237048D02*
X10854810Y-17218000D01*
X10854810Y-17218000D02*
X10873857Y-17189429D01*
X10873857Y-17189429D02*
X10883381Y-17179905D01*
X10959572Y-17275143D02*
X10959572Y-17408476D01*
X10959572Y-17294190D02*
X10969095Y-17284667D01*
X10969095Y-17284667D02*
X10988143Y-17275143D01*
X10988143Y-17275143D02*
X11016715Y-17275143D01*
X11016715Y-17275143D02*
X11035762Y-17284667D01*
X11035762Y-17284667D02*
X11045286Y-17303714D01*
X11045286Y-17303714D02*
X11045286Y-17408476D01*
X11169095Y-17408476D02*
X11150048Y-17398952D01*
X11150048Y-17398952D02*
X11140524Y-17389429D01*
X11140524Y-17389429D02*
X11131000Y-17370381D01*
X11131000Y-17370381D02*
X11131000Y-17313238D01*
X11131000Y-17313238D02*
X11140524Y-17294190D01*
X11140524Y-17294190D02*
X11150048Y-17284667D01*
X11150048Y-17284667D02*
X11169095Y-17275143D01*
X11169095Y-17275143D02*
X11197667Y-17275143D01*
X11197667Y-17275143D02*
X11216714Y-17284667D01*
X11216714Y-17284667D02*
X11226238Y-17294190D01*
X11226238Y-17294190D02*
X11235762Y-17313238D01*
X11235762Y-17313238D02*
X11235762Y-17370381D01*
X11235762Y-17370381D02*
X11226238Y-17389429D01*
X11226238Y-17389429D02*
X11216714Y-17398952D01*
X11216714Y-17398952D02*
X11197667Y-17408476D01*
X11197667Y-17408476D02*
X11169095Y-17408476D01*
X11292905Y-17275143D02*
X11369095Y-17275143D01*
X11321476Y-17208476D02*
X11321476Y-17379905D01*
X11321476Y-17379905D02*
X11331000Y-17398952D01*
X11331000Y-17398952D02*
X11350048Y-17408476D01*
X11350048Y-17408476D02*
X11369095Y-17408476D01*
X11555762Y-17275143D02*
X11555762Y-17475143D01*
X11555762Y-17284667D02*
X11574810Y-17275143D01*
X11574810Y-17275143D02*
X11612905Y-17275143D01*
X11612905Y-17275143D02*
X11631953Y-17284667D01*
X11631953Y-17284667D02*
X11641476Y-17294190D01*
X11641476Y-17294190D02*
X11651000Y-17313238D01*
X11651000Y-17313238D02*
X11651000Y-17370381D01*
X11651000Y-17370381D02*
X11641476Y-17389429D01*
X11641476Y-17389429D02*
X11631953Y-17398952D01*
X11631953Y-17398952D02*
X11612905Y-17408476D01*
X11612905Y-17408476D02*
X11574810Y-17408476D01*
X11574810Y-17408476D02*
X11555762Y-17398952D01*
X11765286Y-17408476D02*
X11746238Y-17398952D01*
X11746238Y-17398952D02*
X11736714Y-17379905D01*
X11736714Y-17379905D02*
X11736714Y-17208476D01*
X11927191Y-17408476D02*
X11927191Y-17303714D01*
X11927191Y-17303714D02*
X11917667Y-17284667D01*
X11917667Y-17284667D02*
X11898619Y-17275143D01*
X11898619Y-17275143D02*
X11860524Y-17275143D01*
X11860524Y-17275143D02*
X11841476Y-17284667D01*
X11927191Y-17398952D02*
X11908143Y-17408476D01*
X11908143Y-17408476D02*
X11860524Y-17408476D01*
X11860524Y-17408476D02*
X11841476Y-17398952D01*
X11841476Y-17398952D02*
X11831953Y-17379905D01*
X11831953Y-17379905D02*
X11831953Y-17360857D01*
X11831953Y-17360857D02*
X11841476Y-17341810D01*
X11841476Y-17341810D02*
X11860524Y-17332286D01*
X11860524Y-17332286D02*
X11908143Y-17332286D01*
X11908143Y-17332286D02*
X11927191Y-17322762D01*
X11993857Y-17275143D02*
X12070048Y-17275143D01*
X12022429Y-17208476D02*
X12022429Y-17379905D01*
X12022429Y-17379905D02*
X12031953Y-17398952D01*
X12031953Y-17398952D02*
X12051000Y-17408476D01*
X12051000Y-17408476D02*
X12070048Y-17408476D01*
X12212905Y-17398952D02*
X12193857Y-17408476D01*
X12193857Y-17408476D02*
X12155762Y-17408476D01*
X12155762Y-17408476D02*
X12136714Y-17398952D01*
X12136714Y-17398952D02*
X12127191Y-17379905D01*
X12127191Y-17379905D02*
X12127191Y-17303714D01*
X12127191Y-17303714D02*
X12136714Y-17284667D01*
X12136714Y-17284667D02*
X12155762Y-17275143D01*
X12155762Y-17275143D02*
X12193857Y-17275143D01*
X12193857Y-17275143D02*
X12212905Y-17284667D01*
X12212905Y-17284667D02*
X12222429Y-17303714D01*
X12222429Y-17303714D02*
X12222429Y-17322762D01*
X12222429Y-17322762D02*
X12127191Y-17341810D01*
X12393857Y-17408476D02*
X12393857Y-17208476D01*
X12393857Y-17398952D02*
X12374810Y-17408476D01*
X12374810Y-17408476D02*
X12336714Y-17408476D01*
X12336714Y-17408476D02*
X12317667Y-17398952D01*
X12317667Y-17398952D02*
X12308143Y-17389429D01*
X12308143Y-17389429D02*
X12298619Y-17370381D01*
X12298619Y-17370381D02*
X12298619Y-17313238D01*
X12298619Y-17313238D02*
X12308143Y-17294190D01*
X12308143Y-17294190D02*
X12317667Y-17284667D01*
X12317667Y-17284667D02*
X12336714Y-17275143D01*
X12336714Y-17275143D02*
X12374810Y-17275143D01*
X12374810Y-17275143D02*
X12393857Y-17284667D01*
X12470048Y-17484667D02*
X12479572Y-17475143D01*
X12479572Y-17475143D02*
X12498619Y-17446571D01*
X12498619Y-17446571D02*
X12508143Y-17427524D01*
X12508143Y-17427524D02*
X12517667Y-17398952D01*
X12517667Y-17398952D02*
X12527191Y-17351333D01*
X12527191Y-17351333D02*
X12527191Y-17313238D01*
X12527191Y-17313238D02*
X12517667Y-17265619D01*
X12517667Y-17265619D02*
X12508143Y-17237048D01*
X12508143Y-17237048D02*
X12498619Y-17218000D01*
X12498619Y-17218000D02*
X12479572Y-17189429D01*
X12479572Y-17189429D02*
X12470048Y-17179905D01*
D15*
X5706105Y-17659105D02*
X5706105Y-17538895D01*
X5585895Y-17538895D01*
X5585895Y-17659105D01*
X5706105Y-17659105D01*
D11*
X6083381Y-17672476D02*
X5969095Y-17672476D01*
X6026238Y-17672476D02*
X6026238Y-17472476D01*
X6026238Y-17472476D02*
X6007190Y-17501048D01*
X6007190Y-17501048D02*
X5988143Y-17520095D01*
X5988143Y-17520095D02*
X5969095Y-17529619D01*
X6169095Y-17653429D02*
X6178619Y-17662952D01*
X6178619Y-17662952D02*
X6169095Y-17672476D01*
X6169095Y-17672476D02*
X6159571Y-17662952D01*
X6159571Y-17662952D02*
X6169095Y-17653429D01*
X6169095Y-17653429D02*
X6169095Y-17672476D01*
X6245286Y-17472476D02*
X6378619Y-17472476D01*
X6378619Y-17472476D02*
X6292905Y-17672476D01*
X6492905Y-17472476D02*
X6511952Y-17472476D01*
X6511952Y-17472476D02*
X6531000Y-17482000D01*
X6531000Y-17482000D02*
X6540524Y-17491524D01*
X6540524Y-17491524D02*
X6550048Y-17510571D01*
X6550048Y-17510571D02*
X6559571Y-17548667D01*
X6559571Y-17548667D02*
X6559571Y-17596286D01*
X6559571Y-17596286D02*
X6550048Y-17634381D01*
X6550048Y-17634381D02*
X6540524Y-17653429D01*
X6540524Y-17653429D02*
X6531000Y-17662952D01*
X6531000Y-17662952D02*
X6511952Y-17672476D01*
X6511952Y-17672476D02*
X6492905Y-17672476D01*
X6492905Y-17672476D02*
X6473857Y-17662952D01*
X6473857Y-17662952D02*
X6464333Y-17653429D01*
X6464333Y-17653429D02*
X6454809Y-17634381D01*
X6454809Y-17634381D02*
X6445286Y-17596286D01*
X6445286Y-17596286D02*
X6445286Y-17548667D01*
X6445286Y-17548667D02*
X6454809Y-17510571D01*
X6454809Y-17510571D02*
X6464333Y-17491524D01*
X6464333Y-17491524D02*
X6473857Y-17482000D01*
X6473857Y-17482000D02*
X6492905Y-17472476D01*
X6683381Y-17472476D02*
X6702429Y-17472476D01*
X6702429Y-17472476D02*
X6721476Y-17482000D01*
X6721476Y-17482000D02*
X6731000Y-17491524D01*
X6731000Y-17491524D02*
X6740524Y-17510571D01*
X6740524Y-17510571D02*
X6750048Y-17548667D01*
X6750048Y-17548667D02*
X6750048Y-17596286D01*
X6750048Y-17596286D02*
X6740524Y-17634381D01*
X6740524Y-17634381D02*
X6731000Y-17653429D01*
X6731000Y-17653429D02*
X6721476Y-17662952D01*
X6721476Y-17662952D02*
X6702429Y-17672476D01*
X6702429Y-17672476D02*
X6683381Y-17672476D01*
X6683381Y-17672476D02*
X6664333Y-17662952D01*
X6664333Y-17662952D02*
X6654809Y-17653429D01*
X6654809Y-17653429D02*
X6645286Y-17634381D01*
X6645286Y-17634381D02*
X6635762Y-17596286D01*
X6635762Y-17596286D02*
X6635762Y-17548667D01*
X6635762Y-17548667D02*
X6645286Y-17510571D01*
X6645286Y-17510571D02*
X6654809Y-17491524D01*
X6654809Y-17491524D02*
X6664333Y-17482000D01*
X6664333Y-17482000D02*
X6683381Y-17472476D01*
X6835762Y-17672476D02*
X6835762Y-17539143D01*
X6835762Y-17558190D02*
X6845286Y-17548667D01*
X6845286Y-17548667D02*
X6864333Y-17539143D01*
X6864333Y-17539143D02*
X6892905Y-17539143D01*
X6892905Y-17539143D02*
X6911952Y-17548667D01*
X6911952Y-17548667D02*
X6921476Y-17567714D01*
X6921476Y-17567714D02*
X6921476Y-17672476D01*
X6921476Y-17567714D02*
X6931000Y-17548667D01*
X6931000Y-17548667D02*
X6950048Y-17539143D01*
X6950048Y-17539143D02*
X6978619Y-17539143D01*
X6978619Y-17539143D02*
X6997667Y-17548667D01*
X6997667Y-17548667D02*
X7007190Y-17567714D01*
X7007190Y-17567714D02*
X7007190Y-17672476D01*
X7102429Y-17672476D02*
X7102429Y-17539143D01*
X7102429Y-17558190D02*
X7111952Y-17548667D01*
X7111952Y-17548667D02*
X7131000Y-17539143D01*
X7131000Y-17539143D02*
X7159571Y-17539143D01*
X7159571Y-17539143D02*
X7178619Y-17548667D01*
X7178619Y-17548667D02*
X7188143Y-17567714D01*
X7188143Y-17567714D02*
X7188143Y-17672476D01*
X7188143Y-17567714D02*
X7197667Y-17548667D01*
X7197667Y-17548667D02*
X7216714Y-17539143D01*
X7216714Y-17539143D02*
X7245286Y-17539143D01*
X7245286Y-17539143D02*
X7264333Y-17548667D01*
X7264333Y-17548667D02*
X7273857Y-17567714D01*
X7273857Y-17567714D02*
X7273857Y-17672476D01*
X7631952Y-17462952D02*
X7460524Y-17720095D01*
X7856714Y-17472476D02*
X7875762Y-17472476D01*
X7875762Y-17472476D02*
X7894810Y-17482000D01*
X7894810Y-17482000D02*
X7904333Y-17491524D01*
X7904333Y-17491524D02*
X7913857Y-17510571D01*
X7913857Y-17510571D02*
X7923381Y-17548667D01*
X7923381Y-17548667D02*
X7923381Y-17596286D01*
X7923381Y-17596286D02*
X7913857Y-17634381D01*
X7913857Y-17634381D02*
X7904333Y-17653429D01*
X7904333Y-17653429D02*
X7894810Y-17662952D01*
X7894810Y-17662952D02*
X7875762Y-17672476D01*
X7875762Y-17672476D02*
X7856714Y-17672476D01*
X7856714Y-17672476D02*
X7837667Y-17662952D01*
X7837667Y-17662952D02*
X7828143Y-17653429D01*
X7828143Y-17653429D02*
X7818619Y-17634381D01*
X7818619Y-17634381D02*
X7809095Y-17596286D01*
X7809095Y-17596286D02*
X7809095Y-17548667D01*
X7809095Y-17548667D02*
X7818619Y-17510571D01*
X7818619Y-17510571D02*
X7828143Y-17491524D01*
X7828143Y-17491524D02*
X7837667Y-17482000D01*
X7837667Y-17482000D02*
X7856714Y-17472476D01*
X8009095Y-17653429D02*
X8018619Y-17662952D01*
X8018619Y-17662952D02*
X8009095Y-17672476D01*
X8009095Y-17672476D02*
X7999571Y-17662952D01*
X7999571Y-17662952D02*
X8009095Y-17653429D01*
X8009095Y-17653429D02*
X8009095Y-17672476D01*
X8142429Y-17472476D02*
X8161476Y-17472476D01*
X8161476Y-17472476D02*
X8180524Y-17482000D01*
X8180524Y-17482000D02*
X8190048Y-17491524D01*
X8190048Y-17491524D02*
X8199571Y-17510571D01*
X8199571Y-17510571D02*
X8209095Y-17548667D01*
X8209095Y-17548667D02*
X8209095Y-17596286D01*
X8209095Y-17596286D02*
X8199571Y-17634381D01*
X8199571Y-17634381D02*
X8190048Y-17653429D01*
X8190048Y-17653429D02*
X8180524Y-17662952D01*
X8180524Y-17662952D02*
X8161476Y-17672476D01*
X8161476Y-17672476D02*
X8142429Y-17672476D01*
X8142429Y-17672476D02*
X8123381Y-17662952D01*
X8123381Y-17662952D02*
X8113857Y-17653429D01*
X8113857Y-17653429D02*
X8104333Y-17634381D01*
X8104333Y-17634381D02*
X8094810Y-17596286D01*
X8094810Y-17596286D02*
X8094810Y-17548667D01*
X8094810Y-17548667D02*
X8104333Y-17510571D01*
X8104333Y-17510571D02*
X8113857Y-17491524D01*
X8113857Y-17491524D02*
X8123381Y-17482000D01*
X8123381Y-17482000D02*
X8142429Y-17472476D01*
X8380524Y-17472476D02*
X8342429Y-17472476D01*
X8342429Y-17472476D02*
X8323381Y-17482000D01*
X8323381Y-17482000D02*
X8313857Y-17491524D01*
X8313857Y-17491524D02*
X8294810Y-17520095D01*
X8294810Y-17520095D02*
X8285286Y-17558190D01*
X8285286Y-17558190D02*
X8285286Y-17634381D01*
X8285286Y-17634381D02*
X8294810Y-17653429D01*
X8294810Y-17653429D02*
X8304333Y-17662952D01*
X8304333Y-17662952D02*
X8323381Y-17672476D01*
X8323381Y-17672476D02*
X8361476Y-17672476D01*
X8361476Y-17672476D02*
X8380524Y-17662952D01*
X8380524Y-17662952D02*
X8390048Y-17653429D01*
X8390048Y-17653429D02*
X8399572Y-17634381D01*
X8399572Y-17634381D02*
X8399572Y-17586762D01*
X8399572Y-17586762D02*
X8390048Y-17567714D01*
X8390048Y-17567714D02*
X8380524Y-17558190D01*
X8380524Y-17558190D02*
X8361476Y-17548667D01*
X8361476Y-17548667D02*
X8323381Y-17548667D01*
X8323381Y-17548667D02*
X8304333Y-17558190D01*
X8304333Y-17558190D02*
X8294810Y-17567714D01*
X8294810Y-17567714D02*
X8285286Y-17586762D01*
X8571000Y-17472476D02*
X8532905Y-17472476D01*
X8532905Y-17472476D02*
X8513857Y-17482000D01*
X8513857Y-17482000D02*
X8504333Y-17491524D01*
X8504333Y-17491524D02*
X8485286Y-17520095D01*
X8485286Y-17520095D02*
X8475762Y-17558190D01*
X8475762Y-17558190D02*
X8475762Y-17634381D01*
X8475762Y-17634381D02*
X8485286Y-17653429D01*
X8485286Y-17653429D02*
X8494810Y-17662952D01*
X8494810Y-17662952D02*
X8513857Y-17672476D01*
X8513857Y-17672476D02*
X8551953Y-17672476D01*
X8551953Y-17672476D02*
X8571000Y-17662952D01*
X8571000Y-17662952D02*
X8580524Y-17653429D01*
X8580524Y-17653429D02*
X8590048Y-17634381D01*
X8590048Y-17634381D02*
X8590048Y-17586762D01*
X8590048Y-17586762D02*
X8580524Y-17567714D01*
X8580524Y-17567714D02*
X8571000Y-17558190D01*
X8571000Y-17558190D02*
X8551953Y-17548667D01*
X8551953Y-17548667D02*
X8513857Y-17548667D01*
X8513857Y-17548667D02*
X8494810Y-17558190D01*
X8494810Y-17558190D02*
X8485286Y-17567714D01*
X8485286Y-17567714D02*
X8475762Y-17586762D01*
X8685286Y-17672476D02*
X8723381Y-17672476D01*
X8723381Y-17672476D02*
X8742429Y-17662952D01*
X8742429Y-17662952D02*
X8751953Y-17653429D01*
X8751953Y-17653429D02*
X8771000Y-17624857D01*
X8771000Y-17624857D02*
X8780524Y-17586762D01*
X8780524Y-17586762D02*
X8780524Y-17510571D01*
X8780524Y-17510571D02*
X8771000Y-17491524D01*
X8771000Y-17491524D02*
X8761476Y-17482000D01*
X8761476Y-17482000D02*
X8742429Y-17472476D01*
X8742429Y-17472476D02*
X8704333Y-17472476D01*
X8704333Y-17472476D02*
X8685286Y-17482000D01*
X8685286Y-17482000D02*
X8675762Y-17491524D01*
X8675762Y-17491524D02*
X8666238Y-17510571D01*
X8666238Y-17510571D02*
X8666238Y-17558190D01*
X8666238Y-17558190D02*
X8675762Y-17577238D01*
X8675762Y-17577238D02*
X8685286Y-17586762D01*
X8685286Y-17586762D02*
X8704333Y-17596286D01*
X8704333Y-17596286D02*
X8742429Y-17596286D01*
X8742429Y-17596286D02*
X8761476Y-17586762D01*
X8761476Y-17586762D02*
X8771000Y-17577238D01*
X8771000Y-17577238D02*
X8780524Y-17558190D01*
X8856714Y-17472476D02*
X8856714Y-17510571D01*
X8932905Y-17472476D02*
X8932905Y-17510571D01*
X9195762Y-17748667D02*
X9186238Y-17739143D01*
X9186238Y-17739143D02*
X9167191Y-17710571D01*
X9167191Y-17710571D02*
X9157667Y-17691524D01*
X9157667Y-17691524D02*
X9148143Y-17662952D01*
X9148143Y-17662952D02*
X9138619Y-17615333D01*
X9138619Y-17615333D02*
X9138619Y-17577238D01*
X9138619Y-17577238D02*
X9148143Y-17529619D01*
X9148143Y-17529619D02*
X9157667Y-17501048D01*
X9157667Y-17501048D02*
X9167191Y-17482000D01*
X9167191Y-17482000D02*
X9186238Y-17453429D01*
X9186238Y-17453429D02*
X9195762Y-17443905D01*
X9357667Y-17539143D02*
X9357667Y-17672476D01*
X9310048Y-17462952D02*
X9262429Y-17605810D01*
X9262429Y-17605810D02*
X9386238Y-17605810D01*
X9452905Y-17491524D02*
X9462429Y-17482000D01*
X9462429Y-17482000D02*
X9481476Y-17472476D01*
X9481476Y-17472476D02*
X9529095Y-17472476D01*
X9529095Y-17472476D02*
X9548143Y-17482000D01*
X9548143Y-17482000D02*
X9557667Y-17491524D01*
X9557667Y-17491524D02*
X9567191Y-17510571D01*
X9567191Y-17510571D02*
X9567191Y-17529619D01*
X9567191Y-17529619D02*
X9557667Y-17558190D01*
X9557667Y-17558190D02*
X9443381Y-17672476D01*
X9443381Y-17672476D02*
X9567191Y-17672476D01*
X9772905Y-17672476D02*
X9772905Y-17472476D01*
X9858619Y-17672476D02*
X9858619Y-17567714D01*
X9858619Y-17567714D02*
X9849095Y-17548667D01*
X9849095Y-17548667D02*
X9830048Y-17539143D01*
X9830048Y-17539143D02*
X9801476Y-17539143D01*
X9801476Y-17539143D02*
X9782429Y-17548667D01*
X9782429Y-17548667D02*
X9772905Y-17558190D01*
X9982429Y-17672476D02*
X9963381Y-17662952D01*
X9963381Y-17662952D02*
X9953857Y-17653429D01*
X9953857Y-17653429D02*
X9944334Y-17634381D01*
X9944334Y-17634381D02*
X9944334Y-17577238D01*
X9944334Y-17577238D02*
X9953857Y-17558190D01*
X9953857Y-17558190D02*
X9963381Y-17548667D01*
X9963381Y-17548667D02*
X9982429Y-17539143D01*
X9982429Y-17539143D02*
X10011000Y-17539143D01*
X10011000Y-17539143D02*
X10030048Y-17548667D01*
X10030048Y-17548667D02*
X10039572Y-17558190D01*
X10039572Y-17558190D02*
X10049095Y-17577238D01*
X10049095Y-17577238D02*
X10049095Y-17634381D01*
X10049095Y-17634381D02*
X10039572Y-17653429D01*
X10039572Y-17653429D02*
X10030048Y-17662952D01*
X10030048Y-17662952D02*
X10011000Y-17672476D01*
X10011000Y-17672476D02*
X9982429Y-17672476D01*
X10163381Y-17672476D02*
X10144334Y-17662952D01*
X10144334Y-17662952D02*
X10134810Y-17643905D01*
X10134810Y-17643905D02*
X10134810Y-17472476D01*
X10315762Y-17662952D02*
X10296715Y-17672476D01*
X10296715Y-17672476D02*
X10258619Y-17672476D01*
X10258619Y-17672476D02*
X10239572Y-17662952D01*
X10239572Y-17662952D02*
X10230048Y-17643905D01*
X10230048Y-17643905D02*
X10230048Y-17567714D01*
X10230048Y-17567714D02*
X10239572Y-17548667D01*
X10239572Y-17548667D02*
X10258619Y-17539143D01*
X10258619Y-17539143D02*
X10296715Y-17539143D01*
X10296715Y-17539143D02*
X10315762Y-17548667D01*
X10315762Y-17548667D02*
X10325286Y-17567714D01*
X10325286Y-17567714D02*
X10325286Y-17586762D01*
X10325286Y-17586762D02*
X10230048Y-17605810D01*
X10401476Y-17662952D02*
X10420524Y-17672476D01*
X10420524Y-17672476D02*
X10458619Y-17672476D01*
X10458619Y-17672476D02*
X10477667Y-17662952D01*
X10477667Y-17662952D02*
X10487191Y-17643905D01*
X10487191Y-17643905D02*
X10487191Y-17634381D01*
X10487191Y-17634381D02*
X10477667Y-17615333D01*
X10477667Y-17615333D02*
X10458619Y-17605810D01*
X10458619Y-17605810D02*
X10430048Y-17605810D01*
X10430048Y-17605810D02*
X10411000Y-17596286D01*
X10411000Y-17596286D02*
X10401476Y-17577238D01*
X10401476Y-17577238D02*
X10401476Y-17567714D01*
X10401476Y-17567714D02*
X10411000Y-17548667D01*
X10411000Y-17548667D02*
X10430048Y-17539143D01*
X10430048Y-17539143D02*
X10458619Y-17539143D01*
X10458619Y-17539143D02*
X10477667Y-17548667D01*
X10553857Y-17748667D02*
X10563381Y-17739143D01*
X10563381Y-17739143D02*
X10582429Y-17710571D01*
X10582429Y-17710571D02*
X10591953Y-17691524D01*
X10591953Y-17691524D02*
X10601476Y-17662952D01*
X10601476Y-17662952D02*
X10611000Y-17615333D01*
X10611000Y-17615333D02*
X10611000Y-17577238D01*
X10611000Y-17577238D02*
X10601476Y-17529619D01*
X10601476Y-17529619D02*
X10591953Y-17501048D01*
X10591953Y-17501048D02*
X10582429Y-17482000D01*
X10582429Y-17482000D02*
X10563381Y-17453429D01*
X10563381Y-17453429D02*
X10553857Y-17443905D01*
X10883381Y-17748667D02*
X10873857Y-17739143D01*
X10873857Y-17739143D02*
X10854810Y-17710571D01*
X10854810Y-17710571D02*
X10845286Y-17691524D01*
X10845286Y-17691524D02*
X10835762Y-17662952D01*
X10835762Y-17662952D02*
X10826238Y-17615333D01*
X10826238Y-17615333D02*
X10826238Y-17577238D01*
X10826238Y-17577238D02*
X10835762Y-17529619D01*
X10835762Y-17529619D02*
X10845286Y-17501048D01*
X10845286Y-17501048D02*
X10854810Y-17482000D01*
X10854810Y-17482000D02*
X10873857Y-17453429D01*
X10873857Y-17453429D02*
X10883381Y-17443905D01*
X10959572Y-17539143D02*
X10959572Y-17672476D01*
X10959572Y-17558190D02*
X10969095Y-17548667D01*
X10969095Y-17548667D02*
X10988143Y-17539143D01*
X10988143Y-17539143D02*
X11016715Y-17539143D01*
X11016715Y-17539143D02*
X11035762Y-17548667D01*
X11035762Y-17548667D02*
X11045286Y-17567714D01*
X11045286Y-17567714D02*
X11045286Y-17672476D01*
X11169095Y-17672476D02*
X11150048Y-17662952D01*
X11150048Y-17662952D02*
X11140524Y-17653429D01*
X11140524Y-17653429D02*
X11131000Y-17634381D01*
X11131000Y-17634381D02*
X11131000Y-17577238D01*
X11131000Y-17577238D02*
X11140524Y-17558190D01*
X11140524Y-17558190D02*
X11150048Y-17548667D01*
X11150048Y-17548667D02*
X11169095Y-17539143D01*
X11169095Y-17539143D02*
X11197667Y-17539143D01*
X11197667Y-17539143D02*
X11216714Y-17548667D01*
X11216714Y-17548667D02*
X11226238Y-17558190D01*
X11226238Y-17558190D02*
X11235762Y-17577238D01*
X11235762Y-17577238D02*
X11235762Y-17634381D01*
X11235762Y-17634381D02*
X11226238Y-17653429D01*
X11226238Y-17653429D02*
X11216714Y-17662952D01*
X11216714Y-17662952D02*
X11197667Y-17672476D01*
X11197667Y-17672476D02*
X11169095Y-17672476D01*
X11292905Y-17539143D02*
X11369095Y-17539143D01*
X11321476Y-17472476D02*
X11321476Y-17643905D01*
X11321476Y-17643905D02*
X11331000Y-17662952D01*
X11331000Y-17662952D02*
X11350048Y-17672476D01*
X11350048Y-17672476D02*
X11369095Y-17672476D01*
X11555762Y-17539143D02*
X11555762Y-17739143D01*
X11555762Y-17548667D02*
X11574810Y-17539143D01*
X11574810Y-17539143D02*
X11612905Y-17539143D01*
X11612905Y-17539143D02*
X11631953Y-17548667D01*
X11631953Y-17548667D02*
X11641476Y-17558190D01*
X11641476Y-17558190D02*
X11651000Y-17577238D01*
X11651000Y-17577238D02*
X11651000Y-17634381D01*
X11651000Y-17634381D02*
X11641476Y-17653429D01*
X11641476Y-17653429D02*
X11631953Y-17662952D01*
X11631953Y-17662952D02*
X11612905Y-17672476D01*
X11612905Y-17672476D02*
X11574810Y-17672476D01*
X11574810Y-17672476D02*
X11555762Y-17662952D01*
X11765286Y-17672476D02*
X11746238Y-17662952D01*
X11746238Y-17662952D02*
X11736714Y-17643905D01*
X11736714Y-17643905D02*
X11736714Y-17472476D01*
X11927191Y-17672476D02*
X11927191Y-17567714D01*
X11927191Y-17567714D02*
X11917667Y-17548667D01*
X11917667Y-17548667D02*
X11898619Y-17539143D01*
X11898619Y-17539143D02*
X11860524Y-17539143D01*
X11860524Y-17539143D02*
X11841476Y-17548667D01*
X11927191Y-17662952D02*
X11908143Y-17672476D01*
X11908143Y-17672476D02*
X11860524Y-17672476D01*
X11860524Y-17672476D02*
X11841476Y-17662952D01*
X11841476Y-17662952D02*
X11831953Y-17643905D01*
X11831953Y-17643905D02*
X11831953Y-17624857D01*
X11831953Y-17624857D02*
X11841476Y-17605810D01*
X11841476Y-17605810D02*
X11860524Y-17596286D01*
X11860524Y-17596286D02*
X11908143Y-17596286D01*
X11908143Y-17596286D02*
X11927191Y-17586762D01*
X11993857Y-17539143D02*
X12070048Y-17539143D01*
X12022429Y-17472476D02*
X12022429Y-17643905D01*
X12022429Y-17643905D02*
X12031953Y-17662952D01*
X12031953Y-17662952D02*
X12051000Y-17672476D01*
X12051000Y-17672476D02*
X12070048Y-17672476D01*
X12212905Y-17662952D02*
X12193857Y-17672476D01*
X12193857Y-17672476D02*
X12155762Y-17672476D01*
X12155762Y-17672476D02*
X12136714Y-17662952D01*
X12136714Y-17662952D02*
X12127191Y-17643905D01*
X12127191Y-17643905D02*
X12127191Y-17567714D01*
X12127191Y-17567714D02*
X12136714Y-17548667D01*
X12136714Y-17548667D02*
X12155762Y-17539143D01*
X12155762Y-17539143D02*
X12193857Y-17539143D01*
X12193857Y-17539143D02*
X12212905Y-17548667D01*
X12212905Y-17548667D02*
X12222429Y-17567714D01*
X12222429Y-17567714D02*
X12222429Y-17586762D01*
X12222429Y-17586762D02*
X12127191Y-17605810D01*
X12393857Y-17672476D02*
X12393857Y-17472476D01*
X12393857Y-17662952D02*
X12374810Y-17672476D01*
X12374810Y-17672476D02*
X12336714Y-17672476D01*
X12336714Y-17672476D02*
X12317667Y-17662952D01*
X12317667Y-17662952D02*
X12308143Y-17653429D01*
X12308143Y-17653429D02*
X12298619Y-17634381D01*
X12298619Y-17634381D02*
X12298619Y-17577238D01*
X12298619Y-17577238D02*
X12308143Y-17558190D01*
X12308143Y-17558190D02*
X12317667Y-17548667D01*
X12317667Y-17548667D02*
X12336714Y-17539143D01*
X12336714Y-17539143D02*
X12374810Y-17539143D01*
X12374810Y-17539143D02*
X12393857Y-17548667D01*
X12470048Y-17748667D02*
X12479572Y-17739143D01*
X12479572Y-17739143D02*
X12498619Y-17710571D01*
X12498619Y-17710571D02*
X12508143Y-17691524D01*
X12508143Y-17691524D02*
X12517667Y-17662952D01*
X12517667Y-17662952D02*
X12527191Y-17615333D01*
X12527191Y-17615333D02*
X12527191Y-17577238D01*
X12527191Y-17577238D02*
X12517667Y-17529619D01*
X12517667Y-17529619D02*
X12508143Y-17501048D01*
X12508143Y-17501048D02*
X12498619Y-17482000D01*
X12498619Y-17482000D02*
X12479572Y-17453429D01*
X12479572Y-17453429D02*
X12470048Y-17443905D01*
X5631000Y-17989000D02*
X5731000Y-17889000D01*
X5631000Y-17789000D01*
X5531000Y-17889000D01*
X5631000Y-17989000D01*
X5959571Y-17762476D02*
X6083381Y-17762476D01*
X6083381Y-17762476D02*
X6016714Y-17838667D01*
X6016714Y-17838667D02*
X6045286Y-17838667D01*
X6045286Y-17838667D02*
X6064333Y-17848190D01*
X6064333Y-17848190D02*
X6073857Y-17857714D01*
X6073857Y-17857714D02*
X6083381Y-17876762D01*
X6083381Y-17876762D02*
X6083381Y-17924381D01*
X6083381Y-17924381D02*
X6073857Y-17943429D01*
X6073857Y-17943429D02*
X6064333Y-17952952D01*
X6064333Y-17952952D02*
X6045286Y-17962476D01*
X6045286Y-17962476D02*
X5988143Y-17962476D01*
X5988143Y-17962476D02*
X5969095Y-17952952D01*
X5969095Y-17952952D02*
X5959571Y-17943429D01*
X6169095Y-17943429D02*
X6178619Y-17952952D01*
X6178619Y-17952952D02*
X6169095Y-17962476D01*
X6169095Y-17962476D02*
X6159571Y-17952952D01*
X6159571Y-17952952D02*
X6169095Y-17943429D01*
X6169095Y-17943429D02*
X6169095Y-17962476D01*
X6350048Y-17829143D02*
X6350048Y-17962476D01*
X6302428Y-17752952D02*
X6254809Y-17895810D01*
X6254809Y-17895810D02*
X6378619Y-17895810D01*
X6492905Y-17762476D02*
X6511952Y-17762476D01*
X6511952Y-17762476D02*
X6531000Y-17772000D01*
X6531000Y-17772000D02*
X6540524Y-17781524D01*
X6540524Y-17781524D02*
X6550048Y-17800571D01*
X6550048Y-17800571D02*
X6559571Y-17838667D01*
X6559571Y-17838667D02*
X6559571Y-17886286D01*
X6559571Y-17886286D02*
X6550048Y-17924381D01*
X6550048Y-17924381D02*
X6540524Y-17943429D01*
X6540524Y-17943429D02*
X6531000Y-17952952D01*
X6531000Y-17952952D02*
X6511952Y-17962476D01*
X6511952Y-17962476D02*
X6492905Y-17962476D01*
X6492905Y-17962476D02*
X6473857Y-17952952D01*
X6473857Y-17952952D02*
X6464333Y-17943429D01*
X6464333Y-17943429D02*
X6454809Y-17924381D01*
X6454809Y-17924381D02*
X6445286Y-17886286D01*
X6445286Y-17886286D02*
X6445286Y-17838667D01*
X6445286Y-17838667D02*
X6454809Y-17800571D01*
X6454809Y-17800571D02*
X6464333Y-17781524D01*
X6464333Y-17781524D02*
X6473857Y-17772000D01*
X6473857Y-17772000D02*
X6492905Y-17762476D01*
X6683381Y-17762476D02*
X6702429Y-17762476D01*
X6702429Y-17762476D02*
X6721476Y-17772000D01*
X6721476Y-17772000D02*
X6731000Y-17781524D01*
X6731000Y-17781524D02*
X6740524Y-17800571D01*
X6740524Y-17800571D02*
X6750048Y-17838667D01*
X6750048Y-17838667D02*
X6750048Y-17886286D01*
X6750048Y-17886286D02*
X6740524Y-17924381D01*
X6740524Y-17924381D02*
X6731000Y-17943429D01*
X6731000Y-17943429D02*
X6721476Y-17952952D01*
X6721476Y-17952952D02*
X6702429Y-17962476D01*
X6702429Y-17962476D02*
X6683381Y-17962476D01*
X6683381Y-17962476D02*
X6664333Y-17952952D01*
X6664333Y-17952952D02*
X6654809Y-17943429D01*
X6654809Y-17943429D02*
X6645286Y-17924381D01*
X6645286Y-17924381D02*
X6635762Y-17886286D01*
X6635762Y-17886286D02*
X6635762Y-17838667D01*
X6635762Y-17838667D02*
X6645286Y-17800571D01*
X6645286Y-17800571D02*
X6654809Y-17781524D01*
X6654809Y-17781524D02*
X6664333Y-17772000D01*
X6664333Y-17772000D02*
X6683381Y-17762476D01*
X6835762Y-17962476D02*
X6835762Y-17829143D01*
X6835762Y-17848190D02*
X6845286Y-17838667D01*
X6845286Y-17838667D02*
X6864333Y-17829143D01*
X6864333Y-17829143D02*
X6892905Y-17829143D01*
X6892905Y-17829143D02*
X6911952Y-17838667D01*
X6911952Y-17838667D02*
X6921476Y-17857714D01*
X6921476Y-17857714D02*
X6921476Y-17962476D01*
X6921476Y-17857714D02*
X6931000Y-17838667D01*
X6931000Y-17838667D02*
X6950048Y-17829143D01*
X6950048Y-17829143D02*
X6978619Y-17829143D01*
X6978619Y-17829143D02*
X6997667Y-17838667D01*
X6997667Y-17838667D02*
X7007190Y-17857714D01*
X7007190Y-17857714D02*
X7007190Y-17962476D01*
X7102429Y-17962476D02*
X7102429Y-17829143D01*
X7102429Y-17848190D02*
X7111952Y-17838667D01*
X7111952Y-17838667D02*
X7131000Y-17829143D01*
X7131000Y-17829143D02*
X7159571Y-17829143D01*
X7159571Y-17829143D02*
X7178619Y-17838667D01*
X7178619Y-17838667D02*
X7188143Y-17857714D01*
X7188143Y-17857714D02*
X7188143Y-17962476D01*
X7188143Y-17857714D02*
X7197667Y-17838667D01*
X7197667Y-17838667D02*
X7216714Y-17829143D01*
X7216714Y-17829143D02*
X7245286Y-17829143D01*
X7245286Y-17829143D02*
X7264333Y-17838667D01*
X7264333Y-17838667D02*
X7273857Y-17857714D01*
X7273857Y-17857714D02*
X7273857Y-17962476D01*
X7631952Y-17752952D02*
X7460524Y-18010095D01*
X7856714Y-17762476D02*
X7875762Y-17762476D01*
X7875762Y-17762476D02*
X7894810Y-17772000D01*
X7894810Y-17772000D02*
X7904333Y-17781524D01*
X7904333Y-17781524D02*
X7913857Y-17800571D01*
X7913857Y-17800571D02*
X7923381Y-17838667D01*
X7923381Y-17838667D02*
X7923381Y-17886286D01*
X7923381Y-17886286D02*
X7913857Y-17924381D01*
X7913857Y-17924381D02*
X7904333Y-17943429D01*
X7904333Y-17943429D02*
X7894810Y-17952952D01*
X7894810Y-17952952D02*
X7875762Y-17962476D01*
X7875762Y-17962476D02*
X7856714Y-17962476D01*
X7856714Y-17962476D02*
X7837667Y-17952952D01*
X7837667Y-17952952D02*
X7828143Y-17943429D01*
X7828143Y-17943429D02*
X7818619Y-17924381D01*
X7818619Y-17924381D02*
X7809095Y-17886286D01*
X7809095Y-17886286D02*
X7809095Y-17838667D01*
X7809095Y-17838667D02*
X7818619Y-17800571D01*
X7818619Y-17800571D02*
X7828143Y-17781524D01*
X7828143Y-17781524D02*
X7837667Y-17772000D01*
X7837667Y-17772000D02*
X7856714Y-17762476D01*
X8009095Y-17943429D02*
X8018619Y-17952952D01*
X8018619Y-17952952D02*
X8009095Y-17962476D01*
X8009095Y-17962476D02*
X7999571Y-17952952D01*
X7999571Y-17952952D02*
X8009095Y-17943429D01*
X8009095Y-17943429D02*
X8009095Y-17962476D01*
X8209095Y-17962476D02*
X8094810Y-17962476D01*
X8151952Y-17962476D02*
X8151952Y-17762476D01*
X8151952Y-17762476D02*
X8132905Y-17791048D01*
X8132905Y-17791048D02*
X8113857Y-17810095D01*
X8113857Y-17810095D02*
X8094810Y-17819619D01*
X8275762Y-17762476D02*
X8399572Y-17762476D01*
X8399572Y-17762476D02*
X8332905Y-17838667D01*
X8332905Y-17838667D02*
X8361476Y-17838667D01*
X8361476Y-17838667D02*
X8380524Y-17848190D01*
X8380524Y-17848190D02*
X8390048Y-17857714D01*
X8390048Y-17857714D02*
X8399572Y-17876762D01*
X8399572Y-17876762D02*
X8399572Y-17924381D01*
X8399572Y-17924381D02*
X8390048Y-17943429D01*
X8390048Y-17943429D02*
X8380524Y-17952952D01*
X8380524Y-17952952D02*
X8361476Y-17962476D01*
X8361476Y-17962476D02*
X8304333Y-17962476D01*
X8304333Y-17962476D02*
X8285286Y-17952952D01*
X8285286Y-17952952D02*
X8275762Y-17943429D01*
X8466238Y-17762476D02*
X8590048Y-17762476D01*
X8590048Y-17762476D02*
X8523381Y-17838667D01*
X8523381Y-17838667D02*
X8551953Y-17838667D01*
X8551953Y-17838667D02*
X8571000Y-17848190D01*
X8571000Y-17848190D02*
X8580524Y-17857714D01*
X8580524Y-17857714D02*
X8590048Y-17876762D01*
X8590048Y-17876762D02*
X8590048Y-17924381D01*
X8590048Y-17924381D02*
X8580524Y-17943429D01*
X8580524Y-17943429D02*
X8571000Y-17952952D01*
X8571000Y-17952952D02*
X8551953Y-17962476D01*
X8551953Y-17962476D02*
X8494810Y-17962476D01*
X8494810Y-17962476D02*
X8475762Y-17952952D01*
X8475762Y-17952952D02*
X8466238Y-17943429D01*
X8685286Y-17962476D02*
X8723381Y-17962476D01*
X8723381Y-17962476D02*
X8742429Y-17952952D01*
X8742429Y-17952952D02*
X8751953Y-17943429D01*
X8751953Y-17943429D02*
X8771000Y-17914857D01*
X8771000Y-17914857D02*
X8780524Y-17876762D01*
X8780524Y-17876762D02*
X8780524Y-17800571D01*
X8780524Y-17800571D02*
X8771000Y-17781524D01*
X8771000Y-17781524D02*
X8761476Y-17772000D01*
X8761476Y-17772000D02*
X8742429Y-17762476D01*
X8742429Y-17762476D02*
X8704333Y-17762476D01*
X8704333Y-17762476D02*
X8685286Y-17772000D01*
X8685286Y-17772000D02*
X8675762Y-17781524D01*
X8675762Y-17781524D02*
X8666238Y-17800571D01*
X8666238Y-17800571D02*
X8666238Y-17848190D01*
X8666238Y-17848190D02*
X8675762Y-17867238D01*
X8675762Y-17867238D02*
X8685286Y-17876762D01*
X8685286Y-17876762D02*
X8704333Y-17886286D01*
X8704333Y-17886286D02*
X8742429Y-17886286D01*
X8742429Y-17886286D02*
X8761476Y-17876762D01*
X8761476Y-17876762D02*
X8771000Y-17867238D01*
X8771000Y-17867238D02*
X8780524Y-17848190D01*
X8856714Y-17762476D02*
X8856714Y-17800571D01*
X8932905Y-17762476D02*
X8932905Y-17800571D01*
X9195762Y-18038667D02*
X9186238Y-18029143D01*
X9186238Y-18029143D02*
X9167191Y-18000571D01*
X9167191Y-18000571D02*
X9157667Y-17981524D01*
X9157667Y-17981524D02*
X9148143Y-17952952D01*
X9148143Y-17952952D02*
X9138619Y-17905333D01*
X9138619Y-17905333D02*
X9138619Y-17867238D01*
X9138619Y-17867238D02*
X9148143Y-17819619D01*
X9148143Y-17819619D02*
X9157667Y-17791048D01*
X9157667Y-17791048D02*
X9167191Y-17772000D01*
X9167191Y-17772000D02*
X9186238Y-17743429D01*
X9186238Y-17743429D02*
X9195762Y-17733905D01*
X9262429Y-17781524D02*
X9271953Y-17772000D01*
X9271953Y-17772000D02*
X9291000Y-17762476D01*
X9291000Y-17762476D02*
X9338619Y-17762476D01*
X9338619Y-17762476D02*
X9357667Y-17772000D01*
X9357667Y-17772000D02*
X9367191Y-17781524D01*
X9367191Y-17781524D02*
X9376714Y-17800571D01*
X9376714Y-17800571D02*
X9376714Y-17819619D01*
X9376714Y-17819619D02*
X9367191Y-17848190D01*
X9367191Y-17848190D02*
X9252905Y-17962476D01*
X9252905Y-17962476D02*
X9376714Y-17962476D01*
X9567191Y-17962476D02*
X9452905Y-17962476D01*
X9510048Y-17962476D02*
X9510048Y-17762476D01*
X9510048Y-17762476D02*
X9491000Y-17791048D01*
X9491000Y-17791048D02*
X9471953Y-17810095D01*
X9471953Y-17810095D02*
X9452905Y-17819619D01*
X9772905Y-17962476D02*
X9772905Y-17762476D01*
X9858619Y-17962476D02*
X9858619Y-17857714D01*
X9858619Y-17857714D02*
X9849095Y-17838667D01*
X9849095Y-17838667D02*
X9830048Y-17829143D01*
X9830048Y-17829143D02*
X9801476Y-17829143D01*
X9801476Y-17829143D02*
X9782429Y-17838667D01*
X9782429Y-17838667D02*
X9772905Y-17848190D01*
X9982429Y-17962476D02*
X9963381Y-17952952D01*
X9963381Y-17952952D02*
X9953857Y-17943429D01*
X9953857Y-17943429D02*
X9944334Y-17924381D01*
X9944334Y-17924381D02*
X9944334Y-17867238D01*
X9944334Y-17867238D02*
X9953857Y-17848190D01*
X9953857Y-17848190D02*
X9963381Y-17838667D01*
X9963381Y-17838667D02*
X9982429Y-17829143D01*
X9982429Y-17829143D02*
X10011000Y-17829143D01*
X10011000Y-17829143D02*
X10030048Y-17838667D01*
X10030048Y-17838667D02*
X10039572Y-17848190D01*
X10039572Y-17848190D02*
X10049095Y-17867238D01*
X10049095Y-17867238D02*
X10049095Y-17924381D01*
X10049095Y-17924381D02*
X10039572Y-17943429D01*
X10039572Y-17943429D02*
X10030048Y-17952952D01*
X10030048Y-17952952D02*
X10011000Y-17962476D01*
X10011000Y-17962476D02*
X9982429Y-17962476D01*
X10163381Y-17962476D02*
X10144334Y-17952952D01*
X10144334Y-17952952D02*
X10134810Y-17933905D01*
X10134810Y-17933905D02*
X10134810Y-17762476D01*
X10315762Y-17952952D02*
X10296715Y-17962476D01*
X10296715Y-17962476D02*
X10258619Y-17962476D01*
X10258619Y-17962476D02*
X10239572Y-17952952D01*
X10239572Y-17952952D02*
X10230048Y-17933905D01*
X10230048Y-17933905D02*
X10230048Y-17857714D01*
X10230048Y-17857714D02*
X10239572Y-17838667D01*
X10239572Y-17838667D02*
X10258619Y-17829143D01*
X10258619Y-17829143D02*
X10296715Y-17829143D01*
X10296715Y-17829143D02*
X10315762Y-17838667D01*
X10315762Y-17838667D02*
X10325286Y-17857714D01*
X10325286Y-17857714D02*
X10325286Y-17876762D01*
X10325286Y-17876762D02*
X10230048Y-17895810D01*
X10401476Y-17952952D02*
X10420524Y-17962476D01*
X10420524Y-17962476D02*
X10458619Y-17962476D01*
X10458619Y-17962476D02*
X10477667Y-17952952D01*
X10477667Y-17952952D02*
X10487191Y-17933905D01*
X10487191Y-17933905D02*
X10487191Y-17924381D01*
X10487191Y-17924381D02*
X10477667Y-17905333D01*
X10477667Y-17905333D02*
X10458619Y-17895810D01*
X10458619Y-17895810D02*
X10430048Y-17895810D01*
X10430048Y-17895810D02*
X10411000Y-17886286D01*
X10411000Y-17886286D02*
X10401476Y-17867238D01*
X10401476Y-17867238D02*
X10401476Y-17857714D01*
X10401476Y-17857714D02*
X10411000Y-17838667D01*
X10411000Y-17838667D02*
X10430048Y-17829143D01*
X10430048Y-17829143D02*
X10458619Y-17829143D01*
X10458619Y-17829143D02*
X10477667Y-17838667D01*
X10553857Y-18038667D02*
X10563381Y-18029143D01*
X10563381Y-18029143D02*
X10582429Y-18000571D01*
X10582429Y-18000571D02*
X10591953Y-17981524D01*
X10591953Y-17981524D02*
X10601476Y-17952952D01*
X10601476Y-17952952D02*
X10611000Y-17905333D01*
X10611000Y-17905333D02*
X10611000Y-17867238D01*
X10611000Y-17867238D02*
X10601476Y-17819619D01*
X10601476Y-17819619D02*
X10591953Y-17791048D01*
X10591953Y-17791048D02*
X10582429Y-17772000D01*
X10582429Y-17772000D02*
X10563381Y-17743429D01*
X10563381Y-17743429D02*
X10553857Y-17733905D01*
X10883381Y-18038667D02*
X10873857Y-18029143D01*
X10873857Y-18029143D02*
X10854810Y-18000571D01*
X10854810Y-18000571D02*
X10845286Y-17981524D01*
X10845286Y-17981524D02*
X10835762Y-17952952D01*
X10835762Y-17952952D02*
X10826238Y-17905333D01*
X10826238Y-17905333D02*
X10826238Y-17867238D01*
X10826238Y-17867238D02*
X10835762Y-17819619D01*
X10835762Y-17819619D02*
X10845286Y-17791048D01*
X10845286Y-17791048D02*
X10854810Y-17772000D01*
X10854810Y-17772000D02*
X10873857Y-17743429D01*
X10873857Y-17743429D02*
X10883381Y-17733905D01*
X10959572Y-17829143D02*
X10959572Y-17962476D01*
X10959572Y-17848190D02*
X10969095Y-17838667D01*
X10969095Y-17838667D02*
X10988143Y-17829143D01*
X10988143Y-17829143D02*
X11016715Y-17829143D01*
X11016715Y-17829143D02*
X11035762Y-17838667D01*
X11035762Y-17838667D02*
X11045286Y-17857714D01*
X11045286Y-17857714D02*
X11045286Y-17962476D01*
X11169095Y-17962476D02*
X11150048Y-17952952D01*
X11150048Y-17952952D02*
X11140524Y-17943429D01*
X11140524Y-17943429D02*
X11131000Y-17924381D01*
X11131000Y-17924381D02*
X11131000Y-17867238D01*
X11131000Y-17867238D02*
X11140524Y-17848190D01*
X11140524Y-17848190D02*
X11150048Y-17838667D01*
X11150048Y-17838667D02*
X11169095Y-17829143D01*
X11169095Y-17829143D02*
X11197667Y-17829143D01*
X11197667Y-17829143D02*
X11216714Y-17838667D01*
X11216714Y-17838667D02*
X11226238Y-17848190D01*
X11226238Y-17848190D02*
X11235762Y-17867238D01*
X11235762Y-17867238D02*
X11235762Y-17924381D01*
X11235762Y-17924381D02*
X11226238Y-17943429D01*
X11226238Y-17943429D02*
X11216714Y-17952952D01*
X11216714Y-17952952D02*
X11197667Y-17962476D01*
X11197667Y-17962476D02*
X11169095Y-17962476D01*
X11292905Y-17829143D02*
X11369095Y-17829143D01*
X11321476Y-17762476D02*
X11321476Y-17933905D01*
X11321476Y-17933905D02*
X11331000Y-17952952D01*
X11331000Y-17952952D02*
X11350048Y-17962476D01*
X11350048Y-17962476D02*
X11369095Y-17962476D01*
X11555762Y-17829143D02*
X11555762Y-18029143D01*
X11555762Y-17838667D02*
X11574810Y-17829143D01*
X11574810Y-17829143D02*
X11612905Y-17829143D01*
X11612905Y-17829143D02*
X11631953Y-17838667D01*
X11631953Y-17838667D02*
X11641476Y-17848190D01*
X11641476Y-17848190D02*
X11651000Y-17867238D01*
X11651000Y-17867238D02*
X11651000Y-17924381D01*
X11651000Y-17924381D02*
X11641476Y-17943429D01*
X11641476Y-17943429D02*
X11631953Y-17952952D01*
X11631953Y-17952952D02*
X11612905Y-17962476D01*
X11612905Y-17962476D02*
X11574810Y-17962476D01*
X11574810Y-17962476D02*
X11555762Y-17952952D01*
X11765286Y-17962476D02*
X11746238Y-17952952D01*
X11746238Y-17952952D02*
X11736714Y-17933905D01*
X11736714Y-17933905D02*
X11736714Y-17762476D01*
X11927191Y-17962476D02*
X11927191Y-17857714D01*
X11927191Y-17857714D02*
X11917667Y-17838667D01*
X11917667Y-17838667D02*
X11898619Y-17829143D01*
X11898619Y-17829143D02*
X11860524Y-17829143D01*
X11860524Y-17829143D02*
X11841476Y-17838667D01*
X11927191Y-17952952D02*
X11908143Y-17962476D01*
X11908143Y-17962476D02*
X11860524Y-17962476D01*
X11860524Y-17962476D02*
X11841476Y-17952952D01*
X11841476Y-17952952D02*
X11831953Y-17933905D01*
X11831953Y-17933905D02*
X11831953Y-17914857D01*
X11831953Y-17914857D02*
X11841476Y-17895810D01*
X11841476Y-17895810D02*
X11860524Y-17886286D01*
X11860524Y-17886286D02*
X11908143Y-17886286D01*
X11908143Y-17886286D02*
X11927191Y-17876762D01*
X11993857Y-17829143D02*
X12070048Y-17829143D01*
X12022429Y-17762476D02*
X12022429Y-17933905D01*
X12022429Y-17933905D02*
X12031953Y-17952952D01*
X12031953Y-17952952D02*
X12051000Y-17962476D01*
X12051000Y-17962476D02*
X12070048Y-17962476D01*
X12212905Y-17952952D02*
X12193857Y-17962476D01*
X12193857Y-17962476D02*
X12155762Y-17962476D01*
X12155762Y-17962476D02*
X12136714Y-17952952D01*
X12136714Y-17952952D02*
X12127191Y-17933905D01*
X12127191Y-17933905D02*
X12127191Y-17857714D01*
X12127191Y-17857714D02*
X12136714Y-17838667D01*
X12136714Y-17838667D02*
X12155762Y-17829143D01*
X12155762Y-17829143D02*
X12193857Y-17829143D01*
X12193857Y-17829143D02*
X12212905Y-17838667D01*
X12212905Y-17838667D02*
X12222429Y-17857714D01*
X12222429Y-17857714D02*
X12222429Y-17876762D01*
X12222429Y-17876762D02*
X12127191Y-17895810D01*
X12393857Y-17962476D02*
X12393857Y-17762476D01*
X12393857Y-17952952D02*
X12374810Y-17962476D01*
X12374810Y-17962476D02*
X12336714Y-17962476D01*
X12336714Y-17962476D02*
X12317667Y-17952952D01*
X12317667Y-17952952D02*
X12308143Y-17943429D01*
X12308143Y-17943429D02*
X12298619Y-17924381D01*
X12298619Y-17924381D02*
X12298619Y-17867238D01*
X12298619Y-17867238D02*
X12308143Y-17848190D01*
X12308143Y-17848190D02*
X12317667Y-17838667D01*
X12317667Y-17838667D02*
X12336714Y-17829143D01*
X12336714Y-17829143D02*
X12374810Y-17829143D01*
X12374810Y-17829143D02*
X12393857Y-17838667D01*
X12470048Y-18038667D02*
X12479572Y-18029143D01*
X12479572Y-18029143D02*
X12498619Y-18000571D01*
X12498619Y-18000571D02*
X12508143Y-17981524D01*
X12508143Y-17981524D02*
X12517667Y-17952952D01*
X12517667Y-17952952D02*
X12527191Y-17905333D01*
X12527191Y-17905333D02*
X12527191Y-17867238D01*
X12527191Y-17867238D02*
X12517667Y-17819619D01*
X12517667Y-17819619D02*
X12508143Y-17791048D01*
X12508143Y-17791048D02*
X12498619Y-17772000D01*
X12498619Y-17772000D02*
X12479572Y-17743429D01*
X12479572Y-17743429D02*
X12470048Y-17733905D01*
M02*
