M48
; DRILL file {KiCad (7.0.0)} date Sun Jul  2 10:59:26 2023
; FORMAT={-:-/ absolute / metric / decimal}
; #@! TF.CreationDate,2023-07-02T10:59:26-07:00
; #@! TF.GenerationSoftware,Kicad,Pcbnew,(7.0.0)
; #@! TF.FileFunction,Plated,1,2,PTH
FMAT,2
METRIC
; #@! TA.AperFunction,Plated,PTH,ViaDrill
T1C0.300
; #@! TA.AperFunction,Plated,PTH,ViaDrill
T2C0.350
; #@! TA.AperFunction,Plated,PTH,ComponentDrill
T3C0.350
; #@! TA.AperFunction,Plated,PTH,ViaDrill
T4C0.400
; #@! TA.AperFunction,Plated,PTH,ComponentDrill
T5C0.400
; #@! TA.AperFunction,Plated,PTH,ComponentDrill
T6C0.500
; #@! TA.AperFunction,Plated,PTH,ComponentDrill
T7C1.800
; #@! TA.AperFunction,Plated,PTH,ComponentDrill
T8C3.000
%
G90
G05
T1
X179.22Y-117.19
X187.627Y-45.465
X189.73Y-61.48
X189.73Y-52.4
X191.313Y-58.054
X192.865Y-64.912
X193.12Y-58.22
X193.345Y-49.926
X194.62Y-42.67
X196.0Y-37.35
X196.6Y-41.63
X196.67Y-34.71
X197.79Y-45.735
X197.945Y-48.767
X198.806Y-48.275
X198.901Y-45.243
X198.928Y-34.01
X198.933Y-61.102
X199.568Y-67.579
X200.203Y-63.896
X200.52Y-34.71
X200.61Y-35.81
X200.806Y-45.243
X201.854Y-61.991
X202.362Y-47.259
X204.013Y-67.39
X204.17Y-38.57
X204.413Y-64.87
X204.65Y-46.635
X204.75Y-33.5
X205.537Y-49.07
X205.67Y-52.78
X205.83Y-55.22
X206.902Y-58.832
X207.26Y-45.475
X207.48Y-54.56
X208.26Y-52.84
X208.34Y-66.09
X208.344Y-69.424
X208.517Y-54.258
X209.262Y-32.468
X209.53Y-113.86
X211.68Y-53.37
X217.286Y-136.906
X222.63Y-103.54
X230.89Y-122.83
X241.28Y-78.26
T2
X199.187Y-56.994
X199.314Y-52.757
T3
X197.305Y-53.62
X197.305Y-54.895
X197.305Y-56.17
X198.58Y-53.62
X198.58Y-54.895
X198.58Y-56.17
X199.855Y-53.62
X199.855Y-54.895
X199.855Y-56.17
T4
X162.13Y-74.05
X162.13Y-76.55
X193.0Y-28.64
X193.1Y-29.74
T5
X195.778Y-31.71
X196.178Y-31.01
X196.978Y-31.01
X197.379Y-31.71
X197.778Y-31.01
X198.178Y-31.71
X198.978Y-31.71
X199.379Y-31.01
X199.778Y-31.71
X200.178Y-31.01
X200.978Y-31.01
X201.379Y-31.71
T7
X92.395Y-143.8
X98.0Y-47.313
X111.765Y-98.76
X177.1Y-34.24
X220.29Y-34.24
X279.275Y-98.76
X304.995Y-143.8
X305.06Y-47.313
T8
X66.196Y-64.922
X71.196Y-67.122
X94.834Y-55.718
X99.834Y-57.918
X122.929Y-60.424
X127.929Y-62.624
X145.552Y-78.663
X150.552Y-80.863
X159.878Y-127.854
X164.878Y-130.054
X177.711Y-148.957
X182.711Y-151.157
X185.479Y-125.314
X190.479Y-127.514
X198.578Y-75.377
X203.578Y-77.577
X214.076Y-119.263
X217.147Y-146.386
X219.076Y-121.463
X222.147Y-148.586
X232.909Y-103.159
X237.909Y-105.359
X239.98Y-128.281
X242.687Y-52.275
X244.98Y-130.481
X247.687Y-54.475
X249.583Y-77.943
X254.583Y-80.143
X257.875Y-107.528
X262.875Y-109.728
X265.197Y-33.825
X270.197Y-36.025
X272.093Y-59.494
X277.093Y-61.694
X293.356Y-29.359
X298.356Y-31.559
X300.252Y-55.029
X305.252Y-57.229
X322.836Y-38.062
X327.836Y-40.262
X329.732Y-63.731
X334.732Y-65.931
T6
X194.088Y-27.02G85X194.088Y-26.42
G05
X194.373Y-31.41G85X194.373Y-30.81
G05
X202.633Y-31.41G85X202.633Y-30.81
G05
X203.069Y-27.02G85X203.069Y-26.42
G05
T0
M30
