%TF.GenerationSoftware,KiCad,Pcbnew,(7.0.0)*%
%TF.CreationDate,2023-07-02T10:59:27-07:00*%
%TF.ProjectId,OpenOblongChocs,4f70656e-4f62-46c6-9f6e-6743686f6373,rev?*%
%TF.SameCoordinates,Original*%
%TF.FileFunction,Drillmap*%
%TF.FilePolarity,Positive*%
%FSLAX45Y45*%
G04 Gerber Fmt 4.5, Leading zero omitted, Abs format (unit mm)*
G04 Created by KiCad (PCBNEW (7.0.0)) date 2023-07-02 10:59:27*
%MOMM*%
%LPD*%
G01*
G04 APERTURE LIST*
%ADD10C,0.100000*%
%ADD11C,0.200000*%
%ADD12C,0.030000*%
%ADD13C,0.035000*%
%ADD14C,0.040000*%
%ADD15C,0.050000*%
%ADD16C,0.180000*%
%ADD17C,0.300000*%
G04 APERTURE END LIST*
D10*
X6861000Y-16162000D02*
X32881000Y-16162000D01*
X32881000Y-2540000D02*
X6861000Y-2540000D01*
X6861000Y-2540000D02*
G75*
G03*
X5736000Y-3665000I0J-1125000D01*
G01*
X34006000Y-3665000D02*
G75*
G03*
X32881000Y-2540000I-1125000J0D01*
G01*
X5736000Y-3665000D02*
X5736000Y-15037000D01*
X34006000Y-3665000D02*
X34006000Y-15037000D01*
X5736000Y-15037000D02*
G75*
G03*
X6861000Y-16162000I1125000J0D01*
G01*
X32881000Y-16162000D02*
G75*
G03*
X34006000Y-15037000I0J1125000D01*
G01*
D11*
D12*
X17907000Y-11704000D02*
X17937000Y-11734000D01*
X17937000Y-11704000D02*
X17907000Y-11734000D01*
X18747750Y-4531500D02*
X18777750Y-4561500D01*
X18777750Y-4531500D02*
X18747750Y-4561500D01*
X18957950Y-6132960D02*
X18987950Y-6162960D01*
X18987950Y-6132960D02*
X18957950Y-6162960D01*
X18958000Y-5225000D02*
X18988000Y-5255000D01*
X18988000Y-5225000D02*
X18958000Y-5255000D01*
X19116275Y-5790402D02*
X19146275Y-5820402D01*
X19146275Y-5790402D02*
X19116275Y-5820402D01*
X19271500Y-6476202D02*
X19301500Y-6506202D01*
X19301500Y-6476202D02*
X19271500Y-6506202D01*
X19297000Y-5807000D02*
X19327000Y-5837000D01*
X19327000Y-5807000D02*
X19297000Y-5837000D01*
X19319475Y-4977602D02*
X19349475Y-5007602D01*
X19349475Y-4977602D02*
X19319475Y-5007602D01*
X19447000Y-4252000D02*
X19477000Y-4282000D01*
X19477000Y-4252000D02*
X19447000Y-4282000D01*
X19585000Y-3720000D02*
X19615000Y-3750000D01*
X19615000Y-3720000D02*
X19585000Y-3750000D01*
X19645000Y-4148000D02*
X19675000Y-4178000D01*
X19675000Y-4148000D02*
X19645000Y-4178000D01*
X19652000Y-3456000D02*
X19682000Y-3486000D01*
X19682000Y-3456000D02*
X19652000Y-3486000D01*
X19763975Y-4558502D02*
X19793975Y-4588502D01*
X19793975Y-4558502D02*
X19763975Y-4588502D01*
X19779500Y-4861725D02*
X19809500Y-4891725D01*
X19809500Y-4861725D02*
X19779500Y-4891725D01*
X19865575Y-4812502D02*
X19895575Y-4842502D01*
X19895575Y-4812502D02*
X19865575Y-4842502D01*
X19875100Y-4509289D02*
X19905100Y-4539289D01*
X19905100Y-4509289D02*
X19875100Y-4539289D01*
X19877800Y-3386000D02*
X19907800Y-3416000D01*
X19907800Y-3386000D02*
X19877800Y-3416000D01*
X19878275Y-6095202D02*
X19908275Y-6125202D01*
X19908275Y-6095202D02*
X19878275Y-6125202D01*
X19941775Y-6742902D02*
X19971775Y-6772902D01*
X19971775Y-6742902D02*
X19941775Y-6772902D01*
X20005275Y-6374602D02*
X20035275Y-6404602D01*
X20035275Y-6374602D02*
X20005275Y-6404602D01*
X20037000Y-3456000D02*
X20067000Y-3486000D01*
X20067000Y-3456000D02*
X20037000Y-3486000D01*
X20046000Y-3566000D02*
X20076000Y-3596000D01*
X20076000Y-3566000D02*
X20046000Y-3596000D01*
X20065600Y-4509289D02*
X20095600Y-4539289D01*
X20095600Y-4509289D02*
X20065600Y-4539289D01*
X20170375Y-6184102D02*
X20200375Y-6214102D01*
X20200375Y-6184102D02*
X20170375Y-6214102D01*
X20221175Y-4710902D02*
X20251175Y-4740902D01*
X20251175Y-4710902D02*
X20221175Y-4740902D01*
X20386274Y-6724000D02*
X20416274Y-6754000D01*
X20416274Y-6724000D02*
X20386274Y-6754000D01*
X20402000Y-3842000D02*
X20432000Y-3872000D01*
X20432000Y-3842000D02*
X20402000Y-3872000D01*
X20426274Y-6472000D02*
X20456274Y-6502000D01*
X20456274Y-6472000D02*
X20426274Y-6502000D01*
X20450000Y-4648500D02*
X20480000Y-4678500D01*
X20480000Y-4648500D02*
X20450000Y-4678500D01*
X20460000Y-3335050D02*
X20490000Y-3365050D01*
X20490000Y-3335050D02*
X20460000Y-3365050D01*
X20538675Y-4892000D02*
X20568675Y-4922000D01*
X20568675Y-4892000D02*
X20538675Y-4922000D01*
X20552000Y-5263000D02*
X20582000Y-5293000D01*
X20582000Y-5263000D02*
X20552000Y-5293000D01*
X20568000Y-5507000D02*
X20598000Y-5537000D01*
X20598000Y-5507000D02*
X20568000Y-5537000D01*
X20675200Y-5868189D02*
X20705200Y-5898189D01*
X20705200Y-5868189D02*
X20675200Y-5898189D01*
X20711000Y-4532500D02*
X20741000Y-4562500D01*
X20741000Y-4532500D02*
X20711000Y-4562500D01*
X20733000Y-5441000D02*
X20763000Y-5471000D01*
X20763000Y-5441000D02*
X20733000Y-5471000D01*
X20811000Y-5269000D02*
X20841000Y-5299000D01*
X20841000Y-5269000D02*
X20811000Y-5299000D01*
X20819050Y-6594000D02*
X20849050Y-6624000D01*
X20849050Y-6594000D02*
X20819050Y-6624000D01*
X20819391Y-6927391D02*
X20849391Y-6957391D01*
X20849391Y-6927391D02*
X20819391Y-6957391D01*
X20836750Y-5410750D02*
X20866750Y-5440750D01*
X20866750Y-5410750D02*
X20836750Y-5440750D01*
X20911159Y-3231841D02*
X20941159Y-3261841D01*
X20941159Y-3231841D02*
X20911159Y-3261841D01*
X20938000Y-11371000D02*
X20968000Y-11401000D01*
X20968000Y-11371000D02*
X20938000Y-11401000D01*
X21153000Y-5322000D02*
X21183000Y-5352000D01*
X21183000Y-5322000D02*
X21153000Y-5352000D01*
X21713611Y-13675610D02*
X21743611Y-13705610D01*
X21743611Y-13675610D02*
X21713611Y-13705610D01*
X22248000Y-10339000D02*
X22278000Y-10369000D01*
X22278000Y-10339000D02*
X22248000Y-10369000D01*
X23074000Y-12268000D02*
X23104000Y-12298000D01*
X23104000Y-12268000D02*
X23074000Y-12298000D01*
X24113000Y-7811000D02*
X24143000Y-7841000D01*
X24143000Y-7811000D02*
X24113000Y-7841000D01*
D13*
X19936175Y-5699450D02*
G75*
G03*
X19936175Y-5699450I-17500J0D01*
G01*
X19948875Y-5275725D02*
G75*
G03*
X19948875Y-5275725I-17500J0D01*
G01*
X19730500Y-5344500D02*
X19730500Y-5379500D01*
X19713000Y-5362000D02*
X19748000Y-5362000D01*
X19730500Y-5472000D02*
X19730500Y-5507000D01*
X19713000Y-5489500D02*
X19748000Y-5489500D01*
X19730500Y-5599500D02*
X19730500Y-5634500D01*
X19713000Y-5617000D02*
X19748000Y-5617000D01*
X19858000Y-5344500D02*
X19858000Y-5379500D01*
X19840500Y-5362000D02*
X19875500Y-5362000D01*
X19858000Y-5472000D02*
X19858000Y-5507000D01*
X19840500Y-5489500D02*
X19875500Y-5489500D01*
X19858000Y-5599500D02*
X19858000Y-5634500D01*
X19840500Y-5617000D02*
X19875500Y-5617000D01*
X19985500Y-5344500D02*
X19985500Y-5379500D01*
X19968000Y-5362000D02*
X20003000Y-5362000D01*
X19985500Y-5472000D02*
X19985500Y-5507000D01*
X19968000Y-5489500D02*
X20003000Y-5489500D01*
X19985500Y-5599500D02*
X19985500Y-5634500D01*
X19968000Y-5617000D02*
X20003000Y-5617000D01*
D14*
X16227142Y-7419142D02*
X16227142Y-7390858D01*
X16198858Y-7390858D01*
X16198858Y-7419142D01*
X16227142Y-7419142D01*
X16227142Y-7669142D02*
X16227142Y-7640858D01*
X16198858Y-7640858D01*
X16198858Y-7669142D01*
X16227142Y-7669142D01*
X19314142Y-2878142D02*
X19314142Y-2849858D01*
X19285858Y-2849858D01*
X19285858Y-2878142D01*
X19314142Y-2878142D01*
X19324142Y-2988142D02*
X19324142Y-2959858D01*
X19295858Y-2959858D01*
X19295858Y-2988142D01*
X19324142Y-2988142D01*
X19577850Y-3191000D02*
X19597850Y-3171000D01*
X19577850Y-3151000D01*
X19557850Y-3171000D01*
X19577850Y-3191000D01*
X19617850Y-3121000D02*
X19637850Y-3101000D01*
X19617850Y-3081000D01*
X19597850Y-3101000D01*
X19617850Y-3121000D01*
X19697850Y-3121000D02*
X19717850Y-3101000D01*
X19697850Y-3081000D01*
X19677850Y-3101000D01*
X19697850Y-3121000D01*
X19737850Y-3191000D02*
X19757850Y-3171000D01*
X19737850Y-3151000D01*
X19717850Y-3171000D01*
X19737850Y-3191000D01*
X19777850Y-3121000D02*
X19797850Y-3101000D01*
X19777850Y-3081000D01*
X19757850Y-3101000D01*
X19777850Y-3121000D01*
X19817850Y-3191000D02*
X19837850Y-3171000D01*
X19817850Y-3151000D01*
X19797850Y-3171000D01*
X19817850Y-3191000D01*
X19897850Y-3191000D02*
X19917850Y-3171000D01*
X19897850Y-3151000D01*
X19877850Y-3171000D01*
X19897850Y-3191000D01*
X19937850Y-3121000D02*
X19957850Y-3101000D01*
X19937850Y-3081000D01*
X19917850Y-3101000D01*
X19937850Y-3121000D01*
X19977850Y-3191000D02*
X19997850Y-3171000D01*
X19977850Y-3151000D01*
X19957850Y-3171000D01*
X19977850Y-3191000D01*
X20017850Y-3121000D02*
X20037850Y-3101000D01*
X20017850Y-3081000D01*
X19997850Y-3101000D01*
X20017850Y-3121000D01*
X20097850Y-3121000D02*
X20117850Y-3101000D01*
X20097850Y-3081000D01*
X20077850Y-3101000D01*
X20097850Y-3121000D01*
X20137850Y-3191000D02*
X20157850Y-3171000D01*
X20137850Y-3151000D01*
X20117850Y-3171000D01*
X20137850Y-3191000D01*
D15*
X19383850Y-2647000D02*
X19433850Y-2697000D01*
X19433850Y-2647000D02*
X19383850Y-2697000D01*
X19433850Y-2672000D02*
G75*
G03*
X19433850Y-2672000I-25000J0D01*
G01*
D11*
X19433850Y-2702000D02*
X19433850Y-2642000D01*
X19433850Y-2642000D02*
G75*
G03*
X19383850Y-2642000I-25000J0D01*
G01*
X19383850Y-2642000D02*
X19383850Y-2702000D01*
X19383850Y-2702000D02*
G75*
G03*
X19433850Y-2702000I25000J0D01*
G01*
D15*
X19412350Y-3086000D02*
X19462350Y-3136000D01*
X19462350Y-3086000D02*
X19412350Y-3136000D01*
X19462350Y-3111000D02*
G75*
G03*
X19462350Y-3111000I-25000J0D01*
G01*
D11*
X19462350Y-3141000D02*
X19462350Y-3081000D01*
X19462350Y-3081000D02*
G75*
G03*
X19412350Y-3081000I-25000J0D01*
G01*
X19412350Y-3081000D02*
X19412350Y-3141000D01*
X19412350Y-3141000D02*
G75*
G03*
X19462350Y-3141000I25000J0D01*
G01*
D15*
X20238350Y-3086000D02*
X20288350Y-3136000D01*
X20288350Y-3086000D02*
X20238350Y-3136000D01*
X20288350Y-3111000D02*
G75*
G03*
X20288350Y-3111000I-25000J0D01*
G01*
D11*
X20288350Y-3141000D02*
X20288350Y-3081000D01*
X20288350Y-3081000D02*
G75*
G03*
X20238350Y-3081000I-25000J0D01*
G01*
X20238350Y-3081000D02*
X20238350Y-3141000D01*
X20238350Y-3141000D02*
G75*
G03*
X20288350Y-3141000I25000J0D01*
G01*
D15*
X20281850Y-2647000D02*
X20331850Y-2697000D01*
X20331850Y-2647000D02*
X20281850Y-2697000D01*
X20331850Y-2672000D02*
G75*
G03*
X20331850Y-2672000I-25000J0D01*
G01*
D11*
X20331850Y-2702000D02*
X20331850Y-2642000D01*
X20331850Y-2642000D02*
G75*
G03*
X20281850Y-2642000I-25000J0D01*
G01*
X20281850Y-2642000D02*
X20281850Y-2702000D01*
X20281850Y-2702000D02*
G75*
G03*
X20331850Y-2702000I25000J0D01*
G01*
D16*
X9149500Y-14290000D02*
X9329500Y-14470000D01*
X9329500Y-14290000D02*
X9149500Y-14470000D01*
X9239500Y-14290000D02*
X9239500Y-14470000D01*
X9149500Y-14380000D02*
X9329500Y-14380000D01*
X9710000Y-4641338D02*
X9890000Y-4821338D01*
X9890000Y-4641338D02*
X9710000Y-4821338D01*
X9800000Y-4641338D02*
X9800000Y-4821338D01*
X9710000Y-4731338D02*
X9890000Y-4731338D01*
X11086500Y-9786000D02*
X11266500Y-9966000D01*
X11266500Y-9786000D02*
X11086500Y-9966000D01*
X11176500Y-9786000D02*
X11176500Y-9966000D01*
X11086500Y-9876000D02*
X11266500Y-9876000D01*
X17620000Y-3334000D02*
X17800000Y-3514000D01*
X17800000Y-3334000D02*
X17620000Y-3514000D01*
X17710000Y-3334000D02*
X17710000Y-3514000D01*
X17620000Y-3424000D02*
X17800000Y-3424000D01*
X21939000Y-3334000D02*
X22119000Y-3514000D01*
X22119000Y-3334000D02*
X21939000Y-3514000D01*
X22029000Y-3334000D02*
X22029000Y-3514000D01*
X21939000Y-3424000D02*
X22119000Y-3424000D01*
X27837500Y-9786000D02*
X28017500Y-9966000D01*
X28017500Y-9786000D02*
X27837500Y-9966000D01*
X27927500Y-9786000D02*
X27927500Y-9966000D01*
X27837500Y-9876000D02*
X28017500Y-9876000D01*
X30409500Y-14290000D02*
X30589500Y-14470000D01*
X30589500Y-14290000D02*
X30409500Y-14470000D01*
X30499500Y-14290000D02*
X30499500Y-14470000D01*
X30409500Y-14380000D02*
X30589500Y-14380000D01*
X30416000Y-4641338D02*
X30596000Y-4821338D01*
X30596000Y-4641338D02*
X30416000Y-4821338D01*
X30506000Y-4641338D02*
X30506000Y-4821338D01*
X30416000Y-4731338D02*
X30596000Y-4731338D01*
D17*
X6469598Y-6342212D02*
X6769598Y-6642212D01*
X6769598Y-6342212D02*
X6469598Y-6642212D01*
X6725665Y-6598279D02*
X6725665Y-6386145D01*
X6513531Y-6386145D01*
X6513531Y-6598279D01*
X6725665Y-6598279D01*
X6969598Y-6562212D02*
X7269598Y-6862212D01*
X7269598Y-6562212D02*
X6969598Y-6862212D01*
X7225665Y-6818279D02*
X7225665Y-6606145D01*
X7013531Y-6606145D01*
X7013531Y-6818279D01*
X7225665Y-6818279D01*
X9333411Y-5421758D02*
X9633411Y-5721758D01*
X9633411Y-5421758D02*
X9333411Y-5721758D01*
X9589478Y-5677825D02*
X9589478Y-5465691D01*
X9377344Y-5465691D01*
X9377344Y-5677825D01*
X9589478Y-5677825D01*
X9833411Y-5641758D02*
X10133411Y-5941758D01*
X10133411Y-5641758D02*
X9833411Y-5941758D01*
X10089478Y-5897825D02*
X10089478Y-5685691D01*
X9877344Y-5685691D01*
X9877344Y-5897825D01*
X10089478Y-5897825D01*
X12142944Y-5892354D02*
X12442944Y-6192354D01*
X12442944Y-5892354D02*
X12142944Y-6192354D01*
X12399011Y-6148421D02*
X12399011Y-5936287D01*
X12186877Y-5936287D01*
X12186877Y-6148421D01*
X12399011Y-6148421D01*
X12642944Y-6112354D02*
X12942944Y-6412354D01*
X12942944Y-6112354D02*
X12642944Y-6412354D01*
X12899011Y-6368421D02*
X12899011Y-6156287D01*
X12686877Y-6156287D01*
X12686877Y-6368421D01*
X12899011Y-6368421D01*
X14405153Y-7716306D02*
X14705153Y-8016306D01*
X14705153Y-7716306D02*
X14405153Y-8016306D01*
X14661220Y-7972373D02*
X14661220Y-7760239D01*
X14449086Y-7760239D01*
X14449086Y-7972373D01*
X14661220Y-7972373D01*
X14905153Y-7936306D02*
X15205153Y-8236306D01*
X15205153Y-7936306D02*
X14905153Y-8236306D01*
X15161220Y-8192373D02*
X15161220Y-7980239D01*
X14949086Y-7980239D01*
X14949086Y-8192373D01*
X15161220Y-8192373D01*
X15837769Y-12635362D02*
X16137769Y-12935362D01*
X16137769Y-12635362D02*
X15837769Y-12935362D01*
X16093836Y-12891429D02*
X16093836Y-12679295D01*
X15881702Y-12679295D01*
X15881702Y-12891429D01*
X16093836Y-12891429D01*
X16337769Y-12855362D02*
X16637769Y-13155362D01*
X16637769Y-12855362D02*
X16337769Y-13155362D01*
X16593836Y-13111429D02*
X16593836Y-12899295D01*
X16381702Y-12899295D01*
X16381702Y-13111429D01*
X16593836Y-13111429D01*
X17621130Y-14745739D02*
X17921130Y-15045739D01*
X17921130Y-14745739D02*
X17621130Y-15045739D01*
X17877197Y-15001806D02*
X17877197Y-14789672D01*
X17665063Y-14789672D01*
X17665063Y-15001806D01*
X17877197Y-15001806D01*
X18121130Y-14965739D02*
X18421130Y-15265739D01*
X18421130Y-14965739D02*
X18121130Y-15265739D01*
X18377197Y-15221806D02*
X18377197Y-15009672D01*
X18165063Y-15009672D01*
X18165063Y-15221806D01*
X18377197Y-15221806D01*
X18397865Y-12381430D02*
X18697865Y-12681430D01*
X18697865Y-12381430D02*
X18397865Y-12681430D01*
X18653932Y-12637497D02*
X18653932Y-12425363D01*
X18441798Y-12425363D01*
X18441798Y-12637497D01*
X18653932Y-12637497D01*
X18897865Y-12601430D02*
X19197865Y-12901430D01*
X19197865Y-12601430D02*
X18897865Y-12901430D01*
X19153932Y-12857497D02*
X19153932Y-12645363D01*
X18941798Y-12645363D01*
X18941798Y-12857497D01*
X19153932Y-12857497D01*
X19707850Y-7387687D02*
X20007850Y-7687687D01*
X20007850Y-7387687D02*
X19707850Y-7687687D01*
X19963917Y-7643754D02*
X19963917Y-7431620D01*
X19751783Y-7431620D01*
X19751783Y-7643754D01*
X19963917Y-7643754D01*
X20207850Y-7607687D02*
X20507850Y-7907687D01*
X20507850Y-7607687D02*
X20207850Y-7907687D01*
X20463917Y-7863754D02*
X20463917Y-7651620D01*
X20251783Y-7651620D01*
X20251783Y-7863754D01*
X20463917Y-7863754D01*
X21257618Y-11776344D02*
X21557618Y-12076344D01*
X21557618Y-11776344D02*
X21257618Y-12076344D01*
X21513685Y-12032411D02*
X21513685Y-11820277D01*
X21301551Y-11820277D01*
X21301551Y-12032411D01*
X21513685Y-12032411D01*
X21564745Y-14488583D02*
X21864745Y-14788583D01*
X21864745Y-14488583D02*
X21564745Y-14788583D01*
X21820812Y-14744650D02*
X21820812Y-14532516D01*
X21608678Y-14532516D01*
X21608678Y-14744650D01*
X21820812Y-14744650D01*
X21757618Y-11996344D02*
X22057618Y-12296344D01*
X22057618Y-11996344D02*
X21757618Y-12296344D01*
X22013685Y-12252411D02*
X22013685Y-12040277D01*
X21801551Y-12040277D01*
X21801551Y-12252411D01*
X22013685Y-12252411D01*
X22064745Y-14708583D02*
X22364745Y-15008583D01*
X22364745Y-14708583D02*
X22064745Y-15008583D01*
X22320812Y-14964650D02*
X22320812Y-14752516D01*
X22108678Y-14752516D01*
X22108678Y-14964650D01*
X22320812Y-14964650D01*
X23140856Y-10165896D02*
X23440856Y-10465896D01*
X23440856Y-10165896D02*
X23140856Y-10465896D01*
X23396923Y-10421963D02*
X23396923Y-10209829D01*
X23184789Y-10209829D01*
X23184789Y-10421963D01*
X23396923Y-10421963D01*
X23640856Y-10385896D02*
X23940856Y-10685896D01*
X23940856Y-10385896D02*
X23640856Y-10685896D01*
X23896923Y-10641963D02*
X23896923Y-10429829D01*
X23684789Y-10429829D01*
X23684789Y-10641963D01*
X23896923Y-10641963D01*
X23847984Y-12678136D02*
X24147984Y-12978136D01*
X24147984Y-12678136D02*
X23847984Y-12978136D01*
X24104051Y-12934203D02*
X24104051Y-12722069D01*
X23891917Y-12722069D01*
X23891917Y-12934203D01*
X24104051Y-12934203D01*
X24118723Y-5077513D02*
X24418723Y-5377513D01*
X24418723Y-5077513D02*
X24118723Y-5377513D01*
X24374790Y-5333580D02*
X24374790Y-5121446D01*
X24162656Y-5121446D01*
X24162656Y-5333580D01*
X24374790Y-5333580D01*
X24347984Y-12898136D02*
X24647984Y-13198136D01*
X24647984Y-12898136D02*
X24347984Y-13198136D01*
X24604051Y-13154203D02*
X24604051Y-12942069D01*
X24391917Y-12942069D01*
X24391917Y-13154203D01*
X24604051Y-13154203D01*
X24618723Y-5297513D02*
X24918723Y-5597513D01*
X24918723Y-5297513D02*
X24618723Y-5597513D01*
X24874790Y-5553580D02*
X24874790Y-5341446D01*
X24662656Y-5341446D01*
X24662656Y-5553580D01*
X24874790Y-5553580D01*
X24808297Y-7644337D02*
X25108297Y-7944337D01*
X25108297Y-7644337D02*
X24808297Y-7944337D01*
X25064364Y-7900404D02*
X25064364Y-7688270D01*
X24852230Y-7688270D01*
X24852230Y-7900404D01*
X25064364Y-7900404D01*
X25308297Y-7864337D02*
X25608297Y-8164337D01*
X25608297Y-7864337D02*
X25308297Y-8164337D01*
X25564364Y-8120404D02*
X25564364Y-7908270D01*
X25352230Y-7908270D01*
X25352230Y-8120404D01*
X25564364Y-8120404D01*
X25637512Y-10602755D02*
X25937512Y-10902755D01*
X25937512Y-10602755D02*
X25637512Y-10902755D01*
X25893579Y-10858822D02*
X25893579Y-10646688D01*
X25681445Y-10646688D01*
X25681445Y-10858822D01*
X25893579Y-10858822D01*
X26137512Y-10822755D02*
X26437512Y-11122755D01*
X26437512Y-10822755D02*
X26137512Y-11122755D01*
X26393579Y-11078822D02*
X26393579Y-10866688D01*
X26181445Y-10866688D01*
X26181445Y-11078822D01*
X26393579Y-11078822D01*
X26369686Y-3232452D02*
X26669686Y-3532452D01*
X26669686Y-3232452D02*
X26369686Y-3532452D01*
X26625753Y-3488519D02*
X26625753Y-3276385D01*
X26413619Y-3276385D01*
X26413619Y-3488519D01*
X26625753Y-3488519D01*
X26869686Y-3452452D02*
X27169686Y-3752452D01*
X27169686Y-3452452D02*
X26869686Y-3752452D01*
X27125753Y-3708519D02*
X27125753Y-3496385D01*
X26913619Y-3496385D01*
X26913619Y-3708519D01*
X27125753Y-3708519D01*
X27059285Y-5799373D02*
X27359285Y-6099373D01*
X27359285Y-5799373D02*
X27059285Y-6099373D01*
X27315352Y-6055440D02*
X27315352Y-5843306D01*
X27103218Y-5843306D01*
X27103218Y-6055440D01*
X27315352Y-6055440D01*
X27559285Y-6019373D02*
X27859285Y-6319373D01*
X27859285Y-6019373D02*
X27559285Y-6319373D01*
X27815352Y-6275440D02*
X27815352Y-6063306D01*
X27603218Y-6063306D01*
X27603218Y-6275440D01*
X27815352Y-6275440D01*
X29185567Y-2785933D02*
X29485567Y-3085933D01*
X29485567Y-2785933D02*
X29185567Y-3085933D01*
X29441634Y-3042000D02*
X29441634Y-2829866D01*
X29229500Y-2829866D01*
X29229500Y-3042000D01*
X29441634Y-3042000D01*
X29685567Y-3005933D02*
X29985567Y-3305933D01*
X29985567Y-3005933D02*
X29685567Y-3305933D01*
X29941634Y-3262000D02*
X29941634Y-3049866D01*
X29729500Y-3049866D01*
X29729500Y-3262000D01*
X29941634Y-3262000D01*
X29875167Y-5352855D02*
X30175167Y-5652854D01*
X30175167Y-5352855D02*
X29875167Y-5652854D01*
X30131234Y-5608921D02*
X30131234Y-5396788D01*
X29919100Y-5396788D01*
X29919100Y-5608921D01*
X30131234Y-5608921D01*
X30375167Y-5572855D02*
X30675167Y-5872854D01*
X30675167Y-5572855D02*
X30375167Y-5872854D01*
X30631234Y-5828921D02*
X30631234Y-5616787D01*
X30419100Y-5616787D01*
X30419100Y-5828921D01*
X30631234Y-5828921D01*
X32133557Y-3656191D02*
X32433557Y-3956191D01*
X32433557Y-3656191D02*
X32133557Y-3956191D01*
X32389624Y-3912258D02*
X32389624Y-3700124D01*
X32177490Y-3700124D01*
X32177490Y-3912258D01*
X32389624Y-3912258D01*
X32633557Y-3876191D02*
X32933557Y-4176191D01*
X32933557Y-3876191D02*
X32633557Y-4176191D01*
X32889624Y-4132258D02*
X32889624Y-3920124D01*
X32677490Y-3920124D01*
X32677490Y-4132258D01*
X32889624Y-4132258D01*
X32823156Y-6223112D02*
X33123156Y-6523112D01*
X33123156Y-6223112D02*
X32823156Y-6523112D01*
X33079223Y-6479179D02*
X33079223Y-6267045D01*
X32867089Y-6267045D01*
X32867089Y-6479179D01*
X33079223Y-6479179D01*
X33323156Y-6443112D02*
X33623156Y-6743112D01*
X33623156Y-6443112D02*
X33323156Y-6743112D01*
X33579223Y-6699179D02*
X33579223Y-6487045D01*
X33367089Y-6487045D01*
X33367089Y-6699179D01*
X33579223Y-6699179D01*
D11*
X5978619Y-16460476D02*
X5978619Y-16260476D01*
X5978619Y-16260476D02*
X6026238Y-16260476D01*
X6026238Y-16260476D02*
X6054809Y-16270000D01*
X6054809Y-16270000D02*
X6073857Y-16289048D01*
X6073857Y-16289048D02*
X6083381Y-16308095D01*
X6083381Y-16308095D02*
X6092905Y-16346190D01*
X6092905Y-16346190D02*
X6092905Y-16374762D01*
X6092905Y-16374762D02*
X6083381Y-16412857D01*
X6083381Y-16412857D02*
X6073857Y-16431905D01*
X6073857Y-16431905D02*
X6054809Y-16450952D01*
X6054809Y-16450952D02*
X6026238Y-16460476D01*
X6026238Y-16460476D02*
X5978619Y-16460476D01*
X6178619Y-16460476D02*
X6178619Y-16327143D01*
X6178619Y-16365238D02*
X6188143Y-16346190D01*
X6188143Y-16346190D02*
X6197667Y-16336667D01*
X6197667Y-16336667D02*
X6216714Y-16327143D01*
X6216714Y-16327143D02*
X6235762Y-16327143D01*
X6302428Y-16460476D02*
X6302428Y-16327143D01*
X6302428Y-16260476D02*
X6292905Y-16270000D01*
X6292905Y-16270000D02*
X6302428Y-16279524D01*
X6302428Y-16279524D02*
X6311952Y-16270000D01*
X6311952Y-16270000D02*
X6302428Y-16260476D01*
X6302428Y-16260476D02*
X6302428Y-16279524D01*
X6426238Y-16460476D02*
X6407190Y-16450952D01*
X6407190Y-16450952D02*
X6397667Y-16431905D01*
X6397667Y-16431905D02*
X6397667Y-16260476D01*
X6531000Y-16460476D02*
X6511952Y-16450952D01*
X6511952Y-16450952D02*
X6502428Y-16431905D01*
X6502428Y-16431905D02*
X6502428Y-16260476D01*
X6727190Y-16460476D02*
X6727190Y-16260476D01*
X6727190Y-16260476D02*
X6793857Y-16403333D01*
X6793857Y-16403333D02*
X6860524Y-16260476D01*
X6860524Y-16260476D02*
X6860524Y-16460476D01*
X7041476Y-16460476D02*
X7041476Y-16355714D01*
X7041476Y-16355714D02*
X7031952Y-16336667D01*
X7031952Y-16336667D02*
X7012905Y-16327143D01*
X7012905Y-16327143D02*
X6974809Y-16327143D01*
X6974809Y-16327143D02*
X6955762Y-16336667D01*
X7041476Y-16450952D02*
X7022428Y-16460476D01*
X7022428Y-16460476D02*
X6974809Y-16460476D01*
X6974809Y-16460476D02*
X6955762Y-16450952D01*
X6955762Y-16450952D02*
X6946238Y-16431905D01*
X6946238Y-16431905D02*
X6946238Y-16412857D01*
X6946238Y-16412857D02*
X6955762Y-16393809D01*
X6955762Y-16393809D02*
X6974809Y-16384286D01*
X6974809Y-16384286D02*
X7022428Y-16384286D01*
X7022428Y-16384286D02*
X7041476Y-16374762D01*
X7136714Y-16327143D02*
X7136714Y-16527143D01*
X7136714Y-16336667D02*
X7155762Y-16327143D01*
X7155762Y-16327143D02*
X7193857Y-16327143D01*
X7193857Y-16327143D02*
X7212905Y-16336667D01*
X7212905Y-16336667D02*
X7222428Y-16346190D01*
X7222428Y-16346190D02*
X7231952Y-16365238D01*
X7231952Y-16365238D02*
X7231952Y-16422381D01*
X7231952Y-16422381D02*
X7222428Y-16441428D01*
X7222428Y-16441428D02*
X7212905Y-16450952D01*
X7212905Y-16450952D02*
X7193857Y-16460476D01*
X7193857Y-16460476D02*
X7155762Y-16460476D01*
X7155762Y-16460476D02*
X7136714Y-16450952D01*
X7317667Y-16441428D02*
X7327190Y-16450952D01*
X7327190Y-16450952D02*
X7317667Y-16460476D01*
X7317667Y-16460476D02*
X7308143Y-16450952D01*
X7308143Y-16450952D02*
X7317667Y-16441428D01*
X7317667Y-16441428D02*
X7317667Y-16460476D01*
X7317667Y-16336667D02*
X7327190Y-16346190D01*
X7327190Y-16346190D02*
X7317667Y-16355714D01*
X7317667Y-16355714D02*
X7308143Y-16346190D01*
X7308143Y-16346190D02*
X7317667Y-16336667D01*
X7317667Y-16336667D02*
X7317667Y-16355714D01*
D12*
X5701000Y-16792000D02*
X5731000Y-16822000D01*
X5731000Y-16792000D02*
X5701000Y-16822000D01*
D11*
X6016714Y-16680476D02*
X6035762Y-16680476D01*
X6035762Y-16680476D02*
X6054809Y-16690000D01*
X6054809Y-16690000D02*
X6064333Y-16699524D01*
X6064333Y-16699524D02*
X6073857Y-16718571D01*
X6073857Y-16718571D02*
X6083381Y-16756667D01*
X6083381Y-16756667D02*
X6083381Y-16804286D01*
X6083381Y-16804286D02*
X6073857Y-16842381D01*
X6073857Y-16842381D02*
X6064333Y-16861429D01*
X6064333Y-16861429D02*
X6054809Y-16870952D01*
X6054809Y-16870952D02*
X6035762Y-16880476D01*
X6035762Y-16880476D02*
X6016714Y-16880476D01*
X6016714Y-16880476D02*
X5997667Y-16870952D01*
X5997667Y-16870952D02*
X5988143Y-16861429D01*
X5988143Y-16861429D02*
X5978619Y-16842381D01*
X5978619Y-16842381D02*
X5969095Y-16804286D01*
X5969095Y-16804286D02*
X5969095Y-16756667D01*
X5969095Y-16756667D02*
X5978619Y-16718571D01*
X5978619Y-16718571D02*
X5988143Y-16699524D01*
X5988143Y-16699524D02*
X5997667Y-16690000D01*
X5997667Y-16690000D02*
X6016714Y-16680476D01*
X6169095Y-16861429D02*
X6178619Y-16870952D01*
X6178619Y-16870952D02*
X6169095Y-16880476D01*
X6169095Y-16880476D02*
X6159571Y-16870952D01*
X6159571Y-16870952D02*
X6169095Y-16861429D01*
X6169095Y-16861429D02*
X6169095Y-16880476D01*
X6245286Y-16680476D02*
X6369095Y-16680476D01*
X6369095Y-16680476D02*
X6302428Y-16756667D01*
X6302428Y-16756667D02*
X6331000Y-16756667D01*
X6331000Y-16756667D02*
X6350048Y-16766190D01*
X6350048Y-16766190D02*
X6359571Y-16775714D01*
X6359571Y-16775714D02*
X6369095Y-16794762D01*
X6369095Y-16794762D02*
X6369095Y-16842381D01*
X6369095Y-16842381D02*
X6359571Y-16861429D01*
X6359571Y-16861429D02*
X6350048Y-16870952D01*
X6350048Y-16870952D02*
X6331000Y-16880476D01*
X6331000Y-16880476D02*
X6273857Y-16880476D01*
X6273857Y-16880476D02*
X6254809Y-16870952D01*
X6254809Y-16870952D02*
X6245286Y-16861429D01*
X6492905Y-16680476D02*
X6511952Y-16680476D01*
X6511952Y-16680476D02*
X6531000Y-16690000D01*
X6531000Y-16690000D02*
X6540524Y-16699524D01*
X6540524Y-16699524D02*
X6550048Y-16718571D01*
X6550048Y-16718571D02*
X6559571Y-16756667D01*
X6559571Y-16756667D02*
X6559571Y-16804286D01*
X6559571Y-16804286D02*
X6550048Y-16842381D01*
X6550048Y-16842381D02*
X6540524Y-16861429D01*
X6540524Y-16861429D02*
X6531000Y-16870952D01*
X6531000Y-16870952D02*
X6511952Y-16880476D01*
X6511952Y-16880476D02*
X6492905Y-16880476D01*
X6492905Y-16880476D02*
X6473857Y-16870952D01*
X6473857Y-16870952D02*
X6464333Y-16861429D01*
X6464333Y-16861429D02*
X6454809Y-16842381D01*
X6454809Y-16842381D02*
X6445286Y-16804286D01*
X6445286Y-16804286D02*
X6445286Y-16756667D01*
X6445286Y-16756667D02*
X6454809Y-16718571D01*
X6454809Y-16718571D02*
X6464333Y-16699524D01*
X6464333Y-16699524D02*
X6473857Y-16690000D01*
X6473857Y-16690000D02*
X6492905Y-16680476D01*
X6683381Y-16680476D02*
X6702429Y-16680476D01*
X6702429Y-16680476D02*
X6721476Y-16690000D01*
X6721476Y-16690000D02*
X6731000Y-16699524D01*
X6731000Y-16699524D02*
X6740524Y-16718571D01*
X6740524Y-16718571D02*
X6750048Y-16756667D01*
X6750048Y-16756667D02*
X6750048Y-16804286D01*
X6750048Y-16804286D02*
X6740524Y-16842381D01*
X6740524Y-16842381D02*
X6731000Y-16861429D01*
X6731000Y-16861429D02*
X6721476Y-16870952D01*
X6721476Y-16870952D02*
X6702429Y-16880476D01*
X6702429Y-16880476D02*
X6683381Y-16880476D01*
X6683381Y-16880476D02*
X6664333Y-16870952D01*
X6664333Y-16870952D02*
X6654809Y-16861429D01*
X6654809Y-16861429D02*
X6645286Y-16842381D01*
X6645286Y-16842381D02*
X6635762Y-16804286D01*
X6635762Y-16804286D02*
X6635762Y-16756667D01*
X6635762Y-16756667D02*
X6645286Y-16718571D01*
X6645286Y-16718571D02*
X6654809Y-16699524D01*
X6654809Y-16699524D02*
X6664333Y-16690000D01*
X6664333Y-16690000D02*
X6683381Y-16680476D01*
X6835762Y-16880476D02*
X6835762Y-16747143D01*
X6835762Y-16766190D02*
X6845286Y-16756667D01*
X6845286Y-16756667D02*
X6864333Y-16747143D01*
X6864333Y-16747143D02*
X6892905Y-16747143D01*
X6892905Y-16747143D02*
X6911952Y-16756667D01*
X6911952Y-16756667D02*
X6921476Y-16775714D01*
X6921476Y-16775714D02*
X6921476Y-16880476D01*
X6921476Y-16775714D02*
X6931000Y-16756667D01*
X6931000Y-16756667D02*
X6950048Y-16747143D01*
X6950048Y-16747143D02*
X6978619Y-16747143D01*
X6978619Y-16747143D02*
X6997667Y-16756667D01*
X6997667Y-16756667D02*
X7007190Y-16775714D01*
X7007190Y-16775714D02*
X7007190Y-16880476D01*
X7102429Y-16880476D02*
X7102429Y-16747143D01*
X7102429Y-16766190D02*
X7111952Y-16756667D01*
X7111952Y-16756667D02*
X7131000Y-16747143D01*
X7131000Y-16747143D02*
X7159571Y-16747143D01*
X7159571Y-16747143D02*
X7178619Y-16756667D01*
X7178619Y-16756667D02*
X7188143Y-16775714D01*
X7188143Y-16775714D02*
X7188143Y-16880476D01*
X7188143Y-16775714D02*
X7197667Y-16756667D01*
X7197667Y-16756667D02*
X7216714Y-16747143D01*
X7216714Y-16747143D02*
X7245286Y-16747143D01*
X7245286Y-16747143D02*
X7264333Y-16756667D01*
X7264333Y-16756667D02*
X7273857Y-16775714D01*
X7273857Y-16775714D02*
X7273857Y-16880476D01*
X7631952Y-16670952D02*
X7460524Y-16928095D01*
X7856714Y-16680476D02*
X7875762Y-16680476D01*
X7875762Y-16680476D02*
X7894810Y-16690000D01*
X7894810Y-16690000D02*
X7904333Y-16699524D01*
X7904333Y-16699524D02*
X7913857Y-16718571D01*
X7913857Y-16718571D02*
X7923381Y-16756667D01*
X7923381Y-16756667D02*
X7923381Y-16804286D01*
X7923381Y-16804286D02*
X7913857Y-16842381D01*
X7913857Y-16842381D02*
X7904333Y-16861429D01*
X7904333Y-16861429D02*
X7894810Y-16870952D01*
X7894810Y-16870952D02*
X7875762Y-16880476D01*
X7875762Y-16880476D02*
X7856714Y-16880476D01*
X7856714Y-16880476D02*
X7837667Y-16870952D01*
X7837667Y-16870952D02*
X7828143Y-16861429D01*
X7828143Y-16861429D02*
X7818619Y-16842381D01*
X7818619Y-16842381D02*
X7809095Y-16804286D01*
X7809095Y-16804286D02*
X7809095Y-16756667D01*
X7809095Y-16756667D02*
X7818619Y-16718571D01*
X7818619Y-16718571D02*
X7828143Y-16699524D01*
X7828143Y-16699524D02*
X7837667Y-16690000D01*
X7837667Y-16690000D02*
X7856714Y-16680476D01*
X8009095Y-16861429D02*
X8018619Y-16870952D01*
X8018619Y-16870952D02*
X8009095Y-16880476D01*
X8009095Y-16880476D02*
X7999571Y-16870952D01*
X7999571Y-16870952D02*
X8009095Y-16861429D01*
X8009095Y-16861429D02*
X8009095Y-16880476D01*
X8142429Y-16680476D02*
X8161476Y-16680476D01*
X8161476Y-16680476D02*
X8180524Y-16690000D01*
X8180524Y-16690000D02*
X8190048Y-16699524D01*
X8190048Y-16699524D02*
X8199571Y-16718571D01*
X8199571Y-16718571D02*
X8209095Y-16756667D01*
X8209095Y-16756667D02*
X8209095Y-16804286D01*
X8209095Y-16804286D02*
X8199571Y-16842381D01*
X8199571Y-16842381D02*
X8190048Y-16861429D01*
X8190048Y-16861429D02*
X8180524Y-16870952D01*
X8180524Y-16870952D02*
X8161476Y-16880476D01*
X8161476Y-16880476D02*
X8142429Y-16880476D01*
X8142429Y-16880476D02*
X8123381Y-16870952D01*
X8123381Y-16870952D02*
X8113857Y-16861429D01*
X8113857Y-16861429D02*
X8104333Y-16842381D01*
X8104333Y-16842381D02*
X8094810Y-16804286D01*
X8094810Y-16804286D02*
X8094810Y-16756667D01*
X8094810Y-16756667D02*
X8104333Y-16718571D01*
X8104333Y-16718571D02*
X8113857Y-16699524D01*
X8113857Y-16699524D02*
X8123381Y-16690000D01*
X8123381Y-16690000D02*
X8142429Y-16680476D01*
X8399572Y-16880476D02*
X8285286Y-16880476D01*
X8342429Y-16880476D02*
X8342429Y-16680476D01*
X8342429Y-16680476D02*
X8323381Y-16709048D01*
X8323381Y-16709048D02*
X8304333Y-16728095D01*
X8304333Y-16728095D02*
X8285286Y-16737619D01*
X8590048Y-16880476D02*
X8475762Y-16880476D01*
X8532905Y-16880476D02*
X8532905Y-16680476D01*
X8532905Y-16680476D02*
X8513857Y-16709048D01*
X8513857Y-16709048D02*
X8494810Y-16728095D01*
X8494810Y-16728095D02*
X8475762Y-16737619D01*
X8704333Y-16766190D02*
X8685286Y-16756667D01*
X8685286Y-16756667D02*
X8675762Y-16747143D01*
X8675762Y-16747143D02*
X8666238Y-16728095D01*
X8666238Y-16728095D02*
X8666238Y-16718571D01*
X8666238Y-16718571D02*
X8675762Y-16699524D01*
X8675762Y-16699524D02*
X8685286Y-16690000D01*
X8685286Y-16690000D02*
X8704333Y-16680476D01*
X8704333Y-16680476D02*
X8742429Y-16680476D01*
X8742429Y-16680476D02*
X8761476Y-16690000D01*
X8761476Y-16690000D02*
X8771000Y-16699524D01*
X8771000Y-16699524D02*
X8780524Y-16718571D01*
X8780524Y-16718571D02*
X8780524Y-16728095D01*
X8780524Y-16728095D02*
X8771000Y-16747143D01*
X8771000Y-16747143D02*
X8761476Y-16756667D01*
X8761476Y-16756667D02*
X8742429Y-16766190D01*
X8742429Y-16766190D02*
X8704333Y-16766190D01*
X8704333Y-16766190D02*
X8685286Y-16775714D01*
X8685286Y-16775714D02*
X8675762Y-16785238D01*
X8675762Y-16785238D02*
X8666238Y-16804286D01*
X8666238Y-16804286D02*
X8666238Y-16842381D01*
X8666238Y-16842381D02*
X8675762Y-16861429D01*
X8675762Y-16861429D02*
X8685286Y-16870952D01*
X8685286Y-16870952D02*
X8704333Y-16880476D01*
X8704333Y-16880476D02*
X8742429Y-16880476D01*
X8742429Y-16880476D02*
X8761476Y-16870952D01*
X8761476Y-16870952D02*
X8771000Y-16861429D01*
X8771000Y-16861429D02*
X8780524Y-16842381D01*
X8780524Y-16842381D02*
X8780524Y-16804286D01*
X8780524Y-16804286D02*
X8771000Y-16785238D01*
X8771000Y-16785238D02*
X8761476Y-16775714D01*
X8761476Y-16775714D02*
X8742429Y-16766190D01*
X8856714Y-16680476D02*
X8856714Y-16718571D01*
X8932905Y-16680476D02*
X8932905Y-16718571D01*
X9195762Y-16956667D02*
X9186238Y-16947143D01*
X9186238Y-16947143D02*
X9167191Y-16918571D01*
X9167191Y-16918571D02*
X9157667Y-16899524D01*
X9157667Y-16899524D02*
X9148143Y-16870952D01*
X9148143Y-16870952D02*
X9138619Y-16823333D01*
X9138619Y-16823333D02*
X9138619Y-16785238D01*
X9138619Y-16785238D02*
X9148143Y-16737619D01*
X9148143Y-16737619D02*
X9157667Y-16709048D01*
X9157667Y-16709048D02*
X9167191Y-16690000D01*
X9167191Y-16690000D02*
X9186238Y-16661428D01*
X9186238Y-16661428D02*
X9195762Y-16651905D01*
X9357667Y-16747143D02*
X9357667Y-16880476D01*
X9310048Y-16670952D02*
X9262429Y-16813810D01*
X9262429Y-16813810D02*
X9386238Y-16813810D01*
X9443381Y-16680476D02*
X9576714Y-16680476D01*
X9576714Y-16680476D02*
X9491000Y-16880476D01*
X9772905Y-16880476D02*
X9772905Y-16680476D01*
X9858619Y-16880476D02*
X9858619Y-16775714D01*
X9858619Y-16775714D02*
X9849095Y-16756667D01*
X9849095Y-16756667D02*
X9830048Y-16747143D01*
X9830048Y-16747143D02*
X9801476Y-16747143D01*
X9801476Y-16747143D02*
X9782429Y-16756667D01*
X9782429Y-16756667D02*
X9772905Y-16766190D01*
X9982429Y-16880476D02*
X9963381Y-16870952D01*
X9963381Y-16870952D02*
X9953857Y-16861429D01*
X9953857Y-16861429D02*
X9944334Y-16842381D01*
X9944334Y-16842381D02*
X9944334Y-16785238D01*
X9944334Y-16785238D02*
X9953857Y-16766190D01*
X9953857Y-16766190D02*
X9963381Y-16756667D01*
X9963381Y-16756667D02*
X9982429Y-16747143D01*
X9982429Y-16747143D02*
X10011000Y-16747143D01*
X10011000Y-16747143D02*
X10030048Y-16756667D01*
X10030048Y-16756667D02*
X10039572Y-16766190D01*
X10039572Y-16766190D02*
X10049095Y-16785238D01*
X10049095Y-16785238D02*
X10049095Y-16842381D01*
X10049095Y-16842381D02*
X10039572Y-16861429D01*
X10039572Y-16861429D02*
X10030048Y-16870952D01*
X10030048Y-16870952D02*
X10011000Y-16880476D01*
X10011000Y-16880476D02*
X9982429Y-16880476D01*
X10163381Y-16880476D02*
X10144334Y-16870952D01*
X10144334Y-16870952D02*
X10134810Y-16851905D01*
X10134810Y-16851905D02*
X10134810Y-16680476D01*
X10315762Y-16870952D02*
X10296715Y-16880476D01*
X10296715Y-16880476D02*
X10258619Y-16880476D01*
X10258619Y-16880476D02*
X10239572Y-16870952D01*
X10239572Y-16870952D02*
X10230048Y-16851905D01*
X10230048Y-16851905D02*
X10230048Y-16775714D01*
X10230048Y-16775714D02*
X10239572Y-16756667D01*
X10239572Y-16756667D02*
X10258619Y-16747143D01*
X10258619Y-16747143D02*
X10296715Y-16747143D01*
X10296715Y-16747143D02*
X10315762Y-16756667D01*
X10315762Y-16756667D02*
X10325286Y-16775714D01*
X10325286Y-16775714D02*
X10325286Y-16794762D01*
X10325286Y-16794762D02*
X10230048Y-16813810D01*
X10401476Y-16870952D02*
X10420524Y-16880476D01*
X10420524Y-16880476D02*
X10458619Y-16880476D01*
X10458619Y-16880476D02*
X10477667Y-16870952D01*
X10477667Y-16870952D02*
X10487191Y-16851905D01*
X10487191Y-16851905D02*
X10487191Y-16842381D01*
X10487191Y-16842381D02*
X10477667Y-16823333D01*
X10477667Y-16823333D02*
X10458619Y-16813810D01*
X10458619Y-16813810D02*
X10430048Y-16813810D01*
X10430048Y-16813810D02*
X10411000Y-16804286D01*
X10411000Y-16804286D02*
X10401476Y-16785238D01*
X10401476Y-16785238D02*
X10401476Y-16775714D01*
X10401476Y-16775714D02*
X10411000Y-16756667D01*
X10411000Y-16756667D02*
X10430048Y-16747143D01*
X10430048Y-16747143D02*
X10458619Y-16747143D01*
X10458619Y-16747143D02*
X10477667Y-16756667D01*
X10553857Y-16956667D02*
X10563381Y-16947143D01*
X10563381Y-16947143D02*
X10582429Y-16918571D01*
X10582429Y-16918571D02*
X10591953Y-16899524D01*
X10591953Y-16899524D02*
X10601476Y-16870952D01*
X10601476Y-16870952D02*
X10611000Y-16823333D01*
X10611000Y-16823333D02*
X10611000Y-16785238D01*
X10611000Y-16785238D02*
X10601476Y-16737619D01*
X10601476Y-16737619D02*
X10591953Y-16709048D01*
X10591953Y-16709048D02*
X10582429Y-16690000D01*
X10582429Y-16690000D02*
X10563381Y-16661428D01*
X10563381Y-16661428D02*
X10553857Y-16651905D01*
D13*
X5731000Y-17071000D02*
G75*
G03*
X5731000Y-17071000I-17500J0D01*
G01*
D11*
X6016714Y-16944476D02*
X6035762Y-16944476D01*
X6035762Y-16944476D02*
X6054809Y-16954000D01*
X6054809Y-16954000D02*
X6064333Y-16963524D01*
X6064333Y-16963524D02*
X6073857Y-16982571D01*
X6073857Y-16982571D02*
X6083381Y-17020667D01*
X6083381Y-17020667D02*
X6083381Y-17068286D01*
X6083381Y-17068286D02*
X6073857Y-17106381D01*
X6073857Y-17106381D02*
X6064333Y-17125429D01*
X6064333Y-17125429D02*
X6054809Y-17134952D01*
X6054809Y-17134952D02*
X6035762Y-17144476D01*
X6035762Y-17144476D02*
X6016714Y-17144476D01*
X6016714Y-17144476D02*
X5997667Y-17134952D01*
X5997667Y-17134952D02*
X5988143Y-17125429D01*
X5988143Y-17125429D02*
X5978619Y-17106381D01*
X5978619Y-17106381D02*
X5969095Y-17068286D01*
X5969095Y-17068286D02*
X5969095Y-17020667D01*
X5969095Y-17020667D02*
X5978619Y-16982571D01*
X5978619Y-16982571D02*
X5988143Y-16963524D01*
X5988143Y-16963524D02*
X5997667Y-16954000D01*
X5997667Y-16954000D02*
X6016714Y-16944476D01*
X6169095Y-17125429D02*
X6178619Y-17134952D01*
X6178619Y-17134952D02*
X6169095Y-17144476D01*
X6169095Y-17144476D02*
X6159571Y-17134952D01*
X6159571Y-17134952D02*
X6169095Y-17125429D01*
X6169095Y-17125429D02*
X6169095Y-17144476D01*
X6245286Y-16944476D02*
X6369095Y-16944476D01*
X6369095Y-16944476D02*
X6302428Y-17020667D01*
X6302428Y-17020667D02*
X6331000Y-17020667D01*
X6331000Y-17020667D02*
X6350048Y-17030190D01*
X6350048Y-17030190D02*
X6359571Y-17039714D01*
X6359571Y-17039714D02*
X6369095Y-17058762D01*
X6369095Y-17058762D02*
X6369095Y-17106381D01*
X6369095Y-17106381D02*
X6359571Y-17125429D01*
X6359571Y-17125429D02*
X6350048Y-17134952D01*
X6350048Y-17134952D02*
X6331000Y-17144476D01*
X6331000Y-17144476D02*
X6273857Y-17144476D01*
X6273857Y-17144476D02*
X6254809Y-17134952D01*
X6254809Y-17134952D02*
X6245286Y-17125429D01*
X6550048Y-16944476D02*
X6454809Y-16944476D01*
X6454809Y-16944476D02*
X6445286Y-17039714D01*
X6445286Y-17039714D02*
X6454809Y-17030190D01*
X6454809Y-17030190D02*
X6473857Y-17020667D01*
X6473857Y-17020667D02*
X6521476Y-17020667D01*
X6521476Y-17020667D02*
X6540524Y-17030190D01*
X6540524Y-17030190D02*
X6550048Y-17039714D01*
X6550048Y-17039714D02*
X6559571Y-17058762D01*
X6559571Y-17058762D02*
X6559571Y-17106381D01*
X6559571Y-17106381D02*
X6550048Y-17125429D01*
X6550048Y-17125429D02*
X6540524Y-17134952D01*
X6540524Y-17134952D02*
X6521476Y-17144476D01*
X6521476Y-17144476D02*
X6473857Y-17144476D01*
X6473857Y-17144476D02*
X6454809Y-17134952D01*
X6454809Y-17134952D02*
X6445286Y-17125429D01*
X6683381Y-16944476D02*
X6702429Y-16944476D01*
X6702429Y-16944476D02*
X6721476Y-16954000D01*
X6721476Y-16954000D02*
X6731000Y-16963524D01*
X6731000Y-16963524D02*
X6740524Y-16982571D01*
X6740524Y-16982571D02*
X6750048Y-17020667D01*
X6750048Y-17020667D02*
X6750048Y-17068286D01*
X6750048Y-17068286D02*
X6740524Y-17106381D01*
X6740524Y-17106381D02*
X6731000Y-17125429D01*
X6731000Y-17125429D02*
X6721476Y-17134952D01*
X6721476Y-17134952D02*
X6702429Y-17144476D01*
X6702429Y-17144476D02*
X6683381Y-17144476D01*
X6683381Y-17144476D02*
X6664333Y-17134952D01*
X6664333Y-17134952D02*
X6654809Y-17125429D01*
X6654809Y-17125429D02*
X6645286Y-17106381D01*
X6645286Y-17106381D02*
X6635762Y-17068286D01*
X6635762Y-17068286D02*
X6635762Y-17020667D01*
X6635762Y-17020667D02*
X6645286Y-16982571D01*
X6645286Y-16982571D02*
X6654809Y-16963524D01*
X6654809Y-16963524D02*
X6664333Y-16954000D01*
X6664333Y-16954000D02*
X6683381Y-16944476D01*
X6835762Y-17144476D02*
X6835762Y-17011143D01*
X6835762Y-17030190D02*
X6845286Y-17020667D01*
X6845286Y-17020667D02*
X6864333Y-17011143D01*
X6864333Y-17011143D02*
X6892905Y-17011143D01*
X6892905Y-17011143D02*
X6911952Y-17020667D01*
X6911952Y-17020667D02*
X6921476Y-17039714D01*
X6921476Y-17039714D02*
X6921476Y-17144476D01*
X6921476Y-17039714D02*
X6931000Y-17020667D01*
X6931000Y-17020667D02*
X6950048Y-17011143D01*
X6950048Y-17011143D02*
X6978619Y-17011143D01*
X6978619Y-17011143D02*
X6997667Y-17020667D01*
X6997667Y-17020667D02*
X7007190Y-17039714D01*
X7007190Y-17039714D02*
X7007190Y-17144476D01*
X7102429Y-17144476D02*
X7102429Y-17011143D01*
X7102429Y-17030190D02*
X7111952Y-17020667D01*
X7111952Y-17020667D02*
X7131000Y-17011143D01*
X7131000Y-17011143D02*
X7159571Y-17011143D01*
X7159571Y-17011143D02*
X7178619Y-17020667D01*
X7178619Y-17020667D02*
X7188143Y-17039714D01*
X7188143Y-17039714D02*
X7188143Y-17144476D01*
X7188143Y-17039714D02*
X7197667Y-17020667D01*
X7197667Y-17020667D02*
X7216714Y-17011143D01*
X7216714Y-17011143D02*
X7245286Y-17011143D01*
X7245286Y-17011143D02*
X7264333Y-17020667D01*
X7264333Y-17020667D02*
X7273857Y-17039714D01*
X7273857Y-17039714D02*
X7273857Y-17144476D01*
X7631952Y-16934952D02*
X7460524Y-17192095D01*
X7856714Y-16944476D02*
X7875762Y-16944476D01*
X7875762Y-16944476D02*
X7894810Y-16954000D01*
X7894810Y-16954000D02*
X7904333Y-16963524D01*
X7904333Y-16963524D02*
X7913857Y-16982571D01*
X7913857Y-16982571D02*
X7923381Y-17020667D01*
X7923381Y-17020667D02*
X7923381Y-17068286D01*
X7923381Y-17068286D02*
X7913857Y-17106381D01*
X7913857Y-17106381D02*
X7904333Y-17125429D01*
X7904333Y-17125429D02*
X7894810Y-17134952D01*
X7894810Y-17134952D02*
X7875762Y-17144476D01*
X7875762Y-17144476D02*
X7856714Y-17144476D01*
X7856714Y-17144476D02*
X7837667Y-17134952D01*
X7837667Y-17134952D02*
X7828143Y-17125429D01*
X7828143Y-17125429D02*
X7818619Y-17106381D01*
X7818619Y-17106381D02*
X7809095Y-17068286D01*
X7809095Y-17068286D02*
X7809095Y-17020667D01*
X7809095Y-17020667D02*
X7818619Y-16982571D01*
X7818619Y-16982571D02*
X7828143Y-16963524D01*
X7828143Y-16963524D02*
X7837667Y-16954000D01*
X7837667Y-16954000D02*
X7856714Y-16944476D01*
X8009095Y-17125429D02*
X8018619Y-17134952D01*
X8018619Y-17134952D02*
X8009095Y-17144476D01*
X8009095Y-17144476D02*
X7999571Y-17134952D01*
X7999571Y-17134952D02*
X8009095Y-17125429D01*
X8009095Y-17125429D02*
X8009095Y-17144476D01*
X8142429Y-16944476D02*
X8161476Y-16944476D01*
X8161476Y-16944476D02*
X8180524Y-16954000D01*
X8180524Y-16954000D02*
X8190048Y-16963524D01*
X8190048Y-16963524D02*
X8199571Y-16982571D01*
X8199571Y-16982571D02*
X8209095Y-17020667D01*
X8209095Y-17020667D02*
X8209095Y-17068286D01*
X8209095Y-17068286D02*
X8199571Y-17106381D01*
X8199571Y-17106381D02*
X8190048Y-17125429D01*
X8190048Y-17125429D02*
X8180524Y-17134952D01*
X8180524Y-17134952D02*
X8161476Y-17144476D01*
X8161476Y-17144476D02*
X8142429Y-17144476D01*
X8142429Y-17144476D02*
X8123381Y-17134952D01*
X8123381Y-17134952D02*
X8113857Y-17125429D01*
X8113857Y-17125429D02*
X8104333Y-17106381D01*
X8104333Y-17106381D02*
X8094810Y-17068286D01*
X8094810Y-17068286D02*
X8094810Y-17020667D01*
X8094810Y-17020667D02*
X8104333Y-16982571D01*
X8104333Y-16982571D02*
X8113857Y-16963524D01*
X8113857Y-16963524D02*
X8123381Y-16954000D01*
X8123381Y-16954000D02*
X8142429Y-16944476D01*
X8399572Y-17144476D02*
X8285286Y-17144476D01*
X8342429Y-17144476D02*
X8342429Y-16944476D01*
X8342429Y-16944476D02*
X8323381Y-16973048D01*
X8323381Y-16973048D02*
X8304333Y-16992095D01*
X8304333Y-16992095D02*
X8285286Y-17001619D01*
X8466238Y-16944476D02*
X8590048Y-16944476D01*
X8590048Y-16944476D02*
X8523381Y-17020667D01*
X8523381Y-17020667D02*
X8551953Y-17020667D01*
X8551953Y-17020667D02*
X8571000Y-17030190D01*
X8571000Y-17030190D02*
X8580524Y-17039714D01*
X8580524Y-17039714D02*
X8590048Y-17058762D01*
X8590048Y-17058762D02*
X8590048Y-17106381D01*
X8590048Y-17106381D02*
X8580524Y-17125429D01*
X8580524Y-17125429D02*
X8571000Y-17134952D01*
X8571000Y-17134952D02*
X8551953Y-17144476D01*
X8551953Y-17144476D02*
X8494810Y-17144476D01*
X8494810Y-17144476D02*
X8475762Y-17134952D01*
X8475762Y-17134952D02*
X8466238Y-17125429D01*
X8704333Y-17030190D02*
X8685286Y-17020667D01*
X8685286Y-17020667D02*
X8675762Y-17011143D01*
X8675762Y-17011143D02*
X8666238Y-16992095D01*
X8666238Y-16992095D02*
X8666238Y-16982571D01*
X8666238Y-16982571D02*
X8675762Y-16963524D01*
X8675762Y-16963524D02*
X8685286Y-16954000D01*
X8685286Y-16954000D02*
X8704333Y-16944476D01*
X8704333Y-16944476D02*
X8742429Y-16944476D01*
X8742429Y-16944476D02*
X8761476Y-16954000D01*
X8761476Y-16954000D02*
X8771000Y-16963524D01*
X8771000Y-16963524D02*
X8780524Y-16982571D01*
X8780524Y-16982571D02*
X8780524Y-16992095D01*
X8780524Y-16992095D02*
X8771000Y-17011143D01*
X8771000Y-17011143D02*
X8761476Y-17020667D01*
X8761476Y-17020667D02*
X8742429Y-17030190D01*
X8742429Y-17030190D02*
X8704333Y-17030190D01*
X8704333Y-17030190D02*
X8685286Y-17039714D01*
X8685286Y-17039714D02*
X8675762Y-17049238D01*
X8675762Y-17049238D02*
X8666238Y-17068286D01*
X8666238Y-17068286D02*
X8666238Y-17106381D01*
X8666238Y-17106381D02*
X8675762Y-17125429D01*
X8675762Y-17125429D02*
X8685286Y-17134952D01*
X8685286Y-17134952D02*
X8704333Y-17144476D01*
X8704333Y-17144476D02*
X8742429Y-17144476D01*
X8742429Y-17144476D02*
X8761476Y-17134952D01*
X8761476Y-17134952D02*
X8771000Y-17125429D01*
X8771000Y-17125429D02*
X8780524Y-17106381D01*
X8780524Y-17106381D02*
X8780524Y-17068286D01*
X8780524Y-17068286D02*
X8771000Y-17049238D01*
X8771000Y-17049238D02*
X8761476Y-17039714D01*
X8761476Y-17039714D02*
X8742429Y-17030190D01*
X8856714Y-16944476D02*
X8856714Y-16982571D01*
X8932905Y-16944476D02*
X8932905Y-16982571D01*
X9195762Y-17220667D02*
X9186238Y-17211143D01*
X9186238Y-17211143D02*
X9167191Y-17182571D01*
X9167191Y-17182571D02*
X9157667Y-17163524D01*
X9157667Y-17163524D02*
X9148143Y-17134952D01*
X9148143Y-17134952D02*
X9138619Y-17087333D01*
X9138619Y-17087333D02*
X9138619Y-17049238D01*
X9138619Y-17049238D02*
X9148143Y-17001619D01*
X9148143Y-17001619D02*
X9157667Y-16973048D01*
X9157667Y-16973048D02*
X9167191Y-16954000D01*
X9167191Y-16954000D02*
X9186238Y-16925429D01*
X9186238Y-16925429D02*
X9195762Y-16915905D01*
X9262429Y-16963524D02*
X9271953Y-16954000D01*
X9271953Y-16954000D02*
X9291000Y-16944476D01*
X9291000Y-16944476D02*
X9338619Y-16944476D01*
X9338619Y-16944476D02*
X9357667Y-16954000D01*
X9357667Y-16954000D02*
X9367191Y-16963524D01*
X9367191Y-16963524D02*
X9376714Y-16982571D01*
X9376714Y-16982571D02*
X9376714Y-17001619D01*
X9376714Y-17001619D02*
X9367191Y-17030190D01*
X9367191Y-17030190D02*
X9252905Y-17144476D01*
X9252905Y-17144476D02*
X9376714Y-17144476D01*
X9582429Y-17144476D02*
X9582429Y-16944476D01*
X9668143Y-17144476D02*
X9668143Y-17039714D01*
X9668143Y-17039714D02*
X9658619Y-17020667D01*
X9658619Y-17020667D02*
X9639572Y-17011143D01*
X9639572Y-17011143D02*
X9611000Y-17011143D01*
X9611000Y-17011143D02*
X9591953Y-17020667D01*
X9591953Y-17020667D02*
X9582429Y-17030190D01*
X9791953Y-17144476D02*
X9772905Y-17134952D01*
X9772905Y-17134952D02*
X9763381Y-17125429D01*
X9763381Y-17125429D02*
X9753857Y-17106381D01*
X9753857Y-17106381D02*
X9753857Y-17049238D01*
X9753857Y-17049238D02*
X9763381Y-17030190D01*
X9763381Y-17030190D02*
X9772905Y-17020667D01*
X9772905Y-17020667D02*
X9791953Y-17011143D01*
X9791953Y-17011143D02*
X9820524Y-17011143D01*
X9820524Y-17011143D02*
X9839572Y-17020667D01*
X9839572Y-17020667D02*
X9849095Y-17030190D01*
X9849095Y-17030190D02*
X9858619Y-17049238D01*
X9858619Y-17049238D02*
X9858619Y-17106381D01*
X9858619Y-17106381D02*
X9849095Y-17125429D01*
X9849095Y-17125429D02*
X9839572Y-17134952D01*
X9839572Y-17134952D02*
X9820524Y-17144476D01*
X9820524Y-17144476D02*
X9791953Y-17144476D01*
X9972905Y-17144476D02*
X9953857Y-17134952D01*
X9953857Y-17134952D02*
X9944334Y-17115905D01*
X9944334Y-17115905D02*
X9944334Y-16944476D01*
X10125286Y-17134952D02*
X10106238Y-17144476D01*
X10106238Y-17144476D02*
X10068143Y-17144476D01*
X10068143Y-17144476D02*
X10049095Y-17134952D01*
X10049095Y-17134952D02*
X10039572Y-17115905D01*
X10039572Y-17115905D02*
X10039572Y-17039714D01*
X10039572Y-17039714D02*
X10049095Y-17020667D01*
X10049095Y-17020667D02*
X10068143Y-17011143D01*
X10068143Y-17011143D02*
X10106238Y-17011143D01*
X10106238Y-17011143D02*
X10125286Y-17020667D01*
X10125286Y-17020667D02*
X10134810Y-17039714D01*
X10134810Y-17039714D02*
X10134810Y-17058762D01*
X10134810Y-17058762D02*
X10039572Y-17077810D01*
X10211000Y-17134952D02*
X10230048Y-17144476D01*
X10230048Y-17144476D02*
X10268143Y-17144476D01*
X10268143Y-17144476D02*
X10287191Y-17134952D01*
X10287191Y-17134952D02*
X10296715Y-17115905D01*
X10296715Y-17115905D02*
X10296715Y-17106381D01*
X10296715Y-17106381D02*
X10287191Y-17087333D01*
X10287191Y-17087333D02*
X10268143Y-17077810D01*
X10268143Y-17077810D02*
X10239572Y-17077810D01*
X10239572Y-17077810D02*
X10220524Y-17068286D01*
X10220524Y-17068286D02*
X10211000Y-17049238D01*
X10211000Y-17049238D02*
X10211000Y-17039714D01*
X10211000Y-17039714D02*
X10220524Y-17020667D01*
X10220524Y-17020667D02*
X10239572Y-17011143D01*
X10239572Y-17011143D02*
X10268143Y-17011143D01*
X10268143Y-17011143D02*
X10287191Y-17020667D01*
X10363381Y-17220667D02*
X10372905Y-17211143D01*
X10372905Y-17211143D02*
X10391953Y-17182571D01*
X10391953Y-17182571D02*
X10401476Y-17163524D01*
X10401476Y-17163524D02*
X10411000Y-17134952D01*
X10411000Y-17134952D02*
X10420524Y-17087333D01*
X10420524Y-17087333D02*
X10420524Y-17049238D01*
X10420524Y-17049238D02*
X10411000Y-17001619D01*
X10411000Y-17001619D02*
X10401476Y-16973048D01*
X10401476Y-16973048D02*
X10391953Y-16954000D01*
X10391953Y-16954000D02*
X10372905Y-16925429D01*
X10372905Y-16925429D02*
X10363381Y-16915905D01*
D13*
X5713500Y-17317500D02*
X5713500Y-17352500D01*
X5696000Y-17335000D02*
X5731000Y-17335000D01*
D11*
X6016714Y-17208476D02*
X6035762Y-17208476D01*
X6035762Y-17208476D02*
X6054809Y-17218000D01*
X6054809Y-17218000D02*
X6064333Y-17227524D01*
X6064333Y-17227524D02*
X6073857Y-17246571D01*
X6073857Y-17246571D02*
X6083381Y-17284667D01*
X6083381Y-17284667D02*
X6083381Y-17332286D01*
X6083381Y-17332286D02*
X6073857Y-17370381D01*
X6073857Y-17370381D02*
X6064333Y-17389429D01*
X6064333Y-17389429D02*
X6054809Y-17398952D01*
X6054809Y-17398952D02*
X6035762Y-17408476D01*
X6035762Y-17408476D02*
X6016714Y-17408476D01*
X6016714Y-17408476D02*
X5997667Y-17398952D01*
X5997667Y-17398952D02*
X5988143Y-17389429D01*
X5988143Y-17389429D02*
X5978619Y-17370381D01*
X5978619Y-17370381D02*
X5969095Y-17332286D01*
X5969095Y-17332286D02*
X5969095Y-17284667D01*
X5969095Y-17284667D02*
X5978619Y-17246571D01*
X5978619Y-17246571D02*
X5988143Y-17227524D01*
X5988143Y-17227524D02*
X5997667Y-17218000D01*
X5997667Y-17218000D02*
X6016714Y-17208476D01*
X6169095Y-17389429D02*
X6178619Y-17398952D01*
X6178619Y-17398952D02*
X6169095Y-17408476D01*
X6169095Y-17408476D02*
X6159571Y-17398952D01*
X6159571Y-17398952D02*
X6169095Y-17389429D01*
X6169095Y-17389429D02*
X6169095Y-17408476D01*
X6245286Y-17208476D02*
X6369095Y-17208476D01*
X6369095Y-17208476D02*
X6302428Y-17284667D01*
X6302428Y-17284667D02*
X6331000Y-17284667D01*
X6331000Y-17284667D02*
X6350048Y-17294190D01*
X6350048Y-17294190D02*
X6359571Y-17303714D01*
X6359571Y-17303714D02*
X6369095Y-17322762D01*
X6369095Y-17322762D02*
X6369095Y-17370381D01*
X6369095Y-17370381D02*
X6359571Y-17389429D01*
X6359571Y-17389429D02*
X6350048Y-17398952D01*
X6350048Y-17398952D02*
X6331000Y-17408476D01*
X6331000Y-17408476D02*
X6273857Y-17408476D01*
X6273857Y-17408476D02*
X6254809Y-17398952D01*
X6254809Y-17398952D02*
X6245286Y-17389429D01*
X6550048Y-17208476D02*
X6454809Y-17208476D01*
X6454809Y-17208476D02*
X6445286Y-17303714D01*
X6445286Y-17303714D02*
X6454809Y-17294190D01*
X6454809Y-17294190D02*
X6473857Y-17284667D01*
X6473857Y-17284667D02*
X6521476Y-17284667D01*
X6521476Y-17284667D02*
X6540524Y-17294190D01*
X6540524Y-17294190D02*
X6550048Y-17303714D01*
X6550048Y-17303714D02*
X6559571Y-17322762D01*
X6559571Y-17322762D02*
X6559571Y-17370381D01*
X6559571Y-17370381D02*
X6550048Y-17389429D01*
X6550048Y-17389429D02*
X6540524Y-17398952D01*
X6540524Y-17398952D02*
X6521476Y-17408476D01*
X6521476Y-17408476D02*
X6473857Y-17408476D01*
X6473857Y-17408476D02*
X6454809Y-17398952D01*
X6454809Y-17398952D02*
X6445286Y-17389429D01*
X6683381Y-17208476D02*
X6702429Y-17208476D01*
X6702429Y-17208476D02*
X6721476Y-17218000D01*
X6721476Y-17218000D02*
X6731000Y-17227524D01*
X6731000Y-17227524D02*
X6740524Y-17246571D01*
X6740524Y-17246571D02*
X6750048Y-17284667D01*
X6750048Y-17284667D02*
X6750048Y-17332286D01*
X6750048Y-17332286D02*
X6740524Y-17370381D01*
X6740524Y-17370381D02*
X6731000Y-17389429D01*
X6731000Y-17389429D02*
X6721476Y-17398952D01*
X6721476Y-17398952D02*
X6702429Y-17408476D01*
X6702429Y-17408476D02*
X6683381Y-17408476D01*
X6683381Y-17408476D02*
X6664333Y-17398952D01*
X6664333Y-17398952D02*
X6654809Y-17389429D01*
X6654809Y-17389429D02*
X6645286Y-17370381D01*
X6645286Y-17370381D02*
X6635762Y-17332286D01*
X6635762Y-17332286D02*
X6635762Y-17284667D01*
X6635762Y-17284667D02*
X6645286Y-17246571D01*
X6645286Y-17246571D02*
X6654809Y-17227524D01*
X6654809Y-17227524D02*
X6664333Y-17218000D01*
X6664333Y-17218000D02*
X6683381Y-17208476D01*
X6835762Y-17408476D02*
X6835762Y-17275143D01*
X6835762Y-17294190D02*
X6845286Y-17284667D01*
X6845286Y-17284667D02*
X6864333Y-17275143D01*
X6864333Y-17275143D02*
X6892905Y-17275143D01*
X6892905Y-17275143D02*
X6911952Y-17284667D01*
X6911952Y-17284667D02*
X6921476Y-17303714D01*
X6921476Y-17303714D02*
X6921476Y-17408476D01*
X6921476Y-17303714D02*
X6931000Y-17284667D01*
X6931000Y-17284667D02*
X6950048Y-17275143D01*
X6950048Y-17275143D02*
X6978619Y-17275143D01*
X6978619Y-17275143D02*
X6997667Y-17284667D01*
X6997667Y-17284667D02*
X7007190Y-17303714D01*
X7007190Y-17303714D02*
X7007190Y-17408476D01*
X7102429Y-17408476D02*
X7102429Y-17275143D01*
X7102429Y-17294190D02*
X7111952Y-17284667D01*
X7111952Y-17284667D02*
X7131000Y-17275143D01*
X7131000Y-17275143D02*
X7159571Y-17275143D01*
X7159571Y-17275143D02*
X7178619Y-17284667D01*
X7178619Y-17284667D02*
X7188143Y-17303714D01*
X7188143Y-17303714D02*
X7188143Y-17408476D01*
X7188143Y-17303714D02*
X7197667Y-17284667D01*
X7197667Y-17284667D02*
X7216714Y-17275143D01*
X7216714Y-17275143D02*
X7245286Y-17275143D01*
X7245286Y-17275143D02*
X7264333Y-17284667D01*
X7264333Y-17284667D02*
X7273857Y-17303714D01*
X7273857Y-17303714D02*
X7273857Y-17408476D01*
X7631952Y-17198952D02*
X7460524Y-17456095D01*
X7856714Y-17208476D02*
X7875762Y-17208476D01*
X7875762Y-17208476D02*
X7894810Y-17218000D01*
X7894810Y-17218000D02*
X7904333Y-17227524D01*
X7904333Y-17227524D02*
X7913857Y-17246571D01*
X7913857Y-17246571D02*
X7923381Y-17284667D01*
X7923381Y-17284667D02*
X7923381Y-17332286D01*
X7923381Y-17332286D02*
X7913857Y-17370381D01*
X7913857Y-17370381D02*
X7904333Y-17389429D01*
X7904333Y-17389429D02*
X7894810Y-17398952D01*
X7894810Y-17398952D02*
X7875762Y-17408476D01*
X7875762Y-17408476D02*
X7856714Y-17408476D01*
X7856714Y-17408476D02*
X7837667Y-17398952D01*
X7837667Y-17398952D02*
X7828143Y-17389429D01*
X7828143Y-17389429D02*
X7818619Y-17370381D01*
X7818619Y-17370381D02*
X7809095Y-17332286D01*
X7809095Y-17332286D02*
X7809095Y-17284667D01*
X7809095Y-17284667D02*
X7818619Y-17246571D01*
X7818619Y-17246571D02*
X7828143Y-17227524D01*
X7828143Y-17227524D02*
X7837667Y-17218000D01*
X7837667Y-17218000D02*
X7856714Y-17208476D01*
X8009095Y-17389429D02*
X8018619Y-17398952D01*
X8018619Y-17398952D02*
X8009095Y-17408476D01*
X8009095Y-17408476D02*
X7999571Y-17398952D01*
X7999571Y-17398952D02*
X8009095Y-17389429D01*
X8009095Y-17389429D02*
X8009095Y-17408476D01*
X8142429Y-17208476D02*
X8161476Y-17208476D01*
X8161476Y-17208476D02*
X8180524Y-17218000D01*
X8180524Y-17218000D02*
X8190048Y-17227524D01*
X8190048Y-17227524D02*
X8199571Y-17246571D01*
X8199571Y-17246571D02*
X8209095Y-17284667D01*
X8209095Y-17284667D02*
X8209095Y-17332286D01*
X8209095Y-17332286D02*
X8199571Y-17370381D01*
X8199571Y-17370381D02*
X8190048Y-17389429D01*
X8190048Y-17389429D02*
X8180524Y-17398952D01*
X8180524Y-17398952D02*
X8161476Y-17408476D01*
X8161476Y-17408476D02*
X8142429Y-17408476D01*
X8142429Y-17408476D02*
X8123381Y-17398952D01*
X8123381Y-17398952D02*
X8113857Y-17389429D01*
X8113857Y-17389429D02*
X8104333Y-17370381D01*
X8104333Y-17370381D02*
X8094810Y-17332286D01*
X8094810Y-17332286D02*
X8094810Y-17284667D01*
X8094810Y-17284667D02*
X8104333Y-17246571D01*
X8104333Y-17246571D02*
X8113857Y-17227524D01*
X8113857Y-17227524D02*
X8123381Y-17218000D01*
X8123381Y-17218000D02*
X8142429Y-17208476D01*
X8399572Y-17408476D02*
X8285286Y-17408476D01*
X8342429Y-17408476D02*
X8342429Y-17208476D01*
X8342429Y-17208476D02*
X8323381Y-17237048D01*
X8323381Y-17237048D02*
X8304333Y-17256095D01*
X8304333Y-17256095D02*
X8285286Y-17265619D01*
X8466238Y-17208476D02*
X8590048Y-17208476D01*
X8590048Y-17208476D02*
X8523381Y-17284667D01*
X8523381Y-17284667D02*
X8551953Y-17284667D01*
X8551953Y-17284667D02*
X8571000Y-17294190D01*
X8571000Y-17294190D02*
X8580524Y-17303714D01*
X8580524Y-17303714D02*
X8590048Y-17322762D01*
X8590048Y-17322762D02*
X8590048Y-17370381D01*
X8590048Y-17370381D02*
X8580524Y-17389429D01*
X8580524Y-17389429D02*
X8571000Y-17398952D01*
X8571000Y-17398952D02*
X8551953Y-17408476D01*
X8551953Y-17408476D02*
X8494810Y-17408476D01*
X8494810Y-17408476D02*
X8475762Y-17398952D01*
X8475762Y-17398952D02*
X8466238Y-17389429D01*
X8704333Y-17294190D02*
X8685286Y-17284667D01*
X8685286Y-17284667D02*
X8675762Y-17275143D01*
X8675762Y-17275143D02*
X8666238Y-17256095D01*
X8666238Y-17256095D02*
X8666238Y-17246571D01*
X8666238Y-17246571D02*
X8675762Y-17227524D01*
X8675762Y-17227524D02*
X8685286Y-17218000D01*
X8685286Y-17218000D02*
X8704333Y-17208476D01*
X8704333Y-17208476D02*
X8742429Y-17208476D01*
X8742429Y-17208476D02*
X8761476Y-17218000D01*
X8761476Y-17218000D02*
X8771000Y-17227524D01*
X8771000Y-17227524D02*
X8780524Y-17246571D01*
X8780524Y-17246571D02*
X8780524Y-17256095D01*
X8780524Y-17256095D02*
X8771000Y-17275143D01*
X8771000Y-17275143D02*
X8761476Y-17284667D01*
X8761476Y-17284667D02*
X8742429Y-17294190D01*
X8742429Y-17294190D02*
X8704333Y-17294190D01*
X8704333Y-17294190D02*
X8685286Y-17303714D01*
X8685286Y-17303714D02*
X8675762Y-17313238D01*
X8675762Y-17313238D02*
X8666238Y-17332286D01*
X8666238Y-17332286D02*
X8666238Y-17370381D01*
X8666238Y-17370381D02*
X8675762Y-17389429D01*
X8675762Y-17389429D02*
X8685286Y-17398952D01*
X8685286Y-17398952D02*
X8704333Y-17408476D01*
X8704333Y-17408476D02*
X8742429Y-17408476D01*
X8742429Y-17408476D02*
X8761476Y-17398952D01*
X8761476Y-17398952D02*
X8771000Y-17389429D01*
X8771000Y-17389429D02*
X8780524Y-17370381D01*
X8780524Y-17370381D02*
X8780524Y-17332286D01*
X8780524Y-17332286D02*
X8771000Y-17313238D01*
X8771000Y-17313238D02*
X8761476Y-17303714D01*
X8761476Y-17303714D02*
X8742429Y-17294190D01*
X8856714Y-17208476D02*
X8856714Y-17246571D01*
X8932905Y-17208476D02*
X8932905Y-17246571D01*
X9195762Y-17484667D02*
X9186238Y-17475143D01*
X9186238Y-17475143D02*
X9167191Y-17446571D01*
X9167191Y-17446571D02*
X9157667Y-17427524D01*
X9157667Y-17427524D02*
X9148143Y-17398952D01*
X9148143Y-17398952D02*
X9138619Y-17351333D01*
X9138619Y-17351333D02*
X9138619Y-17313238D01*
X9138619Y-17313238D02*
X9148143Y-17265619D01*
X9148143Y-17265619D02*
X9157667Y-17237048D01*
X9157667Y-17237048D02*
X9167191Y-17218000D01*
X9167191Y-17218000D02*
X9186238Y-17189429D01*
X9186238Y-17189429D02*
X9195762Y-17179905D01*
X9281476Y-17408476D02*
X9319572Y-17408476D01*
X9319572Y-17408476D02*
X9338619Y-17398952D01*
X9338619Y-17398952D02*
X9348143Y-17389429D01*
X9348143Y-17389429D02*
X9367191Y-17360857D01*
X9367191Y-17360857D02*
X9376714Y-17322762D01*
X9376714Y-17322762D02*
X9376714Y-17246571D01*
X9376714Y-17246571D02*
X9367191Y-17227524D01*
X9367191Y-17227524D02*
X9357667Y-17218000D01*
X9357667Y-17218000D02*
X9338619Y-17208476D01*
X9338619Y-17208476D02*
X9300524Y-17208476D01*
X9300524Y-17208476D02*
X9281476Y-17218000D01*
X9281476Y-17218000D02*
X9271953Y-17227524D01*
X9271953Y-17227524D02*
X9262429Y-17246571D01*
X9262429Y-17246571D02*
X9262429Y-17294190D01*
X9262429Y-17294190D02*
X9271953Y-17313238D01*
X9271953Y-17313238D02*
X9281476Y-17322762D01*
X9281476Y-17322762D02*
X9300524Y-17332286D01*
X9300524Y-17332286D02*
X9338619Y-17332286D01*
X9338619Y-17332286D02*
X9357667Y-17322762D01*
X9357667Y-17322762D02*
X9367191Y-17313238D01*
X9367191Y-17313238D02*
X9376714Y-17294190D01*
X9582429Y-17408476D02*
X9582429Y-17208476D01*
X9668143Y-17408476D02*
X9668143Y-17303714D01*
X9668143Y-17303714D02*
X9658619Y-17284667D01*
X9658619Y-17284667D02*
X9639572Y-17275143D01*
X9639572Y-17275143D02*
X9611000Y-17275143D01*
X9611000Y-17275143D02*
X9591953Y-17284667D01*
X9591953Y-17284667D02*
X9582429Y-17294190D01*
X9791953Y-17408476D02*
X9772905Y-17398952D01*
X9772905Y-17398952D02*
X9763381Y-17389429D01*
X9763381Y-17389429D02*
X9753857Y-17370381D01*
X9753857Y-17370381D02*
X9753857Y-17313238D01*
X9753857Y-17313238D02*
X9763381Y-17294190D01*
X9763381Y-17294190D02*
X9772905Y-17284667D01*
X9772905Y-17284667D02*
X9791953Y-17275143D01*
X9791953Y-17275143D02*
X9820524Y-17275143D01*
X9820524Y-17275143D02*
X9839572Y-17284667D01*
X9839572Y-17284667D02*
X9849095Y-17294190D01*
X9849095Y-17294190D02*
X9858619Y-17313238D01*
X9858619Y-17313238D02*
X9858619Y-17370381D01*
X9858619Y-17370381D02*
X9849095Y-17389429D01*
X9849095Y-17389429D02*
X9839572Y-17398952D01*
X9839572Y-17398952D02*
X9820524Y-17408476D01*
X9820524Y-17408476D02*
X9791953Y-17408476D01*
X9972905Y-17408476D02*
X9953857Y-17398952D01*
X9953857Y-17398952D02*
X9944334Y-17379905D01*
X9944334Y-17379905D02*
X9944334Y-17208476D01*
X10125286Y-17398952D02*
X10106238Y-17408476D01*
X10106238Y-17408476D02*
X10068143Y-17408476D01*
X10068143Y-17408476D02*
X10049095Y-17398952D01*
X10049095Y-17398952D02*
X10039572Y-17379905D01*
X10039572Y-17379905D02*
X10039572Y-17303714D01*
X10039572Y-17303714D02*
X10049095Y-17284667D01*
X10049095Y-17284667D02*
X10068143Y-17275143D01*
X10068143Y-17275143D02*
X10106238Y-17275143D01*
X10106238Y-17275143D02*
X10125286Y-17284667D01*
X10125286Y-17284667D02*
X10134810Y-17303714D01*
X10134810Y-17303714D02*
X10134810Y-17322762D01*
X10134810Y-17322762D02*
X10039572Y-17341810D01*
X10211000Y-17398952D02*
X10230048Y-17408476D01*
X10230048Y-17408476D02*
X10268143Y-17408476D01*
X10268143Y-17408476D02*
X10287191Y-17398952D01*
X10287191Y-17398952D02*
X10296715Y-17379905D01*
X10296715Y-17379905D02*
X10296715Y-17370381D01*
X10296715Y-17370381D02*
X10287191Y-17351333D01*
X10287191Y-17351333D02*
X10268143Y-17341810D01*
X10268143Y-17341810D02*
X10239572Y-17341810D01*
X10239572Y-17341810D02*
X10220524Y-17332286D01*
X10220524Y-17332286D02*
X10211000Y-17313238D01*
X10211000Y-17313238D02*
X10211000Y-17303714D01*
X10211000Y-17303714D02*
X10220524Y-17284667D01*
X10220524Y-17284667D02*
X10239572Y-17275143D01*
X10239572Y-17275143D02*
X10268143Y-17275143D01*
X10268143Y-17275143D02*
X10287191Y-17284667D01*
X10363381Y-17484667D02*
X10372905Y-17475143D01*
X10372905Y-17475143D02*
X10391953Y-17446571D01*
X10391953Y-17446571D02*
X10401476Y-17427524D01*
X10401476Y-17427524D02*
X10411000Y-17398952D01*
X10411000Y-17398952D02*
X10420524Y-17351333D01*
X10420524Y-17351333D02*
X10420524Y-17313238D01*
X10420524Y-17313238D02*
X10411000Y-17265619D01*
X10411000Y-17265619D02*
X10401476Y-17237048D01*
X10401476Y-17237048D02*
X10391953Y-17218000D01*
X10391953Y-17218000D02*
X10372905Y-17189429D01*
X10372905Y-17189429D02*
X10363381Y-17179905D01*
D14*
X5725142Y-17613142D02*
X5725142Y-17584858D01*
X5696858Y-17584858D01*
X5696858Y-17613142D01*
X5725142Y-17613142D01*
D11*
X6016714Y-17472476D02*
X6035762Y-17472476D01*
X6035762Y-17472476D02*
X6054809Y-17482000D01*
X6054809Y-17482000D02*
X6064333Y-17491524D01*
X6064333Y-17491524D02*
X6073857Y-17510571D01*
X6073857Y-17510571D02*
X6083381Y-17548667D01*
X6083381Y-17548667D02*
X6083381Y-17596286D01*
X6083381Y-17596286D02*
X6073857Y-17634381D01*
X6073857Y-17634381D02*
X6064333Y-17653429D01*
X6064333Y-17653429D02*
X6054809Y-17662952D01*
X6054809Y-17662952D02*
X6035762Y-17672476D01*
X6035762Y-17672476D02*
X6016714Y-17672476D01*
X6016714Y-17672476D02*
X5997667Y-17662952D01*
X5997667Y-17662952D02*
X5988143Y-17653429D01*
X5988143Y-17653429D02*
X5978619Y-17634381D01*
X5978619Y-17634381D02*
X5969095Y-17596286D01*
X5969095Y-17596286D02*
X5969095Y-17548667D01*
X5969095Y-17548667D02*
X5978619Y-17510571D01*
X5978619Y-17510571D02*
X5988143Y-17491524D01*
X5988143Y-17491524D02*
X5997667Y-17482000D01*
X5997667Y-17482000D02*
X6016714Y-17472476D01*
X6169095Y-17653429D02*
X6178619Y-17662952D01*
X6178619Y-17662952D02*
X6169095Y-17672476D01*
X6169095Y-17672476D02*
X6159571Y-17662952D01*
X6159571Y-17662952D02*
X6169095Y-17653429D01*
X6169095Y-17653429D02*
X6169095Y-17672476D01*
X6350048Y-17539143D02*
X6350048Y-17672476D01*
X6302428Y-17462952D02*
X6254809Y-17605810D01*
X6254809Y-17605810D02*
X6378619Y-17605810D01*
X6492905Y-17472476D02*
X6511952Y-17472476D01*
X6511952Y-17472476D02*
X6531000Y-17482000D01*
X6531000Y-17482000D02*
X6540524Y-17491524D01*
X6540524Y-17491524D02*
X6550048Y-17510571D01*
X6550048Y-17510571D02*
X6559571Y-17548667D01*
X6559571Y-17548667D02*
X6559571Y-17596286D01*
X6559571Y-17596286D02*
X6550048Y-17634381D01*
X6550048Y-17634381D02*
X6540524Y-17653429D01*
X6540524Y-17653429D02*
X6531000Y-17662952D01*
X6531000Y-17662952D02*
X6511952Y-17672476D01*
X6511952Y-17672476D02*
X6492905Y-17672476D01*
X6492905Y-17672476D02*
X6473857Y-17662952D01*
X6473857Y-17662952D02*
X6464333Y-17653429D01*
X6464333Y-17653429D02*
X6454809Y-17634381D01*
X6454809Y-17634381D02*
X6445286Y-17596286D01*
X6445286Y-17596286D02*
X6445286Y-17548667D01*
X6445286Y-17548667D02*
X6454809Y-17510571D01*
X6454809Y-17510571D02*
X6464333Y-17491524D01*
X6464333Y-17491524D02*
X6473857Y-17482000D01*
X6473857Y-17482000D02*
X6492905Y-17472476D01*
X6683381Y-17472476D02*
X6702429Y-17472476D01*
X6702429Y-17472476D02*
X6721476Y-17482000D01*
X6721476Y-17482000D02*
X6731000Y-17491524D01*
X6731000Y-17491524D02*
X6740524Y-17510571D01*
X6740524Y-17510571D02*
X6750048Y-17548667D01*
X6750048Y-17548667D02*
X6750048Y-17596286D01*
X6750048Y-17596286D02*
X6740524Y-17634381D01*
X6740524Y-17634381D02*
X6731000Y-17653429D01*
X6731000Y-17653429D02*
X6721476Y-17662952D01*
X6721476Y-17662952D02*
X6702429Y-17672476D01*
X6702429Y-17672476D02*
X6683381Y-17672476D01*
X6683381Y-17672476D02*
X6664333Y-17662952D01*
X6664333Y-17662952D02*
X6654809Y-17653429D01*
X6654809Y-17653429D02*
X6645286Y-17634381D01*
X6645286Y-17634381D02*
X6635762Y-17596286D01*
X6635762Y-17596286D02*
X6635762Y-17548667D01*
X6635762Y-17548667D02*
X6645286Y-17510571D01*
X6645286Y-17510571D02*
X6654809Y-17491524D01*
X6654809Y-17491524D02*
X6664333Y-17482000D01*
X6664333Y-17482000D02*
X6683381Y-17472476D01*
X6835762Y-17672476D02*
X6835762Y-17539143D01*
X6835762Y-17558190D02*
X6845286Y-17548667D01*
X6845286Y-17548667D02*
X6864333Y-17539143D01*
X6864333Y-17539143D02*
X6892905Y-17539143D01*
X6892905Y-17539143D02*
X6911952Y-17548667D01*
X6911952Y-17548667D02*
X6921476Y-17567714D01*
X6921476Y-17567714D02*
X6921476Y-17672476D01*
X6921476Y-17567714D02*
X6931000Y-17548667D01*
X6931000Y-17548667D02*
X6950048Y-17539143D01*
X6950048Y-17539143D02*
X6978619Y-17539143D01*
X6978619Y-17539143D02*
X6997667Y-17548667D01*
X6997667Y-17548667D02*
X7007190Y-17567714D01*
X7007190Y-17567714D02*
X7007190Y-17672476D01*
X7102429Y-17672476D02*
X7102429Y-17539143D01*
X7102429Y-17558190D02*
X7111952Y-17548667D01*
X7111952Y-17548667D02*
X7131000Y-17539143D01*
X7131000Y-17539143D02*
X7159571Y-17539143D01*
X7159571Y-17539143D02*
X7178619Y-17548667D01*
X7178619Y-17548667D02*
X7188143Y-17567714D01*
X7188143Y-17567714D02*
X7188143Y-17672476D01*
X7188143Y-17567714D02*
X7197667Y-17548667D01*
X7197667Y-17548667D02*
X7216714Y-17539143D01*
X7216714Y-17539143D02*
X7245286Y-17539143D01*
X7245286Y-17539143D02*
X7264333Y-17548667D01*
X7264333Y-17548667D02*
X7273857Y-17567714D01*
X7273857Y-17567714D02*
X7273857Y-17672476D01*
X7631952Y-17462952D02*
X7460524Y-17720095D01*
X7856714Y-17472476D02*
X7875762Y-17472476D01*
X7875762Y-17472476D02*
X7894810Y-17482000D01*
X7894810Y-17482000D02*
X7904333Y-17491524D01*
X7904333Y-17491524D02*
X7913857Y-17510571D01*
X7913857Y-17510571D02*
X7923381Y-17548667D01*
X7923381Y-17548667D02*
X7923381Y-17596286D01*
X7923381Y-17596286D02*
X7913857Y-17634381D01*
X7913857Y-17634381D02*
X7904333Y-17653429D01*
X7904333Y-17653429D02*
X7894810Y-17662952D01*
X7894810Y-17662952D02*
X7875762Y-17672476D01*
X7875762Y-17672476D02*
X7856714Y-17672476D01*
X7856714Y-17672476D02*
X7837667Y-17662952D01*
X7837667Y-17662952D02*
X7828143Y-17653429D01*
X7828143Y-17653429D02*
X7818619Y-17634381D01*
X7818619Y-17634381D02*
X7809095Y-17596286D01*
X7809095Y-17596286D02*
X7809095Y-17548667D01*
X7809095Y-17548667D02*
X7818619Y-17510571D01*
X7818619Y-17510571D02*
X7828143Y-17491524D01*
X7828143Y-17491524D02*
X7837667Y-17482000D01*
X7837667Y-17482000D02*
X7856714Y-17472476D01*
X8009095Y-17653429D02*
X8018619Y-17662952D01*
X8018619Y-17662952D02*
X8009095Y-17672476D01*
X8009095Y-17672476D02*
X7999571Y-17662952D01*
X7999571Y-17662952D02*
X8009095Y-17653429D01*
X8009095Y-17653429D02*
X8009095Y-17672476D01*
X8142429Y-17472476D02*
X8161476Y-17472476D01*
X8161476Y-17472476D02*
X8180524Y-17482000D01*
X8180524Y-17482000D02*
X8190048Y-17491524D01*
X8190048Y-17491524D02*
X8199571Y-17510571D01*
X8199571Y-17510571D02*
X8209095Y-17548667D01*
X8209095Y-17548667D02*
X8209095Y-17596286D01*
X8209095Y-17596286D02*
X8199571Y-17634381D01*
X8199571Y-17634381D02*
X8190048Y-17653429D01*
X8190048Y-17653429D02*
X8180524Y-17662952D01*
X8180524Y-17662952D02*
X8161476Y-17672476D01*
X8161476Y-17672476D02*
X8142429Y-17672476D01*
X8142429Y-17672476D02*
X8123381Y-17662952D01*
X8123381Y-17662952D02*
X8113857Y-17653429D01*
X8113857Y-17653429D02*
X8104333Y-17634381D01*
X8104333Y-17634381D02*
X8094810Y-17596286D01*
X8094810Y-17596286D02*
X8094810Y-17548667D01*
X8094810Y-17548667D02*
X8104333Y-17510571D01*
X8104333Y-17510571D02*
X8113857Y-17491524D01*
X8113857Y-17491524D02*
X8123381Y-17482000D01*
X8123381Y-17482000D02*
X8142429Y-17472476D01*
X8399572Y-17672476D02*
X8285286Y-17672476D01*
X8342429Y-17672476D02*
X8342429Y-17472476D01*
X8342429Y-17472476D02*
X8323381Y-17501048D01*
X8323381Y-17501048D02*
X8304333Y-17520095D01*
X8304333Y-17520095D02*
X8285286Y-17529619D01*
X8580524Y-17472476D02*
X8485286Y-17472476D01*
X8485286Y-17472476D02*
X8475762Y-17567714D01*
X8475762Y-17567714D02*
X8485286Y-17558190D01*
X8485286Y-17558190D02*
X8504333Y-17548667D01*
X8504333Y-17548667D02*
X8551953Y-17548667D01*
X8551953Y-17548667D02*
X8571000Y-17558190D01*
X8571000Y-17558190D02*
X8580524Y-17567714D01*
X8580524Y-17567714D02*
X8590048Y-17586762D01*
X8590048Y-17586762D02*
X8590048Y-17634381D01*
X8590048Y-17634381D02*
X8580524Y-17653429D01*
X8580524Y-17653429D02*
X8571000Y-17662952D01*
X8571000Y-17662952D02*
X8551953Y-17672476D01*
X8551953Y-17672476D02*
X8504333Y-17672476D01*
X8504333Y-17672476D02*
X8485286Y-17662952D01*
X8485286Y-17662952D02*
X8475762Y-17653429D01*
X8656714Y-17472476D02*
X8790048Y-17472476D01*
X8790048Y-17472476D02*
X8704333Y-17672476D01*
X8856714Y-17472476D02*
X8856714Y-17510571D01*
X8932905Y-17472476D02*
X8932905Y-17510571D01*
X9195762Y-17748667D02*
X9186238Y-17739143D01*
X9186238Y-17739143D02*
X9167191Y-17710571D01*
X9167191Y-17710571D02*
X9157667Y-17691524D01*
X9157667Y-17691524D02*
X9148143Y-17662952D01*
X9148143Y-17662952D02*
X9138619Y-17615333D01*
X9138619Y-17615333D02*
X9138619Y-17577238D01*
X9138619Y-17577238D02*
X9148143Y-17529619D01*
X9148143Y-17529619D02*
X9157667Y-17501048D01*
X9157667Y-17501048D02*
X9167191Y-17482000D01*
X9167191Y-17482000D02*
X9186238Y-17453429D01*
X9186238Y-17453429D02*
X9195762Y-17443905D01*
X9357667Y-17539143D02*
X9357667Y-17672476D01*
X9310048Y-17462952D02*
X9262429Y-17605810D01*
X9262429Y-17605810D02*
X9386238Y-17605810D01*
X9582429Y-17672476D02*
X9582429Y-17472476D01*
X9668143Y-17672476D02*
X9668143Y-17567714D01*
X9668143Y-17567714D02*
X9658619Y-17548667D01*
X9658619Y-17548667D02*
X9639572Y-17539143D01*
X9639572Y-17539143D02*
X9611000Y-17539143D01*
X9611000Y-17539143D02*
X9591953Y-17548667D01*
X9591953Y-17548667D02*
X9582429Y-17558190D01*
X9791953Y-17672476D02*
X9772905Y-17662952D01*
X9772905Y-17662952D02*
X9763381Y-17653429D01*
X9763381Y-17653429D02*
X9753857Y-17634381D01*
X9753857Y-17634381D02*
X9753857Y-17577238D01*
X9753857Y-17577238D02*
X9763381Y-17558190D01*
X9763381Y-17558190D02*
X9772905Y-17548667D01*
X9772905Y-17548667D02*
X9791953Y-17539143D01*
X9791953Y-17539143D02*
X9820524Y-17539143D01*
X9820524Y-17539143D02*
X9839572Y-17548667D01*
X9839572Y-17548667D02*
X9849095Y-17558190D01*
X9849095Y-17558190D02*
X9858619Y-17577238D01*
X9858619Y-17577238D02*
X9858619Y-17634381D01*
X9858619Y-17634381D02*
X9849095Y-17653429D01*
X9849095Y-17653429D02*
X9839572Y-17662952D01*
X9839572Y-17662952D02*
X9820524Y-17672476D01*
X9820524Y-17672476D02*
X9791953Y-17672476D01*
X9972905Y-17672476D02*
X9953857Y-17662952D01*
X9953857Y-17662952D02*
X9944334Y-17643905D01*
X9944334Y-17643905D02*
X9944334Y-17472476D01*
X10125286Y-17662952D02*
X10106238Y-17672476D01*
X10106238Y-17672476D02*
X10068143Y-17672476D01*
X10068143Y-17672476D02*
X10049095Y-17662952D01*
X10049095Y-17662952D02*
X10039572Y-17643905D01*
X10039572Y-17643905D02*
X10039572Y-17567714D01*
X10039572Y-17567714D02*
X10049095Y-17548667D01*
X10049095Y-17548667D02*
X10068143Y-17539143D01*
X10068143Y-17539143D02*
X10106238Y-17539143D01*
X10106238Y-17539143D02*
X10125286Y-17548667D01*
X10125286Y-17548667D02*
X10134810Y-17567714D01*
X10134810Y-17567714D02*
X10134810Y-17586762D01*
X10134810Y-17586762D02*
X10039572Y-17605810D01*
X10211000Y-17662952D02*
X10230048Y-17672476D01*
X10230048Y-17672476D02*
X10268143Y-17672476D01*
X10268143Y-17672476D02*
X10287191Y-17662952D01*
X10287191Y-17662952D02*
X10296715Y-17643905D01*
X10296715Y-17643905D02*
X10296715Y-17634381D01*
X10296715Y-17634381D02*
X10287191Y-17615333D01*
X10287191Y-17615333D02*
X10268143Y-17605810D01*
X10268143Y-17605810D02*
X10239572Y-17605810D01*
X10239572Y-17605810D02*
X10220524Y-17596286D01*
X10220524Y-17596286D02*
X10211000Y-17577238D01*
X10211000Y-17577238D02*
X10211000Y-17567714D01*
X10211000Y-17567714D02*
X10220524Y-17548667D01*
X10220524Y-17548667D02*
X10239572Y-17539143D01*
X10239572Y-17539143D02*
X10268143Y-17539143D01*
X10268143Y-17539143D02*
X10287191Y-17548667D01*
X10363381Y-17748667D02*
X10372905Y-17739143D01*
X10372905Y-17739143D02*
X10391953Y-17710571D01*
X10391953Y-17710571D02*
X10401476Y-17691524D01*
X10401476Y-17691524D02*
X10411000Y-17662952D01*
X10411000Y-17662952D02*
X10420524Y-17615333D01*
X10420524Y-17615333D02*
X10420524Y-17577238D01*
X10420524Y-17577238D02*
X10411000Y-17529619D01*
X10411000Y-17529619D02*
X10401476Y-17501048D01*
X10401476Y-17501048D02*
X10391953Y-17482000D01*
X10391953Y-17482000D02*
X10372905Y-17453429D01*
X10372905Y-17453429D02*
X10363381Y-17443905D01*
D14*
X5711000Y-17883000D02*
X5731000Y-17863000D01*
X5711000Y-17843000D01*
X5691000Y-17863000D01*
X5711000Y-17883000D01*
D11*
X6016714Y-17736476D02*
X6035762Y-17736476D01*
X6035762Y-17736476D02*
X6054809Y-17746000D01*
X6054809Y-17746000D02*
X6064333Y-17755524D01*
X6064333Y-17755524D02*
X6073857Y-17774571D01*
X6073857Y-17774571D02*
X6083381Y-17812667D01*
X6083381Y-17812667D02*
X6083381Y-17860286D01*
X6083381Y-17860286D02*
X6073857Y-17898381D01*
X6073857Y-17898381D02*
X6064333Y-17917429D01*
X6064333Y-17917429D02*
X6054809Y-17926952D01*
X6054809Y-17926952D02*
X6035762Y-17936476D01*
X6035762Y-17936476D02*
X6016714Y-17936476D01*
X6016714Y-17936476D02*
X5997667Y-17926952D01*
X5997667Y-17926952D02*
X5988143Y-17917429D01*
X5988143Y-17917429D02*
X5978619Y-17898381D01*
X5978619Y-17898381D02*
X5969095Y-17860286D01*
X5969095Y-17860286D02*
X5969095Y-17812667D01*
X5969095Y-17812667D02*
X5978619Y-17774571D01*
X5978619Y-17774571D02*
X5988143Y-17755524D01*
X5988143Y-17755524D02*
X5997667Y-17746000D01*
X5997667Y-17746000D02*
X6016714Y-17736476D01*
X6169095Y-17917429D02*
X6178619Y-17926952D01*
X6178619Y-17926952D02*
X6169095Y-17936476D01*
X6169095Y-17936476D02*
X6159571Y-17926952D01*
X6159571Y-17926952D02*
X6169095Y-17917429D01*
X6169095Y-17917429D02*
X6169095Y-17936476D01*
X6350048Y-17803143D02*
X6350048Y-17936476D01*
X6302428Y-17726952D02*
X6254809Y-17869810D01*
X6254809Y-17869810D02*
X6378619Y-17869810D01*
X6492905Y-17736476D02*
X6511952Y-17736476D01*
X6511952Y-17736476D02*
X6531000Y-17746000D01*
X6531000Y-17746000D02*
X6540524Y-17755524D01*
X6540524Y-17755524D02*
X6550048Y-17774571D01*
X6550048Y-17774571D02*
X6559571Y-17812667D01*
X6559571Y-17812667D02*
X6559571Y-17860286D01*
X6559571Y-17860286D02*
X6550048Y-17898381D01*
X6550048Y-17898381D02*
X6540524Y-17917429D01*
X6540524Y-17917429D02*
X6531000Y-17926952D01*
X6531000Y-17926952D02*
X6511952Y-17936476D01*
X6511952Y-17936476D02*
X6492905Y-17936476D01*
X6492905Y-17936476D02*
X6473857Y-17926952D01*
X6473857Y-17926952D02*
X6464333Y-17917429D01*
X6464333Y-17917429D02*
X6454809Y-17898381D01*
X6454809Y-17898381D02*
X6445286Y-17860286D01*
X6445286Y-17860286D02*
X6445286Y-17812667D01*
X6445286Y-17812667D02*
X6454809Y-17774571D01*
X6454809Y-17774571D02*
X6464333Y-17755524D01*
X6464333Y-17755524D02*
X6473857Y-17746000D01*
X6473857Y-17746000D02*
X6492905Y-17736476D01*
X6683381Y-17736476D02*
X6702429Y-17736476D01*
X6702429Y-17736476D02*
X6721476Y-17746000D01*
X6721476Y-17746000D02*
X6731000Y-17755524D01*
X6731000Y-17755524D02*
X6740524Y-17774571D01*
X6740524Y-17774571D02*
X6750048Y-17812667D01*
X6750048Y-17812667D02*
X6750048Y-17860286D01*
X6750048Y-17860286D02*
X6740524Y-17898381D01*
X6740524Y-17898381D02*
X6731000Y-17917429D01*
X6731000Y-17917429D02*
X6721476Y-17926952D01*
X6721476Y-17926952D02*
X6702429Y-17936476D01*
X6702429Y-17936476D02*
X6683381Y-17936476D01*
X6683381Y-17936476D02*
X6664333Y-17926952D01*
X6664333Y-17926952D02*
X6654809Y-17917429D01*
X6654809Y-17917429D02*
X6645286Y-17898381D01*
X6645286Y-17898381D02*
X6635762Y-17860286D01*
X6635762Y-17860286D02*
X6635762Y-17812667D01*
X6635762Y-17812667D02*
X6645286Y-17774571D01*
X6645286Y-17774571D02*
X6654809Y-17755524D01*
X6654809Y-17755524D02*
X6664333Y-17746000D01*
X6664333Y-17746000D02*
X6683381Y-17736476D01*
X6835762Y-17936476D02*
X6835762Y-17803143D01*
X6835762Y-17822190D02*
X6845286Y-17812667D01*
X6845286Y-17812667D02*
X6864333Y-17803143D01*
X6864333Y-17803143D02*
X6892905Y-17803143D01*
X6892905Y-17803143D02*
X6911952Y-17812667D01*
X6911952Y-17812667D02*
X6921476Y-17831714D01*
X6921476Y-17831714D02*
X6921476Y-17936476D01*
X6921476Y-17831714D02*
X6931000Y-17812667D01*
X6931000Y-17812667D02*
X6950048Y-17803143D01*
X6950048Y-17803143D02*
X6978619Y-17803143D01*
X6978619Y-17803143D02*
X6997667Y-17812667D01*
X6997667Y-17812667D02*
X7007190Y-17831714D01*
X7007190Y-17831714D02*
X7007190Y-17936476D01*
X7102429Y-17936476D02*
X7102429Y-17803143D01*
X7102429Y-17822190D02*
X7111952Y-17812667D01*
X7111952Y-17812667D02*
X7131000Y-17803143D01*
X7131000Y-17803143D02*
X7159571Y-17803143D01*
X7159571Y-17803143D02*
X7178619Y-17812667D01*
X7178619Y-17812667D02*
X7188143Y-17831714D01*
X7188143Y-17831714D02*
X7188143Y-17936476D01*
X7188143Y-17831714D02*
X7197667Y-17812667D01*
X7197667Y-17812667D02*
X7216714Y-17803143D01*
X7216714Y-17803143D02*
X7245286Y-17803143D01*
X7245286Y-17803143D02*
X7264333Y-17812667D01*
X7264333Y-17812667D02*
X7273857Y-17831714D01*
X7273857Y-17831714D02*
X7273857Y-17936476D01*
X7631952Y-17726952D02*
X7460524Y-17984095D01*
X7856714Y-17736476D02*
X7875762Y-17736476D01*
X7875762Y-17736476D02*
X7894810Y-17746000D01*
X7894810Y-17746000D02*
X7904333Y-17755524D01*
X7904333Y-17755524D02*
X7913857Y-17774571D01*
X7913857Y-17774571D02*
X7923381Y-17812667D01*
X7923381Y-17812667D02*
X7923381Y-17860286D01*
X7923381Y-17860286D02*
X7913857Y-17898381D01*
X7913857Y-17898381D02*
X7904333Y-17917429D01*
X7904333Y-17917429D02*
X7894810Y-17926952D01*
X7894810Y-17926952D02*
X7875762Y-17936476D01*
X7875762Y-17936476D02*
X7856714Y-17936476D01*
X7856714Y-17936476D02*
X7837667Y-17926952D01*
X7837667Y-17926952D02*
X7828143Y-17917429D01*
X7828143Y-17917429D02*
X7818619Y-17898381D01*
X7818619Y-17898381D02*
X7809095Y-17860286D01*
X7809095Y-17860286D02*
X7809095Y-17812667D01*
X7809095Y-17812667D02*
X7818619Y-17774571D01*
X7818619Y-17774571D02*
X7828143Y-17755524D01*
X7828143Y-17755524D02*
X7837667Y-17746000D01*
X7837667Y-17746000D02*
X7856714Y-17736476D01*
X8009095Y-17917429D02*
X8018619Y-17926952D01*
X8018619Y-17926952D02*
X8009095Y-17936476D01*
X8009095Y-17936476D02*
X7999571Y-17926952D01*
X7999571Y-17926952D02*
X8009095Y-17917429D01*
X8009095Y-17917429D02*
X8009095Y-17936476D01*
X8142429Y-17736476D02*
X8161476Y-17736476D01*
X8161476Y-17736476D02*
X8180524Y-17746000D01*
X8180524Y-17746000D02*
X8190048Y-17755524D01*
X8190048Y-17755524D02*
X8199571Y-17774571D01*
X8199571Y-17774571D02*
X8209095Y-17812667D01*
X8209095Y-17812667D02*
X8209095Y-17860286D01*
X8209095Y-17860286D02*
X8199571Y-17898381D01*
X8199571Y-17898381D02*
X8190048Y-17917429D01*
X8190048Y-17917429D02*
X8180524Y-17926952D01*
X8180524Y-17926952D02*
X8161476Y-17936476D01*
X8161476Y-17936476D02*
X8142429Y-17936476D01*
X8142429Y-17936476D02*
X8123381Y-17926952D01*
X8123381Y-17926952D02*
X8113857Y-17917429D01*
X8113857Y-17917429D02*
X8104333Y-17898381D01*
X8104333Y-17898381D02*
X8094810Y-17860286D01*
X8094810Y-17860286D02*
X8094810Y-17812667D01*
X8094810Y-17812667D02*
X8104333Y-17774571D01*
X8104333Y-17774571D02*
X8113857Y-17755524D01*
X8113857Y-17755524D02*
X8123381Y-17746000D01*
X8123381Y-17746000D02*
X8142429Y-17736476D01*
X8399572Y-17936476D02*
X8285286Y-17936476D01*
X8342429Y-17936476D02*
X8342429Y-17736476D01*
X8342429Y-17736476D02*
X8323381Y-17765048D01*
X8323381Y-17765048D02*
X8304333Y-17784095D01*
X8304333Y-17784095D02*
X8285286Y-17793619D01*
X8580524Y-17736476D02*
X8485286Y-17736476D01*
X8485286Y-17736476D02*
X8475762Y-17831714D01*
X8475762Y-17831714D02*
X8485286Y-17822190D01*
X8485286Y-17822190D02*
X8504333Y-17812667D01*
X8504333Y-17812667D02*
X8551953Y-17812667D01*
X8551953Y-17812667D02*
X8571000Y-17822190D01*
X8571000Y-17822190D02*
X8580524Y-17831714D01*
X8580524Y-17831714D02*
X8590048Y-17850762D01*
X8590048Y-17850762D02*
X8590048Y-17898381D01*
X8590048Y-17898381D02*
X8580524Y-17917429D01*
X8580524Y-17917429D02*
X8571000Y-17926952D01*
X8571000Y-17926952D02*
X8551953Y-17936476D01*
X8551953Y-17936476D02*
X8504333Y-17936476D01*
X8504333Y-17936476D02*
X8485286Y-17926952D01*
X8485286Y-17926952D02*
X8475762Y-17917429D01*
X8656714Y-17736476D02*
X8790048Y-17736476D01*
X8790048Y-17736476D02*
X8704333Y-17936476D01*
X8856714Y-17736476D02*
X8856714Y-17774571D01*
X8932905Y-17736476D02*
X8932905Y-17774571D01*
X9195762Y-18012667D02*
X9186238Y-18003143D01*
X9186238Y-18003143D02*
X9167191Y-17974571D01*
X9167191Y-17974571D02*
X9157667Y-17955524D01*
X9157667Y-17955524D02*
X9148143Y-17926952D01*
X9148143Y-17926952D02*
X9138619Y-17879333D01*
X9138619Y-17879333D02*
X9138619Y-17841238D01*
X9138619Y-17841238D02*
X9148143Y-17793619D01*
X9148143Y-17793619D02*
X9157667Y-17765048D01*
X9157667Y-17765048D02*
X9167191Y-17746000D01*
X9167191Y-17746000D02*
X9186238Y-17717429D01*
X9186238Y-17717429D02*
X9195762Y-17707905D01*
X9376714Y-17936476D02*
X9262429Y-17936476D01*
X9319572Y-17936476D02*
X9319572Y-17736476D01*
X9319572Y-17736476D02*
X9300524Y-17765048D01*
X9300524Y-17765048D02*
X9281476Y-17784095D01*
X9281476Y-17784095D02*
X9262429Y-17793619D01*
X9452905Y-17755524D02*
X9462429Y-17746000D01*
X9462429Y-17746000D02*
X9481476Y-17736476D01*
X9481476Y-17736476D02*
X9529095Y-17736476D01*
X9529095Y-17736476D02*
X9548143Y-17746000D01*
X9548143Y-17746000D02*
X9557667Y-17755524D01*
X9557667Y-17755524D02*
X9567191Y-17774571D01*
X9567191Y-17774571D02*
X9567191Y-17793619D01*
X9567191Y-17793619D02*
X9557667Y-17822190D01*
X9557667Y-17822190D02*
X9443381Y-17936476D01*
X9443381Y-17936476D02*
X9567191Y-17936476D01*
X9772905Y-17936476D02*
X9772905Y-17736476D01*
X9858619Y-17936476D02*
X9858619Y-17831714D01*
X9858619Y-17831714D02*
X9849095Y-17812667D01*
X9849095Y-17812667D02*
X9830048Y-17803143D01*
X9830048Y-17803143D02*
X9801476Y-17803143D01*
X9801476Y-17803143D02*
X9782429Y-17812667D01*
X9782429Y-17812667D02*
X9772905Y-17822190D01*
X9982429Y-17936476D02*
X9963381Y-17926952D01*
X9963381Y-17926952D02*
X9953857Y-17917429D01*
X9953857Y-17917429D02*
X9944334Y-17898381D01*
X9944334Y-17898381D02*
X9944334Y-17841238D01*
X9944334Y-17841238D02*
X9953857Y-17822190D01*
X9953857Y-17822190D02*
X9963381Y-17812667D01*
X9963381Y-17812667D02*
X9982429Y-17803143D01*
X9982429Y-17803143D02*
X10011000Y-17803143D01*
X10011000Y-17803143D02*
X10030048Y-17812667D01*
X10030048Y-17812667D02*
X10039572Y-17822190D01*
X10039572Y-17822190D02*
X10049095Y-17841238D01*
X10049095Y-17841238D02*
X10049095Y-17898381D01*
X10049095Y-17898381D02*
X10039572Y-17917429D01*
X10039572Y-17917429D02*
X10030048Y-17926952D01*
X10030048Y-17926952D02*
X10011000Y-17936476D01*
X10011000Y-17936476D02*
X9982429Y-17936476D01*
X10163381Y-17936476D02*
X10144334Y-17926952D01*
X10144334Y-17926952D02*
X10134810Y-17907905D01*
X10134810Y-17907905D02*
X10134810Y-17736476D01*
X10315762Y-17926952D02*
X10296715Y-17936476D01*
X10296715Y-17936476D02*
X10258619Y-17936476D01*
X10258619Y-17936476D02*
X10239572Y-17926952D01*
X10239572Y-17926952D02*
X10230048Y-17907905D01*
X10230048Y-17907905D02*
X10230048Y-17831714D01*
X10230048Y-17831714D02*
X10239572Y-17812667D01*
X10239572Y-17812667D02*
X10258619Y-17803143D01*
X10258619Y-17803143D02*
X10296715Y-17803143D01*
X10296715Y-17803143D02*
X10315762Y-17812667D01*
X10315762Y-17812667D02*
X10325286Y-17831714D01*
X10325286Y-17831714D02*
X10325286Y-17850762D01*
X10325286Y-17850762D02*
X10230048Y-17869810D01*
X10401476Y-17926952D02*
X10420524Y-17936476D01*
X10420524Y-17936476D02*
X10458619Y-17936476D01*
X10458619Y-17936476D02*
X10477667Y-17926952D01*
X10477667Y-17926952D02*
X10487191Y-17907905D01*
X10487191Y-17907905D02*
X10487191Y-17898381D01*
X10487191Y-17898381D02*
X10477667Y-17879333D01*
X10477667Y-17879333D02*
X10458619Y-17869810D01*
X10458619Y-17869810D02*
X10430048Y-17869810D01*
X10430048Y-17869810D02*
X10411000Y-17860286D01*
X10411000Y-17860286D02*
X10401476Y-17841238D01*
X10401476Y-17841238D02*
X10401476Y-17831714D01*
X10401476Y-17831714D02*
X10411000Y-17812667D01*
X10411000Y-17812667D02*
X10430048Y-17803143D01*
X10430048Y-17803143D02*
X10458619Y-17803143D01*
X10458619Y-17803143D02*
X10477667Y-17812667D01*
X10553857Y-18012667D02*
X10563381Y-18003143D01*
X10563381Y-18003143D02*
X10582429Y-17974571D01*
X10582429Y-17974571D02*
X10591953Y-17955524D01*
X10591953Y-17955524D02*
X10601476Y-17926952D01*
X10601476Y-17926952D02*
X10611000Y-17879333D01*
X10611000Y-17879333D02*
X10611000Y-17841238D01*
X10611000Y-17841238D02*
X10601476Y-17793619D01*
X10601476Y-17793619D02*
X10591953Y-17765048D01*
X10591953Y-17765048D02*
X10582429Y-17746000D01*
X10582429Y-17746000D02*
X10563381Y-17717429D01*
X10563381Y-17717429D02*
X10553857Y-17707905D01*
D15*
X5681000Y-18102000D02*
X5731000Y-18152000D01*
X5731000Y-18102000D02*
X5681000Y-18152000D01*
X5731000Y-18127000D02*
G75*
G03*
X5731000Y-18127000I-25000J0D01*
G01*
D11*
X6016714Y-18000476D02*
X6035762Y-18000476D01*
X6035762Y-18000476D02*
X6054809Y-18010000D01*
X6054809Y-18010000D02*
X6064333Y-18019524D01*
X6064333Y-18019524D02*
X6073857Y-18038571D01*
X6073857Y-18038571D02*
X6083381Y-18076667D01*
X6083381Y-18076667D02*
X6083381Y-18124286D01*
X6083381Y-18124286D02*
X6073857Y-18162381D01*
X6073857Y-18162381D02*
X6064333Y-18181429D01*
X6064333Y-18181429D02*
X6054809Y-18190952D01*
X6054809Y-18190952D02*
X6035762Y-18200476D01*
X6035762Y-18200476D02*
X6016714Y-18200476D01*
X6016714Y-18200476D02*
X5997667Y-18190952D01*
X5997667Y-18190952D02*
X5988143Y-18181429D01*
X5988143Y-18181429D02*
X5978619Y-18162381D01*
X5978619Y-18162381D02*
X5969095Y-18124286D01*
X5969095Y-18124286D02*
X5969095Y-18076667D01*
X5969095Y-18076667D02*
X5978619Y-18038571D01*
X5978619Y-18038571D02*
X5988143Y-18019524D01*
X5988143Y-18019524D02*
X5997667Y-18010000D01*
X5997667Y-18010000D02*
X6016714Y-18000476D01*
X6169095Y-18181429D02*
X6178619Y-18190952D01*
X6178619Y-18190952D02*
X6169095Y-18200476D01*
X6169095Y-18200476D02*
X6159571Y-18190952D01*
X6159571Y-18190952D02*
X6169095Y-18181429D01*
X6169095Y-18181429D02*
X6169095Y-18200476D01*
X6359571Y-18000476D02*
X6264333Y-18000476D01*
X6264333Y-18000476D02*
X6254809Y-18095714D01*
X6254809Y-18095714D02*
X6264333Y-18086190D01*
X6264333Y-18086190D02*
X6283381Y-18076667D01*
X6283381Y-18076667D02*
X6331000Y-18076667D01*
X6331000Y-18076667D02*
X6350048Y-18086190D01*
X6350048Y-18086190D02*
X6359571Y-18095714D01*
X6359571Y-18095714D02*
X6369095Y-18114762D01*
X6369095Y-18114762D02*
X6369095Y-18162381D01*
X6369095Y-18162381D02*
X6359571Y-18181429D01*
X6359571Y-18181429D02*
X6350048Y-18190952D01*
X6350048Y-18190952D02*
X6331000Y-18200476D01*
X6331000Y-18200476D02*
X6283381Y-18200476D01*
X6283381Y-18200476D02*
X6264333Y-18190952D01*
X6264333Y-18190952D02*
X6254809Y-18181429D01*
X6492905Y-18000476D02*
X6511952Y-18000476D01*
X6511952Y-18000476D02*
X6531000Y-18010000D01*
X6531000Y-18010000D02*
X6540524Y-18019524D01*
X6540524Y-18019524D02*
X6550048Y-18038571D01*
X6550048Y-18038571D02*
X6559571Y-18076667D01*
X6559571Y-18076667D02*
X6559571Y-18124286D01*
X6559571Y-18124286D02*
X6550048Y-18162381D01*
X6550048Y-18162381D02*
X6540524Y-18181429D01*
X6540524Y-18181429D02*
X6531000Y-18190952D01*
X6531000Y-18190952D02*
X6511952Y-18200476D01*
X6511952Y-18200476D02*
X6492905Y-18200476D01*
X6492905Y-18200476D02*
X6473857Y-18190952D01*
X6473857Y-18190952D02*
X6464333Y-18181429D01*
X6464333Y-18181429D02*
X6454809Y-18162381D01*
X6454809Y-18162381D02*
X6445286Y-18124286D01*
X6445286Y-18124286D02*
X6445286Y-18076667D01*
X6445286Y-18076667D02*
X6454809Y-18038571D01*
X6454809Y-18038571D02*
X6464333Y-18019524D01*
X6464333Y-18019524D02*
X6473857Y-18010000D01*
X6473857Y-18010000D02*
X6492905Y-18000476D01*
X6683381Y-18000476D02*
X6702429Y-18000476D01*
X6702429Y-18000476D02*
X6721476Y-18010000D01*
X6721476Y-18010000D02*
X6731000Y-18019524D01*
X6731000Y-18019524D02*
X6740524Y-18038571D01*
X6740524Y-18038571D02*
X6750048Y-18076667D01*
X6750048Y-18076667D02*
X6750048Y-18124286D01*
X6750048Y-18124286D02*
X6740524Y-18162381D01*
X6740524Y-18162381D02*
X6731000Y-18181429D01*
X6731000Y-18181429D02*
X6721476Y-18190952D01*
X6721476Y-18190952D02*
X6702429Y-18200476D01*
X6702429Y-18200476D02*
X6683381Y-18200476D01*
X6683381Y-18200476D02*
X6664333Y-18190952D01*
X6664333Y-18190952D02*
X6654809Y-18181429D01*
X6654809Y-18181429D02*
X6645286Y-18162381D01*
X6645286Y-18162381D02*
X6635762Y-18124286D01*
X6635762Y-18124286D02*
X6635762Y-18076667D01*
X6635762Y-18076667D02*
X6645286Y-18038571D01*
X6645286Y-18038571D02*
X6654809Y-18019524D01*
X6654809Y-18019524D02*
X6664333Y-18010000D01*
X6664333Y-18010000D02*
X6683381Y-18000476D01*
X6835762Y-18200476D02*
X6835762Y-18067143D01*
X6835762Y-18086190D02*
X6845286Y-18076667D01*
X6845286Y-18076667D02*
X6864333Y-18067143D01*
X6864333Y-18067143D02*
X6892905Y-18067143D01*
X6892905Y-18067143D02*
X6911952Y-18076667D01*
X6911952Y-18076667D02*
X6921476Y-18095714D01*
X6921476Y-18095714D02*
X6921476Y-18200476D01*
X6921476Y-18095714D02*
X6931000Y-18076667D01*
X6931000Y-18076667D02*
X6950048Y-18067143D01*
X6950048Y-18067143D02*
X6978619Y-18067143D01*
X6978619Y-18067143D02*
X6997667Y-18076667D01*
X6997667Y-18076667D02*
X7007190Y-18095714D01*
X7007190Y-18095714D02*
X7007190Y-18200476D01*
X7102429Y-18200476D02*
X7102429Y-18067143D01*
X7102429Y-18086190D02*
X7111952Y-18076667D01*
X7111952Y-18076667D02*
X7131000Y-18067143D01*
X7131000Y-18067143D02*
X7159571Y-18067143D01*
X7159571Y-18067143D02*
X7178619Y-18076667D01*
X7178619Y-18076667D02*
X7188143Y-18095714D01*
X7188143Y-18095714D02*
X7188143Y-18200476D01*
X7188143Y-18095714D02*
X7197667Y-18076667D01*
X7197667Y-18076667D02*
X7216714Y-18067143D01*
X7216714Y-18067143D02*
X7245286Y-18067143D01*
X7245286Y-18067143D02*
X7264333Y-18076667D01*
X7264333Y-18076667D02*
X7273857Y-18095714D01*
X7273857Y-18095714D02*
X7273857Y-18200476D01*
X7631952Y-17990952D02*
X7460524Y-18248095D01*
X7856714Y-18000476D02*
X7875762Y-18000476D01*
X7875762Y-18000476D02*
X7894810Y-18010000D01*
X7894810Y-18010000D02*
X7904333Y-18019524D01*
X7904333Y-18019524D02*
X7913857Y-18038571D01*
X7913857Y-18038571D02*
X7923381Y-18076667D01*
X7923381Y-18076667D02*
X7923381Y-18124286D01*
X7923381Y-18124286D02*
X7913857Y-18162381D01*
X7913857Y-18162381D02*
X7904333Y-18181429D01*
X7904333Y-18181429D02*
X7894810Y-18190952D01*
X7894810Y-18190952D02*
X7875762Y-18200476D01*
X7875762Y-18200476D02*
X7856714Y-18200476D01*
X7856714Y-18200476D02*
X7837667Y-18190952D01*
X7837667Y-18190952D02*
X7828143Y-18181429D01*
X7828143Y-18181429D02*
X7818619Y-18162381D01*
X7818619Y-18162381D02*
X7809095Y-18124286D01*
X7809095Y-18124286D02*
X7809095Y-18076667D01*
X7809095Y-18076667D02*
X7818619Y-18038571D01*
X7818619Y-18038571D02*
X7828143Y-18019524D01*
X7828143Y-18019524D02*
X7837667Y-18010000D01*
X7837667Y-18010000D02*
X7856714Y-18000476D01*
X8009095Y-18181429D02*
X8018619Y-18190952D01*
X8018619Y-18190952D02*
X8009095Y-18200476D01*
X8009095Y-18200476D02*
X7999571Y-18190952D01*
X7999571Y-18190952D02*
X8009095Y-18181429D01*
X8009095Y-18181429D02*
X8009095Y-18200476D01*
X8142429Y-18000476D02*
X8161476Y-18000476D01*
X8161476Y-18000476D02*
X8180524Y-18010000D01*
X8180524Y-18010000D02*
X8190048Y-18019524D01*
X8190048Y-18019524D02*
X8199571Y-18038571D01*
X8199571Y-18038571D02*
X8209095Y-18076667D01*
X8209095Y-18076667D02*
X8209095Y-18124286D01*
X8209095Y-18124286D02*
X8199571Y-18162381D01*
X8199571Y-18162381D02*
X8190048Y-18181429D01*
X8190048Y-18181429D02*
X8180524Y-18190952D01*
X8180524Y-18190952D02*
X8161476Y-18200476D01*
X8161476Y-18200476D02*
X8142429Y-18200476D01*
X8142429Y-18200476D02*
X8123381Y-18190952D01*
X8123381Y-18190952D02*
X8113857Y-18181429D01*
X8113857Y-18181429D02*
X8104333Y-18162381D01*
X8104333Y-18162381D02*
X8094810Y-18124286D01*
X8094810Y-18124286D02*
X8094810Y-18076667D01*
X8094810Y-18076667D02*
X8104333Y-18038571D01*
X8104333Y-18038571D02*
X8113857Y-18019524D01*
X8113857Y-18019524D02*
X8123381Y-18010000D01*
X8123381Y-18010000D02*
X8142429Y-18000476D01*
X8399572Y-18200476D02*
X8285286Y-18200476D01*
X8342429Y-18200476D02*
X8342429Y-18000476D01*
X8342429Y-18000476D02*
X8323381Y-18029048D01*
X8323381Y-18029048D02*
X8304333Y-18048095D01*
X8304333Y-18048095D02*
X8285286Y-18057619D01*
X8494810Y-18200476D02*
X8532905Y-18200476D01*
X8532905Y-18200476D02*
X8551953Y-18190952D01*
X8551953Y-18190952D02*
X8561476Y-18181429D01*
X8561476Y-18181429D02*
X8580524Y-18152857D01*
X8580524Y-18152857D02*
X8590048Y-18114762D01*
X8590048Y-18114762D02*
X8590048Y-18038571D01*
X8590048Y-18038571D02*
X8580524Y-18019524D01*
X8580524Y-18019524D02*
X8571000Y-18010000D01*
X8571000Y-18010000D02*
X8551953Y-18000476D01*
X8551953Y-18000476D02*
X8513857Y-18000476D01*
X8513857Y-18000476D02*
X8494810Y-18010000D01*
X8494810Y-18010000D02*
X8485286Y-18019524D01*
X8485286Y-18019524D02*
X8475762Y-18038571D01*
X8475762Y-18038571D02*
X8475762Y-18086190D01*
X8475762Y-18086190D02*
X8485286Y-18105238D01*
X8485286Y-18105238D02*
X8494810Y-18114762D01*
X8494810Y-18114762D02*
X8513857Y-18124286D01*
X8513857Y-18124286D02*
X8551953Y-18124286D01*
X8551953Y-18124286D02*
X8571000Y-18114762D01*
X8571000Y-18114762D02*
X8580524Y-18105238D01*
X8580524Y-18105238D02*
X8590048Y-18086190D01*
X8656714Y-18000476D02*
X8790048Y-18000476D01*
X8790048Y-18000476D02*
X8704333Y-18200476D01*
X8856714Y-18000476D02*
X8856714Y-18038571D01*
X8932905Y-18000476D02*
X8932905Y-18038571D01*
X9195762Y-18276667D02*
X9186238Y-18267143D01*
X9186238Y-18267143D02*
X9167191Y-18238571D01*
X9167191Y-18238571D02*
X9157667Y-18219524D01*
X9157667Y-18219524D02*
X9148143Y-18190952D01*
X9148143Y-18190952D02*
X9138619Y-18143333D01*
X9138619Y-18143333D02*
X9138619Y-18105238D01*
X9138619Y-18105238D02*
X9148143Y-18057619D01*
X9148143Y-18057619D02*
X9157667Y-18029048D01*
X9157667Y-18029048D02*
X9167191Y-18010000D01*
X9167191Y-18010000D02*
X9186238Y-17981429D01*
X9186238Y-17981429D02*
X9195762Y-17971905D01*
X9310048Y-18000476D02*
X9329095Y-18000476D01*
X9329095Y-18000476D02*
X9348143Y-18010000D01*
X9348143Y-18010000D02*
X9357667Y-18019524D01*
X9357667Y-18019524D02*
X9367191Y-18038571D01*
X9367191Y-18038571D02*
X9376714Y-18076667D01*
X9376714Y-18076667D02*
X9376714Y-18124286D01*
X9376714Y-18124286D02*
X9367191Y-18162381D01*
X9367191Y-18162381D02*
X9357667Y-18181429D01*
X9357667Y-18181429D02*
X9348143Y-18190952D01*
X9348143Y-18190952D02*
X9329095Y-18200476D01*
X9329095Y-18200476D02*
X9310048Y-18200476D01*
X9310048Y-18200476D02*
X9291000Y-18190952D01*
X9291000Y-18190952D02*
X9281476Y-18181429D01*
X9281476Y-18181429D02*
X9271953Y-18162381D01*
X9271953Y-18162381D02*
X9262429Y-18124286D01*
X9262429Y-18124286D02*
X9262429Y-18076667D01*
X9262429Y-18076667D02*
X9271953Y-18038571D01*
X9271953Y-18038571D02*
X9281476Y-18019524D01*
X9281476Y-18019524D02*
X9291000Y-18010000D01*
X9291000Y-18010000D02*
X9310048Y-18000476D01*
X9582429Y-18200476D02*
X9582429Y-18000476D01*
X9668143Y-18200476D02*
X9668143Y-18095714D01*
X9668143Y-18095714D02*
X9658619Y-18076667D01*
X9658619Y-18076667D02*
X9639572Y-18067143D01*
X9639572Y-18067143D02*
X9611000Y-18067143D01*
X9611000Y-18067143D02*
X9591953Y-18076667D01*
X9591953Y-18076667D02*
X9582429Y-18086190D01*
X9791953Y-18200476D02*
X9772905Y-18190952D01*
X9772905Y-18190952D02*
X9763381Y-18181429D01*
X9763381Y-18181429D02*
X9753857Y-18162381D01*
X9753857Y-18162381D02*
X9753857Y-18105238D01*
X9753857Y-18105238D02*
X9763381Y-18086190D01*
X9763381Y-18086190D02*
X9772905Y-18076667D01*
X9772905Y-18076667D02*
X9791953Y-18067143D01*
X9791953Y-18067143D02*
X9820524Y-18067143D01*
X9820524Y-18067143D02*
X9839572Y-18076667D01*
X9839572Y-18076667D02*
X9849095Y-18086190D01*
X9849095Y-18086190D02*
X9858619Y-18105238D01*
X9858619Y-18105238D02*
X9858619Y-18162381D01*
X9858619Y-18162381D02*
X9849095Y-18181429D01*
X9849095Y-18181429D02*
X9839572Y-18190952D01*
X9839572Y-18190952D02*
X9820524Y-18200476D01*
X9820524Y-18200476D02*
X9791953Y-18200476D01*
X9972905Y-18200476D02*
X9953857Y-18190952D01*
X9953857Y-18190952D02*
X9944334Y-18171905D01*
X9944334Y-18171905D02*
X9944334Y-18000476D01*
X10125286Y-18190952D02*
X10106238Y-18200476D01*
X10106238Y-18200476D02*
X10068143Y-18200476D01*
X10068143Y-18200476D02*
X10049095Y-18190952D01*
X10049095Y-18190952D02*
X10039572Y-18171905D01*
X10039572Y-18171905D02*
X10039572Y-18095714D01*
X10039572Y-18095714D02*
X10049095Y-18076667D01*
X10049095Y-18076667D02*
X10068143Y-18067143D01*
X10068143Y-18067143D02*
X10106238Y-18067143D01*
X10106238Y-18067143D02*
X10125286Y-18076667D01*
X10125286Y-18076667D02*
X10134810Y-18095714D01*
X10134810Y-18095714D02*
X10134810Y-18114762D01*
X10134810Y-18114762D02*
X10039572Y-18133810D01*
X10211000Y-18190952D02*
X10230048Y-18200476D01*
X10230048Y-18200476D02*
X10268143Y-18200476D01*
X10268143Y-18200476D02*
X10287191Y-18190952D01*
X10287191Y-18190952D02*
X10296715Y-18171905D01*
X10296715Y-18171905D02*
X10296715Y-18162381D01*
X10296715Y-18162381D02*
X10287191Y-18143333D01*
X10287191Y-18143333D02*
X10268143Y-18133810D01*
X10268143Y-18133810D02*
X10239572Y-18133810D01*
X10239572Y-18133810D02*
X10220524Y-18124286D01*
X10220524Y-18124286D02*
X10211000Y-18105238D01*
X10211000Y-18105238D02*
X10211000Y-18095714D01*
X10211000Y-18095714D02*
X10220524Y-18076667D01*
X10220524Y-18076667D02*
X10239572Y-18067143D01*
X10239572Y-18067143D02*
X10268143Y-18067143D01*
X10268143Y-18067143D02*
X10287191Y-18076667D01*
X10502429Y-18124286D02*
X10654810Y-18124286D01*
X10578619Y-18200476D02*
X10578619Y-18048095D01*
X10955762Y-18067143D02*
X10955762Y-18200476D01*
X10908143Y-17990952D02*
X10860524Y-18133810D01*
X10860524Y-18133810D02*
X10984334Y-18133810D01*
X11171000Y-18190952D02*
X11190048Y-18200476D01*
X11190048Y-18200476D02*
X11228143Y-18200476D01*
X11228143Y-18200476D02*
X11247191Y-18190952D01*
X11247191Y-18190952D02*
X11256714Y-18171905D01*
X11256714Y-18171905D02*
X11256714Y-18162381D01*
X11256714Y-18162381D02*
X11247191Y-18143333D01*
X11247191Y-18143333D02*
X11228143Y-18133810D01*
X11228143Y-18133810D02*
X11199572Y-18133810D01*
X11199572Y-18133810D02*
X11180524Y-18124286D01*
X11180524Y-18124286D02*
X11171000Y-18105238D01*
X11171000Y-18105238D02*
X11171000Y-18095714D01*
X11171000Y-18095714D02*
X11180524Y-18076667D01*
X11180524Y-18076667D02*
X11199572Y-18067143D01*
X11199572Y-18067143D02*
X11228143Y-18067143D01*
X11228143Y-18067143D02*
X11247191Y-18076667D01*
X11371000Y-18200476D02*
X11351953Y-18190952D01*
X11351953Y-18190952D02*
X11342429Y-18171905D01*
X11342429Y-18171905D02*
X11342429Y-18000476D01*
X11475762Y-18200476D02*
X11456714Y-18190952D01*
X11456714Y-18190952D02*
X11447191Y-18181429D01*
X11447191Y-18181429D02*
X11437667Y-18162381D01*
X11437667Y-18162381D02*
X11437667Y-18105238D01*
X11437667Y-18105238D02*
X11447191Y-18086190D01*
X11447191Y-18086190D02*
X11456714Y-18076667D01*
X11456714Y-18076667D02*
X11475762Y-18067143D01*
X11475762Y-18067143D02*
X11504334Y-18067143D01*
X11504334Y-18067143D02*
X11523381Y-18076667D01*
X11523381Y-18076667D02*
X11532905Y-18086190D01*
X11532905Y-18086190D02*
X11542429Y-18105238D01*
X11542429Y-18105238D02*
X11542429Y-18162381D01*
X11542429Y-18162381D02*
X11532905Y-18181429D01*
X11532905Y-18181429D02*
X11523381Y-18190952D01*
X11523381Y-18190952D02*
X11504334Y-18200476D01*
X11504334Y-18200476D02*
X11475762Y-18200476D01*
X11599572Y-18067143D02*
X11675762Y-18067143D01*
X11628143Y-18000476D02*
X11628143Y-18171905D01*
X11628143Y-18171905D02*
X11637667Y-18190952D01*
X11637667Y-18190952D02*
X11656714Y-18200476D01*
X11656714Y-18200476D02*
X11675762Y-18200476D01*
X11732905Y-18190952D02*
X11751953Y-18200476D01*
X11751953Y-18200476D02*
X11790048Y-18200476D01*
X11790048Y-18200476D02*
X11809095Y-18190952D01*
X11809095Y-18190952D02*
X11818619Y-18171905D01*
X11818619Y-18171905D02*
X11818619Y-18162381D01*
X11818619Y-18162381D02*
X11809095Y-18143333D01*
X11809095Y-18143333D02*
X11790048Y-18133810D01*
X11790048Y-18133810D02*
X11761476Y-18133810D01*
X11761476Y-18133810D02*
X11742429Y-18124286D01*
X11742429Y-18124286D02*
X11732905Y-18105238D01*
X11732905Y-18105238D02*
X11732905Y-18095714D01*
X11732905Y-18095714D02*
X11742429Y-18076667D01*
X11742429Y-18076667D02*
X11761476Y-18067143D01*
X11761476Y-18067143D02*
X11790048Y-18067143D01*
X11790048Y-18067143D02*
X11809095Y-18076667D01*
X11885286Y-18276667D02*
X11894810Y-18267143D01*
X11894810Y-18267143D02*
X11913857Y-18238571D01*
X11913857Y-18238571D02*
X11923381Y-18219524D01*
X11923381Y-18219524D02*
X11932905Y-18190952D01*
X11932905Y-18190952D02*
X11942429Y-18143333D01*
X11942429Y-18143333D02*
X11942429Y-18105238D01*
X11942429Y-18105238D02*
X11932905Y-18057619D01*
X11932905Y-18057619D02*
X11923381Y-18029048D01*
X11923381Y-18029048D02*
X11913857Y-18010000D01*
X11913857Y-18010000D02*
X11894810Y-17981429D01*
X11894810Y-17981429D02*
X11885286Y-17971905D01*
D16*
X5551000Y-18301000D02*
X5731000Y-18481000D01*
X5731000Y-18301000D02*
X5551000Y-18481000D01*
X5641000Y-18301000D02*
X5641000Y-18481000D01*
X5551000Y-18391000D02*
X5731000Y-18391000D01*
D11*
X6083381Y-18464476D02*
X5969095Y-18464476D01*
X6026238Y-18464476D02*
X6026238Y-18264476D01*
X6026238Y-18264476D02*
X6007190Y-18293048D01*
X6007190Y-18293048D02*
X5988143Y-18312095D01*
X5988143Y-18312095D02*
X5969095Y-18321619D01*
X6169095Y-18445429D02*
X6178619Y-18454952D01*
X6178619Y-18454952D02*
X6169095Y-18464476D01*
X6169095Y-18464476D02*
X6159571Y-18454952D01*
X6159571Y-18454952D02*
X6169095Y-18445429D01*
X6169095Y-18445429D02*
X6169095Y-18464476D01*
X6292905Y-18350190D02*
X6273857Y-18340667D01*
X6273857Y-18340667D02*
X6264333Y-18331143D01*
X6264333Y-18331143D02*
X6254809Y-18312095D01*
X6254809Y-18312095D02*
X6254809Y-18302571D01*
X6254809Y-18302571D02*
X6264333Y-18283524D01*
X6264333Y-18283524D02*
X6273857Y-18274000D01*
X6273857Y-18274000D02*
X6292905Y-18264476D01*
X6292905Y-18264476D02*
X6331000Y-18264476D01*
X6331000Y-18264476D02*
X6350048Y-18274000D01*
X6350048Y-18274000D02*
X6359571Y-18283524D01*
X6359571Y-18283524D02*
X6369095Y-18302571D01*
X6369095Y-18302571D02*
X6369095Y-18312095D01*
X6369095Y-18312095D02*
X6359571Y-18331143D01*
X6359571Y-18331143D02*
X6350048Y-18340667D01*
X6350048Y-18340667D02*
X6331000Y-18350190D01*
X6331000Y-18350190D02*
X6292905Y-18350190D01*
X6292905Y-18350190D02*
X6273857Y-18359714D01*
X6273857Y-18359714D02*
X6264333Y-18369238D01*
X6264333Y-18369238D02*
X6254809Y-18388286D01*
X6254809Y-18388286D02*
X6254809Y-18426381D01*
X6254809Y-18426381D02*
X6264333Y-18445429D01*
X6264333Y-18445429D02*
X6273857Y-18454952D01*
X6273857Y-18454952D02*
X6292905Y-18464476D01*
X6292905Y-18464476D02*
X6331000Y-18464476D01*
X6331000Y-18464476D02*
X6350048Y-18454952D01*
X6350048Y-18454952D02*
X6359571Y-18445429D01*
X6359571Y-18445429D02*
X6369095Y-18426381D01*
X6369095Y-18426381D02*
X6369095Y-18388286D01*
X6369095Y-18388286D02*
X6359571Y-18369238D01*
X6359571Y-18369238D02*
X6350048Y-18359714D01*
X6350048Y-18359714D02*
X6331000Y-18350190D01*
X6492905Y-18264476D02*
X6511952Y-18264476D01*
X6511952Y-18264476D02*
X6531000Y-18274000D01*
X6531000Y-18274000D02*
X6540524Y-18283524D01*
X6540524Y-18283524D02*
X6550048Y-18302571D01*
X6550048Y-18302571D02*
X6559571Y-18340667D01*
X6559571Y-18340667D02*
X6559571Y-18388286D01*
X6559571Y-18388286D02*
X6550048Y-18426381D01*
X6550048Y-18426381D02*
X6540524Y-18445429D01*
X6540524Y-18445429D02*
X6531000Y-18454952D01*
X6531000Y-18454952D02*
X6511952Y-18464476D01*
X6511952Y-18464476D02*
X6492905Y-18464476D01*
X6492905Y-18464476D02*
X6473857Y-18454952D01*
X6473857Y-18454952D02*
X6464333Y-18445429D01*
X6464333Y-18445429D02*
X6454809Y-18426381D01*
X6454809Y-18426381D02*
X6445286Y-18388286D01*
X6445286Y-18388286D02*
X6445286Y-18340667D01*
X6445286Y-18340667D02*
X6454809Y-18302571D01*
X6454809Y-18302571D02*
X6464333Y-18283524D01*
X6464333Y-18283524D02*
X6473857Y-18274000D01*
X6473857Y-18274000D02*
X6492905Y-18264476D01*
X6683381Y-18264476D02*
X6702429Y-18264476D01*
X6702429Y-18264476D02*
X6721476Y-18274000D01*
X6721476Y-18274000D02*
X6731000Y-18283524D01*
X6731000Y-18283524D02*
X6740524Y-18302571D01*
X6740524Y-18302571D02*
X6750048Y-18340667D01*
X6750048Y-18340667D02*
X6750048Y-18388286D01*
X6750048Y-18388286D02*
X6740524Y-18426381D01*
X6740524Y-18426381D02*
X6731000Y-18445429D01*
X6731000Y-18445429D02*
X6721476Y-18454952D01*
X6721476Y-18454952D02*
X6702429Y-18464476D01*
X6702429Y-18464476D02*
X6683381Y-18464476D01*
X6683381Y-18464476D02*
X6664333Y-18454952D01*
X6664333Y-18454952D02*
X6654809Y-18445429D01*
X6654809Y-18445429D02*
X6645286Y-18426381D01*
X6645286Y-18426381D02*
X6635762Y-18388286D01*
X6635762Y-18388286D02*
X6635762Y-18340667D01*
X6635762Y-18340667D02*
X6645286Y-18302571D01*
X6645286Y-18302571D02*
X6654809Y-18283524D01*
X6654809Y-18283524D02*
X6664333Y-18274000D01*
X6664333Y-18274000D02*
X6683381Y-18264476D01*
X6835762Y-18464476D02*
X6835762Y-18331143D01*
X6835762Y-18350190D02*
X6845286Y-18340667D01*
X6845286Y-18340667D02*
X6864333Y-18331143D01*
X6864333Y-18331143D02*
X6892905Y-18331143D01*
X6892905Y-18331143D02*
X6911952Y-18340667D01*
X6911952Y-18340667D02*
X6921476Y-18359714D01*
X6921476Y-18359714D02*
X6921476Y-18464476D01*
X6921476Y-18359714D02*
X6931000Y-18340667D01*
X6931000Y-18340667D02*
X6950048Y-18331143D01*
X6950048Y-18331143D02*
X6978619Y-18331143D01*
X6978619Y-18331143D02*
X6997667Y-18340667D01*
X6997667Y-18340667D02*
X7007190Y-18359714D01*
X7007190Y-18359714D02*
X7007190Y-18464476D01*
X7102429Y-18464476D02*
X7102429Y-18331143D01*
X7102429Y-18350190D02*
X7111952Y-18340667D01*
X7111952Y-18340667D02*
X7131000Y-18331143D01*
X7131000Y-18331143D02*
X7159571Y-18331143D01*
X7159571Y-18331143D02*
X7178619Y-18340667D01*
X7178619Y-18340667D02*
X7188143Y-18359714D01*
X7188143Y-18359714D02*
X7188143Y-18464476D01*
X7188143Y-18359714D02*
X7197667Y-18340667D01*
X7197667Y-18340667D02*
X7216714Y-18331143D01*
X7216714Y-18331143D02*
X7245286Y-18331143D01*
X7245286Y-18331143D02*
X7264333Y-18340667D01*
X7264333Y-18340667D02*
X7273857Y-18359714D01*
X7273857Y-18359714D02*
X7273857Y-18464476D01*
X7631952Y-18254952D02*
X7460524Y-18512095D01*
X7856714Y-18264476D02*
X7875762Y-18264476D01*
X7875762Y-18264476D02*
X7894810Y-18274000D01*
X7894810Y-18274000D02*
X7904333Y-18283524D01*
X7904333Y-18283524D02*
X7913857Y-18302571D01*
X7913857Y-18302571D02*
X7923381Y-18340667D01*
X7923381Y-18340667D02*
X7923381Y-18388286D01*
X7923381Y-18388286D02*
X7913857Y-18426381D01*
X7913857Y-18426381D02*
X7904333Y-18445429D01*
X7904333Y-18445429D02*
X7894810Y-18454952D01*
X7894810Y-18454952D02*
X7875762Y-18464476D01*
X7875762Y-18464476D02*
X7856714Y-18464476D01*
X7856714Y-18464476D02*
X7837667Y-18454952D01*
X7837667Y-18454952D02*
X7828143Y-18445429D01*
X7828143Y-18445429D02*
X7818619Y-18426381D01*
X7818619Y-18426381D02*
X7809095Y-18388286D01*
X7809095Y-18388286D02*
X7809095Y-18340667D01*
X7809095Y-18340667D02*
X7818619Y-18302571D01*
X7818619Y-18302571D02*
X7828143Y-18283524D01*
X7828143Y-18283524D02*
X7837667Y-18274000D01*
X7837667Y-18274000D02*
X7856714Y-18264476D01*
X8009095Y-18445429D02*
X8018619Y-18454952D01*
X8018619Y-18454952D02*
X8009095Y-18464476D01*
X8009095Y-18464476D02*
X7999571Y-18454952D01*
X7999571Y-18454952D02*
X8009095Y-18445429D01*
X8009095Y-18445429D02*
X8009095Y-18464476D01*
X8142429Y-18264476D02*
X8161476Y-18264476D01*
X8161476Y-18264476D02*
X8180524Y-18274000D01*
X8180524Y-18274000D02*
X8190048Y-18283524D01*
X8190048Y-18283524D02*
X8199571Y-18302571D01*
X8199571Y-18302571D02*
X8209095Y-18340667D01*
X8209095Y-18340667D02*
X8209095Y-18388286D01*
X8209095Y-18388286D02*
X8199571Y-18426381D01*
X8199571Y-18426381D02*
X8190048Y-18445429D01*
X8190048Y-18445429D02*
X8180524Y-18454952D01*
X8180524Y-18454952D02*
X8161476Y-18464476D01*
X8161476Y-18464476D02*
X8142429Y-18464476D01*
X8142429Y-18464476D02*
X8123381Y-18454952D01*
X8123381Y-18454952D02*
X8113857Y-18445429D01*
X8113857Y-18445429D02*
X8104333Y-18426381D01*
X8104333Y-18426381D02*
X8094810Y-18388286D01*
X8094810Y-18388286D02*
X8094810Y-18340667D01*
X8094810Y-18340667D02*
X8104333Y-18302571D01*
X8104333Y-18302571D02*
X8113857Y-18283524D01*
X8113857Y-18283524D02*
X8123381Y-18274000D01*
X8123381Y-18274000D02*
X8142429Y-18264476D01*
X8275762Y-18264476D02*
X8409095Y-18264476D01*
X8409095Y-18264476D02*
X8323381Y-18464476D01*
X8523381Y-18264476D02*
X8542429Y-18264476D01*
X8542429Y-18264476D02*
X8561476Y-18274000D01*
X8561476Y-18274000D02*
X8571000Y-18283524D01*
X8571000Y-18283524D02*
X8580524Y-18302571D01*
X8580524Y-18302571D02*
X8590048Y-18340667D01*
X8590048Y-18340667D02*
X8590048Y-18388286D01*
X8590048Y-18388286D02*
X8580524Y-18426381D01*
X8580524Y-18426381D02*
X8571000Y-18445429D01*
X8571000Y-18445429D02*
X8561476Y-18454952D01*
X8561476Y-18454952D02*
X8542429Y-18464476D01*
X8542429Y-18464476D02*
X8523381Y-18464476D01*
X8523381Y-18464476D02*
X8504333Y-18454952D01*
X8504333Y-18454952D02*
X8494810Y-18445429D01*
X8494810Y-18445429D02*
X8485286Y-18426381D01*
X8485286Y-18426381D02*
X8475762Y-18388286D01*
X8475762Y-18388286D02*
X8475762Y-18340667D01*
X8475762Y-18340667D02*
X8485286Y-18302571D01*
X8485286Y-18302571D02*
X8494810Y-18283524D01*
X8494810Y-18283524D02*
X8504333Y-18274000D01*
X8504333Y-18274000D02*
X8523381Y-18264476D01*
X8685286Y-18464476D02*
X8723381Y-18464476D01*
X8723381Y-18464476D02*
X8742429Y-18454952D01*
X8742429Y-18454952D02*
X8751953Y-18445429D01*
X8751953Y-18445429D02*
X8771000Y-18416857D01*
X8771000Y-18416857D02*
X8780524Y-18378762D01*
X8780524Y-18378762D02*
X8780524Y-18302571D01*
X8780524Y-18302571D02*
X8771000Y-18283524D01*
X8771000Y-18283524D02*
X8761476Y-18274000D01*
X8761476Y-18274000D02*
X8742429Y-18264476D01*
X8742429Y-18264476D02*
X8704333Y-18264476D01*
X8704333Y-18264476D02*
X8685286Y-18274000D01*
X8685286Y-18274000D02*
X8675762Y-18283524D01*
X8675762Y-18283524D02*
X8666238Y-18302571D01*
X8666238Y-18302571D02*
X8666238Y-18350190D01*
X8666238Y-18350190D02*
X8675762Y-18369238D01*
X8675762Y-18369238D02*
X8685286Y-18378762D01*
X8685286Y-18378762D02*
X8704333Y-18388286D01*
X8704333Y-18388286D02*
X8742429Y-18388286D01*
X8742429Y-18388286D02*
X8761476Y-18378762D01*
X8761476Y-18378762D02*
X8771000Y-18369238D01*
X8771000Y-18369238D02*
X8780524Y-18350190D01*
X8856714Y-18264476D02*
X8856714Y-18302571D01*
X8932905Y-18264476D02*
X8932905Y-18302571D01*
X9195762Y-18540667D02*
X9186238Y-18531143D01*
X9186238Y-18531143D02*
X9167191Y-18502571D01*
X9167191Y-18502571D02*
X9157667Y-18483524D01*
X9157667Y-18483524D02*
X9148143Y-18454952D01*
X9148143Y-18454952D02*
X9138619Y-18407333D01*
X9138619Y-18407333D02*
X9138619Y-18369238D01*
X9138619Y-18369238D02*
X9148143Y-18321619D01*
X9148143Y-18321619D02*
X9157667Y-18293048D01*
X9157667Y-18293048D02*
X9167191Y-18274000D01*
X9167191Y-18274000D02*
X9186238Y-18245429D01*
X9186238Y-18245429D02*
X9195762Y-18235905D01*
X9300524Y-18350190D02*
X9281476Y-18340667D01*
X9281476Y-18340667D02*
X9271953Y-18331143D01*
X9271953Y-18331143D02*
X9262429Y-18312095D01*
X9262429Y-18312095D02*
X9262429Y-18302571D01*
X9262429Y-18302571D02*
X9271953Y-18283524D01*
X9271953Y-18283524D02*
X9281476Y-18274000D01*
X9281476Y-18274000D02*
X9300524Y-18264476D01*
X9300524Y-18264476D02*
X9338619Y-18264476D01*
X9338619Y-18264476D02*
X9357667Y-18274000D01*
X9357667Y-18274000D02*
X9367191Y-18283524D01*
X9367191Y-18283524D02*
X9376714Y-18302571D01*
X9376714Y-18302571D02*
X9376714Y-18312095D01*
X9376714Y-18312095D02*
X9367191Y-18331143D01*
X9367191Y-18331143D02*
X9357667Y-18340667D01*
X9357667Y-18340667D02*
X9338619Y-18350190D01*
X9338619Y-18350190D02*
X9300524Y-18350190D01*
X9300524Y-18350190D02*
X9281476Y-18359714D01*
X9281476Y-18359714D02*
X9271953Y-18369238D01*
X9271953Y-18369238D02*
X9262429Y-18388286D01*
X9262429Y-18388286D02*
X9262429Y-18426381D01*
X9262429Y-18426381D02*
X9271953Y-18445429D01*
X9271953Y-18445429D02*
X9281476Y-18454952D01*
X9281476Y-18454952D02*
X9300524Y-18464476D01*
X9300524Y-18464476D02*
X9338619Y-18464476D01*
X9338619Y-18464476D02*
X9357667Y-18454952D01*
X9357667Y-18454952D02*
X9367191Y-18445429D01*
X9367191Y-18445429D02*
X9376714Y-18426381D01*
X9376714Y-18426381D02*
X9376714Y-18388286D01*
X9376714Y-18388286D02*
X9367191Y-18369238D01*
X9367191Y-18369238D02*
X9357667Y-18359714D01*
X9357667Y-18359714D02*
X9338619Y-18350190D01*
X9582429Y-18464476D02*
X9582429Y-18264476D01*
X9668143Y-18464476D02*
X9668143Y-18359714D01*
X9668143Y-18359714D02*
X9658619Y-18340667D01*
X9658619Y-18340667D02*
X9639572Y-18331143D01*
X9639572Y-18331143D02*
X9611000Y-18331143D01*
X9611000Y-18331143D02*
X9591953Y-18340667D01*
X9591953Y-18340667D02*
X9582429Y-18350190D01*
X9791953Y-18464476D02*
X9772905Y-18454952D01*
X9772905Y-18454952D02*
X9763381Y-18445429D01*
X9763381Y-18445429D02*
X9753857Y-18426381D01*
X9753857Y-18426381D02*
X9753857Y-18369238D01*
X9753857Y-18369238D02*
X9763381Y-18350190D01*
X9763381Y-18350190D02*
X9772905Y-18340667D01*
X9772905Y-18340667D02*
X9791953Y-18331143D01*
X9791953Y-18331143D02*
X9820524Y-18331143D01*
X9820524Y-18331143D02*
X9839572Y-18340667D01*
X9839572Y-18340667D02*
X9849095Y-18350190D01*
X9849095Y-18350190D02*
X9858619Y-18369238D01*
X9858619Y-18369238D02*
X9858619Y-18426381D01*
X9858619Y-18426381D02*
X9849095Y-18445429D01*
X9849095Y-18445429D02*
X9839572Y-18454952D01*
X9839572Y-18454952D02*
X9820524Y-18464476D01*
X9820524Y-18464476D02*
X9791953Y-18464476D01*
X9972905Y-18464476D02*
X9953857Y-18454952D01*
X9953857Y-18454952D02*
X9944334Y-18435905D01*
X9944334Y-18435905D02*
X9944334Y-18264476D01*
X10125286Y-18454952D02*
X10106238Y-18464476D01*
X10106238Y-18464476D02*
X10068143Y-18464476D01*
X10068143Y-18464476D02*
X10049095Y-18454952D01*
X10049095Y-18454952D02*
X10039572Y-18435905D01*
X10039572Y-18435905D02*
X10039572Y-18359714D01*
X10039572Y-18359714D02*
X10049095Y-18340667D01*
X10049095Y-18340667D02*
X10068143Y-18331143D01*
X10068143Y-18331143D02*
X10106238Y-18331143D01*
X10106238Y-18331143D02*
X10125286Y-18340667D01*
X10125286Y-18340667D02*
X10134810Y-18359714D01*
X10134810Y-18359714D02*
X10134810Y-18378762D01*
X10134810Y-18378762D02*
X10039572Y-18397810D01*
X10211000Y-18454952D02*
X10230048Y-18464476D01*
X10230048Y-18464476D02*
X10268143Y-18464476D01*
X10268143Y-18464476D02*
X10287191Y-18454952D01*
X10287191Y-18454952D02*
X10296715Y-18435905D01*
X10296715Y-18435905D02*
X10296715Y-18426381D01*
X10296715Y-18426381D02*
X10287191Y-18407333D01*
X10287191Y-18407333D02*
X10268143Y-18397810D01*
X10268143Y-18397810D02*
X10239572Y-18397810D01*
X10239572Y-18397810D02*
X10220524Y-18388286D01*
X10220524Y-18388286D02*
X10211000Y-18369238D01*
X10211000Y-18369238D02*
X10211000Y-18359714D01*
X10211000Y-18359714D02*
X10220524Y-18340667D01*
X10220524Y-18340667D02*
X10239572Y-18331143D01*
X10239572Y-18331143D02*
X10268143Y-18331143D01*
X10268143Y-18331143D02*
X10287191Y-18340667D01*
X10363381Y-18540667D02*
X10372905Y-18531143D01*
X10372905Y-18531143D02*
X10391953Y-18502571D01*
X10391953Y-18502571D02*
X10401476Y-18483524D01*
X10401476Y-18483524D02*
X10411000Y-18454952D01*
X10411000Y-18454952D02*
X10420524Y-18407333D01*
X10420524Y-18407333D02*
X10420524Y-18369238D01*
X10420524Y-18369238D02*
X10411000Y-18321619D01*
X10411000Y-18321619D02*
X10401476Y-18293048D01*
X10401476Y-18293048D02*
X10391953Y-18274000D01*
X10391953Y-18274000D02*
X10372905Y-18245429D01*
X10372905Y-18245429D02*
X10363381Y-18235905D01*
X5531000Y-18591000D02*
X5731000Y-18791000D01*
X5731000Y-18591000D02*
X5531000Y-18791000D01*
X5701711Y-18761711D02*
X5701711Y-18620289D01*
X5560289Y-18620289D01*
X5560289Y-18761711D01*
X5701711Y-18761711D01*
X5959571Y-18564476D02*
X6083381Y-18564476D01*
X6083381Y-18564476D02*
X6016714Y-18640667D01*
X6016714Y-18640667D02*
X6045286Y-18640667D01*
X6045286Y-18640667D02*
X6064333Y-18650190D01*
X6064333Y-18650190D02*
X6073857Y-18659714D01*
X6073857Y-18659714D02*
X6083381Y-18678762D01*
X6083381Y-18678762D02*
X6083381Y-18726381D01*
X6083381Y-18726381D02*
X6073857Y-18745429D01*
X6073857Y-18745429D02*
X6064333Y-18754952D01*
X6064333Y-18754952D02*
X6045286Y-18764476D01*
X6045286Y-18764476D02*
X5988143Y-18764476D01*
X5988143Y-18764476D02*
X5969095Y-18754952D01*
X5969095Y-18754952D02*
X5959571Y-18745429D01*
X6169095Y-18745429D02*
X6178619Y-18754952D01*
X6178619Y-18754952D02*
X6169095Y-18764476D01*
X6169095Y-18764476D02*
X6159571Y-18754952D01*
X6159571Y-18754952D02*
X6169095Y-18745429D01*
X6169095Y-18745429D02*
X6169095Y-18764476D01*
X6302428Y-18564476D02*
X6321476Y-18564476D01*
X6321476Y-18564476D02*
X6340524Y-18574000D01*
X6340524Y-18574000D02*
X6350048Y-18583524D01*
X6350048Y-18583524D02*
X6359571Y-18602571D01*
X6359571Y-18602571D02*
X6369095Y-18640667D01*
X6369095Y-18640667D02*
X6369095Y-18688286D01*
X6369095Y-18688286D02*
X6359571Y-18726381D01*
X6359571Y-18726381D02*
X6350048Y-18745429D01*
X6350048Y-18745429D02*
X6340524Y-18754952D01*
X6340524Y-18754952D02*
X6321476Y-18764476D01*
X6321476Y-18764476D02*
X6302428Y-18764476D01*
X6302428Y-18764476D02*
X6283381Y-18754952D01*
X6283381Y-18754952D02*
X6273857Y-18745429D01*
X6273857Y-18745429D02*
X6264333Y-18726381D01*
X6264333Y-18726381D02*
X6254809Y-18688286D01*
X6254809Y-18688286D02*
X6254809Y-18640667D01*
X6254809Y-18640667D02*
X6264333Y-18602571D01*
X6264333Y-18602571D02*
X6273857Y-18583524D01*
X6273857Y-18583524D02*
X6283381Y-18574000D01*
X6283381Y-18574000D02*
X6302428Y-18564476D01*
X6492905Y-18564476D02*
X6511952Y-18564476D01*
X6511952Y-18564476D02*
X6531000Y-18574000D01*
X6531000Y-18574000D02*
X6540524Y-18583524D01*
X6540524Y-18583524D02*
X6550048Y-18602571D01*
X6550048Y-18602571D02*
X6559571Y-18640667D01*
X6559571Y-18640667D02*
X6559571Y-18688286D01*
X6559571Y-18688286D02*
X6550048Y-18726381D01*
X6550048Y-18726381D02*
X6540524Y-18745429D01*
X6540524Y-18745429D02*
X6531000Y-18754952D01*
X6531000Y-18754952D02*
X6511952Y-18764476D01*
X6511952Y-18764476D02*
X6492905Y-18764476D01*
X6492905Y-18764476D02*
X6473857Y-18754952D01*
X6473857Y-18754952D02*
X6464333Y-18745429D01*
X6464333Y-18745429D02*
X6454809Y-18726381D01*
X6454809Y-18726381D02*
X6445286Y-18688286D01*
X6445286Y-18688286D02*
X6445286Y-18640667D01*
X6445286Y-18640667D02*
X6454809Y-18602571D01*
X6454809Y-18602571D02*
X6464333Y-18583524D01*
X6464333Y-18583524D02*
X6473857Y-18574000D01*
X6473857Y-18574000D02*
X6492905Y-18564476D01*
X6683381Y-18564476D02*
X6702429Y-18564476D01*
X6702429Y-18564476D02*
X6721476Y-18574000D01*
X6721476Y-18574000D02*
X6731000Y-18583524D01*
X6731000Y-18583524D02*
X6740524Y-18602571D01*
X6740524Y-18602571D02*
X6750048Y-18640667D01*
X6750048Y-18640667D02*
X6750048Y-18688286D01*
X6750048Y-18688286D02*
X6740524Y-18726381D01*
X6740524Y-18726381D02*
X6731000Y-18745429D01*
X6731000Y-18745429D02*
X6721476Y-18754952D01*
X6721476Y-18754952D02*
X6702429Y-18764476D01*
X6702429Y-18764476D02*
X6683381Y-18764476D01*
X6683381Y-18764476D02*
X6664333Y-18754952D01*
X6664333Y-18754952D02*
X6654809Y-18745429D01*
X6654809Y-18745429D02*
X6645286Y-18726381D01*
X6645286Y-18726381D02*
X6635762Y-18688286D01*
X6635762Y-18688286D02*
X6635762Y-18640667D01*
X6635762Y-18640667D02*
X6645286Y-18602571D01*
X6645286Y-18602571D02*
X6654809Y-18583524D01*
X6654809Y-18583524D02*
X6664333Y-18574000D01*
X6664333Y-18574000D02*
X6683381Y-18564476D01*
X6835762Y-18764476D02*
X6835762Y-18631143D01*
X6835762Y-18650190D02*
X6845286Y-18640667D01*
X6845286Y-18640667D02*
X6864333Y-18631143D01*
X6864333Y-18631143D02*
X6892905Y-18631143D01*
X6892905Y-18631143D02*
X6911952Y-18640667D01*
X6911952Y-18640667D02*
X6921476Y-18659714D01*
X6921476Y-18659714D02*
X6921476Y-18764476D01*
X6921476Y-18659714D02*
X6931000Y-18640667D01*
X6931000Y-18640667D02*
X6950048Y-18631143D01*
X6950048Y-18631143D02*
X6978619Y-18631143D01*
X6978619Y-18631143D02*
X6997667Y-18640667D01*
X6997667Y-18640667D02*
X7007190Y-18659714D01*
X7007190Y-18659714D02*
X7007190Y-18764476D01*
X7102429Y-18764476D02*
X7102429Y-18631143D01*
X7102429Y-18650190D02*
X7111952Y-18640667D01*
X7111952Y-18640667D02*
X7131000Y-18631143D01*
X7131000Y-18631143D02*
X7159571Y-18631143D01*
X7159571Y-18631143D02*
X7178619Y-18640667D01*
X7178619Y-18640667D02*
X7188143Y-18659714D01*
X7188143Y-18659714D02*
X7188143Y-18764476D01*
X7188143Y-18659714D02*
X7197667Y-18640667D01*
X7197667Y-18640667D02*
X7216714Y-18631143D01*
X7216714Y-18631143D02*
X7245286Y-18631143D01*
X7245286Y-18631143D02*
X7264333Y-18640667D01*
X7264333Y-18640667D02*
X7273857Y-18659714D01*
X7273857Y-18659714D02*
X7273857Y-18764476D01*
X7631952Y-18554952D02*
X7460524Y-18812095D01*
X7856714Y-18564476D02*
X7875762Y-18564476D01*
X7875762Y-18564476D02*
X7894810Y-18574000D01*
X7894810Y-18574000D02*
X7904333Y-18583524D01*
X7904333Y-18583524D02*
X7913857Y-18602571D01*
X7913857Y-18602571D02*
X7923381Y-18640667D01*
X7923381Y-18640667D02*
X7923381Y-18688286D01*
X7923381Y-18688286D02*
X7913857Y-18726381D01*
X7913857Y-18726381D02*
X7904333Y-18745429D01*
X7904333Y-18745429D02*
X7894810Y-18754952D01*
X7894810Y-18754952D02*
X7875762Y-18764476D01*
X7875762Y-18764476D02*
X7856714Y-18764476D01*
X7856714Y-18764476D02*
X7837667Y-18754952D01*
X7837667Y-18754952D02*
X7828143Y-18745429D01*
X7828143Y-18745429D02*
X7818619Y-18726381D01*
X7818619Y-18726381D02*
X7809095Y-18688286D01*
X7809095Y-18688286D02*
X7809095Y-18640667D01*
X7809095Y-18640667D02*
X7818619Y-18602571D01*
X7818619Y-18602571D02*
X7828143Y-18583524D01*
X7828143Y-18583524D02*
X7837667Y-18574000D01*
X7837667Y-18574000D02*
X7856714Y-18564476D01*
X8009095Y-18745429D02*
X8018619Y-18754952D01*
X8018619Y-18754952D02*
X8009095Y-18764476D01*
X8009095Y-18764476D02*
X7999571Y-18754952D01*
X7999571Y-18754952D02*
X8009095Y-18745429D01*
X8009095Y-18745429D02*
X8009095Y-18764476D01*
X8209095Y-18764476D02*
X8094810Y-18764476D01*
X8151952Y-18764476D02*
X8151952Y-18564476D01*
X8151952Y-18564476D02*
X8132905Y-18593048D01*
X8132905Y-18593048D02*
X8113857Y-18612095D01*
X8113857Y-18612095D02*
X8094810Y-18621619D01*
X8399572Y-18764476D02*
X8285286Y-18764476D01*
X8342429Y-18764476D02*
X8342429Y-18564476D01*
X8342429Y-18564476D02*
X8323381Y-18593048D01*
X8323381Y-18593048D02*
X8304333Y-18612095D01*
X8304333Y-18612095D02*
X8285286Y-18621619D01*
X8513857Y-18650190D02*
X8494810Y-18640667D01*
X8494810Y-18640667D02*
X8485286Y-18631143D01*
X8485286Y-18631143D02*
X8475762Y-18612095D01*
X8475762Y-18612095D02*
X8475762Y-18602571D01*
X8475762Y-18602571D02*
X8485286Y-18583524D01*
X8485286Y-18583524D02*
X8494810Y-18574000D01*
X8494810Y-18574000D02*
X8513857Y-18564476D01*
X8513857Y-18564476D02*
X8551953Y-18564476D01*
X8551953Y-18564476D02*
X8571000Y-18574000D01*
X8571000Y-18574000D02*
X8580524Y-18583524D01*
X8580524Y-18583524D02*
X8590048Y-18602571D01*
X8590048Y-18602571D02*
X8590048Y-18612095D01*
X8590048Y-18612095D02*
X8580524Y-18631143D01*
X8580524Y-18631143D02*
X8571000Y-18640667D01*
X8571000Y-18640667D02*
X8551953Y-18650190D01*
X8551953Y-18650190D02*
X8513857Y-18650190D01*
X8513857Y-18650190D02*
X8494810Y-18659714D01*
X8494810Y-18659714D02*
X8485286Y-18669238D01*
X8485286Y-18669238D02*
X8475762Y-18688286D01*
X8475762Y-18688286D02*
X8475762Y-18726381D01*
X8475762Y-18726381D02*
X8485286Y-18745429D01*
X8485286Y-18745429D02*
X8494810Y-18754952D01*
X8494810Y-18754952D02*
X8513857Y-18764476D01*
X8513857Y-18764476D02*
X8551953Y-18764476D01*
X8551953Y-18764476D02*
X8571000Y-18754952D01*
X8571000Y-18754952D02*
X8580524Y-18745429D01*
X8580524Y-18745429D02*
X8590048Y-18726381D01*
X8590048Y-18726381D02*
X8590048Y-18688286D01*
X8590048Y-18688286D02*
X8580524Y-18669238D01*
X8580524Y-18669238D02*
X8571000Y-18659714D01*
X8571000Y-18659714D02*
X8551953Y-18650190D01*
X8780524Y-18764476D02*
X8666238Y-18764476D01*
X8723381Y-18764476D02*
X8723381Y-18564476D01*
X8723381Y-18564476D02*
X8704333Y-18593048D01*
X8704333Y-18593048D02*
X8685286Y-18612095D01*
X8685286Y-18612095D02*
X8666238Y-18621619D01*
X8856714Y-18564476D02*
X8856714Y-18602571D01*
X8932905Y-18564476D02*
X8932905Y-18602571D01*
X9195762Y-18840667D02*
X9186238Y-18831143D01*
X9186238Y-18831143D02*
X9167191Y-18802571D01*
X9167191Y-18802571D02*
X9157667Y-18783524D01*
X9157667Y-18783524D02*
X9148143Y-18754952D01*
X9148143Y-18754952D02*
X9138619Y-18707333D01*
X9138619Y-18707333D02*
X9138619Y-18669238D01*
X9138619Y-18669238D02*
X9148143Y-18621619D01*
X9148143Y-18621619D02*
X9157667Y-18593048D01*
X9157667Y-18593048D02*
X9167191Y-18574000D01*
X9167191Y-18574000D02*
X9186238Y-18545429D01*
X9186238Y-18545429D02*
X9195762Y-18535905D01*
X9357667Y-18631143D02*
X9357667Y-18764476D01*
X9310048Y-18554952D02*
X9262429Y-18697810D01*
X9262429Y-18697810D02*
X9386238Y-18697810D01*
X9452905Y-18583524D02*
X9462429Y-18574000D01*
X9462429Y-18574000D02*
X9481476Y-18564476D01*
X9481476Y-18564476D02*
X9529095Y-18564476D01*
X9529095Y-18564476D02*
X9548143Y-18574000D01*
X9548143Y-18574000D02*
X9557667Y-18583524D01*
X9557667Y-18583524D02*
X9567191Y-18602571D01*
X9567191Y-18602571D02*
X9567191Y-18621619D01*
X9567191Y-18621619D02*
X9557667Y-18650190D01*
X9557667Y-18650190D02*
X9443381Y-18764476D01*
X9443381Y-18764476D02*
X9567191Y-18764476D01*
X9772905Y-18764476D02*
X9772905Y-18564476D01*
X9858619Y-18764476D02*
X9858619Y-18659714D01*
X9858619Y-18659714D02*
X9849095Y-18640667D01*
X9849095Y-18640667D02*
X9830048Y-18631143D01*
X9830048Y-18631143D02*
X9801476Y-18631143D01*
X9801476Y-18631143D02*
X9782429Y-18640667D01*
X9782429Y-18640667D02*
X9772905Y-18650190D01*
X9982429Y-18764476D02*
X9963381Y-18754952D01*
X9963381Y-18754952D02*
X9953857Y-18745429D01*
X9953857Y-18745429D02*
X9944334Y-18726381D01*
X9944334Y-18726381D02*
X9944334Y-18669238D01*
X9944334Y-18669238D02*
X9953857Y-18650190D01*
X9953857Y-18650190D02*
X9963381Y-18640667D01*
X9963381Y-18640667D02*
X9982429Y-18631143D01*
X9982429Y-18631143D02*
X10011000Y-18631143D01*
X10011000Y-18631143D02*
X10030048Y-18640667D01*
X10030048Y-18640667D02*
X10039572Y-18650190D01*
X10039572Y-18650190D02*
X10049095Y-18669238D01*
X10049095Y-18669238D02*
X10049095Y-18726381D01*
X10049095Y-18726381D02*
X10039572Y-18745429D01*
X10039572Y-18745429D02*
X10030048Y-18754952D01*
X10030048Y-18754952D02*
X10011000Y-18764476D01*
X10011000Y-18764476D02*
X9982429Y-18764476D01*
X10163381Y-18764476D02*
X10144334Y-18754952D01*
X10144334Y-18754952D02*
X10134810Y-18735905D01*
X10134810Y-18735905D02*
X10134810Y-18564476D01*
X10315762Y-18754952D02*
X10296715Y-18764476D01*
X10296715Y-18764476D02*
X10258619Y-18764476D01*
X10258619Y-18764476D02*
X10239572Y-18754952D01*
X10239572Y-18754952D02*
X10230048Y-18735905D01*
X10230048Y-18735905D02*
X10230048Y-18659714D01*
X10230048Y-18659714D02*
X10239572Y-18640667D01*
X10239572Y-18640667D02*
X10258619Y-18631143D01*
X10258619Y-18631143D02*
X10296715Y-18631143D01*
X10296715Y-18631143D02*
X10315762Y-18640667D01*
X10315762Y-18640667D02*
X10325286Y-18659714D01*
X10325286Y-18659714D02*
X10325286Y-18678762D01*
X10325286Y-18678762D02*
X10230048Y-18697810D01*
X10401476Y-18754952D02*
X10420524Y-18764476D01*
X10420524Y-18764476D02*
X10458619Y-18764476D01*
X10458619Y-18764476D02*
X10477667Y-18754952D01*
X10477667Y-18754952D02*
X10487191Y-18735905D01*
X10487191Y-18735905D02*
X10487191Y-18726381D01*
X10487191Y-18726381D02*
X10477667Y-18707333D01*
X10477667Y-18707333D02*
X10458619Y-18697810D01*
X10458619Y-18697810D02*
X10430048Y-18697810D01*
X10430048Y-18697810D02*
X10411000Y-18688286D01*
X10411000Y-18688286D02*
X10401476Y-18669238D01*
X10401476Y-18669238D02*
X10401476Y-18659714D01*
X10401476Y-18659714D02*
X10411000Y-18640667D01*
X10411000Y-18640667D02*
X10430048Y-18631143D01*
X10430048Y-18631143D02*
X10458619Y-18631143D01*
X10458619Y-18631143D02*
X10477667Y-18640667D01*
X10553857Y-18840667D02*
X10563381Y-18831143D01*
X10563381Y-18831143D02*
X10582429Y-18802571D01*
X10582429Y-18802571D02*
X10591953Y-18783524D01*
X10591953Y-18783524D02*
X10601476Y-18754952D01*
X10601476Y-18754952D02*
X10611000Y-18707333D01*
X10611000Y-18707333D02*
X10611000Y-18669238D01*
X10611000Y-18669238D02*
X10601476Y-18621619D01*
X10601476Y-18621619D02*
X10591953Y-18593048D01*
X10591953Y-18593048D02*
X10582429Y-18574000D01*
X10582429Y-18574000D02*
X10563381Y-18545429D01*
X10563381Y-18545429D02*
X10553857Y-18535905D01*
M02*
