G04 #@! TF.GenerationSoftware,KiCad,Pcbnew,(7.0.0)*
G04 #@! TF.CreationDate,2023-07-02T10:59:24-07:00*
G04 #@! TF.ProjectId,OpenOblongChocs,4f70656e-4f62-46c6-9f6e-6743686f6373,rev?*
G04 #@! TF.SameCoordinates,Original*
G04 #@! TF.FileFunction,Soldermask,Bot*
G04 #@! TF.FilePolarity,Negative*
%FSLAX46Y46*%
G04 Gerber Fmt 4.6, Leading zero omitted, Abs format (unit mm)*
G04 Created by KiCad (PCBNEW (7.0.0)) date 2023-07-02 10:59:24*
%MOMM*%
%LPD*%
G01*
G04 APERTURE LIST*
G04 Aperture macros list*
%AMRoundRect*
0 Rectangle with rounded corners*
0 $1 Rounding radius*
0 $2 $3 $4 $5 $6 $7 $8 $9 X,Y pos of 4 corners*
0 Add a 4 corners polygon primitive as box body*
4,1,4,$2,$3,$4,$5,$6,$7,$8,$9,$2,$3,0*
0 Add four circle primitives for the rounded corners*
1,1,$1+$1,$2,$3*
1,1,$1+$1,$4,$5*
1,1,$1+$1,$6,$7*
1,1,$1+$1,$8,$9*
0 Add four rect primitives between the rounded corners*
20,1,$1+$1,$2,$3,$4,$5,0*
20,1,$1+$1,$4,$5,$6,$7,0*
20,1,$1+$1,$6,$7,$8,$9,0*
20,1,$1+$1,$8,$9,$2,$3,0*%
G04 Aperture macros list end*
%ADD10C,3.800000*%
%ADD11C,0.990600*%
%ADD12C,0.650000*%
%ADD13O,0.800000X1.400000*%
%ADD14C,1.700000*%
%ADD15C,1.200000*%
%ADD16C,3.400000*%
%ADD17C,3.300000*%
%ADD18RoundRect,0.260000X-1.065000X-1.040000X1.065000X-1.040000X1.065000X1.040000X-1.065000X1.040000X0*%
G04 APERTURE END LIST*
D10*
X279275000Y-98760000D03*
X305060000Y-47313383D03*
X111765000Y-98760000D03*
X92395000Y-143800000D03*
X98000000Y-47313383D03*
D11*
X205850000Y-63580000D03*
X206866000Y-68660000D03*
X204834000Y-68660000D03*
D10*
X304995000Y-143800000D03*
X220290000Y-34240000D03*
X177100000Y-34240000D03*
D12*
X202178500Y-32360000D03*
X194828500Y-32360000D03*
X195778500Y-31710000D03*
X196178500Y-31010000D03*
X196978500Y-31010000D03*
X197378500Y-31710000D03*
X197778500Y-31010000D03*
X198178500Y-31710000D03*
X198978500Y-31710000D03*
X199378500Y-31010000D03*
X199778500Y-31710000D03*
X200178500Y-31010000D03*
X200978500Y-31010000D03*
X201378500Y-31710000D03*
D13*
X203068499Y-26719999D03*
X202633499Y-31109999D03*
X194373499Y-31109999D03*
X194088499Y-26719999D03*
D14*
X60695977Y-70872122D03*
D15*
X60975977Y-75072122D03*
D16*
X66195977Y-70872122D03*
D14*
X71695977Y-70872122D03*
D17*
X71195977Y-67122122D03*
D18*
X74440977Y-67122122D03*
X62950977Y-64922122D03*
D17*
X66195977Y-64922122D03*
D14*
X237187232Y-58225127D03*
D15*
X237467232Y-62425127D03*
D16*
X242687232Y-58225127D03*
D14*
X248187232Y-58225127D03*
D17*
X247687232Y-54475127D03*
D18*
X250932232Y-54475127D03*
X239442232Y-52275127D03*
D17*
X242687232Y-52275127D03*
D14*
X244082967Y-83893373D03*
D15*
X244362967Y-88093373D03*
D16*
X249582967Y-83893373D03*
D14*
X255082967Y-83893373D03*
D17*
X254582967Y-80143373D03*
D18*
X257827967Y-80143373D03*
X246337967Y-77943373D03*
D17*
X249582967Y-77943373D03*
D14*
X193078500Y-81326866D03*
D15*
X193358500Y-85526866D03*
D16*
X198578500Y-81326866D03*
D14*
X204078500Y-81326866D03*
D17*
X203578500Y-77576866D03*
D18*
X206823500Y-77576866D03*
X195333500Y-75376866D03*
D17*
X198578500Y-75376866D03*
D14*
X208576182Y-125213438D03*
D15*
X208856182Y-129413438D03*
D16*
X214076182Y-125213438D03*
D14*
X219576182Y-125213438D03*
D17*
X219076182Y-121463438D03*
D18*
X222321182Y-121463438D03*
X210831182Y-119263438D03*
D17*
X214076182Y-119263438D03*
D14*
X89334109Y-61667579D03*
D15*
X89614109Y-65867579D03*
D16*
X94834109Y-61667579D03*
D14*
X100334109Y-61667579D03*
D17*
X99834109Y-57917579D03*
D18*
X103079109Y-57917579D03*
X91589109Y-55717579D03*
D17*
X94834109Y-55717579D03*
D14*
X252375123Y-113477547D03*
D15*
X252655123Y-117677547D03*
D16*
X257875123Y-113477547D03*
D14*
X263375123Y-113477547D03*
D17*
X262875123Y-109727547D03*
D18*
X266120123Y-109727547D03*
X254630123Y-107527547D03*
D17*
X257875123Y-107527547D03*
D14*
X140051535Y-84613063D03*
D15*
X140331535Y-88813063D03*
D16*
X145551535Y-84613063D03*
D14*
X151051535Y-84613063D03*
D17*
X150551535Y-80863063D03*
D18*
X153796535Y-80863063D03*
X142306535Y-78663063D03*
D17*
X145551535Y-78663063D03*
D14*
X259696859Y-39774517D03*
D15*
X259976859Y-43974517D03*
D16*
X265196859Y-39774517D03*
D14*
X270696859Y-39774517D03*
D17*
X270196859Y-36024517D03*
D18*
X273441859Y-36024517D03*
X261951859Y-33824517D03*
D17*
X265196859Y-33824517D03*
D14*
X117429442Y-66373538D03*
D15*
X117709442Y-70573538D03*
D16*
X122929442Y-66373538D03*
D14*
X128429442Y-66373538D03*
D17*
X127929442Y-62623538D03*
D18*
X131174442Y-62623538D03*
X119684442Y-60423538D03*
D17*
X122929442Y-60423538D03*
D14*
X211647454Y-152335835D03*
D15*
X211927454Y-156535835D03*
D16*
X217147454Y-152335835D03*
D14*
X222647454Y-152335835D03*
D17*
X222147454Y-148585835D03*
D18*
X225392454Y-148585835D03*
X213902454Y-146385835D03*
D17*
X217147454Y-146385835D03*
D14*
X172211303Y-154907386D03*
D15*
X172491303Y-159107386D03*
D16*
X177711303Y-154907386D03*
D14*
X183211303Y-154907386D03*
D17*
X182711303Y-151157386D03*
D18*
X185956303Y-151157386D03*
X174466303Y-148957386D03*
D17*
X177711303Y-148957386D03*
D14*
X154377695Y-133803616D03*
D15*
X154657695Y-138003616D03*
D16*
X159877695Y-133803616D03*
D14*
X165377695Y-133803616D03*
D17*
X164877695Y-130053616D03*
D18*
X168122695Y-130053616D03*
X156632695Y-127853616D03*
D17*
X159877695Y-127853616D03*
D14*
X294751667Y-60978545D03*
D15*
X295031667Y-65178545D03*
D16*
X300251667Y-60978545D03*
D14*
X305751667Y-60978545D03*
D17*
X305251667Y-57228545D03*
D18*
X308496667Y-57228545D03*
X297006667Y-55028545D03*
D17*
X300251667Y-55028545D03*
D14*
X317335568Y-44011907D03*
D15*
X317615568Y-48211907D03*
D16*
X322835568Y-44011907D03*
D14*
X328335568Y-44011907D03*
D17*
X327835568Y-40261907D03*
D18*
X331080568Y-40261907D03*
X319590568Y-38061907D03*
D17*
X322835568Y-38061907D03*
D14*
X234479837Y-134231357D03*
D15*
X234759837Y-138431357D03*
D16*
X239979837Y-134231357D03*
D14*
X245479837Y-134231357D03*
D17*
X244979837Y-130481357D03*
D18*
X248224837Y-130481357D03*
X236734837Y-128281357D03*
D17*
X239979837Y-128281357D03*
D14*
X266592853Y-65443729D03*
D15*
X266872853Y-69643729D03*
D16*
X272092853Y-65443729D03*
D14*
X277592853Y-65443729D03*
D17*
X277092853Y-61693729D03*
D18*
X280337853Y-61693729D03*
X268847853Y-59493729D03*
D17*
X272092853Y-59493729D03*
D14*
X324231562Y-69681119D03*
D15*
X324511562Y-73881119D03*
D16*
X329731562Y-69681119D03*
D14*
X335231562Y-69681119D03*
D17*
X334731562Y-65931119D03*
D18*
X337976562Y-65931119D03*
X326486562Y-63731119D03*
D17*
X329731562Y-63731119D03*
D14*
X287855673Y-35309333D03*
D15*
X288135673Y-39509333D03*
D16*
X293355673Y-35309333D03*
D14*
X298855673Y-35309333D03*
D17*
X298355673Y-31559333D03*
D18*
X301600673Y-31559333D03*
X290110673Y-29359333D03*
D17*
X293355673Y-29359333D03*
D14*
X179978651Y-131264304D03*
D15*
X180258651Y-135464304D03*
D16*
X185478651Y-131264304D03*
D14*
X190978651Y-131264304D03*
D17*
X190478651Y-127514304D03*
D18*
X193723651Y-127514304D03*
X182233651Y-125314304D03*
D17*
X185478651Y-125314304D03*
D14*
X227408565Y-109108960D03*
D15*
X227688565Y-113308960D03*
D16*
X232908565Y-109108960D03*
D14*
X238408565Y-109108960D03*
D17*
X237908565Y-105358960D03*
D18*
X241153565Y-105358960D03*
X229663565Y-103158960D03*
D17*
X232908565Y-103158960D03*
M02*
