G04 #@! TF.GenerationSoftware,KiCad,Pcbnew,(7.0.0)*
G04 #@! TF.CreationDate,2023-07-02T10:59:24-07:00*
G04 #@! TF.ProjectId,OpenOblongChocs,4f70656e-4f62-46c6-9f6e-6743686f6373,rev?*
G04 #@! TF.SameCoordinates,Original*
G04 #@! TF.FileFunction,Paste,Bot*
G04 #@! TF.FilePolarity,Positive*
%FSLAX46Y46*%
G04 Gerber Fmt 4.6, Leading zero omitted, Abs format (unit mm)*
G04 Created by KiCad (PCBNEW (7.0.0)) date 2023-07-02 10:59:24*
%MOMM*%
%LPD*%
G01*
G04 APERTURE LIST*
G04 Aperture macros list*
%AMRoundRect*
0 Rectangle with rounded corners*
0 $1 Rounding radius*
0 $2 $3 $4 $5 $6 $7 $8 $9 X,Y pos of 4 corners*
0 Add a 4 corners polygon primitive as box body*
4,1,4,$2,$3,$4,$5,$6,$7,$8,$9,$2,$3,0*
0 Add four circle primitives for the rounded corners*
1,1,$1+$1,$2,$3*
1,1,$1+$1,$4,$5*
1,1,$1+$1,$6,$7*
1,1,$1+$1,$8,$9*
0 Add four rect primitives between the rounded corners*
20,1,$1+$1,$2,$3,$4,$5,0*
20,1,$1+$1,$4,$5,$6,$7,0*
20,1,$1+$1,$6,$7,$8,$9,0*
20,1,$1+$1,$8,$9,$2,$3,0*%
G04 Aperture macros list end*
%ADD10RoundRect,0.260000X-1.065000X-1.040000X1.065000X-1.040000X1.065000X1.040000X-1.065000X1.040000X0*%
G04 APERTURE END LIST*
D10*
X74440977Y-67122122D03*
X62950977Y-64922122D03*
X250932232Y-54475127D03*
X239442232Y-52275127D03*
X257827967Y-80143373D03*
X246337967Y-77943373D03*
X206823500Y-77576866D03*
X195333500Y-75376866D03*
X222321182Y-121463438D03*
X210831182Y-119263438D03*
X103079109Y-57917579D03*
X91589109Y-55717579D03*
X266120123Y-109727547D03*
X254630123Y-107527547D03*
X153796535Y-80863063D03*
X142306535Y-78663063D03*
X273441859Y-36024517D03*
X261951859Y-33824517D03*
X131174442Y-62623538D03*
X119684442Y-60423538D03*
X225392454Y-148585835D03*
X213902454Y-146385835D03*
X185956303Y-151157386D03*
X174466303Y-148957386D03*
X168122695Y-130053616D03*
X156632695Y-127853616D03*
X308496667Y-57228545D03*
X297006667Y-55028545D03*
X331080568Y-40261907D03*
X319590568Y-38061907D03*
X248224837Y-130481357D03*
X236734837Y-128281357D03*
X280337853Y-61693729D03*
X268847853Y-59493729D03*
X337976562Y-65931119D03*
X326486562Y-63731119D03*
X301600673Y-31559333D03*
X290110673Y-29359333D03*
X193723651Y-127514304D03*
X182233651Y-125314304D03*
X241153565Y-105358960D03*
X229663565Y-103158960D03*
M02*
