M48
; DRILL file {KiCad (7.0.0)} date Sun Jul  2 10:59:26 2023
; FORMAT={-:-/ absolute / metric / decimal}
; #@! TF.CreationDate,2023-07-02T10:59:26-07:00
; #@! TF.GenerationSoftware,Kicad,Pcbnew,(7.0.0)
; #@! TF.FileFunction,NonPlated,1,2,NPTH
FMAT,2
METRIC
; #@! TA.AperFunction,NonPlated,NPTH,ComponentDrill
T1C0.650
; #@! TA.AperFunction,NonPlated,NPTH,ComponentDrill
T2C0.991
; #@! TA.AperFunction,NonPlated,NPTH,ComponentDrill
T3C1.200
; #@! TA.AperFunction,NonPlated,NPTH,ComponentDrill
T4C1.700
; #@! TA.AperFunction,NonPlated,NPTH,ComponentDrill
T5C3.400
%
G90
G05
T1
X194.828Y-32.36
X202.178Y-32.36
T2
X204.834Y-68.66
X205.85Y-63.58
X206.866Y-68.66
T3
X60.976Y-75.072
X89.614Y-65.868
X117.709Y-70.574
X140.332Y-88.813
X154.658Y-138.004
X172.491Y-159.107
X180.259Y-135.464
X193.358Y-85.527
X208.856Y-129.413
X211.927Y-156.536
X227.689Y-113.309
X234.76Y-138.431
X237.467Y-62.425
X244.363Y-88.093
X252.655Y-117.678
X259.977Y-43.975
X266.873Y-69.644
X288.136Y-39.509
X295.032Y-65.179
X317.616Y-48.212
X324.512Y-73.881
T4
X60.696Y-70.872
X71.696Y-70.872
X89.334Y-61.668
X100.334Y-61.668
X117.429Y-66.374
X128.429Y-66.374
X140.052Y-84.613
X151.052Y-84.613
X154.378Y-133.804
X165.378Y-133.804
X172.211Y-154.907
X179.979Y-131.264
X183.211Y-154.907
X190.979Y-131.264
X193.078Y-81.327
X204.078Y-81.327
X208.576Y-125.213
X211.647Y-152.336
X219.576Y-125.213
X222.647Y-152.336
X227.409Y-109.109
X234.48Y-134.231
X237.187Y-58.225
X238.409Y-109.109
X244.083Y-83.893
X245.48Y-134.231
X248.187Y-58.225
X252.375Y-113.478
X255.083Y-83.893
X259.697Y-39.775
X263.375Y-113.478
X266.593Y-65.444
X270.697Y-39.775
X277.593Y-65.444
X287.856Y-35.309
X294.752Y-60.979
X298.856Y-35.309
X305.752Y-60.979
X317.336Y-44.012
X324.232Y-69.681
X328.336Y-44.012
X335.232Y-69.681
T5
X66.196Y-70.872
X94.834Y-61.668
X122.929Y-66.374
X145.552Y-84.613
X159.878Y-133.804
X177.711Y-154.907
X185.479Y-131.264
X198.578Y-81.327
X214.076Y-125.213
X217.147Y-152.336
X232.909Y-109.109
X239.98Y-134.231
X242.687Y-58.225
X249.583Y-83.893
X257.875Y-113.478
X265.197Y-39.775
X272.093Y-65.444
X293.356Y-35.309
X300.252Y-60.979
X322.836Y-44.012
X329.732Y-69.681
T0
M30
