M48
; DRILL file {KiCad (7.0.0)} date Thu Mar 16 13:51:15 2023
; FORMAT={-:-/ absolute / metric / decimal}
; #@! TF.CreationDate,2023-03-16T13:51:15-07:00
; #@! TF.GenerationSoftware,Kicad,Pcbnew,(7.0.0)
; #@! TF.FileFunction,Plated,1,2,PTH
FMAT,2
METRIC
; #@! TA.AperFunction,Plated,PTH,ViaDrill
T1C0.300
; #@! TA.AperFunction,Plated,PTH,ViaDrill
T2C0.350
; #@! TA.AperFunction,Plated,PTH,ComponentDrill
T3C0.350
; #@! TA.AperFunction,Plated,PTH,ViaDrill
T4C0.400
; #@! TA.AperFunction,Plated,PTH,ComponentDrill
T5C0.400
; #@! TA.AperFunction,Plated,PTH,ComponentDrill
T6C0.500
; #@! TA.AperFunction,Plated,PTH,ComponentDrill
T7C1.524
; #@! TA.AperFunction,Plated,PTH,ComponentDrill
T8C1.800
; #@! TA.AperFunction,Plated,PTH,ComponentDrill
T9C3.000
%
G90
G05
T1
X182.911Y-61.481
X187.627Y-45.465
X189.73Y-61.48
X191.313Y-58.054
X192.865Y-64.912
X193.345Y-49.926
X194.62Y-42.67
X196.0Y-37.35
X196.6Y-41.63
X196.67Y-34.71
X197.79Y-45.735
X197.945Y-48.767
X198.806Y-48.275
X198.901Y-45.243
X198.928Y-34.01
X198.933Y-61.102
X199.568Y-67.579
X200.203Y-63.896
X200.52Y-34.71
X200.61Y-35.81
X200.806Y-45.243
X201.854Y-61.991
X202.362Y-47.259
X204.013Y-67.39
X204.17Y-38.57
X204.413Y-64.87
X204.65Y-46.635
X204.75Y-33.5
X205.537Y-49.07
X205.56Y-52.38
X206.902Y-58.832
X207.26Y-45.475
X208.34Y-66.09
X208.344Y-69.424
X209.262Y-32.468
T2
X199.187Y-56.994
X199.314Y-52.757
T3
X197.305Y-53.62
X197.305Y-54.895
X197.305Y-56.17
X198.58Y-53.62
X198.58Y-54.895
X198.58Y-56.17
X199.855Y-53.62
X199.855Y-54.895
X199.855Y-56.17
T4
X162.13Y-74.05
X162.13Y-76.55
X193.0Y-28.64
X193.1Y-29.74
T5
X195.778Y-31.71
X196.178Y-31.01
X196.978Y-31.01
X197.379Y-31.71
X197.778Y-31.01
X198.178Y-31.71
X198.978Y-31.71
X199.379Y-31.01
X199.778Y-31.71
X200.178Y-31.01
X200.978Y-31.01
X201.379Y-31.71
T7
X62.428Y-75.122
X69.219Y-74.312
X91.066Y-65.917
X97.857Y-65.107
X119.161Y-70.623
X125.952Y-69.813
X141.783Y-88.863
X148.574Y-88.053
X156.109Y-138.053
X162.9Y-137.243
X173.943Y-159.157
X180.734Y-158.347
X196.038Y-86.407
X202.388Y-83.867
X211.938Y-130.778
X217.414Y-126.681
X220.009Y-157.9
X225.485Y-153.803
X230.77Y-114.673
X236.246Y-110.576
X237.841Y-139.796
X241.549Y-63.789
X243.317Y-135.699
X247.025Y-59.692
X248.444Y-89.458
X253.921Y-85.361
X255.736Y-119.042
X261.213Y-114.945
X264.058Y-45.339
X269.534Y-41.242
X270.954Y-71.008
X276.43Y-66.911
X292.217Y-40.874
X297.693Y-36.777
X299.113Y-66.543
X304.589Y-62.446
X321.697Y-49.576
X327.173Y-45.479
X328.593Y-75.245
X334.069Y-71.148
T8
X92.395Y-143.8
X98.0Y-47.313
X111.765Y-98.76
X177.1Y-34.24
X220.29Y-34.24
X279.275Y-98.76
X304.995Y-143.8
X305.06Y-47.313
T9
X63.173Y-67.433
X69.964Y-66.623
X91.811Y-58.228
X98.602Y-57.418
X119.907Y-62.934
X126.698Y-62.124
X142.529Y-81.174
X149.32Y-80.364
X156.855Y-130.364
X163.646Y-129.554
X174.689Y-151.468
X181.48Y-150.658
X194.768Y-78.787
X201.118Y-76.247
X208.739Y-123.746
X214.215Y-119.649
X216.81Y-150.868
X222.286Y-146.772
X227.571Y-107.642
X233.047Y-103.545
X234.642Y-132.764
X238.35Y-56.758
X240.118Y-128.667
X243.826Y-52.661
X245.245Y-82.426
X250.722Y-78.329
X252.538Y-112.01
X258.014Y-107.913
X260.859Y-38.307
X266.336Y-34.21
X267.755Y-63.976
X273.232Y-59.879
X289.018Y-33.842
X294.494Y-29.745
X295.914Y-59.511
X301.39Y-55.414
X318.498Y-42.545
X323.974Y-38.448
X325.394Y-68.214
X330.87Y-64.117
T6
X194.088Y-27.02G85X194.088Y-26.42
G05
X194.373Y-31.41G85X194.373Y-30.81
G05
X202.633Y-31.41G85X202.633Y-30.81
G05
X203.069Y-27.02G85X203.069Y-26.42
G05
T0
M30
