M48
; DRILL file {KiCad (7.0.0)} date Wed Mar 15 12:29:30 2023
; FORMAT={-:-/ absolute / metric / decimal}
; #@! TF.CreationDate,2023-03-15T12:29:30-07:00
; #@! TF.GenerationSoftware,Kicad,Pcbnew,(7.0.0)
; #@! TF.FileFunction,NonPlated,1,2,NPTH
FMAT,2
METRIC
; #@! TA.AperFunction,NonPlated,NPTH,ComponentDrill
T1C0.650
; #@! TA.AperFunction,NonPlated,NPTH,ComponentDrill
T2C0.991
; #@! TA.AperFunction,NonPlated,NPTH,ComponentDrill
T3C1.750
; #@! TA.AperFunction,NonPlated,NPTH,ComponentDrill
T4C3.988
%
G90
G05
T1
X194.828Y-32.36
X202.178Y-32.36
T2
X204.834Y-68.66
X205.85Y-63.58
X206.866Y-68.66
T3
X61.289Y-69.557
X61.289Y-69.557
X71.103Y-72.187
X71.103Y-72.187
X89.927Y-60.353
X89.927Y-60.353
X99.741Y-62.982
X99.741Y-62.982
X118.023Y-65.059
X118.023Y-65.059
X127.836Y-67.688
X127.836Y-67.688
X140.645Y-83.298
X140.645Y-83.298
X150.458Y-85.928
X150.458Y-85.928
X154.971Y-132.489
X154.971Y-132.489
X164.785Y-135.118
X164.785Y-135.118
X172.804Y-153.593
X172.804Y-153.593
X182.618Y-156.222
X182.618Y-156.222
X193.498Y-81.327
X193.498Y-81.327
X203.659Y-81.327
X203.659Y-81.327
X208.169Y-126.528
X208.169Y-126.528
X216.241Y-153.651
X216.241Y-153.651
X217.983Y-123.899
X217.983Y-123.899
X226.054Y-151.021
X226.054Y-151.021
X227.002Y-110.424
X227.002Y-110.424
X234.073Y-135.546
X234.073Y-135.546
X236.815Y-107.794
X236.815Y-107.794
X237.53Y-58.54
X237.53Y-58.54
X243.887Y-132.917
X243.887Y-132.917
X244.676Y-85.208
X244.676Y-85.208
X247.344Y-55.91
X247.344Y-55.91
X251.968Y-114.792
X251.968Y-114.792
X254.49Y-82.579
X254.49Y-82.579
X260.04Y-40.089
X260.04Y-40.089
X261.782Y-112.163
X261.782Y-112.163
X267.186Y-66.759
X267.186Y-66.759
X269.854Y-37.46
X269.854Y-37.46
X277.0Y-64.129
X277.0Y-64.129
X288.199Y-35.624
X288.199Y-35.624
X295.345Y-62.293
X295.345Y-62.293
X298.013Y-32.995
X298.013Y-32.995
X305.159Y-59.664
X305.159Y-59.664
X317.679Y-44.327
X317.679Y-44.327
X324.825Y-70.996
X324.825Y-70.996
X327.492Y-41.697
X327.492Y-41.697
X334.638Y-68.366
X334.638Y-68.366
T4
X66.196Y-70.872
X66.196Y-70.872
X94.834Y-61.668
X94.834Y-61.668
X122.929Y-66.374
X122.929Y-66.374
X145.552Y-84.613
X145.552Y-84.613
X159.878Y-133.804
X159.878Y-133.804
X177.711Y-154.907
X177.711Y-154.907
X198.578Y-81.327
X198.578Y-81.327
X213.076Y-125.213
X213.076Y-125.213
X221.147Y-152.336
X221.147Y-152.336
X231.909Y-109.109
X231.909Y-109.109
X238.98Y-134.231
X238.98Y-134.231
X242.437Y-57.225
X242.437Y-57.225
X249.583Y-83.893
X249.583Y-83.893
X256.875Y-113.478
X256.875Y-113.478
X264.947Y-38.775
X264.947Y-38.775
X272.093Y-65.444
X272.093Y-65.444
X293.106Y-34.309
X293.106Y-34.309
X300.252Y-60.979
X300.252Y-60.979
X322.586Y-43.012
X322.586Y-43.012
X329.732Y-69.681
X329.732Y-69.681
T0
M30
