G04 #@! TF.GenerationSoftware,KiCad,Pcbnew,(7.0.0)*
G04 #@! TF.CreationDate,2023-03-15T22:49:51-07:00*
G04 #@! TF.ProjectId,OpenRectangle,4f70656e-5265-4637-9461-6e676c652e6b,rev?*
G04 #@! TF.SameCoordinates,Original*
G04 #@! TF.FileFunction,Legend,Top*
G04 #@! TF.FilePolarity,Positive*
%FSLAX46Y46*%
G04 Gerber Fmt 4.6, Leading zero omitted, Abs format (unit mm)*
G04 Created by KiCad (PCBNEW (7.0.0)) date 2023-03-15 22:49:51*
%MOMM*%
%LPD*%
G01*
G04 APERTURE LIST*
G04 Aperture macros list*
%AMRoundRect*
0 Rectangle with rounded corners*
0 $1 Rounding radius*
0 $2 $3 $4 $5 $6 $7 $8 $9 X,Y pos of 4 corners*
0 Add a 4 corners polygon primitive as box body*
4,1,4,$2,$3,$4,$5,$6,$7,$8,$9,$2,$3,0*
0 Add four circle primitives for the rounded corners*
1,1,$1+$1,$2,$3*
1,1,$1+$1,$4,$5*
1,1,$1+$1,$6,$7*
1,1,$1+$1,$8,$9*
0 Add four rect primitives between the rounded corners*
20,1,$1+$1,$2,$3,$4,$5,0*
20,1,$1+$1,$4,$5,$6,$7,0*
20,1,$1+$1,$6,$7,$8,$9,0*
20,1,$1+$1,$8,$9,$2,$3,0*%
G04 Aperture macros list end*
%ADD10C,0.150000*%
%ADD11C,0.120000*%
%ADD12C,0.200000*%
%ADD13C,3.800000*%
%ADD14C,1.750000*%
%ADD15C,3.987800*%
%ADD16R,1.100000X1.800000*%
%ADD17RoundRect,0.140000X0.170000X-0.140000X0.170000X0.140000X-0.170000X0.140000X-0.170000X-0.140000X0*%
%ADD18RoundRect,0.200000X-0.275000X0.200000X-0.275000X-0.200000X0.275000X-0.200000X0.275000X0.200000X0*%
%ADD19RoundRect,0.150000X0.587500X0.150000X-0.587500X0.150000X-0.587500X-0.150000X0.587500X-0.150000X0*%
%ADD20RoundRect,0.140000X0.140000X0.170000X-0.140000X0.170000X-0.140000X-0.170000X0.140000X-0.170000X0*%
%ADD21RoundRect,0.200000X0.275000X-0.200000X0.275000X0.200000X-0.275000X0.200000X-0.275000X-0.200000X0*%
%ADD22RoundRect,0.135000X-0.135000X-0.185000X0.135000X-0.185000X0.135000X0.185000X-0.135000X0.185000X0*%
%ADD23RoundRect,0.140000X-0.219203X-0.021213X-0.021213X-0.219203X0.219203X0.021213X0.021213X0.219203X0*%
%ADD24RoundRect,0.135000X0.135000X0.185000X-0.135000X0.185000X-0.135000X-0.185000X0.135000X-0.185000X0*%
%ADD25R,1.400000X1.200000*%
%ADD26RoundRect,0.140000X-0.021213X0.219203X-0.219203X0.021213X0.021213X-0.219203X0.219203X-0.021213X0*%
%ADD27RoundRect,0.250000X-0.375000X-0.625000X0.375000X-0.625000X0.375000X0.625000X-0.375000X0.625000X0*%
%ADD28RoundRect,0.225000X0.375000X-0.225000X0.375000X0.225000X-0.375000X0.225000X-0.375000X-0.225000X0*%
%ADD29RoundRect,0.200000X0.200000X0.275000X-0.200000X0.275000X-0.200000X-0.275000X0.200000X-0.275000X0*%
%ADD30RoundRect,0.140000X-0.140000X-0.170000X0.140000X-0.170000X0.140000X0.170000X-0.140000X0.170000X0*%
%ADD31RoundRect,0.243750X0.243750X0.456250X-0.243750X0.456250X-0.243750X-0.456250X0.243750X-0.456250X0*%
%ADD32RoundRect,0.135000X0.185000X-0.135000X0.185000X0.135000X-0.185000X0.135000X-0.185000X-0.135000X0*%
%ADD33RoundRect,0.140000X-0.170000X0.140000X-0.170000X-0.140000X0.170000X-0.140000X0.170000X0.140000X0*%
%ADD34RoundRect,0.135000X-0.185000X0.135000X-0.185000X-0.135000X0.185000X-0.135000X0.185000X0.135000X0*%
%ADD35C,0.990600*%
%ADD36C,0.787400*%
%ADD37RoundRect,0.050000X-0.387500X-0.050000X0.387500X-0.050000X0.387500X0.050000X-0.387500X0.050000X0*%
%ADD38RoundRect,0.050000X-0.050000X-0.387500X0.050000X-0.387500X0.050000X0.387500X-0.050000X0.387500X0*%
%ADD39RoundRect,0.144000X-1.456000X-1.456000X1.456000X-1.456000X1.456000X1.456000X-1.456000X1.456000X0*%
%ADD40RoundRect,0.150000X-0.150000X0.512500X-0.150000X-0.512500X0.150000X-0.512500X0.150000X0.512500X0*%
%ADD41C,0.650000*%
%ADD42R,0.300000X0.900000*%
%ADD43R,0.300000X0.700000*%
%ADD44O,0.800000X1.400000*%
%ADD45RoundRect,0.150000X-0.650000X-0.150000X0.650000X-0.150000X0.650000X0.150000X-0.650000X0.150000X0*%
%ADD46C,3.300000*%
G04 APERTURE END LIST*
D10*
X192348035Y-51581732D02*
X192376607Y-51610304D01*
X192376607Y-51610304D02*
X192405178Y-51696018D01*
X192405178Y-51696018D02*
X192405178Y-51753161D01*
X192405178Y-51753161D02*
X192376607Y-51838875D01*
X192376607Y-51838875D02*
X192319464Y-51896018D01*
X192319464Y-51896018D02*
X192262321Y-51924589D01*
X192262321Y-51924589D02*
X192148035Y-51953161D01*
X192148035Y-51953161D02*
X192062321Y-51953161D01*
X192062321Y-51953161D02*
X191948035Y-51924589D01*
X191948035Y-51924589D02*
X191890892Y-51896018D01*
X191890892Y-51896018D02*
X191833750Y-51838875D01*
X191833750Y-51838875D02*
X191805178Y-51753161D01*
X191805178Y-51753161D02*
X191805178Y-51696018D01*
X191805178Y-51696018D02*
X191833750Y-51610304D01*
X191833750Y-51610304D02*
X191862321Y-51581732D01*
X192405178Y-51010304D02*
X192405178Y-51353161D01*
X192405178Y-51181732D02*
X191805178Y-51181732D01*
X191805178Y-51181732D02*
X191890892Y-51238875D01*
X191890892Y-51238875D02*
X191948035Y-51296018D01*
X191948035Y-51296018D02*
X191976607Y-51353161D01*
X191805178Y-50810303D02*
X191805178Y-50438875D01*
X191805178Y-50438875D02*
X192033750Y-50638875D01*
X192033750Y-50638875D02*
X192033750Y-50553160D01*
X192033750Y-50553160D02*
X192062321Y-50496018D01*
X192062321Y-50496018D02*
X192090892Y-50467446D01*
X192090892Y-50467446D02*
X192148035Y-50438875D01*
X192148035Y-50438875D02*
X192290892Y-50438875D01*
X192290892Y-50438875D02*
X192348035Y-50467446D01*
X192348035Y-50467446D02*
X192376607Y-50496018D01*
X192376607Y-50496018D02*
X192405178Y-50553160D01*
X192405178Y-50553160D02*
X192405178Y-50724589D01*
X192405178Y-50724589D02*
X192376607Y-50781732D01*
X192376607Y-50781732D02*
X192348035Y-50810303D01*
X208940000Y-48000428D02*
X208740000Y-47714714D01*
X208597143Y-48000428D02*
X208597143Y-47400428D01*
X208597143Y-47400428D02*
X208825714Y-47400428D01*
X208825714Y-47400428D02*
X208882857Y-47429000D01*
X208882857Y-47429000D02*
X208911428Y-47457571D01*
X208911428Y-47457571D02*
X208940000Y-47514714D01*
X208940000Y-47514714D02*
X208940000Y-47600428D01*
X208940000Y-47600428D02*
X208911428Y-47657571D01*
X208911428Y-47657571D02*
X208882857Y-47686142D01*
X208882857Y-47686142D02*
X208825714Y-47714714D01*
X208825714Y-47714714D02*
X208597143Y-47714714D01*
X209482857Y-47400428D02*
X209197143Y-47400428D01*
X209197143Y-47400428D02*
X209168571Y-47686142D01*
X209168571Y-47686142D02*
X209197143Y-47657571D01*
X209197143Y-47657571D02*
X209254286Y-47629000D01*
X209254286Y-47629000D02*
X209397143Y-47629000D01*
X209397143Y-47629000D02*
X209454286Y-47657571D01*
X209454286Y-47657571D02*
X209482857Y-47686142D01*
X209482857Y-47686142D02*
X209511428Y-47743285D01*
X209511428Y-47743285D02*
X209511428Y-47886142D01*
X209511428Y-47886142D02*
X209482857Y-47943285D01*
X209482857Y-47943285D02*
X209454286Y-47971857D01*
X209454286Y-47971857D02*
X209397143Y-48000428D01*
X209397143Y-48000428D02*
X209254286Y-48000428D01*
X209254286Y-48000428D02*
X209197143Y-47971857D01*
X209197143Y-47971857D02*
X209168571Y-47943285D01*
X204395357Y-42540428D02*
X204395357Y-43026142D01*
X204395357Y-43026142D02*
X204423928Y-43083285D01*
X204423928Y-43083285D02*
X204452500Y-43111857D01*
X204452500Y-43111857D02*
X204509642Y-43140428D01*
X204509642Y-43140428D02*
X204623928Y-43140428D01*
X204623928Y-43140428D02*
X204681071Y-43111857D01*
X204681071Y-43111857D02*
X204709642Y-43083285D01*
X204709642Y-43083285D02*
X204738214Y-43026142D01*
X204738214Y-43026142D02*
X204738214Y-42540428D01*
X205338213Y-43140428D02*
X204995356Y-43140428D01*
X205166785Y-43140428D02*
X205166785Y-42540428D01*
X205166785Y-42540428D02*
X205109642Y-42626142D01*
X205109642Y-42626142D02*
X205052499Y-42683285D01*
X205052499Y-42683285D02*
X204995356Y-42711857D01*
X202240000Y-37813285D02*
X202211428Y-37841857D01*
X202211428Y-37841857D02*
X202125714Y-37870428D01*
X202125714Y-37870428D02*
X202068571Y-37870428D01*
X202068571Y-37870428D02*
X201982857Y-37841857D01*
X201982857Y-37841857D02*
X201925714Y-37784714D01*
X201925714Y-37784714D02*
X201897143Y-37727571D01*
X201897143Y-37727571D02*
X201868571Y-37613285D01*
X201868571Y-37613285D02*
X201868571Y-37527571D01*
X201868571Y-37527571D02*
X201897143Y-37413285D01*
X201897143Y-37413285D02*
X201925714Y-37356142D01*
X201925714Y-37356142D02*
X201982857Y-37299000D01*
X201982857Y-37299000D02*
X202068571Y-37270428D01*
X202068571Y-37270428D02*
X202125714Y-37270428D01*
X202125714Y-37270428D02*
X202211428Y-37299000D01*
X202211428Y-37299000D02*
X202240000Y-37327571D01*
X202468571Y-37327571D02*
X202497143Y-37299000D01*
X202497143Y-37299000D02*
X202554286Y-37270428D01*
X202554286Y-37270428D02*
X202697143Y-37270428D01*
X202697143Y-37270428D02*
X202754286Y-37299000D01*
X202754286Y-37299000D02*
X202782857Y-37327571D01*
X202782857Y-37327571D02*
X202811428Y-37384714D01*
X202811428Y-37384714D02*
X202811428Y-37441857D01*
X202811428Y-37441857D02*
X202782857Y-37527571D01*
X202782857Y-37527571D02*
X202440000Y-37870428D01*
X202440000Y-37870428D02*
X202811428Y-37870428D01*
X210480000Y-48000428D02*
X210280000Y-47714714D01*
X210137143Y-48000428D02*
X210137143Y-47400428D01*
X210137143Y-47400428D02*
X210365714Y-47400428D01*
X210365714Y-47400428D02*
X210422857Y-47429000D01*
X210422857Y-47429000D02*
X210451428Y-47457571D01*
X210451428Y-47457571D02*
X210480000Y-47514714D01*
X210480000Y-47514714D02*
X210480000Y-47600428D01*
X210480000Y-47600428D02*
X210451428Y-47657571D01*
X210451428Y-47657571D02*
X210422857Y-47686142D01*
X210422857Y-47686142D02*
X210365714Y-47714714D01*
X210365714Y-47714714D02*
X210137143Y-47714714D01*
X210994286Y-47400428D02*
X210880000Y-47400428D01*
X210880000Y-47400428D02*
X210822857Y-47429000D01*
X210822857Y-47429000D02*
X210794286Y-47457571D01*
X210794286Y-47457571D02*
X210737143Y-47543285D01*
X210737143Y-47543285D02*
X210708571Y-47657571D01*
X210708571Y-47657571D02*
X210708571Y-47886142D01*
X210708571Y-47886142D02*
X210737143Y-47943285D01*
X210737143Y-47943285D02*
X210765714Y-47971857D01*
X210765714Y-47971857D02*
X210822857Y-48000428D01*
X210822857Y-48000428D02*
X210937143Y-48000428D01*
X210937143Y-48000428D02*
X210994286Y-47971857D01*
X210994286Y-47971857D02*
X211022857Y-47943285D01*
X211022857Y-47943285D02*
X211051428Y-47886142D01*
X211051428Y-47886142D02*
X211051428Y-47743285D01*
X211051428Y-47743285D02*
X211022857Y-47686142D01*
X211022857Y-47686142D02*
X210994286Y-47657571D01*
X210994286Y-47657571D02*
X210937143Y-47629000D01*
X210937143Y-47629000D02*
X210822857Y-47629000D01*
X210822857Y-47629000D02*
X210765714Y-47657571D01*
X210765714Y-47657571D02*
X210737143Y-47686142D01*
X210737143Y-47686142D02*
X210708571Y-47743285D01*
X208230000Y-54730428D02*
X208030000Y-54444714D01*
X207887143Y-54730428D02*
X207887143Y-54130428D01*
X207887143Y-54130428D02*
X208115714Y-54130428D01*
X208115714Y-54130428D02*
X208172857Y-54159000D01*
X208172857Y-54159000D02*
X208201428Y-54187571D01*
X208201428Y-54187571D02*
X208230000Y-54244714D01*
X208230000Y-54244714D02*
X208230000Y-54330428D01*
X208230000Y-54330428D02*
X208201428Y-54387571D01*
X208201428Y-54387571D02*
X208172857Y-54416142D01*
X208172857Y-54416142D02*
X208115714Y-54444714D01*
X208115714Y-54444714D02*
X207887143Y-54444714D01*
X208744286Y-54330428D02*
X208744286Y-54730428D01*
X208601428Y-54101857D02*
X208458571Y-54530428D01*
X208458571Y-54530428D02*
X208830000Y-54530428D01*
X206318042Y-56838367D02*
X206277635Y-56838367D01*
X206277635Y-56838367D02*
X206196823Y-56797961D01*
X206196823Y-56797961D02*
X206156417Y-56757555D01*
X206156417Y-56757555D02*
X206116011Y-56676743D01*
X206116011Y-56676743D02*
X206116011Y-56595931D01*
X206116011Y-56595931D02*
X206136214Y-56535322D01*
X206136214Y-56535322D02*
X206196823Y-56434306D01*
X206196823Y-56434306D02*
X206257432Y-56373697D01*
X206257432Y-56373697D02*
X206358448Y-56313088D01*
X206358448Y-56313088D02*
X206419057Y-56292885D01*
X206419057Y-56292885D02*
X206499869Y-56292885D01*
X206499869Y-56292885D02*
X206580681Y-56333291D01*
X206580681Y-56333291D02*
X206621087Y-56373697D01*
X206621087Y-56373697D02*
X206661493Y-56454509D01*
X206661493Y-56454509D02*
X206661493Y-56494916D01*
X206681696Y-57282835D02*
X206439260Y-57040398D01*
X206560478Y-57161616D02*
X206984742Y-56737352D01*
X206984742Y-56737352D02*
X206883727Y-56757555D01*
X206883727Y-56757555D02*
X206802915Y-56757555D01*
X206802915Y-56757555D02*
X206742306Y-56737352D01*
X207085758Y-57686896D02*
X206843321Y-57444459D01*
X206964540Y-57565678D02*
X207388804Y-57141414D01*
X207388804Y-57141414D02*
X207287788Y-57161617D01*
X207287788Y-57161617D02*
X207206976Y-57161617D01*
X207206976Y-57161617D02*
X207146367Y-57141414D01*
X194330000Y-36620428D02*
X194130000Y-36334714D01*
X193987143Y-36620428D02*
X193987143Y-36020428D01*
X193987143Y-36020428D02*
X194215714Y-36020428D01*
X194215714Y-36020428D02*
X194272857Y-36049000D01*
X194272857Y-36049000D02*
X194301428Y-36077571D01*
X194301428Y-36077571D02*
X194330000Y-36134714D01*
X194330000Y-36134714D02*
X194330000Y-36220428D01*
X194330000Y-36220428D02*
X194301428Y-36277571D01*
X194301428Y-36277571D02*
X194272857Y-36306142D01*
X194272857Y-36306142D02*
X194215714Y-36334714D01*
X194215714Y-36334714D02*
X193987143Y-36334714D01*
X194558571Y-36077571D02*
X194587143Y-36049000D01*
X194587143Y-36049000D02*
X194644286Y-36020428D01*
X194644286Y-36020428D02*
X194787143Y-36020428D01*
X194787143Y-36020428D02*
X194844286Y-36049000D01*
X194844286Y-36049000D02*
X194872857Y-36077571D01*
X194872857Y-36077571D02*
X194901428Y-36134714D01*
X194901428Y-36134714D02*
X194901428Y-36191857D01*
X194901428Y-36191857D02*
X194872857Y-36277571D01*
X194872857Y-36277571D02*
X194530000Y-36620428D01*
X194530000Y-36620428D02*
X194901428Y-36620428D01*
X196008285Y-68423964D02*
X196008285Y-68709678D01*
X195808285Y-68109678D02*
X196008285Y-68423964D01*
X196008285Y-68423964D02*
X196208285Y-68109678D01*
X196722571Y-68709678D02*
X196379714Y-68709678D01*
X196551143Y-68709678D02*
X196551143Y-68109678D01*
X196551143Y-68109678D02*
X196494000Y-68195392D01*
X196494000Y-68195392D02*
X196436857Y-68252535D01*
X196436857Y-68252535D02*
X196379714Y-68281107D01*
X192991712Y-58246463D02*
X192991712Y-58286870D01*
X192991712Y-58286870D02*
X192951306Y-58367682D01*
X192951306Y-58367682D02*
X192910900Y-58408088D01*
X192910900Y-58408088D02*
X192830088Y-58448494D01*
X192830088Y-58448494D02*
X192749276Y-58448494D01*
X192749276Y-58448494D02*
X192688667Y-58428291D01*
X192688667Y-58428291D02*
X192587651Y-58367682D01*
X192587651Y-58367682D02*
X192527042Y-58307073D01*
X192527042Y-58307073D02*
X192466433Y-58206057D01*
X192466433Y-58206057D02*
X192446230Y-58145448D01*
X192446230Y-58145448D02*
X192446230Y-58064636D01*
X192446230Y-58064636D02*
X192486636Y-57983824D01*
X192486636Y-57983824D02*
X192527042Y-57943418D01*
X192527042Y-57943418D02*
X192607854Y-57903012D01*
X192607854Y-57903012D02*
X192648261Y-57903012D01*
X193436180Y-57882809D02*
X193193743Y-58125245D01*
X193314961Y-58004027D02*
X192890697Y-57579763D01*
X192890697Y-57579763D02*
X192910900Y-57680778D01*
X192910900Y-57680778D02*
X192910900Y-57761590D01*
X192910900Y-57761590D02*
X192890697Y-57822199D01*
X193395774Y-57074686D02*
X193193743Y-57276717D01*
X193193743Y-57276717D02*
X193375571Y-57498950D01*
X193375571Y-57498950D02*
X193375571Y-57458544D01*
X193375571Y-57458544D02*
X193395774Y-57397935D01*
X193395774Y-57397935D02*
X193496789Y-57296920D01*
X193496789Y-57296920D02*
X193557398Y-57276717D01*
X193557398Y-57276717D02*
X193597804Y-57276717D01*
X193597804Y-57276717D02*
X193658413Y-57296920D01*
X193658413Y-57296920D02*
X193759429Y-57397935D01*
X193759429Y-57397935D02*
X193779632Y-57458544D01*
X193779632Y-57458544D02*
X193779632Y-57498950D01*
X193779632Y-57498950D02*
X193759429Y-57559559D01*
X193759429Y-57559559D02*
X193658413Y-57660575D01*
X193658413Y-57660575D02*
X193597804Y-57680778D01*
X193597804Y-57680778D02*
X193557398Y-57680778D01*
X199723285Y-68339999D02*
X199751857Y-68368571D01*
X199751857Y-68368571D02*
X199780428Y-68454285D01*
X199780428Y-68454285D02*
X199780428Y-68511428D01*
X199780428Y-68511428D02*
X199751857Y-68597142D01*
X199751857Y-68597142D02*
X199694714Y-68654285D01*
X199694714Y-68654285D02*
X199637571Y-68682856D01*
X199637571Y-68682856D02*
X199523285Y-68711428D01*
X199523285Y-68711428D02*
X199437571Y-68711428D01*
X199437571Y-68711428D02*
X199323285Y-68682856D01*
X199323285Y-68682856D02*
X199266142Y-68654285D01*
X199266142Y-68654285D02*
X199209000Y-68597142D01*
X199209000Y-68597142D02*
X199180428Y-68511428D01*
X199180428Y-68511428D02*
X199180428Y-68454285D01*
X199180428Y-68454285D02*
X199209000Y-68368571D01*
X199209000Y-68368571D02*
X199237571Y-68339999D01*
X199437571Y-67997142D02*
X199409000Y-68054285D01*
X199409000Y-68054285D02*
X199380428Y-68082856D01*
X199380428Y-68082856D02*
X199323285Y-68111428D01*
X199323285Y-68111428D02*
X199294714Y-68111428D01*
X199294714Y-68111428D02*
X199237571Y-68082856D01*
X199237571Y-68082856D02*
X199209000Y-68054285D01*
X199209000Y-68054285D02*
X199180428Y-67997142D01*
X199180428Y-67997142D02*
X199180428Y-67882856D01*
X199180428Y-67882856D02*
X199209000Y-67825714D01*
X199209000Y-67825714D02*
X199237571Y-67797142D01*
X199237571Y-67797142D02*
X199294714Y-67768571D01*
X199294714Y-67768571D02*
X199323285Y-67768571D01*
X199323285Y-67768571D02*
X199380428Y-67797142D01*
X199380428Y-67797142D02*
X199409000Y-67825714D01*
X199409000Y-67825714D02*
X199437571Y-67882856D01*
X199437571Y-67882856D02*
X199437571Y-67997142D01*
X199437571Y-67997142D02*
X199466142Y-68054285D01*
X199466142Y-68054285D02*
X199494714Y-68082856D01*
X199494714Y-68082856D02*
X199551857Y-68111428D01*
X199551857Y-68111428D02*
X199666142Y-68111428D01*
X199666142Y-68111428D02*
X199723285Y-68082856D01*
X199723285Y-68082856D02*
X199751857Y-68054285D01*
X199751857Y-68054285D02*
X199780428Y-67997142D01*
X199780428Y-67997142D02*
X199780428Y-67882856D01*
X199780428Y-67882856D02*
X199751857Y-67825714D01*
X199751857Y-67825714D02*
X199723285Y-67797142D01*
X199723285Y-67797142D02*
X199666142Y-67768571D01*
X199666142Y-67768571D02*
X199551857Y-67768571D01*
X199551857Y-67768571D02*
X199494714Y-67797142D01*
X199494714Y-67797142D02*
X199466142Y-67825714D01*
X199466142Y-67825714D02*
X199437571Y-67882856D01*
X203510000Y-36876142D02*
X203310000Y-36876142D01*
X203310000Y-37190428D02*
X203310000Y-36590428D01*
X203310000Y-36590428D02*
X203595714Y-36590428D01*
X204138571Y-37190428D02*
X203795714Y-37190428D01*
X203967143Y-37190428D02*
X203967143Y-36590428D01*
X203967143Y-36590428D02*
X203910000Y-36676142D01*
X203910000Y-36676142D02*
X203852857Y-36733285D01*
X203852857Y-36733285D02*
X203795714Y-36761857D01*
X210850428Y-38322856D02*
X210250428Y-38322856D01*
X210250428Y-38322856D02*
X210250428Y-38179999D01*
X210250428Y-38179999D02*
X210279000Y-38094285D01*
X210279000Y-38094285D02*
X210336142Y-38037142D01*
X210336142Y-38037142D02*
X210393285Y-38008571D01*
X210393285Y-38008571D02*
X210507571Y-37979999D01*
X210507571Y-37979999D02*
X210593285Y-37979999D01*
X210593285Y-37979999D02*
X210707571Y-38008571D01*
X210707571Y-38008571D02*
X210764714Y-38037142D01*
X210764714Y-38037142D02*
X210821857Y-38094285D01*
X210821857Y-38094285D02*
X210850428Y-38179999D01*
X210850428Y-38179999D02*
X210850428Y-38322856D01*
X210307571Y-37751428D02*
X210279000Y-37722856D01*
X210279000Y-37722856D02*
X210250428Y-37665714D01*
X210250428Y-37665714D02*
X210250428Y-37522856D01*
X210250428Y-37522856D02*
X210279000Y-37465714D01*
X210279000Y-37465714D02*
X210307571Y-37437142D01*
X210307571Y-37437142D02*
X210364714Y-37408571D01*
X210364714Y-37408571D02*
X210421857Y-37408571D01*
X210421857Y-37408571D02*
X210507571Y-37437142D01*
X210507571Y-37437142D02*
X210850428Y-37779999D01*
X210850428Y-37779999D02*
X210850428Y-37408571D01*
X205595000Y-28370428D02*
X205395000Y-28084714D01*
X205252143Y-28370428D02*
X205252143Y-27770428D01*
X205252143Y-27770428D02*
X205480714Y-27770428D01*
X205480714Y-27770428D02*
X205537857Y-27799000D01*
X205537857Y-27799000D02*
X205566428Y-27827571D01*
X205566428Y-27827571D02*
X205595000Y-27884714D01*
X205595000Y-27884714D02*
X205595000Y-27970428D01*
X205595000Y-27970428D02*
X205566428Y-28027571D01*
X205566428Y-28027571D02*
X205537857Y-28056142D01*
X205537857Y-28056142D02*
X205480714Y-28084714D01*
X205480714Y-28084714D02*
X205252143Y-28084714D01*
X206166428Y-28370428D02*
X205823571Y-28370428D01*
X205995000Y-28370428D02*
X205995000Y-27770428D01*
X205995000Y-27770428D02*
X205937857Y-27856142D01*
X205937857Y-27856142D02*
X205880714Y-27913285D01*
X205880714Y-27913285D02*
X205823571Y-27941857D01*
X204190000Y-45588285D02*
X204161428Y-45616857D01*
X204161428Y-45616857D02*
X204075714Y-45645428D01*
X204075714Y-45645428D02*
X204018571Y-45645428D01*
X204018571Y-45645428D02*
X203932857Y-45616857D01*
X203932857Y-45616857D02*
X203875714Y-45559714D01*
X203875714Y-45559714D02*
X203847143Y-45502571D01*
X203847143Y-45502571D02*
X203818571Y-45388285D01*
X203818571Y-45388285D02*
X203818571Y-45302571D01*
X203818571Y-45302571D02*
X203847143Y-45188285D01*
X203847143Y-45188285D02*
X203875714Y-45131142D01*
X203875714Y-45131142D02*
X203932857Y-45074000D01*
X203932857Y-45074000D02*
X204018571Y-45045428D01*
X204018571Y-45045428D02*
X204075714Y-45045428D01*
X204075714Y-45045428D02*
X204161428Y-45074000D01*
X204161428Y-45074000D02*
X204190000Y-45102571D01*
X204475714Y-45645428D02*
X204590000Y-45645428D01*
X204590000Y-45645428D02*
X204647143Y-45616857D01*
X204647143Y-45616857D02*
X204675714Y-45588285D01*
X204675714Y-45588285D02*
X204732857Y-45502571D01*
X204732857Y-45502571D02*
X204761428Y-45388285D01*
X204761428Y-45388285D02*
X204761428Y-45159714D01*
X204761428Y-45159714D02*
X204732857Y-45102571D01*
X204732857Y-45102571D02*
X204704286Y-45074000D01*
X204704286Y-45074000D02*
X204647143Y-45045428D01*
X204647143Y-45045428D02*
X204532857Y-45045428D01*
X204532857Y-45045428D02*
X204475714Y-45074000D01*
X204475714Y-45074000D02*
X204447143Y-45102571D01*
X204447143Y-45102571D02*
X204418571Y-45159714D01*
X204418571Y-45159714D02*
X204418571Y-45302571D01*
X204418571Y-45302571D02*
X204447143Y-45359714D01*
X204447143Y-45359714D02*
X204475714Y-45388285D01*
X204475714Y-45388285D02*
X204532857Y-45416857D01*
X204532857Y-45416857D02*
X204647143Y-45416857D01*
X204647143Y-45416857D02*
X204704286Y-45388285D01*
X204704286Y-45388285D02*
X204732857Y-45359714D01*
X204732857Y-45359714D02*
X204761428Y-45302571D01*
X207430000Y-46788285D02*
X207401428Y-46816857D01*
X207401428Y-46816857D02*
X207315714Y-46845428D01*
X207315714Y-46845428D02*
X207258571Y-46845428D01*
X207258571Y-46845428D02*
X207172857Y-46816857D01*
X207172857Y-46816857D02*
X207115714Y-46759714D01*
X207115714Y-46759714D02*
X207087143Y-46702571D01*
X207087143Y-46702571D02*
X207058571Y-46588285D01*
X207058571Y-46588285D02*
X207058571Y-46502571D01*
X207058571Y-46502571D02*
X207087143Y-46388285D01*
X207087143Y-46388285D02*
X207115714Y-46331142D01*
X207115714Y-46331142D02*
X207172857Y-46274000D01*
X207172857Y-46274000D02*
X207258571Y-46245428D01*
X207258571Y-46245428D02*
X207315714Y-46245428D01*
X207315714Y-46245428D02*
X207401428Y-46274000D01*
X207401428Y-46274000D02*
X207430000Y-46302571D01*
X208001428Y-46845428D02*
X207658571Y-46845428D01*
X207830000Y-46845428D02*
X207830000Y-46245428D01*
X207830000Y-46245428D02*
X207772857Y-46331142D01*
X207772857Y-46331142D02*
X207715714Y-46388285D01*
X207715714Y-46388285D02*
X207658571Y-46416857D01*
X210514643Y-55370428D02*
X210514643Y-54770428D01*
X210514643Y-54770428D02*
X210657500Y-54770428D01*
X210657500Y-54770428D02*
X210743214Y-54799000D01*
X210743214Y-54799000D02*
X210800357Y-54856142D01*
X210800357Y-54856142D02*
X210828928Y-54913285D01*
X210828928Y-54913285D02*
X210857500Y-55027571D01*
X210857500Y-55027571D02*
X210857500Y-55113285D01*
X210857500Y-55113285D02*
X210828928Y-55227571D01*
X210828928Y-55227571D02*
X210800357Y-55284714D01*
X210800357Y-55284714D02*
X210743214Y-55341857D01*
X210743214Y-55341857D02*
X210657500Y-55370428D01*
X210657500Y-55370428D02*
X210514643Y-55370428D01*
X211057500Y-54770428D02*
X211428928Y-54770428D01*
X211428928Y-54770428D02*
X211228928Y-54999000D01*
X211228928Y-54999000D02*
X211314643Y-54999000D01*
X211314643Y-54999000D02*
X211371786Y-55027571D01*
X211371786Y-55027571D02*
X211400357Y-55056142D01*
X211400357Y-55056142D02*
X211428928Y-55113285D01*
X211428928Y-55113285D02*
X211428928Y-55256142D01*
X211428928Y-55256142D02*
X211400357Y-55313285D01*
X211400357Y-55313285D02*
X211371786Y-55341857D01*
X211371786Y-55341857D02*
X211314643Y-55370428D01*
X211314643Y-55370428D02*
X211143214Y-55370428D01*
X211143214Y-55370428D02*
X211086071Y-55341857D01*
X211086071Y-55341857D02*
X211057500Y-55313285D01*
X201513285Y-47079999D02*
X201541857Y-47108571D01*
X201541857Y-47108571D02*
X201570428Y-47194285D01*
X201570428Y-47194285D02*
X201570428Y-47251428D01*
X201570428Y-47251428D02*
X201541857Y-47337142D01*
X201541857Y-47337142D02*
X201484714Y-47394285D01*
X201484714Y-47394285D02*
X201427571Y-47422856D01*
X201427571Y-47422856D02*
X201313285Y-47451428D01*
X201313285Y-47451428D02*
X201227571Y-47451428D01*
X201227571Y-47451428D02*
X201113285Y-47422856D01*
X201113285Y-47422856D02*
X201056142Y-47394285D01*
X201056142Y-47394285D02*
X200999000Y-47337142D01*
X200999000Y-47337142D02*
X200970428Y-47251428D01*
X200970428Y-47251428D02*
X200970428Y-47194285D01*
X200970428Y-47194285D02*
X200999000Y-47108571D01*
X200999000Y-47108571D02*
X201027571Y-47079999D01*
X201170428Y-46565714D02*
X201570428Y-46565714D01*
X200941857Y-46708571D02*
X201370428Y-46851428D01*
X201370428Y-46851428D02*
X201370428Y-46479999D01*
X197660428Y-61185714D02*
X197374714Y-61385714D01*
X197660428Y-61528571D02*
X197060428Y-61528571D01*
X197060428Y-61528571D02*
X197060428Y-61300000D01*
X197060428Y-61300000D02*
X197089000Y-61242857D01*
X197089000Y-61242857D02*
X197117571Y-61214286D01*
X197117571Y-61214286D02*
X197174714Y-61185714D01*
X197174714Y-61185714D02*
X197260428Y-61185714D01*
X197260428Y-61185714D02*
X197317571Y-61214286D01*
X197317571Y-61214286D02*
X197346142Y-61242857D01*
X197346142Y-61242857D02*
X197374714Y-61300000D01*
X197374714Y-61300000D02*
X197374714Y-61528571D01*
X197660428Y-60614286D02*
X197660428Y-60957143D01*
X197660428Y-60785714D02*
X197060428Y-60785714D01*
X197060428Y-60785714D02*
X197146142Y-60842857D01*
X197146142Y-60842857D02*
X197203285Y-60900000D01*
X197203285Y-60900000D02*
X197231857Y-60957143D01*
X197660428Y-60042857D02*
X197660428Y-60385714D01*
X197660428Y-60214285D02*
X197060428Y-60214285D01*
X197060428Y-60214285D02*
X197146142Y-60271428D01*
X197146142Y-60271428D02*
X197203285Y-60328571D01*
X197203285Y-60328571D02*
X197231857Y-60385714D01*
X201143285Y-60899999D02*
X201171857Y-60928571D01*
X201171857Y-60928571D02*
X201200428Y-61014285D01*
X201200428Y-61014285D02*
X201200428Y-61071428D01*
X201200428Y-61071428D02*
X201171857Y-61157142D01*
X201171857Y-61157142D02*
X201114714Y-61214285D01*
X201114714Y-61214285D02*
X201057571Y-61242856D01*
X201057571Y-61242856D02*
X200943285Y-61271428D01*
X200943285Y-61271428D02*
X200857571Y-61271428D01*
X200857571Y-61271428D02*
X200743285Y-61242856D01*
X200743285Y-61242856D02*
X200686142Y-61214285D01*
X200686142Y-61214285D02*
X200629000Y-61157142D01*
X200629000Y-61157142D02*
X200600428Y-61071428D01*
X200600428Y-61071428D02*
X200600428Y-61014285D01*
X200600428Y-61014285D02*
X200629000Y-60928571D01*
X200629000Y-60928571D02*
X200657571Y-60899999D01*
X200600428Y-60385714D02*
X200600428Y-60499999D01*
X200600428Y-60499999D02*
X200629000Y-60557142D01*
X200629000Y-60557142D02*
X200657571Y-60585714D01*
X200657571Y-60585714D02*
X200743285Y-60642856D01*
X200743285Y-60642856D02*
X200857571Y-60671428D01*
X200857571Y-60671428D02*
X201086142Y-60671428D01*
X201086142Y-60671428D02*
X201143285Y-60642856D01*
X201143285Y-60642856D02*
X201171857Y-60614285D01*
X201171857Y-60614285D02*
X201200428Y-60557142D01*
X201200428Y-60557142D02*
X201200428Y-60442856D01*
X201200428Y-60442856D02*
X201171857Y-60385714D01*
X201171857Y-60385714D02*
X201143285Y-60357142D01*
X201143285Y-60357142D02*
X201086142Y-60328571D01*
X201086142Y-60328571D02*
X200943285Y-60328571D01*
X200943285Y-60328571D02*
X200886142Y-60357142D01*
X200886142Y-60357142D02*
X200857571Y-60385714D01*
X200857571Y-60385714D02*
X200829000Y-60442856D01*
X200829000Y-60442856D02*
X200829000Y-60557142D01*
X200829000Y-60557142D02*
X200857571Y-60614285D01*
X200857571Y-60614285D02*
X200886142Y-60642856D01*
X200886142Y-60642856D02*
X200943285Y-60671428D01*
X206554285Y-50083285D02*
X206525713Y-50111857D01*
X206525713Y-50111857D02*
X206439999Y-50140428D01*
X206439999Y-50140428D02*
X206382856Y-50140428D01*
X206382856Y-50140428D02*
X206297142Y-50111857D01*
X206297142Y-50111857D02*
X206239999Y-50054714D01*
X206239999Y-50054714D02*
X206211428Y-49997571D01*
X206211428Y-49997571D02*
X206182856Y-49883285D01*
X206182856Y-49883285D02*
X206182856Y-49797571D01*
X206182856Y-49797571D02*
X206211428Y-49683285D01*
X206211428Y-49683285D02*
X206239999Y-49626142D01*
X206239999Y-49626142D02*
X206297142Y-49569000D01*
X206297142Y-49569000D02*
X206382856Y-49540428D01*
X206382856Y-49540428D02*
X206439999Y-49540428D01*
X206439999Y-49540428D02*
X206525713Y-49569000D01*
X206525713Y-49569000D02*
X206554285Y-49597571D01*
X207125713Y-50140428D02*
X206782856Y-50140428D01*
X206954285Y-50140428D02*
X206954285Y-49540428D01*
X206954285Y-49540428D02*
X206897142Y-49626142D01*
X206897142Y-49626142D02*
X206839999Y-49683285D01*
X206839999Y-49683285D02*
X206782856Y-49711857D01*
X207640000Y-49540428D02*
X207525714Y-49540428D01*
X207525714Y-49540428D02*
X207468571Y-49569000D01*
X207468571Y-49569000D02*
X207440000Y-49597571D01*
X207440000Y-49597571D02*
X207382857Y-49683285D01*
X207382857Y-49683285D02*
X207354285Y-49797571D01*
X207354285Y-49797571D02*
X207354285Y-50026142D01*
X207354285Y-50026142D02*
X207382857Y-50083285D01*
X207382857Y-50083285D02*
X207411428Y-50111857D01*
X207411428Y-50111857D02*
X207468571Y-50140428D01*
X207468571Y-50140428D02*
X207582857Y-50140428D01*
X207582857Y-50140428D02*
X207640000Y-50111857D01*
X207640000Y-50111857D02*
X207668571Y-50083285D01*
X207668571Y-50083285D02*
X207697142Y-50026142D01*
X207697142Y-50026142D02*
X207697142Y-49883285D01*
X207697142Y-49883285D02*
X207668571Y-49826142D01*
X207668571Y-49826142D02*
X207640000Y-49797571D01*
X207640000Y-49797571D02*
X207582857Y-49769000D01*
X207582857Y-49769000D02*
X207468571Y-49769000D01*
X207468571Y-49769000D02*
X207411428Y-49797571D01*
X207411428Y-49797571D02*
X207382857Y-49826142D01*
X207382857Y-49826142D02*
X207354285Y-49883285D01*
X202513285Y-47365714D02*
X202541857Y-47394286D01*
X202541857Y-47394286D02*
X202570428Y-47480000D01*
X202570428Y-47480000D02*
X202570428Y-47537143D01*
X202570428Y-47537143D02*
X202541857Y-47622857D01*
X202541857Y-47622857D02*
X202484714Y-47680000D01*
X202484714Y-47680000D02*
X202427571Y-47708571D01*
X202427571Y-47708571D02*
X202313285Y-47737143D01*
X202313285Y-47737143D02*
X202227571Y-47737143D01*
X202227571Y-47737143D02*
X202113285Y-47708571D01*
X202113285Y-47708571D02*
X202056142Y-47680000D01*
X202056142Y-47680000D02*
X201999000Y-47622857D01*
X201999000Y-47622857D02*
X201970428Y-47537143D01*
X201970428Y-47537143D02*
X201970428Y-47480000D01*
X201970428Y-47480000D02*
X201999000Y-47394286D01*
X201999000Y-47394286D02*
X202027571Y-47365714D01*
X202570428Y-46794286D02*
X202570428Y-47137143D01*
X202570428Y-46965714D02*
X201970428Y-46965714D01*
X201970428Y-46965714D02*
X202056142Y-47022857D01*
X202056142Y-47022857D02*
X202113285Y-47080000D01*
X202113285Y-47080000D02*
X202141857Y-47137143D01*
X202027571Y-46565714D02*
X201999000Y-46537142D01*
X201999000Y-46537142D02*
X201970428Y-46480000D01*
X201970428Y-46480000D02*
X201970428Y-46337142D01*
X201970428Y-46337142D02*
X201999000Y-46280000D01*
X201999000Y-46280000D02*
X202027571Y-46251428D01*
X202027571Y-46251428D02*
X202084714Y-46222857D01*
X202084714Y-46222857D02*
X202141857Y-46222857D01*
X202141857Y-46222857D02*
X202227571Y-46251428D01*
X202227571Y-46251428D02*
X202570428Y-46594285D01*
X202570428Y-46594285D02*
X202570428Y-46222857D01*
X195000000Y-40843285D02*
X194971428Y-40871857D01*
X194971428Y-40871857D02*
X194885714Y-40900428D01*
X194885714Y-40900428D02*
X194828571Y-40900428D01*
X194828571Y-40900428D02*
X194742857Y-40871857D01*
X194742857Y-40871857D02*
X194685714Y-40814714D01*
X194685714Y-40814714D02*
X194657143Y-40757571D01*
X194657143Y-40757571D02*
X194628571Y-40643285D01*
X194628571Y-40643285D02*
X194628571Y-40557571D01*
X194628571Y-40557571D02*
X194657143Y-40443285D01*
X194657143Y-40443285D02*
X194685714Y-40386142D01*
X194685714Y-40386142D02*
X194742857Y-40329000D01*
X194742857Y-40329000D02*
X194828571Y-40300428D01*
X194828571Y-40300428D02*
X194885714Y-40300428D01*
X194885714Y-40300428D02*
X194971428Y-40329000D01*
X194971428Y-40329000D02*
X195000000Y-40357571D01*
X195200000Y-40300428D02*
X195571428Y-40300428D01*
X195571428Y-40300428D02*
X195371428Y-40529000D01*
X195371428Y-40529000D02*
X195457143Y-40529000D01*
X195457143Y-40529000D02*
X195514286Y-40557571D01*
X195514286Y-40557571D02*
X195542857Y-40586142D01*
X195542857Y-40586142D02*
X195571428Y-40643285D01*
X195571428Y-40643285D02*
X195571428Y-40786142D01*
X195571428Y-40786142D02*
X195542857Y-40843285D01*
X195542857Y-40843285D02*
X195514286Y-40871857D01*
X195514286Y-40871857D02*
X195457143Y-40900428D01*
X195457143Y-40900428D02*
X195285714Y-40900428D01*
X195285714Y-40900428D02*
X195228571Y-40871857D01*
X195228571Y-40871857D02*
X195200000Y-40843285D01*
X193033285Y-68349999D02*
X193061857Y-68378571D01*
X193061857Y-68378571D02*
X193090428Y-68464285D01*
X193090428Y-68464285D02*
X193090428Y-68521428D01*
X193090428Y-68521428D02*
X193061857Y-68607142D01*
X193061857Y-68607142D02*
X193004714Y-68664285D01*
X193004714Y-68664285D02*
X192947571Y-68692856D01*
X192947571Y-68692856D02*
X192833285Y-68721428D01*
X192833285Y-68721428D02*
X192747571Y-68721428D01*
X192747571Y-68721428D02*
X192633285Y-68692856D01*
X192633285Y-68692856D02*
X192576142Y-68664285D01*
X192576142Y-68664285D02*
X192519000Y-68607142D01*
X192519000Y-68607142D02*
X192490428Y-68521428D01*
X192490428Y-68521428D02*
X192490428Y-68464285D01*
X192490428Y-68464285D02*
X192519000Y-68378571D01*
X192519000Y-68378571D02*
X192547571Y-68349999D01*
X192490428Y-68149999D02*
X192490428Y-67749999D01*
X192490428Y-67749999D02*
X193090428Y-68007142D01*
X201990428Y-43239999D02*
X201704714Y-43439999D01*
X201990428Y-43582856D02*
X201390428Y-43582856D01*
X201390428Y-43582856D02*
X201390428Y-43354285D01*
X201390428Y-43354285D02*
X201419000Y-43297142D01*
X201419000Y-43297142D02*
X201447571Y-43268571D01*
X201447571Y-43268571D02*
X201504714Y-43239999D01*
X201504714Y-43239999D02*
X201590428Y-43239999D01*
X201590428Y-43239999D02*
X201647571Y-43268571D01*
X201647571Y-43268571D02*
X201676142Y-43297142D01*
X201676142Y-43297142D02*
X201704714Y-43354285D01*
X201704714Y-43354285D02*
X201704714Y-43582856D01*
X201990428Y-42954285D02*
X201990428Y-42839999D01*
X201990428Y-42839999D02*
X201961857Y-42782856D01*
X201961857Y-42782856D02*
X201933285Y-42754285D01*
X201933285Y-42754285D02*
X201847571Y-42697142D01*
X201847571Y-42697142D02*
X201733285Y-42668571D01*
X201733285Y-42668571D02*
X201504714Y-42668571D01*
X201504714Y-42668571D02*
X201447571Y-42697142D01*
X201447571Y-42697142D02*
X201419000Y-42725714D01*
X201419000Y-42725714D02*
X201390428Y-42782856D01*
X201390428Y-42782856D02*
X201390428Y-42897142D01*
X201390428Y-42897142D02*
X201419000Y-42954285D01*
X201419000Y-42954285D02*
X201447571Y-42982856D01*
X201447571Y-42982856D02*
X201504714Y-43011428D01*
X201504714Y-43011428D02*
X201647571Y-43011428D01*
X201647571Y-43011428D02*
X201704714Y-42982856D01*
X201704714Y-42982856D02*
X201733285Y-42954285D01*
X201733285Y-42954285D02*
X201761857Y-42897142D01*
X201761857Y-42897142D02*
X201761857Y-42782856D01*
X201761857Y-42782856D02*
X201733285Y-42725714D01*
X201733285Y-42725714D02*
X201704714Y-42697142D01*
X201704714Y-42697142D02*
X201647571Y-42668571D01*
X187240428Y-40105714D02*
X186954714Y-40305714D01*
X187240428Y-40448571D02*
X186640428Y-40448571D01*
X186640428Y-40448571D02*
X186640428Y-40220000D01*
X186640428Y-40220000D02*
X186669000Y-40162857D01*
X186669000Y-40162857D02*
X186697571Y-40134286D01*
X186697571Y-40134286D02*
X186754714Y-40105714D01*
X186754714Y-40105714D02*
X186840428Y-40105714D01*
X186840428Y-40105714D02*
X186897571Y-40134286D01*
X186897571Y-40134286D02*
X186926142Y-40162857D01*
X186926142Y-40162857D02*
X186954714Y-40220000D01*
X186954714Y-40220000D02*
X186954714Y-40448571D01*
X187240428Y-39534286D02*
X187240428Y-39877143D01*
X187240428Y-39705714D02*
X186640428Y-39705714D01*
X186640428Y-39705714D02*
X186726142Y-39762857D01*
X186726142Y-39762857D02*
X186783285Y-39820000D01*
X186783285Y-39820000D02*
X186811857Y-39877143D01*
X186640428Y-39162857D02*
X186640428Y-39105714D01*
X186640428Y-39105714D02*
X186669000Y-39048571D01*
X186669000Y-39048571D02*
X186697571Y-39020000D01*
X186697571Y-39020000D02*
X186754714Y-38991428D01*
X186754714Y-38991428D02*
X186869000Y-38962857D01*
X186869000Y-38962857D02*
X187011857Y-38962857D01*
X187011857Y-38962857D02*
X187126142Y-38991428D01*
X187126142Y-38991428D02*
X187183285Y-39020000D01*
X187183285Y-39020000D02*
X187211857Y-39048571D01*
X187211857Y-39048571D02*
X187240428Y-39105714D01*
X187240428Y-39105714D02*
X187240428Y-39162857D01*
X187240428Y-39162857D02*
X187211857Y-39220000D01*
X187211857Y-39220000D02*
X187183285Y-39248571D01*
X187183285Y-39248571D02*
X187126142Y-39277142D01*
X187126142Y-39277142D02*
X187011857Y-39305714D01*
X187011857Y-39305714D02*
X186869000Y-39305714D01*
X186869000Y-39305714D02*
X186754714Y-39277142D01*
X186754714Y-39277142D02*
X186697571Y-39248571D01*
X186697571Y-39248571D02*
X186669000Y-39220000D01*
X186669000Y-39220000D02*
X186640428Y-39162857D01*
X198090428Y-43239999D02*
X197804714Y-43439999D01*
X198090428Y-43582856D02*
X197490428Y-43582856D01*
X197490428Y-43582856D02*
X197490428Y-43354285D01*
X197490428Y-43354285D02*
X197519000Y-43297142D01*
X197519000Y-43297142D02*
X197547571Y-43268571D01*
X197547571Y-43268571D02*
X197604714Y-43239999D01*
X197604714Y-43239999D02*
X197690428Y-43239999D01*
X197690428Y-43239999D02*
X197747571Y-43268571D01*
X197747571Y-43268571D02*
X197776142Y-43297142D01*
X197776142Y-43297142D02*
X197804714Y-43354285D01*
X197804714Y-43354285D02*
X197804714Y-43582856D01*
X197747571Y-42897142D02*
X197719000Y-42954285D01*
X197719000Y-42954285D02*
X197690428Y-42982856D01*
X197690428Y-42982856D02*
X197633285Y-43011428D01*
X197633285Y-43011428D02*
X197604714Y-43011428D01*
X197604714Y-43011428D02*
X197547571Y-42982856D01*
X197547571Y-42982856D02*
X197519000Y-42954285D01*
X197519000Y-42954285D02*
X197490428Y-42897142D01*
X197490428Y-42897142D02*
X197490428Y-42782856D01*
X197490428Y-42782856D02*
X197519000Y-42725714D01*
X197519000Y-42725714D02*
X197547571Y-42697142D01*
X197547571Y-42697142D02*
X197604714Y-42668571D01*
X197604714Y-42668571D02*
X197633285Y-42668571D01*
X197633285Y-42668571D02*
X197690428Y-42697142D01*
X197690428Y-42697142D02*
X197719000Y-42725714D01*
X197719000Y-42725714D02*
X197747571Y-42782856D01*
X197747571Y-42782856D02*
X197747571Y-42897142D01*
X197747571Y-42897142D02*
X197776142Y-42954285D01*
X197776142Y-42954285D02*
X197804714Y-42982856D01*
X197804714Y-42982856D02*
X197861857Y-43011428D01*
X197861857Y-43011428D02*
X197976142Y-43011428D01*
X197976142Y-43011428D02*
X198033285Y-42982856D01*
X198033285Y-42982856D02*
X198061857Y-42954285D01*
X198061857Y-42954285D02*
X198090428Y-42897142D01*
X198090428Y-42897142D02*
X198090428Y-42782856D01*
X198090428Y-42782856D02*
X198061857Y-42725714D01*
X198061857Y-42725714D02*
X198033285Y-42697142D01*
X198033285Y-42697142D02*
X197976142Y-42668571D01*
X197976142Y-42668571D02*
X197861857Y-42668571D01*
X197861857Y-42668571D02*
X197804714Y-42697142D01*
X197804714Y-42697142D02*
X197776142Y-42725714D01*
X197776142Y-42725714D02*
X197747571Y-42782856D01*
X198743285Y-45685714D02*
X198771857Y-45714286D01*
X198771857Y-45714286D02*
X198800428Y-45800000D01*
X198800428Y-45800000D02*
X198800428Y-45857143D01*
X198800428Y-45857143D02*
X198771857Y-45942857D01*
X198771857Y-45942857D02*
X198714714Y-46000000D01*
X198714714Y-46000000D02*
X198657571Y-46028571D01*
X198657571Y-46028571D02*
X198543285Y-46057143D01*
X198543285Y-46057143D02*
X198457571Y-46057143D01*
X198457571Y-46057143D02*
X198343285Y-46028571D01*
X198343285Y-46028571D02*
X198286142Y-46000000D01*
X198286142Y-46000000D02*
X198229000Y-45942857D01*
X198229000Y-45942857D02*
X198200428Y-45857143D01*
X198200428Y-45857143D02*
X198200428Y-45800000D01*
X198200428Y-45800000D02*
X198229000Y-45714286D01*
X198229000Y-45714286D02*
X198257571Y-45685714D01*
X198800428Y-45114286D02*
X198800428Y-45457143D01*
X198800428Y-45285714D02*
X198200428Y-45285714D01*
X198200428Y-45285714D02*
X198286142Y-45342857D01*
X198286142Y-45342857D02*
X198343285Y-45400000D01*
X198343285Y-45400000D02*
X198371857Y-45457143D01*
X198200428Y-44742857D02*
X198200428Y-44685714D01*
X198200428Y-44685714D02*
X198229000Y-44628571D01*
X198229000Y-44628571D02*
X198257571Y-44600000D01*
X198257571Y-44600000D02*
X198314714Y-44571428D01*
X198314714Y-44571428D02*
X198429000Y-44542857D01*
X198429000Y-44542857D02*
X198571857Y-44542857D01*
X198571857Y-44542857D02*
X198686142Y-44571428D01*
X198686142Y-44571428D02*
X198743285Y-44600000D01*
X198743285Y-44600000D02*
X198771857Y-44628571D01*
X198771857Y-44628571D02*
X198800428Y-44685714D01*
X198800428Y-44685714D02*
X198800428Y-44742857D01*
X198800428Y-44742857D02*
X198771857Y-44800000D01*
X198771857Y-44800000D02*
X198743285Y-44828571D01*
X198743285Y-44828571D02*
X198686142Y-44857142D01*
X198686142Y-44857142D02*
X198571857Y-44885714D01*
X198571857Y-44885714D02*
X198429000Y-44885714D01*
X198429000Y-44885714D02*
X198314714Y-44857142D01*
X198314714Y-44857142D02*
X198257571Y-44828571D01*
X198257571Y-44828571D02*
X198229000Y-44800000D01*
X198229000Y-44800000D02*
X198200428Y-44742857D01*
X202770428Y-66320000D02*
X203199000Y-66320000D01*
X203199000Y-66320000D02*
X203284714Y-66348571D01*
X203284714Y-66348571D02*
X203341857Y-66405714D01*
X203341857Y-66405714D02*
X203370428Y-66491428D01*
X203370428Y-66491428D02*
X203370428Y-66548571D01*
X202827571Y-66062857D02*
X202799000Y-66034285D01*
X202799000Y-66034285D02*
X202770428Y-65977143D01*
X202770428Y-65977143D02*
X202770428Y-65834285D01*
X202770428Y-65834285D02*
X202799000Y-65777143D01*
X202799000Y-65777143D02*
X202827571Y-65748571D01*
X202827571Y-65748571D02*
X202884714Y-65720000D01*
X202884714Y-65720000D02*
X202941857Y-65720000D01*
X202941857Y-65720000D02*
X203027571Y-65748571D01*
X203027571Y-65748571D02*
X203370428Y-66091428D01*
X203370428Y-66091428D02*
X203370428Y-65720000D01*
X208543904Y-43400475D02*
X207743904Y-43400475D01*
X207743904Y-43400475D02*
X207743904Y-43209999D01*
X207743904Y-43209999D02*
X207782000Y-43095713D01*
X207782000Y-43095713D02*
X207858190Y-43019523D01*
X207858190Y-43019523D02*
X207934380Y-42981428D01*
X207934380Y-42981428D02*
X208086761Y-42943332D01*
X208086761Y-42943332D02*
X208201047Y-42943332D01*
X208201047Y-42943332D02*
X208353428Y-42981428D01*
X208353428Y-42981428D02*
X208429619Y-43019523D01*
X208429619Y-43019523D02*
X208505809Y-43095713D01*
X208505809Y-43095713D02*
X208543904Y-43209999D01*
X208543904Y-43209999D02*
X208543904Y-43400475D01*
X208543904Y-42181428D02*
X208543904Y-42638571D01*
X208543904Y-42409999D02*
X207743904Y-42409999D01*
X207743904Y-42409999D02*
X207858190Y-42486190D01*
X207858190Y-42486190D02*
X207934380Y-42562380D01*
X207934380Y-42562380D02*
X207972476Y-42638571D01*
X199643285Y-60900000D02*
X199671857Y-60928572D01*
X199671857Y-60928572D02*
X199700428Y-61014286D01*
X199700428Y-61014286D02*
X199700428Y-61071429D01*
X199700428Y-61071429D02*
X199671857Y-61157143D01*
X199671857Y-61157143D02*
X199614714Y-61214286D01*
X199614714Y-61214286D02*
X199557571Y-61242857D01*
X199557571Y-61242857D02*
X199443285Y-61271429D01*
X199443285Y-61271429D02*
X199357571Y-61271429D01*
X199357571Y-61271429D02*
X199243285Y-61242857D01*
X199243285Y-61242857D02*
X199186142Y-61214286D01*
X199186142Y-61214286D02*
X199129000Y-61157143D01*
X199129000Y-61157143D02*
X199100428Y-61071429D01*
X199100428Y-61071429D02*
X199100428Y-61014286D01*
X199100428Y-61014286D02*
X199129000Y-60928572D01*
X199129000Y-60928572D02*
X199157571Y-60900000D01*
X199700428Y-60328572D02*
X199700428Y-60671429D01*
X199700428Y-60500000D02*
X199100428Y-60500000D01*
X199100428Y-60500000D02*
X199186142Y-60557143D01*
X199186142Y-60557143D02*
X199243285Y-60614286D01*
X199243285Y-60614286D02*
X199271857Y-60671429D01*
X199300428Y-59814286D02*
X199700428Y-59814286D01*
X199071857Y-59957143D02*
X199500428Y-60100000D01*
X199500428Y-60100000D02*
X199500428Y-59728571D01*
X197818095Y-49442380D02*
X197818095Y-50251904D01*
X197818095Y-50251904D02*
X197865714Y-50347142D01*
X197865714Y-50347142D02*
X197913333Y-50394761D01*
X197913333Y-50394761D02*
X198008571Y-50442380D01*
X198008571Y-50442380D02*
X198199047Y-50442380D01*
X198199047Y-50442380D02*
X198294285Y-50394761D01*
X198294285Y-50394761D02*
X198341904Y-50347142D01*
X198341904Y-50347142D02*
X198389523Y-50251904D01*
X198389523Y-50251904D02*
X198389523Y-49442380D01*
X198770476Y-49442380D02*
X199389523Y-49442380D01*
X199389523Y-49442380D02*
X199056190Y-49823333D01*
X199056190Y-49823333D02*
X199199047Y-49823333D01*
X199199047Y-49823333D02*
X199294285Y-49870952D01*
X199294285Y-49870952D02*
X199341904Y-49918571D01*
X199341904Y-49918571D02*
X199389523Y-50013809D01*
X199389523Y-50013809D02*
X199389523Y-50251904D01*
X199389523Y-50251904D02*
X199341904Y-50347142D01*
X199341904Y-50347142D02*
X199294285Y-50394761D01*
X199294285Y-50394761D02*
X199199047Y-50442380D01*
X199199047Y-50442380D02*
X198913333Y-50442380D01*
X198913333Y-50442380D02*
X198818095Y-50394761D01*
X198818095Y-50394761D02*
X198770476Y-50347142D01*
X197223285Y-45389999D02*
X197251857Y-45418571D01*
X197251857Y-45418571D02*
X197280428Y-45504285D01*
X197280428Y-45504285D02*
X197280428Y-45561428D01*
X197280428Y-45561428D02*
X197251857Y-45647142D01*
X197251857Y-45647142D02*
X197194714Y-45704285D01*
X197194714Y-45704285D02*
X197137571Y-45732856D01*
X197137571Y-45732856D02*
X197023285Y-45761428D01*
X197023285Y-45761428D02*
X196937571Y-45761428D01*
X196937571Y-45761428D02*
X196823285Y-45732856D01*
X196823285Y-45732856D02*
X196766142Y-45704285D01*
X196766142Y-45704285D02*
X196709000Y-45647142D01*
X196709000Y-45647142D02*
X196680428Y-45561428D01*
X196680428Y-45561428D02*
X196680428Y-45504285D01*
X196680428Y-45504285D02*
X196709000Y-45418571D01*
X196709000Y-45418571D02*
X196737571Y-45389999D01*
X196680428Y-44847142D02*
X196680428Y-45132856D01*
X196680428Y-45132856D02*
X196966142Y-45161428D01*
X196966142Y-45161428D02*
X196937571Y-45132856D01*
X196937571Y-45132856D02*
X196909000Y-45075714D01*
X196909000Y-45075714D02*
X196909000Y-44932856D01*
X196909000Y-44932856D02*
X196937571Y-44875714D01*
X196937571Y-44875714D02*
X196966142Y-44847142D01*
X196966142Y-44847142D02*
X197023285Y-44818571D01*
X197023285Y-44818571D02*
X197166142Y-44818571D01*
X197166142Y-44818571D02*
X197223285Y-44847142D01*
X197223285Y-44847142D02*
X197251857Y-44875714D01*
X197251857Y-44875714D02*
X197280428Y-44932856D01*
X197280428Y-44932856D02*
X197280428Y-45075714D01*
X197280428Y-45075714D02*
X197251857Y-45132856D01*
X197251857Y-45132856D02*
X197223285Y-45161428D01*
X204400000Y-61220428D02*
X204200000Y-60934714D01*
X204057143Y-61220428D02*
X204057143Y-60620428D01*
X204057143Y-60620428D02*
X204285714Y-60620428D01*
X204285714Y-60620428D02*
X204342857Y-60649000D01*
X204342857Y-60649000D02*
X204371428Y-60677571D01*
X204371428Y-60677571D02*
X204400000Y-60734714D01*
X204400000Y-60734714D02*
X204400000Y-60820428D01*
X204400000Y-60820428D02*
X204371428Y-60877571D01*
X204371428Y-60877571D02*
X204342857Y-60906142D01*
X204342857Y-60906142D02*
X204285714Y-60934714D01*
X204285714Y-60934714D02*
X204057143Y-60934714D01*
X204600000Y-60620428D02*
X205000000Y-60620428D01*
X205000000Y-60620428D02*
X204742857Y-61220428D01*
X196050428Y-36317142D02*
X196536142Y-36317142D01*
X196536142Y-36317142D02*
X196593285Y-36288571D01*
X196593285Y-36288571D02*
X196621857Y-36260000D01*
X196621857Y-36260000D02*
X196650428Y-36202857D01*
X196650428Y-36202857D02*
X196650428Y-36088571D01*
X196650428Y-36088571D02*
X196621857Y-36031428D01*
X196621857Y-36031428D02*
X196593285Y-36002857D01*
X196593285Y-36002857D02*
X196536142Y-35974285D01*
X196536142Y-35974285D02*
X196050428Y-35974285D01*
X196107571Y-35717143D02*
X196079000Y-35688571D01*
X196079000Y-35688571D02*
X196050428Y-35631429D01*
X196050428Y-35631429D02*
X196050428Y-35488571D01*
X196050428Y-35488571D02*
X196079000Y-35431429D01*
X196079000Y-35431429D02*
X196107571Y-35402857D01*
X196107571Y-35402857D02*
X196164714Y-35374286D01*
X196164714Y-35374286D02*
X196221857Y-35374286D01*
X196221857Y-35374286D02*
X196307571Y-35402857D01*
X196307571Y-35402857D02*
X196650428Y-35745714D01*
X196650428Y-35745714D02*
X196650428Y-35374286D01*
X206554285Y-51593285D02*
X206525713Y-51621857D01*
X206525713Y-51621857D02*
X206439999Y-51650428D01*
X206439999Y-51650428D02*
X206382856Y-51650428D01*
X206382856Y-51650428D02*
X206297142Y-51621857D01*
X206297142Y-51621857D02*
X206239999Y-51564714D01*
X206239999Y-51564714D02*
X206211428Y-51507571D01*
X206211428Y-51507571D02*
X206182856Y-51393285D01*
X206182856Y-51393285D02*
X206182856Y-51307571D01*
X206182856Y-51307571D02*
X206211428Y-51193285D01*
X206211428Y-51193285D02*
X206239999Y-51136142D01*
X206239999Y-51136142D02*
X206297142Y-51079000D01*
X206297142Y-51079000D02*
X206382856Y-51050428D01*
X206382856Y-51050428D02*
X206439999Y-51050428D01*
X206439999Y-51050428D02*
X206525713Y-51079000D01*
X206525713Y-51079000D02*
X206554285Y-51107571D01*
X207125713Y-51650428D02*
X206782856Y-51650428D01*
X206954285Y-51650428D02*
X206954285Y-51050428D01*
X206954285Y-51050428D02*
X206897142Y-51136142D01*
X206897142Y-51136142D02*
X206839999Y-51193285D01*
X206839999Y-51193285D02*
X206782856Y-51221857D01*
X207325714Y-51050428D02*
X207725714Y-51050428D01*
X207725714Y-51050428D02*
X207468571Y-51650428D01*
X205093333Y-31767380D02*
X204760000Y-31291190D01*
X204521905Y-31767380D02*
X204521905Y-30767380D01*
X204521905Y-30767380D02*
X204902857Y-30767380D01*
X204902857Y-30767380D02*
X204998095Y-30815000D01*
X204998095Y-30815000D02*
X205045714Y-30862619D01*
X205045714Y-30862619D02*
X205093333Y-30957857D01*
X205093333Y-30957857D02*
X205093333Y-31100714D01*
X205093333Y-31100714D02*
X205045714Y-31195952D01*
X205045714Y-31195952D02*
X204998095Y-31243571D01*
X204998095Y-31243571D02*
X204902857Y-31291190D01*
X204902857Y-31291190D02*
X204521905Y-31291190D01*
X205426667Y-30767380D02*
X206045714Y-30767380D01*
X206045714Y-30767380D02*
X205712381Y-31148333D01*
X205712381Y-31148333D02*
X205855238Y-31148333D01*
X205855238Y-31148333D02*
X205950476Y-31195952D01*
X205950476Y-31195952D02*
X205998095Y-31243571D01*
X205998095Y-31243571D02*
X206045714Y-31338809D01*
X206045714Y-31338809D02*
X206045714Y-31576904D01*
X206045714Y-31576904D02*
X205998095Y-31672142D01*
X205998095Y-31672142D02*
X205950476Y-31719761D01*
X205950476Y-31719761D02*
X205855238Y-31767380D01*
X205855238Y-31767380D02*
X205569524Y-31767380D01*
X205569524Y-31767380D02*
X205474286Y-31719761D01*
X205474286Y-31719761D02*
X205426667Y-31672142D01*
X188992857Y-39610428D02*
X188992857Y-40096142D01*
X188992857Y-40096142D02*
X189021428Y-40153285D01*
X189021428Y-40153285D02*
X189050000Y-40181857D01*
X189050000Y-40181857D02*
X189107142Y-40210428D01*
X189107142Y-40210428D02*
X189221428Y-40210428D01*
X189221428Y-40210428D02*
X189278571Y-40181857D01*
X189278571Y-40181857D02*
X189307142Y-40153285D01*
X189307142Y-40153285D02*
X189335714Y-40096142D01*
X189335714Y-40096142D02*
X189335714Y-39610428D01*
X189878571Y-39810428D02*
X189878571Y-40210428D01*
X189735713Y-39581857D02*
X189592856Y-40010428D01*
X189592856Y-40010428D02*
X189964285Y-40010428D01*
D11*
X186570000Y-31780000D02*
X188650000Y-31780000D01*
X190330000Y-33050000D02*
X189840000Y-32560000D01*
X190330000Y-33050000D02*
X190330000Y-35950000D01*
X184890000Y-33050000D02*
X185380000Y-32560000D01*
X184890000Y-33050000D02*
X184890000Y-35950000D01*
X190330000Y-35950000D02*
X189840000Y-36440000D01*
X184890000Y-35950000D02*
X185380000Y-36440000D01*
X186570000Y-37220000D02*
X188650000Y-37220000D01*
X192984750Y-51303854D02*
X192984750Y-51088182D01*
X193704750Y-51303854D02*
X193704750Y-51088182D01*
X209552500Y-49367742D02*
X209552500Y-49842258D01*
X208507500Y-49367742D02*
X208507500Y-49842258D01*
X203352500Y-42380000D02*
X205027500Y-42380000D01*
X203352500Y-42380000D02*
X202702500Y-42380000D01*
X203352500Y-39260000D02*
X204002500Y-39260000D01*
X203352500Y-39260000D02*
X202702500Y-39260000D01*
X203007836Y-38940000D02*
X202792164Y-38940000D01*
X203007836Y-38220000D02*
X202792164Y-38220000D01*
X210047500Y-49842258D02*
X210047500Y-49367742D01*
X211092500Y-49842258D02*
X211092500Y-49367742D01*
X208176359Y-53130000D02*
X208483641Y-53130000D01*
X208176359Y-53890000D02*
X208483641Y-53890000D01*
X206064307Y-57485083D02*
X206216810Y-57637586D01*
X205555190Y-57994200D02*
X205707693Y-58146703D01*
X194583641Y-35610000D02*
X194276359Y-35610000D01*
X194583641Y-34850000D02*
X194276359Y-34850000D01*
X198294000Y-67689250D02*
X198294000Y-64389250D01*
X198294000Y-64389250D02*
X194294000Y-64389250D01*
X192659560Y-57216325D02*
X192507057Y-57368828D01*
X192150443Y-56707208D02*
X191997940Y-56859711D01*
X199207750Y-66162854D02*
X199207750Y-65947182D01*
X199927750Y-66162854D02*
X199927750Y-65947182D01*
X203107936Y-34550000D02*
X204312064Y-34550000D01*
X203107936Y-36370000D02*
X204312064Y-36370000D01*
X208130000Y-39730000D02*
X209530000Y-39730000D01*
X207830000Y-39480000D02*
X207830000Y-35830000D01*
X209830000Y-39480000D02*
X209830000Y-35830000D01*
X207830000Y-39480000D02*
G75*
G03*
X208130000Y-39730000I289561J42473D01*
G01*
X209530000Y-39730000D02*
G75*
G03*
X209829999Y-39480000I10462J292445D01*
G01*
X205932258Y-27242500D02*
X205457742Y-27242500D01*
X205932258Y-26197500D02*
X205457742Y-26197500D01*
X206027836Y-45785000D02*
X205812164Y-45785000D01*
X206027836Y-45065000D02*
X205812164Y-45065000D01*
X205812164Y-46265000D02*
X206027836Y-46265000D01*
X205812164Y-46985000D02*
X206027836Y-46985000D01*
X212642500Y-54460000D02*
X212642500Y-52540000D01*
X212642500Y-52540000D02*
X209957500Y-52540000D01*
X209957500Y-54460000D02*
X212642500Y-54460000D01*
X200985750Y-48763854D02*
X200985750Y-48548182D01*
X201705750Y-48763854D02*
X201705750Y-48548182D01*
X197057000Y-62636891D02*
X197057000Y-62329609D01*
X197817000Y-62636891D02*
X197817000Y-62329609D01*
X201353000Y-62375414D02*
X201353000Y-62591086D01*
X200633000Y-62375414D02*
X200633000Y-62591086D01*
X204949164Y-49550250D02*
X205164836Y-49550250D01*
X204949164Y-50270250D02*
X205164836Y-50270250D01*
X202001750Y-48763854D02*
X202001750Y-48548182D01*
X202721750Y-48763854D02*
X202721750Y-48548182D01*
X194992164Y-41280000D02*
X195207836Y-41280000D01*
X194992164Y-42000000D02*
X195207836Y-42000000D01*
X193225000Y-66201182D02*
X193225000Y-66416854D01*
X192505000Y-66201182D02*
X192505000Y-66416854D01*
X201062500Y-42902742D02*
X201062500Y-43377258D01*
X200017500Y-42902742D02*
X200017500Y-43377258D01*
X186230000Y-39566359D02*
X186230000Y-39873641D01*
X185470000Y-39566359D02*
X185470000Y-39873641D01*
X199532500Y-42902742D02*
X199532500Y-43377258D01*
X198487500Y-42902742D02*
X198487500Y-43377258D01*
X198220000Y-46970086D02*
X198220000Y-46754414D01*
X198940000Y-46970086D02*
X198940000Y-46754414D01*
D12*
X205841951Y-62500500D02*
X205858049Y-62500500D01*
X206907203Y-63093123D02*
X207540178Y-64143268D01*
X204159822Y-64143268D02*
X204792797Y-63093123D01*
X207755500Y-64917608D02*
X207755500Y-68439500D01*
X203944500Y-68439500D02*
X203944500Y-64917608D01*
X206455499Y-69739500D02*
X205244501Y-69739500D01*
X206907203Y-63093123D02*
G75*
G03*
X205858049Y-62500500I-1049152J-632373D01*
G01*
X205841951Y-62500501D02*
G75*
G03*
X204792798Y-63093123I0J-1224999D01*
G01*
X207755499Y-64917608D02*
G75*
G03*
X207540177Y-64143268I-1500007J-2D01*
G01*
X204159822Y-64143268D02*
G75*
G03*
X203944500Y-64917608I1284686J-774342D01*
G01*
X206455499Y-69739500D02*
G75*
G03*
X207755500Y-68439501I1J1300000D01*
G01*
X203944500Y-68439500D02*
G75*
G03*
X205244502Y-69739500I1300000J0D01*
G01*
D11*
X205750000Y-44660000D02*
X207150000Y-44660000D01*
X205450000Y-44410000D02*
X205450000Y-40760000D01*
X207450000Y-44410000D02*
X207450000Y-40760000D01*
X205450000Y-44410000D02*
G75*
G03*
X205750000Y-44660000I289561J42473D01*
G01*
X207150000Y-44660000D02*
G75*
G03*
X207449999Y-44410000I10462J292445D01*
G01*
X199829000Y-62375414D02*
X199829000Y-62591086D01*
X199109000Y-62375414D02*
X199109000Y-62591086D01*
X194970000Y-58505000D02*
X194970000Y-57855000D01*
X195620000Y-51285000D02*
X194970000Y-51285000D01*
X195620000Y-58505000D02*
X194970000Y-58505000D01*
X201540000Y-51285000D02*
X202190000Y-51285000D01*
X201540000Y-58505000D02*
X202190000Y-58505000D01*
X202190000Y-51285000D02*
X202190000Y-51935000D01*
X202190000Y-58505000D02*
X202190000Y-57855000D01*
X196696000Y-46970086D02*
X196696000Y-46754414D01*
X197416000Y-46970086D02*
X197416000Y-46754414D01*
X204653641Y-62310000D02*
X204346359Y-62310000D01*
X204653641Y-61550000D02*
X204346359Y-61550000D01*
X200140000Y-37350000D02*
X200140000Y-35550000D01*
X200140000Y-37350000D02*
X200140000Y-38150000D01*
X197020000Y-37350000D02*
X197020000Y-36550000D01*
X197020000Y-37350000D02*
X197020000Y-38150000D01*
X204949164Y-51074250D02*
X205164836Y-51074250D01*
X204949164Y-51794250D02*
X205164836Y-51794250D01*
X205106359Y-32190000D02*
X205413641Y-32190000D01*
X205106359Y-32950000D02*
X205413641Y-32950000D01*
X203268500Y-33420000D02*
X203268500Y-27520000D01*
X203268500Y-33420000D02*
X201628500Y-33420000D01*
X195328500Y-33420000D02*
X193888500Y-33420000D01*
X193888500Y-33420000D02*
X193888500Y-27520000D01*
X186725000Y-40825000D02*
X186725000Y-41085000D01*
X186725000Y-41085000D02*
X185050000Y-41085000D01*
X186725000Y-46275000D02*
X186725000Y-46015000D01*
X189450000Y-40825000D02*
X186725000Y-40825000D01*
X189450000Y-40825000D02*
X192175000Y-40825000D01*
X189450000Y-46275000D02*
X186725000Y-46275000D01*
X189450000Y-46275000D02*
X192175000Y-46275000D01*
X192175000Y-40825000D02*
X192175000Y-41085000D01*
X192175000Y-46275000D02*
X192175000Y-46015000D01*
%LPC*%
D13*
X279275000Y-98760000D03*
X305060000Y-46313383D03*
D14*
X327492471Y-41697106D03*
D15*
X322585568Y-43011907D03*
D14*
X317678665Y-44326708D03*
X254489870Y-82578572D03*
D15*
X249582967Y-83893373D03*
D14*
X244676064Y-85208174D03*
X305158570Y-59663744D03*
D15*
X300251667Y-60978545D03*
D14*
X295344764Y-62293346D03*
X261782026Y-112162746D03*
D15*
X256875123Y-113477547D03*
D14*
X251968220Y-114792348D03*
D16*
X189459999Y-31399999D03*
X189459999Y-37599999D03*
X185759999Y-31399999D03*
X185759999Y-37599999D03*
D13*
X111765000Y-98760000D03*
D17*
X193344750Y-51676018D03*
X193344750Y-50716018D03*
D18*
X209030000Y-48780000D03*
X209030000Y-50430000D03*
D14*
X127836345Y-67688339D03*
D15*
X122929442Y-66373538D03*
D14*
X118022539Y-65058737D03*
X182618206Y-156222187D03*
D15*
X177711303Y-154907386D03*
D14*
X172804400Y-153592585D03*
X71102880Y-72186923D03*
D15*
X66195977Y-70872122D03*
D14*
X61289074Y-69557321D03*
X298012576Y-32994532D03*
D15*
X293105673Y-34309333D03*
D14*
X288198770Y-35624134D03*
D19*
X204290000Y-41770000D03*
X204290000Y-39870000D03*
X202415000Y-40820000D03*
D20*
X203380000Y-38580000D03*
X202420000Y-38580000D03*
D21*
X210570000Y-50430000D03*
X210570000Y-48780000D03*
D22*
X207820000Y-53510000D03*
X208840000Y-53510000D03*
D14*
X276999756Y-64128928D03*
D15*
X272092853Y-65443729D03*
D14*
X267185950Y-66758530D03*
X217983085Y-123898637D03*
D15*
X213076182Y-125213438D03*
D14*
X208169279Y-126528239D03*
D23*
X205546589Y-57476482D03*
X206225411Y-58155304D03*
D24*
X194940000Y-35230000D03*
X193920000Y-35230000D03*
D13*
X92395000Y-143800000D03*
D25*
X197393999Y-65189249D03*
X195193999Y-65189249D03*
X195193999Y-66889249D03*
X197393999Y-66889249D03*
D26*
X192668161Y-56698607D03*
X191989339Y-57377429D03*
D14*
X203658500Y-81326866D03*
D15*
X198578500Y-81326866D03*
D14*
X193498500Y-81326866D03*
D17*
X199567750Y-66535018D03*
X199567750Y-65575018D03*
D27*
X202310000Y-35460000D03*
X205110000Y-35460000D03*
D28*
X208830000Y-39130000D03*
X208830000Y-35830000D03*
D29*
X206520000Y-26720000D03*
X204870000Y-26720000D03*
D20*
X206400000Y-45425000D03*
X205440000Y-45425000D03*
D30*
X205440000Y-46625000D03*
X206400000Y-46625000D03*
D31*
X211895000Y-53500000D03*
X210020000Y-53500000D03*
D17*
X201345750Y-49136018D03*
X201345750Y-48176018D03*
D32*
X197437000Y-62993250D03*
X197437000Y-61973250D03*
D33*
X200993000Y-62003250D03*
X200993000Y-62963250D03*
D30*
X204577000Y-49910250D03*
X205537000Y-49910250D03*
D14*
X247344135Y-55910326D03*
D15*
X242437232Y-57225127D03*
D14*
X237530329Y-58539928D03*
D17*
X202361750Y-49136018D03*
X202361750Y-48176018D03*
D30*
X194620000Y-41640000D03*
X195580000Y-41640000D03*
D33*
X192865000Y-65829018D03*
X192865000Y-66789018D03*
D14*
X236815468Y-107794159D03*
D15*
X231908565Y-109108960D03*
D14*
X227001662Y-110423761D03*
X164784598Y-135118417D03*
D15*
X159877695Y-133803616D03*
D14*
X154970792Y-132488815D03*
D18*
X200540000Y-42315000D03*
X200540000Y-43965000D03*
D14*
X150458438Y-85927864D03*
D15*
X145551535Y-84613063D03*
D14*
X140644632Y-83298262D03*
D34*
X185850000Y-39210000D03*
X185850000Y-40230000D03*
D13*
X98000000Y-46313383D03*
D14*
X269853762Y-37459716D03*
D15*
X264946859Y-38774517D03*
D14*
X260039956Y-40089318D03*
X99741012Y-62982380D03*
D15*
X94834109Y-61667579D03*
D14*
X89927206Y-60352778D03*
D18*
X199010000Y-42315000D03*
X199010000Y-43965000D03*
D17*
X198580000Y-47342250D03*
X198580000Y-46382250D03*
D35*
X205850000Y-63580000D03*
X206866000Y-68660000D03*
X204834000Y-68660000D03*
D36*
X205215000Y-64850000D03*
X206485000Y-64850000D03*
X205215000Y-66120000D03*
X206485000Y-66120000D03*
X205215000Y-67390000D03*
X206485000Y-67390000D03*
D28*
X206450000Y-44060000D03*
X206450000Y-40760000D03*
D13*
X304995000Y-143800000D03*
D33*
X199469000Y-62003250D03*
X199469000Y-62963250D03*
D14*
X226054357Y-151021034D03*
D15*
X221147454Y-152335835D03*
D14*
X216240551Y-153650636D03*
D37*
X195142500Y-52295000D03*
X195142500Y-52695000D03*
X195142500Y-53095000D03*
X195142500Y-53495000D03*
X195142500Y-53895000D03*
X195142500Y-54295000D03*
X195142500Y-54695000D03*
X195142500Y-55095000D03*
X195142500Y-55495000D03*
X195142500Y-55895000D03*
X195142500Y-56295000D03*
X195142500Y-56695000D03*
X195142500Y-57095000D03*
X195142500Y-57495000D03*
D38*
X195980000Y-58332500D03*
X196380000Y-58332500D03*
X196780000Y-58332500D03*
X197180000Y-58332500D03*
X197580000Y-58332500D03*
X197980000Y-58332500D03*
X198380000Y-58332500D03*
X198780000Y-58332500D03*
X199180000Y-58332500D03*
X199580000Y-58332500D03*
X199980000Y-58332500D03*
X200380000Y-58332500D03*
X200780000Y-58332500D03*
X201180000Y-58332500D03*
D37*
X202017500Y-57495000D03*
X202017500Y-57095000D03*
X202017500Y-56695000D03*
X202017500Y-56295000D03*
X202017500Y-55895000D03*
X202017500Y-55495000D03*
X202017500Y-55095000D03*
X202017500Y-54695000D03*
X202017500Y-54295000D03*
X202017500Y-53895000D03*
X202017500Y-53495000D03*
X202017500Y-53095000D03*
X202017500Y-52695000D03*
X202017500Y-52295000D03*
D38*
X201180000Y-51457500D03*
X200780000Y-51457500D03*
X200380000Y-51457500D03*
X199980000Y-51457500D03*
X199580000Y-51457500D03*
X199180000Y-51457500D03*
X198780000Y-51457500D03*
X198380000Y-51457500D03*
X197980000Y-51457500D03*
X197580000Y-51457500D03*
X197180000Y-51457500D03*
X196780000Y-51457500D03*
X196380000Y-51457500D03*
X195980000Y-51457500D03*
D39*
X198580000Y-54895000D03*
D17*
X197056000Y-47342250D03*
X197056000Y-46382250D03*
D14*
X243886740Y-132916556D03*
D15*
X238979837Y-134231357D03*
D14*
X234072934Y-135546158D03*
D13*
X220290000Y-34240000D03*
X177100000Y-34240000D03*
D14*
X334638465Y-68366318D03*
D15*
X329731562Y-69681119D03*
D14*
X324824659Y-70995920D03*
D24*
X205010000Y-61930000D03*
X203990000Y-61930000D03*
D40*
X199530000Y-36212500D03*
X198580000Y-36212500D03*
X197630000Y-36212500D03*
X197630000Y-38487500D03*
X198580000Y-38487500D03*
X199530000Y-38487500D03*
D30*
X204577000Y-51434250D03*
X205537000Y-51434250D03*
D22*
X204750000Y-32570000D03*
X205770000Y-32570000D03*
D41*
X202178500Y-32360000D03*
X194828500Y-32360000D03*
D42*
X201328499Y-32919999D03*
X200828499Y-32919999D03*
X200328499Y-32919999D03*
X199828499Y-32919999D03*
X199328499Y-32919999D03*
D43*
X198828499Y-32919999D03*
X198328499Y-32919999D03*
D42*
X197828499Y-32919999D03*
X197328499Y-32919999D03*
X196828499Y-32919999D03*
X196328499Y-32919999D03*
X195828499Y-32919999D03*
D41*
X195778500Y-31710000D03*
X196178500Y-31010000D03*
X196978500Y-31010000D03*
X197378500Y-31710000D03*
X197778500Y-31010000D03*
X198178500Y-31710000D03*
X198978500Y-31710000D03*
X199378500Y-31010000D03*
X199778500Y-31710000D03*
X200178500Y-31010000D03*
X200978500Y-31010000D03*
X201378500Y-31710000D03*
D44*
X203068499Y-26719999D03*
X202633499Y-31109999D03*
X194373499Y-31109999D03*
X194088499Y-26719999D03*
D45*
X185850000Y-41645000D03*
X185850000Y-42915000D03*
X185850000Y-44185000D03*
X185850000Y-45455000D03*
X193050000Y-45455000D03*
X193050000Y-44185000D03*
X193050000Y-42915000D03*
X193050000Y-41645000D03*
D14*
X71102880Y-72186923D03*
D15*
X66195977Y-70872122D03*
D14*
X61289074Y-69557321D03*
D46*
X63173200Y-67432570D03*
X69964229Y-66622619D03*
D14*
X247344135Y-55910326D03*
D15*
X242437232Y-57225127D03*
D14*
X237530329Y-58539928D03*
D46*
X238099654Y-55757776D03*
X243575883Y-51660823D03*
D14*
X254489870Y-82578572D03*
D15*
X249582967Y-83893373D03*
D14*
X244676064Y-85208174D03*
D46*
X245245389Y-82426022D03*
X250721618Y-78329069D03*
D14*
X203658500Y-81326866D03*
D15*
X198578500Y-81326866D03*
D14*
X193498500Y-81326866D03*
D46*
X194768500Y-78786866D03*
X201118500Y-76246866D03*
D14*
X217983085Y-123898637D03*
D15*
X213076182Y-125213438D03*
D14*
X208169279Y-126528239D03*
D46*
X208738604Y-123746087D03*
X214214833Y-119649134D03*
D14*
X99741012Y-62982380D03*
D15*
X94834109Y-61667579D03*
D14*
X89927206Y-60352778D03*
D46*
X91811332Y-58228027D03*
X98602361Y-57418076D03*
D14*
X261782026Y-112162746D03*
D15*
X256875123Y-113477547D03*
D14*
X251968220Y-114792348D03*
D46*
X252537545Y-112010196D03*
X258013774Y-107913243D03*
D14*
X150458438Y-85927864D03*
D15*
X145551535Y-84613063D03*
D14*
X140644632Y-83298262D03*
D46*
X142528758Y-81173511D03*
X149319787Y-80363560D03*
D14*
X269853762Y-37459716D03*
D15*
X264946859Y-38774517D03*
D14*
X260039956Y-40089318D03*
D46*
X260609281Y-37307166D03*
X266085510Y-33210213D03*
D14*
X127836345Y-67688339D03*
D15*
X122929442Y-66373538D03*
D14*
X118022539Y-65058737D03*
D46*
X119906665Y-62933986D03*
X126697694Y-62124035D03*
D14*
X226054357Y-151021034D03*
D15*
X221147454Y-152335835D03*
D14*
X216240551Y-153650636D03*
D46*
X216809876Y-150868484D03*
X222286105Y-146771531D03*
D14*
X182618206Y-156222187D03*
D15*
X177711303Y-154907386D03*
D14*
X172804400Y-153592585D03*
D46*
X174688526Y-151467834D03*
X181479555Y-150657883D03*
D14*
X164784598Y-135118417D03*
D15*
X159877695Y-133803616D03*
D14*
X154970792Y-132488815D03*
D46*
X156854918Y-130364064D03*
X163645947Y-129554113D03*
D14*
X305158570Y-59663744D03*
D15*
X300251667Y-60978545D03*
D14*
X295344764Y-62293346D03*
D46*
X295914089Y-59511194D03*
X301390318Y-55414241D03*
D14*
X327492471Y-41697106D03*
D15*
X322585568Y-43011907D03*
D14*
X317678665Y-44326708D03*
D46*
X318247990Y-41544556D03*
X323724219Y-37447603D03*
D14*
X243886740Y-132916556D03*
D15*
X238979837Y-134231357D03*
D14*
X234072934Y-135546158D03*
D46*
X234642259Y-132764006D03*
X240118488Y-128667053D03*
D14*
X276999756Y-64128928D03*
D15*
X272092853Y-65443729D03*
D14*
X267185950Y-66758530D03*
D46*
X267755275Y-63976378D03*
X273231504Y-59879425D03*
D14*
X334638465Y-68366318D03*
D15*
X329731562Y-69681119D03*
D14*
X324824659Y-70995920D03*
D46*
X325393984Y-68213768D03*
X330870213Y-64116815D03*
D14*
X298012576Y-32994532D03*
D15*
X293105673Y-34309333D03*
D14*
X288198770Y-35624134D03*
D46*
X288768095Y-32841982D03*
X294244324Y-28745029D03*
D14*
X236815468Y-107794159D03*
D15*
X231908565Y-109108960D03*
D14*
X227001662Y-110423761D03*
D46*
X227570987Y-107641609D03*
X233047216Y-103544656D03*
M02*
