G04 #@! TF.GenerationSoftware,KiCad,Pcbnew,(7.0.0)*
G04 #@! TF.CreationDate,2023-03-16T13:51:01-07:00*
G04 #@! TF.ProjectId,OpenRectangle,4f70656e-5265-4637-9461-6e676c652e6b,rev?*
G04 #@! TF.SameCoordinates,Original*
G04 #@! TF.FileFunction,Soldermask,Bot*
G04 #@! TF.FilePolarity,Negative*
%FSLAX46Y46*%
G04 Gerber Fmt 4.6, Leading zero omitted, Abs format (unit mm)*
G04 Created by KiCad (PCBNEW (7.0.0)) date 2023-03-16 13:51:01*
%MOMM*%
%LPD*%
G01*
G04 APERTURE LIST*
G04 Aperture macros list*
%AMRoundRect*
0 Rectangle with rounded corners*
0 $1 Rounding radius*
0 $2 $3 $4 $5 $6 $7 $8 $9 X,Y pos of 4 corners*
0 Add a 4 corners polygon primitive as box body*
4,1,4,$2,$3,$4,$5,$6,$7,$8,$9,$2,$3,0*
0 Add four circle primitives for the rounded corners*
1,1,$1+$1,$2,$3*
1,1,$1+$1,$4,$5*
1,1,$1+$1,$6,$7*
1,1,$1+$1,$8,$9*
0 Add four rect primitives between the rounded corners*
20,1,$1+$1,$2,$3,$4,$5,0*
20,1,$1+$1,$4,$5,$6,$7,0*
20,1,$1+$1,$6,$7,$8,$9,0*
20,1,$1+$1,$8,$9,$2,$3,0*%
G04 Aperture macros list end*
%ADD10C,3.800000*%
%ADD11C,1.750000*%
%ADD12C,3.987800*%
%ADD13C,2.300000*%
%ADD14C,0.990600*%
%ADD15C,0.650000*%
%ADD16O,0.800000X1.400000*%
%ADD17C,3.300000*%
%ADD18RoundRect,0.250000X1.248893X0.700636X-0.731255X1.231215X-1.248893X-0.700636X0.731255X-1.231215X0*%
%ADD19RoundRect,0.250000X0.731255X1.231215X-1.248893X0.700636X-0.731255X-1.231215X1.248893X-0.700636X0*%
%ADD20RoundRect,0.250000X1.025000X1.000000X-1.025000X1.000000X-1.025000X-1.000000X1.025000X-1.000000X0*%
G04 APERTURE END LIST*
D10*
X279275000Y-98760000D03*
X305060000Y-47313383D03*
D11*
X327742471Y-42697106D03*
D12*
X322835568Y-44011907D03*
D11*
X317928665Y-45326708D03*
D13*
X327173146Y-45479258D03*
X321696917Y-49576211D03*
D11*
X254489870Y-82578572D03*
D12*
X249582967Y-83893373D03*
D11*
X244676064Y-85208174D03*
D13*
X253920545Y-85360724D03*
X248444316Y-89457677D03*
D11*
X305158570Y-59663744D03*
D12*
X300251667Y-60978545D03*
D11*
X295344764Y-62293346D03*
D13*
X304589245Y-62445896D03*
X299113016Y-66542849D03*
D11*
X261782026Y-112162746D03*
D12*
X256875123Y-113477547D03*
D11*
X251968220Y-114792348D03*
D13*
X261212701Y-114944898D03*
X255736472Y-119041851D03*
D10*
X111765000Y-98760000D03*
D11*
X127836345Y-67688339D03*
D12*
X122929442Y-66373538D03*
D11*
X118022539Y-65058737D03*
D13*
X125952219Y-69813090D03*
X119161190Y-70623041D03*
D11*
X182618206Y-156222187D03*
D12*
X177711303Y-154907386D03*
D11*
X172804400Y-153592585D03*
D13*
X180734080Y-158346938D03*
X173943051Y-159156889D03*
D11*
X71102880Y-72186923D03*
D12*
X66195977Y-70872122D03*
D11*
X61289074Y-69557321D03*
D13*
X69218754Y-74311674D03*
X62427725Y-75121625D03*
D11*
X298262576Y-33994532D03*
D12*
X293355673Y-35309333D03*
D11*
X288448770Y-36624134D03*
D13*
X297693251Y-36776684D03*
X292217022Y-40873637D03*
D11*
X276999756Y-64128928D03*
D12*
X272092853Y-65443729D03*
D11*
X267185950Y-66758530D03*
D13*
X276430431Y-66911080D03*
X270954202Y-71008033D03*
D11*
X217983085Y-123898637D03*
D12*
X213076182Y-125213438D03*
D11*
X208169279Y-126528239D03*
D13*
X217413760Y-126680789D03*
X211937531Y-130777742D03*
D10*
X92395000Y-143800000D03*
D11*
X203658500Y-81326866D03*
D12*
X198578500Y-81326866D03*
D11*
X193498500Y-81326866D03*
D13*
X202388500Y-83866866D03*
X196038500Y-86406866D03*
D11*
X247594135Y-56910326D03*
D12*
X242687232Y-58225127D03*
D11*
X237780329Y-59539928D03*
D13*
X247024810Y-59692478D03*
X241548581Y-63789431D03*
D11*
X236815468Y-107794159D03*
D12*
X231908565Y-109108960D03*
D11*
X227001662Y-110423761D03*
D13*
X236246143Y-110576311D03*
X230769914Y-114673264D03*
D11*
X164784598Y-135118417D03*
D12*
X159877695Y-133803616D03*
D11*
X154970792Y-132488815D03*
D13*
X162900472Y-137243168D03*
X156109443Y-138053119D03*
D11*
X150458438Y-85927864D03*
D12*
X145551535Y-84613063D03*
D11*
X140644632Y-83298262D03*
D13*
X148574312Y-88052615D03*
X141783283Y-88862566D03*
D10*
X98000000Y-47313383D03*
D11*
X270103762Y-38459716D03*
D12*
X265196859Y-39774517D03*
D11*
X260289956Y-41089318D03*
D13*
X269534437Y-41241868D03*
X264058208Y-45338821D03*
D11*
X99741012Y-62982380D03*
D12*
X94834109Y-61667579D03*
D11*
X89927206Y-60352778D03*
D13*
X97856886Y-65107131D03*
X91065857Y-65917082D03*
D14*
X205850000Y-63580000D03*
X206866000Y-68660000D03*
X204834000Y-68660000D03*
D10*
X304995000Y-143800000D03*
D11*
X226054357Y-151021034D03*
D12*
X221147454Y-152335835D03*
D11*
X216240551Y-153650636D03*
D13*
X225485032Y-153803186D03*
X220008803Y-157900139D03*
D11*
X243886740Y-132916556D03*
D12*
X238979837Y-134231357D03*
D11*
X234072934Y-135546158D03*
D13*
X243317415Y-135698708D03*
X237841186Y-139795661D03*
D10*
X220290000Y-34240000D03*
X177100000Y-34240000D03*
D11*
X334638465Y-68366318D03*
D12*
X329731562Y-69681119D03*
D11*
X324824659Y-70995920D03*
D13*
X334069140Y-71148470D03*
X328592911Y-75245423D03*
D15*
X202178500Y-32360000D03*
X194828500Y-32360000D03*
X195778500Y-31710000D03*
X196178500Y-31010000D03*
X196978500Y-31010000D03*
X197378500Y-31710000D03*
X197778500Y-31010000D03*
X198178500Y-31710000D03*
X198978500Y-31710000D03*
X199378500Y-31010000D03*
X199778500Y-31710000D03*
X200178500Y-31010000D03*
X200978500Y-31010000D03*
X201378500Y-31710000D03*
D16*
X203068499Y-26719999D03*
X202633499Y-31109999D03*
X194373499Y-31109999D03*
X194088499Y-26719999D03*
D11*
X71102880Y-72186923D03*
D12*
X66195977Y-70872122D03*
D11*
X61289074Y-69557321D03*
D17*
X63173200Y-67432570D03*
D18*
X59744163Y-66513762D03*
X73393266Y-67541427D03*
D17*
X69964229Y-66622619D03*
D11*
X247594135Y-56910326D03*
D12*
X242687232Y-58225127D03*
D11*
X237780329Y-59539928D03*
D17*
X238349654Y-56757776D03*
D19*
X234920618Y-57676584D03*
X247254920Y-51742016D03*
D17*
X243825883Y-52660823D03*
D11*
X254489870Y-82578572D03*
D12*
X249582967Y-83893373D03*
D11*
X244676064Y-85208174D03*
D17*
X245245389Y-82426022D03*
D19*
X241816353Y-83344830D03*
X254150655Y-77410262D03*
D17*
X250721618Y-78329069D03*
D11*
X203658500Y-81326866D03*
D12*
X198578500Y-81326866D03*
D11*
X193498500Y-81326866D03*
D17*
X194768500Y-78786866D03*
D20*
X191218500Y-78786866D03*
X204668500Y-76246866D03*
D17*
X201118500Y-76246866D03*
D11*
X217983085Y-123898637D03*
D12*
X213076182Y-125213438D03*
D11*
X208169279Y-126528239D03*
D17*
X208738604Y-123746087D03*
D19*
X205309568Y-124664895D03*
X217643870Y-118730327D03*
D17*
X214214833Y-119649134D03*
D11*
X99741012Y-62982380D03*
D12*
X94834109Y-61667579D03*
D11*
X89927206Y-60352778D03*
D17*
X91811332Y-58228027D03*
D18*
X88382295Y-57309219D03*
X102031398Y-58336884D03*
D17*
X98602361Y-57418076D03*
D11*
X261782026Y-112162746D03*
D12*
X256875123Y-113477547D03*
D11*
X251968220Y-114792348D03*
D17*
X252537545Y-112010196D03*
D19*
X249108509Y-112929004D03*
X261442811Y-106994436D03*
D17*
X258013774Y-107913243D03*
D11*
X150458438Y-85927864D03*
D12*
X145551535Y-84613063D03*
D11*
X140644632Y-83298262D03*
D17*
X142528758Y-81173511D03*
D18*
X139099721Y-80254703D03*
X152748824Y-81282368D03*
D17*
X149319787Y-80363560D03*
D11*
X270103762Y-38459716D03*
D12*
X265196859Y-39774517D03*
D11*
X260289956Y-41089318D03*
D17*
X260859281Y-38307166D03*
D19*
X257430245Y-39225974D03*
X269764547Y-33291406D03*
D17*
X266335510Y-34210213D03*
D11*
X127836345Y-67688339D03*
D12*
X122929442Y-66373538D03*
D11*
X118022539Y-65058737D03*
D17*
X119906665Y-62933986D03*
D18*
X116477628Y-62015178D03*
X130126731Y-63042843D03*
D17*
X126697694Y-62124035D03*
D11*
X226054357Y-151021034D03*
D12*
X221147454Y-152335835D03*
D11*
X216240551Y-153650636D03*
D17*
X216809876Y-150868484D03*
D19*
X213380840Y-151787292D03*
X225715142Y-145852724D03*
D17*
X222286105Y-146771531D03*
D11*
X182618206Y-156222187D03*
D12*
X177711303Y-154907386D03*
D11*
X172804400Y-153592585D03*
D17*
X174688526Y-151467834D03*
D18*
X171259489Y-150549026D03*
X184908592Y-151576691D03*
D17*
X181479555Y-150657883D03*
D11*
X164784598Y-135118417D03*
D12*
X159877695Y-133803616D03*
D11*
X154970792Y-132488815D03*
D17*
X156854918Y-130364064D03*
D18*
X153425881Y-129445256D03*
X167074984Y-130472921D03*
D17*
X163645947Y-129554113D03*
D11*
X305158570Y-59663744D03*
D12*
X300251667Y-60978545D03*
D11*
X295344764Y-62293346D03*
D17*
X295914089Y-59511194D03*
D19*
X292485053Y-60430002D03*
X304819355Y-54495434D03*
D17*
X301390318Y-55414241D03*
D11*
X327742471Y-42697106D03*
D12*
X322835568Y-44011907D03*
D11*
X317928665Y-45326708D03*
D17*
X318497990Y-42544556D03*
D19*
X315068954Y-43463364D03*
X327403256Y-37528796D03*
D17*
X323974219Y-38447603D03*
D11*
X243886740Y-132916556D03*
D12*
X238979837Y-134231357D03*
D11*
X234072934Y-135546158D03*
D17*
X234642259Y-132764006D03*
D19*
X231213223Y-133682814D03*
X243547525Y-127748246D03*
D17*
X240118488Y-128667053D03*
D11*
X276999756Y-64128928D03*
D12*
X272092853Y-65443729D03*
D11*
X267185950Y-66758530D03*
D17*
X267755275Y-63976378D03*
D19*
X264326239Y-64895186D03*
X276660541Y-58960618D03*
D17*
X273231504Y-59879425D03*
D11*
X334638465Y-68366318D03*
D12*
X329731562Y-69681119D03*
D11*
X324824659Y-70995920D03*
D17*
X325393984Y-68213768D03*
D19*
X321964948Y-69132576D03*
X334299250Y-63198008D03*
D17*
X330870213Y-64116815D03*
D11*
X298262576Y-33994532D03*
D12*
X293355673Y-35309333D03*
D11*
X288448770Y-36624134D03*
D17*
X289018095Y-33841982D03*
D19*
X285589059Y-34760790D03*
X297923361Y-28826222D03*
D17*
X294494324Y-29745029D03*
D11*
X236815468Y-107794159D03*
D12*
X231908565Y-109108960D03*
D11*
X227001662Y-110423761D03*
D17*
X227570987Y-107641609D03*
D19*
X224141951Y-108560417D03*
X236476253Y-102625849D03*
D17*
X233047216Y-103544656D03*
M02*
