G04 #@! TF.GenerationSoftware,KiCad,Pcbnew,(7.0.0)*
G04 #@! TF.CreationDate,2023-03-16T13:51:01-07:00*
G04 #@! TF.ProjectId,OpenRectangle,4f70656e-5265-4637-9461-6e676c652e6b,rev?*
G04 #@! TF.SameCoordinates,Original*
G04 #@! TF.FileFunction,Paste,Top*
G04 #@! TF.FilePolarity,Positive*
%FSLAX46Y46*%
G04 Gerber Fmt 4.6, Leading zero omitted, Abs format (unit mm)*
G04 Created by KiCad (PCBNEW (7.0.0)) date 2023-03-16 13:51:01*
%MOMM*%
%LPD*%
G01*
G04 APERTURE LIST*
G04 Aperture macros list*
%AMRoundRect*
0 Rectangle with rounded corners*
0 $1 Rounding radius*
0 $2 $3 $4 $5 $6 $7 $8 $9 X,Y pos of 4 corners*
0 Add a 4 corners polygon primitive as box body*
4,1,4,$2,$3,$4,$5,$6,$7,$8,$9,$2,$3,0*
0 Add four circle primitives for the rounded corners*
1,1,$1+$1,$2,$3*
1,1,$1+$1,$4,$5*
1,1,$1+$1,$6,$7*
1,1,$1+$1,$8,$9*
0 Add four rect primitives between the rounded corners*
20,1,$1+$1,$2,$3,$4,$5,0*
20,1,$1+$1,$4,$5,$6,$7,0*
20,1,$1+$1,$6,$7,$8,$9,0*
20,1,$1+$1,$8,$9,$2,$3,0*%
G04 Aperture macros list end*
%ADD10R,1.100000X1.800000*%
%ADD11RoundRect,0.140000X0.170000X-0.140000X0.170000X0.140000X-0.170000X0.140000X-0.170000X-0.140000X0*%
%ADD12RoundRect,0.200000X-0.275000X0.200000X-0.275000X-0.200000X0.275000X-0.200000X0.275000X0.200000X0*%
%ADD13RoundRect,0.150000X0.587500X0.150000X-0.587500X0.150000X-0.587500X-0.150000X0.587500X-0.150000X0*%
%ADD14RoundRect,0.140000X0.140000X0.170000X-0.140000X0.170000X-0.140000X-0.170000X0.140000X-0.170000X0*%
%ADD15RoundRect,0.200000X0.275000X-0.200000X0.275000X0.200000X-0.275000X0.200000X-0.275000X-0.200000X0*%
%ADD16RoundRect,0.135000X-0.135000X-0.185000X0.135000X-0.185000X0.135000X0.185000X-0.135000X0.185000X0*%
%ADD17RoundRect,0.140000X-0.219203X-0.021213X-0.021213X-0.219203X0.219203X0.021213X0.021213X0.219203X0*%
%ADD18RoundRect,0.135000X0.135000X0.185000X-0.135000X0.185000X-0.135000X-0.185000X0.135000X-0.185000X0*%
%ADD19R,1.400000X1.200000*%
%ADD20RoundRect,0.140000X-0.021213X0.219203X-0.219203X0.021213X0.021213X-0.219203X0.219203X-0.021213X0*%
%ADD21RoundRect,0.250000X-0.375000X-0.625000X0.375000X-0.625000X0.375000X0.625000X-0.375000X0.625000X0*%
%ADD22RoundRect,0.225000X0.375000X-0.225000X0.375000X0.225000X-0.375000X0.225000X-0.375000X-0.225000X0*%
%ADD23RoundRect,0.200000X0.200000X0.275000X-0.200000X0.275000X-0.200000X-0.275000X0.200000X-0.275000X0*%
%ADD24RoundRect,0.140000X-0.140000X-0.170000X0.140000X-0.170000X0.140000X0.170000X-0.140000X0.170000X0*%
%ADD25RoundRect,0.243750X0.243750X0.456250X-0.243750X0.456250X-0.243750X-0.456250X0.243750X-0.456250X0*%
%ADD26RoundRect,0.135000X0.185000X-0.135000X0.185000X0.135000X-0.185000X0.135000X-0.185000X-0.135000X0*%
%ADD27RoundRect,0.140000X-0.170000X0.140000X-0.170000X-0.140000X0.170000X-0.140000X0.170000X0.140000X0*%
%ADD28RoundRect,0.135000X-0.185000X0.135000X-0.185000X-0.135000X0.185000X-0.135000X0.185000X0.135000X0*%
%ADD29RoundRect,0.250000X-0.292217X-0.292217X0.292217X-0.292217X0.292217X0.292217X-0.292217X0.292217X0*%
%ADD30RoundRect,0.050000X-0.387500X-0.050000X0.387500X-0.050000X0.387500X0.050000X-0.387500X0.050000X0*%
%ADD31RoundRect,0.050000X-0.050000X-0.387500X0.050000X-0.387500X0.050000X0.387500X-0.050000X0.387500X0*%
%ADD32RoundRect,0.150000X-0.150000X0.512500X-0.150000X-0.512500X0.150000X-0.512500X0.150000X0.512500X0*%
%ADD33R,0.300000X0.900000*%
%ADD34R,0.300000X0.700000*%
%ADD35RoundRect,0.150000X-0.650000X-0.150000X0.650000X-0.150000X0.650000X0.150000X-0.650000X0.150000X0*%
G04 APERTURE END LIST*
D10*
X189459999Y-31399999D03*
X189459999Y-37599999D03*
X185759999Y-31399999D03*
X185759999Y-37599999D03*
D11*
X193344750Y-51676018D03*
X193344750Y-50716018D03*
D12*
X209030000Y-48780000D03*
X209030000Y-50430000D03*
D13*
X204290000Y-41770000D03*
X204290000Y-39870000D03*
X202415000Y-40820000D03*
D14*
X203380000Y-38580000D03*
X202420000Y-38580000D03*
D15*
X210570000Y-50430000D03*
X210570000Y-48780000D03*
D16*
X207820000Y-53510000D03*
X208840000Y-53510000D03*
D17*
X205546589Y-57476482D03*
X206225411Y-58155304D03*
D18*
X194940000Y-35230000D03*
X193920000Y-35230000D03*
D19*
X197393999Y-65189249D03*
X195193999Y-65189249D03*
X195193999Y-66889249D03*
X197393999Y-66889249D03*
D20*
X192668161Y-56698607D03*
X191989339Y-57377429D03*
D11*
X199567750Y-66535018D03*
X199567750Y-65575018D03*
D21*
X202310000Y-35460000D03*
X205110000Y-35460000D03*
D22*
X208830000Y-39130000D03*
X208830000Y-35830000D03*
D23*
X206520000Y-26720000D03*
X204870000Y-26720000D03*
D14*
X206400000Y-45425000D03*
X205440000Y-45425000D03*
D24*
X205440000Y-46625000D03*
X206400000Y-46625000D03*
D25*
X211895000Y-53500000D03*
X210020000Y-53500000D03*
D11*
X201345750Y-49136018D03*
X201345750Y-48176018D03*
D26*
X197437000Y-62993250D03*
X197437000Y-61973250D03*
D27*
X200993000Y-62003250D03*
X200993000Y-62963250D03*
D24*
X204577000Y-49910250D03*
X205537000Y-49910250D03*
D11*
X202361750Y-49136018D03*
X202361750Y-48176018D03*
D24*
X194620000Y-41640000D03*
X195580000Y-41640000D03*
D27*
X192865000Y-65829018D03*
X192865000Y-66789018D03*
D12*
X200540000Y-42315000D03*
X200540000Y-43965000D03*
D28*
X185850000Y-39210000D03*
X185850000Y-40230000D03*
D12*
X199010000Y-42315000D03*
X199010000Y-43965000D03*
D11*
X198580000Y-47342250D03*
X198580000Y-46382250D03*
D22*
X206450000Y-44060000D03*
X206450000Y-40760000D03*
D27*
X199469000Y-62003250D03*
X199469000Y-62963250D03*
D29*
X197942500Y-54257500D03*
X197942500Y-55532500D03*
X199217500Y-54257500D03*
X199217500Y-55532500D03*
D30*
X195142500Y-52295000D03*
X195142500Y-52695000D03*
X195142500Y-53095000D03*
X195142500Y-53495000D03*
X195142500Y-53895000D03*
X195142500Y-54295000D03*
X195142500Y-54695000D03*
X195142500Y-55095000D03*
X195142500Y-55495000D03*
X195142500Y-55895000D03*
X195142500Y-56295000D03*
X195142500Y-56695000D03*
X195142500Y-57095000D03*
X195142500Y-57495000D03*
D31*
X195980000Y-58332500D03*
X196380000Y-58332500D03*
X196780000Y-58332500D03*
X197180000Y-58332500D03*
X197580000Y-58332500D03*
X197980000Y-58332500D03*
X198380000Y-58332500D03*
X198780000Y-58332500D03*
X199180000Y-58332500D03*
X199580000Y-58332500D03*
X199980000Y-58332500D03*
X200380000Y-58332500D03*
X200780000Y-58332500D03*
X201180000Y-58332500D03*
D30*
X202017500Y-57495000D03*
X202017500Y-57095000D03*
X202017500Y-56695000D03*
X202017500Y-56295000D03*
X202017500Y-55895000D03*
X202017500Y-55495000D03*
X202017500Y-55095000D03*
X202017500Y-54695000D03*
X202017500Y-54295000D03*
X202017500Y-53895000D03*
X202017500Y-53495000D03*
X202017500Y-53095000D03*
X202017500Y-52695000D03*
X202017500Y-52295000D03*
D31*
X201180000Y-51457500D03*
X200780000Y-51457500D03*
X200380000Y-51457500D03*
X199980000Y-51457500D03*
X199580000Y-51457500D03*
X199180000Y-51457500D03*
X198780000Y-51457500D03*
X198380000Y-51457500D03*
X197980000Y-51457500D03*
X197580000Y-51457500D03*
X197180000Y-51457500D03*
X196780000Y-51457500D03*
X196380000Y-51457500D03*
X195980000Y-51457500D03*
D11*
X197056000Y-47342250D03*
X197056000Y-46382250D03*
D18*
X205010000Y-61930000D03*
X203990000Y-61930000D03*
D32*
X199530000Y-36212500D03*
X198580000Y-36212500D03*
X197630000Y-36212500D03*
X197630000Y-38487500D03*
X198580000Y-38487500D03*
X199530000Y-38487500D03*
D24*
X204577000Y-51434250D03*
X205537000Y-51434250D03*
D16*
X204750000Y-32570000D03*
X205770000Y-32570000D03*
D33*
X201328499Y-32919999D03*
X200828499Y-32919999D03*
X200328499Y-32919999D03*
X199828499Y-32919999D03*
X199328499Y-32919999D03*
D34*
X198828499Y-32919999D03*
X198328499Y-32919999D03*
D33*
X197828499Y-32919999D03*
X197328499Y-32919999D03*
X196828499Y-32919999D03*
X196328499Y-32919999D03*
X195828499Y-32919999D03*
D35*
X185850000Y-41645000D03*
X185850000Y-42915000D03*
X185850000Y-44185000D03*
X185850000Y-45455000D03*
X193050000Y-45455000D03*
X193050000Y-44185000D03*
X193050000Y-42915000D03*
X193050000Y-41645000D03*
M02*
