%TF.GenerationSoftware,KiCad,Pcbnew,(7.0.0)*%
%TF.CreationDate,2023-07-02T10:43:32-07:00*%
%TF.ProjectId,OpenOblong,4f70656e-4f62-46c6-9f6e-672e6b696361,rev?*%
%TF.SameCoordinates,Original*%
%TF.FileFunction,Drillmap*%
%TF.FilePolarity,Positive*%
%FSLAX45Y45*%
G04 Gerber Fmt 4.5, Leading zero omitted, Abs format (unit mm)*
G04 Created by KiCad (PCBNEW (7.0.0)) date 2023-07-02 10:43:32*
%MOMM*%
%LPD*%
G01*
G04 APERTURE LIST*
%ADD10C,0.100000*%
%ADD11C,0.200000*%
%ADD12C,0.065000*%
%ADD13C,0.099060*%
%ADD14C,0.175000*%
%ADD15C,0.398780*%
G04 APERTURE END LIST*
D10*
X6861000Y-16162000D02*
X32881000Y-16162000D01*
X32881000Y-2540000D02*
X6861000Y-2540000D01*
X6861000Y-2540000D02*
G75*
G03*
X5736000Y-3665000I0J-1125000D01*
G01*
X34006000Y-3665000D02*
G75*
G03*
X32881000Y-2540000I-1125000J0D01*
G01*
X5736000Y-3665000D02*
X5736000Y-15037000D01*
X34006000Y-3665000D02*
X34006000Y-15037000D01*
X5736000Y-15037000D02*
G75*
G03*
X6861000Y-16162000I1125000J0D01*
G01*
X32881000Y-16162000D02*
G75*
G03*
X34006000Y-15037000I0J1125000D01*
G01*
D11*
D12*
X19450350Y-3203500D02*
X19515350Y-3268500D01*
X19515350Y-3203500D02*
X19450350Y-3268500D01*
X20185350Y-3203500D02*
X20250350Y-3268500D01*
X20250350Y-3203500D02*
X20185350Y-3268500D01*
D13*
X20532930Y-6866000D02*
G75*
G03*
X20532930Y-6866000I-49530J0D01*
G01*
X20634530Y-6358000D02*
G75*
G03*
X20634530Y-6358000I-49530J0D01*
G01*
X20736130Y-6866000D02*
G75*
G03*
X20736130Y-6866000I-49530J0D01*
G01*
D14*
X6111598Y-6999712D02*
X6111598Y-7174712D01*
X6024098Y-7087212D02*
X6199098Y-7087212D01*
X6111598Y-6999712D02*
X6111598Y-7174712D01*
X6024098Y-7087212D02*
X6199098Y-7087212D01*
X7127598Y-6999712D02*
X7127598Y-7174712D01*
X7040098Y-7087212D02*
X7215098Y-7087212D01*
X7127598Y-6999712D02*
X7127598Y-7174712D01*
X7040098Y-7087212D02*
X7215098Y-7087212D01*
X8975411Y-6079258D02*
X8975411Y-6254258D01*
X8887911Y-6166758D02*
X9062911Y-6166758D01*
X8975411Y-6079258D02*
X8975411Y-6254258D01*
X8887911Y-6166758D02*
X9062911Y-6166758D01*
X9991411Y-6079258D02*
X9991411Y-6254258D01*
X9903911Y-6166758D02*
X10078911Y-6166758D01*
X9991411Y-6079258D02*
X9991411Y-6254258D01*
X9903911Y-6166758D02*
X10078911Y-6166758D01*
X11784944Y-6549854D02*
X11784944Y-6724854D01*
X11697444Y-6637354D02*
X11872444Y-6637354D01*
X11784944Y-6549854D02*
X11784944Y-6724854D01*
X11697444Y-6637354D02*
X11872444Y-6637354D01*
X12800944Y-6549854D02*
X12800944Y-6724854D01*
X12713444Y-6637354D02*
X12888444Y-6637354D01*
X12800944Y-6549854D02*
X12800944Y-6724854D01*
X12713444Y-6637354D02*
X12888444Y-6637354D01*
X14047153Y-8373806D02*
X14047153Y-8548806D01*
X13959653Y-8461306D02*
X14134653Y-8461306D01*
X14047153Y-8373806D02*
X14047153Y-8548806D01*
X13959653Y-8461306D02*
X14134653Y-8461306D01*
X15063153Y-8373806D02*
X15063153Y-8548806D01*
X14975653Y-8461306D02*
X15150653Y-8461306D01*
X15063153Y-8373806D02*
X15063153Y-8548806D01*
X14975653Y-8461306D02*
X15150653Y-8461306D01*
X15479769Y-13292862D02*
X15479769Y-13467862D01*
X15392269Y-13380362D02*
X15567269Y-13380362D01*
X15479769Y-13292862D02*
X15479769Y-13467862D01*
X15392269Y-13380362D02*
X15567269Y-13380362D01*
X16495769Y-13292862D02*
X16495769Y-13467862D01*
X16408269Y-13380362D02*
X16583269Y-13380362D01*
X16495769Y-13292862D02*
X16495769Y-13467862D01*
X16408269Y-13380362D02*
X16583269Y-13380362D01*
X17263130Y-15403239D02*
X17263130Y-15578239D01*
X17175630Y-15490739D02*
X17350630Y-15490739D01*
X17263130Y-15403239D02*
X17263130Y-15578239D01*
X17175630Y-15490739D02*
X17350630Y-15490739D01*
X18039331Y-13039090D02*
X18039331Y-13214090D01*
X17951831Y-13126590D02*
X18126831Y-13126590D01*
X18039844Y-13038860D02*
X18039844Y-13213860D01*
X17952344Y-13126360D02*
X18127344Y-13126360D01*
X18279130Y-15403239D02*
X18279130Y-15578239D01*
X18191630Y-15490739D02*
X18366630Y-15490739D01*
X18279130Y-15403239D02*
X18279130Y-15578239D01*
X18191630Y-15490739D02*
X18366630Y-15490739D01*
X19055331Y-13039090D02*
X19055331Y-13214090D01*
X18967831Y-13126590D02*
X19142831Y-13126590D01*
X19055844Y-13038860D02*
X19055844Y-13213860D01*
X18968344Y-13126360D02*
X19143344Y-13126360D01*
X19349850Y-8045187D02*
X19349850Y-8220187D01*
X19262350Y-8132687D02*
X19437350Y-8132687D01*
X19349850Y-8045187D02*
X19349850Y-8220187D01*
X19262350Y-8132687D02*
X19437350Y-8132687D01*
X20365850Y-8045187D02*
X20365850Y-8220187D01*
X20278350Y-8132687D02*
X20453350Y-8132687D01*
X20365850Y-8045187D02*
X20365850Y-8220187D01*
X20278350Y-8132687D02*
X20453350Y-8132687D01*
X20799618Y-12433844D02*
X20799618Y-12608844D01*
X20712118Y-12521344D02*
X20887118Y-12521344D01*
X20799618Y-12433844D02*
X20799618Y-12608844D01*
X20712118Y-12521344D02*
X20887118Y-12521344D01*
X21106745Y-15146083D02*
X21106745Y-15321083D01*
X21019245Y-15233583D02*
X21194245Y-15233583D01*
X21106745Y-15146083D02*
X21106745Y-15321083D01*
X21019245Y-15233583D02*
X21194245Y-15233583D01*
X21815618Y-12433844D02*
X21815618Y-12608844D01*
X21728118Y-12521344D02*
X21903118Y-12521344D01*
X21815618Y-12433844D02*
X21815618Y-12608844D01*
X21728118Y-12521344D02*
X21903118Y-12521344D01*
X22122745Y-15146083D02*
X22122745Y-15321083D01*
X22035245Y-15233583D02*
X22210245Y-15233583D01*
X22122745Y-15146083D02*
X22122745Y-15321083D01*
X22035245Y-15233583D02*
X22210245Y-15233583D01*
X22682856Y-10823396D02*
X22682856Y-10998396D01*
X22595356Y-10910896D02*
X22770356Y-10910896D01*
X22682856Y-10823396D02*
X22682856Y-10998396D01*
X22595356Y-10910896D02*
X22770356Y-10910896D01*
X23389984Y-13335636D02*
X23389984Y-13510636D01*
X23302484Y-13423136D02*
X23477484Y-13423136D01*
X23389984Y-13335636D02*
X23389984Y-13510636D01*
X23302484Y-13423136D02*
X23477484Y-13423136D01*
X23698856Y-10823396D02*
X23698856Y-10998396D01*
X23611356Y-10910896D02*
X23786356Y-10910896D01*
X23698856Y-10823396D02*
X23698856Y-10998396D01*
X23611356Y-10910896D02*
X23786356Y-10910896D01*
X23760723Y-5735013D02*
X23760723Y-5910013D01*
X23673223Y-5822513D02*
X23848223Y-5822513D01*
X23760723Y-5735013D02*
X23760723Y-5910013D01*
X23673223Y-5822513D02*
X23848223Y-5822513D01*
X24405984Y-13335636D02*
X24405984Y-13510636D01*
X24318484Y-13423136D02*
X24493484Y-13423136D01*
X24405984Y-13335636D02*
X24405984Y-13510636D01*
X24318484Y-13423136D02*
X24493484Y-13423136D01*
X24450297Y-8301837D02*
X24450297Y-8476837D01*
X24362797Y-8389337D02*
X24537797Y-8389337D01*
X24450297Y-8301837D02*
X24450297Y-8476837D01*
X24362797Y-8389337D02*
X24537797Y-8389337D01*
X24776723Y-5735013D02*
X24776723Y-5910013D01*
X24689223Y-5822513D02*
X24864223Y-5822513D01*
X24776723Y-5735013D02*
X24776723Y-5910013D01*
X24689223Y-5822513D02*
X24864223Y-5822513D01*
X25179512Y-11260255D02*
X25179512Y-11435255D01*
X25092012Y-11347755D02*
X25267012Y-11347755D01*
X25179512Y-11260255D02*
X25179512Y-11435255D01*
X25092012Y-11347755D02*
X25267012Y-11347755D01*
X25466297Y-8301837D02*
X25466297Y-8476837D01*
X25378797Y-8389337D02*
X25553797Y-8389337D01*
X25466297Y-8301837D02*
X25466297Y-8476837D01*
X25378797Y-8389337D02*
X25553797Y-8389337D01*
X26011686Y-3889952D02*
X26011686Y-4064952D01*
X25924186Y-3977452D02*
X26099186Y-3977452D01*
X26011686Y-3889952D02*
X26011686Y-4064952D01*
X25924186Y-3977452D02*
X26099186Y-3977452D01*
X26195512Y-11260255D02*
X26195512Y-11435255D01*
X26108012Y-11347755D02*
X26283012Y-11347755D01*
X26195512Y-11260255D02*
X26195512Y-11435255D01*
X26108012Y-11347755D02*
X26283012Y-11347755D01*
X26701285Y-6456873D02*
X26701285Y-6631873D01*
X26613785Y-6544373D02*
X26788785Y-6544373D01*
X26701285Y-6456873D02*
X26701285Y-6631873D01*
X26613785Y-6544373D02*
X26788785Y-6544373D01*
X27027686Y-3889952D02*
X27027686Y-4064952D01*
X26940186Y-3977452D02*
X27115186Y-3977452D01*
X27027686Y-3889952D02*
X27027686Y-4064952D01*
X26940186Y-3977452D02*
X27115186Y-3977452D01*
X27717285Y-6456873D02*
X27717285Y-6631873D01*
X27629785Y-6544373D02*
X27804785Y-6544373D01*
X27717285Y-6456873D02*
X27717285Y-6631873D01*
X27629785Y-6544373D02*
X27804785Y-6544373D01*
X28827567Y-3443433D02*
X28827567Y-3618433D01*
X28740067Y-3530933D02*
X28915067Y-3530933D01*
X28827567Y-3443433D02*
X28827567Y-3618433D01*
X28740067Y-3530933D02*
X28915067Y-3530933D01*
X29517167Y-6010354D02*
X29517167Y-6185354D01*
X29429667Y-6097854D02*
X29604667Y-6097854D01*
X29517167Y-6010354D02*
X29517167Y-6185354D01*
X29429667Y-6097854D02*
X29604667Y-6097854D01*
X29843567Y-3443433D02*
X29843567Y-3618433D01*
X29756067Y-3530933D02*
X29931067Y-3530933D01*
X29843567Y-3443433D02*
X29843567Y-3618433D01*
X29756067Y-3530933D02*
X29931067Y-3530933D01*
X30533167Y-6010354D02*
X30533167Y-6185354D01*
X30445667Y-6097854D02*
X30620667Y-6097854D01*
X30533167Y-6010354D02*
X30533167Y-6185354D01*
X30445667Y-6097854D02*
X30620667Y-6097854D01*
X31775557Y-4313691D02*
X31775557Y-4488691D01*
X31688057Y-4401191D02*
X31863057Y-4401191D01*
X31775557Y-4313691D02*
X31775557Y-4488691D01*
X31688057Y-4401191D02*
X31863057Y-4401191D01*
X32465156Y-6880612D02*
X32465156Y-7055612D01*
X32377656Y-6968112D02*
X32552656Y-6968112D01*
X32465156Y-6880612D02*
X32465156Y-7055612D01*
X32377656Y-6968112D02*
X32552656Y-6968112D01*
X32791557Y-4313691D02*
X32791557Y-4488691D01*
X32704057Y-4401191D02*
X32879057Y-4401191D01*
X32791557Y-4313691D02*
X32791557Y-4488691D01*
X32704057Y-4401191D02*
X32879057Y-4401191D01*
X33481156Y-6880612D02*
X33481156Y-7055612D01*
X33393656Y-6968112D02*
X33568656Y-6968112D01*
X33481156Y-6880612D02*
X33481156Y-7055612D01*
X33393656Y-6968112D02*
X33568656Y-6968112D01*
D15*
X6760589Y-7228204D02*
X6760589Y-6946221D01*
X6478606Y-6946221D01*
X6478606Y-7228204D01*
X6760589Y-7228204D01*
X6760589Y-7228204D02*
X6760589Y-6946221D01*
X6478606Y-6946221D01*
X6478606Y-7228204D01*
X6760589Y-7228204D01*
X9624402Y-6307749D02*
X9624402Y-6025766D01*
X9342420Y-6025766D01*
X9342420Y-6307749D01*
X9624402Y-6307749D01*
X9624402Y-6307749D02*
X9624402Y-6025766D01*
X9342420Y-6025766D01*
X9342420Y-6307749D01*
X9624402Y-6307749D01*
X12433936Y-6778345D02*
X12433936Y-6496362D01*
X12151953Y-6496362D01*
X12151953Y-6778345D01*
X12433936Y-6778345D01*
X12433936Y-6778345D02*
X12433936Y-6496362D01*
X12151953Y-6496362D01*
X12151953Y-6778345D01*
X12433936Y-6778345D01*
X14696145Y-8602298D02*
X14696145Y-8320315D01*
X14414162Y-8320315D01*
X14414162Y-8602298D01*
X14696145Y-8602298D01*
X14696145Y-8602298D02*
X14696145Y-8320315D01*
X14414162Y-8320315D01*
X14414162Y-8602298D01*
X14696145Y-8602298D01*
X16128761Y-13521353D02*
X16128761Y-13239370D01*
X15846778Y-13239370D01*
X15846778Y-13521353D01*
X16128761Y-13521353D01*
X16128761Y-13521353D02*
X16128761Y-13239370D01*
X15846778Y-13239370D01*
X15846778Y-13521353D01*
X16128761Y-13521353D01*
X17912122Y-15631730D02*
X17912122Y-15349747D01*
X17630139Y-15349747D01*
X17630139Y-15631730D01*
X17912122Y-15631730D01*
X17912122Y-15631730D02*
X17912122Y-15349747D01*
X17630139Y-15349747D01*
X17630139Y-15631730D01*
X17912122Y-15631730D01*
X18688322Y-13267582D02*
X18688322Y-12985599D01*
X18406339Y-12985599D01*
X18406339Y-13267582D01*
X18688322Y-13267582D01*
X18688836Y-13267351D02*
X18688836Y-12985369D01*
X18406853Y-12985369D01*
X18406853Y-13267351D01*
X18688836Y-13267351D01*
X19998841Y-8273678D02*
X19998841Y-7991695D01*
X19716859Y-7991695D01*
X19716859Y-8273678D01*
X19998841Y-8273678D01*
X19998841Y-8273678D02*
X19998841Y-7991695D01*
X19716859Y-7991695D01*
X19716859Y-8273678D01*
X19998841Y-8273678D01*
X21448610Y-12662335D02*
X21448610Y-12380352D01*
X21166627Y-12380352D01*
X21166627Y-12662335D01*
X21448610Y-12662335D01*
X21448610Y-12662335D02*
X21448610Y-12380352D01*
X21166627Y-12380352D01*
X21166627Y-12662335D01*
X21448610Y-12662335D01*
X21755737Y-15374575D02*
X21755737Y-15092592D01*
X21473754Y-15092592D01*
X21473754Y-15374575D01*
X21755737Y-15374575D01*
X21755737Y-15374575D02*
X21755737Y-15092592D01*
X21473754Y-15092592D01*
X21473754Y-15374575D01*
X21755737Y-15374575D01*
X23331848Y-11051887D02*
X23331848Y-10769905D01*
X23049865Y-10769905D01*
X23049865Y-11051887D01*
X23331848Y-11051887D01*
X23331848Y-11051887D02*
X23331848Y-10769905D01*
X23049865Y-10769905D01*
X23049865Y-11051887D01*
X23331848Y-11051887D01*
X24038975Y-13564127D02*
X24038975Y-13282144D01*
X23756992Y-13282144D01*
X23756992Y-13564127D01*
X24038975Y-13564127D01*
X24038975Y-13564127D02*
X24038975Y-13282144D01*
X23756992Y-13282144D01*
X23756992Y-13564127D01*
X24038975Y-13564127D01*
X24409715Y-5963504D02*
X24409715Y-5681521D01*
X24127732Y-5681521D01*
X24127732Y-5963504D01*
X24409715Y-5963504D01*
X24409715Y-5963504D02*
X24409715Y-5681521D01*
X24127732Y-5681521D01*
X24127732Y-5963504D01*
X24409715Y-5963504D01*
X25099288Y-8530329D02*
X25099288Y-8248346D01*
X24817305Y-8248346D01*
X24817305Y-8530329D01*
X25099288Y-8530329D01*
X25099288Y-8530329D02*
X25099288Y-8248346D01*
X24817305Y-8248346D01*
X24817305Y-8530329D01*
X25099288Y-8530329D01*
X25828504Y-11488746D02*
X25828504Y-11206763D01*
X25546521Y-11206763D01*
X25546521Y-11488746D01*
X25828504Y-11488746D01*
X25828504Y-11488746D02*
X25828504Y-11206763D01*
X25546521Y-11206763D01*
X25546521Y-11488746D01*
X25828504Y-11488746D01*
X26660677Y-4118443D02*
X26660677Y-3836460D01*
X26378694Y-3836460D01*
X26378694Y-4118443D01*
X26660677Y-4118443D01*
X26660677Y-4118443D02*
X26660677Y-3836460D01*
X26378694Y-3836460D01*
X26378694Y-4118443D01*
X26660677Y-4118443D01*
X27350277Y-6685364D02*
X27350277Y-6403381D01*
X27068294Y-6403381D01*
X27068294Y-6685364D01*
X27350277Y-6685364D01*
X27350277Y-6685364D02*
X27350277Y-6403381D01*
X27068294Y-6403381D01*
X27068294Y-6685364D01*
X27350277Y-6685364D01*
X29476559Y-3671925D02*
X29476559Y-3389942D01*
X29194576Y-3389942D01*
X29194576Y-3671925D01*
X29476559Y-3671925D01*
X29476559Y-3671925D02*
X29476559Y-3389942D01*
X29194576Y-3389942D01*
X29194576Y-3671925D01*
X29476559Y-3671925D01*
X30166158Y-6238846D02*
X30166158Y-5956863D01*
X29884175Y-5956863D01*
X29884175Y-6238846D01*
X30166158Y-6238846D01*
X30166158Y-6238846D02*
X30166158Y-5956863D01*
X29884175Y-5956863D01*
X29884175Y-6238846D01*
X30166158Y-6238846D01*
X32424548Y-4542182D02*
X32424548Y-4260199D01*
X32142565Y-4260199D01*
X32142565Y-4542182D01*
X32424548Y-4542182D01*
X32424548Y-4542182D02*
X32424548Y-4260199D01*
X32142565Y-4260199D01*
X32142565Y-4542182D01*
X32424548Y-4542182D01*
X33114148Y-7109103D02*
X33114148Y-6827120D01*
X32832165Y-6827120D01*
X32832165Y-7109103D01*
X33114148Y-7109103D01*
X33114148Y-7109103D02*
X33114148Y-6827120D01*
X32832165Y-6827120D01*
X32832165Y-7109103D01*
X33114148Y-7109103D01*
D11*
X5978619Y-16460476D02*
X5978619Y-16260476D01*
X5978619Y-16260476D02*
X6026238Y-16260476D01*
X6026238Y-16260476D02*
X6054809Y-16270000D01*
X6054809Y-16270000D02*
X6073857Y-16289048D01*
X6073857Y-16289048D02*
X6083381Y-16308095D01*
X6083381Y-16308095D02*
X6092905Y-16346190D01*
X6092905Y-16346190D02*
X6092905Y-16374762D01*
X6092905Y-16374762D02*
X6083381Y-16412857D01*
X6083381Y-16412857D02*
X6073857Y-16431905D01*
X6073857Y-16431905D02*
X6054809Y-16450952D01*
X6054809Y-16450952D02*
X6026238Y-16460476D01*
X6026238Y-16460476D02*
X5978619Y-16460476D01*
X6178619Y-16460476D02*
X6178619Y-16327143D01*
X6178619Y-16365238D02*
X6188143Y-16346190D01*
X6188143Y-16346190D02*
X6197667Y-16336667D01*
X6197667Y-16336667D02*
X6216714Y-16327143D01*
X6216714Y-16327143D02*
X6235762Y-16327143D01*
X6302428Y-16460476D02*
X6302428Y-16327143D01*
X6302428Y-16260476D02*
X6292905Y-16270000D01*
X6292905Y-16270000D02*
X6302428Y-16279524D01*
X6302428Y-16279524D02*
X6311952Y-16270000D01*
X6311952Y-16270000D02*
X6302428Y-16260476D01*
X6302428Y-16260476D02*
X6302428Y-16279524D01*
X6426238Y-16460476D02*
X6407190Y-16450952D01*
X6407190Y-16450952D02*
X6397667Y-16431905D01*
X6397667Y-16431905D02*
X6397667Y-16260476D01*
X6531000Y-16460476D02*
X6511952Y-16450952D01*
X6511952Y-16450952D02*
X6502428Y-16431905D01*
X6502428Y-16431905D02*
X6502428Y-16260476D01*
X6727190Y-16460476D02*
X6727190Y-16260476D01*
X6727190Y-16260476D02*
X6793857Y-16403333D01*
X6793857Y-16403333D02*
X6860524Y-16260476D01*
X6860524Y-16260476D02*
X6860524Y-16460476D01*
X7041476Y-16460476D02*
X7041476Y-16355714D01*
X7041476Y-16355714D02*
X7031952Y-16336667D01*
X7031952Y-16336667D02*
X7012905Y-16327143D01*
X7012905Y-16327143D02*
X6974809Y-16327143D01*
X6974809Y-16327143D02*
X6955762Y-16336667D01*
X7041476Y-16450952D02*
X7022428Y-16460476D01*
X7022428Y-16460476D02*
X6974809Y-16460476D01*
X6974809Y-16460476D02*
X6955762Y-16450952D01*
X6955762Y-16450952D02*
X6946238Y-16431905D01*
X6946238Y-16431905D02*
X6946238Y-16412857D01*
X6946238Y-16412857D02*
X6955762Y-16393809D01*
X6955762Y-16393809D02*
X6974809Y-16384286D01*
X6974809Y-16384286D02*
X7022428Y-16384286D01*
X7022428Y-16384286D02*
X7041476Y-16374762D01*
X7136714Y-16327143D02*
X7136714Y-16527143D01*
X7136714Y-16336667D02*
X7155762Y-16327143D01*
X7155762Y-16327143D02*
X7193857Y-16327143D01*
X7193857Y-16327143D02*
X7212905Y-16336667D01*
X7212905Y-16336667D02*
X7222428Y-16346190D01*
X7222428Y-16346190D02*
X7231952Y-16365238D01*
X7231952Y-16365238D02*
X7231952Y-16422381D01*
X7231952Y-16422381D02*
X7222428Y-16441428D01*
X7222428Y-16441428D02*
X7212905Y-16450952D01*
X7212905Y-16450952D02*
X7193857Y-16460476D01*
X7193857Y-16460476D02*
X7155762Y-16460476D01*
X7155762Y-16460476D02*
X7136714Y-16450952D01*
X7317667Y-16441428D02*
X7327190Y-16450952D01*
X7327190Y-16450952D02*
X7317667Y-16460476D01*
X7317667Y-16460476D02*
X7308143Y-16450952D01*
X7308143Y-16450952D02*
X7317667Y-16441428D01*
X7317667Y-16441428D02*
X7317667Y-16460476D01*
X7317667Y-16336667D02*
X7327190Y-16346190D01*
X7327190Y-16346190D02*
X7317667Y-16355714D01*
X7317667Y-16355714D02*
X7308143Y-16346190D01*
X7308143Y-16346190D02*
X7317667Y-16336667D01*
X7317667Y-16336667D02*
X7317667Y-16355714D01*
D12*
X5666000Y-16774500D02*
X5731000Y-16839500D01*
X5731000Y-16774500D02*
X5666000Y-16839500D01*
D11*
X6016714Y-16680476D02*
X6035762Y-16680476D01*
X6035762Y-16680476D02*
X6054809Y-16690000D01*
X6054809Y-16690000D02*
X6064333Y-16699524D01*
X6064333Y-16699524D02*
X6073857Y-16718571D01*
X6073857Y-16718571D02*
X6083381Y-16756667D01*
X6083381Y-16756667D02*
X6083381Y-16804286D01*
X6083381Y-16804286D02*
X6073857Y-16842381D01*
X6073857Y-16842381D02*
X6064333Y-16861429D01*
X6064333Y-16861429D02*
X6054809Y-16870952D01*
X6054809Y-16870952D02*
X6035762Y-16880476D01*
X6035762Y-16880476D02*
X6016714Y-16880476D01*
X6016714Y-16880476D02*
X5997667Y-16870952D01*
X5997667Y-16870952D02*
X5988143Y-16861429D01*
X5988143Y-16861429D02*
X5978619Y-16842381D01*
X5978619Y-16842381D02*
X5969095Y-16804286D01*
X5969095Y-16804286D02*
X5969095Y-16756667D01*
X5969095Y-16756667D02*
X5978619Y-16718571D01*
X5978619Y-16718571D02*
X5988143Y-16699524D01*
X5988143Y-16699524D02*
X5997667Y-16690000D01*
X5997667Y-16690000D02*
X6016714Y-16680476D01*
X6169095Y-16861429D02*
X6178619Y-16870952D01*
X6178619Y-16870952D02*
X6169095Y-16880476D01*
X6169095Y-16880476D02*
X6159571Y-16870952D01*
X6159571Y-16870952D02*
X6169095Y-16861429D01*
X6169095Y-16861429D02*
X6169095Y-16880476D01*
X6350048Y-16680476D02*
X6311952Y-16680476D01*
X6311952Y-16680476D02*
X6292905Y-16690000D01*
X6292905Y-16690000D02*
X6283381Y-16699524D01*
X6283381Y-16699524D02*
X6264333Y-16728095D01*
X6264333Y-16728095D02*
X6254809Y-16766190D01*
X6254809Y-16766190D02*
X6254809Y-16842381D01*
X6254809Y-16842381D02*
X6264333Y-16861429D01*
X6264333Y-16861429D02*
X6273857Y-16870952D01*
X6273857Y-16870952D02*
X6292905Y-16880476D01*
X6292905Y-16880476D02*
X6331000Y-16880476D01*
X6331000Y-16880476D02*
X6350048Y-16870952D01*
X6350048Y-16870952D02*
X6359571Y-16861429D01*
X6359571Y-16861429D02*
X6369095Y-16842381D01*
X6369095Y-16842381D02*
X6369095Y-16794762D01*
X6369095Y-16794762D02*
X6359571Y-16775714D01*
X6359571Y-16775714D02*
X6350048Y-16766190D01*
X6350048Y-16766190D02*
X6331000Y-16756667D01*
X6331000Y-16756667D02*
X6292905Y-16756667D01*
X6292905Y-16756667D02*
X6273857Y-16766190D01*
X6273857Y-16766190D02*
X6264333Y-16775714D01*
X6264333Y-16775714D02*
X6254809Y-16794762D01*
X6550048Y-16680476D02*
X6454809Y-16680476D01*
X6454809Y-16680476D02*
X6445286Y-16775714D01*
X6445286Y-16775714D02*
X6454809Y-16766190D01*
X6454809Y-16766190D02*
X6473857Y-16756667D01*
X6473857Y-16756667D02*
X6521476Y-16756667D01*
X6521476Y-16756667D02*
X6540524Y-16766190D01*
X6540524Y-16766190D02*
X6550048Y-16775714D01*
X6550048Y-16775714D02*
X6559571Y-16794762D01*
X6559571Y-16794762D02*
X6559571Y-16842381D01*
X6559571Y-16842381D02*
X6550048Y-16861429D01*
X6550048Y-16861429D02*
X6540524Y-16870952D01*
X6540524Y-16870952D02*
X6521476Y-16880476D01*
X6521476Y-16880476D02*
X6473857Y-16880476D01*
X6473857Y-16880476D02*
X6454809Y-16870952D01*
X6454809Y-16870952D02*
X6445286Y-16861429D01*
X6683381Y-16680476D02*
X6702429Y-16680476D01*
X6702429Y-16680476D02*
X6721476Y-16690000D01*
X6721476Y-16690000D02*
X6731000Y-16699524D01*
X6731000Y-16699524D02*
X6740524Y-16718571D01*
X6740524Y-16718571D02*
X6750048Y-16756667D01*
X6750048Y-16756667D02*
X6750048Y-16804286D01*
X6750048Y-16804286D02*
X6740524Y-16842381D01*
X6740524Y-16842381D02*
X6731000Y-16861429D01*
X6731000Y-16861429D02*
X6721476Y-16870952D01*
X6721476Y-16870952D02*
X6702429Y-16880476D01*
X6702429Y-16880476D02*
X6683381Y-16880476D01*
X6683381Y-16880476D02*
X6664333Y-16870952D01*
X6664333Y-16870952D02*
X6654809Y-16861429D01*
X6654809Y-16861429D02*
X6645286Y-16842381D01*
X6645286Y-16842381D02*
X6635762Y-16804286D01*
X6635762Y-16804286D02*
X6635762Y-16756667D01*
X6635762Y-16756667D02*
X6645286Y-16718571D01*
X6645286Y-16718571D02*
X6654809Y-16699524D01*
X6654809Y-16699524D02*
X6664333Y-16690000D01*
X6664333Y-16690000D02*
X6683381Y-16680476D01*
X6835762Y-16880476D02*
X6835762Y-16747143D01*
X6835762Y-16766190D02*
X6845286Y-16756667D01*
X6845286Y-16756667D02*
X6864333Y-16747143D01*
X6864333Y-16747143D02*
X6892905Y-16747143D01*
X6892905Y-16747143D02*
X6911952Y-16756667D01*
X6911952Y-16756667D02*
X6921476Y-16775714D01*
X6921476Y-16775714D02*
X6921476Y-16880476D01*
X6921476Y-16775714D02*
X6931000Y-16756667D01*
X6931000Y-16756667D02*
X6950048Y-16747143D01*
X6950048Y-16747143D02*
X6978619Y-16747143D01*
X6978619Y-16747143D02*
X6997667Y-16756667D01*
X6997667Y-16756667D02*
X7007190Y-16775714D01*
X7007190Y-16775714D02*
X7007190Y-16880476D01*
X7102429Y-16880476D02*
X7102429Y-16747143D01*
X7102429Y-16766190D02*
X7111952Y-16756667D01*
X7111952Y-16756667D02*
X7131000Y-16747143D01*
X7131000Y-16747143D02*
X7159571Y-16747143D01*
X7159571Y-16747143D02*
X7178619Y-16756667D01*
X7178619Y-16756667D02*
X7188143Y-16775714D01*
X7188143Y-16775714D02*
X7188143Y-16880476D01*
X7188143Y-16775714D02*
X7197667Y-16756667D01*
X7197667Y-16756667D02*
X7216714Y-16747143D01*
X7216714Y-16747143D02*
X7245286Y-16747143D01*
X7245286Y-16747143D02*
X7264333Y-16756667D01*
X7264333Y-16756667D02*
X7273857Y-16775714D01*
X7273857Y-16775714D02*
X7273857Y-16880476D01*
X7631952Y-16670952D02*
X7460524Y-16928095D01*
X7856714Y-16680476D02*
X7875762Y-16680476D01*
X7875762Y-16680476D02*
X7894810Y-16690000D01*
X7894810Y-16690000D02*
X7904333Y-16699524D01*
X7904333Y-16699524D02*
X7913857Y-16718571D01*
X7913857Y-16718571D02*
X7923381Y-16756667D01*
X7923381Y-16756667D02*
X7923381Y-16804286D01*
X7923381Y-16804286D02*
X7913857Y-16842381D01*
X7913857Y-16842381D02*
X7904333Y-16861429D01*
X7904333Y-16861429D02*
X7894810Y-16870952D01*
X7894810Y-16870952D02*
X7875762Y-16880476D01*
X7875762Y-16880476D02*
X7856714Y-16880476D01*
X7856714Y-16880476D02*
X7837667Y-16870952D01*
X7837667Y-16870952D02*
X7828143Y-16861429D01*
X7828143Y-16861429D02*
X7818619Y-16842381D01*
X7818619Y-16842381D02*
X7809095Y-16804286D01*
X7809095Y-16804286D02*
X7809095Y-16756667D01*
X7809095Y-16756667D02*
X7818619Y-16718571D01*
X7818619Y-16718571D02*
X7828143Y-16699524D01*
X7828143Y-16699524D02*
X7837667Y-16690000D01*
X7837667Y-16690000D02*
X7856714Y-16680476D01*
X8009095Y-16861429D02*
X8018619Y-16870952D01*
X8018619Y-16870952D02*
X8009095Y-16880476D01*
X8009095Y-16880476D02*
X7999571Y-16870952D01*
X7999571Y-16870952D02*
X8009095Y-16861429D01*
X8009095Y-16861429D02*
X8009095Y-16880476D01*
X8142429Y-16680476D02*
X8161476Y-16680476D01*
X8161476Y-16680476D02*
X8180524Y-16690000D01*
X8180524Y-16690000D02*
X8190048Y-16699524D01*
X8190048Y-16699524D02*
X8199571Y-16718571D01*
X8199571Y-16718571D02*
X8209095Y-16756667D01*
X8209095Y-16756667D02*
X8209095Y-16804286D01*
X8209095Y-16804286D02*
X8199571Y-16842381D01*
X8199571Y-16842381D02*
X8190048Y-16861429D01*
X8190048Y-16861429D02*
X8180524Y-16870952D01*
X8180524Y-16870952D02*
X8161476Y-16880476D01*
X8161476Y-16880476D02*
X8142429Y-16880476D01*
X8142429Y-16880476D02*
X8123381Y-16870952D01*
X8123381Y-16870952D02*
X8113857Y-16861429D01*
X8113857Y-16861429D02*
X8104333Y-16842381D01*
X8104333Y-16842381D02*
X8094810Y-16804286D01*
X8094810Y-16804286D02*
X8094810Y-16756667D01*
X8094810Y-16756667D02*
X8104333Y-16718571D01*
X8104333Y-16718571D02*
X8113857Y-16699524D01*
X8113857Y-16699524D02*
X8123381Y-16690000D01*
X8123381Y-16690000D02*
X8142429Y-16680476D01*
X8285286Y-16699524D02*
X8294810Y-16690000D01*
X8294810Y-16690000D02*
X8313857Y-16680476D01*
X8313857Y-16680476D02*
X8361476Y-16680476D01*
X8361476Y-16680476D02*
X8380524Y-16690000D01*
X8380524Y-16690000D02*
X8390048Y-16699524D01*
X8390048Y-16699524D02*
X8399572Y-16718571D01*
X8399572Y-16718571D02*
X8399572Y-16737619D01*
X8399572Y-16737619D02*
X8390048Y-16766190D01*
X8390048Y-16766190D02*
X8275762Y-16880476D01*
X8275762Y-16880476D02*
X8399572Y-16880476D01*
X8580524Y-16680476D02*
X8485286Y-16680476D01*
X8485286Y-16680476D02*
X8475762Y-16775714D01*
X8475762Y-16775714D02*
X8485286Y-16766190D01*
X8485286Y-16766190D02*
X8504333Y-16756667D01*
X8504333Y-16756667D02*
X8551953Y-16756667D01*
X8551953Y-16756667D02*
X8571000Y-16766190D01*
X8571000Y-16766190D02*
X8580524Y-16775714D01*
X8580524Y-16775714D02*
X8590048Y-16794762D01*
X8590048Y-16794762D02*
X8590048Y-16842381D01*
X8590048Y-16842381D02*
X8580524Y-16861429D01*
X8580524Y-16861429D02*
X8571000Y-16870952D01*
X8571000Y-16870952D02*
X8551953Y-16880476D01*
X8551953Y-16880476D02*
X8504333Y-16880476D01*
X8504333Y-16880476D02*
X8485286Y-16870952D01*
X8485286Y-16870952D02*
X8475762Y-16861429D01*
X8761476Y-16680476D02*
X8723381Y-16680476D01*
X8723381Y-16680476D02*
X8704333Y-16690000D01*
X8704333Y-16690000D02*
X8694810Y-16699524D01*
X8694810Y-16699524D02*
X8675762Y-16728095D01*
X8675762Y-16728095D02*
X8666238Y-16766190D01*
X8666238Y-16766190D02*
X8666238Y-16842381D01*
X8666238Y-16842381D02*
X8675762Y-16861429D01*
X8675762Y-16861429D02*
X8685286Y-16870952D01*
X8685286Y-16870952D02*
X8704333Y-16880476D01*
X8704333Y-16880476D02*
X8742429Y-16880476D01*
X8742429Y-16880476D02*
X8761476Y-16870952D01*
X8761476Y-16870952D02*
X8771000Y-16861429D01*
X8771000Y-16861429D02*
X8780524Y-16842381D01*
X8780524Y-16842381D02*
X8780524Y-16794762D01*
X8780524Y-16794762D02*
X8771000Y-16775714D01*
X8771000Y-16775714D02*
X8761476Y-16766190D01*
X8761476Y-16766190D02*
X8742429Y-16756667D01*
X8742429Y-16756667D02*
X8704333Y-16756667D01*
X8704333Y-16756667D02*
X8685286Y-16766190D01*
X8685286Y-16766190D02*
X8675762Y-16775714D01*
X8675762Y-16775714D02*
X8666238Y-16794762D01*
X8856714Y-16680476D02*
X8856714Y-16718571D01*
X8932905Y-16680476D02*
X8932905Y-16718571D01*
X9195762Y-16956667D02*
X9186238Y-16947143D01*
X9186238Y-16947143D02*
X9167191Y-16918571D01*
X9167191Y-16918571D02*
X9157667Y-16899524D01*
X9157667Y-16899524D02*
X9148143Y-16870952D01*
X9148143Y-16870952D02*
X9138619Y-16823333D01*
X9138619Y-16823333D02*
X9138619Y-16785238D01*
X9138619Y-16785238D02*
X9148143Y-16737619D01*
X9148143Y-16737619D02*
X9157667Y-16709048D01*
X9157667Y-16709048D02*
X9167191Y-16690000D01*
X9167191Y-16690000D02*
X9186238Y-16661428D01*
X9186238Y-16661428D02*
X9195762Y-16651905D01*
X9262429Y-16699524D02*
X9271953Y-16690000D01*
X9271953Y-16690000D02*
X9291000Y-16680476D01*
X9291000Y-16680476D02*
X9338619Y-16680476D01*
X9338619Y-16680476D02*
X9357667Y-16690000D01*
X9357667Y-16690000D02*
X9367191Y-16699524D01*
X9367191Y-16699524D02*
X9376714Y-16718571D01*
X9376714Y-16718571D02*
X9376714Y-16737619D01*
X9376714Y-16737619D02*
X9367191Y-16766190D01*
X9367191Y-16766190D02*
X9252905Y-16880476D01*
X9252905Y-16880476D02*
X9376714Y-16880476D01*
X9582429Y-16880476D02*
X9582429Y-16680476D01*
X9668143Y-16880476D02*
X9668143Y-16775714D01*
X9668143Y-16775714D02*
X9658619Y-16756667D01*
X9658619Y-16756667D02*
X9639572Y-16747143D01*
X9639572Y-16747143D02*
X9611000Y-16747143D01*
X9611000Y-16747143D02*
X9591953Y-16756667D01*
X9591953Y-16756667D02*
X9582429Y-16766190D01*
X9791953Y-16880476D02*
X9772905Y-16870952D01*
X9772905Y-16870952D02*
X9763381Y-16861429D01*
X9763381Y-16861429D02*
X9753857Y-16842381D01*
X9753857Y-16842381D02*
X9753857Y-16785238D01*
X9753857Y-16785238D02*
X9763381Y-16766190D01*
X9763381Y-16766190D02*
X9772905Y-16756667D01*
X9772905Y-16756667D02*
X9791953Y-16747143D01*
X9791953Y-16747143D02*
X9820524Y-16747143D01*
X9820524Y-16747143D02*
X9839572Y-16756667D01*
X9839572Y-16756667D02*
X9849095Y-16766190D01*
X9849095Y-16766190D02*
X9858619Y-16785238D01*
X9858619Y-16785238D02*
X9858619Y-16842381D01*
X9858619Y-16842381D02*
X9849095Y-16861429D01*
X9849095Y-16861429D02*
X9839572Y-16870952D01*
X9839572Y-16870952D02*
X9820524Y-16880476D01*
X9820524Y-16880476D02*
X9791953Y-16880476D01*
X9972905Y-16880476D02*
X9953857Y-16870952D01*
X9953857Y-16870952D02*
X9944334Y-16851905D01*
X9944334Y-16851905D02*
X9944334Y-16680476D01*
X10125286Y-16870952D02*
X10106238Y-16880476D01*
X10106238Y-16880476D02*
X10068143Y-16880476D01*
X10068143Y-16880476D02*
X10049095Y-16870952D01*
X10049095Y-16870952D02*
X10039572Y-16851905D01*
X10039572Y-16851905D02*
X10039572Y-16775714D01*
X10039572Y-16775714D02*
X10049095Y-16756667D01*
X10049095Y-16756667D02*
X10068143Y-16747143D01*
X10068143Y-16747143D02*
X10106238Y-16747143D01*
X10106238Y-16747143D02*
X10125286Y-16756667D01*
X10125286Y-16756667D02*
X10134810Y-16775714D01*
X10134810Y-16775714D02*
X10134810Y-16794762D01*
X10134810Y-16794762D02*
X10039572Y-16813810D01*
X10211000Y-16870952D02*
X10230048Y-16880476D01*
X10230048Y-16880476D02*
X10268143Y-16880476D01*
X10268143Y-16880476D02*
X10287191Y-16870952D01*
X10287191Y-16870952D02*
X10296715Y-16851905D01*
X10296715Y-16851905D02*
X10296715Y-16842381D01*
X10296715Y-16842381D02*
X10287191Y-16823333D01*
X10287191Y-16823333D02*
X10268143Y-16813810D01*
X10268143Y-16813810D02*
X10239572Y-16813810D01*
X10239572Y-16813810D02*
X10220524Y-16804286D01*
X10220524Y-16804286D02*
X10211000Y-16785238D01*
X10211000Y-16785238D02*
X10211000Y-16775714D01*
X10211000Y-16775714D02*
X10220524Y-16756667D01*
X10220524Y-16756667D02*
X10239572Y-16747143D01*
X10239572Y-16747143D02*
X10268143Y-16747143D01*
X10268143Y-16747143D02*
X10287191Y-16756667D01*
X10363381Y-16956667D02*
X10372905Y-16947143D01*
X10372905Y-16947143D02*
X10391953Y-16918571D01*
X10391953Y-16918571D02*
X10401476Y-16899524D01*
X10401476Y-16899524D02*
X10411000Y-16870952D01*
X10411000Y-16870952D02*
X10420524Y-16823333D01*
X10420524Y-16823333D02*
X10420524Y-16785238D01*
X10420524Y-16785238D02*
X10411000Y-16737619D01*
X10411000Y-16737619D02*
X10401476Y-16709048D01*
X10401476Y-16709048D02*
X10391953Y-16690000D01*
X10391953Y-16690000D02*
X10372905Y-16661428D01*
X10372905Y-16661428D02*
X10363381Y-16651905D01*
X10692905Y-16956667D02*
X10683381Y-16947143D01*
X10683381Y-16947143D02*
X10664334Y-16918571D01*
X10664334Y-16918571D02*
X10654810Y-16899524D01*
X10654810Y-16899524D02*
X10645286Y-16870952D01*
X10645286Y-16870952D02*
X10635762Y-16823333D01*
X10635762Y-16823333D02*
X10635762Y-16785238D01*
X10635762Y-16785238D02*
X10645286Y-16737619D01*
X10645286Y-16737619D02*
X10654810Y-16709048D01*
X10654810Y-16709048D02*
X10664334Y-16690000D01*
X10664334Y-16690000D02*
X10683381Y-16661428D01*
X10683381Y-16661428D02*
X10692905Y-16651905D01*
X10769095Y-16747143D02*
X10769095Y-16880476D01*
X10769095Y-16766190D02*
X10778619Y-16756667D01*
X10778619Y-16756667D02*
X10797667Y-16747143D01*
X10797667Y-16747143D02*
X10826238Y-16747143D01*
X10826238Y-16747143D02*
X10845286Y-16756667D01*
X10845286Y-16756667D02*
X10854810Y-16775714D01*
X10854810Y-16775714D02*
X10854810Y-16880476D01*
X10978619Y-16880476D02*
X10959572Y-16870952D01*
X10959572Y-16870952D02*
X10950048Y-16861429D01*
X10950048Y-16861429D02*
X10940524Y-16842381D01*
X10940524Y-16842381D02*
X10940524Y-16785238D01*
X10940524Y-16785238D02*
X10950048Y-16766190D01*
X10950048Y-16766190D02*
X10959572Y-16756667D01*
X10959572Y-16756667D02*
X10978619Y-16747143D01*
X10978619Y-16747143D02*
X11007191Y-16747143D01*
X11007191Y-16747143D02*
X11026238Y-16756667D01*
X11026238Y-16756667D02*
X11035762Y-16766190D01*
X11035762Y-16766190D02*
X11045286Y-16785238D01*
X11045286Y-16785238D02*
X11045286Y-16842381D01*
X11045286Y-16842381D02*
X11035762Y-16861429D01*
X11035762Y-16861429D02*
X11026238Y-16870952D01*
X11026238Y-16870952D02*
X11007191Y-16880476D01*
X11007191Y-16880476D02*
X10978619Y-16880476D01*
X11102429Y-16747143D02*
X11178619Y-16747143D01*
X11131000Y-16680476D02*
X11131000Y-16851905D01*
X11131000Y-16851905D02*
X11140524Y-16870952D01*
X11140524Y-16870952D02*
X11159572Y-16880476D01*
X11159572Y-16880476D02*
X11178619Y-16880476D01*
X11365286Y-16747143D02*
X11365286Y-16947143D01*
X11365286Y-16756667D02*
X11384333Y-16747143D01*
X11384333Y-16747143D02*
X11422429Y-16747143D01*
X11422429Y-16747143D02*
X11441476Y-16756667D01*
X11441476Y-16756667D02*
X11451000Y-16766190D01*
X11451000Y-16766190D02*
X11460524Y-16785238D01*
X11460524Y-16785238D02*
X11460524Y-16842381D01*
X11460524Y-16842381D02*
X11451000Y-16861429D01*
X11451000Y-16861429D02*
X11441476Y-16870952D01*
X11441476Y-16870952D02*
X11422429Y-16880476D01*
X11422429Y-16880476D02*
X11384333Y-16880476D01*
X11384333Y-16880476D02*
X11365286Y-16870952D01*
X11574810Y-16880476D02*
X11555762Y-16870952D01*
X11555762Y-16870952D02*
X11546238Y-16851905D01*
X11546238Y-16851905D02*
X11546238Y-16680476D01*
X11736714Y-16880476D02*
X11736714Y-16775714D01*
X11736714Y-16775714D02*
X11727191Y-16756667D01*
X11727191Y-16756667D02*
X11708143Y-16747143D01*
X11708143Y-16747143D02*
X11670048Y-16747143D01*
X11670048Y-16747143D02*
X11651000Y-16756667D01*
X11736714Y-16870952D02*
X11717667Y-16880476D01*
X11717667Y-16880476D02*
X11670048Y-16880476D01*
X11670048Y-16880476D02*
X11651000Y-16870952D01*
X11651000Y-16870952D02*
X11641476Y-16851905D01*
X11641476Y-16851905D02*
X11641476Y-16832857D01*
X11641476Y-16832857D02*
X11651000Y-16813810D01*
X11651000Y-16813810D02*
X11670048Y-16804286D01*
X11670048Y-16804286D02*
X11717667Y-16804286D01*
X11717667Y-16804286D02*
X11736714Y-16794762D01*
X11803381Y-16747143D02*
X11879572Y-16747143D01*
X11831953Y-16680476D02*
X11831953Y-16851905D01*
X11831953Y-16851905D02*
X11841476Y-16870952D01*
X11841476Y-16870952D02*
X11860524Y-16880476D01*
X11860524Y-16880476D02*
X11879572Y-16880476D01*
X12022429Y-16870952D02*
X12003381Y-16880476D01*
X12003381Y-16880476D02*
X11965286Y-16880476D01*
X11965286Y-16880476D02*
X11946238Y-16870952D01*
X11946238Y-16870952D02*
X11936714Y-16851905D01*
X11936714Y-16851905D02*
X11936714Y-16775714D01*
X11936714Y-16775714D02*
X11946238Y-16756667D01*
X11946238Y-16756667D02*
X11965286Y-16747143D01*
X11965286Y-16747143D02*
X12003381Y-16747143D01*
X12003381Y-16747143D02*
X12022429Y-16756667D01*
X12022429Y-16756667D02*
X12031953Y-16775714D01*
X12031953Y-16775714D02*
X12031953Y-16794762D01*
X12031953Y-16794762D02*
X11936714Y-16813810D01*
X12203381Y-16880476D02*
X12203381Y-16680476D01*
X12203381Y-16870952D02*
X12184334Y-16880476D01*
X12184334Y-16880476D02*
X12146238Y-16880476D01*
X12146238Y-16880476D02*
X12127191Y-16870952D01*
X12127191Y-16870952D02*
X12117667Y-16861429D01*
X12117667Y-16861429D02*
X12108143Y-16842381D01*
X12108143Y-16842381D02*
X12108143Y-16785238D01*
X12108143Y-16785238D02*
X12117667Y-16766190D01*
X12117667Y-16766190D02*
X12127191Y-16756667D01*
X12127191Y-16756667D02*
X12146238Y-16747143D01*
X12146238Y-16747143D02*
X12184334Y-16747143D01*
X12184334Y-16747143D02*
X12203381Y-16756667D01*
X12279572Y-16956667D02*
X12289095Y-16947143D01*
X12289095Y-16947143D02*
X12308143Y-16918571D01*
X12308143Y-16918571D02*
X12317667Y-16899524D01*
X12317667Y-16899524D02*
X12327191Y-16870952D01*
X12327191Y-16870952D02*
X12336714Y-16823333D01*
X12336714Y-16823333D02*
X12336714Y-16785238D01*
X12336714Y-16785238D02*
X12327191Y-16737619D01*
X12327191Y-16737619D02*
X12317667Y-16709048D01*
X12317667Y-16709048D02*
X12308143Y-16690000D01*
X12308143Y-16690000D02*
X12289095Y-16661428D01*
X12289095Y-16661428D02*
X12279572Y-16651905D01*
D13*
X5731000Y-17071000D02*
G75*
G03*
X5731000Y-17071000I-49530J0D01*
G01*
D11*
X6016714Y-16944476D02*
X6035762Y-16944476D01*
X6035762Y-16944476D02*
X6054809Y-16954000D01*
X6054809Y-16954000D02*
X6064333Y-16963524D01*
X6064333Y-16963524D02*
X6073857Y-16982571D01*
X6073857Y-16982571D02*
X6083381Y-17020667D01*
X6083381Y-17020667D02*
X6083381Y-17068286D01*
X6083381Y-17068286D02*
X6073857Y-17106381D01*
X6073857Y-17106381D02*
X6064333Y-17125429D01*
X6064333Y-17125429D02*
X6054809Y-17134952D01*
X6054809Y-17134952D02*
X6035762Y-17144476D01*
X6035762Y-17144476D02*
X6016714Y-17144476D01*
X6016714Y-17144476D02*
X5997667Y-17134952D01*
X5997667Y-17134952D02*
X5988143Y-17125429D01*
X5988143Y-17125429D02*
X5978619Y-17106381D01*
X5978619Y-17106381D02*
X5969095Y-17068286D01*
X5969095Y-17068286D02*
X5969095Y-17020667D01*
X5969095Y-17020667D02*
X5978619Y-16982571D01*
X5978619Y-16982571D02*
X5988143Y-16963524D01*
X5988143Y-16963524D02*
X5997667Y-16954000D01*
X5997667Y-16954000D02*
X6016714Y-16944476D01*
X6169095Y-17125429D02*
X6178619Y-17134952D01*
X6178619Y-17134952D02*
X6169095Y-17144476D01*
X6169095Y-17144476D02*
X6159571Y-17134952D01*
X6159571Y-17134952D02*
X6169095Y-17125429D01*
X6169095Y-17125429D02*
X6169095Y-17144476D01*
X6273857Y-17144476D02*
X6311952Y-17144476D01*
X6311952Y-17144476D02*
X6331000Y-17134952D01*
X6331000Y-17134952D02*
X6340524Y-17125429D01*
X6340524Y-17125429D02*
X6359571Y-17096857D01*
X6359571Y-17096857D02*
X6369095Y-17058762D01*
X6369095Y-17058762D02*
X6369095Y-16982571D01*
X6369095Y-16982571D02*
X6359571Y-16963524D01*
X6359571Y-16963524D02*
X6350048Y-16954000D01*
X6350048Y-16954000D02*
X6331000Y-16944476D01*
X6331000Y-16944476D02*
X6292905Y-16944476D01*
X6292905Y-16944476D02*
X6273857Y-16954000D01*
X6273857Y-16954000D02*
X6264333Y-16963524D01*
X6264333Y-16963524D02*
X6254809Y-16982571D01*
X6254809Y-16982571D02*
X6254809Y-17030190D01*
X6254809Y-17030190D02*
X6264333Y-17049238D01*
X6264333Y-17049238D02*
X6273857Y-17058762D01*
X6273857Y-17058762D02*
X6292905Y-17068286D01*
X6292905Y-17068286D02*
X6331000Y-17068286D01*
X6331000Y-17068286D02*
X6350048Y-17058762D01*
X6350048Y-17058762D02*
X6359571Y-17049238D01*
X6359571Y-17049238D02*
X6369095Y-17030190D01*
X6464333Y-17144476D02*
X6502428Y-17144476D01*
X6502428Y-17144476D02*
X6521476Y-17134952D01*
X6521476Y-17134952D02*
X6531000Y-17125429D01*
X6531000Y-17125429D02*
X6550048Y-17096857D01*
X6550048Y-17096857D02*
X6559571Y-17058762D01*
X6559571Y-17058762D02*
X6559571Y-16982571D01*
X6559571Y-16982571D02*
X6550048Y-16963524D01*
X6550048Y-16963524D02*
X6540524Y-16954000D01*
X6540524Y-16954000D02*
X6521476Y-16944476D01*
X6521476Y-16944476D02*
X6483381Y-16944476D01*
X6483381Y-16944476D02*
X6464333Y-16954000D01*
X6464333Y-16954000D02*
X6454809Y-16963524D01*
X6454809Y-16963524D02*
X6445286Y-16982571D01*
X6445286Y-16982571D02*
X6445286Y-17030190D01*
X6445286Y-17030190D02*
X6454809Y-17049238D01*
X6454809Y-17049238D02*
X6464333Y-17058762D01*
X6464333Y-17058762D02*
X6483381Y-17068286D01*
X6483381Y-17068286D02*
X6521476Y-17068286D01*
X6521476Y-17068286D02*
X6540524Y-17058762D01*
X6540524Y-17058762D02*
X6550048Y-17049238D01*
X6550048Y-17049238D02*
X6559571Y-17030190D01*
X6750048Y-17144476D02*
X6635762Y-17144476D01*
X6692905Y-17144476D02*
X6692905Y-16944476D01*
X6692905Y-16944476D02*
X6673857Y-16973048D01*
X6673857Y-16973048D02*
X6654809Y-16992095D01*
X6654809Y-16992095D02*
X6635762Y-17001619D01*
X6835762Y-17144476D02*
X6835762Y-17011143D01*
X6835762Y-17030190D02*
X6845286Y-17020667D01*
X6845286Y-17020667D02*
X6864333Y-17011143D01*
X6864333Y-17011143D02*
X6892905Y-17011143D01*
X6892905Y-17011143D02*
X6911952Y-17020667D01*
X6911952Y-17020667D02*
X6921476Y-17039714D01*
X6921476Y-17039714D02*
X6921476Y-17144476D01*
X6921476Y-17039714D02*
X6931000Y-17020667D01*
X6931000Y-17020667D02*
X6950048Y-17011143D01*
X6950048Y-17011143D02*
X6978619Y-17011143D01*
X6978619Y-17011143D02*
X6997667Y-17020667D01*
X6997667Y-17020667D02*
X7007190Y-17039714D01*
X7007190Y-17039714D02*
X7007190Y-17144476D01*
X7102429Y-17144476D02*
X7102429Y-17011143D01*
X7102429Y-17030190D02*
X7111952Y-17020667D01*
X7111952Y-17020667D02*
X7131000Y-17011143D01*
X7131000Y-17011143D02*
X7159571Y-17011143D01*
X7159571Y-17011143D02*
X7178619Y-17020667D01*
X7178619Y-17020667D02*
X7188143Y-17039714D01*
X7188143Y-17039714D02*
X7188143Y-17144476D01*
X7188143Y-17039714D02*
X7197667Y-17020667D01*
X7197667Y-17020667D02*
X7216714Y-17011143D01*
X7216714Y-17011143D02*
X7245286Y-17011143D01*
X7245286Y-17011143D02*
X7264333Y-17020667D01*
X7264333Y-17020667D02*
X7273857Y-17039714D01*
X7273857Y-17039714D02*
X7273857Y-17144476D01*
X7631952Y-16934952D02*
X7460524Y-17192095D01*
X7856714Y-16944476D02*
X7875762Y-16944476D01*
X7875762Y-16944476D02*
X7894810Y-16954000D01*
X7894810Y-16954000D02*
X7904333Y-16963524D01*
X7904333Y-16963524D02*
X7913857Y-16982571D01*
X7913857Y-16982571D02*
X7923381Y-17020667D01*
X7923381Y-17020667D02*
X7923381Y-17068286D01*
X7923381Y-17068286D02*
X7913857Y-17106381D01*
X7913857Y-17106381D02*
X7904333Y-17125429D01*
X7904333Y-17125429D02*
X7894810Y-17134952D01*
X7894810Y-17134952D02*
X7875762Y-17144476D01*
X7875762Y-17144476D02*
X7856714Y-17144476D01*
X7856714Y-17144476D02*
X7837667Y-17134952D01*
X7837667Y-17134952D02*
X7828143Y-17125429D01*
X7828143Y-17125429D02*
X7818619Y-17106381D01*
X7818619Y-17106381D02*
X7809095Y-17068286D01*
X7809095Y-17068286D02*
X7809095Y-17020667D01*
X7809095Y-17020667D02*
X7818619Y-16982571D01*
X7818619Y-16982571D02*
X7828143Y-16963524D01*
X7828143Y-16963524D02*
X7837667Y-16954000D01*
X7837667Y-16954000D02*
X7856714Y-16944476D01*
X8009095Y-17125429D02*
X8018619Y-17134952D01*
X8018619Y-17134952D02*
X8009095Y-17144476D01*
X8009095Y-17144476D02*
X7999571Y-17134952D01*
X7999571Y-17134952D02*
X8009095Y-17125429D01*
X8009095Y-17125429D02*
X8009095Y-17144476D01*
X8142429Y-16944476D02*
X8161476Y-16944476D01*
X8161476Y-16944476D02*
X8180524Y-16954000D01*
X8180524Y-16954000D02*
X8190048Y-16963524D01*
X8190048Y-16963524D02*
X8199571Y-16982571D01*
X8199571Y-16982571D02*
X8209095Y-17020667D01*
X8209095Y-17020667D02*
X8209095Y-17068286D01*
X8209095Y-17068286D02*
X8199571Y-17106381D01*
X8199571Y-17106381D02*
X8190048Y-17125429D01*
X8190048Y-17125429D02*
X8180524Y-17134952D01*
X8180524Y-17134952D02*
X8161476Y-17144476D01*
X8161476Y-17144476D02*
X8142429Y-17144476D01*
X8142429Y-17144476D02*
X8123381Y-17134952D01*
X8123381Y-17134952D02*
X8113857Y-17125429D01*
X8113857Y-17125429D02*
X8104333Y-17106381D01*
X8104333Y-17106381D02*
X8094810Y-17068286D01*
X8094810Y-17068286D02*
X8094810Y-17020667D01*
X8094810Y-17020667D02*
X8104333Y-16982571D01*
X8104333Y-16982571D02*
X8113857Y-16963524D01*
X8113857Y-16963524D02*
X8123381Y-16954000D01*
X8123381Y-16954000D02*
X8142429Y-16944476D01*
X8275762Y-16944476D02*
X8399572Y-16944476D01*
X8399572Y-16944476D02*
X8332905Y-17020667D01*
X8332905Y-17020667D02*
X8361476Y-17020667D01*
X8361476Y-17020667D02*
X8380524Y-17030190D01*
X8380524Y-17030190D02*
X8390048Y-17039714D01*
X8390048Y-17039714D02*
X8399572Y-17058762D01*
X8399572Y-17058762D02*
X8399572Y-17106381D01*
X8399572Y-17106381D02*
X8390048Y-17125429D01*
X8390048Y-17125429D02*
X8380524Y-17134952D01*
X8380524Y-17134952D02*
X8361476Y-17144476D01*
X8361476Y-17144476D02*
X8304333Y-17144476D01*
X8304333Y-17144476D02*
X8285286Y-17134952D01*
X8285286Y-17134952D02*
X8275762Y-17125429D01*
X8494810Y-17144476D02*
X8532905Y-17144476D01*
X8532905Y-17144476D02*
X8551953Y-17134952D01*
X8551953Y-17134952D02*
X8561476Y-17125429D01*
X8561476Y-17125429D02*
X8580524Y-17096857D01*
X8580524Y-17096857D02*
X8590048Y-17058762D01*
X8590048Y-17058762D02*
X8590048Y-16982571D01*
X8590048Y-16982571D02*
X8580524Y-16963524D01*
X8580524Y-16963524D02*
X8571000Y-16954000D01*
X8571000Y-16954000D02*
X8551953Y-16944476D01*
X8551953Y-16944476D02*
X8513857Y-16944476D01*
X8513857Y-16944476D02*
X8494810Y-16954000D01*
X8494810Y-16954000D02*
X8485286Y-16963524D01*
X8485286Y-16963524D02*
X8475762Y-16982571D01*
X8475762Y-16982571D02*
X8475762Y-17030190D01*
X8475762Y-17030190D02*
X8485286Y-17049238D01*
X8485286Y-17049238D02*
X8494810Y-17058762D01*
X8494810Y-17058762D02*
X8513857Y-17068286D01*
X8513857Y-17068286D02*
X8551953Y-17068286D01*
X8551953Y-17068286D02*
X8571000Y-17058762D01*
X8571000Y-17058762D02*
X8580524Y-17049238D01*
X8580524Y-17049238D02*
X8590048Y-17030190D01*
X8713857Y-16944476D02*
X8732905Y-16944476D01*
X8732905Y-16944476D02*
X8751953Y-16954000D01*
X8751953Y-16954000D02*
X8761476Y-16963524D01*
X8761476Y-16963524D02*
X8771000Y-16982571D01*
X8771000Y-16982571D02*
X8780524Y-17020667D01*
X8780524Y-17020667D02*
X8780524Y-17068286D01*
X8780524Y-17068286D02*
X8771000Y-17106381D01*
X8771000Y-17106381D02*
X8761476Y-17125429D01*
X8761476Y-17125429D02*
X8751953Y-17134952D01*
X8751953Y-17134952D02*
X8732905Y-17144476D01*
X8732905Y-17144476D02*
X8713857Y-17144476D01*
X8713857Y-17144476D02*
X8694810Y-17134952D01*
X8694810Y-17134952D02*
X8685286Y-17125429D01*
X8685286Y-17125429D02*
X8675762Y-17106381D01*
X8675762Y-17106381D02*
X8666238Y-17068286D01*
X8666238Y-17068286D02*
X8666238Y-17020667D01*
X8666238Y-17020667D02*
X8675762Y-16982571D01*
X8675762Y-16982571D02*
X8685286Y-16963524D01*
X8685286Y-16963524D02*
X8694810Y-16954000D01*
X8694810Y-16954000D02*
X8713857Y-16944476D01*
X8856714Y-16944476D02*
X8856714Y-16982571D01*
X8932905Y-16944476D02*
X8932905Y-16982571D01*
X9195762Y-17220667D02*
X9186238Y-17211143D01*
X9186238Y-17211143D02*
X9167191Y-17182571D01*
X9167191Y-17182571D02*
X9157667Y-17163524D01*
X9157667Y-17163524D02*
X9148143Y-17134952D01*
X9148143Y-17134952D02*
X9138619Y-17087333D01*
X9138619Y-17087333D02*
X9138619Y-17049238D01*
X9138619Y-17049238D02*
X9148143Y-17001619D01*
X9148143Y-17001619D02*
X9157667Y-16973048D01*
X9157667Y-16973048D02*
X9167191Y-16954000D01*
X9167191Y-16954000D02*
X9186238Y-16925429D01*
X9186238Y-16925429D02*
X9195762Y-16915905D01*
X9252905Y-16944476D02*
X9376714Y-16944476D01*
X9376714Y-16944476D02*
X9310048Y-17020667D01*
X9310048Y-17020667D02*
X9338619Y-17020667D01*
X9338619Y-17020667D02*
X9357667Y-17030190D01*
X9357667Y-17030190D02*
X9367191Y-17039714D01*
X9367191Y-17039714D02*
X9376714Y-17058762D01*
X9376714Y-17058762D02*
X9376714Y-17106381D01*
X9376714Y-17106381D02*
X9367191Y-17125429D01*
X9367191Y-17125429D02*
X9357667Y-17134952D01*
X9357667Y-17134952D02*
X9338619Y-17144476D01*
X9338619Y-17144476D02*
X9281476Y-17144476D01*
X9281476Y-17144476D02*
X9262429Y-17134952D01*
X9262429Y-17134952D02*
X9252905Y-17125429D01*
X9582429Y-17144476D02*
X9582429Y-16944476D01*
X9668143Y-17144476D02*
X9668143Y-17039714D01*
X9668143Y-17039714D02*
X9658619Y-17020667D01*
X9658619Y-17020667D02*
X9639572Y-17011143D01*
X9639572Y-17011143D02*
X9611000Y-17011143D01*
X9611000Y-17011143D02*
X9591953Y-17020667D01*
X9591953Y-17020667D02*
X9582429Y-17030190D01*
X9791953Y-17144476D02*
X9772905Y-17134952D01*
X9772905Y-17134952D02*
X9763381Y-17125429D01*
X9763381Y-17125429D02*
X9753857Y-17106381D01*
X9753857Y-17106381D02*
X9753857Y-17049238D01*
X9753857Y-17049238D02*
X9763381Y-17030190D01*
X9763381Y-17030190D02*
X9772905Y-17020667D01*
X9772905Y-17020667D02*
X9791953Y-17011143D01*
X9791953Y-17011143D02*
X9820524Y-17011143D01*
X9820524Y-17011143D02*
X9839572Y-17020667D01*
X9839572Y-17020667D02*
X9849095Y-17030190D01*
X9849095Y-17030190D02*
X9858619Y-17049238D01*
X9858619Y-17049238D02*
X9858619Y-17106381D01*
X9858619Y-17106381D02*
X9849095Y-17125429D01*
X9849095Y-17125429D02*
X9839572Y-17134952D01*
X9839572Y-17134952D02*
X9820524Y-17144476D01*
X9820524Y-17144476D02*
X9791953Y-17144476D01*
X9972905Y-17144476D02*
X9953857Y-17134952D01*
X9953857Y-17134952D02*
X9944334Y-17115905D01*
X9944334Y-17115905D02*
X9944334Y-16944476D01*
X10125286Y-17134952D02*
X10106238Y-17144476D01*
X10106238Y-17144476D02*
X10068143Y-17144476D01*
X10068143Y-17144476D02*
X10049095Y-17134952D01*
X10049095Y-17134952D02*
X10039572Y-17115905D01*
X10039572Y-17115905D02*
X10039572Y-17039714D01*
X10039572Y-17039714D02*
X10049095Y-17020667D01*
X10049095Y-17020667D02*
X10068143Y-17011143D01*
X10068143Y-17011143D02*
X10106238Y-17011143D01*
X10106238Y-17011143D02*
X10125286Y-17020667D01*
X10125286Y-17020667D02*
X10134810Y-17039714D01*
X10134810Y-17039714D02*
X10134810Y-17058762D01*
X10134810Y-17058762D02*
X10039572Y-17077810D01*
X10211000Y-17134952D02*
X10230048Y-17144476D01*
X10230048Y-17144476D02*
X10268143Y-17144476D01*
X10268143Y-17144476D02*
X10287191Y-17134952D01*
X10287191Y-17134952D02*
X10296715Y-17115905D01*
X10296715Y-17115905D02*
X10296715Y-17106381D01*
X10296715Y-17106381D02*
X10287191Y-17087333D01*
X10287191Y-17087333D02*
X10268143Y-17077810D01*
X10268143Y-17077810D02*
X10239572Y-17077810D01*
X10239572Y-17077810D02*
X10220524Y-17068286D01*
X10220524Y-17068286D02*
X10211000Y-17049238D01*
X10211000Y-17049238D02*
X10211000Y-17039714D01*
X10211000Y-17039714D02*
X10220524Y-17020667D01*
X10220524Y-17020667D02*
X10239572Y-17011143D01*
X10239572Y-17011143D02*
X10268143Y-17011143D01*
X10268143Y-17011143D02*
X10287191Y-17020667D01*
X10363381Y-17220667D02*
X10372905Y-17211143D01*
X10372905Y-17211143D02*
X10391953Y-17182571D01*
X10391953Y-17182571D02*
X10401476Y-17163524D01*
X10401476Y-17163524D02*
X10411000Y-17134952D01*
X10411000Y-17134952D02*
X10420524Y-17087333D01*
X10420524Y-17087333D02*
X10420524Y-17049238D01*
X10420524Y-17049238D02*
X10411000Y-17001619D01*
X10411000Y-17001619D02*
X10401476Y-16973048D01*
X10401476Y-16973048D02*
X10391953Y-16954000D01*
X10391953Y-16954000D02*
X10372905Y-16925429D01*
X10372905Y-16925429D02*
X10363381Y-16915905D01*
X10692905Y-17220667D02*
X10683381Y-17211143D01*
X10683381Y-17211143D02*
X10664334Y-17182571D01*
X10664334Y-17182571D02*
X10654810Y-17163524D01*
X10654810Y-17163524D02*
X10645286Y-17134952D01*
X10645286Y-17134952D02*
X10635762Y-17087333D01*
X10635762Y-17087333D02*
X10635762Y-17049238D01*
X10635762Y-17049238D02*
X10645286Y-17001619D01*
X10645286Y-17001619D02*
X10654810Y-16973048D01*
X10654810Y-16973048D02*
X10664334Y-16954000D01*
X10664334Y-16954000D02*
X10683381Y-16925429D01*
X10683381Y-16925429D02*
X10692905Y-16915905D01*
X10769095Y-17011143D02*
X10769095Y-17144476D01*
X10769095Y-17030190D02*
X10778619Y-17020667D01*
X10778619Y-17020667D02*
X10797667Y-17011143D01*
X10797667Y-17011143D02*
X10826238Y-17011143D01*
X10826238Y-17011143D02*
X10845286Y-17020667D01*
X10845286Y-17020667D02*
X10854810Y-17039714D01*
X10854810Y-17039714D02*
X10854810Y-17144476D01*
X10978619Y-17144476D02*
X10959572Y-17134952D01*
X10959572Y-17134952D02*
X10950048Y-17125429D01*
X10950048Y-17125429D02*
X10940524Y-17106381D01*
X10940524Y-17106381D02*
X10940524Y-17049238D01*
X10940524Y-17049238D02*
X10950048Y-17030190D01*
X10950048Y-17030190D02*
X10959572Y-17020667D01*
X10959572Y-17020667D02*
X10978619Y-17011143D01*
X10978619Y-17011143D02*
X11007191Y-17011143D01*
X11007191Y-17011143D02*
X11026238Y-17020667D01*
X11026238Y-17020667D02*
X11035762Y-17030190D01*
X11035762Y-17030190D02*
X11045286Y-17049238D01*
X11045286Y-17049238D02*
X11045286Y-17106381D01*
X11045286Y-17106381D02*
X11035762Y-17125429D01*
X11035762Y-17125429D02*
X11026238Y-17134952D01*
X11026238Y-17134952D02*
X11007191Y-17144476D01*
X11007191Y-17144476D02*
X10978619Y-17144476D01*
X11102429Y-17011143D02*
X11178619Y-17011143D01*
X11131000Y-16944476D02*
X11131000Y-17115905D01*
X11131000Y-17115905D02*
X11140524Y-17134952D01*
X11140524Y-17134952D02*
X11159572Y-17144476D01*
X11159572Y-17144476D02*
X11178619Y-17144476D01*
X11365286Y-17011143D02*
X11365286Y-17211143D01*
X11365286Y-17020667D02*
X11384333Y-17011143D01*
X11384333Y-17011143D02*
X11422429Y-17011143D01*
X11422429Y-17011143D02*
X11441476Y-17020667D01*
X11441476Y-17020667D02*
X11451000Y-17030190D01*
X11451000Y-17030190D02*
X11460524Y-17049238D01*
X11460524Y-17049238D02*
X11460524Y-17106381D01*
X11460524Y-17106381D02*
X11451000Y-17125429D01*
X11451000Y-17125429D02*
X11441476Y-17134952D01*
X11441476Y-17134952D02*
X11422429Y-17144476D01*
X11422429Y-17144476D02*
X11384333Y-17144476D01*
X11384333Y-17144476D02*
X11365286Y-17134952D01*
X11574810Y-17144476D02*
X11555762Y-17134952D01*
X11555762Y-17134952D02*
X11546238Y-17115905D01*
X11546238Y-17115905D02*
X11546238Y-16944476D01*
X11736714Y-17144476D02*
X11736714Y-17039714D01*
X11736714Y-17039714D02*
X11727191Y-17020667D01*
X11727191Y-17020667D02*
X11708143Y-17011143D01*
X11708143Y-17011143D02*
X11670048Y-17011143D01*
X11670048Y-17011143D02*
X11651000Y-17020667D01*
X11736714Y-17134952D02*
X11717667Y-17144476D01*
X11717667Y-17144476D02*
X11670048Y-17144476D01*
X11670048Y-17144476D02*
X11651000Y-17134952D01*
X11651000Y-17134952D02*
X11641476Y-17115905D01*
X11641476Y-17115905D02*
X11641476Y-17096857D01*
X11641476Y-17096857D02*
X11651000Y-17077810D01*
X11651000Y-17077810D02*
X11670048Y-17068286D01*
X11670048Y-17068286D02*
X11717667Y-17068286D01*
X11717667Y-17068286D02*
X11736714Y-17058762D01*
X11803381Y-17011143D02*
X11879572Y-17011143D01*
X11831953Y-16944476D02*
X11831953Y-17115905D01*
X11831953Y-17115905D02*
X11841476Y-17134952D01*
X11841476Y-17134952D02*
X11860524Y-17144476D01*
X11860524Y-17144476D02*
X11879572Y-17144476D01*
X12022429Y-17134952D02*
X12003381Y-17144476D01*
X12003381Y-17144476D02*
X11965286Y-17144476D01*
X11965286Y-17144476D02*
X11946238Y-17134952D01*
X11946238Y-17134952D02*
X11936714Y-17115905D01*
X11936714Y-17115905D02*
X11936714Y-17039714D01*
X11936714Y-17039714D02*
X11946238Y-17020667D01*
X11946238Y-17020667D02*
X11965286Y-17011143D01*
X11965286Y-17011143D02*
X12003381Y-17011143D01*
X12003381Y-17011143D02*
X12022429Y-17020667D01*
X12022429Y-17020667D02*
X12031953Y-17039714D01*
X12031953Y-17039714D02*
X12031953Y-17058762D01*
X12031953Y-17058762D02*
X11936714Y-17077810D01*
X12203381Y-17144476D02*
X12203381Y-16944476D01*
X12203381Y-17134952D02*
X12184334Y-17144476D01*
X12184334Y-17144476D02*
X12146238Y-17144476D01*
X12146238Y-17144476D02*
X12127191Y-17134952D01*
X12127191Y-17134952D02*
X12117667Y-17125429D01*
X12117667Y-17125429D02*
X12108143Y-17106381D01*
X12108143Y-17106381D02*
X12108143Y-17049238D01*
X12108143Y-17049238D02*
X12117667Y-17030190D01*
X12117667Y-17030190D02*
X12127191Y-17020667D01*
X12127191Y-17020667D02*
X12146238Y-17011143D01*
X12146238Y-17011143D02*
X12184334Y-17011143D01*
X12184334Y-17011143D02*
X12203381Y-17020667D01*
X12279572Y-17220667D02*
X12289095Y-17211143D01*
X12289095Y-17211143D02*
X12308143Y-17182571D01*
X12308143Y-17182571D02*
X12317667Y-17163524D01*
X12317667Y-17163524D02*
X12327191Y-17134952D01*
X12327191Y-17134952D02*
X12336714Y-17087333D01*
X12336714Y-17087333D02*
X12336714Y-17049238D01*
X12336714Y-17049238D02*
X12327191Y-17001619D01*
X12327191Y-17001619D02*
X12317667Y-16973048D01*
X12317667Y-16973048D02*
X12308143Y-16954000D01*
X12308143Y-16954000D02*
X12289095Y-16925429D01*
X12289095Y-16925429D02*
X12279572Y-16915905D01*
D14*
X5643500Y-17247500D02*
X5643500Y-17422500D01*
X5556000Y-17335000D02*
X5731000Y-17335000D01*
D11*
X6083381Y-17408476D02*
X5969095Y-17408476D01*
X6026238Y-17408476D02*
X6026238Y-17208476D01*
X6026238Y-17208476D02*
X6007190Y-17237048D01*
X6007190Y-17237048D02*
X5988143Y-17256095D01*
X5988143Y-17256095D02*
X5969095Y-17265619D01*
X6169095Y-17389429D02*
X6178619Y-17398952D01*
X6178619Y-17398952D02*
X6169095Y-17408476D01*
X6169095Y-17408476D02*
X6159571Y-17398952D01*
X6159571Y-17398952D02*
X6169095Y-17389429D01*
X6169095Y-17389429D02*
X6169095Y-17408476D01*
X6245286Y-17208476D02*
X6378619Y-17208476D01*
X6378619Y-17208476D02*
X6292905Y-17408476D01*
X6550048Y-17208476D02*
X6454809Y-17208476D01*
X6454809Y-17208476D02*
X6445286Y-17303714D01*
X6445286Y-17303714D02*
X6454809Y-17294190D01*
X6454809Y-17294190D02*
X6473857Y-17284667D01*
X6473857Y-17284667D02*
X6521476Y-17284667D01*
X6521476Y-17284667D02*
X6540524Y-17294190D01*
X6540524Y-17294190D02*
X6550048Y-17303714D01*
X6550048Y-17303714D02*
X6559571Y-17322762D01*
X6559571Y-17322762D02*
X6559571Y-17370381D01*
X6559571Y-17370381D02*
X6550048Y-17389429D01*
X6550048Y-17389429D02*
X6540524Y-17398952D01*
X6540524Y-17398952D02*
X6521476Y-17408476D01*
X6521476Y-17408476D02*
X6473857Y-17408476D01*
X6473857Y-17408476D02*
X6454809Y-17398952D01*
X6454809Y-17398952D02*
X6445286Y-17389429D01*
X6683381Y-17208476D02*
X6702429Y-17208476D01*
X6702429Y-17208476D02*
X6721476Y-17218000D01*
X6721476Y-17218000D02*
X6731000Y-17227524D01*
X6731000Y-17227524D02*
X6740524Y-17246571D01*
X6740524Y-17246571D02*
X6750048Y-17284667D01*
X6750048Y-17284667D02*
X6750048Y-17332286D01*
X6750048Y-17332286D02*
X6740524Y-17370381D01*
X6740524Y-17370381D02*
X6731000Y-17389429D01*
X6731000Y-17389429D02*
X6721476Y-17398952D01*
X6721476Y-17398952D02*
X6702429Y-17408476D01*
X6702429Y-17408476D02*
X6683381Y-17408476D01*
X6683381Y-17408476D02*
X6664333Y-17398952D01*
X6664333Y-17398952D02*
X6654809Y-17389429D01*
X6654809Y-17389429D02*
X6645286Y-17370381D01*
X6645286Y-17370381D02*
X6635762Y-17332286D01*
X6635762Y-17332286D02*
X6635762Y-17284667D01*
X6635762Y-17284667D02*
X6645286Y-17246571D01*
X6645286Y-17246571D02*
X6654809Y-17227524D01*
X6654809Y-17227524D02*
X6664333Y-17218000D01*
X6664333Y-17218000D02*
X6683381Y-17208476D01*
X6835762Y-17408476D02*
X6835762Y-17275143D01*
X6835762Y-17294190D02*
X6845286Y-17284667D01*
X6845286Y-17284667D02*
X6864333Y-17275143D01*
X6864333Y-17275143D02*
X6892905Y-17275143D01*
X6892905Y-17275143D02*
X6911952Y-17284667D01*
X6911952Y-17284667D02*
X6921476Y-17303714D01*
X6921476Y-17303714D02*
X6921476Y-17408476D01*
X6921476Y-17303714D02*
X6931000Y-17284667D01*
X6931000Y-17284667D02*
X6950048Y-17275143D01*
X6950048Y-17275143D02*
X6978619Y-17275143D01*
X6978619Y-17275143D02*
X6997667Y-17284667D01*
X6997667Y-17284667D02*
X7007190Y-17303714D01*
X7007190Y-17303714D02*
X7007190Y-17408476D01*
X7102429Y-17408476D02*
X7102429Y-17275143D01*
X7102429Y-17294190D02*
X7111952Y-17284667D01*
X7111952Y-17284667D02*
X7131000Y-17275143D01*
X7131000Y-17275143D02*
X7159571Y-17275143D01*
X7159571Y-17275143D02*
X7178619Y-17284667D01*
X7178619Y-17284667D02*
X7188143Y-17303714D01*
X7188143Y-17303714D02*
X7188143Y-17408476D01*
X7188143Y-17303714D02*
X7197667Y-17284667D01*
X7197667Y-17284667D02*
X7216714Y-17275143D01*
X7216714Y-17275143D02*
X7245286Y-17275143D01*
X7245286Y-17275143D02*
X7264333Y-17284667D01*
X7264333Y-17284667D02*
X7273857Y-17303714D01*
X7273857Y-17303714D02*
X7273857Y-17408476D01*
X7631952Y-17198952D02*
X7460524Y-17456095D01*
X7856714Y-17208476D02*
X7875762Y-17208476D01*
X7875762Y-17208476D02*
X7894810Y-17218000D01*
X7894810Y-17218000D02*
X7904333Y-17227524D01*
X7904333Y-17227524D02*
X7913857Y-17246571D01*
X7913857Y-17246571D02*
X7923381Y-17284667D01*
X7923381Y-17284667D02*
X7923381Y-17332286D01*
X7923381Y-17332286D02*
X7913857Y-17370381D01*
X7913857Y-17370381D02*
X7904333Y-17389429D01*
X7904333Y-17389429D02*
X7894810Y-17398952D01*
X7894810Y-17398952D02*
X7875762Y-17408476D01*
X7875762Y-17408476D02*
X7856714Y-17408476D01*
X7856714Y-17408476D02*
X7837667Y-17398952D01*
X7837667Y-17398952D02*
X7828143Y-17389429D01*
X7828143Y-17389429D02*
X7818619Y-17370381D01*
X7818619Y-17370381D02*
X7809095Y-17332286D01*
X7809095Y-17332286D02*
X7809095Y-17284667D01*
X7809095Y-17284667D02*
X7818619Y-17246571D01*
X7818619Y-17246571D02*
X7828143Y-17227524D01*
X7828143Y-17227524D02*
X7837667Y-17218000D01*
X7837667Y-17218000D02*
X7856714Y-17208476D01*
X8009095Y-17389429D02*
X8018619Y-17398952D01*
X8018619Y-17398952D02*
X8009095Y-17408476D01*
X8009095Y-17408476D02*
X7999571Y-17398952D01*
X7999571Y-17398952D02*
X8009095Y-17389429D01*
X8009095Y-17389429D02*
X8009095Y-17408476D01*
X8142429Y-17208476D02*
X8161476Y-17208476D01*
X8161476Y-17208476D02*
X8180524Y-17218000D01*
X8180524Y-17218000D02*
X8190048Y-17227524D01*
X8190048Y-17227524D02*
X8199571Y-17246571D01*
X8199571Y-17246571D02*
X8209095Y-17284667D01*
X8209095Y-17284667D02*
X8209095Y-17332286D01*
X8209095Y-17332286D02*
X8199571Y-17370381D01*
X8199571Y-17370381D02*
X8190048Y-17389429D01*
X8190048Y-17389429D02*
X8180524Y-17398952D01*
X8180524Y-17398952D02*
X8161476Y-17408476D01*
X8161476Y-17408476D02*
X8142429Y-17408476D01*
X8142429Y-17408476D02*
X8123381Y-17398952D01*
X8123381Y-17398952D02*
X8113857Y-17389429D01*
X8113857Y-17389429D02*
X8104333Y-17370381D01*
X8104333Y-17370381D02*
X8094810Y-17332286D01*
X8094810Y-17332286D02*
X8094810Y-17284667D01*
X8094810Y-17284667D02*
X8104333Y-17246571D01*
X8104333Y-17246571D02*
X8113857Y-17227524D01*
X8113857Y-17227524D02*
X8123381Y-17218000D01*
X8123381Y-17218000D02*
X8142429Y-17208476D01*
X8380524Y-17208476D02*
X8342429Y-17208476D01*
X8342429Y-17208476D02*
X8323381Y-17218000D01*
X8323381Y-17218000D02*
X8313857Y-17227524D01*
X8313857Y-17227524D02*
X8294810Y-17256095D01*
X8294810Y-17256095D02*
X8285286Y-17294190D01*
X8285286Y-17294190D02*
X8285286Y-17370381D01*
X8285286Y-17370381D02*
X8294810Y-17389429D01*
X8294810Y-17389429D02*
X8304333Y-17398952D01*
X8304333Y-17398952D02*
X8323381Y-17408476D01*
X8323381Y-17408476D02*
X8361476Y-17408476D01*
X8361476Y-17408476D02*
X8380524Y-17398952D01*
X8380524Y-17398952D02*
X8390048Y-17389429D01*
X8390048Y-17389429D02*
X8399572Y-17370381D01*
X8399572Y-17370381D02*
X8399572Y-17322762D01*
X8399572Y-17322762D02*
X8390048Y-17303714D01*
X8390048Y-17303714D02*
X8380524Y-17294190D01*
X8380524Y-17294190D02*
X8361476Y-17284667D01*
X8361476Y-17284667D02*
X8323381Y-17284667D01*
X8323381Y-17284667D02*
X8304333Y-17294190D01*
X8304333Y-17294190D02*
X8294810Y-17303714D01*
X8294810Y-17303714D02*
X8285286Y-17322762D01*
X8513857Y-17294190D02*
X8494810Y-17284667D01*
X8494810Y-17284667D02*
X8485286Y-17275143D01*
X8485286Y-17275143D02*
X8475762Y-17256095D01*
X8475762Y-17256095D02*
X8475762Y-17246571D01*
X8475762Y-17246571D02*
X8485286Y-17227524D01*
X8485286Y-17227524D02*
X8494810Y-17218000D01*
X8494810Y-17218000D02*
X8513857Y-17208476D01*
X8513857Y-17208476D02*
X8551953Y-17208476D01*
X8551953Y-17208476D02*
X8571000Y-17218000D01*
X8571000Y-17218000D02*
X8580524Y-17227524D01*
X8580524Y-17227524D02*
X8590048Y-17246571D01*
X8590048Y-17246571D02*
X8590048Y-17256095D01*
X8590048Y-17256095D02*
X8580524Y-17275143D01*
X8580524Y-17275143D02*
X8571000Y-17284667D01*
X8571000Y-17284667D02*
X8551953Y-17294190D01*
X8551953Y-17294190D02*
X8513857Y-17294190D01*
X8513857Y-17294190D02*
X8494810Y-17303714D01*
X8494810Y-17303714D02*
X8485286Y-17313238D01*
X8485286Y-17313238D02*
X8475762Y-17332286D01*
X8475762Y-17332286D02*
X8475762Y-17370381D01*
X8475762Y-17370381D02*
X8485286Y-17389429D01*
X8485286Y-17389429D02*
X8494810Y-17398952D01*
X8494810Y-17398952D02*
X8513857Y-17408476D01*
X8513857Y-17408476D02*
X8551953Y-17408476D01*
X8551953Y-17408476D02*
X8571000Y-17398952D01*
X8571000Y-17398952D02*
X8580524Y-17389429D01*
X8580524Y-17389429D02*
X8590048Y-17370381D01*
X8590048Y-17370381D02*
X8590048Y-17332286D01*
X8590048Y-17332286D02*
X8580524Y-17313238D01*
X8580524Y-17313238D02*
X8571000Y-17303714D01*
X8571000Y-17303714D02*
X8551953Y-17294190D01*
X8685286Y-17408476D02*
X8723381Y-17408476D01*
X8723381Y-17408476D02*
X8742429Y-17398952D01*
X8742429Y-17398952D02*
X8751953Y-17389429D01*
X8751953Y-17389429D02*
X8771000Y-17360857D01*
X8771000Y-17360857D02*
X8780524Y-17322762D01*
X8780524Y-17322762D02*
X8780524Y-17246571D01*
X8780524Y-17246571D02*
X8771000Y-17227524D01*
X8771000Y-17227524D02*
X8761476Y-17218000D01*
X8761476Y-17218000D02*
X8742429Y-17208476D01*
X8742429Y-17208476D02*
X8704333Y-17208476D01*
X8704333Y-17208476D02*
X8685286Y-17218000D01*
X8685286Y-17218000D02*
X8675762Y-17227524D01*
X8675762Y-17227524D02*
X8666238Y-17246571D01*
X8666238Y-17246571D02*
X8666238Y-17294190D01*
X8666238Y-17294190D02*
X8675762Y-17313238D01*
X8675762Y-17313238D02*
X8685286Y-17322762D01*
X8685286Y-17322762D02*
X8704333Y-17332286D01*
X8704333Y-17332286D02*
X8742429Y-17332286D01*
X8742429Y-17332286D02*
X8761476Y-17322762D01*
X8761476Y-17322762D02*
X8771000Y-17313238D01*
X8771000Y-17313238D02*
X8780524Y-17294190D01*
X8856714Y-17208476D02*
X8856714Y-17246571D01*
X8932905Y-17208476D02*
X8932905Y-17246571D01*
X9195762Y-17484667D02*
X9186238Y-17475143D01*
X9186238Y-17475143D02*
X9167191Y-17446571D01*
X9167191Y-17446571D02*
X9157667Y-17427524D01*
X9157667Y-17427524D02*
X9148143Y-17398952D01*
X9148143Y-17398952D02*
X9138619Y-17351333D01*
X9138619Y-17351333D02*
X9138619Y-17313238D01*
X9138619Y-17313238D02*
X9148143Y-17265619D01*
X9148143Y-17265619D02*
X9157667Y-17237048D01*
X9157667Y-17237048D02*
X9167191Y-17218000D01*
X9167191Y-17218000D02*
X9186238Y-17189429D01*
X9186238Y-17189429D02*
X9195762Y-17179905D01*
X9300524Y-17294190D02*
X9281476Y-17284667D01*
X9281476Y-17284667D02*
X9271953Y-17275143D01*
X9271953Y-17275143D02*
X9262429Y-17256095D01*
X9262429Y-17256095D02*
X9262429Y-17246571D01*
X9262429Y-17246571D02*
X9271953Y-17227524D01*
X9271953Y-17227524D02*
X9281476Y-17218000D01*
X9281476Y-17218000D02*
X9300524Y-17208476D01*
X9300524Y-17208476D02*
X9338619Y-17208476D01*
X9338619Y-17208476D02*
X9357667Y-17218000D01*
X9357667Y-17218000D02*
X9367191Y-17227524D01*
X9367191Y-17227524D02*
X9376714Y-17246571D01*
X9376714Y-17246571D02*
X9376714Y-17256095D01*
X9376714Y-17256095D02*
X9367191Y-17275143D01*
X9367191Y-17275143D02*
X9357667Y-17284667D01*
X9357667Y-17284667D02*
X9338619Y-17294190D01*
X9338619Y-17294190D02*
X9300524Y-17294190D01*
X9300524Y-17294190D02*
X9281476Y-17303714D01*
X9281476Y-17303714D02*
X9271953Y-17313238D01*
X9271953Y-17313238D02*
X9262429Y-17332286D01*
X9262429Y-17332286D02*
X9262429Y-17370381D01*
X9262429Y-17370381D02*
X9271953Y-17389429D01*
X9271953Y-17389429D02*
X9281476Y-17398952D01*
X9281476Y-17398952D02*
X9300524Y-17408476D01*
X9300524Y-17408476D02*
X9338619Y-17408476D01*
X9338619Y-17408476D02*
X9357667Y-17398952D01*
X9357667Y-17398952D02*
X9367191Y-17389429D01*
X9367191Y-17389429D02*
X9376714Y-17370381D01*
X9376714Y-17370381D02*
X9376714Y-17332286D01*
X9376714Y-17332286D02*
X9367191Y-17313238D01*
X9367191Y-17313238D02*
X9357667Y-17303714D01*
X9357667Y-17303714D02*
X9338619Y-17294190D01*
X9548143Y-17275143D02*
X9548143Y-17408476D01*
X9500524Y-17198952D02*
X9452905Y-17341810D01*
X9452905Y-17341810D02*
X9576714Y-17341810D01*
X9772905Y-17408476D02*
X9772905Y-17208476D01*
X9858619Y-17408476D02*
X9858619Y-17303714D01*
X9858619Y-17303714D02*
X9849095Y-17284667D01*
X9849095Y-17284667D02*
X9830048Y-17275143D01*
X9830048Y-17275143D02*
X9801476Y-17275143D01*
X9801476Y-17275143D02*
X9782429Y-17284667D01*
X9782429Y-17284667D02*
X9772905Y-17294190D01*
X9982429Y-17408476D02*
X9963381Y-17398952D01*
X9963381Y-17398952D02*
X9953857Y-17389429D01*
X9953857Y-17389429D02*
X9944334Y-17370381D01*
X9944334Y-17370381D02*
X9944334Y-17313238D01*
X9944334Y-17313238D02*
X9953857Y-17294190D01*
X9953857Y-17294190D02*
X9963381Y-17284667D01*
X9963381Y-17284667D02*
X9982429Y-17275143D01*
X9982429Y-17275143D02*
X10011000Y-17275143D01*
X10011000Y-17275143D02*
X10030048Y-17284667D01*
X10030048Y-17284667D02*
X10039572Y-17294190D01*
X10039572Y-17294190D02*
X10049095Y-17313238D01*
X10049095Y-17313238D02*
X10049095Y-17370381D01*
X10049095Y-17370381D02*
X10039572Y-17389429D01*
X10039572Y-17389429D02*
X10030048Y-17398952D01*
X10030048Y-17398952D02*
X10011000Y-17408476D01*
X10011000Y-17408476D02*
X9982429Y-17408476D01*
X10163381Y-17408476D02*
X10144334Y-17398952D01*
X10144334Y-17398952D02*
X10134810Y-17379905D01*
X10134810Y-17379905D02*
X10134810Y-17208476D01*
X10315762Y-17398952D02*
X10296715Y-17408476D01*
X10296715Y-17408476D02*
X10258619Y-17408476D01*
X10258619Y-17408476D02*
X10239572Y-17398952D01*
X10239572Y-17398952D02*
X10230048Y-17379905D01*
X10230048Y-17379905D02*
X10230048Y-17303714D01*
X10230048Y-17303714D02*
X10239572Y-17284667D01*
X10239572Y-17284667D02*
X10258619Y-17275143D01*
X10258619Y-17275143D02*
X10296715Y-17275143D01*
X10296715Y-17275143D02*
X10315762Y-17284667D01*
X10315762Y-17284667D02*
X10325286Y-17303714D01*
X10325286Y-17303714D02*
X10325286Y-17322762D01*
X10325286Y-17322762D02*
X10230048Y-17341810D01*
X10401476Y-17398952D02*
X10420524Y-17408476D01*
X10420524Y-17408476D02*
X10458619Y-17408476D01*
X10458619Y-17408476D02*
X10477667Y-17398952D01*
X10477667Y-17398952D02*
X10487191Y-17379905D01*
X10487191Y-17379905D02*
X10487191Y-17370381D01*
X10487191Y-17370381D02*
X10477667Y-17351333D01*
X10477667Y-17351333D02*
X10458619Y-17341810D01*
X10458619Y-17341810D02*
X10430048Y-17341810D01*
X10430048Y-17341810D02*
X10411000Y-17332286D01*
X10411000Y-17332286D02*
X10401476Y-17313238D01*
X10401476Y-17313238D02*
X10401476Y-17303714D01*
X10401476Y-17303714D02*
X10411000Y-17284667D01*
X10411000Y-17284667D02*
X10430048Y-17275143D01*
X10430048Y-17275143D02*
X10458619Y-17275143D01*
X10458619Y-17275143D02*
X10477667Y-17284667D01*
X10553857Y-17484667D02*
X10563381Y-17475143D01*
X10563381Y-17475143D02*
X10582429Y-17446571D01*
X10582429Y-17446571D02*
X10591953Y-17427524D01*
X10591953Y-17427524D02*
X10601476Y-17398952D01*
X10601476Y-17398952D02*
X10611000Y-17351333D01*
X10611000Y-17351333D02*
X10611000Y-17313238D01*
X10611000Y-17313238D02*
X10601476Y-17265619D01*
X10601476Y-17265619D02*
X10591953Y-17237048D01*
X10591953Y-17237048D02*
X10582429Y-17218000D01*
X10582429Y-17218000D02*
X10563381Y-17189429D01*
X10563381Y-17189429D02*
X10553857Y-17179905D01*
X10883381Y-17484667D02*
X10873857Y-17475143D01*
X10873857Y-17475143D02*
X10854810Y-17446571D01*
X10854810Y-17446571D02*
X10845286Y-17427524D01*
X10845286Y-17427524D02*
X10835762Y-17398952D01*
X10835762Y-17398952D02*
X10826238Y-17351333D01*
X10826238Y-17351333D02*
X10826238Y-17313238D01*
X10826238Y-17313238D02*
X10835762Y-17265619D01*
X10835762Y-17265619D02*
X10845286Y-17237048D01*
X10845286Y-17237048D02*
X10854810Y-17218000D01*
X10854810Y-17218000D02*
X10873857Y-17189429D01*
X10873857Y-17189429D02*
X10883381Y-17179905D01*
X10959572Y-17275143D02*
X10959572Y-17408476D01*
X10959572Y-17294190D02*
X10969095Y-17284667D01*
X10969095Y-17284667D02*
X10988143Y-17275143D01*
X10988143Y-17275143D02*
X11016715Y-17275143D01*
X11016715Y-17275143D02*
X11035762Y-17284667D01*
X11035762Y-17284667D02*
X11045286Y-17303714D01*
X11045286Y-17303714D02*
X11045286Y-17408476D01*
X11169095Y-17408476D02*
X11150048Y-17398952D01*
X11150048Y-17398952D02*
X11140524Y-17389429D01*
X11140524Y-17389429D02*
X11131000Y-17370381D01*
X11131000Y-17370381D02*
X11131000Y-17313238D01*
X11131000Y-17313238D02*
X11140524Y-17294190D01*
X11140524Y-17294190D02*
X11150048Y-17284667D01*
X11150048Y-17284667D02*
X11169095Y-17275143D01*
X11169095Y-17275143D02*
X11197667Y-17275143D01*
X11197667Y-17275143D02*
X11216714Y-17284667D01*
X11216714Y-17284667D02*
X11226238Y-17294190D01*
X11226238Y-17294190D02*
X11235762Y-17313238D01*
X11235762Y-17313238D02*
X11235762Y-17370381D01*
X11235762Y-17370381D02*
X11226238Y-17389429D01*
X11226238Y-17389429D02*
X11216714Y-17398952D01*
X11216714Y-17398952D02*
X11197667Y-17408476D01*
X11197667Y-17408476D02*
X11169095Y-17408476D01*
X11292905Y-17275143D02*
X11369095Y-17275143D01*
X11321476Y-17208476D02*
X11321476Y-17379905D01*
X11321476Y-17379905D02*
X11331000Y-17398952D01*
X11331000Y-17398952D02*
X11350048Y-17408476D01*
X11350048Y-17408476D02*
X11369095Y-17408476D01*
X11555762Y-17275143D02*
X11555762Y-17475143D01*
X11555762Y-17284667D02*
X11574810Y-17275143D01*
X11574810Y-17275143D02*
X11612905Y-17275143D01*
X11612905Y-17275143D02*
X11631953Y-17284667D01*
X11631953Y-17284667D02*
X11641476Y-17294190D01*
X11641476Y-17294190D02*
X11651000Y-17313238D01*
X11651000Y-17313238D02*
X11651000Y-17370381D01*
X11651000Y-17370381D02*
X11641476Y-17389429D01*
X11641476Y-17389429D02*
X11631953Y-17398952D01*
X11631953Y-17398952D02*
X11612905Y-17408476D01*
X11612905Y-17408476D02*
X11574810Y-17408476D01*
X11574810Y-17408476D02*
X11555762Y-17398952D01*
X11765286Y-17408476D02*
X11746238Y-17398952D01*
X11746238Y-17398952D02*
X11736714Y-17379905D01*
X11736714Y-17379905D02*
X11736714Y-17208476D01*
X11927191Y-17408476D02*
X11927191Y-17303714D01*
X11927191Y-17303714D02*
X11917667Y-17284667D01*
X11917667Y-17284667D02*
X11898619Y-17275143D01*
X11898619Y-17275143D02*
X11860524Y-17275143D01*
X11860524Y-17275143D02*
X11841476Y-17284667D01*
X11927191Y-17398952D02*
X11908143Y-17408476D01*
X11908143Y-17408476D02*
X11860524Y-17408476D01*
X11860524Y-17408476D02*
X11841476Y-17398952D01*
X11841476Y-17398952D02*
X11831953Y-17379905D01*
X11831953Y-17379905D02*
X11831953Y-17360857D01*
X11831953Y-17360857D02*
X11841476Y-17341810D01*
X11841476Y-17341810D02*
X11860524Y-17332286D01*
X11860524Y-17332286D02*
X11908143Y-17332286D01*
X11908143Y-17332286D02*
X11927191Y-17322762D01*
X11993857Y-17275143D02*
X12070048Y-17275143D01*
X12022429Y-17208476D02*
X12022429Y-17379905D01*
X12022429Y-17379905D02*
X12031953Y-17398952D01*
X12031953Y-17398952D02*
X12051000Y-17408476D01*
X12051000Y-17408476D02*
X12070048Y-17408476D01*
X12212905Y-17398952D02*
X12193857Y-17408476D01*
X12193857Y-17408476D02*
X12155762Y-17408476D01*
X12155762Y-17408476D02*
X12136714Y-17398952D01*
X12136714Y-17398952D02*
X12127191Y-17379905D01*
X12127191Y-17379905D02*
X12127191Y-17303714D01*
X12127191Y-17303714D02*
X12136714Y-17284667D01*
X12136714Y-17284667D02*
X12155762Y-17275143D01*
X12155762Y-17275143D02*
X12193857Y-17275143D01*
X12193857Y-17275143D02*
X12212905Y-17284667D01*
X12212905Y-17284667D02*
X12222429Y-17303714D01*
X12222429Y-17303714D02*
X12222429Y-17322762D01*
X12222429Y-17322762D02*
X12127191Y-17341810D01*
X12393857Y-17408476D02*
X12393857Y-17208476D01*
X12393857Y-17398952D02*
X12374810Y-17408476D01*
X12374810Y-17408476D02*
X12336714Y-17408476D01*
X12336714Y-17408476D02*
X12317667Y-17398952D01*
X12317667Y-17398952D02*
X12308143Y-17389429D01*
X12308143Y-17389429D02*
X12298619Y-17370381D01*
X12298619Y-17370381D02*
X12298619Y-17313238D01*
X12298619Y-17313238D02*
X12308143Y-17294190D01*
X12308143Y-17294190D02*
X12317667Y-17284667D01*
X12317667Y-17284667D02*
X12336714Y-17275143D01*
X12336714Y-17275143D02*
X12374810Y-17275143D01*
X12374810Y-17275143D02*
X12393857Y-17284667D01*
X12470048Y-17484667D02*
X12479572Y-17475143D01*
X12479572Y-17475143D02*
X12498619Y-17446571D01*
X12498619Y-17446571D02*
X12508143Y-17427524D01*
X12508143Y-17427524D02*
X12517667Y-17398952D01*
X12517667Y-17398952D02*
X12527191Y-17351333D01*
X12527191Y-17351333D02*
X12527191Y-17313238D01*
X12527191Y-17313238D02*
X12517667Y-17265619D01*
X12517667Y-17265619D02*
X12508143Y-17237048D01*
X12508143Y-17237048D02*
X12498619Y-17218000D01*
X12498619Y-17218000D02*
X12479572Y-17189429D01*
X12479572Y-17189429D02*
X12470048Y-17179905D01*
X5701711Y-17700711D02*
X5701711Y-17559289D01*
X5560289Y-17559289D01*
X5560289Y-17700711D01*
X5701711Y-17700711D01*
X5959571Y-17503476D02*
X6083381Y-17503476D01*
X6083381Y-17503476D02*
X6016714Y-17579667D01*
X6016714Y-17579667D02*
X6045286Y-17579667D01*
X6045286Y-17579667D02*
X6064333Y-17589190D01*
X6064333Y-17589190D02*
X6073857Y-17598714D01*
X6073857Y-17598714D02*
X6083381Y-17617762D01*
X6083381Y-17617762D02*
X6083381Y-17665381D01*
X6083381Y-17665381D02*
X6073857Y-17684429D01*
X6073857Y-17684429D02*
X6064333Y-17693952D01*
X6064333Y-17693952D02*
X6045286Y-17703476D01*
X6045286Y-17703476D02*
X5988143Y-17703476D01*
X5988143Y-17703476D02*
X5969095Y-17693952D01*
X5969095Y-17693952D02*
X5959571Y-17684429D01*
X6169095Y-17684429D02*
X6178619Y-17693952D01*
X6178619Y-17693952D02*
X6169095Y-17703476D01*
X6169095Y-17703476D02*
X6159571Y-17693952D01*
X6159571Y-17693952D02*
X6169095Y-17684429D01*
X6169095Y-17684429D02*
X6169095Y-17703476D01*
X6273857Y-17703476D02*
X6311952Y-17703476D01*
X6311952Y-17703476D02*
X6331000Y-17693952D01*
X6331000Y-17693952D02*
X6340524Y-17684429D01*
X6340524Y-17684429D02*
X6359571Y-17655857D01*
X6359571Y-17655857D02*
X6369095Y-17617762D01*
X6369095Y-17617762D02*
X6369095Y-17541571D01*
X6369095Y-17541571D02*
X6359571Y-17522524D01*
X6359571Y-17522524D02*
X6350048Y-17513000D01*
X6350048Y-17513000D02*
X6331000Y-17503476D01*
X6331000Y-17503476D02*
X6292905Y-17503476D01*
X6292905Y-17503476D02*
X6273857Y-17513000D01*
X6273857Y-17513000D02*
X6264333Y-17522524D01*
X6264333Y-17522524D02*
X6254809Y-17541571D01*
X6254809Y-17541571D02*
X6254809Y-17589190D01*
X6254809Y-17589190D02*
X6264333Y-17608238D01*
X6264333Y-17608238D02*
X6273857Y-17617762D01*
X6273857Y-17617762D02*
X6292905Y-17627286D01*
X6292905Y-17627286D02*
X6331000Y-17627286D01*
X6331000Y-17627286D02*
X6350048Y-17617762D01*
X6350048Y-17617762D02*
X6359571Y-17608238D01*
X6359571Y-17608238D02*
X6369095Y-17589190D01*
X6483381Y-17589190D02*
X6464333Y-17579667D01*
X6464333Y-17579667D02*
X6454809Y-17570143D01*
X6454809Y-17570143D02*
X6445286Y-17551095D01*
X6445286Y-17551095D02*
X6445286Y-17541571D01*
X6445286Y-17541571D02*
X6454809Y-17522524D01*
X6454809Y-17522524D02*
X6464333Y-17513000D01*
X6464333Y-17513000D02*
X6483381Y-17503476D01*
X6483381Y-17503476D02*
X6521476Y-17503476D01*
X6521476Y-17503476D02*
X6540524Y-17513000D01*
X6540524Y-17513000D02*
X6550048Y-17522524D01*
X6550048Y-17522524D02*
X6559571Y-17541571D01*
X6559571Y-17541571D02*
X6559571Y-17551095D01*
X6559571Y-17551095D02*
X6550048Y-17570143D01*
X6550048Y-17570143D02*
X6540524Y-17579667D01*
X6540524Y-17579667D02*
X6521476Y-17589190D01*
X6521476Y-17589190D02*
X6483381Y-17589190D01*
X6483381Y-17589190D02*
X6464333Y-17598714D01*
X6464333Y-17598714D02*
X6454809Y-17608238D01*
X6454809Y-17608238D02*
X6445286Y-17627286D01*
X6445286Y-17627286D02*
X6445286Y-17665381D01*
X6445286Y-17665381D02*
X6454809Y-17684429D01*
X6454809Y-17684429D02*
X6464333Y-17693952D01*
X6464333Y-17693952D02*
X6483381Y-17703476D01*
X6483381Y-17703476D02*
X6521476Y-17703476D01*
X6521476Y-17703476D02*
X6540524Y-17693952D01*
X6540524Y-17693952D02*
X6550048Y-17684429D01*
X6550048Y-17684429D02*
X6559571Y-17665381D01*
X6559571Y-17665381D02*
X6559571Y-17627286D01*
X6559571Y-17627286D02*
X6550048Y-17608238D01*
X6550048Y-17608238D02*
X6540524Y-17598714D01*
X6540524Y-17598714D02*
X6521476Y-17589190D01*
X6673857Y-17589190D02*
X6654809Y-17579667D01*
X6654809Y-17579667D02*
X6645286Y-17570143D01*
X6645286Y-17570143D02*
X6635762Y-17551095D01*
X6635762Y-17551095D02*
X6635762Y-17541571D01*
X6635762Y-17541571D02*
X6645286Y-17522524D01*
X6645286Y-17522524D02*
X6654809Y-17513000D01*
X6654809Y-17513000D02*
X6673857Y-17503476D01*
X6673857Y-17503476D02*
X6711952Y-17503476D01*
X6711952Y-17503476D02*
X6731000Y-17513000D01*
X6731000Y-17513000D02*
X6740524Y-17522524D01*
X6740524Y-17522524D02*
X6750048Y-17541571D01*
X6750048Y-17541571D02*
X6750048Y-17551095D01*
X6750048Y-17551095D02*
X6740524Y-17570143D01*
X6740524Y-17570143D02*
X6731000Y-17579667D01*
X6731000Y-17579667D02*
X6711952Y-17589190D01*
X6711952Y-17589190D02*
X6673857Y-17589190D01*
X6673857Y-17589190D02*
X6654809Y-17598714D01*
X6654809Y-17598714D02*
X6645286Y-17608238D01*
X6645286Y-17608238D02*
X6635762Y-17627286D01*
X6635762Y-17627286D02*
X6635762Y-17665381D01*
X6635762Y-17665381D02*
X6645286Y-17684429D01*
X6645286Y-17684429D02*
X6654809Y-17693952D01*
X6654809Y-17693952D02*
X6673857Y-17703476D01*
X6673857Y-17703476D02*
X6711952Y-17703476D01*
X6711952Y-17703476D02*
X6731000Y-17693952D01*
X6731000Y-17693952D02*
X6740524Y-17684429D01*
X6740524Y-17684429D02*
X6750048Y-17665381D01*
X6750048Y-17665381D02*
X6750048Y-17627286D01*
X6750048Y-17627286D02*
X6740524Y-17608238D01*
X6740524Y-17608238D02*
X6731000Y-17598714D01*
X6731000Y-17598714D02*
X6711952Y-17589190D01*
X6835762Y-17703476D02*
X6835762Y-17570143D01*
X6835762Y-17589190D02*
X6845286Y-17579667D01*
X6845286Y-17579667D02*
X6864333Y-17570143D01*
X6864333Y-17570143D02*
X6892905Y-17570143D01*
X6892905Y-17570143D02*
X6911952Y-17579667D01*
X6911952Y-17579667D02*
X6921476Y-17598714D01*
X6921476Y-17598714D02*
X6921476Y-17703476D01*
X6921476Y-17598714D02*
X6931000Y-17579667D01*
X6931000Y-17579667D02*
X6950048Y-17570143D01*
X6950048Y-17570143D02*
X6978619Y-17570143D01*
X6978619Y-17570143D02*
X6997667Y-17579667D01*
X6997667Y-17579667D02*
X7007190Y-17598714D01*
X7007190Y-17598714D02*
X7007190Y-17703476D01*
X7102429Y-17703476D02*
X7102429Y-17570143D01*
X7102429Y-17589190D02*
X7111952Y-17579667D01*
X7111952Y-17579667D02*
X7131000Y-17570143D01*
X7131000Y-17570143D02*
X7159571Y-17570143D01*
X7159571Y-17570143D02*
X7178619Y-17579667D01*
X7178619Y-17579667D02*
X7188143Y-17598714D01*
X7188143Y-17598714D02*
X7188143Y-17703476D01*
X7188143Y-17598714D02*
X7197667Y-17579667D01*
X7197667Y-17579667D02*
X7216714Y-17570143D01*
X7216714Y-17570143D02*
X7245286Y-17570143D01*
X7245286Y-17570143D02*
X7264333Y-17579667D01*
X7264333Y-17579667D02*
X7273857Y-17598714D01*
X7273857Y-17598714D02*
X7273857Y-17703476D01*
X7631952Y-17493952D02*
X7460524Y-17751095D01*
X7856714Y-17503476D02*
X7875762Y-17503476D01*
X7875762Y-17503476D02*
X7894810Y-17513000D01*
X7894810Y-17513000D02*
X7904333Y-17522524D01*
X7904333Y-17522524D02*
X7913857Y-17541571D01*
X7913857Y-17541571D02*
X7923381Y-17579667D01*
X7923381Y-17579667D02*
X7923381Y-17627286D01*
X7923381Y-17627286D02*
X7913857Y-17665381D01*
X7913857Y-17665381D02*
X7904333Y-17684429D01*
X7904333Y-17684429D02*
X7894810Y-17693952D01*
X7894810Y-17693952D02*
X7875762Y-17703476D01*
X7875762Y-17703476D02*
X7856714Y-17703476D01*
X7856714Y-17703476D02*
X7837667Y-17693952D01*
X7837667Y-17693952D02*
X7828143Y-17684429D01*
X7828143Y-17684429D02*
X7818619Y-17665381D01*
X7818619Y-17665381D02*
X7809095Y-17627286D01*
X7809095Y-17627286D02*
X7809095Y-17579667D01*
X7809095Y-17579667D02*
X7818619Y-17541571D01*
X7818619Y-17541571D02*
X7828143Y-17522524D01*
X7828143Y-17522524D02*
X7837667Y-17513000D01*
X7837667Y-17513000D02*
X7856714Y-17503476D01*
X8009095Y-17684429D02*
X8018619Y-17693952D01*
X8018619Y-17693952D02*
X8009095Y-17703476D01*
X8009095Y-17703476D02*
X7999571Y-17693952D01*
X7999571Y-17693952D02*
X8009095Y-17684429D01*
X8009095Y-17684429D02*
X8009095Y-17703476D01*
X8209095Y-17703476D02*
X8094810Y-17703476D01*
X8151952Y-17703476D02*
X8151952Y-17503476D01*
X8151952Y-17503476D02*
X8132905Y-17532048D01*
X8132905Y-17532048D02*
X8113857Y-17551095D01*
X8113857Y-17551095D02*
X8094810Y-17560619D01*
X8390048Y-17503476D02*
X8294810Y-17503476D01*
X8294810Y-17503476D02*
X8285286Y-17598714D01*
X8285286Y-17598714D02*
X8294810Y-17589190D01*
X8294810Y-17589190D02*
X8313857Y-17579667D01*
X8313857Y-17579667D02*
X8361476Y-17579667D01*
X8361476Y-17579667D02*
X8380524Y-17589190D01*
X8380524Y-17589190D02*
X8390048Y-17598714D01*
X8390048Y-17598714D02*
X8399572Y-17617762D01*
X8399572Y-17617762D02*
X8399572Y-17665381D01*
X8399572Y-17665381D02*
X8390048Y-17684429D01*
X8390048Y-17684429D02*
X8380524Y-17693952D01*
X8380524Y-17693952D02*
X8361476Y-17703476D01*
X8361476Y-17703476D02*
X8313857Y-17703476D01*
X8313857Y-17703476D02*
X8294810Y-17693952D01*
X8294810Y-17693952D02*
X8285286Y-17684429D01*
X8466238Y-17503476D02*
X8599572Y-17503476D01*
X8599572Y-17503476D02*
X8513857Y-17703476D01*
X8713857Y-17503476D02*
X8732905Y-17503476D01*
X8732905Y-17503476D02*
X8751953Y-17513000D01*
X8751953Y-17513000D02*
X8761476Y-17522524D01*
X8761476Y-17522524D02*
X8771000Y-17541571D01*
X8771000Y-17541571D02*
X8780524Y-17579667D01*
X8780524Y-17579667D02*
X8780524Y-17627286D01*
X8780524Y-17627286D02*
X8771000Y-17665381D01*
X8771000Y-17665381D02*
X8761476Y-17684429D01*
X8761476Y-17684429D02*
X8751953Y-17693952D01*
X8751953Y-17693952D02*
X8732905Y-17703476D01*
X8732905Y-17703476D02*
X8713857Y-17703476D01*
X8713857Y-17703476D02*
X8694810Y-17693952D01*
X8694810Y-17693952D02*
X8685286Y-17684429D01*
X8685286Y-17684429D02*
X8675762Y-17665381D01*
X8675762Y-17665381D02*
X8666238Y-17627286D01*
X8666238Y-17627286D02*
X8666238Y-17579667D01*
X8666238Y-17579667D02*
X8675762Y-17541571D01*
X8675762Y-17541571D02*
X8685286Y-17522524D01*
X8685286Y-17522524D02*
X8694810Y-17513000D01*
X8694810Y-17513000D02*
X8713857Y-17503476D01*
X8856714Y-17503476D02*
X8856714Y-17541571D01*
X8932905Y-17503476D02*
X8932905Y-17541571D01*
X9195762Y-17779667D02*
X9186238Y-17770143D01*
X9186238Y-17770143D02*
X9167191Y-17741571D01*
X9167191Y-17741571D02*
X9157667Y-17722524D01*
X9157667Y-17722524D02*
X9148143Y-17693952D01*
X9148143Y-17693952D02*
X9138619Y-17646333D01*
X9138619Y-17646333D02*
X9138619Y-17608238D01*
X9138619Y-17608238D02*
X9148143Y-17560619D01*
X9148143Y-17560619D02*
X9157667Y-17532048D01*
X9157667Y-17532048D02*
X9167191Y-17513000D01*
X9167191Y-17513000D02*
X9186238Y-17484429D01*
X9186238Y-17484429D02*
X9195762Y-17474905D01*
X9357667Y-17570143D02*
X9357667Y-17703476D01*
X9310048Y-17493952D02*
X9262429Y-17636810D01*
X9262429Y-17636810D02*
X9386238Y-17636810D01*
X9452905Y-17522524D02*
X9462429Y-17513000D01*
X9462429Y-17513000D02*
X9481476Y-17503476D01*
X9481476Y-17503476D02*
X9529095Y-17503476D01*
X9529095Y-17503476D02*
X9548143Y-17513000D01*
X9548143Y-17513000D02*
X9557667Y-17522524D01*
X9557667Y-17522524D02*
X9567191Y-17541571D01*
X9567191Y-17541571D02*
X9567191Y-17560619D01*
X9567191Y-17560619D02*
X9557667Y-17589190D01*
X9557667Y-17589190D02*
X9443381Y-17703476D01*
X9443381Y-17703476D02*
X9567191Y-17703476D01*
X9772905Y-17703476D02*
X9772905Y-17503476D01*
X9858619Y-17703476D02*
X9858619Y-17598714D01*
X9858619Y-17598714D02*
X9849095Y-17579667D01*
X9849095Y-17579667D02*
X9830048Y-17570143D01*
X9830048Y-17570143D02*
X9801476Y-17570143D01*
X9801476Y-17570143D02*
X9782429Y-17579667D01*
X9782429Y-17579667D02*
X9772905Y-17589190D01*
X9982429Y-17703476D02*
X9963381Y-17693952D01*
X9963381Y-17693952D02*
X9953857Y-17684429D01*
X9953857Y-17684429D02*
X9944334Y-17665381D01*
X9944334Y-17665381D02*
X9944334Y-17608238D01*
X9944334Y-17608238D02*
X9953857Y-17589190D01*
X9953857Y-17589190D02*
X9963381Y-17579667D01*
X9963381Y-17579667D02*
X9982429Y-17570143D01*
X9982429Y-17570143D02*
X10011000Y-17570143D01*
X10011000Y-17570143D02*
X10030048Y-17579667D01*
X10030048Y-17579667D02*
X10039572Y-17589190D01*
X10039572Y-17589190D02*
X10049095Y-17608238D01*
X10049095Y-17608238D02*
X10049095Y-17665381D01*
X10049095Y-17665381D02*
X10039572Y-17684429D01*
X10039572Y-17684429D02*
X10030048Y-17693952D01*
X10030048Y-17693952D02*
X10011000Y-17703476D01*
X10011000Y-17703476D02*
X9982429Y-17703476D01*
X10163381Y-17703476D02*
X10144334Y-17693952D01*
X10144334Y-17693952D02*
X10134810Y-17674905D01*
X10134810Y-17674905D02*
X10134810Y-17503476D01*
X10315762Y-17693952D02*
X10296715Y-17703476D01*
X10296715Y-17703476D02*
X10258619Y-17703476D01*
X10258619Y-17703476D02*
X10239572Y-17693952D01*
X10239572Y-17693952D02*
X10230048Y-17674905D01*
X10230048Y-17674905D02*
X10230048Y-17598714D01*
X10230048Y-17598714D02*
X10239572Y-17579667D01*
X10239572Y-17579667D02*
X10258619Y-17570143D01*
X10258619Y-17570143D02*
X10296715Y-17570143D01*
X10296715Y-17570143D02*
X10315762Y-17579667D01*
X10315762Y-17579667D02*
X10325286Y-17598714D01*
X10325286Y-17598714D02*
X10325286Y-17617762D01*
X10325286Y-17617762D02*
X10230048Y-17636810D01*
X10401476Y-17693952D02*
X10420524Y-17703476D01*
X10420524Y-17703476D02*
X10458619Y-17703476D01*
X10458619Y-17703476D02*
X10477667Y-17693952D01*
X10477667Y-17693952D02*
X10487191Y-17674905D01*
X10487191Y-17674905D02*
X10487191Y-17665381D01*
X10487191Y-17665381D02*
X10477667Y-17646333D01*
X10477667Y-17646333D02*
X10458619Y-17636810D01*
X10458619Y-17636810D02*
X10430048Y-17636810D01*
X10430048Y-17636810D02*
X10411000Y-17627286D01*
X10411000Y-17627286D02*
X10401476Y-17608238D01*
X10401476Y-17608238D02*
X10401476Y-17598714D01*
X10401476Y-17598714D02*
X10411000Y-17579667D01*
X10411000Y-17579667D02*
X10430048Y-17570143D01*
X10430048Y-17570143D02*
X10458619Y-17570143D01*
X10458619Y-17570143D02*
X10477667Y-17579667D01*
X10553857Y-17779667D02*
X10563381Y-17770143D01*
X10563381Y-17770143D02*
X10582429Y-17741571D01*
X10582429Y-17741571D02*
X10591953Y-17722524D01*
X10591953Y-17722524D02*
X10601476Y-17693952D01*
X10601476Y-17693952D02*
X10611000Y-17646333D01*
X10611000Y-17646333D02*
X10611000Y-17608238D01*
X10611000Y-17608238D02*
X10601476Y-17560619D01*
X10601476Y-17560619D02*
X10591953Y-17532048D01*
X10591953Y-17532048D02*
X10582429Y-17513000D01*
X10582429Y-17513000D02*
X10563381Y-17484429D01*
X10563381Y-17484429D02*
X10553857Y-17474905D01*
X10883381Y-17779667D02*
X10873857Y-17770143D01*
X10873857Y-17770143D02*
X10854810Y-17741571D01*
X10854810Y-17741571D02*
X10845286Y-17722524D01*
X10845286Y-17722524D02*
X10835762Y-17693952D01*
X10835762Y-17693952D02*
X10826238Y-17646333D01*
X10826238Y-17646333D02*
X10826238Y-17608238D01*
X10826238Y-17608238D02*
X10835762Y-17560619D01*
X10835762Y-17560619D02*
X10845286Y-17532048D01*
X10845286Y-17532048D02*
X10854810Y-17513000D01*
X10854810Y-17513000D02*
X10873857Y-17484429D01*
X10873857Y-17484429D02*
X10883381Y-17474905D01*
X10959572Y-17570143D02*
X10959572Y-17703476D01*
X10959572Y-17589190D02*
X10969095Y-17579667D01*
X10969095Y-17579667D02*
X10988143Y-17570143D01*
X10988143Y-17570143D02*
X11016715Y-17570143D01*
X11016715Y-17570143D02*
X11035762Y-17579667D01*
X11035762Y-17579667D02*
X11045286Y-17598714D01*
X11045286Y-17598714D02*
X11045286Y-17703476D01*
X11169095Y-17703476D02*
X11150048Y-17693952D01*
X11150048Y-17693952D02*
X11140524Y-17684429D01*
X11140524Y-17684429D02*
X11131000Y-17665381D01*
X11131000Y-17665381D02*
X11131000Y-17608238D01*
X11131000Y-17608238D02*
X11140524Y-17589190D01*
X11140524Y-17589190D02*
X11150048Y-17579667D01*
X11150048Y-17579667D02*
X11169095Y-17570143D01*
X11169095Y-17570143D02*
X11197667Y-17570143D01*
X11197667Y-17570143D02*
X11216714Y-17579667D01*
X11216714Y-17579667D02*
X11226238Y-17589190D01*
X11226238Y-17589190D02*
X11235762Y-17608238D01*
X11235762Y-17608238D02*
X11235762Y-17665381D01*
X11235762Y-17665381D02*
X11226238Y-17684429D01*
X11226238Y-17684429D02*
X11216714Y-17693952D01*
X11216714Y-17693952D02*
X11197667Y-17703476D01*
X11197667Y-17703476D02*
X11169095Y-17703476D01*
X11292905Y-17570143D02*
X11369095Y-17570143D01*
X11321476Y-17503476D02*
X11321476Y-17674905D01*
X11321476Y-17674905D02*
X11331000Y-17693952D01*
X11331000Y-17693952D02*
X11350048Y-17703476D01*
X11350048Y-17703476D02*
X11369095Y-17703476D01*
X11555762Y-17570143D02*
X11555762Y-17770143D01*
X11555762Y-17579667D02*
X11574810Y-17570143D01*
X11574810Y-17570143D02*
X11612905Y-17570143D01*
X11612905Y-17570143D02*
X11631953Y-17579667D01*
X11631953Y-17579667D02*
X11641476Y-17589190D01*
X11641476Y-17589190D02*
X11651000Y-17608238D01*
X11651000Y-17608238D02*
X11651000Y-17665381D01*
X11651000Y-17665381D02*
X11641476Y-17684429D01*
X11641476Y-17684429D02*
X11631953Y-17693952D01*
X11631953Y-17693952D02*
X11612905Y-17703476D01*
X11612905Y-17703476D02*
X11574810Y-17703476D01*
X11574810Y-17703476D02*
X11555762Y-17693952D01*
X11765286Y-17703476D02*
X11746238Y-17693952D01*
X11746238Y-17693952D02*
X11736714Y-17674905D01*
X11736714Y-17674905D02*
X11736714Y-17503476D01*
X11927191Y-17703476D02*
X11927191Y-17598714D01*
X11927191Y-17598714D02*
X11917667Y-17579667D01*
X11917667Y-17579667D02*
X11898619Y-17570143D01*
X11898619Y-17570143D02*
X11860524Y-17570143D01*
X11860524Y-17570143D02*
X11841476Y-17579667D01*
X11927191Y-17693952D02*
X11908143Y-17703476D01*
X11908143Y-17703476D02*
X11860524Y-17703476D01*
X11860524Y-17703476D02*
X11841476Y-17693952D01*
X11841476Y-17693952D02*
X11831953Y-17674905D01*
X11831953Y-17674905D02*
X11831953Y-17655857D01*
X11831953Y-17655857D02*
X11841476Y-17636810D01*
X11841476Y-17636810D02*
X11860524Y-17627286D01*
X11860524Y-17627286D02*
X11908143Y-17627286D01*
X11908143Y-17627286D02*
X11927191Y-17617762D01*
X11993857Y-17570143D02*
X12070048Y-17570143D01*
X12022429Y-17503476D02*
X12022429Y-17674905D01*
X12022429Y-17674905D02*
X12031953Y-17693952D01*
X12031953Y-17693952D02*
X12051000Y-17703476D01*
X12051000Y-17703476D02*
X12070048Y-17703476D01*
X12212905Y-17693952D02*
X12193857Y-17703476D01*
X12193857Y-17703476D02*
X12155762Y-17703476D01*
X12155762Y-17703476D02*
X12136714Y-17693952D01*
X12136714Y-17693952D02*
X12127191Y-17674905D01*
X12127191Y-17674905D02*
X12127191Y-17598714D01*
X12127191Y-17598714D02*
X12136714Y-17579667D01*
X12136714Y-17579667D02*
X12155762Y-17570143D01*
X12155762Y-17570143D02*
X12193857Y-17570143D01*
X12193857Y-17570143D02*
X12212905Y-17579667D01*
X12212905Y-17579667D02*
X12222429Y-17598714D01*
X12222429Y-17598714D02*
X12222429Y-17617762D01*
X12222429Y-17617762D02*
X12127191Y-17636810D01*
X12393857Y-17703476D02*
X12393857Y-17503476D01*
X12393857Y-17693952D02*
X12374810Y-17703476D01*
X12374810Y-17703476D02*
X12336714Y-17703476D01*
X12336714Y-17703476D02*
X12317667Y-17693952D01*
X12317667Y-17693952D02*
X12308143Y-17684429D01*
X12308143Y-17684429D02*
X12298619Y-17665381D01*
X12298619Y-17665381D02*
X12298619Y-17608238D01*
X12298619Y-17608238D02*
X12308143Y-17589190D01*
X12308143Y-17589190D02*
X12317667Y-17579667D01*
X12317667Y-17579667D02*
X12336714Y-17570143D01*
X12336714Y-17570143D02*
X12374810Y-17570143D01*
X12374810Y-17570143D02*
X12393857Y-17579667D01*
X12470048Y-17779667D02*
X12479572Y-17770143D01*
X12479572Y-17770143D02*
X12498619Y-17741571D01*
X12498619Y-17741571D02*
X12508143Y-17722524D01*
X12508143Y-17722524D02*
X12517667Y-17693952D01*
X12517667Y-17693952D02*
X12527191Y-17646333D01*
X12527191Y-17646333D02*
X12527191Y-17608238D01*
X12527191Y-17608238D02*
X12517667Y-17560619D01*
X12517667Y-17560619D02*
X12508143Y-17532048D01*
X12508143Y-17532048D02*
X12498619Y-17513000D01*
X12498619Y-17513000D02*
X12479572Y-17484429D01*
X12479572Y-17484429D02*
X12470048Y-17474905D01*
M02*
