G04 #@! TF.GenerationSoftware,KiCad,Pcbnew,(7.0.0)*
G04 #@! TF.CreationDate,2023-08-10T18:16:58-07:00*
G04 #@! TF.ProjectId,OpenOblong,4f70656e-4f62-46c6-9f6e-672e6b696361,rev?*
G04 #@! TF.SameCoordinates,Original*
G04 #@! TF.FileFunction,Soldermask,Top*
G04 #@! TF.FilePolarity,Negative*
%FSLAX46Y46*%
G04 Gerber Fmt 4.6, Leading zero omitted, Abs format (unit mm)*
G04 Created by KiCad (PCBNEW (7.0.0)) date 2023-08-10 18:16:58*
%MOMM*%
%LPD*%
G01*
G04 APERTURE LIST*
G04 Aperture macros list*
%AMRoundRect*
0 Rectangle with rounded corners*
0 $1 Rounding radius*
0 $2 $3 $4 $5 $6 $7 $8 $9 X,Y pos of 4 corners*
0 Add a 4 corners polygon primitive as box body*
4,1,4,$2,$3,$4,$5,$6,$7,$8,$9,$2,$3,0*
0 Add four circle primitives for the rounded corners*
1,1,$1+$1,$2,$3*
1,1,$1+$1,$4,$5*
1,1,$1+$1,$6,$7*
1,1,$1+$1,$8,$9*
0 Add four rect primitives between the rounded corners*
20,1,$1+$1,$2,$3,$4,$5,0*
20,1,$1+$1,$4,$5,$6,$7,0*
20,1,$1+$1,$6,$7,$8,$9,0*
20,1,$1+$1,$8,$9,$2,$3,0*%
G04 Aperture macros list end*
%ADD10C,3.800000*%
%ADD11C,1.750000*%
%ADD12C,3.987800*%
%ADD13R,1.100000X1.800000*%
%ADD14RoundRect,0.140000X0.170000X-0.140000X0.170000X0.140000X-0.170000X0.140000X-0.170000X-0.140000X0*%
%ADD15RoundRect,0.200000X-0.275000X0.200000X-0.275000X-0.200000X0.275000X-0.200000X0.275000X0.200000X0*%
%ADD16RoundRect,0.150000X0.587500X0.150000X-0.587500X0.150000X-0.587500X-0.150000X0.587500X-0.150000X0*%
%ADD17RoundRect,0.140000X0.140000X0.170000X-0.140000X0.170000X-0.140000X-0.170000X0.140000X-0.170000X0*%
%ADD18RoundRect,0.200000X0.275000X-0.200000X0.275000X0.200000X-0.275000X0.200000X-0.275000X-0.200000X0*%
%ADD19RoundRect,0.135000X-0.135000X-0.185000X0.135000X-0.185000X0.135000X0.185000X-0.135000X0.185000X0*%
%ADD20RoundRect,0.140000X-0.219203X-0.021213X-0.021213X-0.219203X0.219203X0.021213X0.021213X0.219203X0*%
%ADD21RoundRect,0.135000X0.135000X0.185000X-0.135000X0.185000X-0.135000X-0.185000X0.135000X-0.185000X0*%
%ADD22R,1.400000X1.200000*%
%ADD23RoundRect,0.140000X-0.021213X0.219203X-0.219203X0.021213X0.021213X-0.219203X0.219203X-0.021213X0*%
%ADD24RoundRect,0.250000X-0.375000X-0.625000X0.375000X-0.625000X0.375000X0.625000X-0.375000X0.625000X0*%
%ADD25RoundRect,0.225000X0.375000X-0.225000X0.375000X0.225000X-0.375000X0.225000X-0.375000X-0.225000X0*%
%ADD26RoundRect,0.200000X0.200000X0.275000X-0.200000X0.275000X-0.200000X-0.275000X0.200000X-0.275000X0*%
%ADD27RoundRect,0.140000X-0.140000X-0.170000X0.140000X-0.170000X0.140000X0.170000X-0.140000X0.170000X0*%
%ADD28RoundRect,0.243750X0.243750X0.456250X-0.243750X0.456250X-0.243750X-0.456250X0.243750X-0.456250X0*%
%ADD29RoundRect,0.135000X0.185000X-0.135000X0.185000X0.135000X-0.185000X0.135000X-0.185000X-0.135000X0*%
%ADD30RoundRect,0.140000X-0.170000X0.140000X-0.170000X-0.140000X0.170000X-0.140000X0.170000X0.140000X0*%
%ADD31RoundRect,0.135000X-0.185000X0.135000X-0.185000X-0.135000X0.185000X-0.135000X0.185000X0.135000X0*%
%ADD32C,0.990600*%
%ADD33C,0.787400*%
%ADD34RoundRect,0.050000X-0.387500X-0.050000X0.387500X-0.050000X0.387500X0.050000X-0.387500X0.050000X0*%
%ADD35RoundRect,0.050000X-0.050000X-0.387500X0.050000X-0.387500X0.050000X0.387500X-0.050000X0.387500X0*%
%ADD36RoundRect,0.144000X-1.456000X-1.456000X1.456000X-1.456000X1.456000X1.456000X-1.456000X1.456000X0*%
%ADD37RoundRect,0.150000X-0.150000X0.512500X-0.150000X-0.512500X0.150000X-0.512500X0.150000X0.512500X0*%
%ADD38C,0.650000*%
%ADD39R,0.300000X0.900000*%
%ADD40R,0.300000X0.700000*%
%ADD41O,0.800000X1.400000*%
%ADD42RoundRect,0.150000X-0.650000X-0.150000X0.650000X-0.150000X0.650000X0.150000X-0.650000X0.150000X0*%
%ADD43C,3.300000*%
G04 APERTURE END LIST*
D10*
X279275000Y-98760000D03*
X305060000Y-47313383D03*
D11*
X327915568Y-44011907D03*
D12*
X322835568Y-44011907D03*
D11*
X317755568Y-44011907D03*
X254662967Y-83893373D03*
D12*
X249582967Y-83893373D03*
D11*
X244502967Y-83893373D03*
X305331667Y-60978545D03*
D12*
X300251667Y-60978545D03*
D11*
X295171667Y-60978545D03*
X261955123Y-113477547D03*
D12*
X256875123Y-113477547D03*
D11*
X251795123Y-113477547D03*
D13*
X189459999Y-31399999D03*
X189459999Y-37599999D03*
X185759999Y-31399999D03*
X185759999Y-37599999D03*
D10*
X111765000Y-98760000D03*
D14*
X193344750Y-51676018D03*
X193344750Y-50716018D03*
D15*
X209030000Y-48780000D03*
X209030000Y-50430000D03*
D11*
X128009442Y-66373538D03*
D12*
X122929442Y-66373538D03*
D11*
X117849442Y-66373538D03*
X182791303Y-154907386D03*
D12*
X177711303Y-154907386D03*
D11*
X172631303Y-154907386D03*
X71275977Y-70872122D03*
D12*
X66195977Y-70872122D03*
D11*
X61115977Y-70872122D03*
X298435673Y-35309333D03*
D12*
X293355673Y-35309333D03*
D11*
X288275673Y-35309333D03*
D16*
X204290000Y-41770000D03*
X204290000Y-39870000D03*
X202415000Y-40820000D03*
D17*
X203380000Y-38580000D03*
X202420000Y-38580000D03*
D18*
X210570000Y-50425000D03*
X210570000Y-48775000D03*
D19*
X213350000Y-53360000D03*
X214370000Y-53360000D03*
D11*
X277172853Y-65443729D03*
D12*
X272092853Y-65443729D03*
D11*
X267012853Y-65443729D03*
X218156182Y-125213438D03*
D12*
X213076182Y-125213438D03*
D11*
X207996182Y-125213438D03*
D20*
X205546589Y-57476482D03*
X206225411Y-58155304D03*
D21*
X194940000Y-35230000D03*
X193920000Y-35230000D03*
D10*
X92395000Y-143800000D03*
D11*
X190553308Y-131265902D03*
D12*
X185473308Y-131265902D03*
D11*
X180393308Y-131265902D03*
D22*
X197393999Y-65189249D03*
X195193999Y-65189249D03*
X195193999Y-66889249D03*
X197393999Y-66889249D03*
D23*
X192668161Y-56698607D03*
X191989339Y-57377429D03*
D11*
X203658500Y-81326866D03*
D12*
X198578500Y-81326866D03*
D11*
X193498500Y-81326866D03*
D14*
X199567750Y-66535018D03*
X199567750Y-65575018D03*
D24*
X202310000Y-35460000D03*
X205110000Y-35460000D03*
D25*
X208830000Y-39130000D03*
X208830000Y-35830000D03*
D26*
X206520000Y-26720000D03*
X204870000Y-26720000D03*
D17*
X206400000Y-45425000D03*
X205440000Y-45425000D03*
D27*
X205440000Y-46625000D03*
X206400000Y-46625000D03*
D28*
X217425000Y-53350000D03*
X215550000Y-53350000D03*
D14*
X201345750Y-49136018D03*
X201345750Y-48176018D03*
D29*
X197437000Y-62993250D03*
X197437000Y-61973250D03*
D30*
X200993000Y-62003250D03*
X200993000Y-62963250D03*
D27*
X204577000Y-49910250D03*
X205537000Y-49910250D03*
D11*
X247767232Y-58225127D03*
D12*
X242687232Y-58225127D03*
D11*
X237607232Y-58225127D03*
D14*
X202361750Y-49136018D03*
X202361750Y-48176018D03*
D27*
X194620000Y-41640000D03*
X195580000Y-41640000D03*
D30*
X192865000Y-65829018D03*
X192865000Y-66789018D03*
D11*
X236988565Y-109108960D03*
D12*
X231908565Y-109108960D03*
D11*
X226828565Y-109108960D03*
X164957695Y-133803616D03*
D12*
X159877695Y-133803616D03*
D11*
X154797695Y-133803616D03*
D15*
X200540000Y-42315000D03*
X200540000Y-43965000D03*
D11*
X150631535Y-84613063D03*
D12*
X145551535Y-84613063D03*
D11*
X140471535Y-84613063D03*
D31*
X185850000Y-39210000D03*
X185850000Y-40230000D03*
D10*
X98000000Y-47313383D03*
D11*
X270276859Y-39774517D03*
D12*
X265196859Y-39774517D03*
D11*
X260116859Y-39774517D03*
X99914109Y-61667579D03*
D12*
X94834109Y-61667579D03*
D11*
X89754109Y-61667579D03*
D15*
X199010000Y-42315000D03*
X199010000Y-43965000D03*
D14*
X198580000Y-47342250D03*
X198580000Y-46382250D03*
D32*
X205850000Y-63580000D03*
X206866000Y-68660000D03*
X204834000Y-68660000D03*
D33*
X205215000Y-64850000D03*
X206485000Y-64850000D03*
X205215000Y-66120000D03*
X206485000Y-66120000D03*
X205215000Y-67390000D03*
X206485000Y-67390000D03*
D25*
X206450000Y-44060000D03*
X206450000Y-40760000D03*
D10*
X304995000Y-143800000D03*
D30*
X199469000Y-62003250D03*
X199469000Y-62963250D03*
D11*
X221227454Y-152335835D03*
D12*
X216147454Y-152335835D03*
D11*
X211067454Y-152335835D03*
D34*
X195142500Y-52295000D03*
X195142500Y-52695000D03*
X195142500Y-53095000D03*
X195142500Y-53495000D03*
X195142500Y-53895000D03*
X195142500Y-54295000D03*
X195142500Y-54695000D03*
X195142500Y-55095000D03*
X195142500Y-55495000D03*
X195142500Y-55895000D03*
X195142500Y-56295000D03*
X195142500Y-56695000D03*
X195142500Y-57095000D03*
X195142500Y-57495000D03*
D35*
X195980000Y-58332500D03*
X196380000Y-58332500D03*
X196780000Y-58332500D03*
X197180000Y-58332500D03*
X197580000Y-58332500D03*
X197980000Y-58332500D03*
X198380000Y-58332500D03*
X198780000Y-58332500D03*
X199180000Y-58332500D03*
X199580000Y-58332500D03*
X199980000Y-58332500D03*
X200380000Y-58332500D03*
X200780000Y-58332500D03*
X201180000Y-58332500D03*
D34*
X202017500Y-57495000D03*
X202017500Y-57095000D03*
X202017500Y-56695000D03*
X202017500Y-56295000D03*
X202017500Y-55895000D03*
X202017500Y-55495000D03*
X202017500Y-55095000D03*
X202017500Y-54695000D03*
X202017500Y-54295000D03*
X202017500Y-53895000D03*
X202017500Y-53495000D03*
X202017500Y-53095000D03*
X202017500Y-52695000D03*
X202017500Y-52295000D03*
D35*
X201180000Y-51457500D03*
X200780000Y-51457500D03*
X200380000Y-51457500D03*
X199980000Y-51457500D03*
X199580000Y-51457500D03*
X199180000Y-51457500D03*
X198780000Y-51457500D03*
X198380000Y-51457500D03*
X197980000Y-51457500D03*
X197580000Y-51457500D03*
X197180000Y-51457500D03*
X196780000Y-51457500D03*
X196380000Y-51457500D03*
X195980000Y-51457500D03*
D36*
X198580000Y-54895000D03*
D14*
X197056000Y-47342250D03*
X197056000Y-46382250D03*
D11*
X244059837Y-134231357D03*
D12*
X238979837Y-134231357D03*
D11*
X233899837Y-134231357D03*
D10*
X220290000Y-34240000D03*
X177100000Y-34240000D03*
D11*
X334811562Y-69681119D03*
D12*
X329731562Y-69681119D03*
D11*
X324651562Y-69681119D03*
D21*
X205010000Y-61930000D03*
X203990000Y-61930000D03*
D37*
X199530000Y-36212500D03*
X198580000Y-36212500D03*
X197630000Y-36212500D03*
X197630000Y-38487500D03*
X198580000Y-38487500D03*
X199530000Y-38487500D03*
D27*
X204577000Y-51434250D03*
X205537000Y-51434250D03*
D19*
X204750000Y-32570000D03*
X205770000Y-32570000D03*
D38*
X202178500Y-32360000D03*
X194828500Y-32360000D03*
D39*
X201328499Y-32919999D03*
X200828499Y-32919999D03*
X200328499Y-32919999D03*
X199828499Y-32919999D03*
X199328499Y-32919999D03*
D40*
X198828499Y-32919999D03*
X198328499Y-32919999D03*
D39*
X197828499Y-32919999D03*
X197328499Y-32919999D03*
X196828499Y-32919999D03*
X196328499Y-32919999D03*
X195828499Y-32919999D03*
D38*
X195778500Y-31710000D03*
X196178500Y-31010000D03*
X196978500Y-31010000D03*
X197378500Y-31710000D03*
X197778500Y-31010000D03*
X198178500Y-31710000D03*
X198978500Y-31710000D03*
X199378500Y-31010000D03*
X199778500Y-31710000D03*
X200178500Y-31010000D03*
X200978500Y-31010000D03*
X201378500Y-31710000D03*
D41*
X203068499Y-26719999D03*
X202633499Y-31109999D03*
X194373499Y-31109999D03*
X194088499Y-26719999D03*
D42*
X185850000Y-41645000D03*
X185850000Y-42915000D03*
X185850000Y-44185000D03*
X185850000Y-45455000D03*
X193050000Y-45455000D03*
X193050000Y-44185000D03*
X193050000Y-42915000D03*
X193050000Y-41645000D03*
D11*
X71275977Y-70872122D03*
D12*
X66195977Y-70872122D03*
D11*
X61115977Y-70872122D03*
D43*
X62385977Y-68332122D03*
X68735977Y-65792122D03*
D11*
X247767232Y-58225127D03*
D12*
X242687232Y-58225127D03*
D11*
X237607232Y-58225127D03*
D43*
X238877232Y-55685127D03*
X245227232Y-53145127D03*
D11*
X254662967Y-83893373D03*
D12*
X249582967Y-83893373D03*
D11*
X244502967Y-83893373D03*
D43*
X245772967Y-81353373D03*
X252122967Y-78813373D03*
D11*
X203658500Y-81326866D03*
D12*
X198578500Y-81326866D03*
D11*
X193498500Y-81326866D03*
D43*
X194768500Y-78786866D03*
X201118500Y-76246866D03*
D11*
X218156182Y-125213438D03*
D12*
X213076182Y-125213438D03*
D11*
X207996182Y-125213438D03*
D43*
X209266182Y-122673438D03*
X215616182Y-120133438D03*
D11*
X99914109Y-61667579D03*
D12*
X94834109Y-61667579D03*
D11*
X89754109Y-61667579D03*
D43*
X91024109Y-59127579D03*
X97374109Y-56587579D03*
D11*
X261955123Y-113477547D03*
D12*
X256875123Y-113477547D03*
D11*
X251795123Y-113477547D03*
D43*
X253065123Y-110937547D03*
X259415123Y-108397547D03*
D11*
X150631535Y-84613063D03*
D12*
X145551535Y-84613063D03*
D11*
X140471535Y-84613063D03*
D43*
X141741535Y-82073063D03*
X148091535Y-79533063D03*
D11*
X270276859Y-39774517D03*
D12*
X265196859Y-39774517D03*
D11*
X260116859Y-39774517D03*
D43*
X261386859Y-37234517D03*
X267736859Y-34694517D03*
D11*
X128009442Y-66373538D03*
D12*
X122929442Y-66373538D03*
D11*
X117849442Y-66373538D03*
D43*
X119119442Y-63833538D03*
X125469442Y-61293538D03*
D11*
X221227454Y-152335835D03*
D12*
X216147454Y-152335835D03*
D11*
X211067454Y-152335835D03*
D43*
X212337454Y-149795835D03*
X218687454Y-147255835D03*
D11*
X182791303Y-154907386D03*
D12*
X177711303Y-154907386D03*
D11*
X172631303Y-154907386D03*
D43*
X173901303Y-152367386D03*
X180251303Y-149827386D03*
D11*
X164957695Y-133803616D03*
D12*
X159877695Y-133803616D03*
D11*
X154797695Y-133803616D03*
D43*
X156067695Y-131263616D03*
X162417695Y-128723616D03*
D11*
X305331667Y-60978545D03*
D12*
X300251667Y-60978545D03*
D11*
X295171667Y-60978545D03*
D43*
X296441667Y-58438545D03*
X302791667Y-55898545D03*
D11*
X327915568Y-44011907D03*
D12*
X322835568Y-44011907D03*
D11*
X317755568Y-44011907D03*
D43*
X319025568Y-41471907D03*
X325375568Y-38931907D03*
D11*
X244059837Y-134231357D03*
D12*
X238979837Y-134231357D03*
D11*
X233899837Y-134231357D03*
D43*
X235169837Y-131691357D03*
X241519837Y-129151357D03*
D11*
X277172853Y-65443729D03*
D12*
X272092853Y-65443729D03*
D11*
X267012853Y-65443729D03*
D43*
X268282853Y-62903729D03*
X274632853Y-60363729D03*
D11*
X334811562Y-69681119D03*
D12*
X329731562Y-69681119D03*
D11*
X324651562Y-69681119D03*
D43*
X325921562Y-67141119D03*
X332271562Y-64601119D03*
D11*
X298435673Y-35309333D03*
D12*
X293355673Y-35309333D03*
D11*
X288275673Y-35309333D03*
D43*
X289545673Y-32769333D03*
X295895673Y-30229333D03*
D11*
X190558441Y-131263600D03*
D12*
X185478441Y-131263600D03*
D11*
X180398441Y-131263600D03*
D43*
X181668441Y-128723600D03*
X188018441Y-126183600D03*
D11*
X236988565Y-109108960D03*
D12*
X231908565Y-109108960D03*
D11*
X226828565Y-109108960D03*
D43*
X228098565Y-106568960D03*
X234448565Y-104028960D03*
M02*
