M48
; DRILL file {KiCad (7.0.0)} date Thu Aug 10 18:17:02 2023
; FORMAT={-:-/ absolute / metric / decimal}
; #@! TF.CreationDate,2023-08-10T18:17:02-07:00
; #@! TF.GenerationSoftware,Kicad,Pcbnew,(7.0.0)
; #@! TF.FileFunction,Plated,1,2,PTH
FMAT,2
METRIC
; #@! TA.AperFunction,Plated,PTH,ViaDrill
T1C0.300
; #@! TA.AperFunction,Plated,PTH,ViaDrill
T2C0.350
; #@! TA.AperFunction,Plated,PTH,ComponentDrill
T3C0.350
; #@! TA.AperFunction,Plated,PTH,ViaDrill
T4C0.400
; #@! TA.AperFunction,Plated,PTH,ComponentDrill
T5C0.400
; #@! TA.AperFunction,Plated,PTH,ComponentDrill
T6C0.500
; #@! TA.AperFunction,Plated,PTH,ComponentDrill
T7C1.524
; #@! TA.AperFunction,Plated,PTH,ComponentDrill
T8C1.800
; #@! TA.AperFunction,Plated,PTH,ComponentDrill
T9C3.000
%
G90
G05
T1
X179.22Y-117.19
X187.627Y-45.465
X189.73Y-61.48
X189.73Y-52.4
X191.313Y-58.054
X192.865Y-64.912
X193.12Y-58.22
X193.345Y-49.926
X194.62Y-42.67
X196.0Y-37.35
X196.6Y-41.63
X196.67Y-34.71
X197.79Y-45.735
X197.945Y-48.767
X198.806Y-48.275
X198.901Y-45.243
X198.928Y-34.01
X198.933Y-61.102
X199.568Y-67.579
X200.203Y-63.896
X200.52Y-34.71
X200.61Y-35.81
X200.806Y-45.243
X201.854Y-61.991
X202.362Y-47.259
X204.013Y-67.39
X204.17Y-38.57
X204.413Y-64.87
X204.65Y-46.635
X204.75Y-33.5
X205.537Y-49.07
X205.67Y-52.78
X205.83Y-55.22
X206.902Y-58.832
X207.26Y-45.475
X207.48Y-54.56
X208.26Y-52.84
X208.34Y-66.09
X208.344Y-69.424
X208.517Y-54.258
X209.262Y-32.468
X209.8Y-115.17
X209.85Y-109.67
X211.68Y-53.37
X218.63Y-137.35
X230.89Y-122.83
X241.28Y-78.26
T2
X199.187Y-56.994
X199.314Y-52.757
T3
X197.305Y-53.62
X197.305Y-54.895
X197.305Y-56.17
X198.58Y-53.62
X198.58Y-54.895
X198.58Y-56.17
X199.855Y-53.62
X199.855Y-54.895
X199.855Y-56.17
T4
X162.13Y-74.05
X162.13Y-76.55
X193.0Y-28.64
X193.1Y-29.74
T5
X195.778Y-31.71
X196.178Y-31.01
X196.978Y-31.01
X197.379Y-31.71
X197.778Y-31.01
X198.178Y-31.71
X198.978Y-31.71
X199.379Y-31.01
X199.778Y-31.71
X200.178Y-31.01
X200.978Y-31.01
X201.379Y-31.71
T7
X63.656Y-75.952
X70.006Y-73.412
X92.294Y-66.748
X98.644Y-64.208
X120.389Y-71.454
X126.739Y-68.914
X143.012Y-89.693
X149.362Y-87.153
X157.338Y-138.884
X163.688Y-136.344
X175.171Y-159.987
X181.521Y-157.447
X182.933Y-136.346
X189.283Y-133.806
X196.038Y-86.407
X202.388Y-83.867
X210.536Y-130.293
X213.607Y-157.416
X216.886Y-127.753
X219.957Y-154.876
X229.369Y-114.189
X235.719Y-111.649
X236.44Y-139.311
X240.147Y-63.305
X242.79Y-136.771
X246.497Y-60.765
X247.043Y-88.973
X253.393Y-86.433
X254.335Y-118.558
X260.685Y-116.018
X262.657Y-44.855
X269.007Y-42.315
X269.553Y-70.524
X275.903Y-67.984
X290.816Y-40.389
X297.166Y-37.849
X297.712Y-66.059
X304.062Y-63.519
X320.296Y-49.092
X326.646Y-46.552
X327.192Y-74.761
X333.542Y-72.221
T8
X92.395Y-143.8
X98.0Y-47.313
X111.765Y-98.76
X177.1Y-34.24
X220.29Y-34.24
X279.275Y-98.76
X304.995Y-143.8
X305.06Y-47.313
T9
X62.386Y-68.332
X68.736Y-65.792
X91.024Y-59.128
X97.374Y-56.588
X119.119Y-63.834
X125.469Y-61.294
X141.742Y-82.073
X148.092Y-79.533
X156.068Y-131.264
X162.418Y-128.724
X173.901Y-152.367
X180.251Y-149.827
X181.668Y-128.724
X188.018Y-126.184
X194.768Y-78.787
X201.118Y-76.247
X209.266Y-122.673
X212.337Y-149.796
X215.616Y-120.133
X218.687Y-147.256
X228.099Y-106.569
X234.449Y-104.029
X235.17Y-131.691
X238.877Y-55.685
X241.52Y-129.151
X245.227Y-53.145
X245.773Y-81.353
X252.123Y-78.813
X253.065Y-110.938
X259.415Y-108.398
X261.387Y-37.235
X267.737Y-34.695
X268.283Y-62.904
X274.633Y-60.364
X289.546Y-32.769
X295.896Y-30.229
X296.442Y-58.439
X302.792Y-55.899
X319.026Y-41.472
X325.376Y-38.932
X325.922Y-67.141
X332.272Y-64.601
T6
X194.088Y-27.02G85X194.088Y-26.42
G05
X194.373Y-31.41G85X194.373Y-30.81
G05
X202.633Y-31.41G85X202.633Y-30.81
G05
X203.069Y-27.02G85X203.069Y-26.42
G05
T0
M30
