M48
; DRILL file {KiCad (7.0.0)} date Thu Aug 10 18:17:02 2023
; FORMAT={-:-/ absolute / metric / decimal}
; #@! TF.CreationDate,2023-08-10T18:17:02-07:00
; #@! TF.GenerationSoftware,Kicad,Pcbnew,(7.0.0)
; #@! TF.FileFunction,NonPlated,1,2,NPTH
FMAT,2
METRIC
; #@! TA.AperFunction,NonPlated,NPTH,ComponentDrill
T1C0.650
; #@! TA.AperFunction,NonPlated,NPTH,ComponentDrill
T2C0.991
; #@! TA.AperFunction,NonPlated,NPTH,ComponentDrill
T3C1.750
; #@! TA.AperFunction,NonPlated,NPTH,ComponentDrill
T4C3.988
%
G90
G05
T1
X194.828Y-32.36
X202.178Y-32.36
T2
X204.834Y-68.66
X205.85Y-63.58
X206.866Y-68.66
T3
X61.116Y-70.872
X61.116Y-70.872
X71.276Y-70.872
X71.276Y-70.872
X89.754Y-61.668
X89.754Y-61.668
X99.914Y-61.668
X99.914Y-61.668
X117.849Y-66.374
X117.849Y-66.374
X128.009Y-66.374
X128.009Y-66.374
X140.472Y-84.613
X140.472Y-84.613
X150.632Y-84.613
X150.632Y-84.613
X154.798Y-133.804
X154.798Y-133.804
X164.958Y-133.804
X164.958Y-133.804
X172.631Y-154.907
X172.631Y-154.907
X180.393Y-131.266
X180.398Y-131.264
X182.791Y-154.907
X182.791Y-154.907
X190.553Y-131.266
X190.558Y-131.264
X193.498Y-81.327
X193.498Y-81.327
X203.659Y-81.327
X203.659Y-81.327
X207.996Y-125.213
X207.996Y-125.213
X211.067Y-152.336
X211.067Y-152.336
X218.156Y-125.213
X218.156Y-125.213
X221.227Y-152.336
X221.227Y-152.336
X226.829Y-109.109
X226.829Y-109.109
X233.9Y-134.231
X233.9Y-134.231
X236.989Y-109.109
X236.989Y-109.109
X237.607Y-58.225
X237.607Y-58.225
X244.06Y-134.231
X244.06Y-134.231
X244.503Y-83.893
X244.503Y-83.893
X247.767Y-58.225
X247.767Y-58.225
X251.795Y-113.478
X251.795Y-113.478
X254.663Y-83.893
X254.663Y-83.893
X260.117Y-39.775
X260.117Y-39.775
X261.955Y-113.478
X261.955Y-113.478
X267.013Y-65.444
X267.013Y-65.444
X270.277Y-39.775
X270.277Y-39.775
X277.173Y-65.444
X277.173Y-65.444
X288.276Y-35.309
X288.276Y-35.309
X295.172Y-60.979
X295.172Y-60.979
X298.436Y-35.309
X298.436Y-35.309
X305.332Y-60.979
X305.332Y-60.979
X317.756Y-44.012
X317.756Y-44.012
X324.652Y-69.681
X324.652Y-69.681
X327.916Y-44.012
X327.916Y-44.012
X334.812Y-69.681
X334.812Y-69.681
T4
X66.196Y-70.872
X66.196Y-70.872
X94.834Y-61.668
X94.834Y-61.668
X122.929Y-66.374
X122.929Y-66.374
X145.552Y-84.613
X145.552Y-84.613
X159.878Y-133.804
X159.878Y-133.804
X177.711Y-154.907
X177.711Y-154.907
X185.473Y-131.266
X185.478Y-131.264
X198.578Y-81.327
X198.578Y-81.327
X213.076Y-125.213
X213.076Y-125.213
X216.147Y-152.336
X216.147Y-152.336
X231.909Y-109.109
X231.909Y-109.109
X238.98Y-134.231
X238.98Y-134.231
X242.687Y-58.225
X242.687Y-58.225
X249.583Y-83.893
X249.583Y-83.893
X256.875Y-113.478
X256.875Y-113.478
X265.197Y-39.775
X265.197Y-39.775
X272.093Y-65.444
X272.093Y-65.444
X293.356Y-35.309
X293.356Y-35.309
X300.252Y-60.979
X300.252Y-60.979
X322.836Y-44.012
X322.836Y-44.012
X329.732Y-69.681
X329.732Y-69.681
T0
M30
