G04 #@! TF.GenerationSoftware,KiCad,Pcbnew,(7.0.0)*
G04 #@! TF.CreationDate,2023-04-19T14:41:35-07:00*
G04 #@! TF.ProjectId,OpenRectangle,4f70656e-5265-4637-9461-6e676c652e6b,rev?*
G04 #@! TF.SameCoordinates,Original*
G04 #@! TF.FileFunction,Soldermask,Top*
G04 #@! TF.FilePolarity,Negative*
%FSLAX46Y46*%
G04 Gerber Fmt 4.6, Leading zero omitted, Abs format (unit mm)*
G04 Created by KiCad (PCBNEW (7.0.0)) date 2023-04-19 14:41:35*
%MOMM*%
%LPD*%
G01*
G04 APERTURE LIST*
G04 Aperture macros list*
%AMRoundRect*
0 Rectangle with rounded corners*
0 $1 Rounding radius*
0 $2 $3 $4 $5 $6 $7 $8 $9 X,Y pos of 4 corners*
0 Add a 4 corners polygon primitive as box body*
4,1,4,$2,$3,$4,$5,$6,$7,$8,$9,$2,$3,0*
0 Add four circle primitives for the rounded corners*
1,1,$1+$1,$2,$3*
1,1,$1+$1,$4,$5*
1,1,$1+$1,$6,$7*
1,1,$1+$1,$8,$9*
0 Add four rect primitives between the rounded corners*
20,1,$1+$1,$2,$3,$4,$5,0*
20,1,$1+$1,$4,$5,$6,$7,0*
20,1,$1+$1,$6,$7,$8,$9,0*
20,1,$1+$1,$8,$9,$2,$3,0*%
G04 Aperture macros list end*
%ADD10RoundRect,0.200000X0.275000X-0.200000X0.275000X0.200000X-0.275000X0.200000X-0.275000X-0.200000X0*%
%ADD11C,3.800000*%
%ADD12C,1.750000*%
%ADD13C,3.987800*%
%ADD14R,1.100000X1.800000*%
%ADD15RoundRect,0.140000X0.170000X-0.140000X0.170000X0.140000X-0.170000X0.140000X-0.170000X-0.140000X0*%
%ADD16RoundRect,0.200000X-0.275000X0.200000X-0.275000X-0.200000X0.275000X-0.200000X0.275000X0.200000X0*%
%ADD17RoundRect,0.150000X0.587500X0.150000X-0.587500X0.150000X-0.587500X-0.150000X0.587500X-0.150000X0*%
%ADD18RoundRect,0.140000X0.140000X0.170000X-0.140000X0.170000X-0.140000X-0.170000X0.140000X-0.170000X0*%
%ADD19RoundRect,0.135000X-0.135000X-0.185000X0.135000X-0.185000X0.135000X0.185000X-0.135000X0.185000X0*%
%ADD20RoundRect,0.140000X-0.219203X-0.021213X-0.021213X-0.219203X0.219203X0.021213X0.021213X0.219203X0*%
%ADD21RoundRect,0.135000X0.135000X0.185000X-0.135000X0.185000X-0.135000X-0.185000X0.135000X-0.185000X0*%
%ADD22R,1.400000X1.200000*%
%ADD23RoundRect,0.140000X-0.021213X0.219203X-0.219203X0.021213X0.021213X-0.219203X0.219203X-0.021213X0*%
%ADD24RoundRect,0.250000X-0.375000X-0.625000X0.375000X-0.625000X0.375000X0.625000X-0.375000X0.625000X0*%
%ADD25RoundRect,0.225000X0.375000X-0.225000X0.375000X0.225000X-0.375000X0.225000X-0.375000X-0.225000X0*%
%ADD26RoundRect,0.200000X0.200000X0.275000X-0.200000X0.275000X-0.200000X-0.275000X0.200000X-0.275000X0*%
%ADD27RoundRect,0.140000X-0.140000X-0.170000X0.140000X-0.170000X0.140000X0.170000X-0.140000X0.170000X0*%
%ADD28RoundRect,0.243750X0.243750X0.456250X-0.243750X0.456250X-0.243750X-0.456250X0.243750X-0.456250X0*%
%ADD29RoundRect,0.135000X0.185000X-0.135000X0.185000X0.135000X-0.185000X0.135000X-0.185000X-0.135000X0*%
%ADD30RoundRect,0.140000X-0.170000X0.140000X-0.170000X-0.140000X0.170000X-0.140000X0.170000X0.140000X0*%
%ADD31C,3.300000*%
%ADD32RoundRect,0.135000X-0.185000X0.135000X-0.185000X-0.135000X0.185000X-0.135000X0.185000X0.135000X0*%
%ADD33C,0.990600*%
%ADD34C,0.787400*%
%ADD35RoundRect,0.050000X-0.387500X-0.050000X0.387500X-0.050000X0.387500X0.050000X-0.387500X0.050000X0*%
%ADD36RoundRect,0.050000X-0.050000X-0.387500X0.050000X-0.387500X0.050000X0.387500X-0.050000X0.387500X0*%
%ADD37RoundRect,0.144000X-1.456000X-1.456000X1.456000X-1.456000X1.456000X1.456000X-1.456000X1.456000X0*%
%ADD38RoundRect,0.150000X-0.150000X0.512500X-0.150000X-0.512500X0.150000X-0.512500X0.150000X0.512500X0*%
%ADD39C,0.650000*%
%ADD40R,0.300000X0.900000*%
%ADD41R,0.300000X0.700000*%
%ADD42O,0.800000X1.400000*%
%ADD43RoundRect,0.150000X-0.650000X-0.150000X0.650000X-0.150000X0.650000X0.150000X-0.650000X0.150000X0*%
G04 APERTURE END LIST*
D10*
X210570000Y-50425000D03*
X210570000Y-48775000D03*
D11*
X2175000Y-7525000D03*
X2175000Y-2175000D03*
D12*
X180566194Y-129950398D03*
D13*
X185473097Y-131265199D03*
D12*
X190380000Y-132580000D03*
X71246229Y-96716953D03*
D13*
X66339326Y-95402152D03*
D12*
X61432423Y-94087351D03*
D11*
X279275000Y-98760000D03*
X305060000Y-47313383D03*
D12*
X327742471Y-42697106D03*
D13*
X322835568Y-44011907D03*
D12*
X317928665Y-45326708D03*
X254489870Y-82578572D03*
D13*
X249582967Y-83893373D03*
D12*
X244676064Y-85208174D03*
X305158570Y-59663744D03*
D13*
X300251667Y-60978545D03*
D12*
X295344764Y-62293346D03*
X261782026Y-112162746D03*
D13*
X256875123Y-113477547D03*
D12*
X251968220Y-114792348D03*
D14*
X189459999Y-31399999D03*
X189459999Y-37599999D03*
X185759999Y-31399999D03*
X185759999Y-37599999D03*
D11*
X111765000Y-98760000D03*
D15*
X193344750Y-51676018D03*
X193344750Y-50716018D03*
D16*
X209030000Y-48780000D03*
X209030000Y-50430000D03*
D12*
X127836345Y-67688339D03*
D13*
X122929442Y-66373538D03*
D12*
X118022539Y-65058737D03*
X182618206Y-156222187D03*
D13*
X177711303Y-154907386D03*
D12*
X172804400Y-153592585D03*
X71102880Y-72186923D03*
D13*
X66195977Y-70872122D03*
D12*
X61289074Y-69557321D03*
X298262576Y-33994532D03*
D13*
X293355673Y-35309333D03*
D12*
X288448770Y-36624134D03*
D17*
X204290000Y-41770000D03*
X204290000Y-39870000D03*
X202415000Y-40820000D03*
D18*
X203380000Y-38580000D03*
X202420000Y-38580000D03*
D19*
X207820000Y-53510000D03*
X208840000Y-53510000D03*
D12*
X276999756Y-64128928D03*
D13*
X272092853Y-65443729D03*
D12*
X267185950Y-66758530D03*
X217983085Y-123898637D03*
D13*
X213076182Y-125213438D03*
D12*
X208169279Y-126528239D03*
D20*
X205546589Y-57476482D03*
X206225411Y-58155304D03*
D21*
X194940000Y-35230000D03*
X193920000Y-35230000D03*
D11*
X92395000Y-143800000D03*
D22*
X197393999Y-65189249D03*
X195193999Y-65189249D03*
X195193999Y-66889249D03*
X197393999Y-66889249D03*
D23*
X192668161Y-56698607D03*
X191989339Y-57377429D03*
D12*
X203658500Y-81326866D03*
D13*
X198578500Y-81326866D03*
D12*
X193498500Y-81326866D03*
D15*
X199567750Y-66535018D03*
X199567750Y-65575018D03*
D24*
X202310000Y-35460000D03*
X205110000Y-35460000D03*
D25*
X208830000Y-39130000D03*
X208830000Y-35830000D03*
D26*
X206520000Y-26720000D03*
X204870000Y-26720000D03*
D18*
X206400000Y-45425000D03*
X205440000Y-45425000D03*
D27*
X205440000Y-46625000D03*
X206400000Y-46625000D03*
D28*
X211895000Y-53500000D03*
X210020000Y-53500000D03*
D15*
X201345750Y-49136018D03*
X201345750Y-48176018D03*
D29*
X197437000Y-62993250D03*
X197437000Y-61973250D03*
D30*
X200993000Y-62003250D03*
X200993000Y-62963250D03*
D27*
X204577000Y-49910250D03*
X205537000Y-49910250D03*
D31*
X70070000Y-91180000D03*
X63278971Y-91989951D03*
D12*
X61394845Y-94114702D03*
D13*
X66301748Y-95429503D03*
D12*
X71208651Y-96744304D03*
X247594135Y-56910326D03*
D13*
X242687232Y-58225127D03*
D12*
X237780329Y-59539928D03*
D15*
X202361750Y-49136018D03*
X202361750Y-48176018D03*
D27*
X194620000Y-41640000D03*
X195580000Y-41640000D03*
D30*
X192865000Y-65829018D03*
X192865000Y-66789018D03*
D12*
X236815468Y-107794159D03*
D13*
X231908565Y-109108960D03*
D12*
X227001662Y-110423761D03*
X164784598Y-135118417D03*
D13*
X159877695Y-133803616D03*
D12*
X154970792Y-132488815D03*
D16*
X200540000Y-42315000D03*
X200540000Y-43965000D03*
D12*
X150458438Y-85927864D03*
D13*
X145551535Y-84613063D03*
D12*
X140644632Y-83298262D03*
D32*
X185850000Y-39210000D03*
X185850000Y-40230000D03*
D11*
X98000000Y-47313383D03*
D12*
X270103762Y-38459716D03*
D13*
X265196859Y-39774517D03*
D12*
X260289956Y-41089318D03*
X99741012Y-62982380D03*
D13*
X94834109Y-61667579D03*
D12*
X89927206Y-60352778D03*
D16*
X199010000Y-42315000D03*
X199010000Y-43965000D03*
D15*
X198580000Y-47342250D03*
X198580000Y-46382250D03*
D33*
X205850000Y-63580000D03*
X206866000Y-68660000D03*
X204834000Y-68660000D03*
D34*
X205215000Y-64850000D03*
X206485000Y-64850000D03*
X205215000Y-66120000D03*
X206485000Y-66120000D03*
X205215000Y-67390000D03*
X206485000Y-67390000D03*
D25*
X206450000Y-44060000D03*
X206450000Y-40760000D03*
D11*
X304995000Y-143800000D03*
D30*
X199469000Y-62003250D03*
X199469000Y-62963250D03*
D12*
X221054357Y-151021034D03*
D13*
X216147454Y-152335835D03*
D12*
X211240551Y-153650636D03*
D35*
X195142500Y-52295000D03*
X195142500Y-52695000D03*
X195142500Y-53095000D03*
X195142500Y-53495000D03*
X195142500Y-53895000D03*
X195142500Y-54295000D03*
X195142500Y-54695000D03*
X195142500Y-55095000D03*
X195142500Y-55495000D03*
X195142500Y-55895000D03*
X195142500Y-56295000D03*
X195142500Y-56695000D03*
X195142500Y-57095000D03*
X195142500Y-57495000D03*
D36*
X195980000Y-58332500D03*
X196380000Y-58332500D03*
X196780000Y-58332500D03*
X197180000Y-58332500D03*
X197580000Y-58332500D03*
X197980000Y-58332500D03*
X198380000Y-58332500D03*
X198780000Y-58332500D03*
X199180000Y-58332500D03*
X199580000Y-58332500D03*
X199980000Y-58332500D03*
X200380000Y-58332500D03*
X200780000Y-58332500D03*
X201180000Y-58332500D03*
D35*
X202017500Y-57495000D03*
X202017500Y-57095000D03*
X202017500Y-56695000D03*
X202017500Y-56295000D03*
X202017500Y-55895000D03*
X202017500Y-55495000D03*
X202017500Y-55095000D03*
X202017500Y-54695000D03*
X202017500Y-54295000D03*
X202017500Y-53895000D03*
X202017500Y-53495000D03*
X202017500Y-53095000D03*
X202017500Y-52695000D03*
X202017500Y-52295000D03*
D36*
X201180000Y-51457500D03*
X200780000Y-51457500D03*
X200380000Y-51457500D03*
X199980000Y-51457500D03*
X199580000Y-51457500D03*
X199180000Y-51457500D03*
X198780000Y-51457500D03*
X198380000Y-51457500D03*
X197980000Y-51457500D03*
X197580000Y-51457500D03*
X197180000Y-51457500D03*
X196780000Y-51457500D03*
X196380000Y-51457500D03*
X195980000Y-51457500D03*
D37*
X198580000Y-54895000D03*
D15*
X197056000Y-47342250D03*
X197056000Y-46382250D03*
D12*
X243886740Y-132916556D03*
D13*
X238979837Y-134231357D03*
D12*
X234072934Y-135546158D03*
D11*
X220290000Y-34240000D03*
X177100000Y-34240000D03*
D12*
X334638465Y-68366318D03*
D13*
X329731562Y-69681119D03*
D12*
X324824659Y-70995920D03*
D21*
X205010000Y-61930000D03*
X203990000Y-61930000D03*
D38*
X199530000Y-36212500D03*
X198580000Y-36212500D03*
X197630000Y-36212500D03*
X197630000Y-38487500D03*
X198580000Y-38487500D03*
X199530000Y-38487500D03*
D12*
X190385554Y-132579105D03*
D13*
X185478651Y-131264304D03*
D12*
X180571748Y-129949503D03*
D31*
X182455874Y-127824752D03*
X189246903Y-127014801D03*
D27*
X204577000Y-51434250D03*
X205537000Y-51434250D03*
D19*
X204750000Y-32570000D03*
X205770000Y-32570000D03*
D39*
X202178500Y-32360000D03*
X194828500Y-32360000D03*
D40*
X201328499Y-32919999D03*
X200828499Y-32919999D03*
X200328499Y-32919999D03*
X199828499Y-32919999D03*
X199328499Y-32919999D03*
D41*
X198828499Y-32919999D03*
X198328499Y-32919999D03*
D40*
X197828499Y-32919999D03*
X197328499Y-32919999D03*
X196828499Y-32919999D03*
X196328499Y-32919999D03*
X195828499Y-32919999D03*
D39*
X195778500Y-31710000D03*
X196178500Y-31010000D03*
X196978500Y-31010000D03*
X197378500Y-31710000D03*
X197778500Y-31010000D03*
X198178500Y-31710000D03*
X198978500Y-31710000D03*
X199378500Y-31010000D03*
X199778500Y-31710000D03*
X200178500Y-31010000D03*
X200978500Y-31010000D03*
X201378500Y-31710000D03*
D42*
X203068499Y-26719999D03*
X202633499Y-31109999D03*
X194373499Y-31109999D03*
X194088499Y-26719999D03*
D43*
X185850000Y-41645000D03*
X185850000Y-42915000D03*
X185850000Y-44185000D03*
X185850000Y-45455000D03*
X193050000Y-45455000D03*
X193050000Y-44185000D03*
X193050000Y-42915000D03*
X193050000Y-41645000D03*
D12*
X71102880Y-72186923D03*
D13*
X66195977Y-70872122D03*
D12*
X61289074Y-69557321D03*
D31*
X63173200Y-67432570D03*
X69964229Y-66622619D03*
D12*
X247594135Y-56910326D03*
D13*
X242687232Y-58225127D03*
D12*
X237780329Y-59539928D03*
D31*
X238349654Y-56757776D03*
X243825883Y-52660823D03*
D12*
X254489870Y-82578572D03*
D13*
X249582967Y-83893373D03*
D12*
X244676064Y-85208174D03*
D31*
X245245389Y-82426022D03*
X250721618Y-78329069D03*
D12*
X203658500Y-81326866D03*
D13*
X198578500Y-81326866D03*
D12*
X193498500Y-81326866D03*
D31*
X194768500Y-78786866D03*
X201118500Y-76246866D03*
D12*
X217983085Y-123898637D03*
D13*
X213076182Y-125213438D03*
D12*
X208169279Y-126528239D03*
D31*
X208738604Y-123746087D03*
X214214833Y-119649134D03*
D12*
X99741012Y-62982380D03*
D13*
X94834109Y-61667579D03*
D12*
X89927206Y-60352778D03*
D31*
X91811332Y-58228027D03*
X98602361Y-57418076D03*
D12*
X261782026Y-112162746D03*
D13*
X256875123Y-113477547D03*
D12*
X251968220Y-114792348D03*
D31*
X252537545Y-112010196D03*
X258013774Y-107913243D03*
D12*
X150458438Y-85927864D03*
D13*
X145551535Y-84613063D03*
D12*
X140644632Y-83298262D03*
D31*
X142528758Y-81173511D03*
X149319787Y-80363560D03*
D12*
X270103762Y-38459716D03*
D13*
X265196859Y-39774517D03*
D12*
X260289956Y-41089318D03*
D31*
X260859281Y-38307166D03*
X266335510Y-34210213D03*
D12*
X127836345Y-67688339D03*
D13*
X122929442Y-66373538D03*
D12*
X118022539Y-65058737D03*
D31*
X119906665Y-62933986D03*
X126697694Y-62124035D03*
D12*
X221054357Y-151021034D03*
D13*
X216147454Y-152335835D03*
D12*
X211240551Y-153650636D03*
D31*
X211809876Y-150868484D03*
X217286105Y-146771531D03*
D12*
X182618206Y-156222187D03*
D13*
X177711303Y-154907386D03*
D12*
X172804400Y-153592585D03*
D31*
X174688526Y-151467834D03*
X181479555Y-150657883D03*
D12*
X164784598Y-135118417D03*
D13*
X159877695Y-133803616D03*
D12*
X154970792Y-132488815D03*
D31*
X156854918Y-130364064D03*
X163645947Y-129554113D03*
D12*
X305158570Y-59663744D03*
D13*
X300251667Y-60978545D03*
D12*
X295344764Y-62293346D03*
D31*
X295914089Y-59511194D03*
X301390318Y-55414241D03*
D12*
X327742471Y-42697106D03*
D13*
X322835568Y-44011907D03*
D12*
X317928665Y-45326708D03*
D31*
X318497990Y-42544556D03*
X323974219Y-38447603D03*
D12*
X243886740Y-132916556D03*
D13*
X238979837Y-134231357D03*
D12*
X234072934Y-135546158D03*
D31*
X234642259Y-132764006D03*
X240118488Y-128667053D03*
D12*
X276999756Y-64128928D03*
D13*
X272092853Y-65443729D03*
D12*
X267185950Y-66758530D03*
D31*
X267755275Y-63976378D03*
X273231504Y-59879425D03*
D12*
X334638465Y-68366318D03*
D13*
X329731562Y-69681119D03*
D12*
X324824659Y-70995920D03*
D31*
X325393984Y-68213768D03*
X330870213Y-64116815D03*
D12*
X298262576Y-33994532D03*
D13*
X293355673Y-35309333D03*
D12*
X288448770Y-36624134D03*
D31*
X289018095Y-33841982D03*
X294494324Y-29745029D03*
D12*
X236815468Y-107794159D03*
D13*
X231908565Y-109108960D03*
D12*
X227001662Y-110423761D03*
D31*
X227570987Y-107641609D03*
X233047216Y-103544656D03*
M02*
