  0
SECTION
  2
HEADER
  9
$ANGBASE
  50
0.0
  9
$ANGDIR
  70
1
  9
$MEASUREMENT
  70
1
  0
ENDSEC
  0
SECTION
  2
TABLES
  0
TABLE
  2
LTYPE
  70
4
  0
LTYPE
  5
40F
  2
CONTINUOUS
  70
0
  3
Solid line
  72
65
  73
0
  40
0.0
  0
LTYPE
  5
410
  2
DASHDOT
 70
0
  3
Dash Dot ____ _ ____ _
 72
65
 73
4
 40
2.0
 49
1.25
 49
-0.25
 49
0.25
 49
-0.25
  0
LTYPE
  5
411
  2
DASHED
 70
0
  3
Dashed __ __ __ __ __
 72
65
 73
2
 40
0.75
 49
0.5
 49
-0.25
  0
LTYPE
  5
43B
  2
DOTTED
 70
0
  3
Dotted .  .  .  .
 72
65
 73
2
 40
0.2
 49
0.0
 49
-0.2
  0
ENDTAB
  0
TABLE
  2
STYLE
  70
4
  0
STYLE
  2
KICAD
  70
0
  40
0
  41
1
  42
1
  50
0
  71
0
  3
isocp.shx
  0
STYLE
  2
KICADB
  70
0
  40
0
  41
1
  42
1
  50
0
  71
0
  3
isocp.shx
  0
STYLE
  2
KICADI
  70
0
  40
0
  41
1
  42
1
  50
15
  71
0
  3
isocp.shx
  0
STYLE
  2
KICADBI
  70
0
  40
0
  41
1
  42
1
  50
15
  71
0
  3
isocp.shx
  0
ENDTAB
  0
TABLE
  2
LAYER
  70
1
  0
LAYER
  2
BLACK
  70
0
  62
7
  6
CONTINUOUS
  0
ENDTAB
  0
ENDSEC
  0
SECTION
  2
ENTITIES
0
LINE
8
BLACK
6
CONTINUOUS
10
170.992
20
-143.184
11
189.393
21
-148.114
0
LINE
8
BLACK
6
CONTINUOUS
10
189.393
20
-148.114
11
189.429
21
-148.142
0
LINE
8
BLACK
6
CONTINUOUS
10
189.429
20
-148.142
11
189.435
21
-148.188
0
LINE
8
BLACK
6
CONTINUOUS
10
189.435
20
-148.188
11
184.504
21
-166.589
0
LINE
8
BLACK
6
CONTINUOUS
10
184.504
20
-166.589
11
184.476
21
-166.625
0
LINE
8
BLACK
6
CONTINUOUS
10
184.476
20
-166.625
11
184.431
21
-166.631
0
LINE
8
BLACK
6
CONTINUOUS
10
184.431
20
-166.631
11
166.03
21
-161.701
0
LINE
8
BLACK
6
CONTINUOUS
10
166.03
20
-161.701
11
165.994
21
-161.673
0
LINE
8
BLACK
6
CONTINUOUS
10
165.994
20
-161.673
11
165.988
21
-161.627
0
LINE
8
BLACK
6
CONTINUOUS
10
165.988
20
-161.627
11
165.988
21
-161.627
0
LINE
8
BLACK
6
CONTINUOUS
10
165.988
20
-161.627
11
170.918
21
-143.226
0
LINE
8
BLACK
6
CONTINUOUS
10
170.918
20
-143.226
11
170.946
21
-143.19
0
LINE
8
BLACK
6
CONTINUOUS
10
170.946
20
-143.19
11
170.946
21
-143.19
0
LINE
8
BLACK
6
CONTINUOUS
10
170.946
20
-143.19
11
170.992
21
-143.184
0
LINE
8
BLACK
6
CONTINUOUS
10
166.119
20
-161.6
11
184.404
21
-166.5
0
LINE
8
BLACK
6
CONTINUOUS
10
184.404
20
-166.5
11
189.304
21
-148.215
0
LINE
8
BLACK
6
CONTINUOUS
10
189.304
20
-148.215
11
171.019
21
-143.315
0
LINE
8
BLACK
6
CONTINUOUS
10
171.019
20
-143.315
11
166.119
21
-161.6
0
LINE
8
BLACK
6
CONTINUOUS
10
227.867
20
-140.612
11
227.913
21
-140.618
0
LINE
8
BLACK
6
CONTINUOUS
10
227.913
20
-140.618
11
227.941
21
-140.655
0
LINE
8
BLACK
6
CONTINUOUS
10
227.941
20
-140.655
11
232.871
21
-159.055
0
LINE
8
BLACK
6
CONTINUOUS
10
232.871
20
-159.055
11
232.867
21
-159.087
0
LINE
8
BLACK
6
CONTINUOUS
10
232.867
20
-159.087
11
232.865
21
-159.101
0
LINE
8
BLACK
6
CONTINUOUS
10
232.865
20
-159.101
11
232.829
21
-159.129
0
LINE
8
BLACK
6
CONTINUOUS
10
232.829
20
-159.129
11
214.428
21
-164.059
0
LINE
8
BLACK
6
CONTINUOUS
10
214.428
20
-164.059
11
214.382
21
-164.053
0
LINE
8
BLACK
6
CONTINUOUS
10
214.382
20
-164.053
11
214.354
21
-164.017
0
LINE
8
BLACK
6
CONTINUOUS
10
214.354
20
-164.017
11
214.354
21
-164.017
0
LINE
8
BLACK
6
CONTINUOUS
10
214.354
20
-164.017
11
209.424
21
-145.616
0
LINE
8
BLACK
6
CONTINUOUS
10
209.424
20
-145.616
11
209.43
21
-145.571
0
LINE
8
BLACK
6
CONTINUOUS
10
209.43
20
-145.571
11
209.466
21
-145.543
0
LINE
8
BLACK
6
CONTINUOUS
10
209.466
20
-145.543
11
227.867
21
-140.612
0
LINE
8
BLACK
6
CONTINUOUS
10
209.555
20
-145.643
11
214.455
21
-163.928
0
LINE
8
BLACK
6
CONTINUOUS
10
214.455
20
-163.928
11
232.74
21
-159.029
0
LINE
8
BLACK
6
CONTINUOUS
10
232.74
20
-159.029
11
227.84
21
-140.744
0
LINE
8
BLACK
6
CONTINUOUS
10
227.84
20
-140.744
11
209.555
21
-145.643
0
LINE
8
BLACK
6
CONTINUOUS
10
245.7
20
-122.508
11
245.745
21
-122.514
0
LINE
8
BLACK
6
CONTINUOUS
10
245.745
20
-122.514
11
245.773
21
-122.55
0
LINE
8
BLACK
6
CONTINUOUS
10
245.773
20
-122.55
11
250.703
21
-140.951
0
LINE
8
BLACK
6
CONTINUOUS
10
250.703
20
-140.951
11
250.699
21
-140.982
0
LINE
8
BLACK
6
CONTINUOUS
10
250.699
20
-140.982
11
250.697
21
-140.997
0
LINE
8
BLACK
6
CONTINUOUS
10
250.697
20
-140.997
11
250.661
21
-141.025
0
LINE
8
BLACK
6
CONTINUOUS
10
250.661
20
-141.025
11
232.26
21
-145.955
0
LINE
8
BLACK
6
CONTINUOUS
10
232.26
20
-145.955
11
232.215
21
-145.949
0
LINE
8
BLACK
6
CONTINUOUS
10
232.215
20
-145.949
11
232.187
21
-145.913
0
LINE
8
BLACK
6
CONTINUOUS
10
232.187
20
-145.913
11
227.256
21
-127.512
0
LINE
8
BLACK
6
CONTINUOUS
10
227.256
20
-127.512
11
227.262
21
-127.466
0
LINE
8
BLACK
6
CONTINUOUS
10
227.262
20
-127.466
11
227.299
21
-127.438
0
LINE
8
BLACK
6
CONTINUOUS
10
227.299
20
-127.438
11
245.7
21
-122.508
0
LINE
8
BLACK
6
CONTINUOUS
10
227.388
20
-127.539
11
232.287
21
-145.824
0
LINE
8
BLACK
6
CONTINUOUS
10
232.287
20
-145.824
11
250.572
21
-140.924
0
LINE
8
BLACK
6
CONTINUOUS
10
250.572
20
-140.924
11
245.673
21
-122.639
0
LINE
8
BLACK
6
CONTINUOUS
10
245.673
20
-122.639
11
227.388
21
-127.539
0
LINE
8
BLACK
6
CONTINUOUS
10
153.158
20
-122.08
11
171.559
21
-127.01
0
LINE
8
BLACK
6
CONTINUOUS
10
171.559
20
-127.01
11
171.595
21
-127.038
0
LINE
8
BLACK
6
CONTINUOUS
10
171.595
20
-127.038
11
171.595
21
-127.038
0
LINE
8
BLACK
6
CONTINUOUS
10
171.595
20
-127.038
11
171.601
21
-127.084
0
LINE
8
BLACK
6
CONTINUOUS
10
171.601
20
-127.084
11
166.671
21
-145.485
0
LINE
8
BLACK
6
CONTINUOUS
10
166.671
20
-145.485
11
166.643
21
-145.521
0
LINE
8
BLACK
6
CONTINUOUS
10
166.643
20
-145.521
11
166.597
21
-145.527
0
LINE
8
BLACK
6
CONTINUOUS
10
166.597
20
-145.527
11
148.196
21
-140.597
0
LINE
8
BLACK
6
CONTINUOUS
10
148.196
20
-140.597
11
148.16
21
-140.569
0
LINE
8
BLACK
6
CONTINUOUS
10
148.16
20
-140.569
11
148.154
21
-140.523
0
LINE
8
BLACK
6
CONTINUOUS
10
148.154
20
-140.523
11
153.085
21
-122.122
0
LINE
8
BLACK
6
CONTINUOUS
10
153.085
20
-122.122
11
153.113
21
-122.086
0
LINE
8
BLACK
6
CONTINUOUS
10
153.113
20
-122.086
11
153.113
21
-122.086
0
LINE
8
BLACK
6
CONTINUOUS
10
153.113
20
-122.086
11
153.158
21
-122.08
0
LINE
8
BLACK
6
CONTINUOUS
10
148.285
20
-140.496
11
166.57
21
-145.396
0
LINE
8
BLACK
6
CONTINUOUS
10
166.57
20
-145.396
11
171.47
21
-127.111
0
LINE
8
BLACK
6
CONTINUOUS
10
171.47
20
-127.111
11
153.185
21
-122.211
0
LINE
8
BLACK
6
CONTINUOUS
10
153.185
20
-122.211
11
148.285
21
-140.496
0
LINE
8
BLACK
6
CONTINUOUS
10
219.796
20
-113.49
11
219.841
21
-113.496
0
LINE
8
BLACK
6
CONTINUOUS
10
219.841
20
-113.496
11
219.869
21
-113.532
0
LINE
8
BLACK
6
CONTINUOUS
10
219.869
20
-113.532
11
224.8
21
-131.933
0
LINE
8
BLACK
6
CONTINUOUS
10
224.8
20
-131.933
11
224.796
21
-131.964
0
LINE
8
BLACK
6
CONTINUOUS
10
224.796
20
-131.964
11
224.794
21
-131.979
0
LINE
8
BLACK
6
CONTINUOUS
10
224.794
20
-131.979
11
224.757
21
-132.007
0
LINE
8
BLACK
6
CONTINUOUS
10
224.757
20
-132.007
11
206.357
21
-136.937
0
LINE
8
BLACK
6
CONTINUOUS
10
206.357
20
-136.937
11
206.311
21
-136.931
0
LINE
8
BLACK
6
CONTINUOUS
10
206.311
20
-136.931
11
206.283
21
-136.895
0
LINE
8
BLACK
6
CONTINUOUS
10
206.283
20
-136.895
11
201.353
21
-118.494
0
LINE
8
BLACK
6
CONTINUOUS
10
201.353
20
-118.494
11
201.359
21
-118.448
0
LINE
8
BLACK
6
CONTINUOUS
10
201.359
20
-118.448
11
201.395
21
-118.42
0
LINE
8
BLACK
6
CONTINUOUS
10
201.395
20
-118.42
11
219.796
21
-113.49
0
LINE
8
BLACK
6
CONTINUOUS
10
201.484
20
-118.521
11
206.383
21
-136.806
0
LINE
8
BLACK
6
CONTINUOUS
10
206.383
20
-136.806
11
224.668
21
-131.906
0
LINE
8
BLACK
6
CONTINUOUS
10
224.668
20
-131.906
11
219.769
21
-113.621
0
LINE
8
BLACK
6
CONTINUOUS
10
219.769
20
-113.621
11
201.484
21
-118.521
0
LINE
8
BLACK
6
CONTINUOUS
10
263.595
20
-101.754
11
263.64
21
-101.76
0
LINE
8
BLACK
6
CONTINUOUS
10
263.64
20
-101.76
11
263.668
21
-101.796
0
LINE
8
BLACK
6
CONTINUOUS
10
263.668
20
-101.796
11
268.599
21
-120.197
0
LINE
8
BLACK
6
CONTINUOUS
10
268.599
20
-120.197
11
268.595
21
-120.228
0
LINE
8
BLACK
6
CONTINUOUS
10
268.595
20
-120.228
11
268.593
21
-120.243
0
LINE
8
BLACK
6
CONTINUOUS
10
268.593
20
-120.243
11
268.556
21
-120.271
0
LINE
8
BLACK
6
CONTINUOUS
10
268.556
20
-120.271
11
250.155
21
-125.201
0
LINE
8
BLACK
6
CONTINUOUS
10
250.155
20
-125.201
11
250.11
21
-125.195
0
LINE
8
BLACK
6
CONTINUOUS
10
250.11
20
-125.195
11
250.082
21
-125.159
0
LINE
8
BLACK
6
CONTINUOUS
10
250.082
20
-125.159
11
245.151
21
-106.758
0
LINE
8
BLACK
6
CONTINUOUS
10
245.151
20
-106.758
11
245.157
21
-106.712
0
LINE
8
BLACK
6
CONTINUOUS
10
245.157
20
-106.712
11
245.194
21
-106.684
0
LINE
8
BLACK
6
CONTINUOUS
10
245.194
20
-106.684
11
263.595
21
-101.754
0
LINE
8
BLACK
6
CONTINUOUS
10
245.283
20
-106.785
11
250.182
21
-125.07
0
LINE
8
BLACK
6
CONTINUOUS
10
250.182
20
-125.07
11
268.467
21
-120.17
0
LINE
8
BLACK
6
CONTINUOUS
10
268.467
20
-120.17
11
263.568
21
-101.885
0
LINE
8
BLACK
6
CONTINUOUS
10
263.568
20
-101.885
11
245.283
21
-106.785
0
LINE
8
BLACK
6
CONTINUOUS
10
238.628
20
-97.3853
11
238.674
21
-97.3913
0
LINE
8
BLACK
6
CONTINUOUS
10
238.674
20
-97.3913
11
238.702
21
-97.4277
0
LINE
8
BLACK
6
CONTINUOUS
10
238.702
20
-97.4277
11
243.632
21
-115.829
0
LINE
8
BLACK
6
CONTINUOUS
10
243.632
20
-115.829
11
243.628
21
-115.86
0
LINE
8
BLACK
6
CONTINUOUS
10
243.628
20
-115.86
11
243.626
21
-115.874
0
LINE
8
BLACK
6
CONTINUOUS
10
243.626
20
-115.874
11
243.59
21
-115.902
0
LINE
8
BLACK
6
CONTINUOUS
10
243.59
20
-115.902
11
225.189
21
-120.833
0
LINE
8
BLACK
6
CONTINUOUS
10
225.189
20
-120.833
11
225.143
21
-120.827
0
LINE
8
BLACK
6
CONTINUOUS
10
225.143
20
-120.827
11
225.115
21
-120.79
0
LINE
8
BLACK
6
CONTINUOUS
10
225.115
20
-120.79
11
220.185
21
-102.389
0
LINE
8
BLACK
6
CONTINUOUS
10
220.185
20
-102.389
11
220.191
21
-102.344
0
LINE
8
BLACK
6
CONTINUOUS
10
220.191
20
-102.344
11
220.227
21
-102.316
0
LINE
8
BLACK
6
CONTINUOUS
10
220.227
20
-102.316
11
238.628
21
-97.3853
0
LINE
8
BLACK
6
CONTINUOUS
10
220.316
20
-102.416
11
225.216
21
-120.701
0
LINE
8
BLACK
6
CONTINUOUS
10
225.216
20
-120.701
11
243.501
21
-115.802
0
LINE
8
BLACK
6
CONTINUOUS
10
243.501
20
-115.802
11
238.601
21
-97.5168
0
LINE
8
BLACK
6
CONTINUOUS
10
238.601
20
-97.5168
11
220.316
21
-102.416
0
LINE
8
BLACK
6
CONTINUOUS
10
138.832
20
-72.8894
11
157.233
21
-77.8199
0
LINE
8
BLACK
6
CONTINUOUS
10
157.233
20
-77.8199
11
157.269
21
-77.8479
0
LINE
8
BLACK
6
CONTINUOUS
10
157.269
20
-77.8479
11
157.269
21
-77.8479
0
LINE
8
BLACK
6
CONTINUOUS
10
157.269
20
-77.8479
11
157.275
21
-77.8934
0
LINE
8
BLACK
6
CONTINUOUS
10
157.275
20
-77.8934
11
152.345
21
-96.2943
0
LINE
8
BLACK
6
CONTINUOUS
10
152.345
20
-96.2943
11
152.317
21
-96.3307
0
LINE
8
BLACK
6
CONTINUOUS
10
152.317
20
-96.3307
11
152.271
21
-96.3367
0
LINE
8
BLACK
6
CONTINUOUS
10
152.271
20
-96.3367
11
133.87
21
-91.4062
0
LINE
8
BLACK
6
CONTINUOUS
10
133.87
20
-91.4062
11
133.834
21
-91.3783
0
LINE
8
BLACK
6
CONTINUOUS
10
133.834
20
-91.3783
11
133.828
21
-91.3327
0
LINE
8
BLACK
6
CONTINUOUS
10
133.828
20
-91.3327
11
133.828
21
-91.3327
0
LINE
8
BLACK
6
CONTINUOUS
10
133.828
20
-91.3327
11
138.758
21
-72.9318
0
LINE
8
BLACK
6
CONTINUOUS
10
138.758
20
-72.9318
11
138.786
21
-72.8954
0
LINE
8
BLACK
6
CONTINUOUS
10
138.786
20
-72.8954
11
138.786
21
-72.8954
0
LINE
8
BLACK
6
CONTINUOUS
10
138.786
20
-72.8954
11
138.832
21
-72.8894
0
LINE
8
BLACK
6
CONTINUOUS
10
133.959
20
-91.3058
11
152.244
21
-96.2053
0
LINE
8
BLACK
6
CONTINUOUS
10
152.244
20
-96.2053
11
157.144
21
-77.9203
0
LINE
8
BLACK
6
CONTINUOUS
10
157.144
20
-77.9203
11
138.859
21
-73.0209
0
LINE
8
BLACK
6
CONTINUOUS
10
138.859
20
-73.0209
11
133.959
21
-91.3058
0
LINE
8
BLACK
6
CONTINUOUS
10
256.303
20
-72.1697
11
256.348
21
-72.1757
0
LINE
8
BLACK
6
CONTINUOUS
10
256.348
20
-72.1757
11
256.376
21
-72.2121
0
LINE
8
BLACK
6
CONTINUOUS
10
256.376
20
-72.2121
11
261.307
21
-90.613
0
LINE
8
BLACK
6
CONTINUOUS
10
261.307
20
-90.613
11
261.303
21
-90.6441
0
LINE
8
BLACK
6
CONTINUOUS
10
261.303
20
-90.6441
11
261.301
21
-90.6586
0
LINE
8
BLACK
6
CONTINUOUS
10
261.301
20
-90.6586
11
261.264
21
-90.6865
0
LINE
8
BLACK
6
CONTINUOUS
10
261.264
20
-90.6865
11
242.863
21
-95.617
0
LINE
8
BLACK
6
CONTINUOUS
10
242.863
20
-95.617
11
242.818
21
-95.611
0
LINE
8
BLACK
6
CONTINUOUS
10
242.818
20
-95.611
11
242.79
21
-95.5746
0
LINE
8
BLACK
6
CONTINUOUS
10
242.79
20
-95.5746
11
237.859
21
-77.1737
0
LINE
8
BLACK
6
CONTINUOUS
10
237.859
20
-77.1737
11
237.865
21
-77.1282
0
LINE
8
BLACK
6
CONTINUOUS
10
237.865
20
-77.1282
11
237.902
21
-77.1002
0
LINE
8
BLACK
6
CONTINUOUS
10
237.902
20
-77.1002
11
256.303
21
-72.1697
0
LINE
8
BLACK
6
CONTINUOUS
10
237.991
20
-77.2006
11
242.89
21
-95.4856
0
LINE
8
BLACK
6
CONTINUOUS
10
242.89
20
-95.4856
11
261.175
21
-90.5861
0
LINE
8
BLACK
6
CONTINUOUS
10
261.175
20
-90.5861
11
256.276
21
-72.3012
0
LINE
8
BLACK
6
CONTINUOUS
10
256.276
20
-72.3012
11
237.991
21
-77.2006
0
LINE
8
BLACK
6
CONTINUOUS
10
208.103
20
-71.7419
11
208.146
21
-71.7594
0
LINE
8
BLACK
6
CONTINUOUS
10
208.146
20
-71.7594
11
208.163
21
-71.8019
0
LINE
8
BLACK
6
CONTINUOUS
10
208.163
20
-71.8019
11
208.163
21
-90.8519
0
LINE
8
BLACK
6
CONTINUOUS
10
208.163
20
-90.8519
11
208.146
21
-90.8943
0
LINE
8
BLACK
6
CONTINUOUS
10
208.146
20
-90.8943
11
208.103
21
-90.9119
0
LINE
8
BLACK
6
CONTINUOUS
10
208.103
20
-90.9119
11
189.053
21
-90.9119
0
LINE
8
BLACK
6
CONTINUOUS
10
189.053
20
-90.9119
11
189.011
21
-90.8943
0
LINE
8
BLACK
6
CONTINUOUS
10
189.011
20
-90.8943
11
188.993
21
-90.8519
0
LINE
8
BLACK
6
CONTINUOUS
10
188.993
20
-90.8519
11
188.993
21
-71.8019
0
LINE
8
BLACK
6
CONTINUOUS
10
188.993
20
-71.8019
11
189.011
21
-71.7594
0
LINE
8
BLACK
6
CONTINUOUS
10
189.011
20
-71.7594
11
189.053
21
-71.7419
0
LINE
8
BLACK
6
CONTINUOUS
10
189.053
20
-71.7419
11
208.103
21
-71.7419
0
LINE
8
BLACK
6
CONTINUOUS
10
189.113
20
-71.8619
11
189.113
21
-90.7919
0
LINE
8
BLACK
6
CONTINUOUS
10
189.113
20
-90.7919
11
208.043
21
-90.7919
0
LINE
8
BLACK
6
CONTINUOUS
10
208.043
20
-90.7919
11
208.043
21
-71.8619
0
LINE
8
BLACK
6
CONTINUOUS
10
208.043
20
-71.8619
11
189.113
21
-71.8619
0
LINE
8
BLACK
6
CONTINUOUS
10
59.4763
20
-59.1485
11
77.8772
21
-64.079
0
LINE
8
BLACK
6
CONTINUOUS
10
77.8772
20
-64.079
11
77.9136
21
-64.1069
0
LINE
8
BLACK
6
CONTINUOUS
10
77.9136
20
-64.1069
11
77.9196
21
-64.1525
0
LINE
8
BLACK
6
CONTINUOUS
10
77.9196
20
-64.1525
11
72.9891
21
-82.5533
0
LINE
8
BLACK
6
CONTINUOUS
10
72.9891
20
-82.5533
11
72.9612
21
-82.5898
0
LINE
8
BLACK
6
CONTINUOUS
10
72.9612
20
-82.5898
11
72.9156
21
-82.5958
0
LINE
8
BLACK
6
CONTINUOUS
10
72.9156
20
-82.5958
11
54.5148
21
-77.6653
0
LINE
8
BLACK
6
CONTINUOUS
10
54.5148
20
-77.6653
11
54.4783
21
-77.6373
0
LINE
8
BLACK
6
CONTINUOUS
10
54.4783
20
-77.6373
11
54.4723
21
-77.5918
0
LINE
8
BLACK
6
CONTINUOUS
10
54.4723
20
-77.5918
11
54.4723
21
-77.5918
0
LINE
8
BLACK
6
CONTINUOUS
10
54.4723
20
-77.5918
11
59.4028
21
-59.1909
0
LINE
8
BLACK
6
CONTINUOUS
10
59.4028
20
-59.1909
11
59.4308
21
-59.1545
0
LINE
8
BLACK
6
CONTINUOUS
10
59.4308
20
-59.1545
11
59.4308
21
-59.1545
0
LINE
8
BLACK
6
CONTINUOUS
10
59.4308
20
-59.1545
11
59.4763
21
-59.1485
0
LINE
8
BLACK
6
CONTINUOUS
10
54.6038
20
-77.5649
11
72.8887
21
-82.4643
0
LINE
8
BLACK
6
CONTINUOUS
10
72.8887
20
-82.4643
11
77.7882
21
-64.1794
0
LINE
8
BLACK
6
CONTINUOUS
10
77.7882
20
-64.1794
11
59.5032
21
-59.2799
0
LINE
8
BLACK
6
CONTINUOUS
10
59.5032
20
-59.2799
11
54.6038
21
-77.5649
0
LINE
8
BLACK
6
CONTINUOUS
10
336.451
20
-57.9575
11
336.497
21
-57.9635
0
LINE
8
BLACK
6
CONTINUOUS
10
336.497
20
-57.9635
11
336.525
21
-57.9999
0
LINE
8
BLACK
6
CONTINUOUS
10
336.525
20
-57.9999
11
341.455
21
-76.4008
0
LINE
8
BLACK
6
CONTINUOUS
10
341.455
20
-76.4008
11
341.451
21
-76.4318
0
LINE
8
BLACK
6
CONTINUOUS
10
341.451
20
-76.4318
11
341.449
21
-76.4463
0
LINE
8
BLACK
6
CONTINUOUS
10
341.449
20
-76.4463
11
341.413
21
-76.4743
0
LINE
8
BLACK
6
CONTINUOUS
10
341.413
20
-76.4743
11
323.012
21
-81.4048
0
LINE
8
BLACK
6
CONTINUOUS
10
323.012
20
-81.4048
11
322.966
21
-81.3988
0
LINE
8
BLACK
6
CONTINUOUS
10
322.966
20
-81.3988
11
322.938
21
-81.3623
0
LINE
8
BLACK
6
CONTINUOUS
10
322.938
20
-81.3623
11
322.938
21
-81.3623
0
LINE
8
BLACK
6
CONTINUOUS
10
322.938
20
-81.3623
11
318.008
21
-62.9615
0
LINE
8
BLACK
6
CONTINUOUS
10
318.008
20
-62.9615
11
318.014
21
-62.9159
0
LINE
8
BLACK
6
CONTINUOUS
10
318.014
20
-62.9159
11
318.05
21
-62.888
0
LINE
8
BLACK
6
CONTINUOUS
10
318.05
20
-62.888
11
336.451
21
-57.9575
0
LINE
8
BLACK
6
CONTINUOUS
10
318.139
20
-62.9884
11
323.039
21
-81.2733
0
LINE
8
BLACK
6
CONTINUOUS
10
323.039
20
-81.2733
11
341.324
21
-76.3739
0
LINE
8
BLACK
6
CONTINUOUS
10
341.324
20
-76.3739
11
336.424
21
-58.0889
0
LINE
8
BLACK
6
CONTINUOUS
10
336.424
20
-58.0889
11
318.139
21
-62.9884
0
LINE
8
BLACK
6
CONTINUOUS
10
116.21
20
-54.6499
11
134.611
21
-59.5804
0
LINE
8
BLACK
6
CONTINUOUS
10
134.611
20
-59.5804
11
134.647
21
-59.6083
0
LINE
8
BLACK
6
CONTINUOUS
10
134.647
20
-59.6083
11
134.647
21
-59.6083
0
LINE
8
BLACK
6
CONTINUOUS
10
134.647
20
-59.6083
11
134.653
21
-59.6539
0
LINE
8
BLACK
6
CONTINUOUS
10
134.653
20
-59.6539
11
129.723
21
-78.0548
0
LINE
8
BLACK
6
CONTINUOUS
10
129.723
20
-78.0548
11
129.695
21
-78.0912
0
LINE
8
BLACK
6
CONTINUOUS
10
129.695
20
-78.0912
11
129.649
21
-78.0972
0
LINE
8
BLACK
6
CONTINUOUS
10
129.649
20
-78.0972
11
111.248
21
-73.1667
0
LINE
8
BLACK
6
CONTINUOUS
10
111.248
20
-73.1667
11
111.212
21
-73.1387
0
LINE
8
BLACK
6
CONTINUOUS
10
111.212
20
-73.1387
11
111.206
21
-73.0932
0
LINE
8
BLACK
6
CONTINUOUS
10
111.206
20
-73.0932
11
116.136
21
-54.6923
0
LINE
8
BLACK
6
CONTINUOUS
10
116.136
20
-54.6923
11
116.164
21
-54.6559
0
LINE
8
BLACK
6
CONTINUOUS
10
116.164
20
-54.6559
11
116.164
21
-54.6559
0
LINE
8
BLACK
6
CONTINUOUS
10
116.164
20
-54.6559
11
116.21
21
-54.6499
0
LINE
8
BLACK
6
CONTINUOUS
10
111.337
20
-73.0663
11
129.622
21
-77.9657
0
LINE
8
BLACK
6
CONTINUOUS
10
129.622
20
-77.9657
11
134.522
21
-59.6808
0
LINE
8
BLACK
6
CONTINUOUS
10
134.522
20
-59.6808
11
116.237
21
-54.7813
0
LINE
8
BLACK
6
CONTINUOUS
10
116.237
20
-54.7813
11
111.337
21
-73.0663
0
LINE
8
BLACK
6
CONTINUOUS
10
278.813
20
-53.7201
11
278.858
21
-53.7261
0
LINE
8
BLACK
6
CONTINUOUS
10
278.858
20
-53.7261
11
278.886
21
-53.7625
0
LINE
8
BLACK
6
CONTINUOUS
10
278.886
20
-53.7625
11
283.817
21
-72.1634
0
LINE
8
BLACK
6
CONTINUOUS
10
283.817
20
-72.1634
11
283.812
21
-72.1945
0
LINE
8
BLACK
6
CONTINUOUS
10
283.812
20
-72.1945
11
283.811
21
-72.2089
0
LINE
8
BLACK
6
CONTINUOUS
10
283.811
20
-72.2089
11
283.774
21
-72.2369
0
LINE
8
BLACK
6
CONTINUOUS
10
283.774
20
-72.2369
11
265.373
21
-77.1674
0
LINE
8
BLACK
6
CONTINUOUS
10
265.373
20
-77.1674
11
265.328
21
-77.1614
0
LINE
8
BLACK
6
CONTINUOUS
10
265.328
20
-77.1614
11
265.3
21
-77.125
0
LINE
8
BLACK
6
CONTINUOUS
10
265.3
20
-77.125
11
260.369
21
-58.7241
0
LINE
8
BLACK
6
CONTINUOUS
10
260.369
20
-58.7241
11
260.375
21
-58.6785
0
LINE
8
BLACK
6
CONTINUOUS
10
260.375
20
-58.6785
11
260.412
21
-58.6506
0
LINE
8
BLACK
6
CONTINUOUS
10
260.412
20
-58.6506
11
278.813
21
-53.7201
0
LINE
8
BLACK
6
CONTINUOUS
10
260.501
20
-58.751
11
265.4
21
-77.0359
0
LINE
8
BLACK
6
CONTINUOUS
10
265.4
20
-77.0359
11
283.685
21
-72.1365
0
LINE
8
BLACK
6
CONTINUOUS
10
283.685
20
-72.1365
11
278.786
21
-53.8515
0
LINE
8
BLACK
6
CONTINUOUS
10
278.786
20
-53.8515
11
260.501
21
-58.751
0
LINE
8
BLACK
6
CONTINUOUS
10
88.1144
20
-49.9439
11
106.515
21
-54.8744
0
LINE
8
BLACK
6
CONTINUOUS
10
106.515
20
-54.8744
11
106.552
21
-54.9024
0
LINE
8
BLACK
6
CONTINUOUS
10
106.552
20
-54.9024
11
106.558
21
-54.9479
0
LINE
8
BLACK
6
CONTINUOUS
10
106.558
20
-54.9479
11
101.627
21
-73.3488
0
LINE
8
BLACK
6
CONTINUOUS
10
101.627
20
-73.3488
11
101.599
21
-73.3852
0
LINE
8
BLACK
6
CONTINUOUS
10
101.599
20
-73.3852
11
101.554
21
-73.3912
0
LINE
8
BLACK
6
CONTINUOUS
10
101.554
20
-73.3912
11
83.1529
21
-68.4607
0
LINE
8
BLACK
6
CONTINUOUS
10
83.1529
20
-68.4607
11
83.1165
21
-68.4328
0
LINE
8
BLACK
6
CONTINUOUS
10
83.1165
20
-68.4328
11
83.1105
21
-68.3872
0
LINE
8
BLACK
6
CONTINUOUS
10
83.1105
20
-68.3872
11
83.1105
21
-68.3872
0
LINE
8
BLACK
6
CONTINUOUS
10
83.1105
20
-68.3872
11
88.041
21
-49.9864
0
LINE
8
BLACK
6
CONTINUOUS
10
88.041
20
-49.9864
11
88.0689
21
-49.9499
0
LINE
8
BLACK
6
CONTINUOUS
10
88.0689
20
-49.9499
11
88.0689
21
-49.9499
0
LINE
8
BLACK
6
CONTINUOUS
10
88.0689
20
-49.9499
11
88.1144
21
-49.9439
0
LINE
8
BLACK
6
CONTINUOUS
10
83.2419
20
-68.3603
11
101.527
21
-73.2598
0
LINE
8
BLACK
6
CONTINUOUS
10
101.527
20
-73.2598
11
106.426
21
-54.9748
0
LINE
8
BLACK
6
CONTINUOUS
10
106.426
20
-54.9748
11
88.1413
21
-50.0754
0
LINE
8
BLACK
6
CONTINUOUS
10
88.1413
20
-50.0754
11
83.2419
21
-68.3603
0
LINE
8
BLACK
6
CONTINUOUS
10
306.971
20
-49.2549
11
307.017
21
-49.2609
0
LINE
8
BLACK
6
CONTINUOUS
10
307.017
20
-49.2609
11
307.045
21
-49.2973
0
LINE
8
BLACK
6
CONTINUOUS
10
307.045
20
-49.2973
11
311.975
21
-67.6982
0
LINE
8
BLACK
6
CONTINUOUS
10
311.975
20
-67.6982
11
311.971
21
-67.7293
0
LINE
8
BLACK
6
CONTINUOUS
10
311.971
20
-67.7293
11
311.969
21
-67.7437
0
LINE
8
BLACK
6
CONTINUOUS
10
311.969
20
-67.7437
11
311.933
21
-67.7717
0
LINE
8
BLACK
6
CONTINUOUS
10
311.933
20
-67.7717
11
293.532
21
-72.7022
0
LINE
8
BLACK
6
CONTINUOUS
10
293.532
20
-72.7022
11
293.486
21
-72.6962
0
LINE
8
BLACK
6
CONTINUOUS
10
293.486
20
-72.6962
11
293.459
21
-72.6598
0
LINE
8
BLACK
6
CONTINUOUS
10
293.459
20
-72.6598
11
288.528
21
-54.2589
0
LINE
8
BLACK
6
CONTINUOUS
10
288.528
20
-54.2589
11
288.534
21
-54.2134
0
LINE
8
BLACK
6
CONTINUOUS
10
288.534
20
-54.2134
11
288.57
21
-54.1854
0
LINE
8
BLACK
6
CONTINUOUS
10
288.57
20
-54.1854
11
306.971
21
-49.2549
0
LINE
8
BLACK
6
CONTINUOUS
10
288.659
20
-54.2858
11
293.559
21
-72.5708
0
LINE
8
BLACK
6
CONTINUOUS
10
293.559
20
-72.5708
11
311.844
21
-67.6713
0
LINE
8
BLACK
6
CONTINUOUS
10
311.844
20
-67.6713
11
306.944
21
-49.3863
0
LINE
8
BLACK
6
CONTINUOUS
10
306.944
20
-49.3863
11
288.659
21
-54.2858
0
LINE
8
BLACK
6
CONTINUOUS
10
249.157
20
-45.5015
11
249.202
21
-45.5075
0
LINE
8
BLACK
6
CONTINUOUS
10
249.202
20
-45.5075
11
249.23
21
-45.5439
0
LINE
8
BLACK
6
CONTINUOUS
10
249.23
20
-45.5439
11
254.161
21
-63.9448
0
LINE
8
BLACK
6
CONTINUOUS
10
254.161
20
-63.9448
11
254.157
21
-63.9758
0
LINE
8
BLACK
6
CONTINUOUS
10
254.157
20
-63.9758
11
254.155
21
-63.9903
0
LINE
8
BLACK
6
CONTINUOUS
10
254.155
20
-63.9903
11
254.118
21
-64.0183
0
LINE
8
BLACK
6
CONTINUOUS
10
254.118
20
-64.0183
11
235.718
21
-68.9488
0
LINE
8
BLACK
6
CONTINUOUS
10
235.718
20
-68.9488
11
235.672
21
-68.9428
0
LINE
8
BLACK
6
CONTINUOUS
10
235.672
20
-68.9428
11
235.644
21
-68.9064
0
LINE
8
BLACK
6
CONTINUOUS
10
235.644
20
-68.9064
11
230.714
21
-50.5055
0
LINE
8
BLACK
6
CONTINUOUS
10
230.714
20
-50.5055
11
230.72
21
-50.4599
0
LINE
8
BLACK
6
CONTINUOUS
10
230.72
20
-50.4599
11
230.756
21
-50.432
0
LINE
8
BLACK
6
CONTINUOUS
10
230.756
20
-50.432
11
249.157
21
-45.5015
0
LINE
8
BLACK
6
CONTINUOUS
10
230.845
20
-50.5324
11
235.744
21
-68.8173
0
LINE
8
BLACK
6
CONTINUOUS
10
235.744
20
-68.8173
11
254.029
21
-63.9179
0
LINE
8
BLACK
6
CONTINUOUS
10
254.029
20
-63.9179
11
249.13
21
-45.6329
0
LINE
8
BLACK
6
CONTINUOUS
10
249.13
20
-45.6329
11
230.845
21
-50.5324
0
LINE
8
BLACK
6
CONTINUOUS
10
206.485
20
-64.8
11
206.52
21
-64.8146
0
LINE
8
BLACK
6
CONTINUOUS
10
206.52
20
-64.8146
11
206.535
21
-64.85
0
LINE
8
BLACK
6
CONTINUOUS
10
206.535
20
-64.85
11
206.535
21
-67.39
0
LINE
8
BLACK
6
CONTINUOUS
10
206.535
20
-67.39
11
206.52
21
-67.4254
0
LINE
8
BLACK
6
CONTINUOUS
10
206.52
20
-67.4254
11
206.485
21
-67.44
0
LINE
8
BLACK
6
CONTINUOUS
10
206.485
20
-67.44
11
205.85
21
-67.44
0
LINE
8
BLACK
6
CONTINUOUS
10
205.85
20
-67.44
11
205.215
21
-67.44
0
LINE
8
BLACK
6
CONTINUOUS
10
205.215
20
-67.44
11
205.18
21
-67.4254
0
LINE
8
BLACK
6
CONTINUOUS
10
205.18
20
-67.4254
11
205.165
21
-67.39
0
LINE
8
BLACK
6
CONTINUOUS
10
205.165
20
-67.39
11
205.165
21
-64.85
0
LINE
8
BLACK
6
CONTINUOUS
10
205.165
20
-64.85
11
205.18
21
-64.8146
0
LINE
8
BLACK
6
CONTINUOUS
10
205.18
20
-64.8146
11
205.215
21
-64.8
0
LINE
8
BLACK
6
CONTINUOUS
10
205.215
20
-64.8
11
206.485
21
-64.8
0
LINE
8
BLACK
6
CONTINUOUS
10
205.265
20
-67.34
11
205.729
21
-67.34
0
LINE
8
BLACK
6
CONTINUOUS
10
205.729
20
-67.34
11
205.265
21
-66.8757
0
LINE
8
BLACK
6
CONTINUOUS
10
205.265
20
-66.8757
11
205.265
21
-67.34
0
LINE
8
BLACK
6
CONTINUOUS
10
205.265
20
-66.7343
11
205.871
21
-67.34
0
LINE
8
BLACK
6
CONTINUOUS
10
205.871
20
-67.34
11
206.364
21
-67.34
0
LINE
8
BLACK
6
CONTINUOUS
10
206.364
20
-67.34
11
205.265
21
-66.2407
0
LINE
8
BLACK
6
CONTINUOUS
10
205.265
20
-66.2407
11
205.265
21
-66.7343
0
LINE
8
BLACK
6
CONTINUOUS
10
205.265
20
-66.0993
11
206.435
21
-67.2693
0
LINE
8
BLACK
6
CONTINUOUS
10
206.435
20
-67.2693
11
206.435
21
-66.7757
0
LINE
8
BLACK
6
CONTINUOUS
10
206.435
20
-66.7757
11
205.265
21
-65.6057
0
LINE
8
BLACK
6
CONTINUOUS
10
205.265
20
-65.6057
11
205.265
21
-66.0993
0
LINE
8
BLACK
6
CONTINUOUS
10
205.265
20
-65.4643
11
206.435
21
-66.6343
0
LINE
8
BLACK
6
CONTINUOUS
10
206.435
20
-66.6343
11
206.435
21
-66.1407
0
LINE
8
BLACK
6
CONTINUOUS
10
206.435
20
-66.1407
11
205.265
21
-64.9707
0
LINE
8
BLACK
6
CONTINUOUS
10
205.265
20
-64.9707
11
205.265
21
-65.4643
0
LINE
8
BLACK
6
CONTINUOUS
10
205.336
20
-64.9
11
206.435
21
-65.9993
0
LINE
8
BLACK
6
CONTINUOUS
10
206.435
20
-65.9993
11
206.435
21
-65.5057
0
LINE
8
BLACK
6
CONTINUOUS
10
206.435
20
-65.5057
11
205.829
21
-64.9
0
LINE
8
BLACK
6
CONTINUOUS
10
205.829
20
-64.9
11
205.336
21
-64.9
0
LINE
8
BLACK
6
CONTINUOUS
10
205.971
20
-64.9
11
206.435
21
-65.3643
0
LINE
8
BLACK
6
CONTINUOUS
10
206.435
20
-65.3643
11
206.435
21
-64.9
0
LINE
8
BLACK
6
CONTINUOUS
10
206.435
20
-64.9
11
205.971
21
-64.9
0
LINE
8
BLACK
6
CONTINUOUS
10
329.305
20
-31.2883
11
329.351
21
-31.2943
0
LINE
8
BLACK
6
CONTINUOUS
10
329.351
20
-31.2943
11
329.379
21
-31.3307
0
LINE
8
BLACK
6
CONTINUOUS
10
329.379
20
-31.3307
11
334.309
21
-49.7316
0
LINE
8
BLACK
6
CONTINUOUS
10
334.309
20
-49.7316
11
334.305
21
-49.7626
0
LINE
8
BLACK
6
CONTINUOUS
10
334.305
20
-49.7626
11
334.303
21
-49.7771
0
LINE
8
BLACK
6
CONTINUOUS
10
334.303
20
-49.7771
11
334.267
21
-49.8051
0
LINE
8
BLACK
6
CONTINUOUS
10
334.267
20
-49.8051
11
315.866
21
-54.7356
0
LINE
8
BLACK
6
CONTINUOUS
10
315.866
20
-54.7356
11
315.82
21
-54.7296
0
LINE
8
BLACK
6
CONTINUOUS
10
315.82
20
-54.7296
11
315.792
21
-54.6931
0
LINE
8
BLACK
6
CONTINUOUS
10
315.792
20
-54.6931
11
315.792
21
-54.6931
0
LINE
8
BLACK
6
CONTINUOUS
10
315.792
20
-54.6931
11
310.862
21
-36.2922
0
LINE
8
BLACK
6
CONTINUOUS
10
310.862
20
-36.2922
11
310.868
21
-36.2467
0
LINE
8
BLACK
6
CONTINUOUS
10
310.868
20
-36.2467
11
310.904
21
-36.2188
0
LINE
8
BLACK
6
CONTINUOUS
10
310.904
20
-36.2188
11
329.305
21
-31.2883
0
LINE
8
BLACK
6
CONTINUOUS
10
310.993
20
-36.3191
11
315.893
21
-54.6041
0
LINE
8
BLACK
6
CONTINUOUS
10
315.893
20
-54.6041
11
334.178
21
-49.7047
0
LINE
8
BLACK
6
CONTINUOUS
10
334.178
20
-49.7047
11
329.278
21
-31.4197
0
LINE
8
BLACK
6
CONTINUOUS
10
329.278
20
-31.4197
11
310.993
21
-36.3191
0
LINE
8
BLACK
6
CONTINUOUS
10
271.667
20
-27.0509
11
271.712
21
-27.0569
0
LINE
8
BLACK
6
CONTINUOUS
10
271.712
20
-27.0569
11
271.74
21
-27.0933
0
LINE
8
BLACK
6
CONTINUOUS
10
271.74
20
-27.0933
11
276.671
21
-45.4942
0
LINE
8
BLACK
6
CONTINUOUS
10
276.671
20
-45.4942
11
276.666
21
-45.5252
0
LINE
8
BLACK
6
CONTINUOUS
10
276.666
20
-45.5252
11
276.665
21
-45.5397
0
LINE
8
BLACK
6
CONTINUOUS
10
276.665
20
-45.5397
11
276.628
21
-45.5677
0
LINE
8
BLACK
6
CONTINUOUS
10
276.628
20
-45.5677
11
258.227
21
-50.4982
0
LINE
8
BLACK
6
CONTINUOUS
10
258.227
20
-50.4982
11
258.182
21
-50.4922
0
LINE
8
BLACK
6
CONTINUOUS
10
258.182
20
-50.4922
11
258.154
21
-50.4557
0
LINE
8
BLACK
6
CONTINUOUS
10
258.154
20
-50.4557
11
258.154
21
-50.4557
0
LINE
8
BLACK
6
CONTINUOUS
10
258.154
20
-50.4557
11
253.223
21
-32.0549
0
LINE
8
BLACK
6
CONTINUOUS
10
253.223
20
-32.0549
11
253.229
21
-32.0093
0
LINE
8
BLACK
6
CONTINUOUS
10
253.229
20
-32.0093
11
253.266
21
-31.9814
0
LINE
8
BLACK
6
CONTINUOUS
10
253.266
20
-31.9814
11
271.667
21
-27.0509
0
LINE
8
BLACK
6
CONTINUOUS
10
253.355
20
-32.0818
11
258.254
21
-50.3667
0
LINE
8
BLACK
6
CONTINUOUS
10
258.254
20
-50.3667
11
276.539
21
-45.4673
0
LINE
8
BLACK
6
CONTINUOUS
10
276.539
20
-45.4673
11
271.64
21
-27.1823
0
LINE
8
BLACK
6
CONTINUOUS
10
271.64
20
-27.1823
11
253.355
21
-32.0818
0
LINE
8
BLACK
6
CONTINUOUS
10
299.825
20
-22.5857
11
299.871
21
-22.5917
0
LINE
8
BLACK
6
CONTINUOUS
10
299.871
20
-22.5917
11
299.899
21
-22.6281
0
LINE
8
BLACK
6
CONTINUOUS
10
299.899
20
-22.6281
11
304.829
21
-41.029
0
LINE
8
BLACK
6
CONTINUOUS
10
304.829
20
-41.029
11
304.825
21
-41.0601
0
LINE
8
BLACK
6
CONTINUOUS
10
304.825
20
-41.0601
11
304.823
21
-41.0745
0
LINE
8
BLACK
6
CONTINUOUS
10
304.823
20
-41.0745
11
304.787
21
-41.1025
0
LINE
8
BLACK
6
CONTINUOUS
10
304.787
20
-41.1025
11
286.386
21
-46.033
0
LINE
8
BLACK
6
CONTINUOUS
10
286.386
20
-46.033
11
286.34
21
-46.027
0
LINE
8
BLACK
6
CONTINUOUS
10
286.34
20
-46.027
11
286.313
21
-45.9906
0
LINE
8
BLACK
6
CONTINUOUS
10
286.313
20
-45.9906
11
286.313
21
-45.9906
0
LINE
8
BLACK
6
CONTINUOUS
10
286.313
20
-45.9906
11
281.382
21
-27.5897
0
LINE
8
BLACK
6
CONTINUOUS
10
281.382
20
-27.5897
11
281.388
21
-27.5441
0
LINE
8
BLACK
6
CONTINUOUS
10
281.388
20
-27.5441
11
281.424
21
-27.5162
0
LINE
8
BLACK
6
CONTINUOUS
10
281.424
20
-27.5162
11
299.825
21
-22.5857
0
LINE
8
BLACK
6
CONTINUOUS
10
281.513
20
-27.6166
11
286.413
21
-45.9015
0
LINE
8
BLACK
6
CONTINUOUS
10
286.413
20
-45.9015
11
304.698
21
-41.0021
0
LINE
8
BLACK
6
CONTINUOUS
10
304.698
20
-41.0021
11
299.798
21
-22.7171
0
LINE
8
BLACK
6
CONTINUOUS
10
299.798
20
-22.7171
11
281.513
21
-27.6166
  0
ENDSEC
  0
EOF
