  0
SECTION
  2
HEADER
  9
$ANGBASE
  50
0.0
  9
$ANGDIR
  70
1
  9
$MEASUREMENT
  70
1
  0
ENDSEC
  0
SECTION
  2
TABLES
  0
TABLE
  2
LTYPE
  70
4
  0
LTYPE
  5
40F
  2
CONTINUOUS
  70
0
  3
Solid line
  72
65
  73
0
  40
0.0
  0
LTYPE
  5
410
  2
DASHDOT
 70
0
  3
Dash Dot ____ _ ____ _
 72
65
 73
4
 40
2.0
 49
1.25
 49
-0.25
 49
0.25
 49
-0.25
  0
LTYPE
  5
411
  2
DASHED
 70
0
  3
Dashed __ __ __ __ __
 72
65
 73
2
 40
0.75
 49
0.5
 49
-0.25
  0
LTYPE
  5
43B
  2
DOTTED
 70
0
  3
Dotted .  .  .  .
 72
65
 73
2
 40
0.2
 49
0.0
 49
-0.2
  0
ENDTAB
  0
TABLE
  2
STYLE
  70
4
  0
STYLE
  2
KICAD
  70
0
  40
0
  41
1
  42
1
  50
0
  71
0
  3
isocp.shx
  0
STYLE
  2
KICADB
  70
0
  40
0
  41
1
  42
1
  50
0
  71
0
  3
isocp.shx
  0
STYLE
  2
KICADI
  70
0
  40
0
  41
1
  42
1
  50
15
  71
0
  3
isocp.shx
  0
STYLE
  2
KICADBI
  70
0
  40
0
  41
1
  42
1
  50
15
  71
0
  3
isocp.shx
  0
ENDTAB
  0
TABLE
  2
LAYER
  70
1
  0
LAYER
  2
BLACK
  70
0
  62
7
  6
CONTINUOUS
  0
ENDTAB
  0
ENDSEC
  0
SECTION
  2
ENTITIES
0
LINE
8
BLACK
6
CONTINUOUS
10
172.768
20
-146.31
11
172.768
21
-146.31
0
LINE
8
BLACK
6
CONTINUOUS
10
172.768
20
-146.31
11
186.291
21
-149.933
0
LINE
8
BLACK
6
CONTINUOUS
10
186.291
20
-149.933
11
186.291
21
-149.933
0
LINE
8
BLACK
6
CONTINUOUS
10
186.291
20
-149.933
11
186.306
21
-149.945
0
LINE
8
BLACK
6
CONTINUOUS
10
186.306
20
-149.945
11
186.306
21
-149.945
0
LINE
8
BLACK
6
CONTINUOUS
10
186.306
20
-149.945
11
186.309
21
-149.964
0
LINE
8
BLACK
6
CONTINUOUS
10
186.309
20
-149.964
11
186.309
21
-149.964
0
LINE
8
BLACK
6
CONTINUOUS
10
186.309
20
-149.964
11
182.685
21
-163.487
0
LINE
8
BLACK
6
CONTINUOUS
10
182.685
20
-163.487
11
182.685
21
-163.487
0
LINE
8
BLACK
6
CONTINUOUS
10
182.685
20
-163.487
11
182.674
21
-163.502
0
LINE
8
BLACK
6
CONTINUOUS
10
182.674
20
-163.502
11
182.655
21
-163.505
0
LINE
8
BLACK
6
CONTINUOUS
10
182.655
20
-163.505
11
169.132
21
-159.881
0
LINE
8
BLACK
6
CONTINUOUS
10
169.132
20
-159.881
11
169.116
21
-159.87
0
LINE
8
BLACK
6
CONTINUOUS
10
169.116
20
-159.87
11
169.114
21
-159.851
0
LINE
8
BLACK
6
CONTINUOUS
10
169.114
20
-159.851
11
172.737
21
-146.328
0
LINE
8
BLACK
6
CONTINUOUS
10
172.737
20
-146.328
11
172.749
21
-146.313
0
LINE
8
BLACK
6
CONTINUOUS
10
172.749
20
-146.313
11
172.768
21
-146.31
0
LINE
8
BLACK
6
CONTINUOUS
10
169.169
20
-159.839
11
182.643
21
-163.45
0
LINE
8
BLACK
6
CONTINUOUS
10
182.643
20
-163.45
11
186.254
21
-149.975
0
LINE
8
BLACK
6
CONTINUOUS
10
186.254
20
-149.975
11
172.779
21
-146.365
0
LINE
8
BLACK
6
CONTINUOUS
10
172.779
20
-146.365
11
169.169
21
-159.839
0
LINE
8
BLACK
6
CONTINUOUS
10
226.091
20
-143.738
11
226.11
21
-143.741
0
LINE
8
BLACK
6
CONTINUOUS
10
226.11
20
-143.741
11
226.121
21
-143.756
0
LINE
8
BLACK
6
CONTINUOUS
10
226.121
20
-143.756
11
226.121
21
-143.756
0
LINE
8
BLACK
6
CONTINUOUS
10
226.121
20
-143.756
11
229.745
21
-157.279
0
LINE
8
BLACK
6
CONTINUOUS
10
229.745
20
-157.279
11
229.745
21
-157.279
0
LINE
8
BLACK
6
CONTINUOUS
10
229.745
20
-157.279
11
229.743
21
-157.292
0
LINE
8
BLACK
6
CONTINUOUS
10
229.743
20
-157.292
11
229.742
21
-157.298
0
LINE
8
BLACK
6
CONTINUOUS
10
229.742
20
-157.298
11
229.727
21
-157.31
0
LINE
8
BLACK
6
CONTINUOUS
10
229.727
20
-157.31
11
229.727
21
-157.31
0
LINE
8
BLACK
6
CONTINUOUS
10
229.727
20
-157.31
11
216.204
21
-160.933
0
LINE
8
BLACK
6
CONTINUOUS
10
216.204
20
-160.933
11
216.204
21
-160.933
0
LINE
8
BLACK
6
CONTINUOUS
10
216.204
20
-160.933
11
216.185
21
-160.931
0
LINE
8
BLACK
6
CONTINUOUS
10
216.185
20
-160.931
11
216.174
21
-160.916
0
LINE
8
BLACK
6
CONTINUOUS
10
216.174
20
-160.916
11
212.55
21
-147.393
0
LINE
8
BLACK
6
CONTINUOUS
10
212.55
20
-147.393
11
212.553
21
-147.374
0
LINE
8
BLACK
6
CONTINUOUS
10
212.553
20
-147.374
11
212.568
21
-147.362
0
LINE
8
BLACK
6
CONTINUOUS
10
212.568
20
-147.362
11
226.091
21
-143.738
0
LINE
8
BLACK
6
CONTINUOUS
10
212.605
20
-147.404
11
216.215
21
-160.878
0
LINE
8
BLACK
6
CONTINUOUS
10
216.215
20
-160.878
11
229.69
21
-157.268
0
LINE
8
BLACK
6
CONTINUOUS
10
229.69
20
-157.268
11
226.08
21
-143.793
0
LINE
8
BLACK
6
CONTINUOUS
10
226.08
20
-143.793
11
212.605
21
-147.404
0
LINE
8
BLACK
6
CONTINUOUS
10
302.82
20
-143.8
11
302.84
21
-143.504
0
LINE
8
BLACK
6
CONTINUOUS
10
302.84
20
-143.504
11
302.901
21
-143.213
0
LINE
8
BLACK
6
CONTINUOUS
10
302.901
20
-143.213
11
303
21
-142.933
0
LINE
8
BLACK
6
CONTINUOUS
10
303
20
-142.933
11
303.137
21
-142.67
0
LINE
8
BLACK
6
CONTINUOUS
10
303.137
20
-142.67
11
303.308
21
-142.427
0
LINE
8
BLACK
6
CONTINUOUS
10
303.308
20
-142.427
11
303.51
21
-142.21
0
LINE
8
BLACK
6
CONTINUOUS
10
303.51
20
-142.21
11
303.741
21
-142.023
0
LINE
8
BLACK
6
CONTINUOUS
10
303.741
20
-142.023
11
303.994
21
-141.869
0
LINE
8
BLACK
6
CONTINUOUS
10
303.994
20
-141.869
11
304.267
21
-141.751
0
LINE
8
BLACK
6
CONTINUOUS
10
304.267
20
-141.751
11
304.552
21
-141.67
0
LINE
8
BLACK
6
CONTINUOUS
10
304.552
20
-141.67
11
304.847
21
-141.63
0
LINE
8
BLACK
6
CONTINUOUS
10
304.847
20
-141.63
11
305.143
21
-141.63
0
LINE
8
BLACK
6
CONTINUOUS
10
305.143
20
-141.63
11
305.438
21
-141.67
0
LINE
8
BLACK
6
CONTINUOUS
10
305.438
20
-141.67
11
305.723
21
-141.751
0
LINE
8
BLACK
6
CONTINUOUS
10
305.723
20
-141.751
11
305.996
21
-141.869
0
LINE
8
BLACK
6
CONTINUOUS
10
305.996
20
-141.869
11
306.249
21
-142.023
0
LINE
8
BLACK
6
CONTINUOUS
10
306.249
20
-142.023
11
306.48
21
-142.21
0
LINE
8
BLACK
6
CONTINUOUS
10
306.48
20
-142.21
11
306.682
21
-142.427
0
LINE
8
BLACK
6
CONTINUOUS
10
306.682
20
-142.427
11
306.853
21
-142.67
0
LINE
8
BLACK
6
CONTINUOUS
10
306.853
20
-142.67
11
306.99
21
-142.933
0
LINE
8
BLACK
6
CONTINUOUS
10
306.99
20
-142.933
11
307.089
21
-143.213
0
LINE
8
BLACK
6
CONTINUOUS
10
307.089
20
-143.213
11
307.15
21
-143.504
0
LINE
8
BLACK
6
CONTINUOUS
10
307.15
20
-143.504
11
307.17
21
-143.8
0
LINE
8
BLACK
6
CONTINUOUS
10
307.17
20
-143.8
11
307.15
21
-144.096
0
LINE
8
BLACK
6
CONTINUOUS
10
307.15
20
-144.096
11
307.089
21
-144.387
0
LINE
8
BLACK
6
CONTINUOUS
10
307.089
20
-144.387
11
306.99
21
-144.667
0
LINE
8
BLACK
6
CONTINUOUS
10
306.99
20
-144.667
11
306.853
21
-144.93
0
LINE
8
BLACK
6
CONTINUOUS
10
306.853
20
-144.93
11
306.682
21
-145.173
0
LINE
8
BLACK
6
CONTINUOUS
10
306.682
20
-145.173
11
306.48
21
-145.39
0
LINE
8
BLACK
6
CONTINUOUS
10
306.48
20
-145.39
11
306.249
21
-145.577
0
LINE
8
BLACK
6
CONTINUOUS
10
306.249
20
-145.577
11
305.996
21
-145.731
0
LINE
8
BLACK
6
CONTINUOUS
10
305.996
20
-145.731
11
305.723
21
-145.849
0
LINE
8
BLACK
6
CONTINUOUS
10
305.723
20
-145.849
11
305.438
21
-145.93
0
LINE
8
BLACK
6
CONTINUOUS
10
305.438
20
-145.93
11
305.143
21
-145.97
0
LINE
8
BLACK
6
CONTINUOUS
10
305.143
20
-145.97
11
304.847
21
-145.97
0
LINE
8
BLACK
6
CONTINUOUS
10
304.847
20
-145.97
11
304.552
21
-145.93
0
LINE
8
BLACK
6
CONTINUOUS
10
304.552
20
-145.93
11
304.267
21
-145.849
0
LINE
8
BLACK
6
CONTINUOUS
10
304.267
20
-145.849
11
303.994
21
-145.731
0
LINE
8
BLACK
6
CONTINUOUS
10
303.994
20
-145.731
11
303.741
21
-145.577
0
LINE
8
BLACK
6
CONTINUOUS
10
303.741
20
-145.577
11
303.51
21
-145.39
0
LINE
8
BLACK
6
CONTINUOUS
10
303.51
20
-145.39
11
303.308
21
-145.173
0
LINE
8
BLACK
6
CONTINUOUS
10
303.308
20
-145.173
11
303.137
21
-144.93
0
LINE
8
BLACK
6
CONTINUOUS
10
303.137
20
-144.93
11
303
21
-144.667
0
LINE
8
BLACK
6
CONTINUOUS
10
303
20
-144.667
11
302.901
21
-144.387
0
LINE
8
BLACK
6
CONTINUOUS
10
302.901
20
-144.387
11
302.84
21
-144.096
0
LINE
8
BLACK
6
CONTINUOUS
10
302.84
20
-144.096
11
302.82
21
-143.8
0
LINE
8
BLACK
6
CONTINUOUS
10
302.865
20
-143.8
11
302.885
21
-144.09
0
LINE
8
BLACK
6
CONTINUOUS
10
302.885
20
-144.09
11
302.944
21
-144.375
0
LINE
8
BLACK
6
CONTINUOUS
10
302.944
20
-144.375
11
303.041
21
-144.649
0
LINE
8
BLACK
6
CONTINUOUS
10
303.041
20
-144.649
11
303.175
21
-144.907
0
LINE
8
BLACK
6
CONTINUOUS
10
303.175
20
-144.907
11
303.343
21
-145.144
0
LINE
8
BLACK
6
CONTINUOUS
10
303.343
20
-145.144
11
303.541
21
-145.357
0
LINE
8
BLACK
6
CONTINUOUS
10
303.541
20
-145.357
11
303.767
21
-145.54
0
LINE
8
BLACK
6
CONTINUOUS
10
303.767
20
-145.54
11
304.015
21
-145.691
0
LINE
8
BLACK
6
CONTINUOUS
10
304.015
20
-145.691
11
304.282
21
-145.807
0
LINE
8
BLACK
6
CONTINUOUS
10
304.282
20
-145.807
11
304.562
21
-145.885
0
LINE
8
BLACK
6
CONTINUOUS
10
304.562
20
-145.885
11
304.85
21
-145.925
0
LINE
8
BLACK
6
CONTINUOUS
10
304.85
20
-145.925
11
305.14
21
-145.925
0
LINE
8
BLACK
6
CONTINUOUS
10
305.14
20
-145.925
11
305.428
21
-145.885
0
LINE
8
BLACK
6
CONTINUOUS
10
305.428
20
-145.885
11
305.708
21
-145.807
0
LINE
8
BLACK
6
CONTINUOUS
10
305.708
20
-145.807
11
305.975
21
-145.691
0
LINE
8
BLACK
6
CONTINUOUS
10
305.975
20
-145.691
11
306.223
21
-145.54
0
LINE
8
BLACK
6
CONTINUOUS
10
306.223
20
-145.54
11
306.449
21
-145.357
0
LINE
8
BLACK
6
CONTINUOUS
10
306.449
20
-145.357
11
306.647
21
-145.144
0
LINE
8
BLACK
6
CONTINUOUS
10
306.647
20
-145.144
11
306.815
21
-144.907
0
LINE
8
BLACK
6
CONTINUOUS
10
306.815
20
-144.907
11
306.949
21
-144.649
0
LINE
8
BLACK
6
CONTINUOUS
10
306.949
20
-144.649
11
307.046
21
-144.375
0
LINE
8
BLACK
6
CONTINUOUS
10
307.046
20
-144.375
11
307.105
21
-144.09
0
LINE
8
BLACK
6
CONTINUOUS
10
307.105
20
-144.09
11
307.125
21
-143.8
0
LINE
8
BLACK
6
CONTINUOUS
10
307.125
20
-143.8
11
307.105
21
-143.51
0
LINE
8
BLACK
6
CONTINUOUS
10
307.105
20
-143.51
11
307.046
21
-143.225
0
LINE
8
BLACK
6
CONTINUOUS
10
307.046
20
-143.225
11
306.949
21
-142.951
0
LINE
8
BLACK
6
CONTINUOUS
10
306.949
20
-142.951
11
306.815
21
-142.693
0
LINE
8
BLACK
6
CONTINUOUS
10
306.815
20
-142.693
11
306.647
21
-142.456
0
LINE
8
BLACK
6
CONTINUOUS
10
306.647
20
-142.456
11
306.449
21
-142.243
0
LINE
8
BLACK
6
CONTINUOUS
10
306.449
20
-142.243
11
306.223
21
-142.06
0
LINE
8
BLACK
6
CONTINUOUS
10
306.223
20
-142.06
11
305.975
21
-141.909
0
LINE
8
BLACK
6
CONTINUOUS
10
305.975
20
-141.909
11
305.708
21
-141.793
0
LINE
8
BLACK
6
CONTINUOUS
10
305.708
20
-141.793
11
305.428
21
-141.715
0
LINE
8
BLACK
6
CONTINUOUS
10
305.428
20
-141.715
11
305.14
21
-141.675
0
LINE
8
BLACK
6
CONTINUOUS
10
305.14
20
-141.675
11
304.85
21
-141.675
0
LINE
8
BLACK
6
CONTINUOUS
10
304.85
20
-141.675
11
304.562
21
-141.715
0
LINE
8
BLACK
6
CONTINUOUS
10
304.562
20
-141.715
11
304.282
21
-141.793
0
LINE
8
BLACK
6
CONTINUOUS
10
304.282
20
-141.793
11
304.015
21
-141.909
0
LINE
8
BLACK
6
CONTINUOUS
10
304.015
20
-141.909
11
303.767
21
-142.06
0
LINE
8
BLACK
6
CONTINUOUS
10
303.767
20
-142.06
11
303.541
21
-142.243
0
LINE
8
BLACK
6
CONTINUOUS
10
303.541
20
-142.243
11
303.343
21
-142.456
0
LINE
8
BLACK
6
CONTINUOUS
10
303.343
20
-142.456
11
303.175
21
-142.693
0
LINE
8
BLACK
6
CONTINUOUS
10
303.175
20
-142.693
11
303.041
21
-142.951
0
LINE
8
BLACK
6
CONTINUOUS
10
303.041
20
-142.951
11
302.944
21
-143.225
0
LINE
8
BLACK
6
CONTINUOUS
10
302.944
20
-143.225
11
302.885
21
-143.51
0
LINE
8
BLACK
6
CONTINUOUS
10
302.885
20
-143.51
11
302.865
21
-143.8
0
LINE
8
BLACK
6
CONTINUOUS
10
90.22
20
-143.8
11
90.2403
21
-143.504
0
LINE
8
BLACK
6
CONTINUOUS
10
90.2403
20
-143.504
11
90.3007
21
-143.213
0
LINE
8
BLACK
6
CONTINUOUS
10
90.3007
20
-143.213
11
90.4001
21
-142.933
0
LINE
8
BLACK
6
CONTINUOUS
10
90.4001
20
-142.933
11
90.5366
21
-142.67
0
LINE
8
BLACK
6
CONTINUOUS
10
90.5366
20
-142.67
11
90.7078
21
-142.427
0
LINE
8
BLACK
6
CONTINUOUS
10
90.7078
20
-142.427
11
90.9104
21
-142.21
0
LINE
8
BLACK
6
CONTINUOUS
10
90.9104
20
-142.21
11
91.1407
21
-142.023
0
LINE
8
BLACK
6
CONTINUOUS
10
91.1407
20
-142.023
11
91.3944
21
-141.869
0
LINE
8
BLACK
6
CONTINUOUS
10
91.3944
20
-141.869
11
91.6666
21
-141.751
0
LINE
8
BLACK
6
CONTINUOUS
10
91.6666
20
-141.751
11
91.9525
21
-141.67
0
LINE
8
BLACK
6
CONTINUOUS
10
91.9525
20
-141.67
11
92.2466
21
-141.63
0
LINE
8
BLACK
6
CONTINUOUS
10
92.2466
20
-141.63
11
92.5434
21
-141.63
0
LINE
8
BLACK
6
CONTINUOUS
10
92.5434
20
-141.63
11
92.8375
21
-141.67
0
LINE
8
BLACK
6
CONTINUOUS
10
92.8375
20
-141.67
11
93.1234
21
-141.751
0
LINE
8
BLACK
6
CONTINUOUS
10
93.1234
20
-141.751
11
93.3956
21
-141.869
0
LINE
8
BLACK
6
CONTINUOUS
10
93.3956
20
-141.869
11
93.6493
21
-142.023
0
LINE
8
BLACK
6
CONTINUOUS
10
93.6493
20
-142.023
11
93.8796
21
-142.21
0
LINE
8
BLACK
6
CONTINUOUS
10
93.8796
20
-142.21
11
94.0822
21
-142.427
0
LINE
8
BLACK
6
CONTINUOUS
10
94.0822
20
-142.427
11
94.2534
21
-142.67
0
LINE
8
BLACK
6
CONTINUOUS
10
94.2534
20
-142.67
11
94.3899
21
-142.933
0
LINE
8
BLACK
6
CONTINUOUS
10
94.3899
20
-142.933
11
94.4893
21
-143.213
0
LINE
8
BLACK
6
CONTINUOUS
10
94.4893
20
-143.213
11
94.5497
21
-143.504
0
LINE
8
BLACK
6
CONTINUOUS
10
94.5497
20
-143.504
11
94.57
21
-143.8
0
LINE
8
BLACK
6
CONTINUOUS
10
94.57
20
-143.8
11
94.5497
21
-144.096
0
LINE
8
BLACK
6
CONTINUOUS
10
94.5497
20
-144.096
11
94.4893
21
-144.387
0
LINE
8
BLACK
6
CONTINUOUS
10
94.4893
20
-144.387
11
94.3899
21
-144.667
0
LINE
8
BLACK
6
CONTINUOUS
10
94.3899
20
-144.667
11
94.2534
21
-144.93
0
LINE
8
BLACK
6
CONTINUOUS
10
94.2534
20
-144.93
11
94.0822
21
-145.173
0
LINE
8
BLACK
6
CONTINUOUS
10
94.0822
20
-145.173
11
93.8796
21
-145.39
0
LINE
8
BLACK
6
CONTINUOUS
10
93.8796
20
-145.39
11
93.6493
21
-145.577
0
LINE
8
BLACK
6
CONTINUOUS
10
93.6493
20
-145.577
11
93.3956
21
-145.731
0
LINE
8
BLACK
6
CONTINUOUS
10
93.3956
20
-145.731
11
93.1234
21
-145.849
0
LINE
8
BLACK
6
CONTINUOUS
10
93.1234
20
-145.849
11
92.8375
21
-145.93
0
LINE
8
BLACK
6
CONTINUOUS
10
92.8375
20
-145.93
11
92.5434
21
-145.97
0
LINE
8
BLACK
6
CONTINUOUS
10
92.5434
20
-145.97
11
92.2466
21
-145.97
0
LINE
8
BLACK
6
CONTINUOUS
10
92.2466
20
-145.97
11
91.9525
21
-145.93
0
LINE
8
BLACK
6
CONTINUOUS
10
91.9525
20
-145.93
11
91.6666
21
-145.849
0
LINE
8
BLACK
6
CONTINUOUS
10
91.6666
20
-145.849
11
91.3944
21
-145.731
0
LINE
8
BLACK
6
CONTINUOUS
10
91.3944
20
-145.731
11
91.1407
21
-145.577
0
LINE
8
BLACK
6
CONTINUOUS
10
91.1407
20
-145.577
11
90.9104
21
-145.39
0
LINE
8
BLACK
6
CONTINUOUS
10
90.9104
20
-145.39
11
90.7078
21
-145.173
0
LINE
8
BLACK
6
CONTINUOUS
10
90.7078
20
-145.173
11
90.5366
21
-144.93
0
LINE
8
BLACK
6
CONTINUOUS
10
90.5366
20
-144.93
11
90.4001
21
-144.667
0
LINE
8
BLACK
6
CONTINUOUS
10
90.4001
20
-144.667
11
90.3007
21
-144.387
0
LINE
8
BLACK
6
CONTINUOUS
10
90.3007
20
-144.387
11
90.2403
21
-144.096
0
LINE
8
BLACK
6
CONTINUOUS
10
90.2403
20
-144.096
11
90.22
21
-143.8
0
LINE
8
BLACK
6
CONTINUOUS
10
90.265
20
-143.8
11
90.2849
21
-144.09
0
LINE
8
BLACK
6
CONTINUOUS
10
90.2849
20
-144.09
11
90.344
21
-144.375
0
LINE
8
BLACK
6
CONTINUOUS
10
90.344
20
-144.375
11
90.4414
21
-144.649
0
LINE
8
BLACK
6
CONTINUOUS
10
90.4414
20
-144.649
11
90.5751
21
-144.907
0
LINE
8
BLACK
6
CONTINUOUS
10
90.5751
20
-144.907
11
90.7428
21
-145.144
0
LINE
8
BLACK
6
CONTINUOUS
10
90.7428
20
-145.144
11
90.9412
21
-145.357
0
LINE
8
BLACK
6
CONTINUOUS
10
90.9412
20
-145.357
11
91.1667
21
-145.54
0
LINE
8
BLACK
6
CONTINUOUS
10
91.1667
20
-145.54
11
91.4151
21
-145.691
0
LINE
8
BLACK
6
CONTINUOUS
10
91.4151
20
-145.691
11
91.6817
21
-145.807
0
LINE
8
BLACK
6
CONTINUOUS
10
91.6817
20
-145.807
11
91.9616
21
-145.885
0
LINE
8
BLACK
6
CONTINUOUS
10
91.9616
20
-145.885
11
92.2496
21
-145.925
0
LINE
8
BLACK
6
CONTINUOUS
10
92.2496
20
-145.925
11
92.5404
21
-145.925
0
LINE
8
BLACK
6
CONTINUOUS
10
92.5404
20
-145.925
11
92.8284
21
-145.885
0
LINE
8
BLACK
6
CONTINUOUS
10
92.8284
20
-145.885
11
93.1083
21
-145.807
0
LINE
8
BLACK
6
CONTINUOUS
10
93.1083
20
-145.807
11
93.3749
21
-145.691
0
LINE
8
BLACK
6
CONTINUOUS
10
93.3749
20
-145.691
11
93.6233
21
-145.54
0
LINE
8
BLACK
6
CONTINUOUS
10
93.6233
20
-145.54
11
93.8488
21
-145.357
0
LINE
8
BLACK
6
CONTINUOUS
10
93.8488
20
-145.357
11
94.0472
21
-145.144
0
LINE
8
BLACK
6
CONTINUOUS
10
94.0472
20
-145.144
11
94.2149
21
-144.907
0
LINE
8
BLACK
6
CONTINUOUS
10
94.2149
20
-144.907
11
94.3486
21
-144.649
0
LINE
8
BLACK
6
CONTINUOUS
10
94.3486
20
-144.649
11
94.446
21
-144.375
0
LINE
8
BLACK
6
CONTINUOUS
10
94.446
20
-144.375
11
94.5051
21
-144.09
0
LINE
8
BLACK
6
CONTINUOUS
10
94.5051
20
-144.09
11
94.525
21
-143.8
0
LINE
8
BLACK
6
CONTINUOUS
10
94.525
20
-143.8
11
94.5051
21
-143.51
0
LINE
8
BLACK
6
CONTINUOUS
10
94.5051
20
-143.51
11
94.446
21
-143.225
0
LINE
8
BLACK
6
CONTINUOUS
10
94.446
20
-143.225
11
94.3486
21
-142.951
0
LINE
8
BLACK
6
CONTINUOUS
10
94.3486
20
-142.951
11
94.2149
21
-142.693
0
LINE
8
BLACK
6
CONTINUOUS
10
94.2149
20
-142.693
11
94.0472
21
-142.456
0
LINE
8
BLACK
6
CONTINUOUS
10
94.0472
20
-142.456
11
93.8488
21
-142.243
0
LINE
8
BLACK
6
CONTINUOUS
10
93.8488
20
-142.243
11
93.6233
21
-142.06
0
LINE
8
BLACK
6
CONTINUOUS
10
93.6233
20
-142.06
11
93.3749
21
-141.909
0
LINE
8
BLACK
6
CONTINUOUS
10
93.3749
20
-141.909
11
93.1083
21
-141.793
0
LINE
8
BLACK
6
CONTINUOUS
10
93.1083
20
-141.793
11
92.8284
21
-141.715
0
LINE
8
BLACK
6
CONTINUOUS
10
92.8284
20
-141.715
11
92.5404
21
-141.675
0
LINE
8
BLACK
6
CONTINUOUS
10
92.5404
20
-141.675
11
92.2496
21
-141.675
0
LINE
8
BLACK
6
CONTINUOUS
10
92.2496
20
-141.675
11
91.9616
21
-141.715
0
LINE
8
BLACK
6
CONTINUOUS
10
91.9616
20
-141.715
11
91.6817
21
-141.793
0
LINE
8
BLACK
6
CONTINUOUS
10
91.6817
20
-141.793
11
91.4151
21
-141.909
0
LINE
8
BLACK
6
CONTINUOUS
10
91.4151
20
-141.909
11
91.1667
21
-142.06
0
LINE
8
BLACK
6
CONTINUOUS
10
91.1667
20
-142.06
11
90.9412
21
-142.243
0
LINE
8
BLACK
6
CONTINUOUS
10
90.9412
20
-142.243
11
90.7428
21
-142.456
0
LINE
8
BLACK
6
CONTINUOUS
10
90.7428
20
-142.456
11
90.5751
21
-142.693
0
LINE
8
BLACK
6
CONTINUOUS
10
90.5751
20
-142.693
11
90.4414
21
-142.951
0
LINE
8
BLACK
6
CONTINUOUS
10
90.4414
20
-142.951
11
90.344
21
-143.225
0
LINE
8
BLACK
6
CONTINUOUS
10
90.344
20
-143.225
11
90.2849
21
-143.51
0
LINE
8
BLACK
6
CONTINUOUS
10
90.2849
20
-143.51
11
90.265
21
-143.8
0
LINE
8
BLACK
6
CONTINUOUS
10
243.923
20
-125.634
11
243.942
21
-125.636
0
LINE
8
BLACK
6
CONTINUOUS
10
243.942
20
-125.636
11
243.954
21
-125.652
0
LINE
8
BLACK
6
CONTINUOUS
10
243.954
20
-125.652
11
243.954
21
-125.652
0
LINE
8
BLACK
6
CONTINUOUS
10
243.954
20
-125.652
11
247.577
21
-139.175
0
LINE
8
BLACK
6
CONTINUOUS
10
247.577
20
-139.175
11
247.577
21
-139.175
0
LINE
8
BLACK
6
CONTINUOUS
10
247.577
20
-139.175
11
247.575
21
-139.188
0
LINE
8
BLACK
6
CONTINUOUS
10
247.575
20
-139.188
11
247.575
21
-139.194
0
LINE
8
BLACK
6
CONTINUOUS
10
247.575
20
-139.194
11
247.56
21
-139.205
0
LINE
8
BLACK
6
CONTINUOUS
10
247.56
20
-139.205
11
247.56
21
-139.205
0
LINE
8
BLACK
6
CONTINUOUS
10
247.56
20
-139.205
11
234.037
21
-142.829
0
LINE
8
BLACK
6
CONTINUOUS
10
234.037
20
-142.829
11
234.037
21
-142.829
0
LINE
8
BLACK
6
CONTINUOUS
10
234.037
20
-142.829
11
234.018
21
-142.826
0
LINE
8
BLACK
6
CONTINUOUS
10
234.018
20
-142.826
11
234.006
21
-142.811
0
LINE
8
BLACK
6
CONTINUOUS
10
234.006
20
-142.811
11
230.382
21
-129.288
0
LINE
8
BLACK
6
CONTINUOUS
10
230.382
20
-129.288
11
230.385
21
-129.269
0
LINE
8
BLACK
6
CONTINUOUS
10
230.385
20
-129.269
11
230.4
21
-129.257
0
LINE
8
BLACK
6
CONTINUOUS
10
230.4
20
-129.257
11
243.923
21
-125.634
0
LINE
8
BLACK
6
CONTINUOUS
10
230.437
20
-129.299
11
234.048
21
-142.774
0
LINE
8
BLACK
6
CONTINUOUS
10
234.048
20
-142.774
11
247.522
21
-139.163
0
LINE
8
BLACK
6
CONTINUOUS
10
247.522
20
-139.163
11
243.912
21
-125.689
0
LINE
8
BLACK
6
CONTINUOUS
10
243.912
20
-125.689
11
230.437
21
-129.299
0
LINE
8
BLACK
6
CONTINUOUS
10
154.934
20
-125.206
11
154.934
21
-125.206
0
LINE
8
BLACK
6
CONTINUOUS
10
154.934
20
-125.206
11
168.457
21
-128.83
0
LINE
8
BLACK
6
CONTINUOUS
10
168.457
20
-128.83
11
168.457
21
-128.83
0
LINE
8
BLACK
6
CONTINUOUS
10
168.457
20
-128.83
11
168.473
21
-128.841
0
LINE
8
BLACK
6
CONTINUOUS
10
168.473
20
-128.841
11
168.473
21
-128.841
0
LINE
8
BLACK
6
CONTINUOUS
10
168.473
20
-128.841
11
168.475
21
-128.86
0
LINE
8
BLACK
6
CONTINUOUS
10
168.475
20
-128.86
11
168.475
21
-128.86
0
LINE
8
BLACK
6
CONTINUOUS
10
168.475
20
-128.86
11
164.852
21
-142.383
0
LINE
8
BLACK
6
CONTINUOUS
10
164.852
20
-142.383
11
164.852
21
-142.383
0
LINE
8
BLACK
6
CONTINUOUS
10
164.852
20
-142.383
11
164.84
21
-142.398
0
LINE
8
BLACK
6
CONTINUOUS
10
164.84
20
-142.398
11
164.821
21
-142.401
0
LINE
8
BLACK
6
CONTINUOUS
10
164.821
20
-142.401
11
151.298
21
-138.778
0
LINE
8
BLACK
6
CONTINUOUS
10
151.298
20
-138.778
11
151.283
21
-138.766
0
LINE
8
BLACK
6
CONTINUOUS
10
151.283
20
-138.766
11
151.28
21
-138.747
0
LINE
8
BLACK
6
CONTINUOUS
10
151.28
20
-138.747
11
154.904
21
-125.224
0
LINE
8
BLACK
6
CONTINUOUS
10
154.904
20
-125.224
11
154.915
21
-125.209
0
LINE
8
BLACK
6
CONTINUOUS
10
154.915
20
-125.209
11
154.934
21
-125.206
0
LINE
8
BLACK
6
CONTINUOUS
10
151.335
20
-138.736
11
164.81
21
-142.346
0
LINE
8
BLACK
6
CONTINUOUS
10
164.81
20
-142.346
11
168.42
21
-128.872
0
LINE
8
BLACK
6
CONTINUOUS
10
168.42
20
-128.872
11
154.946
21
-125.261
0
LINE
8
BLACK
6
CONTINUOUS
10
154.946
20
-125.261
11
151.335
21
-138.736
0
LINE
8
BLACK
6
CONTINUOUS
10
218.019
20
-116.616
11
218.038
21
-116.619
0
LINE
8
BLACK
6
CONTINUOUS
10
218.038
20
-116.619
11
218.05
21
-116.634
0
LINE
8
BLACK
6
CONTINUOUS
10
218.05
20
-116.634
11
218.05
21
-116.634
0
LINE
8
BLACK
6
CONTINUOUS
10
218.05
20
-116.634
11
221.674
21
-130.157
0
LINE
8
BLACK
6
CONTINUOUS
10
221.674
20
-130.157
11
221.674
21
-130.157
0
LINE
8
BLACK
6
CONTINUOUS
10
221.674
20
-130.157
11
221.672
21
-130.17
0
LINE
8
BLACK
6
CONTINUOUS
10
221.672
20
-130.17
11
221.671
21
-130.176
0
LINE
8
BLACK
6
CONTINUOUS
10
221.671
20
-130.176
11
221.656
21
-130.187
0
LINE
8
BLACK
6
CONTINUOUS
10
221.656
20
-130.187
11
221.656
21
-130.187
0
LINE
8
BLACK
6
CONTINUOUS
10
221.656
20
-130.187
11
208.133
21
-133.811
0
LINE
8
BLACK
6
CONTINUOUS
10
208.133
20
-133.811
11
208.133
21
-133.811
0
LINE
8
BLACK
6
CONTINUOUS
10
208.133
20
-133.811
11
208.114
21
-133.808
0
LINE
8
BLACK
6
CONTINUOUS
10
208.114
20
-133.808
11
208.102
21
-133.793
0
LINE
8
BLACK
6
CONTINUOUS
10
208.102
20
-133.793
11
204.479
21
-120.27
0
LINE
8
BLACK
6
CONTINUOUS
10
204.479
20
-120.27
11
204.481
21
-120.251
0
LINE
8
BLACK
6
CONTINUOUS
10
204.481
20
-120.251
11
204.496
21
-120.24
0
LINE
8
BLACK
6
CONTINUOUS
10
204.496
20
-120.24
11
218.019
21
-116.616
0
LINE
8
BLACK
6
CONTINUOUS
10
204.534
20
-120.281
11
208.144
21
-133.756
0
LINE
8
BLACK
6
CONTINUOUS
10
208.144
20
-133.756
11
221.619
21
-130.146
0
LINE
8
BLACK
6
CONTINUOUS
10
221.619
20
-130.146
11
218.008
21
-116.671
0
LINE
8
BLACK
6
CONTINUOUS
10
218.008
20
-116.671
11
204.534
21
-120.281
0
LINE
8
BLACK
6
CONTINUOUS
10
261.818
20
-104.88
11
261.837
21
-104.883
0
LINE
8
BLACK
6
CONTINUOUS
10
261.837
20
-104.883
11
261.849
21
-104.898
0
LINE
8
BLACK
6
CONTINUOUS
10
261.849
20
-104.898
11
261.849
21
-104.898
0
LINE
8
BLACK
6
CONTINUOUS
10
261.849
20
-104.898
11
265.472
21
-118.421
0
LINE
8
BLACK
6
CONTINUOUS
10
265.472
20
-118.421
11
265.472
21
-118.421
0
LINE
8
BLACK
6
CONTINUOUS
10
265.472
20
-118.421
11
265.471
21
-118.434
0
LINE
8
BLACK
6
CONTINUOUS
10
265.471
20
-118.434
11
265.47
21
-118.44
0
LINE
8
BLACK
6
CONTINUOUS
10
265.47
20
-118.44
11
265.455
21
-118.451
0
LINE
8
BLACK
6
CONTINUOUS
10
265.455
20
-118.451
11
265.455
21
-118.451
0
LINE
8
BLACK
6
CONTINUOUS
10
265.455
20
-118.451
11
251.932
21
-122.075
0
LINE
8
BLACK
6
CONTINUOUS
10
251.932
20
-122.075
11
251.932
21
-122.075
0
LINE
8
BLACK
6
CONTINUOUS
10
251.932
20
-122.075
11
251.913
21
-122.072
0
LINE
8
BLACK
6
CONTINUOUS
10
251.913
20
-122.072
11
251.901
21
-122.057
0
LINE
8
BLACK
6
CONTINUOUS
10
251.901
20
-122.057
11
248.278
21
-108.534
0
LINE
8
BLACK
6
CONTINUOUS
10
248.278
20
-108.534
11
248.28
21
-108.515
0
LINE
8
BLACK
6
CONTINUOUS
10
248.28
20
-108.515
11
248.295
21
-108.504
0
LINE
8
BLACK
6
CONTINUOUS
10
248.295
20
-108.504
11
261.818
21
-104.88
0
LINE
8
BLACK
6
CONTINUOUS
10
248.333
20
-108.545
11
251.943
21
-122.02
0
LINE
8
BLACK
6
CONTINUOUS
10
251.943
20
-122.02
11
265.418
21
-118.41
0
LINE
8
BLACK
6
CONTINUOUS
10
265.418
20
-118.41
11
261.807
21
-104.935
0
LINE
8
BLACK
6
CONTINUOUS
10
261.807
20
-104.935
11
248.333
21
-108.545
0
LINE
8
BLACK
6
CONTINUOUS
10
236.852
20
-100.512
11
236.871
21
-100.514
0
LINE
8
BLACK
6
CONTINUOUS
10
236.871
20
-100.514
11
236.882
21
-100.529
0
LINE
8
BLACK
6
CONTINUOUS
10
236.882
20
-100.529
11
236.882
21
-100.529
0
LINE
8
BLACK
6
CONTINUOUS
10
236.882
20
-100.529
11
240.506
21
-114.052
0
LINE
8
BLACK
6
CONTINUOUS
10
240.506
20
-114.052
11
240.506
21
-114.052
0
LINE
8
BLACK
6
CONTINUOUS
10
240.506
20
-114.052
11
240.504
21
-114.065
0
LINE
8
BLACK
6
CONTINUOUS
10
240.504
20
-114.065
11
240.503
21
-114.071
0
LINE
8
BLACK
6
CONTINUOUS
10
240.503
20
-114.071
11
240.488
21
-114.083
0
LINE
8
BLACK
6
CONTINUOUS
10
240.488
20
-114.083
11
240.488
21
-114.083
0
LINE
8
BLACK
6
CONTINUOUS
10
240.488
20
-114.083
11
226.965
21
-117.706
0
LINE
8
BLACK
6
CONTINUOUS
10
226.965
20
-117.706
11
226.965
21
-117.706
0
LINE
8
BLACK
6
CONTINUOUS
10
226.965
20
-117.706
11
226.946
21
-117.704
0
LINE
8
BLACK
6
CONTINUOUS
10
226.946
20
-117.704
11
226.935
21
-117.689
0
LINE
8
BLACK
6
CONTINUOUS
10
226.935
20
-117.689
11
223.311
21
-104.166
0
LINE
8
BLACK
6
CONTINUOUS
10
223.311
20
-104.166
11
223.314
21
-104.147
0
LINE
8
BLACK
6
CONTINUOUS
10
223.314
20
-104.147
11
223.329
21
-104.135
0
LINE
8
BLACK
6
CONTINUOUS
10
223.329
20
-104.135
11
236.852
21
-100.512
0
LINE
8
BLACK
6
CONTINUOUS
10
223.366
20
-104.177
11
226.976
21
-117.652
0
LINE
8
BLACK
6
CONTINUOUS
10
226.976
20
-117.652
11
240.451
21
-114.041
0
LINE
8
BLACK
6
CONTINUOUS
10
240.451
20
-114.041
11
236.841
21
-100.566
0
LINE
8
BLACK
6
CONTINUOUS
10
236.841
20
-100.566
11
223.366
21
-104.177
0
LINE
8
BLACK
6
CONTINUOUS
10
277.1
20
-98.76
11
277.12
21
-98.4638
0
LINE
8
BLACK
6
CONTINUOUS
10
277.12
20
-98.4638
11
277.181
21
-98.1732
0
LINE
8
BLACK
6
CONTINUOUS
10
277.181
20
-98.1732
11
277.28
21
-97.8935
0
LINE
8
BLACK
6
CONTINUOUS
10
277.28
20
-97.8935
11
277.417
21
-97.6299
0
LINE
8
BLACK
6
CONTINUOUS
10
277.417
20
-97.6299
11
277.588
21
-97.3874
0
LINE
8
BLACK
6
CONTINUOUS
10
277.588
20
-97.3874
11
277.79
21
-97.1704
0
LINE
8
BLACK
6
CONTINUOUS
10
277.79
20
-97.1704
11
278.021
21
-96.9831
0
LINE
8
BLACK
6
CONTINUOUS
10
278.021
20
-96.9831
11
278.274
21
-96.8288
0
LINE
8
BLACK
6
CONTINUOUS
10
278.274
20
-96.8288
11
278.547
21
-96.7106
0
LINE
8
BLACK
6
CONTINUOUS
10
278.547
20
-96.7106
11
278.832
21
-96.6305
0
LINE
8
BLACK
6
CONTINUOUS
10
278.832
20
-96.6305
11
279.127
21
-96.5901
0
LINE
8
BLACK
6
CONTINUOUS
10
279.127
20
-96.5901
11
279.423
21
-96.5901
0
LINE
8
BLACK
6
CONTINUOUS
10
279.423
20
-96.5901
11
279.718
21
-96.6305
0
LINE
8
BLACK
6
CONTINUOUS
10
279.718
20
-96.6305
11
280.003
21
-96.7106
0
LINE
8
BLACK
6
CONTINUOUS
10
280.003
20
-96.7106
11
280.276
21
-96.8288
0
LINE
8
BLACK
6
CONTINUOUS
10
280.276
20
-96.8288
11
280.529
21
-96.9831
0
LINE
8
BLACK
6
CONTINUOUS
10
280.529
20
-96.9831
11
280.76
21
-97.1704
0
LINE
8
BLACK
6
CONTINUOUS
10
280.76
20
-97.1704
11
280.962
21
-97.3874
0
LINE
8
BLACK
6
CONTINUOUS
10
280.962
20
-97.3874
11
281.133
21
-97.6299
0
LINE
8
BLACK
6
CONTINUOUS
10
281.133
20
-97.6299
11
281.27
21
-97.8935
0
LINE
8
BLACK
6
CONTINUOUS
10
281.27
20
-97.8935
11
281.369
21
-98.1732
0
LINE
8
BLACK
6
CONTINUOUS
10
281.369
20
-98.1732
11
281.43
21
-98.4638
0
LINE
8
BLACK
6
CONTINUOUS
10
281.43
20
-98.4638
11
281.45
21
-98.76
0
LINE
8
BLACK
6
CONTINUOUS
10
281.45
20
-98.76
11
281.43
21
-99.0562
0
LINE
8
BLACK
6
CONTINUOUS
10
281.43
20
-99.0562
11
281.369
21
-99.3468
0
LINE
8
BLACK
6
CONTINUOUS
10
281.369
20
-99.3468
11
281.27
21
-99.6265
0
LINE
8
BLACK
6
CONTINUOUS
10
281.27
20
-99.6265
11
281.133
21
-99.8901
0
LINE
8
BLACK
6
CONTINUOUS
10
281.133
20
-99.8901
11
280.962
21
-100.133
0
LINE
8
BLACK
6
CONTINUOUS
10
280.962
20
-100.133
11
280.76
21
-100.35
0
LINE
8
BLACK
6
CONTINUOUS
10
280.76
20
-100.35
11
280.529
21
-100.537
0
LINE
8
BLACK
6
CONTINUOUS
10
280.529
20
-100.537
11
280.276
21
-100.691
0
LINE
8
BLACK
6
CONTINUOUS
10
280.276
20
-100.691
11
280.003
21
-100.809
0
LINE
8
BLACK
6
CONTINUOUS
10
280.003
20
-100.809
11
279.718
21
-100.89
0
LINE
8
BLACK
6
CONTINUOUS
10
279.718
20
-100.89
11
279.423
21
-100.93
0
LINE
8
BLACK
6
CONTINUOUS
10
279.423
20
-100.93
11
279.127
21
-100.93
0
LINE
8
BLACK
6
CONTINUOUS
10
279.127
20
-100.93
11
278.832
21
-100.89
0
LINE
8
BLACK
6
CONTINUOUS
10
278.832
20
-100.89
11
278.547
21
-100.809
0
LINE
8
BLACK
6
CONTINUOUS
10
278.547
20
-100.809
11
278.274
21
-100.691
0
LINE
8
BLACK
6
CONTINUOUS
10
278.274
20
-100.691
11
278.021
21
-100.537
0
LINE
8
BLACK
6
CONTINUOUS
10
278.021
20
-100.537
11
277.79
21
-100.35
0
LINE
8
BLACK
6
CONTINUOUS
10
277.79
20
-100.35
11
277.588
21
-100.133
0
LINE
8
BLACK
6
CONTINUOUS
10
277.588
20
-100.133
11
277.417
21
-99.8901
0
LINE
8
BLACK
6
CONTINUOUS
10
277.417
20
-99.8901
11
277.28
21
-99.6265
0
LINE
8
BLACK
6
CONTINUOUS
10
277.28
20
-99.6265
11
277.181
21
-99.3468
0
LINE
8
BLACK
6
CONTINUOUS
10
277.181
20
-99.3468
11
277.12
21
-99.0562
0
LINE
8
BLACK
6
CONTINUOUS
10
277.12
20
-99.0562
11
277.1
21
-98.76
0
LINE
8
BLACK
6
CONTINUOUS
10
277.145
20
-98.76
11
277.165
21
-99.05
0
LINE
8
BLACK
6
CONTINUOUS
10
277.165
20
-99.05
11
277.224
21
-99.3347
0
LINE
8
BLACK
6
CONTINUOUS
10
277.224
20
-99.3347
11
277.321
21
-99.6086
0
LINE
8
BLACK
6
CONTINUOUS
10
277.321
20
-99.6086
11
277.455
21
-99.8667
0
LINE
8
BLACK
6
CONTINUOUS
10
277.455
20
-99.8667
11
277.623
21
-100.104
0
LINE
8
BLACK
6
CONTINUOUS
10
277.623
20
-100.104
11
277.821
21
-100.317
0
LINE
8
BLACK
6
CONTINUOUS
10
277.821
20
-100.317
11
278.047
21
-100.5
0
LINE
8
BLACK
6
CONTINUOUS
10
278.047
20
-100.5
11
278.295
21
-100.651
0
LINE
8
BLACK
6
CONTINUOUS
10
278.295
20
-100.651
11
278.562
21
-100.767
0
LINE
8
BLACK
6
CONTINUOUS
10
278.562
20
-100.767
11
278.842
21
-100.845
0
LINE
8
BLACK
6
CONTINUOUS
10
278.842
20
-100.845
11
279.13
21
-100.885
0
LINE
8
BLACK
6
CONTINUOUS
10
279.13
20
-100.885
11
279.42
21
-100.885
0
LINE
8
BLACK
6
CONTINUOUS
10
279.42
20
-100.885
11
279.708
21
-100.845
0
LINE
8
BLACK
6
CONTINUOUS
10
279.708
20
-100.845
11
279.988
21
-100.767
0
LINE
8
BLACK
6
CONTINUOUS
10
279.988
20
-100.767
11
280.255
21
-100.651
0
LINE
8
BLACK
6
CONTINUOUS
10
280.255
20
-100.651
11
280.503
21
-100.5
0
LINE
8
BLACK
6
CONTINUOUS
10
280.503
20
-100.5
11
280.729
21
-100.317
0
LINE
8
BLACK
6
CONTINUOUS
10
280.729
20
-100.317
11
280.927
21
-100.104
0
LINE
8
BLACK
6
CONTINUOUS
10
280.927
20
-100.104
11
281.095
21
-99.8667
0
LINE
8
BLACK
6
CONTINUOUS
10
281.095
20
-99.8667
11
281.229
21
-99.6086
0
LINE
8
BLACK
6
CONTINUOUS
10
281.229
20
-99.6086
11
281.326
21
-99.3347
0
LINE
8
BLACK
6
CONTINUOUS
10
281.326
20
-99.3347
11
281.385
21
-99.05
0
LINE
8
BLACK
6
CONTINUOUS
10
281.385
20
-99.05
11
281.405
21
-98.76
0
LINE
8
BLACK
6
CONTINUOUS
10
281.405
20
-98.76
11
281.385
21
-98.47
0
LINE
8
BLACK
6
CONTINUOUS
10
281.385
20
-98.47
11
281.326
21
-98.1853
0
LINE
8
BLACK
6
CONTINUOUS
10
281.326
20
-98.1853
11
281.229
21
-97.9114
0
LINE
8
BLACK
6
CONTINUOUS
10
281.229
20
-97.9114
11
281.095
21
-97.6533
0
LINE
8
BLACK
6
CONTINUOUS
10
281.095
20
-97.6533
11
280.927
21
-97.4158
0
LINE
8
BLACK
6
CONTINUOUS
10
280.927
20
-97.4158
11
280.729
21
-97.2033
0
LINE
8
BLACK
6
CONTINUOUS
10
280.729
20
-97.2033
11
280.503
21
-97.0199
0
LINE
8
BLACK
6
CONTINUOUS
10
280.503
20
-97.0199
11
280.255
21
-96.8688
0
LINE
8
BLACK
6
CONTINUOUS
10
280.255
20
-96.8688
11
279.988
21
-96.753
0
LINE
8
BLACK
6
CONTINUOUS
10
279.988
20
-96.753
11
279.708
21
-96.6746
0
LINE
8
BLACK
6
CONTINUOUS
10
279.708
20
-96.6746
11
279.42
21
-96.635
0
LINE
8
BLACK
6
CONTINUOUS
10
279.42
20
-96.635
11
279.13
21
-96.635
0
LINE
8
BLACK
6
CONTINUOUS
10
279.13
20
-96.635
11
278.842
21
-96.6746
0
LINE
8
BLACK
6
CONTINUOUS
10
278.842
20
-96.6746
11
278.562
21
-96.753
0
LINE
8
BLACK
6
CONTINUOUS
10
278.562
20
-96.753
11
278.295
21
-96.8688
0
LINE
8
BLACK
6
CONTINUOUS
10
278.295
20
-96.8688
11
278.047
21
-97.0199
0
LINE
8
BLACK
6
CONTINUOUS
10
278.047
20
-97.0199
11
277.821
21
-97.2033
0
LINE
8
BLACK
6
CONTINUOUS
10
277.821
20
-97.2033
11
277.623
21
-97.4158
0
LINE
8
BLACK
6
CONTINUOUS
10
277.623
20
-97.4158
11
277.455
21
-97.6533
0
LINE
8
BLACK
6
CONTINUOUS
10
277.455
20
-97.6533
11
277.321
21
-97.9114
0
LINE
8
BLACK
6
CONTINUOUS
10
277.321
20
-97.9114
11
277.224
21
-98.1853
0
LINE
8
BLACK
6
CONTINUOUS
10
277.224
20
-98.1853
11
277.165
21
-98.47
0
LINE
8
BLACK
6
CONTINUOUS
10
277.165
20
-98.47
11
277.145
21
-98.76
0
LINE
8
BLACK
6
CONTINUOUS
10
109.59
20
-98.76
11
109.61
21
-98.4638
0
LINE
8
BLACK
6
CONTINUOUS
10
109.61
20
-98.4638
11
109.671
21
-98.1732
0
LINE
8
BLACK
6
CONTINUOUS
10
109.671
20
-98.1732
11
109.77
21
-97.8935
0
LINE
8
BLACK
6
CONTINUOUS
10
109.77
20
-97.8935
11
109.907
21
-97.6299
0
LINE
8
BLACK
6
CONTINUOUS
10
109.907
20
-97.6299
11
110.078
21
-97.3874
0
LINE
8
BLACK
6
CONTINUOUS
10
110.078
20
-97.3874
11
110.28
21
-97.1704
0
LINE
8
BLACK
6
CONTINUOUS
10
110.28
20
-97.1704
11
110.511
21
-96.9831
0
LINE
8
BLACK
6
CONTINUOUS
10
110.511
20
-96.9831
11
110.764
21
-96.8288
0
LINE
8
BLACK
6
CONTINUOUS
10
110.764
20
-96.8288
11
111.037
21
-96.7106
0
LINE
8
BLACK
6
CONTINUOUS
10
111.037
20
-96.7106
11
111.322
21
-96.6305
0
LINE
8
BLACK
6
CONTINUOUS
10
111.322
20
-96.6305
11
111.617
21
-96.5901
0
LINE
8
BLACK
6
CONTINUOUS
10
111.617
20
-96.5901
11
111.913
21
-96.5901
0
LINE
8
BLACK
6
CONTINUOUS
10
111.913
20
-96.5901
11
112.208
21
-96.6305
0
LINE
8
BLACK
6
CONTINUOUS
10
112.208
20
-96.6305
11
112.493
21
-96.7106
0
LINE
8
BLACK
6
CONTINUOUS
10
112.493
20
-96.7106
11
112.766
21
-96.8288
0
LINE
8
BLACK
6
CONTINUOUS
10
112.766
20
-96.8288
11
113.019
21
-96.9831
0
LINE
8
BLACK
6
CONTINUOUS
10
113.019
20
-96.9831
11
113.25
21
-97.1704
0
LINE
8
BLACK
6
CONTINUOUS
10
113.25
20
-97.1704
11
113.452
21
-97.3874
0
LINE
8
BLACK
6
CONTINUOUS
10
113.452
20
-97.3874
11
113.623
21
-97.6299
0
LINE
8
BLACK
6
CONTINUOUS
10
113.623
20
-97.6299
11
113.76
21
-97.8935
0
LINE
8
BLACK
6
CONTINUOUS
10
113.76
20
-97.8935
11
113.859
21
-98.1732
0
LINE
8
BLACK
6
CONTINUOUS
10
113.859
20
-98.1732
11
113.92
21
-98.4638
0
LINE
8
BLACK
6
CONTINUOUS
10
113.92
20
-98.4638
11
113.94
21
-98.76
0
LINE
8
BLACK
6
CONTINUOUS
10
113.94
20
-98.76
11
113.92
21
-99.0562
0
LINE
8
BLACK
6
CONTINUOUS
10
113.92
20
-99.0562
11
113.859
21
-99.3468
0
LINE
8
BLACK
6
CONTINUOUS
10
113.859
20
-99.3468
11
113.76
21
-99.6265
0
LINE
8
BLACK
6
CONTINUOUS
10
113.76
20
-99.6265
11
113.623
21
-99.8901
0
LINE
8
BLACK
6
CONTINUOUS
10
113.623
20
-99.8901
11
113.452
21
-100.133
0
LINE
8
BLACK
6
CONTINUOUS
10
113.452
20
-100.133
11
113.25
21
-100.35
0
LINE
8
BLACK
6
CONTINUOUS
10
113.25
20
-100.35
11
113.019
21
-100.537
0
LINE
8
BLACK
6
CONTINUOUS
10
113.019
20
-100.537
11
112.766
21
-100.691
0
LINE
8
BLACK
6
CONTINUOUS
10
112.766
20
-100.691
11
112.493
21
-100.809
0
LINE
8
BLACK
6
CONTINUOUS
10
112.493
20
-100.809
11
112.208
21
-100.89
0
LINE
8
BLACK
6
CONTINUOUS
10
112.208
20
-100.89
11
111.913
21
-100.93
0
LINE
8
BLACK
6
CONTINUOUS
10
111.913
20
-100.93
11
111.617
21
-100.93
0
LINE
8
BLACK
6
CONTINUOUS
10
111.617
20
-100.93
11
111.322
21
-100.89
0
LINE
8
BLACK
6
CONTINUOUS
10
111.322
20
-100.89
11
111.037
21
-100.809
0
LINE
8
BLACK
6
CONTINUOUS
10
111.037
20
-100.809
11
110.764
21
-100.691
0
LINE
8
BLACK
6
CONTINUOUS
10
110.764
20
-100.691
11
110.511
21
-100.537
0
LINE
8
BLACK
6
CONTINUOUS
10
110.511
20
-100.537
11
110.28
21
-100.35
0
LINE
8
BLACK
6
CONTINUOUS
10
110.28
20
-100.35
11
110.078
21
-100.133
0
LINE
8
BLACK
6
CONTINUOUS
10
110.078
20
-100.133
11
109.907
21
-99.8901
0
LINE
8
BLACK
6
CONTINUOUS
10
109.907
20
-99.8901
11
109.77
21
-99.6265
0
LINE
8
BLACK
6
CONTINUOUS
10
109.77
20
-99.6265
11
109.671
21
-99.3468
0
LINE
8
BLACK
6
CONTINUOUS
10
109.671
20
-99.3468
11
109.61
21
-99.0562
0
LINE
8
BLACK
6
CONTINUOUS
10
109.61
20
-99.0562
11
109.59
21
-98.76
0
LINE
8
BLACK
6
CONTINUOUS
10
109.635
20
-98.76
11
109.655
21
-99.05
0
LINE
8
BLACK
6
CONTINUOUS
10
109.655
20
-99.05
11
109.714
21
-99.3347
0
LINE
8
BLACK
6
CONTINUOUS
10
109.714
20
-99.3347
11
109.811
21
-99.6086
0
LINE
8
BLACK
6
CONTINUOUS
10
109.811
20
-99.6086
11
109.945
21
-99.8667
0
LINE
8
BLACK
6
CONTINUOUS
10
109.945
20
-99.8667
11
110.113
21
-100.104
0
LINE
8
BLACK
6
CONTINUOUS
10
110.113
20
-100.104
11
110.311
21
-100.317
0
LINE
8
BLACK
6
CONTINUOUS
10
110.311
20
-100.317
11
110.537
21
-100.5
0
LINE
8
BLACK
6
CONTINUOUS
10
110.537
20
-100.5
11
110.785
21
-100.651
0
LINE
8
BLACK
6
CONTINUOUS
10
110.785
20
-100.651
11
111.052
21
-100.767
0
LINE
8
BLACK
6
CONTINUOUS
10
111.052
20
-100.767
11
111.332
21
-100.845
0
LINE
8
BLACK
6
CONTINUOUS
10
111.332
20
-100.845
11
111.62
21
-100.885
0
LINE
8
BLACK
6
CONTINUOUS
10
111.62
20
-100.885
11
111.91
21
-100.885
0
LINE
8
BLACK
6
CONTINUOUS
10
111.91
20
-100.885
11
112.198
21
-100.845
0
LINE
8
BLACK
6
CONTINUOUS
10
112.198
20
-100.845
11
112.478
21
-100.767
0
LINE
8
BLACK
6
CONTINUOUS
10
112.478
20
-100.767
11
112.745
21
-100.651
0
LINE
8
BLACK
6
CONTINUOUS
10
112.745
20
-100.651
11
112.993
21
-100.5
0
LINE
8
BLACK
6
CONTINUOUS
10
112.993
20
-100.5
11
113.219
21
-100.317
0
LINE
8
BLACK
6
CONTINUOUS
10
113.219
20
-100.317
11
113.417
21
-100.104
0
LINE
8
BLACK
6
CONTINUOUS
10
113.417
20
-100.104
11
113.585
21
-99.8667
0
LINE
8
BLACK
6
CONTINUOUS
10
113.585
20
-99.8667
11
113.719
21
-99.6086
0
LINE
8
BLACK
6
CONTINUOUS
10
113.719
20
-99.6086
11
113.816
21
-99.3347
0
LINE
8
BLACK
6
CONTINUOUS
10
113.816
20
-99.3347
11
113.875
21
-99.05
0
LINE
8
BLACK
6
CONTINUOUS
10
113.875
20
-99.05
11
113.895
21
-98.76
0
LINE
8
BLACK
6
CONTINUOUS
10
113.895
20
-98.76
11
113.875
21
-98.47
0
LINE
8
BLACK
6
CONTINUOUS
10
113.875
20
-98.47
11
113.816
21
-98.1853
0
LINE
8
BLACK
6
CONTINUOUS
10
113.816
20
-98.1853
11
113.719
21
-97.9114
0
LINE
8
BLACK
6
CONTINUOUS
10
113.719
20
-97.9114
11
113.585
21
-97.6533
0
LINE
8
BLACK
6
CONTINUOUS
10
113.585
20
-97.6533
11
113.417
21
-97.4158
0
LINE
8
BLACK
6
CONTINUOUS
10
113.417
20
-97.4158
11
113.219
21
-97.2033
0
LINE
8
BLACK
6
CONTINUOUS
10
113.219
20
-97.2033
11
112.993
21
-97.0199
0
LINE
8
BLACK
6
CONTINUOUS
10
112.993
20
-97.0199
11
112.745
21
-96.8688
0
LINE
8
BLACK
6
CONTINUOUS
10
112.745
20
-96.8688
11
112.478
21
-96.753
0
LINE
8
BLACK
6
CONTINUOUS
10
112.478
20
-96.753
11
112.198
21
-96.6746
0
LINE
8
BLACK
6
CONTINUOUS
10
112.198
20
-96.6746
11
111.91
21
-96.635
0
LINE
8
BLACK
6
CONTINUOUS
10
111.91
20
-96.635
11
111.62
21
-96.635
0
LINE
8
BLACK
6
CONTINUOUS
10
111.62
20
-96.635
11
111.332
21
-96.6746
0
LINE
8
BLACK
6
CONTINUOUS
10
111.332
20
-96.6746
11
111.052
21
-96.753
0
LINE
8
BLACK
6
CONTINUOUS
10
111.052
20
-96.753
11
110.785
21
-96.8688
0
LINE
8
BLACK
6
CONTINUOUS
10
110.785
20
-96.8688
11
110.537
21
-97.0199
0
LINE
8
BLACK
6
CONTINUOUS
10
110.537
20
-97.0199
11
110.311
21
-97.2033
0
LINE
8
BLACK
6
CONTINUOUS
10
110.311
20
-97.2033
11
110.113
21
-97.4158
0
LINE
8
BLACK
6
CONTINUOUS
10
110.113
20
-97.4158
11
109.945
21
-97.6533
0
LINE
8
BLACK
6
CONTINUOUS
10
109.945
20
-97.6533
11
109.811
21
-97.9114
0
LINE
8
BLACK
6
CONTINUOUS
10
109.811
20
-97.9114
11
109.714
21
-98.1853
0
LINE
8
BLACK
6
CONTINUOUS
10
109.714
20
-98.1853
11
109.655
21
-98.47
0
LINE
8
BLACK
6
CONTINUOUS
10
109.655
20
-98.47
11
109.635
21
-98.76
0
LINE
8
BLACK
6
CONTINUOUS
10
140.608
20
-76.0157
11
140.608
21
-76.0157
0
LINE
8
BLACK
6
CONTINUOUS
10
140.608
20
-76.0157
11
154.131
21
-79.6392
0
LINE
8
BLACK
6
CONTINUOUS
10
154.131
20
-79.6392
11
154.131
21
-79.6392
0
LINE
8
BLACK
6
CONTINUOUS
10
154.131
20
-79.6392
11
154.146
21
-79.6508
0
LINE
8
BLACK
6
CONTINUOUS
10
154.146
20
-79.6508
11
154.146
21
-79.6508
0
LINE
8
BLACK
6
CONTINUOUS
10
154.146
20
-79.6508
11
154.149
21
-79.6698
0
LINE
8
BLACK
6
CONTINUOUS
10
154.149
20
-79.6698
11
154.149
21
-79.6698
0
LINE
8
BLACK
6
CONTINUOUS
10
154.149
20
-79.6698
11
150.525
21
-93.1927
0
LINE
8
BLACK
6
CONTINUOUS
10
150.525
20
-93.1927
11
150.525
21
-93.1927
0
LINE
8
BLACK
6
CONTINUOUS
10
150.525
20
-93.1927
11
150.514
21
-93.2079
0
LINE
8
BLACK
6
CONTINUOUS
10
150.514
20
-93.2079
11
150.495
21
-93.2104
0
LINE
8
BLACK
6
CONTINUOUS
10
150.495
20
-93.2104
11
136.972
21
-89.587
0
LINE
8
BLACK
6
CONTINUOUS
10
136.972
20
-89.587
11
136.957
21
-89.5753
0
LINE
8
BLACK
6
CONTINUOUS
10
136.957
20
-89.5753
11
136.954
21
-89.5563
0
LINE
8
BLACK
6
CONTINUOUS
10
136.954
20
-89.5563
11
136.954
21
-89.5563
0
LINE
8
BLACK
6
CONTINUOUS
10
136.954
20
-89.5563
11
140.578
21
-76.0334
0
LINE
8
BLACK
6
CONTINUOUS
10
140.578
20
-76.0334
11
140.589
21
-76.0182
0
LINE
8
BLACK
6
CONTINUOUS
10
140.589
20
-76.0182
11
140.608
21
-76.0157
0
LINE
8
BLACK
6
CONTINUOUS
10
137.009
20
-89.5451
11
150.484
21
-93.1557
0
LINE
8
BLACK
6
CONTINUOUS
10
150.484
20
-93.1557
11
154.094
21
-79.681
0
LINE
8
BLACK
6
CONTINUOUS
10
154.094
20
-79.681
11
140.619
21
-76.0705
0
LINE
8
BLACK
6
CONTINUOUS
10
140.619
20
-76.0705
11
137.009
21
-89.5451
0
LINE
8
BLACK
6
CONTINUOUS
10
254.526
20
-75.296
11
254.545
21
-75.2985
0
LINE
8
BLACK
6
CONTINUOUS
10
254.545
20
-75.2985
11
254.557
21
-75.3137
0
LINE
8
BLACK
6
CONTINUOUS
10
254.557
20
-75.3137
11
254.557
21
-75.3137
0
LINE
8
BLACK
6
CONTINUOUS
10
254.557
20
-75.3137
11
258.18
21
-88.8366
0
LINE
8
BLACK
6
CONTINUOUS
10
258.18
20
-88.8366
11
258.18
21
-88.8366
0
LINE
8
BLACK
6
CONTINUOUS
10
258.18
20
-88.8366
11
258.179
21
-88.8496
0
LINE
8
BLACK
6
CONTINUOUS
10
258.179
20
-88.8496
11
258.178
21
-88.8556
0
LINE
8
BLACK
6
CONTINUOUS
10
258.178
20
-88.8556
11
258.163
21
-88.8673
0
LINE
8
BLACK
6
CONTINUOUS
10
258.163
20
-88.8673
11
258.163
21
-88.8673
0
LINE
8
BLACK
6
CONTINUOUS
10
258.163
20
-88.8673
11
244.64
21
-92.4907
0
LINE
8
BLACK
6
CONTINUOUS
10
244.64
20
-92.4907
11
244.64
21
-92.4907
0
LINE
8
BLACK
6
CONTINUOUS
10
244.64
20
-92.4907
11
244.621
21
-92.4882
0
LINE
8
BLACK
6
CONTINUOUS
10
244.621
20
-92.4882
11
244.609
21
-92.4731
0
LINE
8
BLACK
6
CONTINUOUS
10
244.609
20
-92.4731
11
240.986
21
-78.9501
0
LINE
8
BLACK
6
CONTINUOUS
10
240.986
20
-78.9501
11
240.988
21
-78.9311
0
LINE
8
BLACK
6
CONTINUOUS
10
240.988
20
-78.9311
11
241.003
21
-78.9195
0
LINE
8
BLACK
6
CONTINUOUS
10
241.003
20
-78.9195
11
254.526
21
-75.296
0
LINE
8
BLACK
6
CONTINUOUS
10
241.04
20
-78.9613
11
244.651
21
-92.436
0
LINE
8
BLACK
6
CONTINUOUS
10
244.651
20
-92.436
11
258.126
21
-88.8254
0
LINE
8
BLACK
6
CONTINUOUS
10
258.126
20
-88.8254
11
254.515
21
-75.3508
0
LINE
8
BLACK
6
CONTINUOUS
10
254.515
20
-75.3508
11
241.04
21
-78.9613
0
LINE
8
BLACK
6
CONTINUOUS
10
205.578
20
-74.3019
11
205.596
21
-74.3092
0
LINE
8
BLACK
6
CONTINUOUS
10
205.596
20
-74.3092
11
205.603
21
-74.3269
0
LINE
8
BLACK
6
CONTINUOUS
10
205.603
20
-74.3269
11
205.603
21
-88.3269
0
LINE
8
BLACK
6
CONTINUOUS
10
205.603
20
-88.3269
11
205.596
21
-88.3445
0
LINE
8
BLACK
6
CONTINUOUS
10
205.596
20
-88.3445
11
205.578
21
-88.3519
0
LINE
8
BLACK
6
CONTINUOUS
10
205.578
20
-88.3519
11
191.578
21
-88.3519
0
LINE
8
BLACK
6
CONTINUOUS
10
191.578
20
-88.3519
11
191.561
21
-88.3445
0
LINE
8
BLACK
6
CONTINUOUS
10
191.561
20
-88.3445
11
191.553
21
-88.3269
0
LINE
8
BLACK
6
CONTINUOUS
10
191.553
20
-88.3269
11
191.553
21
-74.3269
0
LINE
8
BLACK
6
CONTINUOUS
10
191.553
20
-74.3269
11
191.561
21
-74.3092
0
LINE
8
BLACK
6
CONTINUOUS
10
191.561
20
-74.3092
11
191.578
21
-74.3019
0
LINE
8
BLACK
6
CONTINUOUS
10
191.578
20
-74.3019
11
205.578
21
-74.3019
0
LINE
8
BLACK
6
CONTINUOUS
10
191.603
20
-74.3519
11
191.603
21
-88.3019
0
LINE
8
BLACK
6
CONTINUOUS
10
191.603
20
-88.3019
11
205.553
21
-88.3019
0
LINE
8
BLACK
6
CONTINUOUS
10
205.553
20
-88.3019
11
205.553
21
-74.3519
0
LINE
8
BLACK
6
CONTINUOUS
10
205.553
20
-74.3519
11
191.603
21
-74.3519
0
LINE
8
BLACK
6
CONTINUOUS
10
61.2527
20
-62.2748
11
61.2527
21
-62.2748
0
LINE
8
BLACK
6
CONTINUOUS
10
61.2527
20
-62.2748
11
74.7757
21
-65.8982
0
LINE
8
BLACK
6
CONTINUOUS
10
74.7757
20
-65.8982
11
74.7757
21
-65.8982
0
LINE
8
BLACK
6
CONTINUOUS
10
74.7757
20
-65.8982
11
74.7908
21
-65.9099
0
LINE
8
BLACK
6
CONTINUOUS
10
74.7908
20
-65.9099
11
74.7908
21
-65.9099
0
LINE
8
BLACK
6
CONTINUOUS
10
74.7908
20
-65.9099
11
74.7933
21
-65.9288
0
LINE
8
BLACK
6
CONTINUOUS
10
74.7933
20
-65.9288
11
74.7933
21
-65.9288
0
LINE
8
BLACK
6
CONTINUOUS
10
74.7933
20
-65.9288
11
71.1699
21
-79.4518
0
LINE
8
BLACK
6
CONTINUOUS
10
71.1699
20
-79.4518
11
71.1699
21
-79.4518
0
LINE
8
BLACK
6
CONTINUOUS
10
71.1699
20
-79.4518
11
71.1582
21
-79.467
0
LINE
8
BLACK
6
CONTINUOUS
10
71.1582
20
-79.467
11
71.1393
21
-79.4695
0
LINE
8
BLACK
6
CONTINUOUS
10
71.1393
20
-79.4695
11
57.6163
21
-75.846
0
LINE
8
BLACK
6
CONTINUOUS
10
57.6163
20
-75.846
11
57.6011
21
-75.8344
0
LINE
8
BLACK
6
CONTINUOUS
10
57.6011
20
-75.8344
11
57.5986
21
-75.8154
0
LINE
8
BLACK
6
CONTINUOUS
10
57.5986
20
-75.8154
11
61.2221
21
-62.2924
0
LINE
8
BLACK
6
CONTINUOUS
10
61.2221
20
-62.2924
11
61.2337
21
-62.2773
0
LINE
8
BLACK
6
CONTINUOUS
10
61.2337
20
-62.2773
11
61.2527
21
-62.2748
0
LINE
8
BLACK
6
CONTINUOUS
10
57.6534
20
-75.8042
11
71.128
21
-79.4147
0
LINE
8
BLACK
6
CONTINUOUS
10
71.128
20
-79.4147
11
74.7386
21
-65.9401
0
LINE
8
BLACK
6
CONTINUOUS
10
74.7386
20
-65.9401
11
61.2639
21
-62.3295
0
LINE
8
BLACK
6
CONTINUOUS
10
61.2639
20
-62.3295
11
57.6534
21
-75.8042
0
LINE
8
BLACK
6
CONTINUOUS
10
334.675
20
-61.0838
11
334.694
21
-61.0863
0
LINE
8
BLACK
6
CONTINUOUS
10
334.694
20
-61.0863
11
334.705
21
-61.1014
0
LINE
8
BLACK
6
CONTINUOUS
10
334.705
20
-61.1014
11
334.705
21
-61.1014
0
LINE
8
BLACK
6
CONTINUOUS
10
334.705
20
-61.1014
11
338.329
21
-74.6244
0
LINE
8
BLACK
6
CONTINUOUS
10
338.329
20
-74.6244
11
338.329
21
-74.6244
0
LINE
8
BLACK
6
CONTINUOUS
10
338.329
20
-74.6244
11
338.327
21
-74.6373
0
LINE
8
BLACK
6
CONTINUOUS
10
338.327
20
-74.6373
11
338.326
21
-74.6434
0
LINE
8
BLACK
6
CONTINUOUS
10
338.326
20
-74.6434
11
338.311
21
-74.655
0
LINE
8
BLACK
6
CONTINUOUS
10
338.311
20
-74.655
11
338.311
21
-74.655
0
LINE
8
BLACK
6
CONTINUOUS
10
338.311
20
-74.655
11
324.788
21
-78.2785
0
LINE
8
BLACK
6
CONTINUOUS
10
324.788
20
-78.2785
11
324.788
21
-78.2785
0
LINE
8
BLACK
6
CONTINUOUS
10
324.788
20
-78.2785
11
324.769
21
-78.276
0
LINE
8
BLACK
6
CONTINUOUS
10
324.769
20
-78.276
11
324.758
21
-78.2608
0
LINE
8
BLACK
6
CONTINUOUS
10
324.758
20
-78.2608
11
321.134
21
-64.7378
0
LINE
8
BLACK
6
CONTINUOUS
10
321.134
20
-64.7378
11
321.137
21
-64.7189
0
LINE
8
BLACK
6
CONTINUOUS
10
321.137
20
-64.7189
11
321.152
21
-64.7072
0
LINE
8
BLACK
6
CONTINUOUS
10
321.152
20
-64.7072
11
334.675
21
-61.0838
0
LINE
8
BLACK
6
CONTINUOUS
10
321.189
20
-64.749
11
324.799
21
-78.2237
0
LINE
8
BLACK
6
CONTINUOUS
10
324.799
20
-78.2237
11
338.274
21
-74.6132
0
LINE
8
BLACK
6
CONTINUOUS
10
338.274
20
-74.6132
11
334.664
21
-61.1385
0
LINE
8
BLACK
6
CONTINUOUS
10
334.664
20
-61.1385
11
321.189
21
-64.749
0
LINE
8
BLACK
6
CONTINUOUS
10
117.986
20
-57.7762
11
117.986
21
-57.7762
0
LINE
8
BLACK
6
CONTINUOUS
10
117.986
20
-57.7762
11
131.509
21
-61.3996
0
LINE
8
BLACK
6
CONTINUOUS
10
131.509
20
-61.3996
11
131.509
21
-61.3996
0
LINE
8
BLACK
6
CONTINUOUS
10
131.509
20
-61.3996
11
131.524
21
-61.4113
0
LINE
8
BLACK
6
CONTINUOUS
10
131.524
20
-61.4113
11
131.524
21
-61.4113
0
LINE
8
BLACK
6
CONTINUOUS
10
131.524
20
-61.4113
11
131.527
21
-61.4303
0
LINE
8
BLACK
6
CONTINUOUS
10
131.527
20
-61.4303
11
131.527
21
-61.4303
0
LINE
8
BLACK
6
CONTINUOUS
10
131.527
20
-61.4303
11
127.903
21
-74.9532
0
LINE
8
BLACK
6
CONTINUOUS
10
127.903
20
-74.9532
11
127.903
21
-74.9532
0
LINE
8
BLACK
6
CONTINUOUS
10
127.903
20
-74.9532
11
127.892
21
-74.9684
0
LINE
8
BLACK
6
CONTINUOUS
10
127.892
20
-74.9684
11
127.873
21
-74.9709
0
LINE
8
BLACK
6
CONTINUOUS
10
127.873
20
-74.9709
11
114.35
21
-71.3474
0
LINE
8
BLACK
6
CONTINUOUS
10
114.35
20
-71.3474
11
114.335
21
-71.3358
0
LINE
8
BLACK
6
CONTINUOUS
10
114.335
20
-71.3358
11
114.332
21
-71.3168
0
LINE
8
BLACK
6
CONTINUOUS
10
114.332
20
-71.3168
11
117.956
21
-57.7939
0
LINE
8
BLACK
6
CONTINUOUS
10
117.956
20
-57.7939
11
117.967
21
-57.7787
0
LINE
8
BLACK
6
CONTINUOUS
10
117.967
20
-57.7787
11
117.986
21
-57.7762
0
LINE
8
BLACK
6
CONTINUOUS
10
114.387
20
-71.3056
11
127.862
21
-74.9161
0
LINE
8
BLACK
6
CONTINUOUS
10
127.862
20
-74.9161
11
131.472
21
-61.4415
0
LINE
8
BLACK
6
CONTINUOUS
10
131.472
20
-61.4415
11
117.997
21
-57.8309
0
LINE
8
BLACK
6
CONTINUOUS
10
117.997
20
-57.8309
11
114.387
21
-71.3056
0
LINE
8
BLACK
6
CONTINUOUS
10
277.036
20
-56.8464
11
277.055
21
-56.8489
0
LINE
8
BLACK
6
CONTINUOUS
10
277.055
20
-56.8489
11
277.067
21
-56.864
0
LINE
8
BLACK
6
CONTINUOUS
10
277.067
20
-56.864
11
277.067
21
-56.864
0
LINE
8
BLACK
6
CONTINUOUS
10
277.067
20
-56.864
11
280.69
21
-70.387
0
LINE
8
BLACK
6
CONTINUOUS
10
280.69
20
-70.387
11
280.69
21
-70.387
0
LINE
8
BLACK
6
CONTINUOUS
10
280.69
20
-70.387
11
280.689
21
-70.3999
0
LINE
8
BLACK
6
CONTINUOUS
10
280.689
20
-70.3999
11
280.688
21
-70.406
0
LINE
8
BLACK
6
CONTINUOUS
10
280.688
20
-70.406
11
280.673
21
-70.4176
0
LINE
8
BLACK
6
CONTINUOUS
10
280.673
20
-70.4176
11
280.673
21
-70.4176
0
LINE
8
BLACK
6
CONTINUOUS
10
280.673
20
-70.4176
11
267.15
21
-74.0411
0
LINE
8
BLACK
6
CONTINUOUS
10
267.15
20
-74.0411
11
267.15
21
-74.0411
0
LINE
8
BLACK
6
CONTINUOUS
10
267.15
20
-74.0411
11
267.131
21
-74.0386
0
LINE
8
BLACK
6
CONTINUOUS
10
267.131
20
-74.0386
11
267.119
21
-74.0234
0
LINE
8
BLACK
6
CONTINUOUS
10
267.119
20
-74.0234
11
263.495
21
-60.5005
0
LINE
8
BLACK
6
CONTINUOUS
10
263.495
20
-60.5005
11
263.498
21
-60.4815
0
LINE
8
BLACK
6
CONTINUOUS
10
263.498
20
-60.4815
11
263.513
21
-60.4698
0
LINE
8
BLACK
6
CONTINUOUS
10
263.513
20
-60.4698
11
277.036
21
-56.8464
0
LINE
8
BLACK
6
CONTINUOUS
10
263.55
20
-60.5117
11
267.161
21
-73.9863
0
LINE
8
BLACK
6
CONTINUOUS
10
267.161
20
-73.9863
11
280.635
21
-70.3758
0
LINE
8
BLACK
6
CONTINUOUS
10
280.635
20
-70.3758
11
277.025
21
-56.9011
0
LINE
8
BLACK
6
CONTINUOUS
10
277.025
20
-56.9011
11
263.55
21
-60.5117
0
LINE
8
BLACK
6
CONTINUOUS
10
89.8908
20
-53.0702
11
89.8908
21
-53.0702
0
LINE
8
BLACK
6
CONTINUOUS
10
89.8908
20
-53.0702
11
103.414
21
-56.6937
0
LINE
8
BLACK
6
CONTINUOUS
10
103.414
20
-56.6937
11
103.414
21
-56.6937
0
LINE
8
BLACK
6
CONTINUOUS
10
103.414
20
-56.6937
11
103.429
21
-56.7053
0
LINE
8
BLACK
6
CONTINUOUS
10
103.429
20
-56.7053
11
103.429
21
-56.7053
0
LINE
8
BLACK
6
CONTINUOUS
10
103.429
20
-56.7053
11
103.431
21
-56.7243
0
LINE
8
BLACK
6
CONTINUOUS
10
103.431
20
-56.7243
11
103.431
21
-56.7243
0
LINE
8
BLACK
6
CONTINUOUS
10
103.431
20
-56.7243
11
99.808
21
-70.2473
0
LINE
8
BLACK
6
CONTINUOUS
10
99.808
20
-70.2473
11
99.808
21
-70.2473
0
LINE
8
BLACK
6
CONTINUOUS
10
99.808
20
-70.2473
11
99.7964
21
-70.2624
0
LINE
8
BLACK
6
CONTINUOUS
10
99.7964
20
-70.2624
11
99.7774
21
-70.2649
0
LINE
8
BLACK
6
CONTINUOUS
10
99.7774
20
-70.2649
11
86.2544
21
-66.6415
0
LINE
8
BLACK
6
CONTINUOUS
10
86.2544
20
-66.6415
11
86.2392
21
-66.6298
0
LINE
8
BLACK
6
CONTINUOUS
10
86.2392
20
-66.6298
11
86.2367
21
-66.6109
0
LINE
8
BLACK
6
CONTINUOUS
10
86.2367
20
-66.6109
11
86.2367
21
-66.6109
0
LINE
8
BLACK
6
CONTINUOUS
10
86.2367
20
-66.6109
11
89.8602
21
-53.0879
0
LINE
8
BLACK
6
CONTINUOUS
10
89.8602
20
-53.0879
11
89.8719
21
-53.0727
0
LINE
8
BLACK
6
CONTINUOUS
10
89.8719
20
-53.0727
11
89.8908
21
-53.0702
0
LINE
8
BLACK
6
CONTINUOUS
10
86.2915
20
-66.5996
11
99.7662
21
-70.2102
0
LINE
8
BLACK
6
CONTINUOUS
10
99.7662
20
-70.2102
11
103.377
21
-56.7355
0
LINE
8
BLACK
6
CONTINUOUS
10
103.377
20
-56.7355
11
89.902
21
-53.125
0
LINE
8
BLACK
6
CONTINUOUS
10
89.902
20
-53.125
11
86.2915
21
-66.5996
0
LINE
8
BLACK
6
CONTINUOUS
10
207.85
20
-62.595
11
207.868
21
-62.6023
0
LINE
8
BLACK
6
CONTINUOUS
10
207.868
20
-62.6023
11
207.875
21
-62.62
0
LINE
8
BLACK
6
CONTINUOUS
10
207.875
20
-62.62
11
207.875
21
-69.62
0
LINE
8
BLACK
6
CONTINUOUS
10
207.875
20
-69.62
11
207.868
21
-69.6377
0
LINE
8
BLACK
6
CONTINUOUS
10
207.868
20
-69.6377
11
207.85
21
-69.645
0
LINE
8
BLACK
6
CONTINUOUS
10
207.85
20
-69.645
11
203.85
21
-69.645
0
LINE
8
BLACK
6
CONTINUOUS
10
203.85
20
-69.645
11
203.832
21
-69.6377
0
LINE
8
BLACK
6
CONTINUOUS
10
203.832
20
-69.6377
11
203.825
21
-69.62
0
LINE
8
BLACK
6
CONTINUOUS
10
203.825
20
-69.62
11
203.825
21
-62.62
0
LINE
8
BLACK
6
CONTINUOUS
10
203.825
20
-62.62
11
203.832
21
-62.6023
0
LINE
8
BLACK
6
CONTINUOUS
10
203.832
20
-62.6023
11
203.85
21
-62.595
0
LINE
8
BLACK
6
CONTINUOUS
10
203.85
20
-62.595
11
207.85
21
-62.595
0
LINE
8
BLACK
6
CONTINUOUS
10
203.875
20
-62.645
11
203.875
21
-69.595
0
LINE
8
BLACK
6
CONTINUOUS
10
203.875
20
-69.595
11
207.825
21
-69.595
0
LINE
8
BLACK
6
CONTINUOUS
10
207.825
20
-69.595
11
207.825
21
-62.645
0
LINE
8
BLACK
6
CONTINUOUS
10
207.825
20
-62.645
11
203.875
21
-62.645
0
LINE
8
BLACK
6
CONTINUOUS
10
305.195
20
-52.3812
11
305.214
21
-52.3837
0
LINE
8
BLACK
6
CONTINUOUS
10
305.214
20
-52.3837
11
305.226
21
-52.3989
0
LINE
8
BLACK
6
CONTINUOUS
10
305.226
20
-52.3989
11
305.226
21
-52.3989
0
LINE
8
BLACK
6
CONTINUOUS
10
305.226
20
-52.3989
11
308.849
21
-65.9218
0
LINE
8
BLACK
6
CONTINUOUS
10
308.849
20
-65.9218
11
308.849
21
-65.9218
0
LINE
8
BLACK
6
CONTINUOUS
10
308.849
20
-65.9218
11
308.847
21
-65.9348
0
LINE
8
BLACK
6
CONTINUOUS
10
308.847
20
-65.9348
11
308.847
21
-65.9408
0
LINE
8
BLACK
6
CONTINUOUS
10
308.847
20
-65.9408
11
308.831
21
-65.9524
0
LINE
8
BLACK
6
CONTINUOUS
10
308.831
20
-65.9524
11
308.831
21
-65.9524
0
LINE
8
BLACK
6
CONTINUOUS
10
308.831
20
-65.9524
11
295.308
21
-69.5759
0
LINE
8
BLACK
6
CONTINUOUS
10
295.308
20
-69.5759
11
295.308
21
-69.5759
0
LINE
8
BLACK
6
CONTINUOUS
10
295.308
20
-69.5759
11
295.289
21
-69.5734
0
LINE
8
BLACK
6
CONTINUOUS
10
295.289
20
-69.5734
11
295.278
21
-69.5582
0
LINE
8
BLACK
6
CONTINUOUS
10
295.278
20
-69.5582
11
291.654
21
-56.0353
0
LINE
8
BLACK
6
CONTINUOUS
10
291.654
20
-56.0353
11
291.657
21
-56.0163
0
LINE
8
BLACK
6
CONTINUOUS
10
291.657
20
-56.0163
11
291.672
21
-56.0046
0
LINE
8
BLACK
6
CONTINUOUS
10
291.672
20
-56.0046
11
305.195
21
-52.3812
0
LINE
8
BLACK
6
CONTINUOUS
10
291.709
20
-56.0465
11
295.32
21
-69.5211
0
LINE
8
BLACK
6
CONTINUOUS
10
295.32
20
-69.5211
11
308.794
21
-65.9106
0
LINE
8
BLACK
6
CONTINUOUS
10
308.794
20
-65.9106
11
305.184
21
-52.4359
0
LINE
8
BLACK
6
CONTINUOUS
10
305.184
20
-52.4359
11
291.709
21
-56.0465
0
LINE
8
BLACK
6
CONTINUOUS
10
198.394
20
-64.3143
11
198.412
21
-64.3216
0
LINE
8
BLACK
6
CONTINUOUS
10
198.412
20
-64.3216
11
198.419
21
-64.3392
0
LINE
8
BLACK
6
CONTINUOUS
10
198.419
20
-64.3392
11
198.419
21
-67.7392
0
LINE
8
BLACK
6
CONTINUOUS
10
198.419
20
-67.7392
11
198.412
21
-67.7569
0
LINE
8
BLACK
6
CONTINUOUS
10
198.412
20
-67.7569
11
198.394
21
-67.7642
0
LINE
8
BLACK
6
CONTINUOUS
10
198.394
20
-67.7642
11
194.194
21
-67.7642
0
LINE
8
BLACK
6
CONTINUOUS
10
194.194
20
-67.7642
11
194.176
21
-67.7569
0
LINE
8
BLACK
6
CONTINUOUS
10
194.176
20
-67.7569
11
194.169
21
-67.7392
0
LINE
8
BLACK
6
CONTINUOUS
10
194.169
20
-67.7392
11
194.169
21
-64.3392
0
LINE
8
BLACK
6
CONTINUOUS
10
194.169
20
-64.3392
11
194.176
21
-64.3216
0
LINE
8
BLACK
6
CONTINUOUS
10
194.176
20
-64.3216
11
194.194
21
-64.3143
0
LINE
8
BLACK
6
CONTINUOUS
10
194.194
20
-64.3143
11
198.394
21
-64.3143
0
LINE
8
BLACK
6
CONTINUOUS
10
194.219
20
-64.3642
11
194.219
21
-67.7142
0
LINE
8
BLACK
6
CONTINUOUS
10
194.219
20
-67.7142
11
198.369
21
-67.7142
0
LINE
8
BLACK
6
CONTINUOUS
10
198.369
20
-67.7142
11
198.369
21
-64.3642
0
LINE
8
BLACK
6
CONTINUOUS
10
198.369
20
-64.3642
11
194.219
21
-64.3642
0
LINE
8
BLACK
6
CONTINUOUS
10
193.325
20
-65.374
11
193.343
21
-65.3813
0
LINE
8
BLACK
6
CONTINUOUS
10
193.343
20
-65.3813
11
193.35
21
-65.399
0
LINE
8
BLACK
6
CONTINUOUS
10
193.35
20
-65.399
11
193.35
21
-67.219
0
LINE
8
BLACK
6
CONTINUOUS
10
193.35
20
-67.219
11
193.343
21
-67.2367
0
LINE
8
BLACK
6
CONTINUOUS
10
193.343
20
-67.2367
11
193.325
21
-67.244
0
LINE
8
BLACK
6
CONTINUOUS
10
193.325
20
-67.244
11
192.405
21
-67.244
0
LINE
8
BLACK
6
CONTINUOUS
10
192.405
20
-67.244
11
192.387
21
-67.2367
0
LINE
8
BLACK
6
CONTINUOUS
10
192.387
20
-67.2367
11
192.38
21
-67.219
0
LINE
8
BLACK
6
CONTINUOUS
10
192.38
20
-67.219
11
192.38
21
-65.399
0
LINE
8
BLACK
6
CONTINUOUS
10
192.38
20
-65.399
11
192.387
21
-65.3813
0
LINE
8
BLACK
6
CONTINUOUS
10
192.387
20
-65.3813
11
192.405
21
-65.374
0
LINE
8
BLACK
6
CONTINUOUS
10
192.405
20
-65.374
11
193.325
21
-65.374
0
LINE
8
BLACK
6
CONTINUOUS
10
192.43
20
-65.424
11
192.43
21
-67.194
0
LINE
8
BLACK
6
CONTINUOUS
10
192.43
20
-67.194
11
193.3
21
-67.194
0
LINE
8
BLACK
6
CONTINUOUS
10
193.3
20
-67.194
11
193.3
21
-65.424
0
LINE
8
BLACK
6
CONTINUOUS
10
193.3
20
-65.424
11
192.43
21
-65.424
0
LINE
8
BLACK
6
CONTINUOUS
10
200.028
20
-65.12
11
200.045
21
-65.1273
0
LINE
8
BLACK
6
CONTINUOUS
10
200.045
20
-65.1273
11
200.053
21
-65.145
0
LINE
8
BLACK
6
CONTINUOUS
10
200.053
20
-65.145
11
200.053
21
-66.965
0
LINE
8
BLACK
6
CONTINUOUS
10
200.053
20
-66.965
11
200.045
21
-66.9827
0
LINE
8
BLACK
6
CONTINUOUS
10
200.045
20
-66.9827
11
200.028
21
-66.99
0
LINE
8
BLACK
6
CONTINUOUS
10
200.028
20
-66.99
11
199.108
21
-66.99
0
LINE
8
BLACK
6
CONTINUOUS
10
199.108
20
-66.99
11
199.09
21
-66.9827
0
LINE
8
BLACK
6
CONTINUOUS
10
199.09
20
-66.9827
11
199.083
21
-66.965
0
LINE
8
BLACK
6
CONTINUOUS
10
199.083
20
-66.965
11
199.083
21
-65.145
0
LINE
8
BLACK
6
CONTINUOUS
10
199.083
20
-65.145
11
199.09
21
-65.1273
0
LINE
8
BLACK
6
CONTINUOUS
10
199.09
20
-65.1273
11
199.108
21
-65.12
0
LINE
8
BLACK
6
CONTINUOUS
10
199.108
20
-65.12
11
200.028
21
-65.12
0
LINE
8
BLACK
6
CONTINUOUS
10
199.133
20
-65.17
11
199.133
21
-66.94
0
LINE
8
BLACK
6
CONTINUOUS
10
199.133
20
-66.94
11
200.003
21
-66.94
0
LINE
8
BLACK
6
CONTINUOUS
10
200.003
20
-66.94
11
200.003
21
-65.17
0
LINE
8
BLACK
6
CONTINUOUS
10
200.003
20
-65.17
11
199.133
21
-65.17
0
LINE
8
BLACK
6
CONTINUOUS
10
247.631
20
-49.6278
11
247.649
21
-49.6303
0
LINE
8
BLACK
6
CONTINUOUS
10
247.649
20
-49.6303
11
247.661
21
-49.6454
0
LINE
8
BLACK
6
CONTINUOUS
10
247.661
20
-49.6454
11
247.661
21
-49.6454
0
LINE
8
BLACK
6
CONTINUOUS
10
247.661
20
-49.6454
11
251.285
21
-63.1684
0
LINE
8
BLACK
6
CONTINUOUS
10
251.285
20
-63.1684
11
251.285
21
-63.1684
0
LINE
8
BLACK
6
CONTINUOUS
10
251.285
20
-63.1684
11
251.283
21
-63.1813
0
LINE
8
BLACK
6
CONTINUOUS
10
251.283
20
-63.1813
11
251.282
21
-63.1874
0
LINE
8
BLACK
6
CONTINUOUS
10
251.282
20
-63.1874
11
251.267
21
-63.199
0
LINE
8
BLACK
6
CONTINUOUS
10
251.267
20
-63.199
11
251.267
21
-63.199
0
LINE
8
BLACK
6
CONTINUOUS
10
251.267
20
-63.199
11
237.744
21
-66.8225
0
LINE
8
BLACK
6
CONTINUOUS
10
237.744
20
-66.8225
11
237.744
21
-66.8225
0
LINE
8
BLACK
6
CONTINUOUS
10
237.744
20
-66.8225
11
237.725
21
-66.82
0
LINE
8
BLACK
6
CONTINUOUS
10
237.725
20
-66.82
11
237.713
21
-66.8048
0
LINE
8
BLACK
6
CONTINUOUS
10
237.713
20
-66.8048
11
234.09
21
-53.2818
0
LINE
8
BLACK
6
CONTINUOUS
10
234.09
20
-53.2818
11
234.092
21
-53.2629
0
LINE
8
BLACK
6
CONTINUOUS
10
234.092
20
-53.2629
11
234.108
21
-53.2512
0
LINE
8
BLACK
6
CONTINUOUS
10
234.108
20
-53.2512
11
247.631
21
-49.6278
0
LINE
8
BLACK
6
CONTINUOUS
10
234.145
20
-53.2931
11
237.755
21
-66.7677
0
LINE
8
BLACK
6
CONTINUOUS
10
237.755
20
-66.7677
11
251.23
21
-63.1572
0
LINE
8
BLACK
6
CONTINUOUS
10
251.23
20
-63.1572
11
247.619
21
-49.6825
0
LINE
8
BLACK
6
CONTINUOUS
10
247.619
20
-49.6825
11
234.145
21
-53.2931
0
LINE
8
BLACK
6
CONTINUOUS
10
197.907
20
-61.5282
11
197.925
21
-61.5356
0
LINE
8
BLACK
6
CONTINUOUS
10
197.925
20
-61.5356
11
197.932
21
-61.5532
0
LINE
8
BLACK
6
CONTINUOUS
10
197.932
20
-61.5532
11
197.932
21
-63.4132
0
LINE
8
BLACK
6
CONTINUOUS
10
197.932
20
-63.4132
11
197.925
21
-63.4309
0
LINE
8
BLACK
6
CONTINUOUS
10
197.925
20
-63.4309
11
197.907
21
-63.4382
0
LINE
8
BLACK
6
CONTINUOUS
10
197.907
20
-63.4382
11
196.967
21
-63.4382
0
LINE
8
BLACK
6
CONTINUOUS
10
196.967
20
-63.4382
11
196.949
21
-63.4309
0
LINE
8
BLACK
6
CONTINUOUS
10
196.949
20
-63.4309
11
196.942
21
-63.4132
0
LINE
8
BLACK
6
CONTINUOUS
10
196.942
20
-63.4132
11
196.942
21
-61.5532
0
LINE
8
BLACK
6
CONTINUOUS
10
196.942
20
-61.5532
11
196.949
21
-61.5356
0
LINE
8
BLACK
6
CONTINUOUS
10
196.949
20
-61.5356
11
196.967
21
-61.5282
0
LINE
8
BLACK
6
CONTINUOUS
10
196.967
20
-61.5282
11
197.907
21
-61.5282
0
LINE
8
BLACK
6
CONTINUOUS
10
196.992
20
-61.5782
11
196.992
21
-63.3882
0
LINE
8
BLACK
6
CONTINUOUS
10
196.992
20
-63.3882
11
197.882
21
-63.3882
0
LINE
8
BLACK
6
CONTINUOUS
10
197.882
20
-63.3882
11
197.882
21
-61.5782
0
LINE
8
BLACK
6
CONTINUOUS
10
197.882
20
-61.5782
11
196.992
21
-61.5782
0
LINE
8
BLACK
6
CONTINUOUS
10
201.453
20
-61.5482
11
201.471
21
-61.5556
0
LINE
8
BLACK
6
CONTINUOUS
10
201.471
20
-61.5556
11
201.478
21
-61.5732
0
LINE
8
BLACK
6
CONTINUOUS
10
201.478
20
-61.5732
11
201.478
21
-63.3932
0
LINE
8
BLACK
6
CONTINUOUS
10
201.478
20
-63.3932
11
201.471
21
-63.4109
0
LINE
8
BLACK
6
CONTINUOUS
10
201.471
20
-63.4109
11
201.453
21
-63.4183
0
LINE
8
BLACK
6
CONTINUOUS
10
201.453
20
-63.4183
11
200.533
21
-63.4183
0
LINE
8
BLACK
6
CONTINUOUS
10
200.533
20
-63.4183
11
200.515
21
-63.4109
0
LINE
8
BLACK
6
CONTINUOUS
10
200.515
20
-63.4109
11
200.508
21
-63.3932
0
LINE
8
BLACK
6
CONTINUOUS
10
200.508
20
-63.3932
11
200.508
21
-61.5732
0
LINE
8
BLACK
6
CONTINUOUS
10
200.508
20
-61.5732
11
200.515
21
-61.5556
0
LINE
8
BLACK
6
CONTINUOUS
10
200.515
20
-61.5556
11
200.533
21
-61.5482
0
LINE
8
BLACK
6
CONTINUOUS
10
200.533
20
-61.5482
11
201.453
21
-61.5482
0
LINE
8
BLACK
6
CONTINUOUS
10
200.558
20
-61.5983
11
200.558
21
-63.3682
0
LINE
8
BLACK
6
CONTINUOUS
10
200.558
20
-63.3682
11
201.428
21
-63.3682
0
LINE
8
BLACK
6
CONTINUOUS
10
201.428
20
-63.3682
11
201.428
21
-61.5983
0
LINE
8
BLACK
6
CONTINUOUS
10
201.428
20
-61.5983
11
200.558
21
-61.5983
0
LINE
8
BLACK
6
CONTINUOUS
10
199.929
20
-61.5482
11
199.947
21
-61.5556
0
LINE
8
BLACK
6
CONTINUOUS
10
199.947
20
-61.5556
11
199.954
21
-61.5732
0
LINE
8
BLACK
6
CONTINUOUS
10
199.954
20
-61.5732
11
199.954
21
-63.3932
0
LINE
8
BLACK
6
CONTINUOUS
10
199.954
20
-63.3932
11
199.947
21
-63.4109
0
LINE
8
BLACK
6
CONTINUOUS
10
199.947
20
-63.4109
11
199.929
21
-63.4183
0
LINE
8
BLACK
6
CONTINUOUS
10
199.929
20
-63.4183
11
199.009
21
-63.4183
0
LINE
8
BLACK
6
CONTINUOUS
10
199.009
20
-63.4183
11
198.991
21
-63.4109
0
LINE
8
BLACK
6
CONTINUOUS
10
198.991
20
-63.4109
11
198.984
21
-63.3932
0
LINE
8
BLACK
6
CONTINUOUS
10
198.984
20
-63.3932
11
198.984
21
-61.5732
0
LINE
8
BLACK
6
CONTINUOUS
10
198.984
20
-61.5732
11
198.991
21
-61.5556
0
LINE
8
BLACK
6
CONTINUOUS
10
198.991
20
-61.5556
11
199.009
21
-61.5482
0
LINE
8
BLACK
6
CONTINUOUS
10
199.009
20
-61.5482
11
199.929
21
-61.5482
0
LINE
8
BLACK
6
CONTINUOUS
10
199.034
20
-61.5983
11
199.034
21
-63.3682
0
LINE
8
BLACK
6
CONTINUOUS
10
199.034
20
-63.3682
11
199.904
21
-63.3682
0
LINE
8
BLACK
6
CONTINUOUS
10
199.904
20
-63.3682
11
199.904
21
-61.5983
0
LINE
8
BLACK
6
CONTINUOUS
10
199.904
20
-61.5983
11
199.034
21
-61.5983
0
LINE
8
BLACK
6
CONTINUOUS
10
205.43
20
-61.435
11
205.448
21
-61.4423
0
LINE
8
BLACK
6
CONTINUOUS
10
205.448
20
-61.4423
11
205.455
21
-61.46
0
LINE
8
BLACK
6
CONTINUOUS
10
205.455
20
-61.46
11
205.455
21
-62.4
0
LINE
8
BLACK
6
CONTINUOUS
10
205.455
20
-62.4
11
205.448
21
-62.4177
0
LINE
8
BLACK
6
CONTINUOUS
10
205.448
20
-62.4177
11
205.43
21
-62.425
0
LINE
8
BLACK
6
CONTINUOUS
10
205.43
20
-62.425
11
203.57
21
-62.425
0
LINE
8
BLACK
6
CONTINUOUS
10
203.57
20
-62.425
11
203.552
21
-62.4177
0
LINE
8
BLACK
6
CONTINUOUS
10
203.552
20
-62.4177
11
203.545
21
-62.4
0
LINE
8
BLACK
6
CONTINUOUS
10
203.545
20
-62.4
11
203.545
21
-61.46
0
LINE
8
BLACK
6
CONTINUOUS
10
203.545
20
-61.46
11
203.552
21
-61.4423
0
LINE
8
BLACK
6
CONTINUOUS
10
203.552
20
-61.4423
11
203.57
21
-61.435
0
LINE
8
BLACK
6
CONTINUOUS
10
203.57
20
-61.435
11
205.43
21
-61.435
0
LINE
8
BLACK
6
CONTINUOUS
10
203.595
20
-61.485
11
203.595
21
-62.375
0
LINE
8
BLACK
6
CONTINUOUS
10
203.595
20
-62.375
11
205.405
21
-62.375
0
LINE
8
BLACK
6
CONTINUOUS
10
205.405
20
-62.375
11
205.405
21
-61.485
0
LINE
8
BLACK
6
CONTINUOUS
10
205.405
20
-61.485
11
203.595
21
-61.485
0
LINE
8
BLACK
6
CONTINUOUS
10
202.7
20
-50.75
11
202.718
21
-50.7573
0
LINE
8
BLACK
6
CONTINUOUS
10
202.718
20
-50.7573
11
202.725
21
-50.775
0
LINE
8
BLACK
6
CONTINUOUS
10
202.725
20
-50.775
11
202.725
21
-59.015
0
LINE
8
BLACK
6
CONTINUOUS
10
202.725
20
-59.015
11
202.718
21
-59.0327
0
LINE
8
BLACK
6
CONTINUOUS
10
202.718
20
-59.0327
11
202.7
21
-59.04
0
LINE
8
BLACK
6
CONTINUOUS
10
202.7
20
-59.04
11
194.46
21
-59.04
0
LINE
8
BLACK
6
CONTINUOUS
10
194.46
20
-59.04
11
194.442
21
-59.0327
0
LINE
8
BLACK
6
CONTINUOUS
10
194.442
20
-59.0327
11
194.435
21
-59.015
0
LINE
8
BLACK
6
CONTINUOUS
10
194.435
20
-59.015
11
194.435
21
-50.775
0
LINE
8
BLACK
6
CONTINUOUS
10
194.435
20
-50.775
11
194.442
21
-50.7573
0
LINE
8
BLACK
6
CONTINUOUS
10
194.442
20
-50.7573
11
194.46
21
-50.75
0
LINE
8
BLACK
6
CONTINUOUS
10
194.46
20
-50.75
11
202.7
21
-50.75
0
LINE
8
BLACK
6
CONTINUOUS
10
194.485
20
-50.8
11
194.485
21
-58.99
0
LINE
8
BLACK
6
CONTINUOUS
10
194.485
20
-58.99
11
202.675
21
-58.99
0
LINE
8
BLACK
6
CONTINUOUS
10
202.675
20
-58.99
11
202.675
21
-50.8
0
LINE
8
BLACK
6
CONTINUOUS
10
202.675
20
-50.8
11
194.485
21
-50.8
0
LINE
8
BLACK
6
CONTINUOUS
10
205.585
20
-56.8295
11
205.585
21
-56.8295
0
LINE
8
BLACK
6
CONTINUOUS
10
205.585
20
-56.8295
11
206.872
21
-58.1164
0
LINE
8
BLACK
6
CONTINUOUS
10
206.872
20
-58.1164
11
206.872
21
-58.1164
0
LINE
8
BLACK
6
CONTINUOUS
10
206.872
20
-58.1164
11
206.872
21
-58.1164
0
LINE
8
BLACK
6
CONTINUOUS
10
206.872
20
-58.1164
11
206.88
21
-58.1341
0
LINE
8
BLACK
6
CONTINUOUS
10
206.88
20
-58.1341
11
206.872
21
-58.1518
0
LINE
8
BLACK
6
CONTINUOUS
10
206.872
20
-58.1518
11
206.872
21
-58.1518
0
LINE
8
BLACK
6
CONTINUOUS
10
206.872
20
-58.1518
11
206.222
21
-58.8023
0
LINE
8
BLACK
6
CONTINUOUS
10
206.222
20
-58.8023
11
206.222
21
-58.8023
0
LINE
8
BLACK
6
CONTINUOUS
10
206.222
20
-58.8023
11
206.204
21
-58.8096
0
LINE
8
BLACK
6
CONTINUOUS
10
206.204
20
-58.8096
11
206.192
21
-58.8045
0
LINE
8
BLACK
6
CONTINUOUS
10
206.192
20
-58.8045
11
206.187
21
-58.8023
0
LINE
8
BLACK
6
CONTINUOUS
10
206.187
20
-58.8023
11
206.187
21
-58.8023
0
LINE
8
BLACK
6
CONTINUOUS
10
206.187
20
-58.8023
11
204.9
21
-57.5154
0
LINE
8
BLACK
6
CONTINUOUS
10
204.9
20
-57.5154
11
204.892
21
-57.4977
0
LINE
8
BLACK
6
CONTINUOUS
10
204.892
20
-57.4977
11
204.9
21
-57.48
0
LINE
8
BLACK
6
CONTINUOUS
10
204.9
20
-57.48
11
204.9
21
-57.48
0
LINE
8
BLACK
6
CONTINUOUS
10
204.9
20
-57.48
11
205.55
21
-56.8295
0
LINE
8
BLACK
6
CONTINUOUS
10
205.55
20
-56.8295
11
205.55
21
-56.8295
0
LINE
8
BLACK
6
CONTINUOUS
10
205.55
20
-56.8295
11
205.555
21
-56.8273
0
LINE
8
BLACK
6
CONTINUOUS
10
205.555
20
-56.8273
11
205.568
21
-56.8222
0
LINE
8
BLACK
6
CONTINUOUS
10
205.568
20
-56.8222
11
205.585
21
-56.8295
0
LINE
8
BLACK
6
CONTINUOUS
10
204.953
20
-57.4977
11
206.204
21
-58.7493
0
LINE
8
BLACK
6
CONTINUOUS
10
206.204
20
-58.7493
11
206.819
21
-58.1341
0
LINE
8
BLACK
6
CONTINUOUS
10
206.819
20
-58.1341
11
205.568
21
-56.8825
0
LINE
8
BLACK
6
CONTINUOUS
10
205.568
20
-56.8825
11
204.953
21
-57.4977
0
LINE
8
BLACK
6
CONTINUOUS
10
192.665
20
-56.0516
11
192.665
21
-56.0516
0
LINE
8
BLACK
6
CONTINUOUS
10
192.665
20
-56.0516
11
193.315
21
-56.7021
0
LINE
8
BLACK
6
CONTINUOUS
10
193.315
20
-56.7021
11
193.315
21
-56.7021
0
LINE
8
BLACK
6
CONTINUOUS
10
193.315
20
-56.7021
11
193.315
21
-56.7021
0
LINE
8
BLACK
6
CONTINUOUS
10
193.315
20
-56.7021
11
193.322
21
-56.7198
0
LINE
8
BLACK
6
CONTINUOUS
10
193.322
20
-56.7198
11
193.315
21
-56.7375
0
LINE
8
BLACK
6
CONTINUOUS
10
193.315
20
-56.7375
11
193.315
21
-56.7375
0
LINE
8
BLACK
6
CONTINUOUS
10
193.315
20
-56.7375
11
192.028
21
-58.0244
0
LINE
8
BLACK
6
CONTINUOUS
10
192.028
20
-58.0244
11
192.028
21
-58.0244
0
LINE
8
BLACK
6
CONTINUOUS
10
192.028
20
-58.0244
11
192.011
21
-58.0318
0
LINE
8
BLACK
6
CONTINUOUS
10
192.011
20
-58.0318
11
191.998
21
-58.0266
0
LINE
8
BLACK
6
CONTINUOUS
10
191.998
20
-58.0266
11
191.993
21
-58.0244
0
LINE
8
BLACK
6
CONTINUOUS
10
191.993
20
-58.0244
11
191.993
21
-58.0244
0
LINE
8
BLACK
6
CONTINUOUS
10
191.993
20
-58.0244
11
191.342
21
-57.3739
0
LINE
8
BLACK
6
CONTINUOUS
10
191.342
20
-57.3739
11
191.335
21
-57.3562
0
LINE
8
BLACK
6
CONTINUOUS
10
191.335
20
-57.3562
11
191.342
21
-57.3385
0
LINE
8
BLACK
6
CONTINUOUS
10
191.342
20
-57.3385
11
191.342
21
-57.3385
0
LINE
8
BLACK
6
CONTINUOUS
10
191.342
20
-57.3385
11
192.629
21
-56.0516
0
LINE
8
BLACK
6
CONTINUOUS
10
192.629
20
-56.0516
11
192.629
21
-56.0516
0
LINE
8
BLACK
6
CONTINUOUS
10
192.629
20
-56.0516
11
192.634
21
-56.0495
0
LINE
8
BLACK
6
CONTINUOUS
10
192.634
20
-56.0495
11
192.647
21
-56.0443
0
LINE
8
BLACK
6
CONTINUOUS
10
192.647
20
-56.0443
11
192.665
21
-56.0516
0
LINE
8
BLACK
6
CONTINUOUS
10
191.395
20
-57.3562
11
192.011
21
-57.9714
0
LINE
8
BLACK
6
CONTINUOUS
10
192.011
20
-57.9714
11
193.262
21
-56.7198
0
LINE
8
BLACK
6
CONTINUOUS
10
193.262
20
-56.7198
11
192.647
21
-56.1046
0
LINE
8
BLACK
6
CONTINUOUS
10
192.647
20
-56.1046
11
191.395
21
-57.3562
0
LINE
8
BLACK
6
CONTINUOUS
10
212.637
20
-52.525
11
212.655
21
-52.5323
0
LINE
8
BLACK
6
CONTINUOUS
10
212.655
20
-52.5323
11
212.662
21
-52.55
0
LINE
8
BLACK
6
CONTINUOUS
10
212.662
20
-52.55
11
212.662
21
-54.45
0
LINE
8
BLACK
6
CONTINUOUS
10
212.662
20
-54.45
11
212.655
21
-54.4677
0
LINE
8
BLACK
6
CONTINUOUS
10
212.655
20
-54.4677
11
212.637
21
-54.475
0
LINE
8
BLACK
6
CONTINUOUS
10
212.637
20
-54.475
11
209.278
21
-54.475
0
LINE
8
BLACK
6
CONTINUOUS
10
209.278
20
-54.475
11
209.26
21
-54.4677
0
LINE
8
BLACK
6
CONTINUOUS
10
209.26
20
-54.4677
11
209.252
21
-54.45
0
LINE
8
BLACK
6
CONTINUOUS
10
209.252
20
-54.45
11
209.252
21
-54.005
0
LINE
8
BLACK
6
CONTINUOUS
10
209.252
20
-54.005
11
207.4
21
-54.005
0
LINE
8
BLACK
6
CONTINUOUS
10
207.4
20
-54.005
11
207.382
21
-53.9977
0
LINE
8
BLACK
6
CONTINUOUS
10
207.382
20
-53.9977
11
207.375
21
-53.98
0
LINE
8
BLACK
6
CONTINUOUS
10
207.375
20
-53.98
11
207.375
21
-53.04
0
LINE
8
BLACK
6
CONTINUOUS
10
207.375
20
-53.04
11
207.382
21
-53.0223
0
LINE
8
BLACK
6
CONTINUOUS
10
207.382
20
-53.0223
11
207.4
21
-53.015
0
LINE
8
BLACK
6
CONTINUOUS
10
207.4
20
-53.015
11
209.252
21
-53.015
0
LINE
8
BLACK
6
CONTINUOUS
10
209.252
20
-53.015
11
209.252
21
-52.55
0
LINE
8
BLACK
6
CONTINUOUS
10
209.252
20
-52.55
11
209.26
21
-52.5323
0
LINE
8
BLACK
6
CONTINUOUS
10
209.26
20
-52.5323
11
209.278
21
-52.525
0
LINE
8
BLACK
6
CONTINUOUS
10
209.278
20
-52.525
11
212.637
21
-52.525
0
LINE
8
BLACK
6
CONTINUOUS
10
209.302
20
-52.575
11
209.302
21
-54.425
0
LINE
8
BLACK
6
CONTINUOUS
10
209.302
20
-54.425
11
212.612
21
-54.425
0
LINE
8
BLACK
6
CONTINUOUS
10
212.612
20
-54.425
11
212.612
21
-52.575
0
LINE
8
BLACK
6
CONTINUOUS
10
212.612
20
-52.575
11
209.302
21
-52.575
0
LINE
8
BLACK
6
CONTINUOUS
10
207.425
20
-53.065
11
207.425
21
-53.955
0
LINE
8
BLACK
6
CONTINUOUS
10
207.425
20
-53.955
11
209.235
21
-53.955
0
LINE
8
BLACK
6
CONTINUOUS
10
209.235
20
-53.955
11
209.235
21
-53.065
0
LINE
8
BLACK
6
CONTINUOUS
10
209.235
20
-53.065
11
207.425
21
-53.065
0
LINE
8
BLACK
6
CONTINUOUS
10
327.779
20
-35.4145
11
327.798
21
-35.417
0
LINE
8
BLACK
6
CONTINUOUS
10
327.798
20
-35.417
11
327.809
21
-35.4322
0
LINE
8
BLACK
6
CONTINUOUS
10
327.809
20
-35.4322
11
327.809
21
-35.4322
0
LINE
8
BLACK
6
CONTINUOUS
10
327.809
20
-35.4322
11
331.433
21
-48.9552
0
LINE
8
BLACK
6
CONTINUOUS
10
331.433
20
-48.9552
11
331.433
21
-48.9552
0
LINE
8
BLACK
6
CONTINUOUS
10
331.433
20
-48.9552
11
331.431
21
-48.9681
0
LINE
8
BLACK
6
CONTINUOUS
10
331.431
20
-48.9681
11
331.43
21
-48.9742
0
LINE
8
BLACK
6
CONTINUOUS
10
331.43
20
-48.9742
11
331.415
21
-48.9858
0
LINE
8
BLACK
6
CONTINUOUS
10
331.415
20
-48.9858
11
331.415
21
-48.9858
0
LINE
8
BLACK
6
CONTINUOUS
10
331.415
20
-48.9858
11
317.892
21
-52.6093
0
LINE
8
BLACK
6
CONTINUOUS
10
317.892
20
-52.6093
11
317.892
21
-52.6093
0
LINE
8
BLACK
6
CONTINUOUS
10
317.892
20
-52.6093
11
317.873
21
-52.6068
0
LINE
8
BLACK
6
CONTINUOUS
10
317.873
20
-52.6068
11
317.862
21
-52.5916
0
LINE
8
BLACK
6
CONTINUOUS
10
317.862
20
-52.5916
11
314.238
21
-39.0686
0
LINE
8
BLACK
6
CONTINUOUS
10
314.238
20
-39.0686
11
314.241
21
-39.0497
0
LINE
8
BLACK
6
CONTINUOUS
10
314.241
20
-39.0497
11
314.256
21
-39.038
0
LINE
8
BLACK
6
CONTINUOUS
10
314.256
20
-39.038
11
327.779
21
-35.4145
0
LINE
8
BLACK
6
CONTINUOUS
10
314.293
20
-39.0798
11
317.903
21
-52.5545
0
LINE
8
BLACK
6
CONTINUOUS
10
317.903
20
-52.5545
11
331.378
21
-48.944
0
LINE
8
BLACK
6
CONTINUOUS
10
331.378
20
-48.944
11
327.768
21
-35.4693
0
LINE
8
BLACK
6
CONTINUOUS
10
327.768
20
-35.4693
11
314.293
21
-39.0798
0
LINE
8
BLACK
6
CONTINUOUS
10
193.805
20
-50.261
11
193.822
21
-50.2683
0
LINE
8
BLACK
6
CONTINUOUS
10
193.822
20
-50.2683
11
193.83
21
-50.286
0
LINE
8
BLACK
6
CONTINUOUS
10
193.83
20
-50.286
11
193.83
21
-52.106
0
LINE
8
BLACK
6
CONTINUOUS
10
193.83
20
-52.106
11
193.822
21
-52.1237
0
LINE
8
BLACK
6
CONTINUOUS
10
193.822
20
-52.1237
11
193.805
21
-52.131
0
LINE
8
BLACK
6
CONTINUOUS
10
193.805
20
-52.131
11
192.885
21
-52.131
0
LINE
8
BLACK
6
CONTINUOUS
10
192.885
20
-52.131
11
192.867
21
-52.1237
0
LINE
8
BLACK
6
CONTINUOUS
10
192.867
20
-52.1237
11
192.86
21
-52.106
0
LINE
8
BLACK
6
CONTINUOUS
10
192.86
20
-52.106
11
192.86
21
-50.286
0
LINE
8
BLACK
6
CONTINUOUS
10
192.86
20
-50.286
11
192.867
21
-50.2683
0
LINE
8
BLACK
6
CONTINUOUS
10
192.867
20
-50.2683
11
192.885
21
-50.261
0
LINE
8
BLACK
6
CONTINUOUS
10
192.885
20
-50.261
11
193.805
21
-50.261
0
LINE
8
BLACK
6
CONTINUOUS
10
192.91
20
-50.311
11
192.91
21
-52.081
0
LINE
8
BLACK
6
CONTINUOUS
10
192.91
20
-52.081
11
193.78
21
-52.081
0
LINE
8
BLACK
6
CONTINUOUS
10
193.78
20
-52.081
11
193.78
21
-50.311
0
LINE
8
BLACK
6
CONTINUOUS
10
193.78
20
-50.311
11
192.91
21
-50.311
0
LINE
8
BLACK
6
CONTINUOUS
10
205.967
20
-50.9492
11
205.985
21
-50.9566
0
LINE
8
BLACK
6
CONTINUOUS
10
205.985
20
-50.9566
11
205.992
21
-50.9742
0
LINE
8
BLACK
6
CONTINUOUS
10
205.992
20
-50.9742
11
205.992
21
-51.8942
0
LINE
8
BLACK
6
CONTINUOUS
10
205.992
20
-51.8942
11
205.985
21
-51.9119
0
LINE
8
BLACK
6
CONTINUOUS
10
205.985
20
-51.9119
11
205.967
21
-51.9192
0
LINE
8
BLACK
6
CONTINUOUS
10
205.967
20
-51.9192
11
204.147
21
-51.9192
0
LINE
8
BLACK
6
CONTINUOUS
10
204.147
20
-51.9192
11
204.129
21
-51.9119
0
LINE
8
BLACK
6
CONTINUOUS
10
204.129
20
-51.9119
11
204.122
21
-51.8942
0
LINE
8
BLACK
6
CONTINUOUS
10
204.122
20
-51.8942
11
204.122
21
-50.9742
0
LINE
8
BLACK
6
CONTINUOUS
10
204.122
20
-50.9742
11
204.129
21
-50.9566
0
LINE
8
BLACK
6
CONTINUOUS
10
204.129
20
-50.9566
11
204.147
21
-50.9492
0
LINE
8
BLACK
6
CONTINUOUS
10
204.147
20
-50.9492
11
205.967
21
-50.9492
0
LINE
8
BLACK
6
CONTINUOUS
10
204.172
20
-50.9992
11
204.172
21
-51.8693
0
LINE
8
BLACK
6
CONTINUOUS
10
204.172
20
-51.8693
11
205.942
21
-51.8693
0
LINE
8
BLACK
6
CONTINUOUS
10
205.942
20
-51.8693
11
205.942
21
-50.9992
0
LINE
8
BLACK
6
CONTINUOUS
10
205.942
20
-50.9992
11
204.172
21
-50.9992
0
LINE
8
BLACK
6
CONTINUOUS
10
211.3
20
-48.1
11
211.318
21
-48.1073
0
LINE
8
BLACK
6
CONTINUOUS
10
211.318
20
-48.1073
11
211.325
21
-48.125
0
LINE
8
BLACK
6
CONTINUOUS
10
211.325
20
-48.125
11
211.325
21
-51.085
0
LINE
8
BLACK
6
CONTINUOUS
10
211.325
20
-51.085
11
211.318
21
-51.1027
0
LINE
8
BLACK
6
CONTINUOUS
10
211.318
20
-51.1027
11
211.3
21
-51.11
0
LINE
8
BLACK
6
CONTINUOUS
10
211.3
20
-51.11
11
209.84
21
-51.11
0
LINE
8
BLACK
6
CONTINUOUS
10
209.84
20
-51.11
11
209.822
21
-51.1027
0
LINE
8
BLACK
6
CONTINUOUS
10
209.822
20
-51.1027
11
209.815
21
-51.085
0
LINE
8
BLACK
6
CONTINUOUS
10
209.815
20
-51.085
11
209.815
21
-48.125
0
LINE
8
BLACK
6
CONTINUOUS
10
209.815
20
-48.125
11
209.822
21
-48.1073
0
LINE
8
BLACK
6
CONTINUOUS
10
209.822
20
-48.1073
11
209.84
21
-48.1
0
LINE
8
BLACK
6
CONTINUOUS
10
209.84
20
-48.1
11
211.3
21
-48.1
0
LINE
8
BLACK
6
CONTINUOUS
10
209.865
20
-48.15
11
209.865
21
-51.06
0
LINE
8
BLACK
6
CONTINUOUS
10
209.865
20
-51.06
11
211.275
21
-51.06
0
LINE
8
BLACK
6
CONTINUOUS
10
211.275
20
-51.06
11
211.275
21
-48.15
0
LINE
8
BLACK
6
CONTINUOUS
10
211.275
20
-48.15
11
209.865
21
-48.15
0
LINE
8
BLACK
6
CONTINUOUS
10
209.76
20
-48.1
11
209.778
21
-48.1073
0
LINE
8
BLACK
6
CONTINUOUS
10
209.778
20
-48.1073
11
209.785
21
-48.125
0
LINE
8
BLACK
6
CONTINUOUS
10
209.785
20
-48.125
11
209.785
21
-51.085
0
LINE
8
BLACK
6
CONTINUOUS
10
209.785
20
-51.085
11
209.778
21
-51.1027
0
LINE
8
BLACK
6
CONTINUOUS
10
209.778
20
-51.1027
11
209.76
21
-51.11
0
LINE
8
BLACK
6
CONTINUOUS
10
209.76
20
-51.11
11
208.3
21
-51.11
0
LINE
8
BLACK
6
CONTINUOUS
10
208.3
20
-51.11
11
208.282
21
-51.1027
0
LINE
8
BLACK
6
CONTINUOUS
10
208.282
20
-51.1027
11
208.275
21
-51.085
0
LINE
8
BLACK
6
CONTINUOUS
10
208.275
20
-51.085
11
208.275
21
-48.125
0
LINE
8
BLACK
6
CONTINUOUS
10
208.275
20
-48.125
11
208.282
21
-48.1073
0
LINE
8
BLACK
6
CONTINUOUS
10
208.282
20
-48.1073
11
208.3
21
-48.1
0
LINE
8
BLACK
6
CONTINUOUS
10
208.3
20
-48.1
11
209.76
21
-48.1
0
LINE
8
BLACK
6
CONTINUOUS
10
208.325
20
-48.15
11
208.325
21
-51.06
0
LINE
8
BLACK
6
CONTINUOUS
10
208.325
20
-51.06
11
209.735
21
-51.06
0
LINE
8
BLACK
6
CONTINUOUS
10
209.735
20
-51.06
11
209.735
21
-48.15
0
LINE
8
BLACK
6
CONTINUOUS
10
209.735
20
-48.15
11
208.325
21
-48.15
0
LINE
8
BLACK
6
CONTINUOUS
10
205.967
20
-49.4252
11
205.985
21
-49.4326
0
LINE
8
BLACK
6
CONTINUOUS
10
205.985
20
-49.4326
11
205.992
21
-49.4502
0
LINE
8
BLACK
6
CONTINUOUS
10
205.992
20
-49.4502
11
205.992
21
-50.3702
0
LINE
8
BLACK
6
CONTINUOUS
10
205.992
20
-50.3702
11
205.985
21
-50.3879
0
LINE
8
BLACK
6
CONTINUOUS
10
205.985
20
-50.3879
11
205.967
21
-50.3952
0
LINE
8
BLACK
6
CONTINUOUS
10
205.967
20
-50.3952
11
204.147
21
-50.3952
0
LINE
8
BLACK
6
CONTINUOUS
10
204.147
20
-50.3952
11
204.129
21
-50.3879
0
LINE
8
BLACK
6
CONTINUOUS
10
204.129
20
-50.3879
11
204.122
21
-50.3702
0
LINE
8
BLACK
6
CONTINUOUS
10
204.122
20
-50.3702
11
204.122
21
-49.4502
0
LINE
8
BLACK
6
CONTINUOUS
10
204.122
20
-49.4502
11
204.129
21
-49.4326
0
LINE
8
BLACK
6
CONTINUOUS
10
204.129
20
-49.4326
11
204.147
21
-49.4252
0
LINE
8
BLACK
6
CONTINUOUS
10
204.147
20
-49.4252
11
205.967
21
-49.4252
0
LINE
8
BLACK
6
CONTINUOUS
10
204.172
20
-49.4752
11
204.172
21
-50.3453
0
LINE
8
BLACK
6
CONTINUOUS
10
204.172
20
-50.3453
11
205.942
21
-50.3453
0
LINE
8
BLACK
6
CONTINUOUS
10
205.942
20
-50.3453
11
205.942
21
-49.4752
0
LINE
8
BLACK
6
CONTINUOUS
10
205.942
20
-49.4752
11
204.172
21
-49.4752
0
LINE
8
BLACK
6
CONTINUOUS
10
202.822
20
-47.721
11
202.839
21
-47.7283
0
LINE
8
BLACK
6
CONTINUOUS
10
202.839
20
-47.7283
11
202.847
21
-47.746
0
LINE
8
BLACK
6
CONTINUOUS
10
202.847
20
-47.746
11
202.847
21
-49.566
0
LINE
8
BLACK
6
CONTINUOUS
10
202.847
20
-49.566
11
202.839
21
-49.5837
0
LINE
8
BLACK
6
CONTINUOUS
10
202.839
20
-49.5837
11
202.822
21
-49.591
0
LINE
8
BLACK
6
CONTINUOUS
10
202.822
20
-49.591
11
201.902
21
-49.591
0
LINE
8
BLACK
6
CONTINUOUS
10
201.902
20
-49.591
11
201.884
21
-49.5837
0
LINE
8
BLACK
6
CONTINUOUS
10
201.884
20
-49.5837
11
201.877
21
-49.566
0
LINE
8
BLACK
6
CONTINUOUS
10
201.877
20
-49.566
11
201.877
21
-47.746
0
LINE
8
BLACK
6
CONTINUOUS
10
201.877
20
-47.746
11
201.884
21
-47.7283
0
LINE
8
BLACK
6
CONTINUOUS
10
201.884
20
-47.7283
11
201.902
21
-47.721
0
LINE
8
BLACK
6
CONTINUOUS
10
201.902
20
-47.721
11
202.822
21
-47.721
0
LINE
8
BLACK
6
CONTINUOUS
10
201.927
20
-47.771
11
201.927
21
-49.541
0
LINE
8
BLACK
6
CONTINUOUS
10
201.927
20
-49.541
11
202.797
21
-49.541
0
LINE
8
BLACK
6
CONTINUOUS
10
202.797
20
-49.541
11
202.797
21
-47.771
0
LINE
8
BLACK
6
CONTINUOUS
10
202.797
20
-47.771
11
201.927
21
-47.771
0
LINE
8
BLACK
6
CONTINUOUS
10
201.806
20
-47.721
11
201.823
21
-47.7283
0
LINE
8
BLACK
6
CONTINUOUS
10
201.823
20
-47.7283
11
201.831
21
-47.746
0
LINE
8
BLACK
6
CONTINUOUS
10
201.831
20
-47.746
11
201.831
21
-49.566
0
LINE
8
BLACK
6
CONTINUOUS
10
201.831
20
-49.566
11
201.823
21
-49.5837
0
LINE
8
BLACK
6
CONTINUOUS
10
201.823
20
-49.5837
11
201.806
21
-49.591
0
LINE
8
BLACK
6
CONTINUOUS
10
201.806
20
-49.591
11
200.886
21
-49.591
0
LINE
8
BLACK
6
CONTINUOUS
10
200.886
20
-49.591
11
200.868
21
-49.5837
0
LINE
8
BLACK
6
CONTINUOUS
10
200.868
20
-49.5837
11
200.861
21
-49.566
0
LINE
8
BLACK
6
CONTINUOUS
10
200.861
20
-49.566
11
200.861
21
-47.746
0
LINE
8
BLACK
6
CONTINUOUS
10
200.861
20
-47.746
11
200.868
21
-47.7283
0
LINE
8
BLACK
6
CONTINUOUS
10
200.868
20
-47.7283
11
200.886
21
-47.721
0
LINE
8
BLACK
6
CONTINUOUS
10
200.886
20
-47.721
11
201.806
21
-47.721
0
LINE
8
BLACK
6
CONTINUOUS
10
200.911
20
-47.771
11
200.911
21
-49.541
0
LINE
8
BLACK
6
CONTINUOUS
10
200.911
20
-49.541
11
201.781
21
-49.541
0
LINE
8
BLACK
6
CONTINUOUS
10
201.781
20
-49.541
11
201.781
21
-47.771
0
LINE
8
BLACK
6
CONTINUOUS
10
201.781
20
-47.771
11
200.911
21
-47.771
0
LINE
8
BLACK
6
CONTINUOUS
10
302.885
20
-47.3134
11
302.905
21
-47.0172
0
LINE
8
BLACK
6
CONTINUOUS
10
302.905
20
-47.0172
11
302.966
21
-46.7266
0
LINE
8
BLACK
6
CONTINUOUS
10
302.966
20
-46.7266
11
303.065
21
-46.4469
0
LINE
8
BLACK
6
CONTINUOUS
10
303.065
20
-46.4469
11
303.202
21
-46.1833
0
LINE
8
BLACK
6
CONTINUOUS
10
303.202
20
-46.1833
11
303.373
21
-45.9408
0
LINE
8
BLACK
6
CONTINUOUS
10
303.373
20
-45.9408
11
303.575
21
-45.7238
0
LINE
8
BLACK
6
CONTINUOUS
10
303.575
20
-45.7238
11
303.806
21
-45.5365
0
LINE
8
BLACK
6
CONTINUOUS
10
303.806
20
-45.5365
11
304.059
21
-45.3822
0
LINE
8
BLACK
6
CONTINUOUS
10
304.059
20
-45.3822
11
304.332
21
-45.264
0
LINE
8
BLACK
6
CONTINUOUS
10
304.332
20
-45.264
11
304.617
21
-45.1839
0
LINE
8
BLACK
6
CONTINUOUS
10
304.617
20
-45.1839
11
304.912
21
-45.1435
0
LINE
8
BLACK
6
CONTINUOUS
10
304.912
20
-45.1435
11
305.208
21
-45.1435
0
LINE
8
BLACK
6
CONTINUOUS
10
305.208
20
-45.1435
11
305.503
21
-45.1839
0
LINE
8
BLACK
6
CONTINUOUS
10
305.503
20
-45.1839
11
305.788
21
-45.264
0
LINE
8
BLACK
6
CONTINUOUS
10
305.788
20
-45.264
11
306.061
21
-45.3822
0
LINE
8
BLACK
6
CONTINUOUS
10
306.061
20
-45.3822
11
306.314
21
-45.5365
0
LINE
8
BLACK
6
CONTINUOUS
10
306.314
20
-45.5365
11
306.545
21
-45.7238
0
LINE
8
BLACK
6
CONTINUOUS
10
306.545
20
-45.7238
11
306.747
21
-45.9408
0
LINE
8
BLACK
6
CONTINUOUS
10
306.747
20
-45.9408
11
306.918
21
-46.1833
0
LINE
8
BLACK
6
CONTINUOUS
10
306.918
20
-46.1833
11
307.055
21
-46.4469
0
LINE
8
BLACK
6
CONTINUOUS
10
307.055
20
-46.4469
11
307.154
21
-46.7266
0
LINE
8
BLACK
6
CONTINUOUS
10
307.154
20
-46.7266
11
307.215
21
-47.0172
0
LINE
8
BLACK
6
CONTINUOUS
10
307.215
20
-47.0172
11
307.235
21
-47.3134
0
LINE
8
BLACK
6
CONTINUOUS
10
307.235
20
-47.3134
11
307.215
21
-47.6095
0
LINE
8
BLACK
6
CONTINUOUS
10
307.215
20
-47.6095
11
307.154
21
-47.9002
0
LINE
8
BLACK
6
CONTINUOUS
10
307.154
20
-47.9002
11
307.055
21
-48.1799
0
LINE
8
BLACK
6
CONTINUOUS
10
307.055
20
-48.1799
11
306.918
21
-48.4435
0
LINE
8
BLACK
6
CONTINUOUS
10
306.918
20
-48.4435
11
306.747
21
-48.686
0
LINE
8
BLACK
6
CONTINUOUS
10
306.747
20
-48.686
11
306.545
21
-48.903
0
LINE
8
BLACK
6
CONTINUOUS
10
306.545
20
-48.903
11
306.314
21
-49.0903
0
LINE
8
BLACK
6
CONTINUOUS
10
306.314
20
-49.0903
11
306.061
21
-49.2445
0
LINE
8
BLACK
6
CONTINUOUS
10
306.061
20
-49.2445
11
305.788
21
-49.3628
0
LINE
8
BLACK
6
CONTINUOUS
10
305.788
20
-49.3628
11
305.503
21
-49.4429
0
LINE
8
BLACK
6
CONTINUOUS
10
305.503
20
-49.4429
11
305.208
21
-49.4833
0
LINE
8
BLACK
6
CONTINUOUS
10
305.208
20
-49.4833
11
304.912
21
-49.4833
0
LINE
8
BLACK
6
CONTINUOUS
10
304.912
20
-49.4833
11
304.617
21
-49.4429
0
LINE
8
BLACK
6
CONTINUOUS
10
304.617
20
-49.4429
11
304.332
21
-49.3628
0
LINE
8
BLACK
6
CONTINUOUS
10
304.332
20
-49.3628
11
304.059
21
-49.2445
0
LINE
8
BLACK
6
CONTINUOUS
10
304.059
20
-49.2445
11
303.806
21
-49.0903
0
LINE
8
BLACK
6
CONTINUOUS
10
303.806
20
-49.0903
11
303.575
21
-48.903
0
LINE
8
BLACK
6
CONTINUOUS
10
303.575
20
-48.903
11
303.373
21
-48.686
0
LINE
8
BLACK
6
CONTINUOUS
10
303.373
20
-48.686
11
303.202
21
-48.4435
0
LINE
8
BLACK
6
CONTINUOUS
10
303.202
20
-48.4435
11
303.065
21
-48.1799
0
LINE
8
BLACK
6
CONTINUOUS
10
303.065
20
-48.1799
11
302.966
21
-47.9002
0
LINE
8
BLACK
6
CONTINUOUS
10
302.966
20
-47.9002
11
302.905
21
-47.6095
0
LINE
8
BLACK
6
CONTINUOUS
10
302.905
20
-47.6095
11
302.885
21
-47.3134
0
LINE
8
BLACK
6
CONTINUOUS
10
302.93
20
-47.3134
11
302.95
21
-47.6034
0
LINE
8
BLACK
6
CONTINUOUS
10
302.95
20
-47.6034
11
303.009
21
-47.888
0
LINE
8
BLACK
6
CONTINUOUS
10
303.009
20
-47.888
11
303.106
21
-48.162
0
LINE
8
BLACK
6
CONTINUOUS
10
303.106
20
-48.162
11
303.24
21
-48.4201
0
LINE
8
BLACK
6
CONTINUOUS
10
303.24
20
-48.4201
11
303.408
21
-48.6576
0
LINE
8
BLACK
6
CONTINUOUS
10
303.408
20
-48.6576
11
303.606
21
-48.87
0
LINE
8
BLACK
6
CONTINUOUS
10
303.606
20
-48.87
11
303.832
21
-49.0535
0
LINE
8
BLACK
6
CONTINUOUS
10
303.832
20
-49.0535
11
304.08
21
-49.2045
0
LINE
8
BLACK
6
CONTINUOUS
10
304.08
20
-49.2045
11
304.347
21
-49.3204
0
LINE
8
BLACK
6
CONTINUOUS
10
304.347
20
-49.3204
11
304.627
21
-49.3988
0
LINE
8
BLACK
6
CONTINUOUS
10
304.627
20
-49.3988
11
304.915
21
-49.4384
0
LINE
8
BLACK
6
CONTINUOUS
10
304.915
20
-49.4384
11
305.205
21
-49.4384
0
LINE
8
BLACK
6
CONTINUOUS
10
305.205
20
-49.4384
11
305.493
21
-49.3988
0
LINE
8
BLACK
6
CONTINUOUS
10
305.493
20
-49.3988
11
305.773
21
-49.3204
0
LINE
8
BLACK
6
CONTINUOUS
10
305.773
20
-49.3204
11
306.04
21
-49.2045
0
LINE
8
BLACK
6
CONTINUOUS
10
306.04
20
-49.2045
11
306.288
21
-49.0535
0
LINE
8
BLACK
6
CONTINUOUS
10
306.288
20
-49.0535
11
306.514
21
-48.87
0
LINE
8
BLACK
6
CONTINUOUS
10
306.514
20
-48.87
11
306.712
21
-48.6576
0
LINE
8
BLACK
6
CONTINUOUS
10
306.712
20
-48.6576
11
306.88
21
-48.4201
0
LINE
8
BLACK
6
CONTINUOUS
10
306.88
20
-48.4201
11
307.014
21
-48.162
0
LINE
8
BLACK
6
CONTINUOUS
10
307.014
20
-48.162
11
307.111
21
-47.888
0
LINE
8
BLACK
6
CONTINUOUS
10
307.111
20
-47.888
11
307.17
21
-47.6034
0
LINE
8
BLACK
6
CONTINUOUS
10
307.17
20
-47.6034
11
307.19
21
-47.3134
0
LINE
8
BLACK
6
CONTINUOUS
10
307.19
20
-47.3134
11
307.17
21
-47.0234
0
LINE
8
BLACK
6
CONTINUOUS
10
307.17
20
-47.0234
11
307.111
21
-46.7387
0
LINE
8
BLACK
6
CONTINUOUS
10
307.111
20
-46.7387
11
307.014
21
-46.4648
0
LINE
8
BLACK
6
CONTINUOUS
10
307.014
20
-46.4648
11
306.88
21
-46.2067
0
LINE
8
BLACK
6
CONTINUOUS
10
306.88
20
-46.2067
11
306.712
21
-45.9692
0
LINE
8
BLACK
6
CONTINUOUS
10
306.712
20
-45.9692
11
306.514
21
-45.7567
0
LINE
8
BLACK
6
CONTINUOUS
10
306.514
20
-45.7567
11
306.288
21
-45.5733
0
LINE
8
BLACK
6
CONTINUOUS
10
306.288
20
-45.5733
11
306.04
21
-45.4222
0
LINE
8
BLACK
6
CONTINUOUS
10
306.04
20
-45.4222
11
305.773
21
-45.3064
0
LINE
8
BLACK
6
CONTINUOUS
10
305.773
20
-45.3064
11
305.493
21
-45.228
0
LINE
8
BLACK
6
CONTINUOUS
10
305.493
20
-45.228
11
305.205
21
-45.1884
0
LINE
8
BLACK
6
CONTINUOUS
10
305.205
20
-45.1884
11
304.915
21
-45.1884
0
LINE
8
BLACK
6
CONTINUOUS
10
304.915
20
-45.1884
11
304.627
21
-45.228
0
LINE
8
BLACK
6
CONTINUOUS
10
304.627
20
-45.228
11
304.347
21
-45.3064
0
LINE
8
BLACK
6
CONTINUOUS
10
304.347
20
-45.3064
11
304.08
21
-45.4222
0
LINE
8
BLACK
6
CONTINUOUS
10
304.08
20
-45.4222
11
303.832
21
-45.5733
0
LINE
8
BLACK
6
CONTINUOUS
10
303.832
20
-45.5733
11
303.606
21
-45.7567
0
LINE
8
BLACK
6
CONTINUOUS
10
303.606
20
-45.7567
11
303.408
21
-45.9692
0
LINE
8
BLACK
6
CONTINUOUS
10
303.408
20
-45.9692
11
303.24
21
-46.2067
0
LINE
8
BLACK
6
CONTINUOUS
10
303.24
20
-46.2067
11
303.106
21
-46.4648
0
LINE
8
BLACK
6
CONTINUOUS
10
303.106
20
-46.4648
11
303.009
21
-46.7387
0
LINE
8
BLACK
6
CONTINUOUS
10
303.009
20
-46.7387
11
302.95
21
-47.0234
0
LINE
8
BLACK
6
CONTINUOUS
10
302.95
20
-47.0234
11
302.93
21
-47.3134
0
LINE
8
BLACK
6
CONTINUOUS
10
95.825
20
-47.3134
11
95.8453
21
-47.0172
0
LINE
8
BLACK
6
CONTINUOUS
10
95.8453
20
-47.0172
11
95.9057
21
-46.7266
0
LINE
8
BLACK
6
CONTINUOUS
10
95.9057
20
-46.7266
11
96.0051
21
-46.4469
0
LINE
8
BLACK
6
CONTINUOUS
10
96.0051
20
-46.4469
11
96.1416
21
-46.1833
0
LINE
8
BLACK
6
CONTINUOUS
10
96.1416
20
-46.1833
11
96.3128
21
-45.9408
0
LINE
8
BLACK
6
CONTINUOUS
10
96.3128
20
-45.9408
11
96.5154
21
-45.7238
0
LINE
8
BLACK
6
CONTINUOUS
10
96.5154
20
-45.7238
11
96.7457
21
-45.5365
0
LINE
8
BLACK
6
CONTINUOUS
10
96.7457
20
-45.5365
11
96.9994
21
-45.3822
0
LINE
8
BLACK
6
CONTINUOUS
10
96.9994
20
-45.3822
11
97.2716
21
-45.264
0
LINE
8
BLACK
6
CONTINUOUS
10
97.2716
20
-45.264
11
97.5575
21
-45.1839
0
LINE
8
BLACK
6
CONTINUOUS
10
97.5575
20
-45.1839
11
97.8516
21
-45.1435
0
LINE
8
BLACK
6
CONTINUOUS
10
97.8516
20
-45.1435
11
98.1484
21
-45.1435
0
LINE
8
BLACK
6
CONTINUOUS
10
98.1484
20
-45.1435
11
98.4425
21
-45.1839
0
LINE
8
BLACK
6
CONTINUOUS
10
98.4425
20
-45.1839
11
98.7284
21
-45.264
0
LINE
8
BLACK
6
CONTINUOUS
10
98.7284
20
-45.264
11
99.0006
21
-45.3822
0
LINE
8
BLACK
6
CONTINUOUS
10
99.0006
20
-45.3822
11
99.2543
21
-45.5365
0
LINE
8
BLACK
6
CONTINUOUS
10
99.2543
20
-45.5365
11
99.4846
21
-45.7238
0
LINE
8
BLACK
6
CONTINUOUS
10
99.4846
20
-45.7238
11
99.6872
21
-45.9408
0
LINE
8
BLACK
6
CONTINUOUS
10
99.6872
20
-45.9408
11
99.8584
21
-46.1833
0
LINE
8
BLACK
6
CONTINUOUS
10
99.8584
20
-46.1833
11
99.9949
21
-46.4469
0
LINE
8
BLACK
6
CONTINUOUS
10
99.9949
20
-46.4469
11
100.094
21
-46.7266
0
LINE
8
BLACK
6
CONTINUOUS
10
100.094
20
-46.7266
11
100.155
21
-47.0172
0
LINE
8
BLACK
6
CONTINUOUS
10
100.155
20
-47.0172
11
100.175
21
-47.3134
0
LINE
8
BLACK
6
CONTINUOUS
10
100.175
20
-47.3134
11
100.155
21
-47.6095
0
LINE
8
BLACK
6
CONTINUOUS
10
100.155
20
-47.6095
11
100.094
21
-47.9002
0
LINE
8
BLACK
6
CONTINUOUS
10
100.094
20
-47.9002
11
99.9949
21
-48.1799
0
LINE
8
BLACK
6
CONTINUOUS
10
99.9949
20
-48.1799
11
99.8584
21
-48.4435
0
LINE
8
BLACK
6
CONTINUOUS
10
99.8584
20
-48.4435
11
99.6872
21
-48.686
0
LINE
8
BLACK
6
CONTINUOUS
10
99.6872
20
-48.686
11
99.4846
21
-48.903
0
LINE
8
BLACK
6
CONTINUOUS
10
99.4846
20
-48.903
11
99.2543
21
-49.0903
0
LINE
8
BLACK
6
CONTINUOUS
10
99.2543
20
-49.0903
11
99.0006
21
-49.2445
0
LINE
8
BLACK
6
CONTINUOUS
10
99.0006
20
-49.2445
11
98.7284
21
-49.3628
0
LINE
8
BLACK
6
CONTINUOUS
10
98.7284
20
-49.3628
11
98.4425
21
-49.4429
0
LINE
8
BLACK
6
CONTINUOUS
10
98.4425
20
-49.4429
11
98.1484
21
-49.4833
0
LINE
8
BLACK
6
CONTINUOUS
10
98.1484
20
-49.4833
11
97.8516
21
-49.4833
0
LINE
8
BLACK
6
CONTINUOUS
10
97.8516
20
-49.4833
11
97.5575
21
-49.4429
0
LINE
8
BLACK
6
CONTINUOUS
10
97.5575
20
-49.4429
11
97.2716
21
-49.3628
0
LINE
8
BLACK
6
CONTINUOUS
10
97.2716
20
-49.3628
11
96.9994
21
-49.2445
0
LINE
8
BLACK
6
CONTINUOUS
10
96.9994
20
-49.2445
11
96.7457
21
-49.0903
0
LINE
8
BLACK
6
CONTINUOUS
10
96.7457
20
-49.0903
11
96.5154
21
-48.903
0
LINE
8
BLACK
6
CONTINUOUS
10
96.5154
20
-48.903
11
96.3128
21
-48.686
0
LINE
8
BLACK
6
CONTINUOUS
10
96.3128
20
-48.686
11
96.1416
21
-48.4435
0
LINE
8
BLACK
6
CONTINUOUS
10
96.1416
20
-48.4435
11
96.0051
21
-48.1799
0
LINE
8
BLACK
6
CONTINUOUS
10
96.0051
20
-48.1799
11
95.9057
21
-47.9002
0
LINE
8
BLACK
6
CONTINUOUS
10
95.9057
20
-47.9002
11
95.8453
21
-47.6095
0
LINE
8
BLACK
6
CONTINUOUS
10
95.8453
20
-47.6095
11
95.825
21
-47.3134
0
LINE
8
BLACK
6
CONTINUOUS
10
95.87
20
-47.3134
11
95.8899
21
-47.6034
0
LINE
8
BLACK
6
CONTINUOUS
10
95.8899
20
-47.6034
11
95.949
21
-47.888
0
LINE
8
BLACK
6
CONTINUOUS
10
95.949
20
-47.888
11
96.0464
21
-48.162
0
LINE
8
BLACK
6
CONTINUOUS
10
96.0464
20
-48.162
11
96.1801
21
-48.4201
0
LINE
8
BLACK
6
CONTINUOUS
10
96.1801
20
-48.4201
11
96.3478
21
-48.6576
0
LINE
8
BLACK
6
CONTINUOUS
10
96.3478
20
-48.6576
11
96.5462
21
-48.87
0
LINE
8
BLACK
6
CONTINUOUS
10
96.5462
20
-48.87
11
96.7717
21
-49.0535
0
LINE
8
BLACK
6
CONTINUOUS
10
96.7717
20
-49.0535
11
97.0201
21
-49.2045
0
LINE
8
BLACK
6
CONTINUOUS
10
97.0201
20
-49.2045
11
97.2867
21
-49.3204
0
LINE
8
BLACK
6
CONTINUOUS
10
97.2867
20
-49.3204
11
97.5666
21
-49.3988
0
LINE
8
BLACK
6
CONTINUOUS
10
97.5666
20
-49.3988
11
97.8546
21
-49.4384
0
LINE
8
BLACK
6
CONTINUOUS
10
97.8546
20
-49.4384
11
98.1454
21
-49.4384
0
LINE
8
BLACK
6
CONTINUOUS
10
98.1454
20
-49.4384
11
98.4334
21
-49.3988
0
LINE
8
BLACK
6
CONTINUOUS
10
98.4334
20
-49.3988
11
98.7133
21
-49.3204
0
LINE
8
BLACK
6
CONTINUOUS
10
98.7133
20
-49.3204
11
98.9799
21
-49.2045
0
LINE
8
BLACK
6
CONTINUOUS
10
98.9799
20
-49.2045
11
99.2283
21
-49.0535
0
LINE
8
BLACK
6
CONTINUOUS
10
99.2283
20
-49.0535
11
99.4538
21
-48.87
0
LINE
8
BLACK
6
CONTINUOUS
10
99.4538
20
-48.87
11
99.6522
21
-48.6576
0
LINE
8
BLACK
6
CONTINUOUS
10
99.6522
20
-48.6576
11
99.8199
21
-48.4201
0
LINE
8
BLACK
6
CONTINUOUS
10
99.8199
20
-48.4201
11
99.9536
21
-48.162
0
LINE
8
BLACK
6
CONTINUOUS
10
99.9536
20
-48.162
11
100.051
21
-47.888
0
LINE
8
BLACK
6
CONTINUOUS
10
100.051
20
-47.888
11
100.11
21
-47.6034
0
LINE
8
BLACK
6
CONTINUOUS
10
100.11
20
-47.6034
11
100.13
21
-47.3134
0
LINE
8
BLACK
6
CONTINUOUS
10
100.13
20
-47.3134
11
100.11
21
-47.0234
0
LINE
8
BLACK
6
CONTINUOUS
10
100.11
20
-47.0234
11
100.051
21
-46.7387
0
LINE
8
BLACK
6
CONTINUOUS
10
100.051
20
-46.7387
11
99.9536
21
-46.4648
0
LINE
8
BLACK
6
CONTINUOUS
10
99.9536
20
-46.4648
11
99.8199
21
-46.2067
0
LINE
8
BLACK
6
CONTINUOUS
10
99.8199
20
-46.2067
11
99.6522
21
-45.9692
0
LINE
8
BLACK
6
CONTINUOUS
10
99.6522
20
-45.9692
11
99.4538
21
-45.7567
0
LINE
8
BLACK
6
CONTINUOUS
10
99.4538
20
-45.7567
11
99.2283
21
-45.5733
0
LINE
8
BLACK
6
CONTINUOUS
10
99.2283
20
-45.5733
11
98.9799
21
-45.4222
0
LINE
8
BLACK
6
CONTINUOUS
10
98.9799
20
-45.4222
11
98.7133
21
-45.3064
0
LINE
8
BLACK
6
CONTINUOUS
10
98.7133
20
-45.3064
11
98.4334
21
-45.228
0
LINE
8
BLACK
6
CONTINUOUS
10
98.4334
20
-45.228
11
98.1454
21
-45.1884
0
LINE
8
BLACK
6
CONTINUOUS
10
98.1454
20
-45.1884
11
97.8546
21
-45.1884
0
LINE
8
BLACK
6
CONTINUOUS
10
97.8546
20
-45.1884
11
97.5666
21
-45.228
0
LINE
8
BLACK
6
CONTINUOUS
10
97.5666
20
-45.228
11
97.2867
21
-45.3064
0
LINE
8
BLACK
6
CONTINUOUS
10
97.2867
20
-45.3064
11
97.0201
21
-45.4222
0
LINE
8
BLACK
6
CONTINUOUS
10
97.0201
20
-45.4222
11
96.7717
21
-45.5733
0
LINE
8
BLACK
6
CONTINUOUS
10
96.7717
20
-45.5733
11
96.5462
21
-45.7567
0
LINE
8
BLACK
6
CONTINUOUS
10
96.5462
20
-45.7567
11
96.3478
21
-45.9692
0
LINE
8
BLACK
6
CONTINUOUS
10
96.3478
20
-45.9692
11
96.1801
21
-46.2067
0
LINE
8
BLACK
6
CONTINUOUS
10
96.1801
20
-46.2067
11
96.0464
21
-46.4648
0
LINE
8
BLACK
6
CONTINUOUS
10
96.0464
20
-46.4648
11
95.949
21
-46.7387
0
LINE
8
BLACK
6
CONTINUOUS
10
95.949
20
-46.7387
11
95.8899
21
-47.0234
0
LINE
8
BLACK
6
CONTINUOUS
10
95.8899
20
-47.0234
11
95.87
21
-47.3134
0
LINE
8
BLACK
6
CONTINUOUS
10
270.14
20
-31.1772
11
270.159
21
-31.1797
0
LINE
8
BLACK
6
CONTINUOUS
10
270.159
20
-31.1797
11
270.171
21
-31.1948
0
LINE
8
BLACK
6
CONTINUOUS
10
270.171
20
-31.1948
11
270.171
21
-31.1948
0
LINE
8
BLACK
6
CONTINUOUS
10
270.171
20
-31.1948
11
273.794
21
-44.7178
0
LINE
8
BLACK
6
CONTINUOUS
10
273.794
20
-44.7178
11
273.794
21
-44.7178
0
LINE
8
BLACK
6
CONTINUOUS
10
273.794
20
-44.7178
11
273.793
21
-44.7307
0
LINE
8
BLACK
6
CONTINUOUS
10
273.793
20
-44.7307
11
273.792
21
-44.7368
0
LINE
8
BLACK
6
CONTINUOUS
10
273.792
20
-44.7368
11
273.777
21
-44.7484
0
LINE
8
BLACK
6
CONTINUOUS
10
273.777
20
-44.7484
11
273.777
21
-44.7484
0
LINE
8
BLACK
6
CONTINUOUS
10
273.777
20
-44.7484
11
260.254
21
-48.3719
0
LINE
8
BLACK
6
CONTINUOUS
10
260.254
20
-48.3719
11
260.254
21
-48.3719
0
LINE
8
BLACK
6
CONTINUOUS
10
260.254
20
-48.3719
11
260.235
21
-48.3694
0
LINE
8
BLACK
6
CONTINUOUS
10
260.235
20
-48.3694
11
260.223
21
-48.3542
0
LINE
8
BLACK
6
CONTINUOUS
10
260.223
20
-48.3542
11
256.599
21
-34.8312
0
LINE
8
BLACK
6
CONTINUOUS
10
256.599
20
-34.8312
11
256.602
21
-34.8123
0
LINE
8
BLACK
6
CONTINUOUS
10
256.602
20
-34.8123
11
256.617
21
-34.8006
0
LINE
8
BLACK
6
CONTINUOUS
10
256.617
20
-34.8006
11
270.14
21
-31.1772
0
LINE
8
BLACK
6
CONTINUOUS
10
256.654
20
-34.8424
11
260.265
21
-48.3171
0
LINE
8
BLACK
6
CONTINUOUS
10
260.265
20
-48.3171
11
273.739
21
-44.7066
0
LINE
8
BLACK
6
CONTINUOUS
10
273.739
20
-44.7066
11
270.129
21
-31.2319
0
LINE
8
BLACK
6
CONTINUOUS
10
270.129
20
-31.2319
11
256.654
21
-34.8424
0
LINE
8
BLACK
6
CONTINUOUS
10
199.04
20
-45.9273
11
199.058
21
-45.9346
0
LINE
8
BLACK
6
CONTINUOUS
10
199.058
20
-45.9346
11
199.065
21
-45.9522
0
LINE
8
BLACK
6
CONTINUOUS
10
199.065
20
-45.9522
11
199.065
21
-47.7722
0
LINE
8
BLACK
6
CONTINUOUS
10
199.065
20
-47.7722
11
199.058
21
-47.7899
0
LINE
8
BLACK
6
CONTINUOUS
10
199.058
20
-47.7899
11
199.04
21
-47.7972
0
LINE
8
BLACK
6
CONTINUOUS
10
199.04
20
-47.7972
11
198.12
21
-47.7972
0
LINE
8
BLACK
6
CONTINUOUS
10
198.12
20
-47.7972
11
198.102
21
-47.7899
0
LINE
8
BLACK
6
CONTINUOUS
10
198.102
20
-47.7899
11
198.095
21
-47.7722
0
LINE
8
BLACK
6
CONTINUOUS
10
198.095
20
-47.7722
11
198.095
21
-45.9522
0
LINE
8
BLACK
6
CONTINUOUS
10
198.095
20
-45.9522
11
198.102
21
-45.9346
0
LINE
8
BLACK
6
CONTINUOUS
10
198.102
20
-45.9346
11
198.12
21
-45.9273
0
LINE
8
BLACK
6
CONTINUOUS
10
198.12
20
-45.9273
11
199.04
21
-45.9273
0
LINE
8
BLACK
6
CONTINUOUS
10
198.145
20
-45.9772
11
198.145
21
-47.7473
0
LINE
8
BLACK
6
CONTINUOUS
10
198.145
20
-47.7473
11
199.015
21
-47.7473
0
LINE
8
BLACK
6
CONTINUOUS
10
199.015
20
-47.7473
11
199.015
21
-45.9772
0
LINE
8
BLACK
6
CONTINUOUS
10
199.015
20
-45.9772
11
198.145
21
-45.9772
0
LINE
8
BLACK
6
CONTINUOUS
10
197.516
20
-45.9273
11
197.534
21
-45.9346
0
LINE
8
BLACK
6
CONTINUOUS
10
197.534
20
-45.9346
11
197.541
21
-45.9522
0
LINE
8
BLACK
6
CONTINUOUS
10
197.541
20
-45.9522
11
197.541
21
-47.7722
0
LINE
8
BLACK
6
CONTINUOUS
10
197.541
20
-47.7722
11
197.534
21
-47.7899
0
LINE
8
BLACK
6
CONTINUOUS
10
197.534
20
-47.7899
11
197.516
21
-47.7972
0
LINE
8
BLACK
6
CONTINUOUS
10
197.516
20
-47.7972
11
196.596
21
-47.7972
0
LINE
8
BLACK
6
CONTINUOUS
10
196.596
20
-47.7972
11
196.578
21
-47.7899
0
LINE
8
BLACK
6
CONTINUOUS
10
196.578
20
-47.7899
11
196.571
21
-47.7722
0
LINE
8
BLACK
6
CONTINUOUS
10
196.571
20
-47.7722
11
196.571
21
-45.9522
0
LINE
8
BLACK
6
CONTINUOUS
10
196.571
20
-45.9522
11
196.578
21
-45.9346
0
LINE
8
BLACK
6
CONTINUOUS
10
196.578
20
-45.9346
11
196.596
21
-45.9273
0
LINE
8
BLACK
6
CONTINUOUS
10
196.596
20
-45.9273
11
197.516
21
-45.9273
0
LINE
8
BLACK
6
CONTINUOUS
10
196.621
20
-45.9772
11
196.621
21
-47.7473
0
LINE
8
BLACK
6
CONTINUOUS
10
196.621
20
-47.7473
11
197.491
21
-47.7473
0
LINE
8
BLACK
6
CONTINUOUS
10
197.491
20
-47.7473
11
197.491
21
-45.9772
0
LINE
8
BLACK
6
CONTINUOUS
10
197.491
20
-45.9772
11
196.621
21
-45.9772
0
LINE
8
BLACK
6
CONTINUOUS
10
206.83
20
-46.14
11
206.848
21
-46.1473
0
LINE
8
BLACK
6
CONTINUOUS
10
206.848
20
-46.1473
11
206.855
21
-46.165
0
LINE
8
BLACK
6
CONTINUOUS
10
206.855
20
-46.165
11
206.855
21
-47.085
0
LINE
8
BLACK
6
CONTINUOUS
10
206.855
20
-47.085
11
206.848
21
-47.1027
0
LINE
8
BLACK
6
CONTINUOUS
10
206.848
20
-47.1027
11
206.83
21
-47.11
0
LINE
8
BLACK
6
CONTINUOUS
10
206.83
20
-47.11
11
205.01
21
-47.11
0
LINE
8
BLACK
6
CONTINUOUS
10
205.01
20
-47.11
11
204.992
21
-47.1027
0
LINE
8
BLACK
6
CONTINUOUS
10
204.992
20
-47.1027
11
204.985
21
-47.085
0
LINE
8
BLACK
6
CONTINUOUS
10
204.985
20
-47.085
11
204.985
21
-46.165
0
LINE
8
BLACK
6
CONTINUOUS
10
204.985
20
-46.165
11
204.992
21
-46.1473
0
LINE
8
BLACK
6
CONTINUOUS
10
204.992
20
-46.1473
11
205.01
21
-46.14
0
LINE
8
BLACK
6
CONTINUOUS
10
205.01
20
-46.14
11
206.83
21
-46.14
0
LINE
8
BLACK
6
CONTINUOUS
10
205.035
20
-46.19
11
205.035
21
-47.06
0
LINE
8
BLACK
6
CONTINUOUS
10
205.035
20
-47.06
11
206.805
21
-47.06
0
LINE
8
BLACK
6
CONTINUOUS
10
206.805
20
-47.06
11
206.805
21
-46.19
0
LINE
8
BLACK
6
CONTINUOUS
10
206.805
20
-46.19
11
205.035
21
-46.19
0
LINE
8
BLACK
6
CONTINUOUS
10
190.46
20
-30.225
11
190.478
21
-30.2323
0
LINE
8
BLACK
6
CONTINUOUS
10
190.478
20
-30.2323
11
190.485
21
-30.25
0
LINE
8
BLACK
6
CONTINUOUS
10
190.485
20
-30.25
11
190.485
21
-38.75
0
LINE
8
BLACK
6
CONTINUOUS
10
190.485
20
-38.75
11
190.478
21
-38.7677
0
LINE
8
BLACK
6
CONTINUOUS
10
190.478
20
-38.7677
11
190.46
21
-38.775
0
LINE
8
BLACK
6
CONTINUOUS
10
190.46
20
-38.775
11
186.339
21
-38.775
0
LINE
8
BLACK
6
CONTINUOUS
10
186.339
20
-38.775
11
186.345
21
-38.79
0
LINE
8
BLACK
6
CONTINUOUS
10
186.345
20
-38.79
11
186.345
21
-40.65
0
LINE
8
BLACK
6
CONTINUOUS
10
186.345
20
-40.65
11
186.339
21
-40.665
0
LINE
8
BLACK
6
CONTINUOUS
10
186.339
20
-40.665
11
194.1
21
-40.665
0
LINE
8
BLACK
6
CONTINUOUS
10
194.1
20
-40.665
11
194.118
21
-40.6723
0
LINE
8
BLACK
6
CONTINUOUS
10
194.118
20
-40.6723
11
194.125
21
-40.69
0
LINE
8
BLACK
6
CONTINUOUS
10
194.125
20
-40.69
11
194.125
21
-46.41
0
LINE
8
BLACK
6
CONTINUOUS
10
194.125
20
-46.41
11
194.118
21
-46.4277
0
LINE
8
BLACK
6
CONTINUOUS
10
194.118
20
-46.4277
11
194.1
21
-46.435
0
LINE
8
BLACK
6
CONTINUOUS
10
194.1
20
-46.435
11
184.8
21
-46.435
0
LINE
8
BLACK
6
CONTINUOUS
10
184.8
20
-46.435
11
184.782
21
-46.4277
0
LINE
8
BLACK
6
CONTINUOUS
10
184.782
20
-46.4277
11
184.775
21
-46.41
0
LINE
8
BLACK
6
CONTINUOUS
10
184.775
20
-46.41
11
184.775
21
-40.69
0
LINE
8
BLACK
6
CONTINUOUS
10
184.775
20
-40.69
11
184.782
21
-40.6723
0
LINE
8
BLACK
6
CONTINUOUS
10
184.782
20
-40.6723
11
184.8
21
-40.665
0
LINE
8
BLACK
6
CONTINUOUS
10
184.8
20
-40.665
11
185.361
21
-40.665
0
LINE
8
BLACK
6
CONTINUOUS
10
185.361
20
-40.665
11
185.355
21
-40.65
0
LINE
8
BLACK
6
CONTINUOUS
10
185.355
20
-40.65
11
185.355
21
-38.79
0
LINE
8
BLACK
6
CONTINUOUS
10
185.355
20
-38.79
11
185.361
21
-38.775
0
LINE
8
BLACK
6
CONTINUOUS
10
185.361
20
-38.775
11
184.76
21
-38.775
0
LINE
8
BLACK
6
CONTINUOUS
10
184.76
20
-38.775
11
184.742
21
-38.7677
0
LINE
8
BLACK
6
CONTINUOUS
10
184.742
20
-38.7677
11
184.735
21
-38.75
0
LINE
8
BLACK
6
CONTINUOUS
10
184.735
20
-38.75
11
184.735
21
-30.25
0
LINE
8
BLACK
6
CONTINUOUS
10
184.735
20
-30.25
11
184.742
21
-30.2323
0
LINE
8
BLACK
6
CONTINUOUS
10
184.742
20
-30.2323
11
184.76
21
-30.225
0
LINE
8
BLACK
6
CONTINUOUS
10
184.76
20
-30.225
11
190.46
21
-30.225
0
LINE
8
BLACK
6
CONTINUOUS
10
184.825
20
-40.715
11
184.825
21
-46.385
0
LINE
8
BLACK
6
CONTINUOUS
10
184.825
20
-46.385
11
194.075
21
-46.385
0
LINE
8
BLACK
6
CONTINUOUS
10
194.075
20
-46.385
11
194.075
21
-40.715
0
LINE
8
BLACK
6
CONTINUOUS
10
194.075
20
-40.715
11
184.825
21
-40.715
0
LINE
8
BLACK
6
CONTINUOUS
10
185.405
20
-38.815
11
185.405
21
-40.625
0
LINE
8
BLACK
6
CONTINUOUS
10
185.405
20
-40.625
11
186.295
21
-40.625
0
LINE
8
BLACK
6
CONTINUOUS
10
186.295
20
-40.625
11
186.295
21
-38.815
0
LINE
8
BLACK
6
CONTINUOUS
10
186.295
20
-38.815
11
185.405
21
-38.815
0
LINE
8
BLACK
6
CONTINUOUS
10
184.785
20
-30.275
11
184.785
21
-38.725
0
LINE
8
BLACK
6
CONTINUOUS
10
184.785
20
-38.725
11
190.435
21
-38.725
0
LINE
8
BLACK
6
CONTINUOUS
10
190.435
20
-38.725
11
190.435
21
-30.275
0
LINE
8
BLACK
6
CONTINUOUS
10
190.435
20
-30.275
11
184.785
21
-30.275
0
LINE
8
BLACK
6
CONTINUOUS
10
206.83
20
-44.94
11
206.848
21
-44.9473
0
LINE
8
BLACK
6
CONTINUOUS
10
206.848
20
-44.9473
11
206.855
21
-44.965
0
LINE
8
BLACK
6
CONTINUOUS
10
206.855
20
-44.965
11
206.855
21
-45.885
0
LINE
8
BLACK
6
CONTINUOUS
10
206.855
20
-45.885
11
206.848
21
-45.9027
0
LINE
8
BLACK
6
CONTINUOUS
10
206.848
20
-45.9027
11
206.83
21
-45.91
0
LINE
8
BLACK
6
CONTINUOUS
10
206.83
20
-45.91
11
205.01
21
-45.91
0
LINE
8
BLACK
6
CONTINUOUS
10
205.01
20
-45.91
11
204.992
21
-45.9027
0
LINE
8
BLACK
6
CONTINUOUS
10
204.992
20
-45.9027
11
204.985
21
-45.885
0
LINE
8
BLACK
6
CONTINUOUS
10
204.985
20
-45.885
11
204.985
21
-44.965
0
LINE
8
BLACK
6
CONTINUOUS
10
204.985
20
-44.965
11
204.992
21
-44.9473
0
LINE
8
BLACK
6
CONTINUOUS
10
204.992
20
-44.9473
11
205.01
21
-44.94
0
LINE
8
BLACK
6
CONTINUOUS
10
205.01
20
-44.94
11
206.83
21
-44.94
0
LINE
8
BLACK
6
CONTINUOUS
10
205.035
20
-44.99
11
205.035
21
-45.86
0
LINE
8
BLACK
6
CONTINUOUS
10
205.035
20
-45.86
11
206.805
21
-45.86
0
LINE
8
BLACK
6
CONTINUOUS
10
206.805
20
-45.86
11
206.805
21
-44.99
0
LINE
8
BLACK
6
CONTINUOUS
10
206.805
20
-44.99
11
205.035
21
-44.99
0
LINE
8
BLACK
6
CONTINUOUS
10
205.272
20
-39.095
11
205.29
21
-39.1023
0
LINE
8
BLACK
6
CONTINUOUS
10
205.29
20
-39.1023
11
205.297
21
-39.12
0
LINE
8
BLACK
6
CONTINUOUS
10
205.297
20
-39.12
11
205.297
21
-40.036
0
LINE
8
BLACK
6
CONTINUOUS
10
205.297
20
-40.036
11
205.3
21
-40.035
0
LINE
8
BLACK
6
CONTINUOUS
10
205.3
20
-40.035
11
207.6
21
-40.035
0
LINE
8
BLACK
6
CONTINUOUS
10
207.6
20
-40.035
11
207.618
21
-40.0423
0
LINE
8
BLACK
6
CONTINUOUS
10
207.618
20
-40.0423
11
207.625
21
-40.06
0
LINE
8
BLACK
6
CONTINUOUS
10
207.625
20
-40.06
11
207.625
21
-44.76
0
LINE
8
BLACK
6
CONTINUOUS
10
207.625
20
-44.76
11
207.618
21
-44.7777
0
LINE
8
BLACK
6
CONTINUOUS
10
207.618
20
-44.7777
11
207.6
21
-44.785
0
LINE
8
BLACK
6
CONTINUOUS
10
207.6
20
-44.785
11
205.3
21
-44.785
0
LINE
8
BLACK
6
CONTINUOUS
10
205.3
20
-44.785
11
205.282
21
-44.7777
0
LINE
8
BLACK
6
CONTINUOUS
10
205.282
20
-44.7777
11
205.275
21
-44.76
0
LINE
8
BLACK
6
CONTINUOUS
10
205.275
20
-44.76
11
205.275
21
-42.544
0
LINE
8
BLACK
6
CONTINUOUS
10
205.275
20
-42.544
11
205.272
21
-42.545
0
LINE
8
BLACK
6
CONTINUOUS
10
205.272
20
-42.545
11
201.433
21
-42.545
0
LINE
8
BLACK
6
CONTINUOUS
10
201.433
20
-42.545
11
201.415
21
-42.5377
0
LINE
8
BLACK
6
CONTINUOUS
10
201.415
20
-42.5377
11
201.407
21
-42.52
0
LINE
8
BLACK
6
CONTINUOUS
10
201.407
20
-42.52
11
201.407
21
-39.12
0
LINE
8
BLACK
6
CONTINUOUS
10
201.407
20
-39.12
11
201.415
21
-39.1023
0
LINE
8
BLACK
6
CONTINUOUS
10
201.415
20
-39.1023
11
201.433
21
-39.095
0
LINE
8
BLACK
6
CONTINUOUS
10
201.433
20
-39.095
11
205.272
21
-39.095
0
LINE
8
BLACK
6
CONTINUOUS
10
205.325
20
-40.085
11
205.325
21
-44.735
0
LINE
8
BLACK
6
CONTINUOUS
10
205.325
20
-44.735
11
207.575
21
-44.735
0
LINE
8
BLACK
6
CONTINUOUS
10
207.575
20
-44.735
11
207.575
21
-40.085
0
LINE
8
BLACK
6
CONTINUOUS
10
207.575
20
-40.085
11
205.325
21
-40.085
0
LINE
8
BLACK
6
CONTINUOUS
10
201.457
20
-39.145
11
201.457
21
-42.495
0
LINE
8
BLACK
6
CONTINUOUS
10
201.457
20
-42.495
11
205.248
21
-42.495
0
LINE
8
BLACK
6
CONTINUOUS
10
205.248
20
-42.495
11
205.248
21
-39.145
0
LINE
8
BLACK
6
CONTINUOUS
10
205.248
20
-39.145
11
201.457
21
-39.145
0
LINE
8
BLACK
6
CONTINUOUS
10
201.27
20
-41.635
11
201.288
21
-41.6423
0
LINE
8
BLACK
6
CONTINUOUS
10
201.288
20
-41.6423
11
201.295
21
-41.66
0
LINE
8
BLACK
6
CONTINUOUS
10
201.295
20
-41.66
11
201.295
21
-44.62
0
LINE
8
BLACK
6
CONTINUOUS
10
201.295
20
-44.62
11
201.288
21
-44.6377
0
LINE
8
BLACK
6
CONTINUOUS
10
201.288
20
-44.6377
11
201.27
21
-44.645
0
LINE
8
BLACK
6
CONTINUOUS
10
201.27
20
-44.645
11
199.81
21
-44.645
0
LINE
8
BLACK
6
CONTINUOUS
10
199.81
20
-44.645
11
199.792
21
-44.6377
0
LINE
8
BLACK
6
CONTINUOUS
10
199.792
20
-44.6377
11
199.785
21
-44.62
0
LINE
8
BLACK
6
CONTINUOUS
10
199.785
20
-44.62
11
199.785
21
-41.66
0
LINE
8
BLACK
6
CONTINUOUS
10
199.785
20
-41.66
11
199.792
21
-41.6423
0
LINE
8
BLACK
6
CONTINUOUS
10
199.792
20
-41.6423
11
199.81
21
-41.635
0
LINE
8
BLACK
6
CONTINUOUS
10
199.81
20
-41.635
11
201.27
21
-41.635
0
LINE
8
BLACK
6
CONTINUOUS
10
199.835
20
-41.685
11
199.835
21
-44.595
0
LINE
8
BLACK
6
CONTINUOUS
10
199.835
20
-44.595
11
201.245
21
-44.595
0
LINE
8
BLACK
6
CONTINUOUS
10
201.245
20
-44.595
11
201.245
21
-41.685
0
LINE
8
BLACK
6
CONTINUOUS
10
201.245
20
-41.685
11
199.835
21
-41.685
0
LINE
8
BLACK
6
CONTINUOUS
10
199.74
20
-41.635
11
199.758
21
-41.6423
0
LINE
8
BLACK
6
CONTINUOUS
10
199.758
20
-41.6423
11
199.765
21
-41.66
0
LINE
8
BLACK
6
CONTINUOUS
10
199.765
20
-41.66
11
199.765
21
-44.62
0
LINE
8
BLACK
6
CONTINUOUS
10
199.765
20
-44.62
11
199.758
21
-44.6377
0
LINE
8
BLACK
6
CONTINUOUS
10
199.758
20
-44.6377
11
199.74
21
-44.645
0
LINE
8
BLACK
6
CONTINUOUS
10
199.74
20
-44.645
11
198.28
21
-44.645
0
LINE
8
BLACK
6
CONTINUOUS
10
198.28
20
-44.645
11
198.262
21
-44.6377
0
LINE
8
BLACK
6
CONTINUOUS
10
198.262
20
-44.6377
11
198.255
21
-44.62
0
LINE
8
BLACK
6
CONTINUOUS
10
198.255
20
-44.62
11
198.255
21
-41.66
0
LINE
8
BLACK
6
CONTINUOUS
10
198.255
20
-41.66
11
198.262
21
-41.6423
0
LINE
8
BLACK
6
CONTINUOUS
10
198.262
20
-41.6423
11
198.28
21
-41.635
0
LINE
8
BLACK
6
CONTINUOUS
10
198.28
20
-41.635
11
199.74
21
-41.635
0
LINE
8
BLACK
6
CONTINUOUS
10
198.305
20
-41.685
11
198.305
21
-44.595
0
LINE
8
BLACK
6
CONTINUOUS
10
198.305
20
-44.595
11
199.715
21
-44.595
0
LINE
8
BLACK
6
CONTINUOUS
10
199.715
20
-44.595
11
199.715
21
-41.685
0
LINE
8
BLACK
6
CONTINUOUS
10
199.715
20
-41.685
11
198.305
21
-41.685
0
LINE
8
BLACK
6
CONTINUOUS
10
298.299
20
-26.712
11
298.318
21
-26.7145
0
LINE
8
BLACK
6
CONTINUOUS
10
298.318
20
-26.7145
11
298.33
21
-26.7296
0
LINE
8
BLACK
6
CONTINUOUS
10
298.33
20
-26.7296
11
298.33
21
-26.7297
0
LINE
8
BLACK
6
CONTINUOUS
10
298.33
20
-26.7297
11
301.953
21
-40.2526
0
LINE
8
BLACK
6
CONTINUOUS
10
301.953
20
-40.2526
11
301.953
21
-40.2526
0
LINE
8
BLACK
6
CONTINUOUS
10
301.953
20
-40.2526
11
301.951
21
-40.2656
0
LINE
8
BLACK
6
CONTINUOUS
10
301.951
20
-40.2656
11
301.951
21
-40.2716
0
LINE
8
BLACK
6
CONTINUOUS
10
301.951
20
-40.2716
11
301.935
21
-40.2832
0
LINE
8
BLACK
6
CONTINUOUS
10
301.935
20
-40.2832
11
301.935
21
-40.2832
0
LINE
8
BLACK
6
CONTINUOUS
10
301.935
20
-40.2832
11
288.412
21
-43.9067
0
LINE
8
BLACK
6
CONTINUOUS
10
288.412
20
-43.9067
11
288.412
21
-43.9067
0
LINE
8
BLACK
6
CONTINUOUS
10
288.412
20
-43.9067
11
288.393
21
-43.9042
0
LINE
8
BLACK
6
CONTINUOUS
10
288.393
20
-43.9042
11
288.382
21
-43.889
0
LINE
8
BLACK
6
CONTINUOUS
10
288.382
20
-43.889
11
284.758
21
-30.3661
0
LINE
8
BLACK
6
CONTINUOUS
10
284.758
20
-30.3661
11
284.761
21
-30.3471
0
LINE
8
BLACK
6
CONTINUOUS
10
284.761
20
-30.3471
11
284.776
21
-30.3354
0
LINE
8
BLACK
6
CONTINUOUS
10
284.776
20
-30.3354
11
298.299
21
-26.712
0
LINE
8
BLACK
6
CONTINUOUS
10
284.813
20
-30.3773
11
288.424
21
-43.8519
0
LINE
8
BLACK
6
CONTINUOUS
10
288.424
20
-43.8519
11
301.898
21
-40.2414
0
LINE
8
BLACK
6
CONTINUOUS
10
301.898
20
-40.2414
11
298.288
21
-26.7667
0
LINE
8
BLACK
6
CONTINUOUS
10
298.288
20
-26.7667
11
284.813
21
-30.3773
0
LINE
8
BLACK
6
CONTINUOUS
10
196.01
20
-41.155
11
196.028
21
-41.1623
0
LINE
8
BLACK
6
CONTINUOUS
10
196.028
20
-41.1623
11
196.035
21
-41.18
0
LINE
8
BLACK
6
CONTINUOUS
10
196.035
20
-41.18
11
196.035
21
-42.1
0
LINE
8
BLACK
6
CONTINUOUS
10
196.035
20
-42.1
11
196.028
21
-42.1177
0
LINE
8
BLACK
6
CONTINUOUS
10
196.028
20
-42.1177
11
196.01
21
-42.125
0
LINE
8
BLACK
6
CONTINUOUS
10
196.01
20
-42.125
11
194.19
21
-42.125
0
LINE
8
BLACK
6
CONTINUOUS
10
194.19
20
-42.125
11
194.172
21
-42.1177
0
LINE
8
BLACK
6
CONTINUOUS
10
194.172
20
-42.1177
11
194.165
21
-42.1
0
LINE
8
BLACK
6
CONTINUOUS
10
194.165
20
-42.1
11
194.165
21
-41.18
0
LINE
8
BLACK
6
CONTINUOUS
10
194.165
20
-41.18
11
194.172
21
-41.1623
0
LINE
8
BLACK
6
CONTINUOUS
10
194.172
20
-41.1623
11
194.19
21
-41.155
0
LINE
8
BLACK
6
CONTINUOUS
10
194.19
20
-41.155
11
196.01
21
-41.155
0
LINE
8
BLACK
6
CONTINUOUS
10
194.215
20
-41.205
11
194.215
21
-42.075
0
LINE
8
BLACK
6
CONTINUOUS
10
194.215
20
-42.075
11
195.985
21
-42.075
0
LINE
8
BLACK
6
CONTINUOUS
10
195.985
20
-42.075
11
195.985
21
-41.205
0
LINE
8
BLACK
6
CONTINUOUS
10
195.985
20
-41.205
11
194.215
21
-41.205
0
LINE
8
BLACK
6
CONTINUOUS
10
209.98
20
-35.105
11
209.998
21
-35.1123
0
LINE
8
BLACK
6
CONTINUOUS
10
209.998
20
-35.1123
11
210.005
21
-35.13
0
LINE
8
BLACK
6
CONTINUOUS
10
210.005
20
-35.13
11
210.005
21
-39.83
0
LINE
8
BLACK
6
CONTINUOUS
10
210.005
20
-39.83
11
209.998
21
-39.8477
0
LINE
8
BLACK
6
CONTINUOUS
10
209.998
20
-39.8477
11
209.98
21
-39.855
0
LINE
8
BLACK
6
CONTINUOUS
10
209.98
20
-39.855
11
207.68
21
-39.855
0
LINE
8
BLACK
6
CONTINUOUS
10
207.68
20
-39.855
11
207.662
21
-39.8477
0
LINE
8
BLACK
6
CONTINUOUS
10
207.662
20
-39.8477
11
207.655
21
-39.83
0
LINE
8
BLACK
6
CONTINUOUS
10
207.655
20
-39.83
11
207.655
21
-35.13
0
LINE
8
BLACK
6
CONTINUOUS
10
207.655
20
-35.13
11
207.662
21
-35.1123
0
LINE
8
BLACK
6
CONTINUOUS
10
207.662
20
-35.1123
11
207.68
21
-35.105
0
LINE
8
BLACK
6
CONTINUOUS
10
207.68
20
-35.105
11
209.98
21
-35.105
0
LINE
8
BLACK
6
CONTINUOUS
10
207.705
20
-35.155
11
207.705
21
-39.805
0
LINE
8
BLACK
6
CONTINUOUS
10
207.705
20
-39.805
11
209.955
21
-39.805
0
LINE
8
BLACK
6
CONTINUOUS
10
209.955
20
-39.805
11
209.955
21
-35.155
0
LINE
8
BLACK
6
CONTINUOUS
10
209.955
20
-35.155
11
207.705
21
-35.155
0
LINE
8
BLACK
6
CONTINUOUS
10
200.28
20
-35.275
11
200.298
21
-35.2823
0
LINE
8
BLACK
6
CONTINUOUS
10
200.298
20
-35.2823
11
200.305
21
-35.3
0
LINE
8
BLACK
6
CONTINUOUS
10
200.305
20
-35.3
11
200.305
21
-39.4
0
LINE
8
BLACK
6
CONTINUOUS
10
200.305
20
-39.4
11
200.298
21
-39.4177
0
LINE
8
BLACK
6
CONTINUOUS
10
200.298
20
-39.4177
11
200.28
21
-39.425
0
LINE
8
BLACK
6
CONTINUOUS
10
200.28
20
-39.425
11
196.88
21
-39.425
0
LINE
8
BLACK
6
CONTINUOUS
10
196.88
20
-39.425
11
196.862
21
-39.4177
0
LINE
8
BLACK
6
CONTINUOUS
10
196.862
20
-39.4177
11
196.855
21
-39.4
0
LINE
8
BLACK
6
CONTINUOUS
10
196.855
20
-39.4
11
196.855
21
-35.3
0
LINE
8
BLACK
6
CONTINUOUS
10
196.855
20
-35.3
11
196.862
21
-35.2823
0
LINE
8
BLACK
6
CONTINUOUS
10
196.862
20
-35.2823
11
196.88
21
-35.275
0
LINE
8
BLACK
6
CONTINUOUS
10
196.88
20
-35.275
11
200.28
21
-35.275
0
LINE
8
BLACK
6
CONTINUOUS
10
196.905
20
-35.325
11
196.905
21
-39.375
0
LINE
8
BLACK
6
CONTINUOUS
10
196.905
20
-39.375
11
200.255
21
-39.375
0
LINE
8
BLACK
6
CONTINUOUS
10
200.255
20
-39.375
11
200.255
21
-35.325
0
LINE
8
BLACK
6
CONTINUOUS
10
200.255
20
-35.325
11
196.905
21
-35.325
0
LINE
8
BLACK
6
CONTINUOUS
10
203.81
20
-38.095
11
203.828
21
-38.1023
0
LINE
8
BLACK
6
CONTINUOUS
10
203.828
20
-38.1023
11
203.835
21
-38.12
0
LINE
8
BLACK
6
CONTINUOUS
10
203.835
20
-38.12
11
203.835
21
-39.04
0
LINE
8
BLACK
6
CONTINUOUS
10
203.835
20
-39.04
11
203.828
21
-39.0577
0
LINE
8
BLACK
6
CONTINUOUS
10
203.828
20
-39.0577
11
203.81
21
-39.065
0
LINE
8
BLACK
6
CONTINUOUS
10
203.81
20
-39.065
11
201.99
21
-39.065
0
LINE
8
BLACK
6
CONTINUOUS
10
201.99
20
-39.065
11
201.972
21
-39.0577
0
LINE
8
BLACK
6
CONTINUOUS
10
201.972
20
-39.0577
11
201.965
21
-39.04
0
LINE
8
BLACK
6
CONTINUOUS
10
201.965
20
-39.04
11
201.965
21
-38.12
0
LINE
8
BLACK
6
CONTINUOUS
10
201.965
20
-38.12
11
201.972
21
-38.1023
0
LINE
8
BLACK
6
CONTINUOUS
10
201.972
20
-38.1023
11
201.99
21
-38.095
0
LINE
8
BLACK
6
CONTINUOUS
10
201.99
20
-38.095
11
203.81
21
-38.095
0
LINE
8
BLACK
6
CONTINUOUS
10
202.015
20
-38.145
11
202.015
21
-39.015
0
LINE
8
BLACK
6
CONTINUOUS
10
202.015
20
-39.015
11
203.785
21
-39.015
0
LINE
8
BLACK
6
CONTINUOUS
10
203.785
20
-39.015
11
203.785
21
-38.145
0
LINE
8
BLACK
6
CONTINUOUS
10
203.785
20
-38.145
11
202.015
21
-38.145
0
LINE
8
BLACK
6
CONTINUOUS
10
205.99
20
-34.315
11
206.008
21
-34.3223
0
LINE
8
BLACK
6
CONTINUOUS
10
206.008
20
-34.3223
11
206.015
21
-34.34
0
LINE
8
BLACK
6
CONTINUOUS
10
206.015
20
-34.34
11
206.015
21
-36.58
0
LINE
8
BLACK
6
CONTINUOUS
10
206.015
20
-36.58
11
206.008
21
-36.5977
0
LINE
8
BLACK
6
CONTINUOUS
10
206.008
20
-36.5977
11
205.99
21
-36.605
0
LINE
8
BLACK
6
CONTINUOUS
10
205.99
20
-36.605
11
201.43
21
-36.605
0
LINE
8
BLACK
6
CONTINUOUS
10
201.43
20
-36.605
11
201.412
21
-36.5977
0
LINE
8
BLACK
6
CONTINUOUS
10
201.412
20
-36.5977
11
201.405
21
-36.58
0
LINE
8
BLACK
6
CONTINUOUS
10
201.405
20
-36.58
11
201.405
21
-34.34
0
LINE
8
BLACK
6
CONTINUOUS
10
201.405
20
-34.34
11
201.412
21
-34.3223
0
LINE
8
BLACK
6
CONTINUOUS
10
201.412
20
-34.3223
11
201.43
21
-34.315
0
LINE
8
BLACK
6
CONTINUOUS
10
201.43
20
-34.315
11
205.99
21
-34.315
0
LINE
8
BLACK
6
CONTINUOUS
10
201.455
20
-34.365
11
201.455
21
-36.555
0
LINE
8
BLACK
6
CONTINUOUS
10
201.455
20
-36.555
11
205.965
21
-36.555
0
LINE
8
BLACK
6
CONTINUOUS
10
205.965
20
-36.555
11
205.965
21
-34.365
0
LINE
8
BLACK
6
CONTINUOUS
10
205.965
20
-34.365
11
201.455
21
-34.365
0
LINE
8
BLACK
6
CONTINUOUS
10
218.115
20
-34.24
11
218.135
21
-33.9438
0
LINE
8
BLACK
6
CONTINUOUS
10
218.135
20
-33.9438
11
218.196
21
-33.6532
0
LINE
8
BLACK
6
CONTINUOUS
10
218.196
20
-33.6532
11
218.295
21
-33.3735
0
LINE
8
BLACK
6
CONTINUOUS
10
218.295
20
-33.3735
11
218.432
21
-33.1099
0
LINE
8
BLACK
6
CONTINUOUS
10
218.432
20
-33.1099
11
218.603
21
-32.8674
0
LINE
8
BLACK
6
CONTINUOUS
10
218.603
20
-32.8674
11
218.805
21
-32.6504
0
LINE
8
BLACK
6
CONTINUOUS
10
218.805
20
-32.6504
11
219.036
21
-32.4631
0
LINE
8
BLACK
6
CONTINUOUS
10
219.036
20
-32.4631
11
219.289
21
-32.3088
0
LINE
8
BLACK
6
CONTINUOUS
10
219.289
20
-32.3088
11
219.562
21
-32.1906
0
LINE
8
BLACK
6
CONTINUOUS
10
219.562
20
-32.1906
11
219.847
21
-32.1105
0
LINE
8
BLACK
6
CONTINUOUS
10
219.847
20
-32.1105
11
220.142
21
-32.0701
0
LINE
8
BLACK
6
CONTINUOUS
10
220.142
20
-32.0701
11
220.438
21
-32.0701
0
LINE
8
BLACK
6
CONTINUOUS
10
220.438
20
-32.0701
11
220.733
21
-32.1105
0
LINE
8
BLACK
6
CONTINUOUS
10
220.733
20
-32.1105
11
221.018
21
-32.1906
0
LINE
8
BLACK
6
CONTINUOUS
10
221.018
20
-32.1906
11
221.291
21
-32.3088
0
LINE
8
BLACK
6
CONTINUOUS
10
221.291
20
-32.3088
11
221.544
21
-32.4631
0
LINE
8
BLACK
6
CONTINUOUS
10
221.544
20
-32.4631
11
221.775
21
-32.6504
0
LINE
8
BLACK
6
CONTINUOUS
10
221.775
20
-32.6504
11
221.977
21
-32.8674
0
LINE
8
BLACK
6
CONTINUOUS
10
221.977
20
-32.8674
11
222.148
21
-33.1099
0
LINE
8
BLACK
6
CONTINUOUS
10
222.148
20
-33.1099
11
222.285
21
-33.3735
0
LINE
8
BLACK
6
CONTINUOUS
10
222.285
20
-33.3735
11
222.384
21
-33.6532
0
LINE
8
BLACK
6
CONTINUOUS
10
222.384
20
-33.6532
11
222.445
21
-33.9438
0
LINE
8
BLACK
6
CONTINUOUS
10
222.445
20
-33.9438
11
222.465
21
-34.24
0
LINE
8
BLACK
6
CONTINUOUS
10
222.465
20
-34.24
11
222.445
21
-34.5362
0
LINE
8
BLACK
6
CONTINUOUS
10
222.445
20
-34.5362
11
222.384
21
-34.8268
0
LINE
8
BLACK
6
CONTINUOUS
10
222.384
20
-34.8268
11
222.285
21
-35.1065
0
LINE
8
BLACK
6
CONTINUOUS
10
222.285
20
-35.1065
11
222.148
21
-35.3701
0
LINE
8
BLACK
6
CONTINUOUS
10
222.148
20
-35.3701
11
221.977
21
-35.6126
0
LINE
8
BLACK
6
CONTINUOUS
10
221.977
20
-35.6126
11
221.775
21
-35.8296
0
LINE
8
BLACK
6
CONTINUOUS
10
221.775
20
-35.8296
11
221.544
21
-36.0169
0
LINE
8
BLACK
6
CONTINUOUS
10
221.544
20
-36.0169
11
221.291
21
-36.1711
0
LINE
8
BLACK
6
CONTINUOUS
10
221.291
20
-36.1711
11
221.018
21
-36.2894
0
LINE
8
BLACK
6
CONTINUOUS
10
221.018
20
-36.2894
11
220.733
21
-36.3695
0
LINE
8
BLACK
6
CONTINUOUS
10
220.733
20
-36.3695
11
220.438
21
-36.4099
0
LINE
8
BLACK
6
CONTINUOUS
10
220.438
20
-36.4099
11
220.142
21
-36.4099
0
LINE
8
BLACK
6
CONTINUOUS
10
220.142
20
-36.4099
11
219.847
21
-36.3695
0
LINE
8
BLACK
6
CONTINUOUS
10
219.847
20
-36.3695
11
219.562
21
-36.2894
0
LINE
8
BLACK
6
CONTINUOUS
10
219.562
20
-36.2894
11
219.289
21
-36.1711
0
LINE
8
BLACK
6
CONTINUOUS
10
219.289
20
-36.1711
11
219.036
21
-36.0169
0
LINE
8
BLACK
6
CONTINUOUS
10
219.036
20
-36.0169
11
218.805
21
-35.8296
0
LINE
8
BLACK
6
CONTINUOUS
10
218.805
20
-35.8296
11
218.603
21
-35.6126
0
LINE
8
BLACK
6
CONTINUOUS
10
218.603
20
-35.6126
11
218.432
21
-35.3701
0
LINE
8
BLACK
6
CONTINUOUS
10
218.432
20
-35.3701
11
218.295
21
-35.1065
0
LINE
8
BLACK
6
CONTINUOUS
10
218.295
20
-35.1065
11
218.196
21
-34.8268
0
LINE
8
BLACK
6
CONTINUOUS
10
218.196
20
-34.8268
11
218.135
21
-34.5362
0
LINE
8
BLACK
6
CONTINUOUS
10
218.135
20
-34.5362
11
218.115
21
-34.24
0
LINE
8
BLACK
6
CONTINUOUS
10
218.16
20
-34.24
11
218.18
21
-34.53
0
LINE
8
BLACK
6
CONTINUOUS
10
218.18
20
-34.53
11
218.239
21
-34.8147
0
LINE
8
BLACK
6
CONTINUOUS
10
218.239
20
-34.8147
11
218.336
21
-35.0886
0
LINE
8
BLACK
6
CONTINUOUS
10
218.336
20
-35.0886
11
218.47
21
-35.3467
0
LINE
8
BLACK
6
CONTINUOUS
10
218.47
20
-35.3467
11
218.638
21
-35.5842
0
LINE
8
BLACK
6
CONTINUOUS
10
218.638
20
-35.5842
11
218.836
21
-35.7967
0
LINE
8
BLACK
6
CONTINUOUS
10
218.836
20
-35.7967
11
219.062
21
-35.9801
0
LINE
8
BLACK
6
CONTINUOUS
10
219.062
20
-35.9801
11
219.31
21
-36.1312
0
LINE
8
BLACK
6
CONTINUOUS
10
219.31
20
-36.1312
11
219.577
21
-36.247
0
LINE
8
BLACK
6
CONTINUOUS
10
219.577
20
-36.247
11
219.857
21
-36.3254
0
LINE
8
BLACK
6
CONTINUOUS
10
219.857
20
-36.3254
11
220.145
21
-36.365
0
LINE
8
BLACK
6
CONTINUOUS
10
220.145
20
-36.365
11
220.435
21
-36.365
0
LINE
8
BLACK
6
CONTINUOUS
10
220.435
20
-36.365
11
220.723
21
-36.3254
0
LINE
8
BLACK
6
CONTINUOUS
10
220.723
20
-36.3254
11
221.003
21
-36.247
0
LINE
8
BLACK
6
CONTINUOUS
10
221.003
20
-36.247
11
221.27
21
-36.1312
0
LINE
8
BLACK
6
CONTINUOUS
10
221.27
20
-36.1312
11
221.518
21
-35.9801
0
LINE
8
BLACK
6
CONTINUOUS
10
221.518
20
-35.9801
11
221.744
21
-35.7967
0
LINE
8
BLACK
6
CONTINUOUS
10
221.744
20
-35.7967
11
221.942
21
-35.5842
0
LINE
8
BLACK
6
CONTINUOUS
10
221.942
20
-35.5842
11
222.11
21
-35.3467
0
LINE
8
BLACK
6
CONTINUOUS
10
222.11
20
-35.3467
11
222.244
21
-35.0886
0
LINE
8
BLACK
6
CONTINUOUS
10
222.244
20
-35.0886
11
222.341
21
-34.8147
0
LINE
8
BLACK
6
CONTINUOUS
10
222.341
20
-34.8147
11
222.4
21
-34.53
0
LINE
8
BLACK
6
CONTINUOUS
10
222.4
20
-34.53
11
222.42
21
-34.24
0
LINE
8
BLACK
6
CONTINUOUS
10
222.42
20
-34.24
11
222.4
21
-33.95
0
LINE
8
BLACK
6
CONTINUOUS
10
222.4
20
-33.95
11
222.341
21
-33.6653
0
LINE
8
BLACK
6
CONTINUOUS
10
222.341
20
-33.6653
11
222.244
21
-33.3914
0
LINE
8
BLACK
6
CONTINUOUS
10
222.244
20
-33.3914
11
222.11
21
-33.1333
0
LINE
8
BLACK
6
CONTINUOUS
10
222.11
20
-33.1333
11
221.942
21
-32.8958
0
LINE
8
BLACK
6
CONTINUOUS
10
221.942
20
-32.8958
11
221.744
21
-32.6833
0
LINE
8
BLACK
6
CONTINUOUS
10
221.744
20
-32.6833
11
221.518
21
-32.4999
0
LINE
8
BLACK
6
CONTINUOUS
10
221.518
20
-32.4999
11
221.27
21
-32.3488
0
LINE
8
BLACK
6
CONTINUOUS
10
221.27
20
-32.3488
11
221.003
21
-32.233
0
LINE
8
BLACK
6
CONTINUOUS
10
221.003
20
-32.233
11
220.723
21
-32.1546
0
LINE
8
BLACK
6
CONTINUOUS
10
220.723
20
-32.1546
11
220.435
21
-32.115
0
LINE
8
BLACK
6
CONTINUOUS
10
220.435
20
-32.115
11
220.145
21
-32.115
0
LINE
8
BLACK
6
CONTINUOUS
10
220.145
20
-32.115
11
219.857
21
-32.1546
0
LINE
8
BLACK
6
CONTINUOUS
10
219.857
20
-32.1546
11
219.577
21
-32.233
0
LINE
8
BLACK
6
CONTINUOUS
10
219.577
20
-32.233
11
219.31
21
-32.3488
0
LINE
8
BLACK
6
CONTINUOUS
10
219.31
20
-32.3488
11
219.062
21
-32.4999
0
LINE
8
BLACK
6
CONTINUOUS
10
219.062
20
-32.4999
11
218.836
21
-32.6833
0
LINE
8
BLACK
6
CONTINUOUS
10
218.836
20
-32.6833
11
218.638
21
-32.8958
0
LINE
8
BLACK
6
CONTINUOUS
10
218.638
20
-32.8958
11
218.47
21
-33.1333
0
LINE
8
BLACK
6
CONTINUOUS
10
218.47
20
-33.1333
11
218.336
21
-33.3914
0
LINE
8
BLACK
6
CONTINUOUS
10
218.336
20
-33.3914
11
218.239
21
-33.6653
0
LINE
8
BLACK
6
CONTINUOUS
10
218.239
20
-33.6653
11
218.18
21
-33.95
0
LINE
8
BLACK
6
CONTINUOUS
10
218.18
20
-33.95
11
218.16
21
-34.24
0
LINE
8
BLACK
6
CONTINUOUS
10
174.925
20
-34.24
11
174.945
21
-33.9438
0
LINE
8
BLACK
6
CONTINUOUS
10
174.945
20
-33.9438
11
175.006
21
-33.6532
0
LINE
8
BLACK
6
CONTINUOUS
10
175.006
20
-33.6532
11
175.105
21
-33.3735
0
LINE
8
BLACK
6
CONTINUOUS
10
175.105
20
-33.3735
11
175.242
21
-33.1099
0
LINE
8
BLACK
6
CONTINUOUS
10
175.242
20
-33.1099
11
175.413
21
-32.8674
0
LINE
8
BLACK
6
CONTINUOUS
10
175.413
20
-32.8674
11
175.615
21
-32.6504
0
LINE
8
BLACK
6
CONTINUOUS
10
175.615
20
-32.6504
11
175.846
21
-32.4631
0
LINE
8
BLACK
6
CONTINUOUS
10
175.846
20
-32.4631
11
176.099
21
-32.3088
0
LINE
8
BLACK
6
CONTINUOUS
10
176.099
20
-32.3088
11
176.372
21
-32.1906
0
LINE
8
BLACK
6
CONTINUOUS
10
176.372
20
-32.1906
11
176.657
21
-32.1105
0
LINE
8
BLACK
6
CONTINUOUS
10
176.657
20
-32.1105
11
176.952
21
-32.0701
0
LINE
8
BLACK
6
CONTINUOUS
10
176.952
20
-32.0701
11
177.248
21
-32.0701
0
LINE
8
BLACK
6
CONTINUOUS
10
177.248
20
-32.0701
11
177.543
21
-32.1105
0
LINE
8
BLACK
6
CONTINUOUS
10
177.543
20
-32.1105
11
177.828
21
-32.1906
0
LINE
8
BLACK
6
CONTINUOUS
10
177.828
20
-32.1906
11
178.101
21
-32.3088
0
LINE
8
BLACK
6
CONTINUOUS
10
178.101
20
-32.3088
11
178.354
21
-32.4631
0
LINE
8
BLACK
6
CONTINUOUS
10
178.354
20
-32.4631
11
178.585
21
-32.6504
0
LINE
8
BLACK
6
CONTINUOUS
10
178.585
20
-32.6504
11
178.787
21
-32.8674
0
LINE
8
BLACK
6
CONTINUOUS
10
178.787
20
-32.8674
11
178.958
21
-33.1099
0
LINE
8
BLACK
6
CONTINUOUS
10
178.958
20
-33.1099
11
179.095
21
-33.3735
0
LINE
8
BLACK
6
CONTINUOUS
10
179.095
20
-33.3735
11
179.194
21
-33.6532
0
LINE
8
BLACK
6
CONTINUOUS
10
179.194
20
-33.6532
11
179.255
21
-33.9438
0
LINE
8
BLACK
6
CONTINUOUS
10
179.255
20
-33.9438
11
179.275
21
-34.24
0
LINE
8
BLACK
6
CONTINUOUS
10
179.275
20
-34.24
11
179.255
21
-34.5362
0
LINE
8
BLACK
6
CONTINUOUS
10
179.255
20
-34.5362
11
179.194
21
-34.8268
0
LINE
8
BLACK
6
CONTINUOUS
10
179.194
20
-34.8268
11
179.095
21
-35.1065
0
LINE
8
BLACK
6
CONTINUOUS
10
179.095
20
-35.1065
11
178.958
21
-35.3701
0
LINE
8
BLACK
6
CONTINUOUS
10
178.958
20
-35.3701
11
178.787
21
-35.6126
0
LINE
8
BLACK
6
CONTINUOUS
10
178.787
20
-35.6126
11
178.585
21
-35.8296
0
LINE
8
BLACK
6
CONTINUOUS
10
178.585
20
-35.8296
11
178.354
21
-36.0169
0
LINE
8
BLACK
6
CONTINUOUS
10
178.354
20
-36.0169
11
178.101
21
-36.1711
0
LINE
8
BLACK
6
CONTINUOUS
10
178.101
20
-36.1711
11
177.828
21
-36.2894
0
LINE
8
BLACK
6
CONTINUOUS
10
177.828
20
-36.2894
11
177.543
21
-36.3695
0
LINE
8
BLACK
6
CONTINUOUS
10
177.543
20
-36.3695
11
177.248
21
-36.4099
0
LINE
8
BLACK
6
CONTINUOUS
10
177.248
20
-36.4099
11
176.952
21
-36.4099
0
LINE
8
BLACK
6
CONTINUOUS
10
176.952
20
-36.4099
11
176.657
21
-36.3695
0
LINE
8
BLACK
6
CONTINUOUS
10
176.657
20
-36.3695
11
176.372
21
-36.2894
0
LINE
8
BLACK
6
CONTINUOUS
10
176.372
20
-36.2894
11
176.099
21
-36.1711
0
LINE
8
BLACK
6
CONTINUOUS
10
176.099
20
-36.1711
11
175.846
21
-36.0169
0
LINE
8
BLACK
6
CONTINUOUS
10
175.846
20
-36.0169
11
175.615
21
-35.8296
0
LINE
8
BLACK
6
CONTINUOUS
10
175.615
20
-35.8296
11
175.413
21
-35.6126
0
LINE
8
BLACK
6
CONTINUOUS
10
175.413
20
-35.6126
11
175.242
21
-35.3701
0
LINE
8
BLACK
6
CONTINUOUS
10
175.242
20
-35.3701
11
175.105
21
-35.1065
0
LINE
8
BLACK
6
CONTINUOUS
10
175.105
20
-35.1065
11
175.006
21
-34.8268
0
LINE
8
BLACK
6
CONTINUOUS
10
175.006
20
-34.8268
11
174.945
21
-34.5362
0
LINE
8
BLACK
6
CONTINUOUS
10
174.945
20
-34.5362
11
174.925
21
-34.24
0
LINE
8
BLACK
6
CONTINUOUS
10
174.97
20
-34.24
11
174.99
21
-34.53
0
LINE
8
BLACK
6
CONTINUOUS
10
174.99
20
-34.53
11
175.049
21
-34.8147
0
LINE
8
BLACK
6
CONTINUOUS
10
175.049
20
-34.8147
11
175.146
21
-35.0886
0
LINE
8
BLACK
6
CONTINUOUS
10
175.146
20
-35.0886
11
175.28
21
-35.3467
0
LINE
8
BLACK
6
CONTINUOUS
10
175.28
20
-35.3467
11
175.448
21
-35.5842
0
LINE
8
BLACK
6
CONTINUOUS
10
175.448
20
-35.5842
11
175.646
21
-35.7967
0
LINE
8
BLACK
6
CONTINUOUS
10
175.646
20
-35.7967
11
175.872
21
-35.9801
0
LINE
8
BLACK
6
CONTINUOUS
10
175.872
20
-35.9801
11
176.12
21
-36.1312
0
LINE
8
BLACK
6
CONTINUOUS
10
176.12
20
-36.1312
11
176.387
21
-36.247
0
LINE
8
BLACK
6
CONTINUOUS
10
176.387
20
-36.247
11
176.667
21
-36.3254
0
LINE
8
BLACK
6
CONTINUOUS
10
176.667
20
-36.3254
11
176.955
21
-36.365
0
LINE
8
BLACK
6
CONTINUOUS
10
176.955
20
-36.365
11
177.245
21
-36.365
0
LINE
8
BLACK
6
CONTINUOUS
10
177.245
20
-36.365
11
177.533
21
-36.3254
0
LINE
8
BLACK
6
CONTINUOUS
10
177.533
20
-36.3254
11
177.813
21
-36.247
0
LINE
8
BLACK
6
CONTINUOUS
10
177.813
20
-36.247
11
178.08
21
-36.1312
0
LINE
8
BLACK
6
CONTINUOUS
10
178.08
20
-36.1312
11
178.328
21
-35.9801
0
LINE
8
BLACK
6
CONTINUOUS
10
178.328
20
-35.9801
11
178.554
21
-35.7967
0
LINE
8
BLACK
6
CONTINUOUS
10
178.554
20
-35.7967
11
178.752
21
-35.5842
0
LINE
8
BLACK
6
CONTINUOUS
10
178.752
20
-35.5842
11
178.92
21
-35.3467
0
LINE
8
BLACK
6
CONTINUOUS
10
178.92
20
-35.3467
11
179.054
21
-35.0886
0
LINE
8
BLACK
6
CONTINUOUS
10
179.054
20
-35.0886
11
179.151
21
-34.8147
0
LINE
8
BLACK
6
CONTINUOUS
10
179.151
20
-34.8147
11
179.21
21
-34.53
0
LINE
8
BLACK
6
CONTINUOUS
10
179.21
20
-34.53
11
179.23
21
-34.24
0
LINE
8
BLACK
6
CONTINUOUS
10
179.23
20
-34.24
11
179.21
21
-33.95
0
LINE
8
BLACK
6
CONTINUOUS
10
179.21
20
-33.95
11
179.151
21
-33.6653
0
LINE
8
BLACK
6
CONTINUOUS
10
179.151
20
-33.6653
11
179.054
21
-33.3914
0
LINE
8
BLACK
6
CONTINUOUS
10
179.054
20
-33.3914
11
178.92
21
-33.1333
0
LINE
8
BLACK
6
CONTINUOUS
10
178.92
20
-33.1333
11
178.752
21
-32.8958
0
LINE
8
BLACK
6
CONTINUOUS
10
178.752
20
-32.8958
11
178.554
21
-32.6833
0
LINE
8
BLACK
6
CONTINUOUS
10
178.554
20
-32.6833
11
178.328
21
-32.4999
0
LINE
8
BLACK
6
CONTINUOUS
10
178.328
20
-32.4999
11
178.08
21
-32.3488
0
LINE
8
BLACK
6
CONTINUOUS
10
178.08
20
-32.3488
11
177.813
21
-32.233
0
LINE
8
BLACK
6
CONTINUOUS
10
177.813
20
-32.233
11
177.533
21
-32.1546
0
LINE
8
BLACK
6
CONTINUOUS
10
177.533
20
-32.1546
11
177.245
21
-32.115
0
LINE
8
BLACK
6
CONTINUOUS
10
177.245
20
-32.115
11
176.955
21
-32.115
0
LINE
8
BLACK
6
CONTINUOUS
10
176.955
20
-32.115
11
176.667
21
-32.1546
0
LINE
8
BLACK
6
CONTINUOUS
10
176.667
20
-32.1546
11
176.387
21
-32.233
0
LINE
8
BLACK
6
CONTINUOUS
10
176.387
20
-32.233
11
176.12
21
-32.3488
0
LINE
8
BLACK
6
CONTINUOUS
10
176.12
20
-32.3488
11
175.872
21
-32.4999
0
LINE
8
BLACK
6
CONTINUOUS
10
175.872
20
-32.4999
11
175.646
21
-32.6833
0
LINE
8
BLACK
6
CONTINUOUS
10
175.646
20
-32.6833
11
175.448
21
-32.8958
0
LINE
8
BLACK
6
CONTINUOUS
10
175.448
20
-32.8958
11
175.28
21
-33.1333
0
LINE
8
BLACK
6
CONTINUOUS
10
175.28
20
-33.1333
11
175.146
21
-33.3914
0
LINE
8
BLACK
6
CONTINUOUS
10
175.146
20
-33.3914
11
175.049
21
-33.6653
0
LINE
8
BLACK
6
CONTINUOUS
10
175.049
20
-33.6653
11
174.99
21
-33.95
0
LINE
8
BLACK
6
CONTINUOUS
10
174.99
20
-33.95
11
174.97
21
-34.24
0
LINE
8
BLACK
6
CONTINUOUS
10
195.36
20
-34.735
11
195.378
21
-34.7423
0
LINE
8
BLACK
6
CONTINUOUS
10
195.378
20
-34.7423
11
195.385
21
-34.76
0
LINE
8
BLACK
6
CONTINUOUS
10
195.385
20
-34.76
11
195.385
21
-35.7
0
LINE
8
BLACK
6
CONTINUOUS
10
195.385
20
-35.7
11
195.378
21
-35.7177
0
LINE
8
BLACK
6
CONTINUOUS
10
195.378
20
-35.7177
11
195.36
21
-35.725
0
LINE
8
BLACK
6
CONTINUOUS
10
195.36
20
-35.725
11
193.5
21
-35.725
0
LINE
8
BLACK
6
CONTINUOUS
10
193.5
20
-35.725
11
193.482
21
-35.7177
0
LINE
8
BLACK
6
CONTINUOUS
10
193.482
20
-35.7177
11
193.475
21
-35.7
0
LINE
8
BLACK
6
CONTINUOUS
10
193.475
20
-35.7
11
193.475
21
-34.76
0
LINE
8
BLACK
6
CONTINUOUS
10
193.475
20
-34.76
11
193.482
21
-34.7423
0
LINE
8
BLACK
6
CONTINUOUS
10
193.482
20
-34.7423
11
193.5
21
-34.735
0
LINE
8
BLACK
6
CONTINUOUS
10
193.5
20
-34.735
11
195.36
21
-34.735
0
LINE
8
BLACK
6
CONTINUOUS
10
193.525
20
-34.785
11
193.525
21
-35.675
0
LINE
8
BLACK
6
CONTINUOUS
10
193.525
20
-35.675
11
195.335
21
-35.675
0
LINE
8
BLACK
6
CONTINUOUS
10
195.335
20
-35.675
11
195.335
21
-34.785
0
LINE
8
BLACK
6
CONTINUOUS
10
195.335
20
-34.785
11
193.525
21
-34.785
0
LINE
8
BLACK
6
CONTINUOUS
10
204.069
20
-23.185
11
204.086
21
-23.1923
0
LINE
8
BLACK
6
CONTINUOUS
10
204.086
20
-23.1923
11
204.093
21
-23.21
0
LINE
8
BLACK
6
CONTINUOUS
10
204.093
20
-23.21
11
204.093
21
-34.22
0
LINE
8
BLACK
6
CONTINUOUS
10
204.093
20
-34.22
11
204.086
21
-34.2377
0
LINE
8
BLACK
6
CONTINUOUS
10
204.086
20
-34.2377
11
204.069
21
-34.245
0
LINE
8
BLACK
6
CONTINUOUS
10
204.069
20
-34.245
11
193.088
21
-34.245
0
LINE
8
BLACK
6
CONTINUOUS
10
193.088
20
-34.245
11
193.071
21
-34.2377
0
LINE
8
BLACK
6
CONTINUOUS
10
193.071
20
-34.2377
11
193.064
21
-34.22
0
LINE
8
BLACK
6
CONTINUOUS
10
193.064
20
-34.22
11
193.064
21
-23.21
0
LINE
8
BLACK
6
CONTINUOUS
10
193.064
20
-23.21
11
193.071
21
-23.1923
0
LINE
8
BLACK
6
CONTINUOUS
10
193.071
20
-23.1923
11
193.088
21
-23.185
0
LINE
8
BLACK
6
CONTINUOUS
10
193.088
20
-23.185
11
204.069
21
-23.185
0
LINE
8
BLACK
6
CONTINUOUS
10
193.113
20
-23.235
11
193.113
21
-34.195
0
LINE
8
BLACK
6
CONTINUOUS
10
193.113
20
-34.195
11
204.043
21
-34.195
0
LINE
8
BLACK
6
CONTINUOUS
10
204.043
20
-34.195
11
204.043
21
-23.235
0
LINE
8
BLACK
6
CONTINUOUS
10
204.043
20
-23.235
11
193.113
21
-23.235
0
LINE
8
BLACK
6
CONTINUOUS
10
206.19
20
-32.075
11
206.208
21
-32.0823
0
LINE
8
BLACK
6
CONTINUOUS
10
206.208
20
-32.0823
11
206.215
21
-32.1
0
LINE
8
BLACK
6
CONTINUOUS
10
206.215
20
-32.1
11
206.215
21
-33.04
0
LINE
8
BLACK
6
CONTINUOUS
10
206.215
20
-33.04
11
206.208
21
-33.0577
0
LINE
8
BLACK
6
CONTINUOUS
10
206.208
20
-33.0577
11
206.19
21
-33.065
0
LINE
8
BLACK
6
CONTINUOUS
10
206.19
20
-33.065
11
204.33
21
-33.065
0
LINE
8
BLACK
6
CONTINUOUS
10
204.33
20
-33.065
11
204.312
21
-33.0577
0
LINE
8
BLACK
6
CONTINUOUS
10
204.312
20
-33.0577
11
204.305
21
-33.04
0
LINE
8
BLACK
6
CONTINUOUS
10
204.305
20
-33.04
11
204.305
21
-32.1
0
LINE
8
BLACK
6
CONTINUOUS
10
204.305
20
-32.1
11
204.312
21
-32.0823
0
LINE
8
BLACK
6
CONTINUOUS
10
204.312
20
-32.0823
11
204.33
21
-32.075
0
LINE
8
BLACK
6
CONTINUOUS
10
204.33
20
-32.075
11
206.19
21
-32.075
0
LINE
8
BLACK
6
CONTINUOUS
10
204.355
20
-32.125
11
204.355
21
-33.015
0
LINE
8
BLACK
6
CONTINUOUS
10
204.355
20
-33.015
11
206.165
21
-33.015
0
LINE
8
BLACK
6
CONTINUOUS
10
206.165
20
-33.015
11
206.165
21
-32.125
0
LINE
8
BLACK
6
CONTINUOUS
10
206.165
20
-32.125
11
204.355
21
-32.125
0
LINE
8
BLACK
6
CONTINUOUS
10
207.175
20
-25.965
11
207.193
21
-25.9723
0
LINE
8
BLACK
6
CONTINUOUS
10
207.193
20
-25.9723
11
207.2
21
-25.99
0
LINE
8
BLACK
6
CONTINUOUS
10
207.2
20
-25.99
11
207.2
21
-27.45
0
LINE
8
BLACK
6
CONTINUOUS
10
207.2
20
-27.45
11
207.193
21
-27.4677
0
LINE
8
BLACK
6
CONTINUOUS
10
207.193
20
-27.4677
11
207.175
21
-27.475
0
LINE
8
BLACK
6
CONTINUOUS
10
207.175
20
-27.475
11
204.215
21
-27.475
0
LINE
8
BLACK
6
CONTINUOUS
10
204.215
20
-27.475
11
204.197
21
-27.4677
0
LINE
8
BLACK
6
CONTINUOUS
10
204.197
20
-27.4677
11
204.19
21
-27.45
0
LINE
8
BLACK
6
CONTINUOUS
10
204.19
20
-27.45
11
204.19
21
-25.99
0
LINE
8
BLACK
6
CONTINUOUS
10
204.19
20
-25.99
11
204.197
21
-25.9723
0
LINE
8
BLACK
6
CONTINUOUS
10
204.197
20
-25.9723
11
204.215
21
-25.965
0
LINE
8
BLACK
6
CONTINUOUS
10
204.215
20
-25.965
11
207.175
21
-25.965
0
LINE
8
BLACK
6
CONTINUOUS
10
204.24
20
-26.015
11
204.24
21
-27.425
0
LINE
8
BLACK
6
CONTINUOUS
10
204.24
20
-27.425
11
207.15
21
-27.425
0
LINE
8
BLACK
6
CONTINUOUS
10
207.15
20
-27.425
11
207.15
21
-26.015
0
LINE
8
BLACK
6
CONTINUOUS
10
207.15
20
-26.015
11
204.24
21
-26.015
  0
ENDSEC
  0
EOF
