  0
SECTION
  2
HEADER
  9
$ANGBASE
  50
0.0
  9
$ANGDIR
  70
1
  9
$MEASUREMENT
  70
1
  0
ENDSEC
  0
SECTION
  2
TABLES
  0
TABLE
  2
LTYPE
  70
4
  0
LTYPE
  5
40F
  2
CONTINUOUS
  70
0
  3
Solid line
  72
65
  73
0
  40
0.0
  0
LTYPE
  5
410
  2
DASHDOT
 70
0
  3
Dash Dot ____ _ ____ _
 72
65
 73
4
 40
2.0
 49
1.25
 49
-0.25
 49
0.25
 49
-0.25
  0
LTYPE
  5
411
  2
DASHED
 70
0
  3
Dashed __ __ __ __ __
 72
65
 73
2
 40
0.75
 49
0.5
 49
-0.25
  0
LTYPE
  5
43B
  2
DOTTED
 70
0
  3
Dotted .  .  .  .
 72
65
 73
2
 40
0.2
 49
0.0
 49
-0.2
  0
ENDTAB
  0
TABLE
  2
STYLE
  70
4
  0
STYLE
  2
KICAD
  70
0
  40
0
  41
1
  42
1
  50
0
  71
0
  3
isocp.shx
  0
STYLE
  2
KICADB
  70
0
  40
0
  41
1
  42
1
  50
0
  71
0
  3
isocp.shx
  0
STYLE
  2
KICADI
  70
0
  40
0
  41
1
  42
1
  50
15
  71
0
  3
isocp.shx
  0
STYLE
  2
KICADBI
  70
0
  40
0
  41
1
  42
1
  50
15
  71
0
  3
isocp.shx
  0
ENDTAB
  0
TABLE
  2
LAYER
  70
1
  0
LAYER
  2
BLACK
  70
0
  62
7
  6
CONTINUOUS
  0
ENDTAB
  0
ENDSEC
  0
SECTION
  2
ENTITIES
0
LINE
8
BLACK
6
CONTINUOUS
10
328.81
20
-25.35
11
329.467
21
-25.3691
0
LINE
8
BLACK
6
CONTINUOUS
10
329.467
20
-25.3691
11
330.122
21
-25.4264
0
LINE
8
BLACK
6
CONTINUOUS
10
330.122
20
-25.4264
11
330.772
21
-25.5217
0
LINE
8
BLACK
6
CONTINUOUS
10
330.772
20
-25.5217
11
331.416
21
-25.6546
0
LINE
8
BLACK
6
CONTINUOUS
10
331.416
20
-25.6546
11
332.051
21
-25.8247
0
LINE
8
BLACK
6
CONTINUOUS
10
332.051
20
-25.8247
11
332.675
21
-26.0315
0
LINE
8
BLACK
6
CONTINUOUS
10
332.675
20
-26.0315
11
333.286
21
-26.2742
0
LINE
8
BLACK
6
CONTINUOUS
10
333.286
20
-26.2742
11
333.881
21
-26.552
0
LINE
8
BLACK
6
CONTINUOUS
10
333.881
20
-26.552
11
334.46
21
-26.8639
0
LINE
8
BLACK
6
CONTINUOUS
10
334.46
20
-26.8639
11
335.019
21
-27.209
0
LINE
8
BLACK
6
CONTINUOUS
10
335.019
20
-27.209
11
335.558
21
-27.586
0
LINE
8
BLACK
6
CONTINUOUS
10
335.558
20
-27.586
11
336.073
21
-27.9937
0
LINE
8
BLACK
6
CONTINUOUS
10
336.073
20
-27.9937
11
336.565
21
-28.4307
0
LINE
8
BLACK
6
CONTINUOUS
10
336.565
20
-28.4307
11
337.029
21
-28.8955
0
LINE
8
BLACK
6
CONTINUOUS
10
337.029
20
-28.8955
11
337.466
21
-29.3865
0
LINE
8
BLACK
6
CONTINUOUS
10
337.466
20
-29.3865
11
337.874
21
-29.9021
0
LINE
8
BLACK
6
CONTINUOUS
10
337.874
20
-29.9021
11
338.251
21
-30.4405
0
LINE
8
BLACK
6
CONTINUOUS
10
338.251
20
-30.4405
11
338.596
21
-31
0
LINE
8
BLACK
6
CONTINUOUS
10
338.596
20
-31
11
338.908
21
-31.5786
0
LINE
8
BLACK
6
CONTINUOUS
10
338.908
20
-31.5786
11
339.186
21
-32.1743
0
LINE
8
BLACK
6
CONTINUOUS
10
339.186
20
-32.1743
11
339.429
21
-32.7852
0
LINE
8
BLACK
6
CONTINUOUS
10
339.429
20
-32.7852
11
339.635
21
-33.4091
0
LINE
8
BLACK
6
CONTINUOUS
10
339.635
20
-33.4091
11
339.805
21
-34.044
0
LINE
8
BLACK
6
CONTINUOUS
10
339.805
20
-34.044
11
339.938
21
-34.6878
0
LINE
8
BLACK
6
CONTINUOUS
10
339.938
20
-34.6878
11
340.034
21
-35.3381
0
LINE
8
BLACK
6
CONTINUOUS
10
340.034
20
-35.3381
11
340.091
21
-35.993
0
LINE
8
BLACK
6
CONTINUOUS
10
340.091
20
-35.993
11
340.11
21
-36.65
0
LINE
8
BLACK
6
CONTINUOUS
10
340.11
20
-36.65
11
340.11
21
-150.37
0
LINE
8
BLACK
6
CONTINUOUS
10
340.11
20
-150.37
11
340.091
21
-151.027
0
LINE
8
BLACK
6
CONTINUOUS
10
340.091
20
-151.027
11
340.034
21
-151.682
0
LINE
8
BLACK
6
CONTINUOUS
10
340.034
20
-151.682
11
339.938
21
-152.332
0
LINE
8
BLACK
6
CONTINUOUS
10
339.938
20
-152.332
11
339.805
21
-152.976
0
LINE
8
BLACK
6
CONTINUOUS
10
339.805
20
-152.976
11
339.635
21
-153.611
0
LINE
8
BLACK
6
CONTINUOUS
10
339.635
20
-153.611
11
339.429
21
-154.235
0
LINE
8
BLACK
6
CONTINUOUS
10
339.429
20
-154.235
11
339.186
21
-154.846
0
LINE
8
BLACK
6
CONTINUOUS
10
339.186
20
-154.846
11
338.908
21
-155.441
0
LINE
8
BLACK
6
CONTINUOUS
10
338.908
20
-155.441
11
338.596
21
-156.02
0
LINE
8
BLACK
6
CONTINUOUS
10
338.596
20
-156.02
11
338.251
21
-156.579
0
LINE
8
BLACK
6
CONTINUOUS
10
338.251
20
-156.579
11
337.874
21
-157.118
0
LINE
8
BLACK
6
CONTINUOUS
10
337.874
20
-157.118
11
337.466
21
-157.633
0
LINE
8
BLACK
6
CONTINUOUS
10
337.466
20
-157.633
11
337.029
21
-158.125
0
LINE
8
BLACK
6
CONTINUOUS
10
337.029
20
-158.125
11
336.565
21
-158.589
0
LINE
8
BLACK
6
CONTINUOUS
10
336.565
20
-158.589
11
336.073
21
-159.026
0
LINE
8
BLACK
6
CONTINUOUS
10
336.073
20
-159.026
11
335.558
21
-159.434
0
LINE
8
BLACK
6
CONTINUOUS
10
335.558
20
-159.434
11
335.019
21
-159.811
0
LINE
8
BLACK
6
CONTINUOUS
10
335.019
20
-159.811
11
334.46
21
-160.156
0
LINE
8
BLACK
6
CONTINUOUS
10
334.46
20
-160.156
11
333.881
21
-160.468
0
LINE
8
BLACK
6
CONTINUOUS
10
333.881
20
-160.468
11
333.286
21
-160.746
0
LINE
8
BLACK
6
CONTINUOUS
10
333.286
20
-160.746
11
332.675
21
-160.989
0
LINE
8
BLACK
6
CONTINUOUS
10
332.675
20
-160.989
11
332.051
21
-161.195
0
LINE
8
BLACK
6
CONTINUOUS
10
332.051
20
-161.195
11
331.416
21
-161.365
0
LINE
8
BLACK
6
CONTINUOUS
10
331.416
20
-161.365
11
330.772
21
-161.498
0
LINE
8
BLACK
6
CONTINUOUS
10
330.772
20
-161.498
11
330.122
21
-161.594
0
LINE
8
BLACK
6
CONTINUOUS
10
330.122
20
-161.594
11
329.467
21
-161.651
0
LINE
8
BLACK
6
CONTINUOUS
10
329.467
20
-161.651
11
328.81
21
-161.67
0
LINE
8
BLACK
6
CONTINUOUS
10
328.81
20
-161.67
11
68.61
21
-161.67
0
LINE
8
BLACK
6
CONTINUOUS
10
68.61
20
-161.67
11
67.953
21
-161.651
0
LINE
8
BLACK
6
CONTINUOUS
10
67.953
20
-161.651
11
67.2981
21
-161.594
0
LINE
8
BLACK
6
CONTINUOUS
10
67.2981
20
-161.594
11
66.6478
21
-161.498
0
LINE
8
BLACK
6
CONTINUOUS
10
66.6478
20
-161.498
11
66.004
21
-161.365
0
LINE
8
BLACK
6
CONTINUOUS
10
66.004
20
-161.365
11
65.3691
21
-161.195
0
LINE
8
BLACK
6
CONTINUOUS
10
65.3691
20
-161.195
11
64.7452
21
-160.989
0
LINE
8
BLACK
6
CONTINUOUS
10
64.7452
20
-160.989
11
64.1343
21
-160.746
0
LINE
8
BLACK
6
CONTINUOUS
10
64.1343
20
-160.746
11
63.5386
21
-160.468
0
LINE
8
BLACK
6
CONTINUOUS
10
63.5386
20
-160.468
11
62.96
21
-160.156
0
LINE
8
BLACK
6
CONTINUOUS
10
62.96
20
-160.156
11
62.4005
21
-159.811
0
LINE
8
BLACK
6
CONTINUOUS
10
62.4005
20
-159.811
11
61.8621
21
-159.434
0
LINE
8
BLACK
6
CONTINUOUS
10
61.8621
20
-159.434
11
61.3465
21
-159.026
0
LINE
8
BLACK
6
CONTINUOUS
10
61.3465
20
-159.026
11
60.8555
21
-158.589
0
LINE
8
BLACK
6
CONTINUOUS
10
60.8555
20
-158.589
11
60.3907
21
-158.125
0
LINE
8
BLACK
6
CONTINUOUS
10
60.3907
20
-158.125
11
59.9537
21
-157.633
0
LINE
8
BLACK
6
CONTINUOUS
10
59.9537
20
-157.633
11
59.546
21
-157.118
0
LINE
8
BLACK
6
CONTINUOUS
10
59.546
20
-157.118
11
59.169
21
-156.579
0
LINE
8
BLACK
6
CONTINUOUS
10
59.169
20
-156.579
11
58.8239
21
-156.02
0
LINE
8
BLACK
6
CONTINUOUS
10
58.8239
20
-156.02
11
58.512
21
-155.441
0
LINE
8
BLACK
6
CONTINUOUS
10
58.512
20
-155.441
11
58.2342
21
-154.846
0
LINE
8
BLACK
6
CONTINUOUS
10
58.2342
20
-154.846
11
57.9915
21
-154.235
0
LINE
8
BLACK
6
CONTINUOUS
10
57.9915
20
-154.235
11
57.7847
21
-153.611
0
LINE
8
BLACK
6
CONTINUOUS
10
57.7847
20
-153.611
11
57.6146
21
-152.976
0
LINE
8
BLACK
6
CONTINUOUS
10
57.6146
20
-152.976
11
57.4817
21
-152.332
0
LINE
8
BLACK
6
CONTINUOUS
10
57.4817
20
-152.332
11
57.3864
21
-151.682
0
LINE
8
BLACK
6
CONTINUOUS
10
57.3864
20
-151.682
11
57.3291
21
-151.027
0
LINE
8
BLACK
6
CONTINUOUS
10
57.3291
20
-151.027
11
57.31
21
-150.37
0
LINE
8
BLACK
6
CONTINUOUS
10
57.31
20
-150.37
11
57.31
21
-36.65
0
LINE
8
BLACK
6
CONTINUOUS
10
57.31
20
-36.65
11
57.3291
21
-35.993
0
LINE
8
BLACK
6
CONTINUOUS
10
57.3291
20
-35.993
11
57.3864
21
-35.3381
0
LINE
8
BLACK
6
CONTINUOUS
10
57.3864
20
-35.3381
11
57.4817
21
-34.6878
0
LINE
8
BLACK
6
CONTINUOUS
10
57.4817
20
-34.6878
11
57.6146
21
-34.044
0
LINE
8
BLACK
6
CONTINUOUS
10
57.6146
20
-34.044
11
57.7847
21
-33.4091
0
LINE
8
BLACK
6
CONTINUOUS
10
57.7847
20
-33.4091
11
57.9915
21
-32.7852
0
LINE
8
BLACK
6
CONTINUOUS
10
57.9915
20
-32.7852
11
58.2342
21
-32.1743
0
LINE
8
BLACK
6
CONTINUOUS
10
58.2342
20
-32.1743
11
58.512
21
-31.5786
0
LINE
8
BLACK
6
CONTINUOUS
10
58.512
20
-31.5786
11
58.8239
21
-31
0
LINE
8
BLACK
6
CONTINUOUS
10
58.8239
20
-31
11
59.169
21
-30.4405
0
LINE
8
BLACK
6
CONTINUOUS
10
59.169
20
-30.4405
11
59.546
21
-29.9021
0
LINE
8
BLACK
6
CONTINUOUS
10
59.546
20
-29.9021
11
59.9537
21
-29.3865
0
LINE
8
BLACK
6
CONTINUOUS
10
59.9537
20
-29.3865
11
60.3907
21
-28.8955
0
LINE
8
BLACK
6
CONTINUOUS
10
60.3907
20
-28.8955
11
60.8555
21
-28.4307
0
LINE
8
BLACK
6
CONTINUOUS
10
60.8555
20
-28.4307
11
61.3465
21
-27.9937
0
LINE
8
BLACK
6
CONTINUOUS
10
61.3465
20
-27.9937
11
61.8621
21
-27.586
0
LINE
8
BLACK
6
CONTINUOUS
10
61.8621
20
-27.586
11
62.4005
21
-27.209
0
LINE
8
BLACK
6
CONTINUOUS
10
62.4005
20
-27.209
11
62.96
21
-26.8639
0
LINE
8
BLACK
6
CONTINUOUS
10
62.96
20
-26.8639
11
63.5386
21
-26.552
0
LINE
8
BLACK
6
CONTINUOUS
10
63.5386
20
-26.552
11
64.1343
21
-26.2742
0
LINE
8
BLACK
6
CONTINUOUS
10
64.1343
20
-26.2742
11
64.7452
21
-26.0315
0
LINE
8
BLACK
6
CONTINUOUS
10
64.7452
20
-26.0315
11
65.3691
21
-25.8247
0
LINE
8
BLACK
6
CONTINUOUS
10
65.3691
20
-25.8247
11
66.004
21
-25.6546
0
LINE
8
BLACK
6
CONTINUOUS
10
66.004
20
-25.6546
11
66.6478
21
-25.5217
0
LINE
8
BLACK
6
CONTINUOUS
10
66.6478
20
-25.5217
11
67.2981
21
-25.4264
0
LINE
8
BLACK
6
CONTINUOUS
10
67.2981
20
-25.4264
11
67.953
21
-25.3691
0
LINE
8
BLACK
6
CONTINUOUS
10
67.953
20
-25.3691
11
68.61
21
-25.35
0
LINE
8
BLACK
6
CONTINUOUS
10
68.61
20
-25.35
11
328.81
21
-25.35
0
LINE
8
BLACK
6
CONTINUOUS
10
68.61
20
-25.45
11
68.2841
21
-25.45
0
LINE
8
BLACK
6
CONTINUOUS
10
68.2841
20
-25.45
11
67.6334
21
-25.4879
0
LINE
8
BLACK
6
CONTINUOUS
10
67.6334
20
-25.4879
11
66.9861
21
-25.5636
0
LINE
8
BLACK
6
CONTINUOUS
10
66.9861
20
-25.5636
11
66.3442
21
-25.6767
0
LINE
8
BLACK
6
CONTINUOUS
10
66.3442
20
-25.6767
11
65.71
21
-25.8271
0
LINE
8
BLACK
6
CONTINUOUS
10
65.71
20
-25.8271
11
65.0856
21
-26.014
0
LINE
8
BLACK
6
CONTINUOUS
10
65.0856
20
-26.014
11
64.4731
21
-26.2369
0
LINE
8
BLACK
6
CONTINUOUS
10
64.4731
20
-26.2369
11
63.8747
21
-26.4951
0
LINE
8
BLACK
6
CONTINUOUS
10
63.8747
20
-26.4951
11
63.2922
21
-26.7876
0
LINE
8
BLACK
6
CONTINUOUS
10
63.2922
20
-26.7876
11
62.7278
21
-27.1135
0
LINE
8
BLACK
6
CONTINUOUS
10
62.7278
20
-27.1135
11
62.1832
21
-27.4716
0
LINE
8
BLACK
6
CONTINUOUS
10
62.1832
20
-27.4716
11
61.6604
21
-27.8608
0
LINE
8
BLACK
6
CONTINUOUS
10
61.6604
20
-27.8608
11
61.1611
21
-28.2798
0
LINE
8
BLACK
6
CONTINUOUS
10
61.1611
20
-28.2798
11
60.6871
21
-28.7271
0
LINE
8
BLACK
6
CONTINUOUS
10
60.6871
20
-28.7271
11
60.2398
21
-29.2011
0
LINE
8
BLACK
6
CONTINUOUS
10
60.2398
20
-29.2011
11
59.8208
21
-29.7004
0
LINE
8
BLACK
6
CONTINUOUS
10
59.8208
20
-29.7004
11
59.4316
21
-30.2232
0
LINE
8
BLACK
6
CONTINUOUS
10
59.4316
20
-30.2232
11
59.0735
21
-30.7678
0
LINE
8
BLACK
6
CONTINUOUS
10
59.0735
20
-30.7678
11
58.7476
21
-31.3322
0
LINE
8
BLACK
6
CONTINUOUS
10
58.7476
20
-31.3322
11
58.4551
21
-31.9147
0
LINE
8
BLACK
6
CONTINUOUS
10
58.4551
20
-31.9147
11
58.1969
21
-32.5131
0
LINE
8
BLACK
6
CONTINUOUS
10
58.1969
20
-32.5131
11
57.974
21
-33.1256
0
LINE
8
BLACK
6
CONTINUOUS
10
57.974
20
-33.1256
11
57.7871
21
-33.75
0
LINE
8
BLACK
6
CONTINUOUS
10
57.7871
20
-33.75
11
57.6367
21
-34.3842
0
LINE
8
BLACK
6
CONTINUOUS
10
57.6367
20
-34.3842
11
57.5236
21
-35.0261
0
LINE
8
BLACK
6
CONTINUOUS
10
57.5236
20
-35.0261
11
57.4479
21
-35.6734
0
LINE
8
BLACK
6
CONTINUOUS
10
57.4479
20
-35.6734
11
57.41
21
-36.3241
0
LINE
8
BLACK
6
CONTINUOUS
10
57.41
20
-36.3241
11
57.41
21
-36.65
0
LINE
8
BLACK
6
CONTINUOUS
10
57.41
20
-36.65
11
57.41
21
-150.37
0
LINE
8
BLACK
6
CONTINUOUS
10
57.41
20
-150.37
11
57.41
21
-150.696
0
LINE
8
BLACK
6
CONTINUOUS
10
57.41
20
-150.696
11
57.4479
21
-151.347
0
LINE
8
BLACK
6
CONTINUOUS
10
57.4479
20
-151.347
11
57.5236
21
-151.994
0
LINE
8
BLACK
6
CONTINUOUS
10
57.5236
20
-151.994
11
57.6367
21
-152.636
0
LINE
8
BLACK
6
CONTINUOUS
10
57.6367
20
-152.636
11
57.7871
21
-153.27
0
LINE
8
BLACK
6
CONTINUOUS
10
57.7871
20
-153.27
11
57.974
21
-153.894
0
LINE
8
BLACK
6
CONTINUOUS
10
57.974
20
-153.894
11
58.1969
21
-154.507
0
LINE
8
BLACK
6
CONTINUOUS
10
58.1969
20
-154.507
11
58.4551
21
-155.105
0
LINE
8
BLACK
6
CONTINUOUS
10
58.4551
20
-155.105
11
58.7476
21
-155.688
0
LINE
8
BLACK
6
CONTINUOUS
10
58.7476
20
-155.688
11
59.0735
21
-156.252
0
LINE
8
BLACK
6
CONTINUOUS
10
59.0735
20
-156.252
11
59.4316
21
-156.797
0
LINE
8
BLACK
6
CONTINUOUS
10
59.4316
20
-156.797
11
59.8208
21
-157.32
0
LINE
8
BLACK
6
CONTINUOUS
10
59.8208
20
-157.32
11
60.2398
21
-157.819
0
LINE
8
BLACK
6
CONTINUOUS
10
60.2398
20
-157.819
11
60.6871
21
-158.293
0
LINE
8
BLACK
6
CONTINUOUS
10
60.6871
20
-158.293
11
61.1611
21
-158.74
0
LINE
8
BLACK
6
CONTINUOUS
10
61.1611
20
-158.74
11
61.6604
21
-159.159
0
LINE
8
BLACK
6
CONTINUOUS
10
61.6604
20
-159.159
11
62.1832
21
-159.548
0
LINE
8
BLACK
6
CONTINUOUS
10
62.1832
20
-159.548
11
62.7278
21
-159.907
0
LINE
8
BLACK
6
CONTINUOUS
10
62.7278
20
-159.907
11
63.2922
21
-160.232
0
LINE
8
BLACK
6
CONTINUOUS
10
63.2922
20
-160.232
11
63.8747
21
-160.525
0
LINE
8
BLACK
6
CONTINUOUS
10
63.8747
20
-160.525
11
64.4731
21
-160.783
0
LINE
8
BLACK
6
CONTINUOUS
10
64.4731
20
-160.783
11
65.0856
21
-161.006
0
LINE
8
BLACK
6
CONTINUOUS
10
65.0856
20
-161.006
11
65.71
21
-161.193
0
LINE
8
BLACK
6
CONTINUOUS
10
65.71
20
-161.193
11
66.3442
21
-161.343
0
LINE
8
BLACK
6
CONTINUOUS
10
66.3442
20
-161.343
11
66.9861
21
-161.456
0
LINE
8
BLACK
6
CONTINUOUS
10
66.9861
20
-161.456
11
67.6334
21
-161.532
0
LINE
8
BLACK
6
CONTINUOUS
10
67.6334
20
-161.532
11
68.2841
21
-161.57
0
LINE
8
BLACK
6
CONTINUOUS
10
68.2841
20
-161.57
11
68.61
21
-161.57
0
LINE
8
BLACK
6
CONTINUOUS
10
68.61
20
-161.57
11
328.81
21
-161.57
0
LINE
8
BLACK
6
CONTINUOUS
10
328.81
20
-161.57
11
329.136
21
-161.57
0
LINE
8
BLACK
6
CONTINUOUS
10
329.136
20
-161.57
11
329.787
21
-161.532
0
LINE
8
BLACK
6
CONTINUOUS
10
329.787
20
-161.532
11
330.434
21
-161.456
0
LINE
8
BLACK
6
CONTINUOUS
10
330.434
20
-161.456
11
331.076
21
-161.343
0
LINE
8
BLACK
6
CONTINUOUS
10
331.076
20
-161.343
11
331.71
21
-161.193
0
LINE
8
BLACK
6
CONTINUOUS
10
331.71
20
-161.193
11
332.334
21
-161.006
0
LINE
8
BLACK
6
CONTINUOUS
10
332.334
20
-161.006
11
332.947
21
-160.783
0
LINE
8
BLACK
6
CONTINUOUS
10
332.947
20
-160.783
11
333.545
21
-160.525
0
LINE
8
BLACK
6
CONTINUOUS
10
333.545
20
-160.525
11
334.128
21
-160.232
0
LINE
8
BLACK
6
CONTINUOUS
10
334.128
20
-160.232
11
334.692
21
-159.907
0
LINE
8
BLACK
6
CONTINUOUS
10
334.692
20
-159.907
11
335.237
21
-159.548
0
LINE
8
BLACK
6
CONTINUOUS
10
335.237
20
-159.548
11
335.76
21
-159.159
0
LINE
8
BLACK
6
CONTINUOUS
10
335.76
20
-159.159
11
336.259
21
-158.74
0
LINE
8
BLACK
6
CONTINUOUS
10
336.259
20
-158.74
11
336.733
21
-158.293
0
LINE
8
BLACK
6
CONTINUOUS
10
336.733
20
-158.293
11
337.18
21
-157.819
0
LINE
8
BLACK
6
CONTINUOUS
10
337.18
20
-157.819
11
337.599
21
-157.32
0
LINE
8
BLACK
6
CONTINUOUS
10
337.599
20
-157.32
11
337.988
21
-156.797
0
LINE
8
BLACK
6
CONTINUOUS
10
337.988
20
-156.797
11
338.347
21
-156.252
0
LINE
8
BLACK
6
CONTINUOUS
10
338.347
20
-156.252
11
338.672
21
-155.688
0
LINE
8
BLACK
6
CONTINUOUS
10
338.672
20
-155.688
11
338.965
21
-155.105
0
LINE
8
BLACK
6
CONTINUOUS
10
338.965
20
-155.105
11
339.223
21
-154.507
0
LINE
8
BLACK
6
CONTINUOUS
10
339.223
20
-154.507
11
339.446
21
-153.894
0
LINE
8
BLACK
6
CONTINUOUS
10
339.446
20
-153.894
11
339.633
21
-153.27
0
LINE
8
BLACK
6
CONTINUOUS
10
339.633
20
-153.27
11
339.783
21
-152.636
0
LINE
8
BLACK
6
CONTINUOUS
10
339.783
20
-152.636
11
339.896
21
-151.994
0
LINE
8
BLACK
6
CONTINUOUS
10
339.896
20
-151.994
11
339.972
21
-151.347
0
LINE
8
BLACK
6
CONTINUOUS
10
339.972
20
-151.347
11
340.01
21
-150.696
0
LINE
8
BLACK
6
CONTINUOUS
10
340.01
20
-150.696
11
340.01
21
-150.37
0
LINE
8
BLACK
6
CONTINUOUS
10
340.01
20
-150.37
11
340.01
21
-36.65
0
LINE
8
BLACK
6
CONTINUOUS
10
340.01
20
-36.65
11
340.01
21
-36.3241
0
LINE
8
BLACK
6
CONTINUOUS
10
340.01
20
-36.3241
11
339.972
21
-35.6734
0
LINE
8
BLACK
6
CONTINUOUS
10
339.972
20
-35.6734
11
339.896
21
-35.0261
0
LINE
8
BLACK
6
CONTINUOUS
10
339.896
20
-35.0261
11
339.783
21
-34.3842
0
LINE
8
BLACK
6
CONTINUOUS
10
339.783
20
-34.3842
11
339.633
21
-33.75
0
LINE
8
BLACK
6
CONTINUOUS
10
339.633
20
-33.75
11
339.446
21
-33.1256
0
LINE
8
BLACK
6
CONTINUOUS
10
339.446
20
-33.1256
11
339.223
21
-32.5131
0
LINE
8
BLACK
6
CONTINUOUS
10
339.223
20
-32.5131
11
338.965
21
-31.9147
0
LINE
8
BLACK
6
CONTINUOUS
10
338.965
20
-31.9147
11
338.672
21
-31.3322
0
LINE
8
BLACK
6
CONTINUOUS
10
338.672
20
-31.3322
11
338.347
21
-30.7678
0
LINE
8
BLACK
6
CONTINUOUS
10
338.347
20
-30.7678
11
337.988
21
-30.2232
0
LINE
8
BLACK
6
CONTINUOUS
10
337.988
20
-30.2232
11
337.599
21
-29.7004
0
LINE
8
BLACK
6
CONTINUOUS
10
337.599
20
-29.7004
11
337.18
21
-29.2011
0
LINE
8
BLACK
6
CONTINUOUS
10
337.18
20
-29.2011
11
336.733
21
-28.7271
0
LINE
8
BLACK
6
CONTINUOUS
10
336.733
20
-28.7271
11
336.259
21
-28.2798
0
LINE
8
BLACK
6
CONTINUOUS
10
336.259
20
-28.2798
11
335.76
21
-27.8608
0
LINE
8
BLACK
6
CONTINUOUS
10
335.76
20
-27.8608
11
335.237
21
-27.4716
0
LINE
8
BLACK
6
CONTINUOUS
10
335.237
20
-27.4716
11
334.692
21
-27.1135
0
LINE
8
BLACK
6
CONTINUOUS
10
334.692
20
-27.1135
11
334.128
21
-26.7876
0
LINE
8
BLACK
6
CONTINUOUS
10
334.128
20
-26.7876
11
333.545
21
-26.4951
0
LINE
8
BLACK
6
CONTINUOUS
10
333.545
20
-26.4951
11
332.947
21
-26.2369
0
LINE
8
BLACK
6
CONTINUOUS
10
332.947
20
-26.2369
11
332.334
21
-26.014
0
LINE
8
BLACK
6
CONTINUOUS
10
332.334
20
-26.014
11
331.71
21
-25.8271
0
LINE
8
BLACK
6
CONTINUOUS
10
331.71
20
-25.8271
11
331.076
21
-25.6767
0
LINE
8
BLACK
6
CONTINUOUS
10
331.076
20
-25.6767
11
330.434
21
-25.5636
0
LINE
8
BLACK
6
CONTINUOUS
10
330.434
20
-25.5636
11
329.787
21
-25.4879
0
LINE
8
BLACK
6
CONTINUOUS
10
329.787
20
-25.4879
11
329.136
21
-25.45
0
LINE
8
BLACK
6
CONTINUOUS
10
329.136
20
-25.45
11
328.81
21
-25.45
0
LINE
8
BLACK
6
CONTINUOUS
10
328.81
20
-25.45
11
68.61
21
-25.45
  0
ENDSEC
  0
EOF
